<?xml version="1.0" encoding="UTF-8"?>
<svg id="_レイヤー_2" data-name="レイヤー 2" xmlns="http://www.w3.org/2000/svg" viewBox="0 0 89.78 142.63">
  <defs>
    <style>
      .cls-1 {
        fill: #fff;
      }

      .cls-2 {
        fill: #262424;
      }

      .cls-3 {
        fill: #c47a3e;
      }
    </style>
  </defs>
  <g id="_背景" data-name="背景">
    <g>
      <path class="cls-1" d="M56.52,71.32c-.34-2.68-.68-5.36-1.03-8.03-1.16.05-2.14.08-3.11.14-1.75.1-3.49.23-5.24.32-1.32.06-2.65.11-3.98.1-2.61-.02-5.21-.09-7.81-.14-.9-.01-1.8.06-2.69-.03-1.24-.13-1.55,0-1.89,1.15-.48,1.63-.97,3.26-1.39,4.9-.46,1.8-.69,3.68-1.29,5.42-.81,2.35-1.5,4.7-1.83,7.18-.28,2.08-1,4.1-1.33,6.19-.32,1.99-.95,4.07.52,5.94.04.06.03.15.05.23.28,2.03.5,4.06.85,6.07.32,1.85.74,3.68,1.17,5.5.2.82.79,1.19,1.64,1.22.42.01.85.03,1.26.09,1.15.17,2.28.43,3.43.53,1.53.13,3.07-.14,4.58-.19,1.53-.05,2.44-.65,3.36-1.69,1.11-1.25,2.3-2.43,3.49-3.6.94-.93,1.94-1.79,2.89-2.7,1.09-1.04,2.2-2.07,3.25-3.16,1.12-1.16,2.29-2.31,3.21-3.62.76-1.08,1.31-2.35,1.75-3.6.41-1.18.77-2.45.79-3.69.04-2.07-.17-4.12.19-6.21.19-1.13-.14-2.35-.26-3.52-.17-1.6-.37-3.21-.57-4.81"/>
      <path class="cls-1" d="M31.38,42.89c-.18-2.38-.81-4.73-2.46-6.76-1.6-1.97-4.56-2.86-6.62-2.34-.56.14-1.15.25-1.72.22-1.68-.1-2.7.86-3.61,2.07-1.24,1.65-1.01,3.63-1.23,5-.14,2.15.52,3.52,1.66,4.64,1.72,1.68,3.63,2.97,6.04,3.65,4.13,1.15,8.29-1.84,7.94-6.48M27.05,44.62c-.56,1.01-1.03,1.3-2.43,1.28-.95-.08-1.9-.08-2.83-.24-2.07-.37-3.49-2.34-3.27-4.44.02-.16.06-.32.04-.48-.37-2.76.85-2.97,2.84-3.56,1.12-.33,2.09-.19,3,.48,1.18.86,2.24,1.82,2.71,3.25.4,1.23.63,2.46-.06,3.71Z"/>
      <path class="cls-1" d="M64.36,44.73c.05-.05.08-.14.1-.22.41-1.51,1.06-2.96.79-4.64.19-1.64-.37-3.19-1.19-4.57-1.23-2.06-3.09-3.23-5.62-3.05-.61.04-1.25.12-1.83-.04-.95-.25-1.76.06-2.49.5-1.74,1.04-3.26,2.32-3.83,4.41-.12.45-.44.9-.39,1.32.15,1.14-.25,2.42.74,3.39.08.08.08.25.1.38.2,1.66,1.14,2.95,2.17,4.18.29.35.69.67,1.11.86,2.17,1,4.44.78,6.64.23,1.54-.38,2.58-1.69,3.7-2.77M54.31,42.54c-.23-.81-.38-1.64-.56-2.47.02-1.27.29-2.45.9-3.53.09-.16.21-.32.36-.41,1.3-.8,2.6-1.21,4.2-.76,2.13.6,3.25,2.6,3.12,4.04-.13,1.38-.03,3.15-1.67,4.04-.27.15-.49.4-.73.62-1.85,1.74-4.95.91-5.63-1.53Z"/>
      <path class="cls-1" d="M38.15,55.41c.63,1.15,1.51,2.12,2.68,2.76,1.99,1.08,4.21.58,6.4,1.03,1.39-.2,2.85-.48,4.33-.61,1.17-.11,1.89-.63,2.29-1.72.17-.47.51-.87.74-1.32.11-.23.24-.53.17-.74-.33-1.06-.55-2.2-1.12-3.12-1.89-3.03-4.89-3.91-8.24-3.82-2.33.07-4.39,1.17-6.51,2.01-.12.05-.27.13-.31.24-.43,1.14-1.36,2.14-1.03,3.49.15.62.29,1.26.59,1.81M43.87,49.37c.49-.1.99-.11,1.42-.16,1.8.09,2.35.59,2.78,2.11.17.61-.12,1.04-.62,1.32-.99.57-3.71-.04-4.41-.96-.75-.98-.37-2.08.84-2.32ZM40.08,52.8c.15-.15.6-.18.8-.07.5.28.95.67,1.4,1.04,1.23,1.03,2.68,1.17,4.2,1.04,1.03-.08,1.77-.64,2.41-1.39.22-.26.44-.54.71-.75.22-.18.68-.44.75-.38.24.23.37.58.51.9.04.09,0,.21,0,.41.1.78-.37,1.41-.93,2.01-1.03,1.1-2.1,2.12-3.71,2.23-.96.06-1.84-.2-2.6-.76-.97-.72-1.92-1.46-2.83-2.25-.37-.32-.67-.76-.87-1.21-.1-.22-.01-.65.16-.83Z"/>
      <path class="cls-1" d="M51.02,25.99c.98.71,1.99,1.42,3.04,2.02.77.44,1.27,1,1.15,1.89-.14.99-.34,1.98-.62,2.94-.18.61-.55,1.17-.83,1.74,1.25.47,2.39.89,3.53,1.33.41.16.66.11.89-.33.42-.8.94-1.54,1.37-2.34.45-.84,1-1.67,1.23-2.58.27-1.08.77-1.95,1.46-2.79.64-.78,1.26-1.58,1.78-2.43.47-.77.37-1.6-.08-2.56-.94,1.04-1.78,2-2.64,2.92-.47.5-.91,1.25-1.48,1.38-.75.17-1.64-.06-2.41-.31-1.66-.55-3.27-1.23-4.9-1.83-.69-.25-1.4-.44-2.29-.08.3.39.5.79.81,1.02"/>
      <path class="cls-1" d="M30.23,36.93c.72-.22,1.41-.53,2.18-.83-.13-.18-.18-.27-.25-.34-1.01-1.08-2.05-2.14-3.04-3.24-.7-.79-.65-1.4.13-2.14.38-.36.88-.63,1.21-1.03.39-.47.76-1.01.96-1.59.16-.47-.13-.92-.7-.6-.84.47-1.62,1.05-2.42,1.59-.63.43-1.22.92-1.89,1.28-.54.29-1.05.21-1.57-.3-1.37-1.34-3.14-1.85-5.02-2.21.04.16.18.19.28.27,1.23,1.05,2.5,2.05,3.67,3.17,1.96,1.86,3.85,3.8,5.79,5.69.17.16.49.34.66.28"/>
      <path class="cls-2" d="M24.4,37.67c-.92-.67-1.88-.81-3-.48-1.99.58-3.21.8-2.84,3.56.02.15-.02.32-.04.48-.22,2.1,1.2,4.07,3.27,4.44.93.17,1.89.17,2.83.24,1.39.02,1.87-.27,2.43-1.28.69-1.25.46-2.48.06-3.71-.47-1.43-1.53-2.39-2.71-3.25"/>
      <path class="cls-2" d="M62.34,39.42c.13-1.44-.99-3.45-3.12-4.04-1.6-.45-2.91-.04-4.2.76-.15.09-.27.25-.36.41-.62,1.09-.89,2.26-.9,3.53.19.82.34,1.66.56,2.47.68,2.44,3.78,3.28,5.63,1.53.23-.22.45-.47.73-.62,1.64-.89,1.54-2.66,1.67-4.04"/>
      <path class="cls-2" d="M40.8,54.84c.91.79,1.86,1.54,2.83,2.25.76.56,1.64.83,2.6.76,1.62-.11,2.69-1.12,3.71-2.23.56-.6,1.02-1.22.93-2.01,0-.2.03-.32,0-.41-.15-.32-.27-.67-.51-.9-.07-.07-.52.2-.75.38-.27.21-.48.49-.71.75-.64.75-1.38,1.31-2.41,1.39-1.52.12-2.97-.01-4.2-1.04-.45-.37-.9-.76-1.4-1.04-.2-.12-.65-.08-.8.07-.17.17-.26.61-.16.83.21.44.5.89.87,1.21"/>
      <path class="cls-2" d="M47.44,52.65c.5-.28.79-.71.62-1.32-.43-1.52-.98-2.02-2.78-2.11-.43.05-.93.06-1.42.16-1.2.25-1.59,1.34-.84,2.32.7.92,3.42,1.52,4.41.96"/>
      <path class="cls-3" d="M87.56,69.35c-1.33-.07-2.66-.1-3.99-.14-.29,0-.57,0-.97,0,.15-.37.26-.63.35-.9.31-.89.05-1.9-.6-2.4-.65-.49-1.54-.44-2.37.15-1.19.84-4.03,5.23-4.46,6.61-.51,1.65-1.16,3.32-2.54,4.43-2.85,2.3-5.79,4.49-8.86,6.86-.5-.51-1.04-.94-1.43-1.48-.53-.73-.96-1.53-1.39-2.32-1.03-1.92-2.07-3.82-2.46-6.05-.5-2.89-1.07-5.76-1.04-8.69,0-1.09.16-2.28.63-3.23.8-1.63,1.91-3.1,2.89-4.64.07-.11.19-.19.27-.29.83-1.07,1.7-2.1,2.46-3.21,1.21-1.75,2.19-3.69,3.57-5.28,1.47-1.69,2.29-3.75,3.61-5.5.12-.15.15-.41.14-.61-.08-1.56-.09-3.12-.29-4.66-.25-1.9-1.2-3.56-2.27-5.1-1.03-1.47-2.25-2.81-3.37-4.22-1.07-1.35-2.11-2.71-3.17-4.07.05-.09.09-.18.14-.26.83.38,1.66.75,2.49,1.14.72.34,1.4.79,2.15,1.02,1.29.39,2.63.66,3.95.96.65.15,1.3.26,1.96.38,1.97.36,3.74,0,5.41-1.21,2-1.44,4.22-2.57,5.93-4.41.55-.59.55-1.14.09-1.68-.35-.42-.76-.84-1.24-1.09-.7-.37-1.46-.66-2.23-.85-2.74-.69-5.35-1.71-7.9-2.9-2.09-.98-4.21-.98-6.24.03-1.56.77-2.98,1.83-4.5,2.7-.67.38-1.44.61-2.19.86-.12.04-.49-.22-.48-.31.04-.39.05-.91.3-1.13,1.11-.96,1.49-2.3,2.09-3.54.88-1.82,1.84-3.6,2.68-5.44.86-1.88,1.19-3.83.67-5.9-.69-2.74-3.08-3.39-5.12-2.75-2.02.63-3.72,1.81-5.16,3.35-.34.36-.63.4-1.1.31-2.42-.47-4.85-.98-7.29-1.28-1.76-.22-3.5.14-5.04,1.14-.75.49-1.07,1.23-.63,1.99.88,1.53,1.72,3.12,3.32,4.08.64.38,1.28.76,1.88,1.19.46.32.62.79.36,1.34-.38.81-.77,1.62-1.16,2.44-.55,1.15-1.24,1.59-2.43,1.21-1.9-.62-3.72-.32-5.58.08-1.27.27-2.49.6-3.52-.73-.48-.62-1.34-.94-2.03-1.38-.66-.42-.94-.92-.38-1.63,1.31-1.67,1.62-3.59,1.42-5.65-.2-2.12-2.18-3.28-3.88-3.09-1.25.14-2.48.71-3.67,1.21-.8.33-1.52.87-2.3,1.28-.24.12-.57.22-.81.15-2.72-.83-5.43-1.66-8.13-2.56-1.08-.36-2.09-.3-3.12.06-.61.21-.86.72-.86,1.31,0,.44.02.96.24,1.31.53.87,1.12,1.73,1.79,2.49,2.75,3.13,5.55,6.23,8.33,9.34.57.64,1.16,1.27,1.81,1.98-.67.24-1.12.57-1.72.05-1.62-1.37-3.22-2.79-4.97-3.98-1-.68-2.29-1.38-3.42-1.34-2.8.12-5.6.61-8.38,1.05-1.36.21-2.65.7-3.86,1.57.93,1.09,1.5,2.37,2.85,3.02.96.46,1.85,1.06,2.72,1.66,2.33,1.6,4.89,2.39,7.71,2.43.78.01,1.56.14,2.37.21-.39,1.37-.77,2.58-1.09,3.81-.58,2.24-1.05,4.5-1.7,6.72-.71,2.42-1.64,4.78-2.35,7.2-.23.78-.25,1.71-.06,2.5.38,1.65.97,3.25,2.26,4.47.67.64,1.3,1.32,1.94,1.99,1.4,1.47,2.7,3.04,4.2,4.41,1.34,1.22,2.87,2.24,4.33,3.33,1.13.84,2.28,1.66,3.41,2.49q1.22.89.44,2.25c-.09.16-.17.33-.25.5-1,2.13-2.01,4.26-2.99,6.41-.77,1.69-1.49,3.39-2.22,5.1-.38.87-.72,1.75-1.1,2.63-.54,1.26-1.09,2.52-1.64,3.78-.38.87-.72,1.76-1.16,2.6-.63,1.17-1.3,2.32-2.02,3.43-1.99,3.07-4.06,6.09-6.03,9.18-1.04,1.64-2.41,2.68-4.27,3.25-1.62.5-2.31,1.84-2.29,3.79.02,1.57.33,1.93,2.31,2.67.07.03.15.06.22.09,1.44.5,3.45,0,4.23-1.07.79-1.09,1.24-2.26,1.07-3.65-.04-.35.06-.82.28-1.09,1.39-1.74,2.82-3.45,4.25-5.16.74-.88,1.49-1.75,2.27-2.66-.14,3.58-.27,7.08-.4,10.52-.53-.25-1.1-.58-1.71-.8-.9-.33-2.08.4-1.91,1.3.27,1.47.58,3.02,1.31,4.29.75,1.31,1.81,2.63,3.81,2.41.22,1.16.39,2.25.63,3.32.15.67.31,1.37.65,1.96,1.97,3.43,4.06,6.79,5.99,10.25,1.3,2.34,2.41,4.78,3.58,7.19.28.57.34,1.3.74,1.73.66.73.62,1.42.38,2.25-.12.41-.21.96-.04,1.31.6,1.24,1.51,2.23,2.9,2.64.48.14.98.25,1.47.37,2.16.54,4.5-.98,4.83-3.15.26-1.75-.7-3.63-2.39-4.28-.81-.31-1.17-.83-1.41-1.55-.09-.28-.16-.56-.27-.83-1.41-3.36-2.89-6.68-4.22-10.07-1.2-3.06-2.23-6.19-3.32-9.29-.11-.3-.1-.64-.16-1.03,2.37-.07,4.62-.16,6.88-.2.24,0,.59.18.73.38.56.84,1.1,1.69,1.58,2.58.75,1.4,1.45,2.83,2.16,4.25.29.57.51,1.17.85,1.7.78,1.22,1.6,2.41,2.41,3.61.22.32.52.61.68.96.57,1.17,1.08,2.36,1.64,3.54.6,1.27,1.24,2.51,1.83,3.78.16.35.38.84.26,1.13-.5,1.18-.07,2.26.22,3.35.58,2.16,2.92,3.64,5.09,3.29.99-.16,1.83-.47,2.34-1.43.51-.95.92-1.86.04-2.82-.02-.02-.02-.05-.03-.07-.63-1.64-1.9-2.67-3.32-3.58-.37-.23-.85-.51-.97-.87-.39-1.15-.65-2.35-.92-3.54-.12-.53-.04-1.1-.19-1.62-.32-1.09-.79-2.12-1.1-3.21-1.16-4.02-1.98-8.1-1.86-12.31.02-.72-.06-1.63.33-2.11,2.29-2.83,4.71-5.55,7.06-8.34,1.4-1.66,3.05-3.15,3.65-5.35.25-.92.56-1.82.76-2.75.17-.79.23-1.6.3-2.4.04-.4,0-.8,0-1.44.49.68.83,1.15,1.17,1.61.37.49.75.96,1.14,1.44,1.01,1.25,2.68,1.39,3.82.29.73-.7,1.39-1.46,2.1-2.18,1.94-1.97,3.92-3.9,5.8-5.92,1.27-1.36,2.47-2.79,3.6-4.27.82-1.06,1.81-1.64,3.12-1.85,1.52-.25,3.03-.56,4.53-.92,2.53-.62,4.46-2.15,5.45-4.52.88-2.1.56-3.04-1.77-3.15M46.65,6.26c.89-.36,1.6-.17,2.29.08,1.64.61,3.25,1.29,4.9,1.83.77.25,1.66.48,2.41.31.57-.13,1.01-.88,1.48-1.38.86-.93,1.7-1.88,2.64-2.92.45.96.55,1.79.08,2.56-.52.86-1.15,1.65-1.78,2.43-.68.83-1.19,1.71-1.46,2.78-.22.91-.77,1.74-1.23,2.58-.43.79-.96,1.53-1.37,2.34-.23.44-.48.49-.89.33-1.13-.44-2.28-.86-3.53-1.33.28-.57.65-1.12.83-1.74.28-.96.48-1.95.62-2.94.13-.9-.37-1.45-1.15-1.89-1.06-.61-2.06-1.31-3.04-2.02-.32-.23-.51-.63-.81-1.02ZM38.59,50.11c.04-.1.19-.19.31-.24,2.12-.84,4.18-1.95,6.51-2.01,3.35-.1,6.35.79,8.24,3.82.57.92.79,2.06,1.12,3.12.07.21-.06.52-.17.74-.22.45-.56.85-.74,1.32-.4,1.09-1.12,1.61-2.29,1.72-1.48.14-2.94.41-4.33.61-2.19-.45-4.42.06-6.4-1.03-1.18-.64-2.05-1.61-2.68-2.76-.3-.55-.44-1.19-.59-1.81-.34-1.35.59-2.35,1.03-3.49ZM20.22,12.25c-1.17-1.11-2.44-2.12-3.67-3.17-.1-.08-.24-.11-.28-.27,1.87.35,3.65.87,5.02,2.21.51.51,1.03.59,1.57.3.67-.36,1.26-.85,1.89-1.28.8-.54,1.58-1.12,2.42-1.59.57-.32.86.13.7.6-.2.57-.57,1.11-.96,1.59-.33.4-.83.66-1.21,1.03-.78.74-.83,1.36-.13,2.14.99,1.1,2.03,2.16,3.04,3.24.07.07.12.16.25.34-.76.3-1.46.61-2.18.83-.18.05-.5-.12-.66-.28-1.93-1.89-3.83-3.83-5.79-5.69ZM23.44,49.37c-2.41-.67-4.32-1.97-6.04-3.65-1.14-1.12-1.81-2.49-1.66-4.64.22-1.38-.01-3.35,1.23-5,.91-1.21,1.93-2.17,3.61-2.07.57.03,1.16-.08,1.72-.22,2.06-.52,5.02.37,6.62,2.34,1.65,2.03,2.29,4.38,2.46,6.76.35,4.64-3.81,7.63-7.94,6.48ZM57.35,79.65c-.36,2.08-.15,4.14-.19,6.21-.03,1.24-.38,2.5-.79,3.69-.44,1.25-.98,2.52-1.75,3.6-.92,1.31-2.09,2.45-3.21,3.62-1.05,1.09-2.15,2.12-3.25,3.16-.96.91-1.95,1.78-2.89,2.7-1.19,1.18-2.38,2.35-3.49,3.6-.92,1.04-1.83,1.64-3.36,1.69-1.52.05-3.05.32-4.58.19-1.15-.1-2.29-.36-3.43-.53-.42-.06-.84-.08-1.26-.09-.84-.03-1.44-.4-1.64-1.22-.43-1.82-.85-3.66-1.17-5.5-.35-2.01-.57-4.05-.85-6.07-.01-.08,0-.18-.05-.23-1.46-1.86-.83-3.95-.52-5.94.33-2.08,1.05-4.1,1.33-6.19.33-2.48,1.02-4.83,1.83-7.18.6-1.75.84-3.62,1.29-5.42.42-1.64.91-3.27,1.39-4.9.34-1.15.65-1.28,1.89-1.15.89.09,1.79.02,2.69.03,2.6.04,5.21.11,7.81.14,1.33.01,2.65-.04,3.98-.1,1.75-.08,3.49-.22,5.24-.32.97-.06,1.95-.09,3.11-.14.34,2.67.69,5.35,1.03,8.03.2,1.6.39,3.2.57,4.81.13,1.18.46,2.4.26,3.52ZM54.02,47.26c-.42-.19-.82-.51-1.11-.86-1.02-1.23-1.96-2.52-2.17-4.18-.02-.13-.02-.3-.1-.38-.98-.97-.59-2.25-.74-3.39-.06-.42.26-.87.39-1.32.57-2.09,2.09-3.36,3.83-4.41.73-.44,1.54-.75,2.49-.5.57.15,1.22.08,1.83.04,2.53-.18,4.39.99,5.62,3.05.82,1.37,1.37,2.93,1.19,4.57.27,1.67-.38,3.13-.79,4.64-.02.07-.04.17-.1.22-1.13,1.07-2.16,2.39-3.7,2.77-2.2.54-4.47.77-6.64-.23Z"/>
    </g>
  </g>
</svg>