<?xml version="1.0" encoding="UTF-8"?>
<svg id="_レイヤー_2" data-name="レイヤー 2" xmlns="http://www.w3.org/2000/svg" viewBox="0 0 82.45 82">
  <defs>
    <style>
      .cls-1 {
        fill: #ffe656;
      }
    </style>
  </defs>
  <g id="_背景" data-name="背景">
    <g>
      <polygon class="cls-1" points="82.45 41 78.25 44.9 81.55 49.57 76.63 52.51 78.89 57.77 73.47 59.61 74.57 65.23 68.89 65.91 68.81 71.64 63.1 71.12 61.84 76.71 56.37 75.02 53.97 80.22 48.97 77.42 45.53 82 41.22 78.22 36.92 82 33.48 77.42 28.48 80.22 26.08 75.02 20.61 76.71 19.34 71.12 13.64 71.64 13.56 65.91 7.87 65.23 8.98 59.61 3.56 57.77 5.81 52.51 .89 49.57 4.2 44.9 0 41 4.2 37.11 .89 32.43 5.81 29.49 3.56 24.23 8.98 22.39 7.87 16.77 13.56 16.09 13.64 10.37 19.34 10.88 20.61 5.3 26.08 6.99 28.48 1.78 33.48 4.58 36.92 0 41.22 3.78 45.53 0 48.97 4.58 53.97 1.79 56.37 6.99 61.84 5.3 63.1 10.88 68.81 10.37 68.89 16.09 74.58 16.77 73.47 22.39 78.89 24.23 76.63 29.49 81.55 32.43 78.25 37.11 82.45 41"/>
      <g>
        <path d="M37.8,39.15v2.14h2.18v1.72h-2.18v4.76c0,1-.22,1.54-.9,1.86-.7.26-1.8.3-3.3.3-.08-.54-.32-1.32-.58-1.86,1.12.04,2.2.04,2.52.02.32,0,.42-.08.42-.36v-4.72h-6.96v-1.06l-1.92.6v7.38h-1.72v-6.84c-1.14.34-2.22.66-3.16.94l-.48-1.78c1-.24,2.26-.58,3.64-.98v-4.02h-1.62c-.24,1.04-.5,1.98-.82,2.74-.28-.22-.98-.64-1.34-.84.68-1.62,1.06-4.14,1.24-6.52l1.6.28c-.1.86-.2,1.74-.36,2.58h1.3v-3.9h1.72v3.9h1.86v1.76h-1.86v3.54l2.1-.62.16,1.12h6.62v-2.14h-7.34v-1.72h4.92v-2.18h-3.74v-1.68h3.74v-2h1.84v2h3.86v1.68h-3.86v2.18h4.76v1.72h-2.34ZM31.3,43.33c.94.9,2,2.2,2.46,3.08l-1.48.96c-.42-.88-1.46-2.24-2.38-3.18l1.4-.86Z"/>
        <path d="M55.38,45.23c1.86,1.26,4.54,2.34,6.9,2.9-.38.38-.9,1.06-1.14,1.52-2.48-.74-5.28-2.08-7.28-3.66v3.94h-1.84v-3.9c-2.02,1.62-4.82,3-7.26,3.72-.28-.44-.82-1.14-1.2-1.52,2.4-.56,5.12-1.7,7.02-3h-6.48v-1.5h7.92v-1.06h-5.56v-5.64c-.48.5-1,.98-1.56,1.44-.3-.42-.92-.98-1.32-1.26,2.2-1.66,3.82-3.88,4.7-5.66l1.94.38c-.36.62-.74,1.28-1.18,1.92h3.4c.38-.74.76-1.6.98-2.26l2.06.26c-.36.7-.74,1.4-1.12,2h6.28v1.48h-6.38v1.1h5.5v1.26h-5.5v1.14h5.54v1.24h-5.54v1.16h7.06v1.44h-7.46v1.06h8v1.5h-6.48ZM52.48,35.33h-4.28v1.1h4.28v-1.1ZM52.48,37.69h-4.28v1.14h4.28v-1.14ZM48.2,41.23h4.28v-1.16h-4.28v1.16Z"/>
      </g>
    </g>
  </g>
</svg>