<?xml version="1.0" encoding="UTF-8"?>
<svg id="_レイヤー_2" data-name="レイヤー 2" xmlns="http://www.w3.org/2000/svg" xmlns:xlink="http://www.w3.org/1999/xlink" viewBox="0 0 473.14 105.18">
  <defs>
    <style>
      .cls-1 {
        fill: none;
      }

      .cls-2 {
        fill: #fff;
      }

      .cls-3 {
        fill: #6faf69;
      }

      .cls-4 {
        clip-path: url(#clippath);
      }
    </style>
    <clipPath id="clippath">
      <path class="cls-1" d="M66.93,32.84c0,18.14-14.62,32.84-32.68,32.84S1.57,50.98,1.57,32.84,16.19,0,34.25,0s32.68,14.71,32.68,32.84Z"/>
    </clipPath>
  </defs>
  <g id="_背景" data-name="背景">
    <g>
      <g>
        <path d="M114.6,87.18h5.78c3.65,0,6.38,1.32,6.38,5.14,0,2.74-1.46,4.37-3.7,5.06l4.32,7.49h-3.14l-4.01-7.13h-2.86v7.13h-2.78v-17.69ZM120.04,95.51c2.57,0,3.96-1.06,3.96-3.19s-1.39-2.88-3.96-2.88h-2.66v6.07h2.66Z"/>
        <path d="M134.18,87.18h10.44v2.35h-7.66v4.92h6.48v2.35h-6.48v5.71h7.92v2.35h-10.71v-17.69Z"/>
        <path d="M151.46,96.08c0-5.76,3.5-9.22,7.97-9.22,2.21,0,3.94,1.06,5.02,2.23l-1.51,1.78c-.91-.94-2.02-1.58-3.46-1.58-3.05,0-5.16,2.54-5.16,6.7s1.97,6.77,5.09,6.77c1.63,0,2.86-.72,3.91-1.87l1.49,1.75c-1.42,1.63-3.22,2.54-5.5,2.54-4.44,0-7.85-3.31-7.85-9.1Z"/>
        <path d="M171.76,87.18h5.78c3.65,0,6.38,1.32,6.38,5.14,0,2.74-1.46,4.37-3.7,5.06l4.32,7.49h-3.14l-4.01-7.13h-2.86v7.13h-2.78v-17.69ZM177.21,95.51c2.57,0,3.96-1.06,3.96-3.19s-1.39-2.88-3.96-2.88h-2.66v6.07h2.66Z"/>
        <path d="M191.25,97.28v-10.1h2.78v10.3c0,3.98,1.58,5.28,3.79,5.28s3.86-1.3,3.86-5.28v-10.3h2.69v10.1c0,5.76-2.64,7.9-6.55,7.9s-6.58-2.14-6.58-7.9Z"/>
        <path d="M212.78,87.18h2.78v17.69h-2.78v-17.69Z"/>
        <path d="M227.64,89.53h-5.18v-2.35h13.18v2.35h-5.21v15.34h-2.78v-15.34Z"/>
        <path d="M242.51,87.18h2.78v17.69h-2.78v-17.69Z"/>
        <path d="M253.77,87.18h2.86l5.86,10.39,1.85,3.74h.12c-.14-1.82-.36-3.96-.36-5.88v-8.26h2.64v17.69h-2.86l-5.86-10.42-1.85-3.7h-.12c.14,1.82.36,3.86.36,5.78v8.33h-2.64v-17.69Z"/>
        <path d="M274.27,96.08c0-5.76,3.55-9.22,8.23-9.22,2.5,0,4.18,1.1,5.26,2.23l-1.49,1.78c-.89-.89-1.97-1.58-3.67-1.58-3.29,0-5.47,2.54-5.47,6.7s1.94,6.77,5.59,6.77c1.08,0,2.16-.31,2.79-.86v-4.15h-3.5v-2.28h6.02v7.66c-1.18,1.18-3.17,2.06-5.59,2.06-4.71,0-8.16-3.31-8.16-9.1Z"/>
        <path d="M303.88,102.59l1.63-1.92c1.27,1.27,3,2.09,4.71,2.09,2.14,0,3.34-1.01,3.34-2.5,0-1.61-1.2-2.11-2.83-2.83l-2.45-1.06c-1.7-.72-3.6-2.06-3.6-4.63,0-2.78,2.45-4.87,5.81-4.87,2.06,0,4.01.86,5.35,2.23l-1.46,1.78c-1.1-.98-2.33-1.58-3.89-1.58-1.8,0-2.98.86-2.98,2.26,0,1.54,1.42,2.11,2.86,2.69l2.42,1.03c2.09.89,3.6,2.18,3.6,4.78,0,2.83-2.35,5.14-6.22,5.14-2.42,0-4.68-.96-6.29-2.59Z"/>
        <path d="M323.56,87.18h2.78v17.69h-2.78v-17.69Z"/>
        <path d="M338.42,89.53h-5.18v-2.35h13.18v2.35h-5.21v15.34h-2.78v-15.34Z"/>
        <path d="M353.3,87.18h10.44v2.35h-7.66v4.92h6.48v2.35h-6.48v5.71h7.92v2.35h-10.71v-17.69Z"/>
      </g>
      <g>
        <g>
          <path class="cls-3" d="M101.11,47.32c-5.11,6.13-8.89,9.31-15.01,12.91l-3.48-5.22c7.09-3.66,10.75-7.27,13.75-10.99l4.75,3.3ZM96.36,26.9c-4.62,2.94-7.92,4.2-10.57,5.22l-2.83-5.94c4.45-1.62,13.58-4.93,17.96-10.63h-16.88v-5.71h20c.84-1.92,1.26-3.3,1.74-5.16l6.9.42c-.72,1.86-1.26,3.25-1.98,4.74h27.92v5.71h-16.51c3.18,3.96,10.33,8.05,17.78,10.33l-3,6.3c-2.4-1.02-5.88-2.52-10.87-5.94v3.9h-29.67v-3.24ZM139.25,41.31h-24.5v15.37c0,4.45-3.43,4.45-5.04,4.45h-8.35l-1.38-6.12h7.03c.72,0,1.62,0,1.62-1.56v-12.13h-25.29v-5.76h55.91v5.76ZM123.87,24.61c-6-4.44-8.1-7.8-8.95-9.07h-7.21c-2.46,4.14-5.1,6.66-8.23,9.07h24.38ZM135.17,59.32c-6.67-3.96-8.47-5.7-14.24-11.89l5.11-3.9c6.25,7.21,10.03,9.25,13.21,10.75l-4.08,5.04Z"/>
          <path class="cls-3" d="M149.33,54.52c1.02-.12,4.32-.48,5.58-.6V10.38h19.21v-5.59h6.19v5.59h19.34v25.7l4.38,3.42c-4.74,3.79-10.03,6.85-15.61,9.13,7.21,4.02,13.27,5.35,17.42,6.13l-3.84,6.54c-8.23-2.52-26.73-9.19-32.19-24.86h-8.83v16.75c8.53-.96,10.93-1.26,17.96-2.7l.06,5.53c-8.29,1.98-20,3.78-28.59,4.62l-1.08-6.12ZM160.98,16.03v4.8h32.43v-4.8h-32.43ZM160.98,25.99v5.11h32.43v-5.11h-32.43ZM175.93,36.45c.66,1.5,2.04,4.62,7.15,8.71,4.44-1.92,10.63-5.41,14.83-8.71h-21.98Z"/>
          <path class="cls-3" d="M221.29,32.9c-1.32,1.92-2.04,2.76-3.07,3.9l-3.18-7.03c4.8-5.47,8.23-14.95,9.79-25.16l6.49.78c-.48,2.76-1.44,8.23-3.9,15.32v40.47h-6.13v-28.28ZM272.77,14.58v5.76h-42.52v-5.76h42.52ZM270.29,40.77v20.42h-6.18v-2.52h-24.38v2.52h-6.18v-20.42h36.75ZM269.4,23.35v5.53h-34.77v-5.53h34.77ZM269.4,32.06v5.52h-34.77v-5.52h34.77ZM268.55,5.93v5.53h-33.27v-5.53h33.27ZM239.73,46.18v7.08h24.38v-7.08h-24.38Z"/>
          <path class="cls-3" d="M330.53,42.99h-14.66v17.78h-5.94v-17.78h-14.29c-.66,5.77-1.92,11.53-7.09,17.9l-4.92-5.53c1.2-1.44,3.06-3.6,4.33-6.91,2.04-5.16,2.34-10.87,2.34-12.37V7.44h46.54v48.71c0,1.8-.6,5.16-5.16,5.16h-7.99l-.72-6.24h6.13c.54,0,1.44-.12,1.44-1.38v-10.69ZM296.35,28.28v6.85c0,.36-.06,1.74-.06,1.98h13.63v-8.83h-13.57ZM296.35,13.5v8.77h13.57v-8.77h-13.57ZM315.87,13.5v8.77h14.66v-8.77h-14.66ZM315.87,28.28v8.83h14.66v-8.83h-14.66Z"/>
          <path class="cls-3" d="M358.64,23.17c-3.12,1.74-5.28,2.76-7.33,3.73l-3.54-5.77c9.61-3.42,20.48-10.15,25.88-16.75h5.46c2.64,3.06,15.26,13.27,26.18,16.87l-3.48,6.07c-1.68-.85-3.48-1.74-7.75-4.15v4.15h-14.71v6.61h22.7v5.58h-22.7v14.48h4.93c.96-2.16,3.48-8.71,4.74-12.97l6.42,1.5c-2.04,5.65-2.52,6.79-4.74,11.47h12.73v5.7h-54.17v-5.7h11.83c-1.2-4.02-2.04-6.12-4.32-10.99l6.06-1.86c2.7,5.23,4.5,11.71,4.8,12.85h5.58v-14.48h-22.82v-5.58h22.82v-6.61h-14.6v-4.15ZM391.32,21.55c-7.81-4.81-12.73-9.43-15.01-11.59-4.5,4.44-8.47,7.8-14.77,11.59h29.79Z"/>
          <path class="cls-3" d="M421.14,9.18h21.68v-4.33h6.24v4.33h24.09v5.46h-46.13v21.92c0,1.44-.12,6.49-1.56,13.46-1.08,5.34-2.28,7.33-4.32,10.63l-5.05-4.56c1.38-2.16,5.05-8.11,5.05-19.46V9.18ZM472.78,54.64h-19.88v6.37h-5.7v-6.37h-20.18v-5.16h20.18v-3.54h-15.8v-19.21h15.8v-3.25h-18.98v-5.1h18.98v-2.7h5.7v2.7h19.4v5.1h-19.4v3.25h16.34v19.21h-16.34v3.54h19.88v5.16ZM437.05,30.62v3.72h10.15v-3.72h-10.15ZM437.05,38.25v3.72h10.15v-3.72h-10.15ZM452.9,30.62v3.72h10.57v-3.72h-10.57ZM452.9,38.25v3.72h10.57v-3.72h-10.57Z"/>
        </g>
        <g>
          <path class="cls-3" d="M66.93,32.84c0,18.14-14.62,32.84-32.68,32.84S1.57,50.98,1.57,32.84,16.19,0,34.25,0s32.68,14.71,32.68,32.84Z"/>
          <g class="cls-4">
            <g>
              <path class="cls-2" d="M68.53,32.6h-16.3v-8.3h-9.64v8.17c-2.4-.01-3.19.13-4.12.13-7.79,0-14.12,5.95-14.12,13.79s6.32,14.16,14.12,14.16c4.17,0,8.63-3.15,10.2-5.01,3.9-4.26,3.63-12.08,3.58-13.11h16.28v-9.83ZM42.58,46.4c0,2.24-1.82,4.07-4.07,4.07s-4.06-1.83-4.06-4.07,1.82-4.09,4.06-4.09h4.07v4.09Z"/>
              <path class="cls-2" d="M23.98,41.06v-8.33c1.51.06,9.19.33,13.38-3.54,1.81-1.55,4.91-5.96,4.91-10.1,0-7.7-6.22-13.96-13.91-13.96s-13.52,6.26-13.52,13.96c0,.92-.13,1.71-.11,4.07H0v9.57h14.84v8.33h9.14ZM24.37,23.16v-4.02c0-2.21,1.78-4.01,3.99-4.01s4.01,1.8,4.01,4.01-1.8,4.02-4.01,4.02h-3.99Z"/>
            </g>
          </g>
        </g>
      </g>
    </g>
  </g>
</svg>