<?xml version="1.0" encoding="UTF-8"?>
<svg id="_レイヤー_2" data-name="レイヤー 2" xmlns="http://www.w3.org/2000/svg" viewBox="0 0 228.08 397.38">
  <defs>
    <style>
      .cls-1 {
        fill: #b9392c;
      }

      .cls-2 {
        fill: #0a0000;
      }

      .cls-3 {
        fill: #dfbb5c;
      }

      .cls-4 {
        fill: #cd7e30;
      }

      .cls-5 {
        fill: #fff;
      }

      .cls-6 {
        fill: #808638;
      }
    </style>
  </defs>
  <g id="_背景" data-name="背景">
    <g>
      <path class="cls-4" d="M224.79,219.31c-17.69-15.47-38.74-22.92-61.2-27.23l-4.54-14.67c3.95-3.84,9.19-9.07,12.1-13.85,10.48-13.27,21.3-26.3,19.32-44.8,0-8.96-1.29-17.57-3.84-25.49-4.42-6.98-4.99-15.94-7.57-23.03,16.17,6.39,27.12-7.22,39.8-12.57,1.05-1.29,1.51-2.92,1.28-4.66-6.62-6.99-15.94-9.89-24.66-12.57-10.83-2.21-17.92,6.87-26.42,11.28-.59-2.79,2.56-5,2.09-8.37,3.38-3.38,1.29-9.08,4.66-12.57,2.21-7.79,2.68-17.57,1.16-25.95-2.69-3.61-6.28-5.47-10.82-4.66-6.99,2.45-10.83,9.19-16.76,13.5-4.42-3.96-10.12-4.54-15.47-5.94-3.26-.23-8.15-1.63-10.47,1.29-5.01,12.34,7.33,23.38,15.47,30.6-2.91,1.63-2.68,4.54-4.66,6.64-11.05-.35-23.38-2.68-34.79-1.16l-4.54-7.22c3.38-2.33,4.2-5.94,6.64-8.72,2.56-6.41,8.03-15.72,1.74-21.77-9.89-1.28-17.34,6.41-24.79,11.29-7.68-5.24-14.08-13.5-24.2-13.03-3.49-.12-5.23,3.02-6.75,5.47-.81,3.72-.46,8.02,1.29,11.29,4.88,10.82,10.59,21.64,18.85,30.6-1.4-.47-3.96-.47-5.47-1.63-8.74-5.12-21.53-5.59-29.79.81-4.89,4.54-14.55,5.71-14.67,13.85,5.82,6.87,14.44,8.61,22.23,11.29,7.34,5.58,16.75.81,23.5-2.91l1.28.81c-2.55,8.15-8.14,15.02-10.12,23.4-3.26,5.94-3.49,13.02-5.81,19.32-2.8,20.48,4.19,39.8,18.38,53.64,3.96,2.91,8.26,6.06,7.57,11.76-2.21,1.51-.36,4.65-2.56,6.27-10.59-1.74-21.41,1.06-31.77,2.46-11.29,3.95-22.92,6.86-32.7,14.31-3.14,2.56-8.96,4.08-7.56,9.54,5.34,8.38,14.31,11.52,21.76,16.42.9,1.15,1.81,2.2,2.76,3.16.88-3.68,1.56-7.36,1.77-11.04-.84.11-1.65.22-2.43.31-4.77-3.72-6.87-8.61-10.01-13.03l5.47-3.26c15.95-4.42,32.47-8.84,50.28-7.56-6.05,20.59-12.22,41.19-12.57,64.12,3.03,17.92,11.53,34.09,24.32,47.7,3.14,16.77,5.59,33.87,7.46,51.09-1.29,5.92,5.35,15.35-4.19,17.57-1.63,4.19-.81,9.42,2.56,12.57,2.79,1.74,6.74,2.1,10,1.29,3.72-.82,5.12-4.77,6.76-7.57.92-3.49.22-7.33-1.29-10.47,4.31-17.69,1.75-38.18,5.47-56.09,7.33,1.4,15.94.93,23.5.47,3.61,15.82,3.37,33.74,3.26,50.62,1.52,2.91-.69,5.35-2.09,7.57-1.86,6.52.94,11.99,6.29,15.94,3.02,1.51,7.22,2.44,10.48.81,2.55-1.39,3.94-3.95,5.11-6.29.24-5.69-.69-11.51-5.93-14.65.24-13.74,1.05-28.16,2.56-41.9,3.14-7.91,0-18.96,7.57-24.66,9.65-21.07,29.32-38.41,23.4-65.4-1.05-8.38-6.06-15.12-8.39-23.03-1.86-4.31-4.07-8.85-4.18-13.39,17.8,3.61,35.37,8.49,50.26,18.38-1.59,4.04-5.6,6.71-9.38,8.38,1.06,2.7,1.79,5.41,2.36,8.12,3.77-3.02,7.37-6.59,11.22-9.4,1.97-4.19,7.09-9.66.46-13.38"/>
      <path class="cls-5" d="M166.49,27.89c-4.19,7.33-6.75,15.25-10.82,22.57-2.22-1.75-5.24-1.4-8.03-2.1.57-4.54,6.04-7.57,3.37-12.92-7.09-5-13.97-10.7-18.03-17.57,5.93.59,11.75,3.03,15.12,7.91,7.34,1.51,9.42-6.98,15.13-9.65.81-1.74,3.26-3.14,5.01-4.54,1.98,5.94-1.86,10.59-1.75,16.29"/>
      <path class="cls-5" d="M81.08,29.51c4.54-4.77,9.19-7.22,13.84-10.82-3.72,4.31-3.37,10.82-9.65,13.38-1.16,2.68-5.01,4.77-2.91,8.39,2.79,2.44,3.61,5.11,4.54,8.37-2.21,1.04-3.96,3.14-6.64,2.91-8.49-10.71-16.87-21.41-21.4-33.86,8.37,2.32,12.45,13.85,22.22,11.64"/>
      <path class="cls-5" d="M179.06,112.48c1.51,6.87,4.89,16.87-1.16,22.69-5.12,6.17-11.87,9.07-19.78,7.1-5.47-1.75-10.14-6.52-12.93-11.29-1.86-6.87-.58-14.55,2.1-20.6,5.82-4.65,13.5-8.73,20.95-5.82,4.99.23,8.61,3.49,10.82,7.92"/>
      <path class="cls-5" d="M89.46,111.66c3.61,6.87,2.09,15.6,1.29,22.57-2.11,5.24-7.69,9.54-13.39,9.66-7.34,1.51-12.57-3.37-16.41-8.38-3.37-6.4-1.05-14.66.81-20.95,2.1-6.74,9.31-6.51,14.32-9.19,5.01.58,10.47,1.39,13.38,6.28"/>
      <path class="cls-2" d="M83.17,119.58c-.23,4.19.81,8.96-2.56,11.75-1.97,2.32-5.81,2.79-8.37,1.27-2.91-.81-3.72-3.95-5.01-6.28.94-4.65.7-11.17,6.76-12.1,4.53-2.32,8.02,1.75,9.19,5.36"/>
      <path class="cls-2" d="M169.52,116.67c2.91,2.8,1.39,7.8,1.17,11.29-1.63,1.74-2.44,4.42-5,5.12-4.19.69-8.16-.81-9.66-4.66-.58-4.3-1.16-9.54,2.56-12.57,2.56-3.61,8.5-2.44,10.94.81"/>
      <path class="cls-5" d="M140.2,144.37l.34,9.66c-3.37,7.79-10.82,11.63-18.03,14.66-10.82-.81-21.99-4.77-27.23-15.6.46-8.14,6.39-13.85,13.02-18.38,10.01-6.75,26.88-3.61,31.89,9.66"/>
      <path class="cls-2" d="M126.7,136.34c1.62,1.51.58,3.96.92,5.94-3.14,3.6-7.45,5.69-12.22,4.18-1.86-3.02-6.62-5.34-4.19-9.65,2.91-5.82,12.22-5.36,15.49-.46"/>
      <path class="cls-2" d="M115.4,150.18c5.47,1.86,9.78-1.28,13.39-5,1.39-.11,2.68,0,3.37,1.28l-.81,2.91c-3.49,3.84-8.27,8.14-13.85,8.84-4.42.11-8.38-2.91-10.47-6.74-.83-2.22-3.5-3.72-2.45-6.75.69-1.52,2.32-1.16,3.72-1.16,1.29,3.02,4.66,4.89,7.09,6.63"/>
      <path class="cls-5" d="M145.55,179.51c7.69,16.87,14.78,34.1,18.85,52.36,3.61,5.58,4.89,10.94,7.56,16.75-1.27,18.97-12.57,33.75-22.57,48.99-5.94,3.61-10.01,11.63-17.22,12.22-7.09-.81-15.01.24-21.3-2.56-12.57,3.02-19.66-7.34-26.41-15.48-4.08-7.09-8.62-14.08-12.22-21.4,1.05-.12,1.74-1.29,2.56-2.1l-.81-2.44c-.58-14.32,2.33-27.35,3.37-41.08,5.12-10.82,3.14-24.55,9.54-34.79l2.09-10.83c18.85-1.16,37.71.24,56.55.36"/>
      <path class="cls-1" d="M100.72,264.27c25.97,1.92,78.6,3.44,76.26-31.97-.72-2.07-2.42-5.69-4.52-7.21-2.38-1.23-5.16-1.86-5.16-1.86,0,0,1.53-11.27-3.07-15.7-4.24-8.03-13.07-10.24-21.43-9.66,1.34-4.64-1.93-7.44-3.87-10.82-7.62-7.69-21.42-8.49-30.99-4.19-6.53,3.26-10.65,9.66-9.93,16.75h-3.51c-6.53,1.86-12.22,7.44-15.25,12.92-6.53,1.74-14.04,6.29-16.1,13.04-1.43,4.14-.6,11.25.33,15.45.69,3.1,2.21,5.97,3.94,8.63,7.46,11.46,19.76,14.63,33.29,14.63"/>
      <path class="cls-3" d="M121.49,187.85c1.94,1.63,4.61-3.26,4.36.81-3.02,4.08-8.96,2.68-13.07,2.91-.61-.69-1.7-1.28-1.34-2.44,1.45.35,5.09,1.4,6.53-.82-.24-1.85-1.21-4.41.49-5.92,2.3.24.73,4.19,3.02,5.47"/>
      <path class="cls-5" d="M121.49,209.61c.25,1.05.49,2.09.49,3.37-5.09,4.07-3.51-4.3-6.53-5.82-4.24-3.02-7.75-6.98-13.57-5.94,2.67-2.79,7.02-1.74,10.42-.81,3.87,2.21,7.26,5.47,9.19,9.19"/>
      <path class="cls-5" d="M138.44,199.95c-3.88,2.09-7.62,5.24-9.07,9.31-.85,3.37.24,8.15-2.68,10.47-.72-.46-1.57-.46-2.17-1.27-.24-5.94,1.58-11.18,5.2-15.48,2.55-1.86,5.57-3.84,8.72-3.03"/>
      <path class="cls-3" d="M145.94,200.42c-.13,2.56-.13,5,1.69,6.75,1.69,1.16,4.36-3.02,3.88.81-3.39,2.45-7.27,4.08-12.11,3.38-1.08-.81-1.57-1.75-1.32-3.03,1.45-.12,4.84.7,5.68-1.63-.6-2.09-1.22-6.75,2.18-6.29"/>
      <path class="cls-3" d="M99.23,205.07c-.25,1.28.6,2.56,1.81,2.9l4.35-1.27c.24.59.48,1.27.37,2.09-2.79,2.68-7.15,3.49-10.9,2.91l-1.21-2.1c.85-1.51,5.33-1.51,3.03-4.54-.73-.93-2.79-1.86-1.34-3.03,2.55-1.04,3.16,1.64,3.88,3.03"/>
      <path class="cls-5" d="M102.37,223.92c.12,1.16-.37,2.21-1.33,2.91-3.27.58-2.54-3.37-4.84-4.65-3.03-3.38-6.53-5.94-10.89-6.29,6.05-2.79,13.79,2.34,17.06,8.04"/>
      <path class="cls-3" d="M80.1,217.99c1.69,2.21-1.7,5,1.33,6.75,2.3,1.39,4.6-2.8,5.2.34-.47,3.14-3.99,2.56-6.04,3.84-2.79.11-5.44.11-7.5-1.74v-1.17c1.45-.23,3.75.23,4.85-1.74v-6.28h2.17Z"/>
      <path class="cls-5" d="M164.22,222.64c-7.75,0-15.13,3.84-18.28,10.82-2.42,3.15-.97,7.91-1.33,11.76-1.94.81-4.24-1.05-4-3.38-.25-7.68,2.91-15.13,10.05-18.85,3.74-1.75,8.22-1.75,12.7-1.64l.85,1.29Z"/>
      <path class="cls-5" d="M131.05,224.27l2.18,2.91c-4.72-2.79-11.14-1.75-16.1-1.17-5.93,3.26-12.1,8.27-13.07,15.01-2.06,2.69,2.66,8.15-3.03,7.57-3.27-5.47.24-12.45,3.03-17.57,6.53-8.03,17.78-11.29,26.98-6.75"/>
      <path class="cls-3" d="M164.58,230.56c1.2,2.09-1.69,4.89-3.87,5-2.06.23-6.55,1.75-7.02-1.16v-.94c1.45.11,2.66-.11,3.51-1.17.6-1.97-2.55-4.42.85-5.11,3.27,0,2.3,7.56,6.53,3.37"/>
      <path class="cls-3" d="M124.16,229.74c.84,1.16-1.09,2.21-.48,3.72.6,2.09,5.2.94,3.02,3.84-3.62,2.21-7.49-.24-10.39-2.1-.74-1.16-1.83-2.21-1.34-3.84l.85-.81c1.34,1.27,2.54,2.56,4.36,2.56,2.3-.7.73-4.54,4-3.37"/>
      <path class="cls-6" d="M197.01,221.19c2.77,3.93,5.89,9.12,3,13.73-9.84,9.47-26.89,16.15-29.76,30.35-2.88,8.19-6.97,15.92-6.49,25.27,2.05,2.31,3.25,5.31,2.17,8.32-7.57,13.27-22.92,12.92-35.53,17.07-11.64,1.16-23.53,1.62-34.92-.46-7.57-1.39-14.29-4.5-20.28-9.47-3.36-4.73-8.16-10.26-4.32-16.27,1.08-.92,2.88-1.27,3.36-2.88-7.68-15.23-10.8-35.43-30.25-43.16-3.6-3.35-11.16-2.31-11.64-8.77-.36-5.89,0-12.34,6.13-15,5.9-2.56,7.74,2.44,10.68,6.17,4.12,5.24,10.8,10,16.34,13.86,8.66,6.02,16.82,13,26.6,17.34,8.41,3.73,18.49,4.01,27.62,3.74,17.71-.52,37.18-5.32,49.86-17.96,6.41-6.4,14.6-15.89,18.33-23.97,3.49-.23,6.49.46,9.12,2.07"/>
      <path class="cls-5" d="M154.65,266.08c1.08,1.97.11,4.61-2.16,5.43-18.73,4.15-41.65,4.5-60.97,1.27-1.2-.69-.84-1.96-1.2-3,20.16,3.34,45.37,3.45,64.34-3.7"/>
      <path class="cls-5" d="M145.16,294.7c-15.84,4.5-35.65,6-51.49.46-1.2-1.39-2.16-2.89-1.67-4.96,10.68,4.15,23.28,3.92,35.4,4.96,8.64-.24,16.56-2.31,23.76-5.78,1.44,3.12-3.72,4.15-6,5.31"/>
      <path class="cls-4" d="M209.66,234.43c-5.58-4.19-11.4-8.73-18.85-7.1-4.88,2.21-5.23,7.68-5.47,12.57.35,3.49,4.31,5.24,6.75,7.1,8.53,3.37,14.98-.07,21.02-4.91-.57-2.71-1.3-5.41-2.37-8.13-.36.16-.73.33-1.09.47"/>
      <path class="cls-4" d="M33.37,241.07c4.54.93,9.42-.94,12.1-5.01,1.87-3.14.24-6.98-1.63-9.67-4.47-3.65-11.52-2.69-17.34-1.93-.21,3.68-.89,7.36-1.77,11.04,2.48,2.53,5.19,4.38,8.64,5.56"/>
    </g>
  </g>
</svg>