<?xml version="1.0" encoding="UTF-8"?>
<svg id="_レイヤー_2" data-name="レイヤー 2" xmlns="http://www.w3.org/2000/svg" viewBox="0 0 371.37 497.8">
  <defs>
    <style>
      .cls-1 {
        fill: none;
      }

      .cls-2 {
        fill: #d17f3c;
      }

      .cls-3 {
        fill: #fff;
      }

      .cls-4 {
        fill: #262424;
      }
    </style>
  </defs>
  <g id="_背景" data-name="背景">
    <g>
      <g>
        <path class="cls-2" d="M271.79,21.45c13.26,20.08-6.08,37.58-12.16,55.27-2.4,2.03-4.24,4.24-3.68,7.55,9.95.37,17.32-8.29,26.16-12.53,20.27-5.34,35.74,10.87,54.72,13.63,2.39,1.84,5.53,4.05,4.79,7.74-12.34,9.77-25.23,26.16-43.66,20.08-9.76-3.32-20.64-3.68-28.93-10.32-1.47.18-2.21-.55-3.32-1.11l-1.11,1.11c8.29,10.5,17.14,21.37,25.24,31.69,5.16,9.4,7.92,20.45,5.89,32.24-12.71,18.06-24.87,37.4-37.77,55.82l-6.45,7.55c-.18,13.45-.18,26.9,2.21,39.43,8.47,10.14,20.08,17.69,30.03,27.27,3.13.37,4.24-4.05,7-4.23,8.66-7.37,18.97-10.69,27.45-18.61,6.26-.92,5.53,8.47,11.97,7.55,6.45,1.29,14.92-13.27,17.5-1.11-1.29,7.92-2.4,16.77-10.32,20.82-3.68,1.84-8.84,1.29-12.71.55-3.87-1.66-6.27-6.08-9.77-8.29-7,9.03-17.87,14.37-23.58,24.13-3.13,4.24-8.29,5.16-13.08,3.87-7.74-5.71-14-12.52-20.81-19.16h-3.13l-1.11,23.03c-9.95,20.82-21.19,40.16-38.87,57.29,10.5,8.84,19.71,18.06,27.26,29.48,1.29,4.24.92,7.92-2.02,11.05-11.79,10.14-21.92,20.08-32.42,31.69,5.89,3.87,18.42-4.24,19.71,7,.92,6.45-2.76,11.98-8.66,15.29-8.29,3.13-18.98,2.03-25.79-3.13-4.24-3.68-8.66-8.66-5.9-14.92,9.76-15.29,22.29-29.11,32.79-44.22-.92-8.1-10.68-8.65-15.84-13.08-10.13-1.29-17.5-8.11-26.9-10.87-11.61-.73-21.19-8.1-32.79-7.18-2.21-2.21-6.08-.19-8.66-1.66-14.19-2.58-31.5-2.58-44.21,2.76l-28.56,38.32c-7,1.48-14,0-19.16-4.42-7-6.08-7.18-16.03-5.89-24.14.36-3.32,3.13-6.26,5.89-8.1,4.42-2.03,7.55.18,11.05,2.76,3.13,4.23,1.66,13.26,9.21,13.08,7.18-13.08,11.97-27.27,19.16-40.53,7.92-10.5,23.95-7.18,35.56-7-1.11-21-3.68-43.29,4.98-61.9l2.02-14.18c-13.82-21.37-36.85-37.58-55.09-55.64-5.71-3.87-12.71-2.21-19.16-1.11-6.08,3.32-13.63.92-19.71-.55-3.5-2.4-4.97-6.63-7.55-9.95-.18-4.24,1.47-8.11,5.34-10.32,4.79-3.87,10.87-1.47,16.39-2.21-2.58-2.21-9.21-1.47-7.55-7,7.92-5.16,18.42-.55,25.61,4.24,8.29,9.03,16.22,19.53,26.34,26.35,11.98,12.34,28,17.5,42.56,25.05,4.05,1.1,6.63-2.76,8.66-5.34.74-3.87,2.76-7.37,2.76-11.61-9.21-7-16.77-14.92-26.71-20.26-10.5-14.74-34.45-25.24-28.92-46.98,6.63-19.53,13.08-39.06,17.5-59.5-5.9-1.47-12.16-1.47-18.06-2.21-12.9-4.79-27.08-10.87-35-23.03,11.61-7.92,28.01-6.82,42.56-9.21,10.87,3.68,20.08,11.42,29.11,19.71,1.11-.55,2.95,0,3.69-1.66-12.9-15.1-25.98-30.95-39.79-45.87-1.84-2.39-1.29-6.26-.55-8.84,3.5-1.48,7.37-3.87,11.43-2.21l30.03,9.95c6.63-3.68,12.53-8.29,20.26-8.84,3.32-2.76,6.45.74,9.77,1.11,7.18,4.05,5.89,14,4.42,20.82-1.29,3.5-4.24,6.26-5.53,9.76,3.13,5.71,10.13,5.34,13.26,11.05,10.13.37,20.08-4.79,30.03-.55,8.48-.55,7-9.95,10.87-14.74-6.26-6.82-14.92-11.24-19.16-20.27-1.11-1.84-1.11-4.24,0-6.08,13.08-10.69,32.05-2.76,46.61-.55,7.74-8.11,20.26-18.42,32.24-10.87"/>
        <path class="cls-3" d="M246,63.45l-8.11,14.19-13.82-4.79c2.58-6.08,6.82-12.16,4.42-19.71-5.16-4.97-12.9-6.63-16.4-13.08,10.87-.55,19.72,7,30.58,8.11,4.61.92,6.08-4.42,8.29-7l7.55-7.74c4.97,12.53-13.63,17.87-12.53,30.03"/>
        <path class="cls-3" d="M147.07,47.61c1.29,7.92-10.87,9.21-9.21,16.39,3.68,4.79,7.37,10.13,12.52,13.63-3.68.18-7.92,7-10.86.55-10.69-10.68-20.45-20.45-31.88-29.48,7,1.47,13.45,3.87,18.61,9.4,9.21,1.84,11.79-11.98,20.82-10.5"/>
        <path class="cls-3" d="M271.79,140.09c4.79,8.48,4.79,23.21,0,31.69-6.08,8.66-16.03,10.5-25.79,10.87-9.21.37-16.21-7.74-19.71-15.29-5.71-8.66-3.68-22.11,2.21-30.03,4.61-3.5,8.84-7.18,14.19-8.84,11.05.37,23.58,0,29.11,11.61"/>
        <path class="cls-3" d="M154.81,147.65c3.68,11.05,7.18,25.97-1.11,36.11-9.03,6.26-22.29,4.98-31.14,0-6.63-5.34-16.58-10.68-16.4-20.26-.37-10.87.92-22.66,11.42-27.82,13.26-3.5,30.58-2.58,37.21,11.98"/>
        <path class="cls-4" d="M257.52,143.45c4.42,4.42,2.95,11.24,3.32,17.5-3.5,6.45-8.29,14.37-16.4,15.85-6.08.92-11.97-.92-14.19-6.63-1.47-7.92-6.81-16.58-1.65-24.69,6.81-7.37,23.39-16.77,28.92-2.03"/>
        <path class="cls-4" d="M137.41,145.48c4.79,4.61,5.71,11.79,4.24,18.05-2.76,4.97-2.21,11.61-8.11,14.74-4.42,0-10.5.74-14.18-2.58-4.97-3.69-7-8.66-8.29-13.82.74-4.79.37-9.95,4.42-13.63,5.89-4.24,15.29-8.29,21.92-2.76"/>
        <path class="cls-3" d="M214.31,196.28l3.32,10.5c-1.66,14.37-16.4,12.53-27.27,14.19-10.69-.92-25.05-.37-29.66-12.53-2.95-5.9-2.03-12.71,1.66-18.05,10.14-4.79,22.11-10.5,35-6.63,6.63,2.03,13.27,6.08,16.95,12.53"/>
        <path class="cls-4" d="M194.05,192.6c1.47,2.76,0,5.16-2.76,6.45-5.9.92-11.24-.74-14.74-4.97-2.4-6.26,3.87-5.53,7.19-7,3.31.55,9.21.37,10.31,5.53"/>
        <path class="cls-4" d="M181.52,207.89c9.03,4.79,10.31-10.5,17.5-5.53-.55,4.05-2.58,8.29-6.63,10.32-8.66,1.66-18.24.55-22.85-7-.37-1.47.55-3.13-1.1-3.87,1.84-.37,3.68-2.76,5.89-1.1,2.4,2.39,3.68,6.08,7.18,7.19"/>
        <path class="cls-3" d="M231.26,233.5c-.92,2.21,2.03,2.76,2.21,4.42,5.34,28.19,9.95,58.58,8.66,87.51-9.95,19.16-24.69,37.03-41.45,52.88-11.61,8.47-23.21-3.13-33.9-6.45-21.74-10.5-31.32-34.27-28.92-58.03,7.74-26.53,12.34-54.53,23.4-79.77,23.02,2.4,47.9,2.95,70-.55"/>
      </g>
      <rect class="cls-1" width="371.37" height="497.8"/>
    </g>
  </g>
</svg>