<?xml version="1.0" encoding="UTF-8"?>
<svg id="_レイヤー_2" data-name="レイヤー 2" xmlns="http://www.w3.org/2000/svg" viewBox="0 0 809.73 993.16">
  <defs>
    <style>
      .cls-1, .cls-2 {
        fill: none;
      }

      .cls-2 {
        stroke: #5b9843;
        stroke-miterlimit: 10;
        stroke-width: 2px;
      }

      .cls-3 {
        fill: #5b9843;
      }
    </style>
  </defs>
  <g id="_背景" data-name="背景">
    <g>
      <g>
        <line class="cls-2" x1="157.2" y1="14.54" x2="157.2" y2="982.33"/>
        <g>
          <path d="M0,18.68C0,11.03,2.79,6.93,7.33,6.93s7.3,4.13,7.3,11.75-2.75,11.91-7.3,11.91S0,26.33,0,18.68ZM11.78,18.68c0-6.69-1.79-9.41-4.45-9.41s-4.48,2.72-4.48,9.41,1.79,9.57,4.48,9.57,4.45-2.88,4.45-9.57Z"/>
          <path d="M17.63,24.35c0-2.98,2.18-5.03,4.32-6.18v-.13c-1.7-1.15-3.17-2.85-3.17-5.28,0-3.49,2.79-5.83,6.43-5.83,4,0,6.44,2.5,6.44,6.05,0,2.4-1.76,4.45-3.14,5.51v.16c2.02,1.22,3.97,2.82,3.97,5.86,0,3.43-2.95,6.08-7.36,6.08s-7.49-2.62-7.49-6.24ZM29.7,24.45c0-2.98-2.88-4.04-6.21-5.35-1.86,1.19-3.2,2.88-3.2,5,0,2.5,2.08,4.32,4.9,4.32s4.51-1.63,4.51-3.97ZM29.16,13.14c0-2.24-1.44-4.04-3.97-4.04-2.18,0-3.75,1.44-3.75,3.65,0,2.75,2.53,3.9,5.28,4.99,1.57-1.41,2.43-2.91,2.43-4.61Z"/>
          <path d="M36.29,15.48c0-1.34.96-2.27,2.11-2.27s2.11.93,2.11,2.27-.96,2.21-2.11,2.21-2.11-.93-2.11-2.21ZM36.29,28.38c0-1.35.96-2.27,2.11-2.27s2.11.93,2.11,2.27-.96,2.21-2.11,2.21-2.11-.89-2.11-2.21Z"/>
          <path d="M44.26,28.45c6.88-6.85,10.76-10.95,10.76-14.69,0-2.59-1.41-4.45-4.32-4.45-1.92,0-3.59,1.22-4.87,2.72l-1.7-1.63c1.92-2.08,3.94-3.46,6.91-3.46,4.19,0,6.82,2.66,6.82,6.69,0,4.29-3.9,8.55-9.31,14.25,1.21-.1,2.62-.23,3.84-.23h6.63v2.53h-14.76v-1.73Z"/>
          <path d="M62.18,18.68c0-7.65,2.79-11.75,7.33-11.75s7.3,4.13,7.3,11.75-2.75,11.91-7.3,11.91-7.33-4.26-7.33-11.91ZM73.96,18.68c0-6.69-1.79-9.41-4.45-9.41s-4.48,2.72-4.48,9.41,1.79,9.57,4.48,9.57,4.45-2.88,4.45-9.57Z"/>
          <path class="cls-3" d="M158.37,3.61c7.97,0,14.41,6.43,14.41,14.4s-6.43,14.41-14.41,14.41-14.4-6.44-14.4-14.41,6.43-14.4,14.4-14.4Z"/>
          <path d="M0,178.68c0-7.65,2.79-11.75,7.33-11.75s7.3,4.13,7.3,11.75-2.75,11.91-7.3,11.91-7.33-4.26-7.33-11.91ZM11.78,178.68c0-6.69-1.79-9.41-4.45-9.41s-4.48,2.72-4.48,9.41,1.79,9.57,4.48,9.57,4.45-2.88,4.45-9.57Z"/>
          <path d="M17.63,184.35c0-2.98,2.18-5.03,4.32-6.18v-.13c-1.7-1.15-3.17-2.85-3.17-5.28,0-3.49,2.79-5.83,6.43-5.83,4,0,6.44,2.5,6.44,6.05,0,2.4-1.76,4.45-3.14,5.51v.16c2.02,1.22,3.97,2.82,3.97,5.86,0,3.43-2.95,6.08-7.36,6.08s-7.49-2.62-7.49-6.24ZM29.7,184.45c0-2.98-2.88-4.04-6.21-5.35-1.86,1.19-3.2,2.88-3.2,5,0,2.5,2.08,4.32,4.9,4.32s4.51-1.63,4.51-3.97ZM29.16,173.14c0-2.24-1.44-4.04-3.97-4.04-2.18,0-3.75,1.44-3.75,3.65,0,2.75,2.53,3.9,5.28,4.99,1.57-1.41,2.43-2.91,2.43-4.61Z"/>
          <path d="M36.29,175.48c0-1.34.96-2.27,2.11-2.27s2.11.93,2.11,2.27-.96,2.21-2.11,2.21-2.11-.93-2.11-2.21ZM36.29,188.38c0-1.35.96-2.27,2.11-2.27s2.11.93,2.11,2.27-.96,2.21-2.11,2.21-2.11-.89-2.11-2.21Z"/>
          <path d="M53.73,183.87h-10.24v-1.92l9.76-14.6h3.23v14.18h3.11v2.34h-3.11v6.31h-2.75v-6.31ZM53.73,181.53v-6.69c0-1.18.1-3.14.16-4.35h-.13c-.58,1.09-1.22,2.08-1.89,3.2l-5.35,7.84h7.2Z"/>
          <path d="M62.18,178.68c0-7.65,2.79-11.75,7.33-11.75s7.3,4.13,7.3,11.75-2.75,11.91-7.3,11.91-7.33-4.26-7.33-11.91ZM73.96,178.68c0-6.69-1.79-9.41-4.45-9.41s-4.48,2.72-4.48,9.41,1.79,9.57,4.48,9.57,4.45-2.88,4.45-9.57Z"/>
          <path class="cls-3" d="M158.37,163.61c7.97,0,14.41,6.43,14.41,14.4s-6.43,14.41-14.41,14.41-14.4-6.44-14.4-14.41,6.43-14.4,14.4-14.4Z"/>
          <path d="M0,338.68c0-7.65,2.79-11.75,7.33-11.75s7.3,4.13,7.3,11.75-2.75,11.91-7.3,11.91-7.33-4.26-7.33-11.91ZM11.78,338.68c0-6.69-1.79-9.41-4.45-9.41s-4.48,2.72-4.48,9.41,1.79,9.57,4.48,9.57,4.45-2.88,4.45-9.57Z"/>
          <path d="M18.05,348.19l1.63-1.83c.9,1.12,2.3,1.79,3.74,1.79,3.2,0,5.92-2.5,6.05-9.79-1.47,1.82-3.49,2.95-5.35,2.95-3.97,0-6.53-2.4-6.53-7.08,0-4.35,3.07-7.3,6.72-7.3,4.51,0,7.88,3.65,7.88,10.98,0,9.16-4.13,12.68-8.68,12.68-2.43,0-4.22-1.02-5.47-2.4ZM24.61,339.13c1.47,0,3.33-.93,4.8-3.1-.38-4.42-2.18-6.79-5.09-6.79-2.24,0-3.97,1.98-3.97,4.99s1.41,4.9,4.26,4.9Z"/>
          <path d="M36.29,335.48c0-1.34.96-2.27,2.11-2.27s2.11.93,2.11,2.27-.96,2.21-2.11,2.21-2.11-.93-2.11-2.21ZM36.29,348.38c0-1.35.96-2.27,2.11-2.27s2.11.93,2.11,2.27-.96,2.21-2.11,2.21-2.11-.89-2.11-2.21Z"/>
          <path d="M44.42,338.68c0-7.65,2.79-11.75,7.33-11.75s7.3,4.13,7.3,11.75-2.75,11.91-7.3,11.91-7.33-4.26-7.33-11.91ZM56.2,338.68c0-6.69-1.79-9.41-4.45-9.41s-4.48,2.72-4.48,9.41,1.79,9.57,4.48,9.57,4.45-2.88,4.45-9.57Z"/>
          <path d="M62.18,338.68c0-7.65,2.79-11.75,7.33-11.75s7.3,4.13,7.3,11.75-2.75,11.91-7.3,11.91-7.33-4.26-7.33-11.91ZM73.96,338.68c0-6.69-1.79-9.41-4.45-9.41s-4.48,2.72-4.48,9.41,1.79,9.57,4.48,9.57,4.45-2.88,4.45-9.57Z"/>
          <path class="cls-3" d="M158.37,323.61c7.97,0,14.41,6.43,14.41,14.4s-6.43,14.41-14.41,14.41-14.4-6.44-14.4-14.41,6.43-14.4,14.4-14.4Z"/>
          <path d="M1.25,507.74h5.22v-16.84H2.3v-1.89c2.08-.35,3.59-.9,4.87-1.67h2.24v20.39h4.71v2.43H1.25v-2.43Z"/>
          <path d="M17.6,508.45c6.88-6.85,10.76-10.95,10.76-14.69,0-2.59-1.41-4.45-4.32-4.45-1.92,0-3.59,1.22-4.87,2.72l-1.7-1.63c1.92-2.08,3.94-3.46,6.91-3.46,4.19,0,6.82,2.66,6.82,6.69,0,4.29-3.9,8.55-9.31,14.25,1.21-.1,2.62-.23,3.84-.23h6.63v2.53h-14.76v-1.73Z"/>
          <path d="M36.29,495.48c0-1.34.96-2.27,2.11-2.27s2.11.93,2.11,2.27-.96,2.21-2.11,2.21-2.11-.93-2.11-2.21ZM36.29,508.38c0-1.35.96-2.27,2.11-2.27s2.11.93,2.11,2.27-.96,2.21-2.11,2.21-2.11-.89-2.11-2.21Z"/>
          <path d="M44.42,498.68c0-7.65,2.79-11.75,7.33-11.75s7.3,4.13,7.3,11.75-2.75,11.91-7.3,11.91-7.33-4.26-7.33-11.91ZM56.2,498.68c0-6.69-1.79-9.41-4.45-9.41s-4.48,2.72-4.48,9.41,1.79,9.57,4.48,9.57,4.45-2.88,4.45-9.57Z"/>
          <path d="M62.18,498.68c0-7.65,2.79-11.75,7.33-11.75s7.3,4.13,7.3,11.75-2.75,11.91-7.3,11.91-7.33-4.26-7.33-11.91ZM73.96,498.68c0-6.69-1.79-9.41-4.45-9.41s-4.48,2.72-4.48,9.41,1.79,9.57,4.48,9.57,4.45-2.88,4.45-9.57Z"/>
          <path class="cls-3" d="M158.37,483.61c7.97,0,14.41,6.43,14.41,14.4s-6.43,14.41-14.41,14.41-14.4-6.44-14.4-14.41,6.43-14.4,14.4-14.4Z"/>
          <path d="M1.25,667.74h5.22v-16.84H2.3v-1.89c2.08-.35,3.59-.9,4.87-1.67h2.24v20.39h4.71v2.43H1.25v-2.43Z"/>
          <path d="M17.12,667.39l1.47-1.92c1.38,1.44,3.17,2.69,5.83,2.69s4.77-1.63,4.77-4.19c0-2.72-1.89-4.52-7.3-4.52v-2.24c4.83,0,6.5-1.89,6.5-4.29,0-2.21-1.54-3.62-3.97-3.62-1.89,0-3.55.96-4.87,2.3l-1.57-1.83c1.76-1.66,3.84-2.85,6.56-2.85,3.94,0,6.82,2.08,6.82,5.79,0,2.75-1.7,4.52-4.16,5.41v.13c2.75.67,4.96,2.69,4.96,5.83,0,4.06-3.36,6.5-7.52,6.5-3.68,0-5.99-1.54-7.52-3.2Z"/>
          <path d="M36.29,655.48c0-1.34.96-2.27,2.11-2.27s2.11.93,2.11,2.27-.96,2.21-2.11,2.21-2.11-.93-2.11-2.21ZM36.29,668.38c0-1.35.96-2.27,2.11-2.27s2.11.93,2.11,2.27-.96,2.21-2.11,2.21-2.11-.89-2.11-2.21Z"/>
          <path d="M44.42,658.68c0-7.65,2.79-11.75,7.33-11.75s7.3,4.13,7.3,11.75-2.75,11.91-7.3,11.91-7.33-4.26-7.33-11.91ZM56.2,658.68c0-6.69-1.79-9.41-4.45-9.41s-4.48,2.72-4.48,9.41,1.79,9.57,4.48,9.57,4.45-2.88,4.45-9.57Z"/>
          <path d="M62.18,658.68c0-7.65,2.79-11.75,7.33-11.75s7.3,4.13,7.3,11.75-2.75,11.91-7.3,11.91-7.33-4.26-7.33-11.91ZM73.96,658.68c0-6.69-1.79-9.41-4.45-9.41s-4.48,2.72-4.48,9.41,1.79,9.57,4.48,9.57,4.45-2.88,4.45-9.57Z"/>
          <path class="cls-3" d="M158.37,643.61c7.97,0,14.41,6.43,14.41,14.4s-6.43,14.41-14.41,14.41-14.4-6.44-14.4-14.41,6.43-14.4,14.4-14.4Z"/>
          <path d="M1.25,827.74h5.22v-16.84H2.3v-1.89c2.08-.35,3.59-.9,4.87-1.67h2.24v20.39h4.71v2.43H1.25v-2.43Z"/>
          <path d="M17.92,819.64c0-9.19,4.13-12.71,8.71-12.71,2.43,0,4.2,1.02,5.47,2.4l-1.63,1.83c-.93-1.12-2.34-1.79-3.74-1.79-3.23,0-5.92,2.46-6.05,9.73,1.47-1.76,3.49-2.85,5.35-2.85,3.94,0,6.5,2.37,6.5,7.01,0,4.38-3.07,7.33-6.72,7.33-4.51,0-7.88-3.65-7.88-10.95ZM20.74,821.47c.38,4.45,2.15,6.85,5.03,6.85,2.27,0,4-2.02,4-5.06s-1.41-4.83-4.23-4.83c-1.47,0-3.27.8-4.8,3.04Z"/>
          <path d="M36.29,815.48c0-1.34.96-2.27,2.11-2.27s2.11.93,2.11,2.27-.96,2.21-2.11,2.21-2.11-.93-2.11-2.21ZM36.29,828.38c0-1.35.96-2.27,2.11-2.27s2.11.93,2.11,2.27-.96,2.21-2.11,2.21-2.11-.89-2.11-2.21Z"/>
          <path d="M44.42,818.68c0-7.65,2.79-11.75,7.33-11.75s7.3,4.13,7.3,11.75-2.75,11.91-7.3,11.91-7.33-4.26-7.33-11.91ZM56.2,818.68c0-6.69-1.79-9.41-4.45-9.41s-4.48,2.72-4.48,9.41,1.79,9.57,4.48,9.57,4.45-2.88,4.45-9.57Z"/>
          <path d="M62.18,818.68c0-7.65,2.79-11.75,7.33-11.75s7.3,4.13,7.3,11.75-2.75,11.91-7.3,11.91-7.33-4.26-7.33-11.91ZM73.96,818.68c0-6.69-1.79-9.41-4.45-9.41s-4.48,2.72-4.48,9.41,1.79,9.57,4.48,9.57,4.45-2.88,4.45-9.57Z"/>
          <path class="cls-3" d="M158.37,803.61c7.97,0,14.41,6.43,14.41,14.4s-6.43,14.41-14.41,14.41-14.4-6.44-14.4-14.41,6.43-14.4,14.4-14.4Z"/>
          <path d="M1.25,987.74h5.22v-16.84H2.3v-1.89c2.08-.35,3.59-.9,4.87-1.67h2.24v20.39h4.71v2.43H1.25v-2.43Z"/>
          <path d="M29.12,969.85h-11.37v-2.5h14.69v1.79c-5.38,6.91-6.53,12.13-6.88,21.03h-3.04c.38-8.61,2.11-14.05,6.6-20.33Z"/>
          <path d="M36.29,975.48c0-1.34.96-2.27,2.11-2.27s2.11.93,2.11,2.27-.96,2.21-2.11,2.21-2.11-.93-2.11-2.21ZM36.29,988.38c0-1.35.96-2.27,2.11-2.27s2.11.93,2.11,2.27-.96,2.21-2.11,2.21-2.11-.89-2.11-2.21Z"/>
          <path d="M45.66,987.74h5.22v-16.84h-4.16v-1.89c2.08-.35,3.59-.9,4.87-1.67h2.24v20.39h4.71v2.43h-12.87v-2.43Z"/>
          <path d="M62.18,978.68c0-7.65,2.79-11.75,7.33-11.75s7.3,4.13,7.3,11.75-2.75,11.91-7.3,11.91-7.33-4.26-7.33-11.91ZM73.96,978.68c0-6.69-1.79-9.41-4.45-9.41s-4.48,2.72-4.48,9.41,1.79,9.57,4.48,9.57,4.45-2.88,4.45-9.57Z"/>
          <path class="cls-3" d="M158.37,963.61c7.97,0,14.41,6.43,14.41,14.4s-6.43,14.41-14.41,14.41-14.4-6.44-14.4-14.41,6.43-14.4,14.4-14.4Z"/>
        </g>
        <g>
          <path d="M241.69,18v14.77h-2.74v-2.16h-22.47v2.23h-2.66v-14.84h2.66v9.98h9.62v-12.28h-10.91V3.38h2.67v9.72h8.25V.18h2.74v12.93h8.64V3.38h2.77v12.31h-11.42v12.28h10.12v-9.98h2.74Z"/>
          <path d="M279.6,9.69c-.4,15.09-.72,20.09-1.84,21.57-.65.9-1.29,1.19-2.34,1.29-.97.11-2.56.11-4.18,0-.07-.72-.32-1.8-.76-2.48,1.66.18,3.17.18,3.82.18.58,0,.9-.11,1.19-.58.86-1.04,1.26-5.73,1.55-18.8h-5.22c-.4,9.61-1.8,17.36-7.31,22.11-.4-.57-1.33-1.48-1.94-1.87.5-.4.94-.83,1.37-1.3-5.94.72-12.06,1.44-16.35,1.95l-.36-2.34c2.16-.18,4.9-.47,7.89-.79v-3.28h-6.55v-1.98h6.55v-2.74h-7.09v-2.05h7.09v-2.23h-6.41v-7.67h15.56v7.67h-6.7v2.23h7.2v2.05h-7.2v2.74h6.88v1.98h-6.88v2.99c2.34-.25,4.82-.54,7.24-.83l.04,1.26c3.31-4.29,4.29-10.45,4.54-17.9h-4.11v-2.48h4.18c.07-2.56.07-5.29.07-8.1h2.48c0,2.81-.04,5.51-.07,8.1h7.67v1.3ZM251.47,5.15h-4.07v-2.09h4.07V0h2.45v3.06h4.82V0h2.45v3.06h4.25v2.09h-4.25v2.77h-2.45v-2.77h-4.82v2.77h-2.45v-2.77ZM255.11,14.4v-3.75h-4.07v3.75h4.07ZM261.77,10.66h-4.21v3.75h4.21v-3.75Z"/>
          <path d="M220.87,186.65v6.12h-2.59v-6.12h-7.06v-2.41h7.06v-2.88h-5.62v-12.1h5.62v-2.88h-6.62v-2.38h6.62v-4.03h2.59v4.03h6.95v2.38h-6.95v2.88h5.9v12.1h-5.9v2.88h7.02v2.41h-7.02ZM215.07,174.3h9.26v-2.99h-9.26v2.99ZM215.07,179.27h9.26v-2.99h-9.26v2.99ZM242.59,189.53c0,1.55-.36,2.38-1.37,2.85-.97.43-2.56.47-5.19.43-.14-.65-.47-1.91-.87-2.59,1.87.07,3.6.07,4.07.04.54-.04.76-.18.76-.76v-8.28h-8.03c-.58,4.21-1.94,8.53-5.15,11.7-.4-.47-1.48-1.26-2.05-1.55,4.57-4.54,5.04-11.2,5.04-16.46v-13.22h12.78v27.84ZM239.99,178.72v-6.05h-7.63v2.23c0,1.19-.04,2.48-.14,3.82h7.78ZM232.36,164.14v6.09h7.63v-6.09h-7.63Z"/>
          <path d="M261.8,167.6c-1.15,2.74-2.81,5.33-4.68,7.67,1.73,1.44,4.97,4.29,5.87,5.12l-1.66,2.2c-.97-1.19-3.17-3.38-4.9-5.01v15.27h-2.59v-14.01c-1.91,1.88-3.96,3.46-5.94,4.72-.29-.72-.97-1.95-1.4-2.45,4.54-2.52,9.25-7.06,11.85-11.96h-10.59v-2.45h6.09v-6.7h2.59v6.7h3.38l.47-.11,1.51,1.01ZM275.56,189.85c1.73,0,2.02-1.4,2.27-6.84.68.5,1.73,1.01,2.52,1.15-.4,6.16-1.12,8.28-4.61,8.28h-6.27c-3.46,0-4.5-1.04-4.5-4.97v-26.83h2.74v26.9c0,1.91.32,2.3,2.05,2.3h5.8Z"/>
          <path d="M347.49,162.45v29.85h-2.81v-2.2h-17.86v2.34h-2.7v-30h23.37ZM326.82,165.08v9.72h17.86v-9.72h-17.86ZM344.68,187.48v-10.05h-17.86v10.05h17.86Z"/>
          <path d="M359.33,180.81c-.5,3.39-1.37,6.84-2.56,9.15-.43-.32-1.51-.83-2.09-1.01,1.19-2.2,1.94-5.4,2.34-8.57l2.3.43ZM363.25,177.93v14.98h-2.38v-14.84c-2.05.11-4,.21-5.65.32l-.21-2.38,2.38-.11c.76-.97,1.59-2.12,2.38-3.31-1.12-1.58-2.99-3.6-4.64-5.08l1.37-1.76c.36.29.68.61,1.04.94,1.22-2.02,2.48-4.72,3.24-6.7l2.34.94c-1.22,2.38-2.74,5.22-4.07,7.24.79.79,1.51,1.62,2.09,2.34,1.4-2.23,2.7-4.54,3.64-6.45l2.27,1.01c-2.05,3.42-4.79,7.63-7.17,10.73l5.33-.22c-.5-1.12-1.08-2.27-1.69-3.24l1.87-.76c1.48,2.3,2.92,5.4,3.38,7.35l-2.02.9c-.14-.61-.36-1.33-.65-2.09l-2.84.18ZM366.38,180.13c.97,2.05,1.95,4.79,2.3,6.55l-2.05.68c-.36-1.8-1.26-4.5-2.2-6.59l1.95-.65ZM379.49,189.38h8.68v2.41h-20.46v-2.41h9.15v-5.87h-6.84v-2.41h6.84v-5.19h2.63v5.19h7.09v2.41h-7.09v5.87ZM386.59,162.52c-1.4,3.93-3.64,7.02-6.45,9.47,2.41,1.62,5.26,2.81,8.43,3.49-.54.58-1.26,1.55-1.66,2.23-3.31-.9-6.3-2.27-8.82-4.14-2.59,1.84-5.58,3.21-8.68,4.21-.36-.68-1.01-1.66-1.55-2.2,2.92-.83,5.72-2.05,8.17-3.71-2.12-2.02-3.85-4.43-5.11-7.2l1.44-.47h-3.71v-2.38h15.63l.5-.11,1.8.79ZM373.41,164.21c1.08,2.34,2.67,4.43,4.65,6.16,2.02-1.73,3.71-3.78,4.9-6.16h-9.54Z"/>
          <path d="M405.3,187.66c-.76-.9-2.59-2.66-4.11-4.03v9.15h-2.59v-9.44c-1.77,2.77-4,5.33-6.01,6.91-.43-.61-1.22-1.47-1.8-1.94,2.59-1.69,5.44-4.93,7.24-8.1h-6.45v-2.27h7.02v-3.78h-7.13v-2.27h16.71v2.27h-6.99v3.78h6.7v2.27h-6.7v.87c1.37,1.01,4.86,3.85,5.69,4.61l-1.59,1.98ZM407.75,165.98h-15.77v-2.23h6.63v-3.64h2.59v3.64h6.55v2.23ZM395.54,171.85c-.14-1.41-.72-3.57-1.4-5.19l2.09-.54c.76,1.62,1.37,3.75,1.55,5.11l-2.23.61ZM401.45,171.27c.65-1.44,1.48-3.67,1.8-5.22l2.45.58c-.68,1.8-1.4,3.82-2.09,5.11l-2.16-.47ZM424.06,174.55h-4.03v18.08h-2.63v-18.08h-5.37v.9c0,5.36-.68,12.57-5.72,17.57-.32-.58-1.3-1.51-1.91-1.87,4.57-4.46,5.08-10.7,5.08-15.74v-12.53l1.95.61c3.67-.79,7.71-1.95,10.01-3.1l2.16,1.98c-3.06,1.37-7.56,2.45-11.56,3.24v6.41h12.03v2.52Z"/>
          <path d="M431.58,173.21v19.66h-2.63v-31.37h13.04v11.7h-10.41ZM431.58,163.53v2.81h7.89v-2.81h-7.89ZM439.46,171.23v-3.02h-7.89v3.02h7.89ZM449.84,177.21v14.8h-2.41v-2.77c-4.83.36-9.58.69-13.07.9l-.18-2.16c.94-.04,1.98-.07,3.13-.14v-10.62h-2.67v-1.98h17.9v1.98h-2.7ZM447.42,177.21h-7.74v2.16h7.74v-2.16ZM447.42,181.07h-7.74v2.27h7.74v-2.27ZM439.68,187.73c2.41-.14,5.08-.29,7.74-.47v-2.23h-7.74v2.7ZM458.51,189.38c0,1.58-.32,2.45-1.4,2.92-1.04.43-2.77.5-5.47.47-.07-.68-.43-1.95-.83-2.66,1.98.07,3.82.07,4.36.04.54,0,.72-.18.72-.76v-16.13h-10.73v-11.74h13.36v27.87ZM447.71,163.53v2.81h8.17v-2.81h-8.17ZM455.88,171.27v-3.06h-8.17v3.06h8.17Z"/>
          <path d="M480.25,191.22l-1.69-2.67c1.15-.11,2.27-.29,3.1-.47,4.61-1.04,9.15-4.46,9.15-10.7,0-5.44-3.49-9.94-9.61-10.44-.47,3.35-1.15,7.02-2.16,10.37-2.2,7.42-5.04,11.2-8.39,11.2s-6.41-3.67-6.41-9.61c0-7.82,6.95-14.66,15.74-14.66s13.79,5.94,13.79,13.25-4.97,12.61-13.5,13.72ZM470.75,185.21c1.69,0,3.6-2.41,5.44-8.5.9-2.99,1.62-6.41,2.02-9.72-6.91.87-11.16,6.77-11.16,11.67,0,4.54,2.09,6.55,3.71,6.55Z"/>
          <path d="M509.99,168.14h-12.14v-2.2h12.14v2.2ZM509.05,190.75h-7.45v1.69h-2.27v-12.06h9.72v10.37ZM499.37,170.8h9.69v2.12h-9.69v-2.12ZM499.37,175.56h9.69v2.16h-9.69v-2.16ZM508.91,163.38h-9.33v-2.16h9.33v2.16ZM501.6,182.58v6.01h5.19v-6.01h-5.19ZM518.56,178.26c-.32,7.63-1.51,12.13-7.85,14.62-.29-.58-1.01-1.58-1.55-2.09,5.76-2.05,6.59-5.8,6.88-12.53h2.52ZM513.16,180.02h-2.41v-6.34h19.59v6.34h-2.48v-4.14h-14.69v4.14ZM519.03,165.47h-8.14v-2.27h8.14v-3.24h2.66v3.24h8.5v2.27h-8.5v3.35h7.46v2.27h-17.11v-2.27h6.99v-3.35ZM527.92,190.03c.79,0,.94-.57,1.04-4.71.47.43,1.55.83,2.2,1.04-.18,4.82-.83,6.09-2.95,6.09h-2.99c-2.45,0-3.03-.79-3.03-3.42v-10.77h2.48v10.77c0,.9.11,1.01.87,1.01h2.38Z"/>
          <path d="M542.93,163.82c1.91,0,6.63-.25,8.14-.36.69-.07,1.33-.22,1.8-.4l1.8,1.48c-.32.4-.65.76-.94,1.19-1.01,1.62-2.59,5.29-4.11,8.64,3.64.4,6.99,1.55,9.9,2.88.14-.9.22-1.8.29-2.67.04-1.08.07-2.3,0-3.31l2.92.32c-.11,2.56-.36,4.86-.76,6.95,1.73.97,3.21,1.94,4.36,2.77l-1.33,3.1c-1.08-.94-2.34-1.91-3.75-2.84-1.48,4.68-4.25,8.1-9.47,10.7l-2.38-1.98c5.69-2.41,8.28-6.27,9.44-10.16-3.03-1.69-6.55-2.99-10.3-3.31-1.4,3.17-3.17,7.42-4.54,9.43-1.3,1.84-2.67,2.49-4.54,2.49-2.66,0-4.68-1.91-4.68-4.93,0-5.29,4.9-9.36,11.99-9.54,1.26-2.85,2.63-5.98,3.75-8.21-1.44.07-5.83.25-7.49.36-.79.04-1.8.14-2.67.21l-.14-2.92c.94.07,1.98.11,2.7.11ZM539.58,185.89c.83,0,1.4-.32,2.16-1.26,1.3-1.69,2.66-5.04,3.93-7.85-5.26.39-8.25,3.56-8.25,6.66,0,1.59,1.01,2.45,2.16,2.45Z"/>
          <path d="M586.67,160.07c3.82,5.29,10.16,10.3,15.81,12.86-.65.61-1.29,1.55-1.76,2.3-5.58-2.92-11.88-7.96-15.23-12.57-2.95,4.39-8.79,9.51-14.95,12.79-.32-.61-1.04-1.55-1.66-2.12,6.27-3.17,12.28-8.64,15.09-13.25h2.7ZM574.68,178.54h21.89v14.33h-2.74v-1.48h-16.53v1.48h-2.63v-14.33ZM594.59,171.67v2.38h-18.04v-2.38h18.04ZM577.31,180.96v8.03h16.53v-8.03h-16.53Z"/>
          <path d="M614.31,161.51l3.39.11c-.18.9-.47,2.92-.72,5.44.07-.04.11-.04.18-.07l1.08,1.26c-.47.65-1.08,1.62-1.62,2.52-.07.76-.14,1.55-.18,2.34,3.96-3.28,8.07-4.54,11.49-4.54,4.97,0,9.4,3.53,9.43,9.11.04,7.24-5.26,11.02-13.11,12.53l-1.33-2.7c6.09-.86,11.56-3.71,11.52-9.9,0-2.77-2.2-6.41-6.95-6.41-4.18,0-8,2.09-11.27,5.15-.07,1.51-.11,2.95-.11,4.25,0,3.28-.04,5.47.14,8.68.04.65.11,1.55.18,2.2h-3.13c.07-.5.11-1.55.11-2.12.04-3.46.04-5.29.11-9.22,0-.36.04-.86.04-1.44-1.76,2.66-4.14,6.09-5.87,8.53l-1.8-2.48c2.02-2.52,6.16-8.14,7.96-10.98.07-1.15.14-2.34.25-3.49-1.66.22-4.79.65-7.06.97l-.29-2.99c.79.04,1.47,0,2.34-.04,1.19-.07,3.31-.32,5.19-.61.11-1.69.18-3.02.18-3.42,0-.79,0-1.76-.14-2.66Z"/>
          <path d="M666.2,164.93c-.04,1.66-.04,3.46-.07,5.04,1.44-.11,2.81-.18,4-.25.94-.07,1.95-.14,2.81-.18v2.81c-.58-.04-1.94,0-2.84,0-1.08.04-2.45.11-4.03.21-.07,2.63-.14,5.84-.5,7.53-.32,1.58-1.12,2.05-2.77,2.05-1.3,0-3.78-.32-4.75-.51l.07-2.48c1.22.29,2.77.47,3.6.47s1.26-.14,1.37-.97c.18-1.19.32-3.64.39-5.91-3.71.29-7.92.72-11.52,1.08-.04,3.71-.04,7.45,0,8.86.11,3.89.18,5.26,6.41,5.26,3.89,0,8.36-.43,10.7-.86l-.11,3.06c-2.41.25-6.81.58-10.44.58-8.32,0-9.11-1.91-9.29-7.63-.04-1.55-.04-5.37-.04-8.97-1.59.18-2.92.32-3.85.43-1.12.14-2.67.36-3.64.5l-.32-2.95c1.12,0,2.45-.07,3.74-.22.9-.07,2.34-.21,4.07-.36.04-2.41.04-4.39.04-5.01,0-1.12-.07-1.94-.22-3.06h3.13c-.07.83-.14,1.8-.14,2.92,0,1.19,0,2.95-.04,4.86,3.53-.32,7.71-.72,11.56-1.04v-5.15c0-.79-.07-2.09-.18-2.7h3.06c-.11.61-.14,1.84-.18,2.59Z"/>
          <path d="M215.58,333.54v19.34h-2.63v-31.37h13.04v12.03h-10.41ZM215.58,323.56v2.92h7.89v-2.92h-7.89ZM223.46,331.49v-3.1h-7.89v3.1h7.89ZM232.4,344.16v8.03h-2.38v-8.03h-5.12c-.21,2.41-1.37,6.16-4.82,8.5-.4-.47-1.19-1.22-1.77-1.58,3.03-1.84,4.03-4.83,4.25-6.91h-4.5v-2.27h4.57v-3.89h-3.89v-2.2h17.75v2.2h-4.1v3.89h4.9v2.27h-4.9ZM230.02,341.89v-3.89h-5.04v3.89h5.04ZM242.51,349.38c0,1.58-.36,2.45-1.4,2.92-1.08.43-2.88.5-5.58.47-.07-.68-.47-1.95-.87-2.66,1.98.07,3.93.07,4.46.04.58,0,.76-.21.76-.79v-15.77h-10.73v-12.06h13.36v27.87ZM231.71,323.56v2.92h8.17v-2.92h-8.17ZM239.88,331.52v-3.13h-8.17v3.13h8.17Z"/>
          <path d="M279.81,324.61v2.56h-27.08v6.73c0,5.47-.5,13.54-3.56,18.98-.47-.47-1.62-1.22-2.27-1.51,2.92-5.15,3.21-12.35,3.21-17.47v-9.29h13.22v-4.61h2.74v4.61h13.76ZM267.24,332.21h12.06v2.41h-12.06v5.15h9.65v13.04h-2.7v-1.33h-15.56v1.4h-2.63v-13.11h8.54v-11.85h2.7v4.29ZM274.19,342.15h-15.56v6.91h15.56v-6.91Z"/>
          <path d="M319.04,350.68c2.7-1.73,4.5-4.75,5.4-7.56l2.3.79c-1.04,3.1-2.7,6.34-5.58,8.36l-2.12-1.59ZM322.93,328.82h-2.52v-5.91h13.9v-2.92h2.7v2.92h14.08v5.73h-2.59c-.29,2.7-1.04,3.38-3.1,3.38h-4.29c-2.88,0-3.6-.61-3.6-2.99v-3.89h-4.25c-1.04,4.5-3.71,7.17-10.98,8.57-.21-.61-.86-1.55-1.37-2.05,6.45-1.04,8.64-3.13,9.58-6.52h-7.56v3.67ZM347.92,341.89c-.65-.79-1.58-1.77-2.7-2.74-8.07.36-16.64.72-22.29.94l-.4-2.41c1.69-.04,3.71-.11,5.91-.18,1.48-1.94,3.21-4.57,4.25-6.52l2.66.76c-1.22,1.91-2.66,3.96-4.03,5.65,3.57-.11,7.46-.25,11.31-.43-1.08-.86-2.23-1.69-3.28-2.38l2.09-1.26c3.06,2.05,6.84,5.04,8.68,7.16l-2.2,1.41ZM339.68,350.21c1.51,0,1.76-.47,1.91-3.89.54.47,1.62.83,2.3.97-.32,4.21-1.08,5.22-3.96,5.22h-6.55c-3.56,0-4.46-.69-4.46-3.35v-5.54h2.59v5.51c0,.94.32,1.08,2.09,1.08h6.09ZM333.12,340.13c2.38,1.26,5.22,3.21,6.66,4.68l-1.95,1.58c-1.37-1.48-4.18-3.53-6.55-4.82l1.84-1.44ZM348.46,325.15h-8.32v3.89c0,.72.18.83,1.3.83h3.67c.9,0,1.08-.32,1.15-2.77.5.36,1.48.68,2.2.86v-2.81ZM345.72,342.94c2.52,2.38,5.26,5.73,6.45,8.03l-2.38,1.3c-1.08-2.27-3.78-5.73-6.27-8.21l2.2-1.12Z"/>
          <path d="M385.07,323.71v28.09h-2.85v-2.88h-21.17v3.06h-2.7v-28.27h26.72ZM382.23,346.21v-19.84h-21.17v19.84h21.17Z"/>
          <path d="M394.43,326.23c2.34-.25,9.15-.94,15.77-1.48,3.93-.32,7.31-.54,9.72-.65v2.88c-2.05,0-5.22.04-7.06.58-5.12,1.66-8.25,7.13-8.25,11.41,0,7.02,6.55,9.26,12.42,9.47l-1.04,2.99c-6.66-.25-14.26-3.82-14.26-11.85,0-5.62,3.42-10.19,6.73-12.17-3.85.43-13.04,1.3-16.93,2.12l-.32-3.13c1.37-.04,2.52-.11,3.21-.18ZM417.69,336.42l-1.84.87c-.83-1.73-1.87-3.6-2.95-5.08l1.84-.79c.83,1.19,2.2,3.42,2.95,5.01ZM421.79,334.87l-1.87.9c-.86-1.77-1.91-3.53-3.03-5.04l1.77-.83c.86,1.19,2.3,3.38,3.13,4.97Z"/>
          <path d="M452.36,324.86c-2.09,3.31-5.19,6.16-8.75,8.57,4.18,2.27,9.07,4.03,14.04,5.01-.61.61-1.33,1.73-1.73,2.45-5.22-1.19-10.33-3.24-14.8-5.94-4.97,2.81-10.55,4.86-15.74,6.08-.21-.72-.83-1.84-1.3-2.41,4.75-1.01,9.98-2.81,14.62-5.26-2.23-1.58-4.25-3.31-5.91-5.22-1.84,1.73-3.78,3.24-5.72,4.43-.43-.5-1.44-1.51-2.05-1.98,4.5-2.45,8.86-6.48,11.38-10.91l2.56.9c-.65,1.08-1.37,2.16-2.16,3.17h13.25l.47-.14,1.84,1.26ZM430.28,340.06h21.17v12.86h-2.77v-1.55h-15.74v1.66h-2.66v-12.96ZM432.95,342.54v6.41h15.74v-6.41h-15.74ZM434.5,326.45c1.73,2.02,4,3.89,6.59,5.51,2.74-1.69,5.19-3.67,6.99-5.83h-13.29l-.29.32Z"/>
          <path d="M472.51,341.82c-.58-1.01-2.05-2.99-3.28-4.47v15.41h-2.59v-15.92c-1.48,3.64-3.38,7.24-5.22,9.44-.25-.76-.9-1.8-1.33-2.45,2.27-2.52,4.75-7.17,6.2-11.27h-5.51v-2.52h5.87v-5.47c-1.76.36-3.6.65-5.26.9-.14-.61-.5-1.48-.83-2.09,4.03-.65,8.75-1.69,11.38-2.88l1.87,2.02c-1.3.54-2.88,1.04-4.57,1.44v6.09h4.5v2.52h-4.5v2.2c1.12.94,4.18,4.11,4.9,4.93l-1.62,2.12ZM493.51,349.89v2.23h-21.43v-2.23h9.87v-2.81h-7.81v-2.16h7.81v-2.55h-7.42v-11.49h7.42v-2.41h-8.93v-2.2h8.93v-2.41c-2.59.18-5.26.29-7.67.36-.04-.58-.36-1.51-.61-2.02,5.98-.25,13.43-.86,17.47-1.76l1.62,2.02c-2.27.5-5.15.9-8.25,1.19v2.63h8.32v2.2h-8.32v2.41h7.6v11.49h-7.6v2.55h7.78v2.16h-7.78v2.81h9ZM476.91,335.7h5.04v-2.81h-5.04v2.81ZM481.95,340.35v-2.88h-5.04v2.88h5.04ZM484.5,332.89v2.81h5.19v-2.81h-5.19ZM489.69,337.46h-5.19v2.88h5.19v-2.88Z"/>
          <path d="M529.07,341.14h-14.76v8c0,1.91-.58,2.7-1.91,3.13-1.33.43-3.64.5-7.42.47-.21-.76-.72-1.95-1.15-2.67,3.03.11,5.83.07,6.66.04.79,0,1.12-.25,1.12-1.01v-7.96h-14.8v-2.63h14.8v-5.83h-12.39v-2.56h12.39v-5.54c-3.96.43-8.03.68-11.74.86-.11-.72-.43-1.77-.68-2.38,8.5-.4,18.94-1.33,24.34-3.03l2.02,2.12c-3.06.94-6.99,1.62-11.23,2.12v5.83h12.75v2.56h-12.75v5.83h14.76v2.63Z"/>
          <path d="M536.48,340.78c-.5,3.39-1.33,6.84-2.48,9.15-.4-.32-1.48-.79-1.98-.97,1.12-2.2,1.8-5.44,2.2-8.57l2.27.39ZM540.37,337.68v15.16h-2.38v-15.02l-5.65.36-.25-2.41,2.49-.11c.72-.9,1.48-1.91,2.23-2.99-1.04-1.62-2.85-3.67-4.46-5.22l1.44-1.69c.36.32.72.65,1.08,1.01,1.19-2.05,2.45-4.79,3.21-6.77l2.34.86c-1.22,2.48-2.77,5.4-4.14,7.42.76.79,1.4,1.59,1.95,2.3,1.48-2.23,2.84-4.57,3.85-6.52l2.23,1.04c-2.05,3.28-4.75,7.35-7.2,10.41l5.19-.25c-.5-1.04-1.04-2.09-1.62-3.03l1.94-.79c1.37,2.09,2.67,4.83,3.31,6.77v-4.65h19.12v6.41h-2.38v-4.25h-14.48v4.25h-2.27v-1.08l-1.94.9c-.14-.68-.4-1.48-.76-2.3l-2.85.18ZM543.4,347.4c-.18-1.73-.9-4.46-1.8-6.52l1.98-.58c.9,2.05,1.69,4.72,1.91,6.48l-2.09.61ZM550.49,338.4h2.45v2.23c0,3.57-.79,8.79-7.63,12.24-.43-.5-1.26-1.33-1.91-1.8,6.41-3.13,7.09-7.64,7.09-10.48v-2.2ZM553.98,325.58h-8.21v-2.27h8.21v-3.35h2.63v3.35h8.36v2.27h-8.36v3.28h7.13v2.27h-16.71v-2.27h6.95v-3.28ZM562.62,350.32c.72,0,.9-.58.97-4.43.47.47,1.51.87,2.16,1.04-.18,4.5-.83,5.65-2.85,5.65h-2.88c-2.38,0-2.95-.72-2.95-3.31v-10.91h2.45v10.91c0,.9.11,1.04.83,1.04h2.27Z"/>
          <path d="M582.28,321.76l3.06-.4c.14,1.37.47,2.85.86,4.29,2.56-.32,5.08-.86,7.38-1.62l.4,2.59c-2.05.58-4.61,1.12-7.1,1.44.25.9.54,1.73.79,2.48.25.68.54,1.44.83,2.16,2.99-.36,5.51-1.01,7.2-1.55l.43,2.7c-1.73.47-4,.94-6.52,1.3.76,1.55,1.58,3.1,2.52,4.46.4.58.83,1.04,1.33,1.55l-1.47,2.2c-2.02-.54-5.4-.87-7.89-1.15l.25-2.2c1.91.22,4.25.47,5.4.61-1.08-1.66-2.02-3.42-2.81-5.18-4.39.39-10.3.47-15.84.07l-.14-2.7c5.4.57,10.88.54,14.95.18-.25-.65-.51-1.26-.72-1.87-.36-1.01-.69-1.94-.97-2.81-3.49.22-7.89.14-12.39-.25l-.18-2.63c4.32.5,8.43.61,11.88.43-.11-.29-.18-.61-.25-.9-.29-1.08-.65-2.2-1.01-3.21ZM574.68,344.63c0,2.99,2.66,4.46,8.32,4.46,3.35,0,5.98-.22,8.57-.76l-.11,2.88c-2.52.4-5.37.61-8.43.61-7.06,0-11.02-2.09-11.06-6.7-.04-2.05.61-3.56,1.4-5.15l2.81.58c-.86,1.26-1.51,2.48-1.51,4.07Z"/>
          <path d="M616.98,351.22l-1.69-2.67c1.15-.11,2.27-.29,3.1-.47,4.61-1.04,9.15-4.46,9.15-10.7,0-5.44-3.49-9.94-9.61-10.44-.47,3.35-1.15,7.02-2.16,10.37-2.2,7.42-5.04,11.2-8.39,11.2s-6.41-3.67-6.41-9.61c0-7.82,6.95-14.66,15.74-14.66s13.79,5.94,13.79,13.25-4.97,12.61-13.5,13.72ZM607.48,345.21c1.69,0,3.6-2.41,5.44-8.5.9-2.99,1.62-6.41,2.02-9.72-6.91.87-11.16,6.77-11.16,11.67,0,4.54,2.09,6.55,3.71,6.55Z"/>
          <path d="M648.7,329.58c-.72,4.21-1.69,7.96-3.06,11.2,1.69,2.23,3.1,4.39,4,6.16l-2.16,1.84c-.72-1.51-1.84-3.35-3.13-5.26-2.02,3.71-4.64,6.73-8.14,9.04-.32-.5-1.3-1.58-1.87-2.05,3.75-2.23,6.41-5.37,8.36-9.33-1.98-2.67-4.25-5.4-6.38-7.67l1.87-1.51c1.87,1.94,3.85,4.21,5.65,6.45,1.01-2.74,1.76-5.83,2.27-9.22l2.59.36ZM651.83,328.39h-16.64v-2.48h6.84v-5.87h2.56v5.87h7.24v2.48ZM667.46,331.16h-4.29v18.04c0,1.8-.43,2.59-1.51,3.1-1.08.43-2.88.5-5.98.5-.11-.72-.47-1.98-.87-2.77,2.27.07,4.25.07,4.86.04.61-.04.87-.22.87-.87v-18.04h-9.83v-2.56h9.83v-8.64h2.63v8.64h4.29v2.56ZM655.04,343.98c-.58-2.12-2.2-5.58-3.89-8.07l2.2-1.01c1.73,2.45,3.42,5.76,3.96,7.92l-2.27,1.15Z"/>
          <path d="M676.16,327.17v6.73c0,5.47-.5,13.54-3.56,18.98-.47-.47-1.62-1.22-2.27-1.51,2.92-5.15,3.21-12.35,3.21-17.47v-9.29h13.22v-4.61h2.74v4.61h13.72v2.56h-27.04ZM676.2,348.34c1.8-2.74,2.74-7.13,3.17-10.91l2.45.54c-.5,3.93-1.4,8.61-3.24,11.45l-2.38-1.08ZM693.3,349.71c1.48,0,1.69-.9,1.8-6.16.61.43,1.69.9,2.41,1.08-.29,5.94-.97,7.53-4.03,7.53h-5.26c-3.13,0-3.96-.9-3.96-3.89v-13.9h2.63v13.9c0,1.22.29,1.44,1.66,1.44h4.75ZM693.09,335.63c-1.73-1.62-5.33-4-8.28-5.55l1.84-1.73c2.88,1.4,6.52,3.67,8.36,5.29l-1.91,1.98ZM698.6,336.64c2.38,3.67,4.64,8.5,5.26,11.7l-2.56,1.12c-.61-3.17-2.74-8.1-5.08-11.85l2.38-.97Z"/>
          <path d="M236.82,490.7c1.4,5.22,4.03,9.94,7.56,12.17-.61.54-1.48,1.51-1.91,2.27-2.52-1.76-4.5-4.57-6.01-7.96v9.26h-17.25v-12.93h15.85c-.29-.9-.58-1.84-.79-2.81h-15.7c-.43,4.86-1.84,10.55-5.65,14.69-.36-.54-1.44-1.58-1.98-1.91,4.61-5.01,5.22-11.92,5.22-16.89v-5.01h24.13v9.11h-3.46ZM212.73,509.2h30.03v2.45h-30.03v-2.45ZM218.75,486.62c0,.54,0,1.12-.04,1.73h18.87v-4.46h-18.83v2.74ZM233.91,495.56h-12.28v3.42h12.28v-3.42ZM233.91,500.89h-12.28v3.49h12.28v-3.49Z"/>
          <path d="M258.92,481.04c-1.08,2.63-2.41,5.26-3.92,7.71v24.05h-2.63v-20.2c-1.33,1.76-2.77,3.38-4.25,4.75-.25-.65-1.12-2.05-1.62-2.7,3.96-3.42,7.63-8.79,9.76-14.44l2.66.83ZM270.99,491.7c2.3,5.73,6.05,11.45,9.79,14.48-.65.5-1.58,1.44-2.02,2.16-3.49-3.24-6.91-8.71-9.33-14.48v19.01h-2.63v-18.26c-2.41,5.62-5.83,10.77-9.36,13.86-.5-.61-1.4-1.59-2.02-2.05,3.89-3.06,7.71-8.86,9.97-14.73h-8.71v-2.59h10.12v-8.64h2.63v8.64h10.41v2.59h-8.86Z"/>
          <path d="M283.22,510.21c2.7-1.4,4.21-3.93,4.93-6.77l2.34.76c-.79,3.06-2.2,5.94-5.08,7.53l-2.2-1.51ZM290.5,489.07h-6.66v-2.23h6.66v-3.06c-1.87.21-3.78.32-5.51.39-.11-.57-.4-1.44-.69-1.98,4.39-.25,9.79-.83,12.68-1.69l1.8,1.87c-1.62.47-3.67.87-5.83,1.15v3.31h6.48v2.23h-6.48v3.17h5.01v8.18h-12.39v-8.18h4.93v-3.17ZM295.57,494.37h-7.67v3.96h7.67v-3.96ZM304.07,510.03c1.62,0,1.84-.47,1.98-3.78.61.47,1.69.83,2.45.97-.36,4.21-1.15,5.22-4.21,5.22h-6.99c-3.78,0-4.72-.72-4.72-3.49v-5.47h2.63v5.47c0,.9.32,1.08,2.27,1.08h6.59ZM297.12,500.6c2.27,1.12,4.93,2.88,6.19,4.32l-1.87,1.62c-1.22-1.4-3.82-3.31-6.09-4.5l1.76-1.44ZM314.62,500.78h-13.87v-17.54h4.25c.47-1.19.94-2.56,1.19-3.56l2.92.43c-.47,1.08-.97,2.2-1.4,3.13h6.91v17.54ZM303.21,485.47v2.92h8.82v-2.92h-8.82ZM303.21,490.34v3.06h8.82v-3.06h-8.82ZM312.03,498.58v-3.24h-8.82v3.24h8.82ZM309.69,503.23c2.59,1.98,5.33,4.9,6.45,7.13l-2.38,1.33c-1.01-2.2-3.64-5.19-6.19-7.28l2.12-1.19Z"/>
          <path d="M223.21,657.97c-1.33.47-2.66.94-4,1.4v10.33c0,1.48-.32,2.23-1.29,2.67-.9.4-2.34.47-4.75.43-.07-.65-.47-1.76-.79-2.41,1.62.04,3.1.04,3.57,0,.47,0,.65-.14.65-.69v-9.43c-1.69.58-3.31,1.15-4.75,1.62l-.9-2.74c1.55-.39,3.49-.97,5.65-1.62v-7.99h-5.19v-2.48h5.19v-7.06h2.63v7.06h4v2.48h-4v7.2l3.71-1.12.29,2.34ZM241.9,656.06c-1.33,4.39-3.67,7.81-6.63,10.48,2.59,1.84,5.73,3.17,9.33,3.93-.58.54-1.37,1.66-1.77,2.38-3.78-.94-7.02-2.49-9.72-4.57-3.02,2.16-6.52,3.64-10.19,4.61-.29-.68-.9-1.84-1.44-2.38,3.46-.79,6.77-2.12,9.62-4.03-2.2-2.2-3.93-4.86-5.19-8l1.94-.58h-3.13v-2.45h14.95l.5-.11,1.73.72ZM229.37,645.04c0,3.13-.9,7.06-4.86,9.69-.36-.54-1.3-1.58-1.8-1.91,3.56-2.27,4.14-5.33,4.14-7.82v-3.6h11.81v8.57c0,.83.11.97.76.97h1.94c.69,0,.83-.54.9-4.25.51.43,1.55.83,2.23,1.01-.18,4.36-.83,5.47-2.84,5.47h-2.63c-2.27,0-2.92-.65-2.92-3.17v-6.09h-6.73v1.12ZM228.4,657.9c1.08,2.67,2.7,5.01,4.83,6.95,2.16-1.87,3.96-4.21,5.15-6.95h-9.97Z"/>
          <path d="M257.81,649.54c-3.24,1.04-6.63,2.09-9.33,2.95l-1.04-2.34c2.59-.61,6.37-1.69,10.05-2.7l.32,2.09ZM260.65,668.63c-2.92,1.69-7.42,3.35-10.98,4.32-.47-.5-1.37-1.55-1.98-2.02,3.67-.76,7.99-2.02,10.55-3.46l2.41,1.15ZM256.73,645.62c-1.66-.97-4.97-2.23-7.53-3.03l1.19-1.84c2.48.68,5.8,1.87,7.53,2.77l-1.19,2.09ZM252.23,652.68h23.3v14.44h-23.3v-14.44ZM254.82,656.89h18.04v-2.41h-18.04v2.41ZM254.82,661.1h18.04v-2.48h-18.04v2.48ZM254.82,665.35h18.04v-2.52h-18.04v2.52ZM263.14,644.61c-.9,1.12-1.95,2.16-3.21,3.13-.5-.5-1.37-1.08-2.02-1.33,2.7-1.87,4.5-4.29,5.44-6.45l2.41.39c-.36.76-.76,1.48-1.22,2.23h12.31l.43-.11,1.8.54c-1.01,1.84-2.34,3.86-3.64,5.11l-2.12-.75c.76-.72,1.55-1.73,2.2-2.77h-5.76c.79,2.77,2.81,5.4,10.19,6.48-.5.5-1.12,1.51-1.37,2.16-6.12-1.08-8.75-3.38-10.08-5.98-1.4,2.66-4.07,4.36-9.18,5.37-.21-.58-.83-1.44-1.26-1.91,5.87-1.04,8.03-2.84,8.89-6.12h-3.82ZM268.83,667.58c3.89,1.26,8.17,2.81,10.8,4l-2.95,1.33c-2.23-1.15-6.12-2.67-10.05-3.96l2.2-1.37Z"/>
          <path d="M294.17,640.83c-1.01,2.52-2.27,5.08-3.67,7.42v24.49h-2.52v-20.63c-1.3,1.8-2.63,3.38-4,4.75-.25-.57-1.04-1.98-1.51-2.59,3.64-3.42,7.13-8.75,9.22-14.19l2.48.76ZM316.13,646.62v2.23h-23.26v-2.23h23.26ZM295.43,661.5h18.29v11.24h-2.67v-1.59h-13.04v1.69h-2.59v-11.34ZM313.4,653.79h-17.57v-2.2h17.57v2.2ZM295.82,656.56h17.5v2.16h-17.5v-2.16ZM312.75,643.89h-16.49v-2.2h16.49v2.2ZM298.02,663.66v5.29h13.04v-5.29h-13.04Z"/>
          <path d="M333.34,648.14h-14.19v-2.2h14.19v2.2ZM331.9,670.79h-8.71v1.66h-2.38v-12.06h11.09v10.41ZM320.84,650.8h11.16v2.12h-11.16v-2.12ZM320.84,655.56h11.16v2.16h-11.16v-2.16ZM332.01,643.38h-10.98v-2.16h10.98v2.16ZM323.18,662.58v6.05h6.3v-6.05h-6.3ZM348.46,669.93c1.12,0,1.33-1.12,1.47-5.58.65.5,1.69,1.01,2.45,1.15-.29,5.18-.97,6.95-3.74,6.95h-4.72c-2.92,0-3.74-.9-3.74-4.36v-10.59l-6.91,1.08-.4-2.52,7.31-1.12v-9.47c-1.95.43-3.89.79-5.73,1.08-.11-.61-.54-1.62-.86-2.27,5.26-.9,11.34-2.34,14.73-3.89l2.23,2.09c-2.16.9-4.86,1.69-7.71,2.38v9.65l8.93-1.37.47,2.52-9.4,1.44v11.02c0,1.51.25,1.8,1.44,1.8h4.18Z"/>
          <path d="M362.17,645.44c-.68,3.31-1.8,9.76-1.8,13.79,0,1.76.11,3.28.32,5.04.61-1.62,1.48-3.78,2.09-5.26l1.51,1.15c-.94,2.56-2.23,6.37-2.56,8.07-.11.54-.22,1.22-.18,1.62.04.4.07.9.11,1.26l-2.59.18c-.72-2.56-1.33-6.7-1.33-11.56,0-5.29,1.19-11.45,1.62-14.44.14-.83.25-1.77.25-2.56l3.21.29c-.18.61-.5,1.77-.65,2.41ZM370.56,663.77c0,1.66,1.19,3.24,6.09,3.24,3.24,0,6.01-.29,8.93-.94l.07,3.03c-2.27.43-5.29.76-9,.76-6.05,0-8.75-2.02-8.75-5.4,0-1.22.21-2.49.61-4.25l2.59.25c-.36,1.33-.54,2.34-.54,3.31ZM384.5,645.76v2.92c-3.85.43-10.84.43-14.8,0v-2.88c3.93.65,11.2.5,14.8-.04Z"/>
          <path d="M394.25,653.11v19.77h-2.63v-31.37h13.04v11.6h-10.41ZM394.25,643.53v2.77h7.89v-2.77h-7.89ZM402.13,651.13v-2.99h-7.89v2.99h7.89ZM421.18,669.67c0,1.44-.29,2.23-1.26,2.7-.9.43-2.45.47-4.72.47-.07-.65-.4-1.69-.72-2.38-.14.21-.29.43-.36.61-3.53-.94-6.16-2.81-7.81-5.4-1.04,2.02-3.31,4.03-8.1,5.51-.32-.5-1.04-1.33-1.58-1.8,5.08-1.4,7.06-3.46,7.78-5.33h-7.46v-2.05h7.85v-2.81h-7.24v-2.02h3.85c-.36-.94-.97-2.09-1.62-2.92l2.09-.69c.86,1.12,1.69,2.59,1.95,3.6h4.68c.61-1.12,1.37-2.59,1.73-3.67l2.41.79c-.61.97-1.26,2.02-1.84,2.88h4.25v2.02h-7.89v2.81h8.5v2.05h-7.92c1.51,2.56,4.21,4.32,7.89,5.04-.32.29-.72.76-1.04,1.19,1.51.07,2.92.07,3.35.04.47,0,.61-.18.61-.68v-16.49h-10.73v-11.63h13.36v28.16ZM410.38,643.53v2.77h8.17v-2.77h-8.17ZM418.55,651.2v-3.06h-8.17v3.06h8.17Z"/>
          <path d="M444.76,643.85c0,.54-.04,1.37-.04,2.34h.54c4.39,0,8.82.04,10.55.04l-.04,2.66c-2.02-.11-5.29-.18-10.55-.18h-.5c0,2.05.04,4.29.07,5.94.76,1.22,1.15,2.81,1.15,4.61,0,4.86-2.38,10.26-10.77,12.78l-2.41-2.38c4.79-1.08,8.1-3.1,9.54-6.37-.86.65-1.91.97-3.13.97-3.02,0-5.9-2.09-5.9-6.01,0-3.57,2.92-6.27,6.34-6.27.9,0,1.69.14,2.41.39,0-1.08,0-2.38-.04-3.64-5.47.04-11.59.29-16.1.61l-.07-2.77c4-.07,10.77-.29,16.13-.36,0-1.01-.04-1.88-.07-2.38-.04-.94-.18-1.98-.22-2.27h3.28c-.07.4-.14,1.8-.18,2.27ZM439.65,661.79c2.12,0,3.49-1.69,3.17-5.11-.57-1.58-1.8-2.27-3.2-2.27-1.87,0-3.64,1.47-3.64,3.82s1.66,3.56,3.67,3.56Z"/>
          <path d="M466.32,643.71c1.87,0,10.44-.29,12.35-.47,1.08-.07,1.58-.18,1.95-.29l1.66,2.09c-.65.47-1.37.94-2.02,1.48-1.8,1.37-6.7,5.54-9.51,7.89,1.66-.58,3.38-.76,5.01-.76,5.98,0,10.26,3.6,10.26,8.46,0,5.8-4.75,9.54-12.39,9.54-4.9,0-7.89-2.12-7.89-5.11,0-2.48,2.2-4.68,5.55-4.68,4.5,0,6.91,2.95,7.35,6.37,2.88-1.12,4.5-3.21,4.5-6.16,0-3.53-3.39-6.2-8.07-6.2-6.02,0-9.22,2.56-13.79,7.2l-2.05-2.12c2.99-2.45,7.6-6.3,9.69-8.07,2.02-1.66,6.52-5.44,8.35-7.06-1.91.07-9.11.4-11.02.51-.79.04-1.62.11-2.38.22l-.11-2.99c.83.11,1.84.14,2.56.14ZM473.16,669.13c1.04,0,2.02-.07,2.92-.22-.29-2.85-2.09-4.9-4.83-4.9-1.62,0-2.88,1.04-2.88,2.3,0,1.73,1.98,2.81,4.79,2.81Z"/>
          <path d="M499.48,653.36c1.26,1.3,4.57,5.11,5.33,6.09l-1.66,2.2c-.68-1.19-2.3-3.46-3.67-5.22v16.38h-2.52v-17.21c-1.4,4.14-3.28,8.14-5.22,10.59-.29-.76-.97-1.8-1.41-2.45,2.49-2.99,5.04-8.57,6.3-13.54h-5.51v-2.52h5.83v-7.71h2.52v7.71h5.15v2.52h-5.15v3.17ZM522.31,642.09v30.39h-2.63v-2.05h-10.91v2.16h-2.56v-30.5h16.1ZM508.77,644.61v6.01h10.91v-6.01h-10.91ZM508.77,659.27h10.91v-6.2h-10.91v6.2ZM519.68,667.94v-6.23h-10.91v6.23h10.91Z"/>
          <path d="M539.98,648.14h-13.32v-2.2h13.32v2.2ZM538.79,670.79h-8.18v1.66h-2.34v-12.06h10.52v10.41ZM538.75,652.93h-10.44v-2.12h10.44v2.12ZM528.31,655.56h10.44v2.16h-10.44v-2.16ZM538.68,643.38h-10.23v-2.16h10.23v2.16ZM530.62,662.58v6.05h5.87v-6.05h-5.87ZM551.18,659.98c0,1.98,1.26,7.85,8.71,10.62-.5.61-1.26,1.66-1.62,2.27-5.47-2.2-7.88-6.84-8.43-9-.54,2.2-3.06,6.7-9.36,9-.32-.58-1.04-1.62-1.58-2.16,8.36-2.88,9.62-8.68,9.62-10.73v-5.15h2.66v5.15ZM539.76,664.02c1.73-1.26,2.84-3.75,3.35-6.27l2.38.5c-.5,2.7-1.66,5.44-3.6,7.02l-2.12-1.26ZM557.73,655.95c-1.8-1.62-5.22-4.04-8.25-5.94-1.4,2.81-3.78,4.82-7.96,6.23-.29-.65-.97-1.58-1.51-2.09,7.38-2.27,8.39-6.52,8.75-14.15h2.59c-.14,3.02-.39,5.58-1.01,7.74,3.17,1.91,7.09,4.46,9.15,6.19l-1.76,2.02ZM545.71,642.84c-.36,2.38-1.33,4.97-3.03,6.45l-2.05-1.01c1.51-1.22,2.48-3.6,2.85-5.87l2.23.43ZM558.78,643.1c-1.15,2.02-2.49,4.29-3.6,5.72l-1.98-.83c1.04-1.55,2.38-4.03,3.06-5.8l2.52.9ZM553.27,663.77c1.15-1.66,2.59-4.39,3.35-6.27l2.59.9c-1.22,2.16-2.7,4.64-3.93,6.23l-2.02-.87Z"/>
          <path d="M590.1,657.75c-1.87,3.82-4.72,6.77-8.25,9.04,3.82,1.73,8.32,2.88,13.32,3.49-.58.57-1.29,1.76-1.62,2.48-5.44-.76-10.26-2.23-14.37-4.46-4.32,2.23-9.33,3.64-14.51,4.46-.29-.65-1.04-1.84-1.58-2.38,4.9-.69,9.58-1.8,13.54-3.6-2.95-2.02-5.44-4.5-7.27-7.42l.36-.14h-1.55v-2.49h19.63l.54-.11,1.77,1.12ZM566.36,657.57h-2.52v-7.27h5.72c-.43-1.3-1.44-3.28-2.38-4.75l2.3-.65c1.04,1.48,2.12,3.42,2.56,4.72l-2.12.69h15.66c1.19-1.8,2.56-4.29,3.35-6.12l2.7.83c-.97,1.77-2.23,3.71-3.31,5.29h6.16v7.27h-2.63v-4.9h-25.5v4.9ZM592.47,642.02c-7.2,1.51-18.33,2.41-27.66,2.77-.04-.68-.36-1.66-.61-2.27,9.22-.39,20.24-1.33,26.4-2.66l1.87,2.16ZM572.2,659.23c1.73,2.48,4.14,4.54,7.06,6.19,2.81-1.62,5.19-3.64,6.84-6.19h-13.9ZM578.5,650.08c-.22-1.4-.97-3.64-1.8-5.29l2.41-.54c.87,1.66,1.66,3.85,1.91,5.22l-2.52.61Z"/>
          <path d="M610.43,641.04c-1.08,2.7-2.34,5.37-3.82,7.85v23.88h-2.66v-19.73c-1.15,1.62-2.41,3.1-3.64,4.36-.32-.61-1.15-2.02-1.66-2.63,3.67-3.49,7.1-8.97,9.15-14.55l2.63.83ZM631.39,650.62h-4.57v18.58c0,2.02-.57,2.85-1.91,3.24-1.4.43-3.82.47-7.71.43-.14-.68-.65-1.91-1.04-2.63,3.03.11,5.98.11,6.84.07.79-.07,1.12-.29,1.12-1.12v-18.58h-14.51v-2.67h14.51v-7.56h2.7v7.56h4.57v2.67ZM617.09,664.45c-1.08-2.23-3.38-6.09-5.22-8.97l2.3-1.08c1.87,2.77,4.25,6.52,5.4,8.71l-2.49,1.33Z"/>
          <path d="M223.21,817.97c-1.33.47-2.66.94-4,1.4v10.33c0,1.48-.32,2.23-1.29,2.67-.9.4-2.34.47-4.75.43-.07-.65-.47-1.76-.79-2.41,1.62.04,3.1.04,3.57,0,.47,0,.65-.14.65-.69v-9.43c-1.69.58-3.31,1.15-4.75,1.62l-.9-2.74c1.55-.39,3.49-.97,5.65-1.62v-7.99h-5.19v-2.48h5.19v-7.06h2.63v7.06h4v2.48h-4v7.2l3.71-1.12.29,2.34ZM241.9,816.06c-1.33,4.39-3.67,7.81-6.63,10.48,2.59,1.84,5.73,3.17,9.33,3.93-.58.54-1.37,1.66-1.77,2.38-3.78-.94-7.02-2.49-9.72-4.57-3.02,2.16-6.52,3.64-10.19,4.61-.29-.68-.9-1.84-1.44-2.38,3.46-.79,6.77-2.12,9.62-4.03-2.2-2.2-3.93-4.86-5.19-8l1.94-.58h-3.13v-2.45h14.95l.5-.11,1.73.72ZM229.37,805.04c0,3.13-.9,7.06-4.86,9.69-.36-.54-1.3-1.58-1.8-1.91,3.56-2.27,4.14-5.33,4.14-7.82v-3.6h11.81v8.57c0,.83.11.97.76.97h1.94c.69,0,.83-.54.9-4.25.51.43,1.55.83,2.23,1.01-.18,4.36-.83,5.47-2.84,5.47h-2.63c-2.27,0-2.92-.65-2.92-3.17v-6.09h-6.73v1.12ZM228.4,817.9c1.08,2.67,2.7,5.01,4.83,6.95,2.16-1.87,3.96-4.21,5.15-6.95h-9.97Z"/>
          <path d="M257.81,809.54c-3.24,1.04-6.63,2.09-9.33,2.95l-1.04-2.34c2.59-.61,6.37-1.69,10.05-2.7l.32,2.09ZM260.65,828.63c-2.92,1.69-7.42,3.35-10.98,4.32-.47-.5-1.37-1.55-1.98-2.02,3.67-.76,7.99-2.02,10.55-3.46l2.41,1.15ZM256.73,805.62c-1.66-.97-4.97-2.23-7.53-3.03l1.19-1.84c2.48.68,5.8,1.87,7.53,2.77l-1.19,2.09ZM252.23,812.68h23.3v14.44h-23.3v-14.44ZM254.82,816.89h18.04v-2.41h-18.04v2.41ZM254.82,821.1h18.04v-2.48h-18.04v2.48ZM254.82,825.35h18.04v-2.52h-18.04v2.52ZM263.14,804.61c-.9,1.12-1.95,2.16-3.21,3.13-.5-.5-1.37-1.08-2.02-1.33,2.7-1.87,4.5-4.29,5.44-6.45l2.41.39c-.36.76-.76,1.48-1.22,2.23h12.31l.43-.11,1.8.54c-1.01,1.84-2.34,3.86-3.64,5.11l-2.12-.75c.76-.72,1.55-1.73,2.2-2.77h-5.76c.79,2.77,2.81,5.4,10.19,6.48-.5.5-1.12,1.51-1.37,2.16-6.12-1.08-8.75-3.38-10.08-5.98-1.4,2.66-4.07,4.36-9.18,5.37-.21-.58-.83-1.44-1.26-1.91,5.87-1.04,8.03-2.84,8.89-6.12h-3.82ZM268.83,827.58c3.89,1.26,8.17,2.81,10.8,4l-2.95,1.33c-2.23-1.15-6.12-2.67-10.05-3.96l2.2-1.37Z"/>
          <path d="M294.17,800.83c-1.01,2.52-2.27,5.08-3.67,7.42v24.49h-2.52v-20.63c-1.3,1.8-2.63,3.38-4,4.75-.25-.57-1.04-1.98-1.51-2.59,3.64-3.42,7.13-8.75,9.22-14.19l2.48.76ZM316.13,806.62v2.23h-23.26v-2.23h23.26ZM295.43,821.5h18.29v11.24h-2.67v-1.59h-13.04v1.69h-2.59v-11.34ZM313.4,813.79h-17.57v-2.2h17.57v2.2ZM295.82,816.56h17.5v2.16h-17.5v-2.16ZM312.75,803.89h-16.49v-2.2h16.49v2.2ZM298.02,823.66v5.29h13.04v-5.29h-13.04Z"/>
          <path d="M333.34,808.14h-14.19v-2.2h14.19v2.2ZM331.9,830.79h-8.71v1.66h-2.38v-12.06h11.09v10.41ZM320.84,810.8h11.16v2.12h-11.16v-2.12ZM320.84,815.56h11.16v2.16h-11.16v-2.16ZM332.01,803.38h-10.98v-2.16h10.98v2.16ZM323.18,822.58v6.05h6.3v-6.05h-6.3ZM348.46,829.93c1.12,0,1.33-1.12,1.47-5.58.65.5,1.69,1.01,2.45,1.15-.29,5.18-.97,6.95-3.74,6.95h-4.72c-2.92,0-3.74-.9-3.74-4.36v-10.59l-6.91,1.08-.4-2.52,7.31-1.12v-9.47c-1.95.43-3.89.79-5.73,1.08-.11-.61-.54-1.62-.86-2.27,5.26-.9,11.34-2.34,14.73-3.89l2.23,2.09c-2.16.9-4.86,1.69-7.71,2.38v9.65l8.93-1.37.47,2.52-9.4,1.44v11.02c0,1.51.25,1.8,1.44,1.8h4.18Z"/>
          <path d="M372.25,831.22l-1.69-2.67c1.15-.11,2.27-.29,3.1-.47,4.61-1.04,9.15-4.46,9.15-10.7,0-5.44-3.49-9.94-9.61-10.44-.47,3.35-1.15,7.02-2.16,10.37-2.2,7.42-5.04,11.2-8.39,11.2s-6.41-3.67-6.41-9.61c0-7.82,6.95-14.66,15.74-14.66s13.79,5.94,13.79,13.25-4.97,12.61-13.5,13.72ZM362.75,825.21c1.69,0,3.6-2.41,5.44-8.5.9-2.99,1.62-6.41,2.02-9.72-6.91.87-11.16,6.77-11.16,11.67,0,4.54,2.09,6.55,3.71,6.55Z"/>
          <path d="M416.11,807.96c-.76,3.78-2.52,9.58-5.37,13.29-3.28,4.21-7.56,7.56-14.19,9.65l-2.45-2.7c6.99-1.76,11.02-4.82,14.04-8.68,2.56-3.28,4.21-8.28,4.72-11.74h-18.4c-1.44,0-2.66.07-3.6.11v-3.17c1.01.11,2.41.22,3.6.22h18.08c.54,0,1.22,0,1.91-.18l2.2,1.4c-.25.5-.4,1.12-.54,1.8Z"/>
          <path d="M437.71,810.52c0,.68.04,1.69.07,2.92h5.19c.72,0,1.91-.07,2.41-.14v2.85c-.61-.04-1.66-.11-2.34-.11h-5.22c.07,4.54.18,10.45.22,13.83.04,1.55-1.12,2.48-2.7,2.48-1.44,0-3.78-.11-5.22-.21l-.14-2.63c1.44.21,3.31.32,4.39.32.65,0,.97-.4.97-1.04,0-2.27-.04-6.3-.11-10.12-2.45,3.46-7.63,8.03-12.53,10.62l-2.02-2.23c5.4-2.59,10.88-7.35,13.32-11.02h-9.62c-.97,0-1.87.07-2.74.14v-2.88c.83.11,1.8.14,2.66.14h10.84c-.04-1.22-.07-2.23-.11-2.92,0-.72-.11-1.62-.25-2.45h3.06c-.11.79-.14,1.62-.14,2.45Z"/>
          <path d="M454.44,805.51h19.34c.79,0,2.09,0,3.17-.07-.07.9-.07,1.91-.07,2.81v17.75c0,1.15.04,3.96.07,4.36h-3.1c0-.25.04-1.12.04-2.09h-19.66c.04.94.04,1.8.07,2.09h-3.1c.04-.47.11-3.13.11-4.39v-17.72c0-.83,0-1.95-.07-2.81,1.4.04,2.38.07,3.21.07ZM454.22,825.46h19.7v-17.11h-19.7v17.11Z"/>
          <path d="M490.04,814.69h19.73c1.8,0,3.1-.11,3.89-.18v3.53c-.72-.04-2.23-.18-3.85-.18h-19.77c-1.98,0-3.89.07-5,.18v-3.53c1.08.07,2.99.18,5,.18Z"/>
          <path d="M535.7,831.22l-1.69-2.67c1.15-.11,2.27-.29,3.1-.47,4.61-1.04,9.15-4.46,9.15-10.7,0-5.44-3.49-9.94-9.61-10.44-.47,3.35-1.15,7.02-2.16,10.37-2.2,7.42-5.04,11.2-8.39,11.2s-6.41-3.67-6.41-9.61c0-7.82,6.95-14.66,15.74-14.66s13.79,5.94,13.79,13.25-4.97,12.61-13.5,13.72ZM526.19,825.21c1.69,0,3.6-2.41,5.44-8.5.9-2.99,1.62-6.41,2.02-9.72-6.91.87-11.16,6.77-11.16,11.67,0,4.54,2.09,6.55,3.71,6.55Z"/>
          <path d="M568.38,807.74h-11.31v5.04h-2.41v-6.99h13.72v-2.2h-11.67v-2.09h26.14v2.09h-11.88v2.2h13.97v6.99h-2.48v-5.04h-11.49v8.21h-2.59v-8.21ZM581.53,830.39c1.91,0,2.27-.61,2.45-4.21.61.39,1.58.76,2.34.9-.4,4.36-1.22,5.44-4.61,5.44h-8.28c-4.03,0-5.15-.69-5.15-3.56v-1.15h-7.99v1.87h-2.56v-12.5h24.27v10.62h-11.16v1.15c0,1.22.43,1.44,2.7,1.44h7.99ZM558.27,813.32h8.28v1.69h-8.28v-1.69ZM566.55,811.34h-7.6v-1.66h7.6v1.66ZM560.28,819.12v2.48h7.99v-2.48h-7.99ZM568.28,825.86v-2.45h-7.99v2.45h7.99ZM579.4,819.12h-8.57v2.48h8.57v-2.48ZM579.4,825.86v-2.45h-8.57v2.45h8.57ZM580.59,809.69v1.66h-7.71v-1.66h7.71ZM572.88,813.32h8.57v1.69h-8.57v-1.69Z"/>
          <path d="M589.29,806.01h13.32v2.2h-13.32v-2.2ZM601.54,831.18h-8.28v1.62h-2.34v-12.03h10.62v10.41ZM601.43,813.11h-10.44v-2.12h10.44v2.12ZM590.99,815.88h10.44v2.12h-10.44v-2.12ZM601.36,803.38h-10.15v-2.16h10.15v2.16ZM593.26,822.97v6.01h5.94v-6.01h-5.94ZM613.96,812.96v6.01h6.77v13.65h-2.66v-1.58h-10.59v1.8h-2.52v-13.87h6.3v-6.01h-8.39v-2.56h8.39v-5.73c-2.3.29-4.61.51-6.77.69-.07-.65-.47-1.62-.76-2.23,5.4-.54,11.81-1.44,15.41-2.56l1.95,2.16c-2.02.61-4.5,1.12-7.13,1.55v6.12h8.43v2.56h-8.43ZM618.07,821.43h-10.59v7.2h10.59v-7.2Z"/>
          <path d="M219.14,985.57c1.69,2.63,4.83,3.85,8.97,4.04,3.93.14,11.92.04,16.13-.25-.29.65-.76,1.91-.86,2.74-3.93.14-11.31.21-15.27.07-4.68-.18-7.88-1.48-10.19-4.25-1.73,1.51-3.53,3.06-5.44,4.61l-1.44-2.7c1.66-1.08,3.67-2.59,5.47-4.11v-9.11h-5.01v-2.52h7.63v11.49ZM218.39,968.35c-1.15-1.73-3.82-4.1-6.12-5.72l1.95-1.59c2.34,1.51,5.04,3.85,6.27,5.58l-2.09,1.73ZM221.66,984.92c.76-.14,1.58-.32,2.48-.54v-22.87h16.35v13.4h-6.91c.5,1.44,1.19,2.81,1.98,4.07,1.95-1.26,4.25-2.99,5.65-4.25l2.12,1.55c-2.05,1.51-4.5,3.17-6.59,4.32,1.87,2.23,4.25,3.89,7.13,4.82-.58.51-1.33,1.55-1.69,2.27-5.51-2.16-9.11-6.73-11.02-12.78h-4.43v8.86c2.23-.5,4.68-1.08,7.09-1.69l.22,2.34c-4.21,1.08-8.61,2.2-11.92,2.99l-.47-2.48ZM226.74,963.82v3.31h11.16v-3.31h-11.16ZM237.9,972.6v-3.42h-11.16v3.42h11.16Z"/>
          <path d="M279.6,969.69c-.4,15.09-.72,20.09-1.84,21.57-.65.9-1.29,1.19-2.34,1.29-.97.11-2.56.11-4.18,0-.07-.72-.32-1.8-.76-2.48,1.66.18,3.17.18,3.82.18.58,0,.9-.11,1.19-.58.86-1.04,1.26-5.73,1.55-18.8h-5.22c-.4,9.61-1.8,17.36-7.31,22.11-.4-.57-1.33-1.48-1.94-1.87.5-.4.94-.83,1.37-1.3-5.94.72-12.06,1.44-16.35,1.95l-.36-2.34c2.16-.18,4.9-.47,7.89-.79v-3.28h-6.55v-1.98h6.55v-2.74h-7.09v-2.05h7.09v-2.23h-6.41v-7.67h15.56v7.67h-6.7v2.23h7.2v2.05h-7.2v2.74h6.88v1.98h-6.88v2.99c2.34-.25,4.82-.54,7.24-.83l.04,1.26c3.31-4.29,4.29-10.45,4.54-17.9h-4.11v-2.48h4.18c.07-2.56.07-5.29.07-8.1h2.48c0,2.81-.04,5.51-.07,8.1h7.67v1.3ZM251.47,965.15h-4.07v-2.09h4.07v-3.06h2.45v3.06h4.82v-3.06h2.45v3.06h4.25v2.09h-4.25v2.77h-2.45v-2.77h-4.82v2.77h-2.45v-2.77ZM255.11,974.4v-3.75h-4.07v3.75h4.07ZM261.77,970.66h-4.21v3.75h4.21v-3.75Z"/>
        </g>
      </g>
      <rect class="cls-1" width="809.73" height="993.16"/>
    </g>
  </g>
</svg>