<?xml version="1.0" encoding="UTF-8"?>
<svg id="_レイヤー_2" data-name="レイヤー 2" xmlns="http://www.w3.org/2000/svg" viewBox="0 0 360.44 392.67">
  <defs>
    <style>
      .cls-1 {
        fill: #fff;
      }

      .cls-2 {
        fill: #262424;
      }

      .cls-3 {
        fill: #6c5934;
      }

      .cls-4 {
        fill: #527c60;
      }

      .cls-5 {
        fill: #ca683a;
      }
    </style>
  </defs>
  <g id="_背景" data-name="背景">
    <g>
      <path class="cls-5" d="M346.89,69.19c-5.45-3.72-13.26-3.47-19.2-.87-10.28,7.81-18.21,18.21-28.5,25.89-5.33-7.81-12.39-17.47-21.44-20.94-.87-2.11-1.86-4.71-1.36-6.69,15.98-1.36,17.22-18.83,20.94-30.35.49-4.83,1.61-11.4-3.1-14.25-5.82-1.86-10.16,2.97-15.12,4.46-12.02,3.84-14.99,15.73-18.34,25.77-2.6-2.23-6.19-2.97-8.05-5.7,1.73-1.86,3.84-3.35,4.96-5.45,6.19-11.15,13.01-25.89,5.82-38.78-8.67-5.95-18.96.74-25.03,8.05-1.86,1.98-1.73,5.08-3.59,6.69-7.06-4.09-15.98-9.04-24.53-4.46-2.85,3.1-2.97,7.31-3.1,11.65,1.49,6.32,7.81,9.54,12.02,14.62-23.29,1.61-43.86,9.91-62.82,21.93-3.84.87-6.07,6.81-10.28,5.33,1.24-6.57,1.86-14.99-2.23-20.57-3.72-2.73-8.67-2.23-12.51-.37-7.93,3.22-11.65,12.14-13.88,19.57-7.93-6.94-21.06-9.54-30.73-4.46-4.34,2.97-4.46,8.05-3.59,12.51,8.67,16.36,25.9,25.4,43.74,26.27-1.49,3.35-.74,7.43-2.23,10.78-6.57-7.43-17.72-9.54-26.76-5.82-5.58,3.96-15.49,3.96-16.48,12.51,10.04,13.63,29.24,15.61,44.6,11.52l-.5,3.22c-7.43,14.37-14.37,28.99-20.94,43.61v1.86c6.07-1.73,11.27-5.33,16.97-8.05,1.61,2.72,2.11,5.95,3.1,8.92,8.92,11.52,22.05,17.35,31.22,28.99-1.73,2.73-5.08,1.61-7.18,3.1-4.71,1.98-6.07,7.06-6.69,11.65-3.47.49-7.06.49-10.16,1.73-3.47,1.86-6.81,5.33-5.45,9.79,1.98,7.43,9.17,12.26,15.61,15.24,4.34,1.12,8.92.25,12.14-2.73.74-2.48,4.09-4.46,2.23-7.56-.25-2.11,2.11-1.74,3.47-1.74l9.41,14.62c7.31,4.96,18.34,3.84,27.26,2.73,2.6,4.83,1.98,10.9,3.96,16.11,4.21,4.34-1.36,6.19-3.59,9.29-7.19,10.78-5.2,25.28-1.73,37.05l-1.36,1.36c-1.73,0-2.97-.87-4.46-1.36-4.34-.74-9.54-.74-12.88,1.73-1.24,2.73-2.97,5.08-2.23,8.55,2.23,4.58,5.58,7.56,10.16,9.29,8.42,4.46,20.69,3.35,28.13-2.23,2.72-6.19-.62-12.14-3.97-16.85-.62-3.22.74-6.57,2.23-9.41,2.11-4.09,5.95-7.19,10.66-5.82,17.47,7.56,18.21,26.64,21.44,42.37,2.35,5.58,6.19,10.41,7.18,16.48-5.58,0-9.91,3.35-15.61,2.73-4.46,2.48-7.31,6.44-5.82,11.65,1.36,5.7,7.06,6.44,12.02,7.06,8.67-3.84,21.81-3.59,24.53-15.61-2.11-11.52-5.45-24.41-2.23-36.55,1.49-8.8,11.15-10.78,17.35-14.74,8.8-3.22,11.4-11.65,15.61-18.71-1.86-10.9,12.27-5.82,14.74-14.74,1.24-5.82,1.86-13.63-2.23-18.21-3.59.12-5.33,5.45-9.29,5.7-3.35,1.12-6.94.12-9.42-2.23-7.18-11.52-18.83-20.57-30.73-26.27-8.43-8.55-13.63-18.34-21.44-27.26-2.85-4.34,2.85-4.21,3.97-7.06,5.2-1.73,9.66-5.58,14.25-8.55,8.92-6.07,10.28-15.49,19.7-21.31,3.59-6.44,6.19-13.26,10.66-19.2,2.11,1.11,2.23,4.21,4.96,3.96,7.8-5.08,10.28-14,13.38-21.81l20.44-12.51c12.14-8.8,28.99-13.75,35.31-28.99,1.24-11.15-4.34-21.43-13.38-28.12M177.77,236.08c-3.72-2.35-6.81-6.32-11.15-7.18-1.24-1.24-.25-3.72,0-5.33,1.24-2.36,3.84-3.59,5.82-4.96,6.32,2.23,13.13,3.1,20.57,2.73,1.61,3.84.99,8.67,1.73,12.88-4.21,3.97-12.14,1.98-16.97,1.86Z"/>
      <path class="cls-1" d="M254.96,13.44c-1.86,9.79-6.57,18.21-9.79,27.26-4.09,1.98-8.42-.74-12.88-.49,1.36-7.81-11.03-9.54-11.65-17.35,2.6-2.6,4.83.99,7.56.37,4.21,2.6,7.43,7.43,12.51,8.05,2.85-6.94,6.94-13.38,11.65-19.57,1.24-.62,2.23.87,2.6,1.73"/>
      <path class="cls-4" d="M271.94,74.52c-.99.62-2.23.62-3.1,1.36,4.58,1.86,9.66,5.08,13.38,8.92.99,3.59,9.54,7.43,3.1,10.78-.37,9.29,4.21,19.08,12.89,24.03.62,10.66-1.98,20.2-7.06,28.5-5.33,1.12-4.71-5.08-7.19-7.56-5.58-13.26-9.54-27.13-11.52-41.88-4.46-2.73-8.42-5.7-13.38-6.69-7.56,7.06-14.13,15.49-23.29,19.57-35.43-2.73-63.19,13.13-91.43,27.63-8.18,5.33-16.6,10.66-24.04,17.84l8.92-17.84c7.19-7.19,15.24-15.61,24.04-20.44l.5-1.36c17.97-12.64,39.03-17.47,59.35-24.53-17.1-.74-31.47,7.43-46.46,12.88-10.78,4.46-20.2,12.27-30.73,17.47-2.35-4.09-1.24-10.04-.87-14.74,2.48-19.95,19.08-36.42,36.55-45.47,11.77-6.44,25.03-9.66,37.91-13.88,2.23.37,4.96-.5,7.56-.87,21.68.74,44.23,4.58,54.89,26.27"/>
      <path class="cls-1" d="M135.4,62.13c-.74,4.46-4.09,8.92-2.23,13.38l4.46,3.47c-4.34,3.35-5.45,13.5-11.52,10.78-6.69-2.48-14.25-5.58-20.94-9.42-3.1-4.71-9.66-5.82-10.28-11.52,10.78-5.33,19.45,5.08,28.99,8.42,5.82-5.82,1.73-16.11,9.29-20.94,2.97.25,3.22,3.72,2.23,5.82"/>
      <path class="cls-1" d="M204.16,57.67c2.35,1.73-.62,3.47-.87,5.33-5.7,3.22-5.58,9.79-7.19,15.12,1.24,2.85,5.58-1.98,4.46,2.73-3.59,4.58-8.05,8.8-13.88,8.92l-5.7-12.51c-1.61,2.6-2.48,5.33-2.73,8.43l1.73.49c.99,3.35-2.35,5.45-4.46,7.19-3.47-.25-6.19-.74-8.43,2.6-.62.5-.99,1.24-1.73.87-1.49-1.86.74-4.46,1.24-6.69,2.85-.87,3.22-4.34,3.59-7.06l-3.1.37c-.37-3.1,1.86-5.58,4.96-5.7.99-2.11,1.24-4.46,1.73-6.69l-2.72-.5c.99-5.08,6.94-7.18,11.65-8.05,3.1,4.71,3.59,11.4,8.05,14.74l4.46-12.02-5.33-.5c-1.73-2.97,2.85-5.2,4.46-6.69,2.73-1.61,6.44,1.12,9.79-.37"/>
      <path class="cls-3" d="M349.49,86.66c2.35,3.59-.12,7.68-2.23,10.66-13.5,10.9-27.63,20.69-41.88,29.86.74-7.93-1.24-15.73-1.73-23.66,9.79-9.79,19.82-21.06,32.09-25.77,6.81-1.49,11.03,4.46,13.75,8.92"/>
      <path class="cls-4" d="M296.47,109.34c-.12.87.37,1.86-.5,2.23-3.59-3.1-5.7-7.81-6.69-12.51.74-.62,1.86-2.11,2.72-.87l4.46,11.15"/>
      <path class="cls-1" d="M270.57,125.81c1.24,5.58,5.33,10.53,3.1,16.98-3.47,8.8-11.27,17.1-20.44,20.07-4.34.87-10.28-.25-14.25-3.1-7.8-6.69-7.43-17.84-5.82-27.26,1.61-8.05,9.67-13.26,17.35-14.62,7.93-2.97,16.23.49,20.07,7.93"/>
      <path class="cls-2" d="M264.75,130.28c2.36,6.57,1.98,13.63-3.1,18.83-3.84,2.97-8.43,5.7-13.75,3.96-4.83-3.59-5.7-10.16-4.46-16.11,2.11-4.71,6.32-11.15,12.39-11.15,3.1,1.49,7.56.37,8.92,4.46"/>
      <path class="cls-1" d="M179.14,150.35c2.23,6.44-.37,10.41,0,16.97-.87,5.82-4.83,10.66-10.28,13.01-8.18,2.6-16.97,2.36-24.04-2.73-5.08-7.31-8.92-18.09-5.33-26.26,3.34-7.81,12.02-12.27,20.07-13.38,8.05.62,16.11,4.58,19.58,12.39"/>
      <path class="cls-2" d="M164.39,148.12c4.71,5.95,8.05,14.62,4.09,21.93-1.86,2.85-4.71,3.22-7.56,3.59-5.08.12-9.04-3.1-12.14-6.69-3.72-4.09-2.23-8.05-1.24-13.01,2.97-5.58,10.65-9.42,16.85-5.82"/>
      <path class="cls-1" d="M222.87,179.84c1.61,5.82-.74,10.9-3.1,15.61-5.2,6.07-13.13,5.08-19.2,8.92-6.07.37-13.63,3.47-18.71-.87-4.96-3.35-3.84-10.41-2.72-15.24,2.97-10.04,13.75-14.87,23.17-15.98,7.06,1.98,17.84-2.11,20.57,7.56"/>
      <path class="cls-2" d="M207.76,178.97c.74,4.83-4.83,5.58-7.68,7.56-2.35.13-4.83.87-6.19-1.36-.25-3.96,1.11-8.05,5.33-8.92,2.85.37,8.55-2.48,8.55,2.73"/>
      <path class="cls-2" d="M215.31,188.75c-.12.62.25,1.49-.5,1.74l-3.59-1.74c-3.47,3.96-7.68,9.17-12.02,11.15-2.85-2.85-4.83-6.07-5.82-9.79,2.48-.62,4.21,4.83,8.05,3.1,5.08-1.36,8.42-13.38,13.88-4.46"/>
      <path class="cls-3" d="M165.75,214.65c-2.35.25-3.34-2.97-5.33-3.59-.13-.99,1.11-.87,1.73-.87.74,1.61,2.97,2.72,3.59,4.46"/>
      <path class="cls-1" d="M207.76,226.17c-1.24.99-2.11,2.73-3.59,2.73-1.49-2.73-.99-6.81-.5-9.79,1.36,2.36,4.59,3.96,4.09,7.06"/>
      <path class="cls-3" d="M149.77,232.86c-1.11,3.72,2.48,8.92-3.22,9.41-4.46-2.85-9.04-6.69-12.89-10.28.5-1.61.62-3.72,2.73-4.46,4.46,1.61,11.15,0,13.38,5.33"/>
      <path class="cls-1" d="M234.52,276.6c-1.12,1.61-2.6-.99-4.09-.87-6.32-7.18-19.33,2.11-22.3-9.79-1.11-4.09-3.35-7.81-3.1-12.51l11.65-1.36c6.57,7.56,12.76,15.98,17.84,24.53"/>
      <path class="cls-1" d="M285.31,296.3c1.36,1.73,1.36,3.47,0,5.33-10.16,10.9-25.4,14.62-39.65,10.28-5.33-5.33-8.42-12.39-15.61-15.61,14.87-4.58,30.23-3.96,46.34-5.82,4.34-1.36,7.18,2.97,8.92,5.82"/>
      <path class="cls-2" d="M153.09,282.38c1.63,16.1-7.95,34.2-22.27,41.66-14.55,7.37-30,4.48-45.16-.29-12.07-6.26-22.44-16.37-24.55-31.19-3.56-13.78,3.31-30.65,14.27-39.37,6.24-4.27,13.11-7.78,20.28-9.59,15.79-1.87,35.23,3.44,46.06,15.85,6.02,5.83,10.32,14.47,11.37,22.93"/>
      <path class="cls-1" d="M132.6,262.24c-10.62,1.84-15.87,12.3-17.76,21.92-.4,8.45,1.03,19.45,8.54,25.18,1.88-.09,3.64,1.24,5.42-.34-.03-3.45-3.49-5.15-5.03-8.11-4.71-9.31-4.37-20.43,1.54-29.46,2.67-3.23,6.5-4.97,10.34-6.04,9.92,7.43,10.22,21.05,7.62,31.85-4.84,12.87-19.08,20.49-32.19,20.86-13.17-1.24-29.96-5.17-36.78-17.66-4.61-8.88-6.78-17.9-3.56-27.15,4.35-7.36,7.61-15.67,16.16-19.08,14.97-6.02,33.73-3.47,45.69,8.03"/>
      <path class="cls-2" d="M90.29,276.91c-.96,7.84-2.2,18.89-9.74,23.47l-.81-.3c5.21-9.29,7.35-21.33,6.65-31.79-.03-1.33,1.45-1.04,2.22-.62l1.69,9.24"/>
      <path class="cls-2" d="M120.42,387.8l-.69.12c.79-19.88,5.21-39.78,13.16-58.43l1.4-1.14c-1.82,20.06-10.26,39.42-13.87,59.44"/>
      <path class="cls-2" d="M53.49,351.29l-.37-1.31,15.73-28.14,1.31-.37c-3.96,10.13-10.32,21.33-16.67,29.82"/>
      <path class="cls-2" d="M13.26,374.74l-13.26,17.93c13.99-20.9,26.97-44.03,39.72-66.29l15.95-24.26h1.73c-10.61,25.83-28.8,48.62-44.14,72.63"/>
      <path class="cls-2" d="M62.45,363.15c5.11-12.91,11.53-25.58,18.22-38.17,1.36,3.01-2.56,6.08-3.07,9.21l-15.15,28.96"/>
    </g>
  </g>
</svg>