<?xml version="1.0" encoding="UTF-8"?>
<svg id="_レイヤー_2" data-name="レイヤー 2" xmlns="http://www.w3.org/2000/svg" viewBox="0 0 371.37 497.8">
  <defs>
    <style>
      .cls-1 {
        fill: none;
      }

      .cls-2 {
        fill: #fff;
      }

      .cls-3 {
        fill: #262424;
      }

      .cls-4 {
        fill: #d17d3d;
      }
    </style>
  </defs>
  <g id="_背景" data-name="背景">
    <g>
      <g>
        <path class="cls-4" d="M276.56,331.42c-2.48,2.71.9,4.73,0,7.89-2.7,13.76-4.05,28.42-10.82,40.59-2.25,6.32-4.28,12.41-4.28,19.85-5.86,16.01-6.32,34.27-15.55,48.93-1.35,6.77-4.74,12.63-5.64,19.62-4.52,2.26,1.79,4.07.44,6.77,4.51,3.83,11.28,5.86,13.99,11.96-2.48,4.74-6.77,8.12-11.96,9.47-4.96-.22-8.57-3.61-13.99-3.16-4.05-1.35-5.41-4.96-6.32-8.79-.22-14.21,6.55-26.83,8.35-40.59-3.16-9.92-.68-25.03-13.99-27.51-13.74-2.25-27.05-1.57-37.43,7.22-2.7,13.75-16.01,23.9-27.74,30.21-5.64,4.29-13.76,4.06-18.71,9.92-1.59,5.19,2.03,12.86-5.2,16.01-7.66-1.36-10.37-9.02-13.52-15.1.68-7-1.81-14.21,4.29-18.27,12.39,4.96,17.59-9.02,25.02-15.56l4.06-6.09c.68-11.27,1.13-23.68-.46-34.5-1.35-2.03-4.28-.23-5.86-1.59-8.79-4.05-16.92-13.76-16.69-23.45,1.8-2.7,4.74-4.96,8.35-4.06,1.79,1.36,3.83,2.26,5.86,2.71-1.13-5.64-3.23-9.37-5.03-15.68,0,0-3.46-6.91-3.46-36.61s4.87-36.78,4.87-36.78c5.18-9.92,6.09-22.33,6.09-33.83.68-1.12,1.58-2.25,1.58-3.6-9.47-3.39-18.27-9.47-25.93-16.24-11.5-14.21-21.19-31.35-20.29-49.84-.23-21.42,11.51-39.47,16.01-59.31l-.9-1.13c-4.51,3.61-10.37,3.61-14.21,9.47-14.42,2.71-27.96-2.93-42.61-3.16-2.26-2.48-4.5-3.38-6.09-6.32,0-8.79,9.25-10.6,13.99-16.23,10.37-6.09,19.38-18.5,34.71-11.28,3.16,1.58,6.77,3.16,9.92,2.49-9.92-11.5-22.77-21.2-30.22-34.73-2.92-5.87-1.13-13.76,2.26-18.72,11.28-8.8,23.23,4.05,32.7,9.69,3.14-2.25,6.32-5.19,8.34-8.79,3.61-5.41,10.14-8.34,16.24-10.37,3.83,1.13,8.79,1.35,10.37,6.32-1.57,11.95-2.7,24.13-9.02,34.27.9,3.16,4.29,5.87,6.77,7.9,14.2-3.16,29.31-2.71,42.84-4.28,5.19-3.16,3.16-10.37,7.22-14.44-10.37-6.31-25.93-14.88-25.03-29.31.91-3.16,4.96-5.41,7.9-7.22,6.77.68,14.2.45,19.84,4.06,2.72-.45,4.74,1.12,7.23,1.58,4.95-8.34,8.12-22.33,20.74-20.29,2.71.45,4.51,2.93,6.77,4.29,2.94,9.92,3.38,20.07,1.57,30.66-.22,10.6-5.63,19.61-4.05,30.22,3.61-8.34,12.17-10.37,18.72-16.24,10.15-4.06,21.42,1.36,32.7,1.13,4.5,2.93,12.63-.23,14.66,6.77.68,9.47-11.51,7.45-14.66,14.65-4.74,1.13-8.34,5.42-11.95,8.12-6.99,3.16-14.89,7.44-23.45,4.29,1.12,5.41,6.08,10.6,8.34,16.01,3.61,12.63,13.52,24.8,15.55,38.11,2.48,2.25.23,4.27,1.59,6.76,3.16,13.54-.68,25.94-4.74,38.56-9.47,12.18-11.5,28.87-25.48,37.88,6.54,16.24,16.92,30.89,23,47.35,4.06,14.43,10.71,23.6,12.26,37.51,1,9.06.15,23.83.15,23.83"/>
        <path class="cls-2" d="M220.41,42.1c-2.03,8.12-2.7,17.37-3.14,25.48v1.58l-10.83-1.58c-2.03-7.22,6.31-17.14-1.13-23.22-7.21-5.86-16.01-6.99-21.19-15.11,8.57,0,16.24,7.89,26.38,6.76,5.86-5.41,6.98-13.53,11.5-19.84.9,7.89.44,17.36-1.59,25.93"/>
        <path class="cls-2" d="M125.25,62.4c-2.7,6.54,4.28,9.7,6.77,13.08-3.38,2.04-6.99,2.94-9.92,6.32-12.85-12.63-24.8-22.1-33.37-37.43.67-.45.67-1.13.67-1.59,3.61,2.03,8.12,4.07,10.38,7.23,6.54.68,9.7,9.47,17.59,6.76,6.31-5.41,8.12-11.73,14.65-16.69-1.13,6.99-4.05,15.33-6.77,22.33"/>
        <path class="cls-2" d="M255.82,139.07l5.18,12.4c-1.35,10.82-4.05,24.13-15.55,28.19-8.57.68-18.94-1.8-23.01-9.92-2.47-8.57-5.86-19.84-3.16-29.09,3.39-4.28,8.12-9.69,14.21-9.47,4.07-3.6,9.02-.22,12.85,1.13v.46l9.47,6.31"/>
        <path class="cls-3" d="M251.09,148.81c2.7,6.32-.23,12.86-3.83,17.82-.91.23-1.81-.23-2.48-1.12-2.93,4.28-7.66.68-11.51,1.12-5.86-4.06-5.63-9.69-6.76-16.23,0-4.51,1.81-7.9,5.18-10.82,7.21-.46,16.02,2.03,19.4,9.24"/>
        <path class="cls-2" d="M143.52,153.05c9.92,9.7,9.7,23.68,4.06,35.85-3.61,3.16-7.67,6.77-11.95,6.77-7.9,2.03-14.43-4.73-18.72-10.83-3.83-8.11-8.34-16.46-4.29-25.02,4.29-4.28,5.87-10.14,12.63-11.5,6.09,0,14.21-.68,18.27,4.73"/>
        <path class="cls-3" d="M141.67,160.62c3.16,5.41,7.43,11.95,4.28,18.71-2.03,3.83-5.86,4.51-9.02,6.32-4.96-2.25-10.82-1.13-12.41-7.89-2.25-3.61-3.83-8.57-3.16-12.86.23-3.6,4.29-4.51,6.32-6.76,5.19-1.8,9.7.9,13.99,2.48"/>
        <path class="cls-2" d="M219.28,193.64c0,8.12-7.21,13.98-13.52,18.72-10.37,6.09-24.58,6.09-35.86,2.03-3.38-3.83-9.02-4.5-9.25-10.37-2.25-7.44,3.39-12.62,5.19-19.17,7.21-2.47,9.02-10.37,17.14-11.95,6.09-2.48,12.41,1.35,18.27,2.93,6.32,5.41,16.02,9.01,18.03,17.81"/>
        <path class="cls-3" d="M196.96,180.11c1.57,4.73-1.81,9.47-6.09,11.5-5.64.9-9.02-2.93-11.05-7.45-.68-2.03,1.12-3.38.46-5.63,2.7-.68,2.7-4.74,5.86-4.06,4.29.23,8.57,1.36,10.82,5.64"/>
        <path class="cls-3" d="M180.28,197.24c4.73,2.7,9.02,7.22,15.11,4.73,2.92-2.93,4.5-8.57,9.02-8.34-.91,4.51-4.05,9.25-5.87,13.98-3.38,6.54-11.48,1.13-16.68.68-5.86-1.36-6.55-6.76-10.37-10.6-1.59-2.71-3.38-6.55-.45-9.7,1.35-1.58,2.48.68,4.06,0l5.18,9.24"/>
        <path class="cls-2" d="M156.81,341.61c-3.04-14.87-.79-19.58-1.92-30.19-.8-12.49.75-24.92,2.13-35.98,4.74-14.65,5.45-24.97,8.15-40.09,12.4-.68,21.41-5.41,33.36-4.73,11.51-2.48,22.33-1.58,33.39-4.74.66,3.16,4.95,6.31,4.05,9.92,5.19,12.18,12.63,23.23,16.24,35.86,6.76,10.37,9.92,22.78,13.52,33.82-2.7,2.72-1.58,5.64-1.13,8.8.45,6.55,1.8,14.43-.9,20.3l.9,6.32c-3.38,11.28-3.38,23.9-9.91,33.82-2.72,9.92-6.32,19.62-12.86,28.19-12.85,4.29-26.39-3.83-40.59-1.13-12.41-4.96-25.26-9.47-34.51-20.75-5.19-8.57-10.63-13.01-9.96-24.06l.02-15.36"/>
        <path class="cls-4" d="M318.3,174.48c-.78-.51-1.75-1.34-2.03-2.57-.27-1.19.29-1.93,1.39-4.44,1.84-4.23,1.95-6.04,1.94-6.93,0-1.11-.02-2.5-.95-3.16-1.1-.78-2.81-.06-3.21.11-2.54,1.08-3.01,3.34-5.27,6.93-.84,1.33-.51.61-5.82,7.21-2.19,2.72-3.99,5.01-5.27,6.66-1.48,2.1-2.96,4.23-4.44,6.38-1.41,2.04-2.79,4.08-4.16,6.1-1.25,1.52-2.59,3.36-3.88,5.55-1.49,2.52-2.56,4.89-3.33,6.93-1.76,2.47-3.52,4.97-5.29,7.51-2.2,3.16-4.34,6.3-6.43,9.41-1.81,2.41-3.9,4.99-6.3,7.69-1.53,1.72-4.33,4.78-8.13,8.34-3.04,2.85-6.92,6.2-11.67,9.7,3.92,3.73,7.84,7.46,11.76,11.19.61-.49,15.56-12.53,22.11-18.02,3.67-3.08,6.08-7.01,7.15-11.36,3.97-2.36,2.33-7.55,6.49-9.66,2.63-7.42,6.18-14.5,9.38-21.75,2.1-.01,7.18-.32,12.27-3.7,3.78-2.51,5.9-5.6,6.93-7.38.27-.5,1.51-2.88.7-5.85-.88-3.22-3.49-4.66-3.94-4.9Z"/>
        <path class="cls-4" d="M146.9,279.27c-.95,1.63-4.45,7.58-9.43,15.25-2.74,4.23-6.07,9.19-9.98,14.7-1.47,2.47-3.74,5.7-7.13,8.9-3.16,2.99-6.28,5-8.71,6.32-3.28,2.44-6.36,4.84-9.5,7.18-.42.96-.84,1.92-1.26,2.88-2.24,2.26-5.02,4.76-8.45,7.27-3.87,2.84-7.65,5.04-10.97,6.72-2.44-.22-4.23-1.84-5.3-3.55-3.08-4.79,8.04-7.16.38-9.96-3.01.21-5.18-1.12-7.34-2.45-2.19-2.94-1.83-6.94-.82-10.23,6.72-4.56,15.75-3.43,24.06-1.58,3-1.29,6.2-2.8,9.52-4.58,2.91-1.56,5.59-3.15,8.04-4.71,1.75-2.04,3.51-4.07,5.27-6.1,1.75-2.03,3.51-4.05,5.26-6.07,3.24-4.66,6.48-9.38,9.71-14.18,6.24-9.24,12.24-18.4,18.03-27.46,2.06,2.69,4.11,5.38,6.17,8.07-1.97,3.72-4.5,8.33-7.56,13.56Z"/>
      </g>
      <rect class="cls-1" width="371.37" height="497.8"/>
    </g>
  </g>
</svg>