<?xml version="1.0" encoding="UTF-8"?>
<svg id="_レイヤー_2" data-name="レイヤー 2" xmlns="http://www.w3.org/2000/svg" viewBox="0 0 809.73 993.16">
  <defs>
    <style>
      .cls-1, .cls-2 {
        fill: none;
      }

      .cls-2 {
        stroke: #5b9843;
        stroke-miterlimit: 10;
        stroke-width: 2px;
      }

      .cls-3 {
        fill: #5b9843;
      }
    </style>
  </defs>
  <g id="_背景" data-name="背景">
    <g>
      <g>
        <line class="cls-2" x1="157.2" y1="14.54" x2="157.2" y2="982.33"/>
        <g>
          <path d="M0,18.68C0,11.03,2.79,6.93,7.33,6.93s7.3,4.13,7.3,11.75-2.75,11.91-7.3,11.91S0,26.33,0,18.68ZM11.78,18.68c0-6.69-1.79-9.41-4.45-9.41s-4.48,2.72-4.48,9.41,1.79,9.57,4.48,9.57,4.45-2.88,4.45-9.57Z"/>
          <path d="M17.63,24.35c0-2.98,2.18-5.03,4.32-6.18v-.13c-1.7-1.15-3.17-2.85-3.17-5.28,0-3.49,2.79-5.83,6.43-5.83,4,0,6.44,2.5,6.44,6.05,0,2.4-1.76,4.45-3.14,5.51v.16c2.02,1.22,3.97,2.82,3.97,5.86,0,3.43-2.95,6.08-7.36,6.08s-7.49-2.62-7.49-6.24ZM29.7,24.45c0-2.98-2.88-4.04-6.21-5.35-1.86,1.19-3.2,2.88-3.2,5,0,2.5,2.08,4.32,4.9,4.32s4.51-1.63,4.51-3.97ZM29.16,13.14c0-2.24-1.44-4.04-3.97-4.04-2.18,0-3.75,1.44-3.75,3.65,0,2.75,2.53,3.9,5.28,4.99,1.57-1.41,2.43-2.91,2.43-4.61Z"/>
          <path d="M36.29,15.48c0-1.34.96-2.27,2.11-2.27s2.11.93,2.11,2.27-.96,2.21-2.11,2.21-2.11-.93-2.11-2.21ZM36.29,28.38c0-1.35.96-2.27,2.11-2.27s2.11.93,2.11,2.27-.96,2.21-2.11,2.21-2.11-.89-2.11-2.21Z"/>
          <path d="M44.26,28.45c6.88-6.85,10.76-10.95,10.76-14.69,0-2.59-1.41-4.45-4.32-4.45-1.92,0-3.59,1.22-4.87,2.72l-1.7-1.63c1.92-2.08,3.94-3.46,6.91-3.46,4.19,0,6.82,2.66,6.82,6.69,0,4.29-3.9,8.55-9.31,14.25,1.21-.1,2.62-.23,3.84-.23h6.63v2.53h-14.76v-1.73Z"/>
          <path d="M62.18,18.68c0-7.65,2.79-11.75,7.33-11.75s7.3,4.13,7.3,11.75-2.75,11.91-7.3,11.91-7.33-4.26-7.33-11.91ZM73.96,18.68c0-6.69-1.79-9.41-4.45-9.41s-4.48,2.72-4.48,9.41,1.79,9.57,4.48,9.57,4.45-2.88,4.45-9.57Z"/>
          <path class="cls-3" d="M158.37,3.61c7.97,0,14.41,6.43,14.41,14.4s-6.43,14.41-14.41,14.41-14.4-6.44-14.4-14.41,6.43-14.4,14.4-14.4Z"/>
          <path d="M0,178.68c0-7.65,2.79-11.75,7.33-11.75s7.3,4.13,7.3,11.75-2.75,11.91-7.3,11.91-7.33-4.26-7.33-11.91ZM11.78,178.68c0-6.69-1.79-9.41-4.45-9.41s-4.48,2.72-4.48,9.41,1.79,9.57,4.48,9.57,4.45-2.88,4.45-9.57Z"/>
          <path d="M17.63,184.35c0-2.98,2.18-5.03,4.32-6.18v-.13c-1.7-1.15-3.17-2.85-3.17-5.28,0-3.49,2.79-5.83,6.43-5.83,4,0,6.44,2.5,6.44,6.05,0,2.4-1.76,4.45-3.14,5.51v.16c2.02,1.22,3.97,2.82,3.97,5.86,0,3.43-2.95,6.08-7.36,6.08s-7.49-2.62-7.49-6.24ZM29.7,184.45c0-2.98-2.88-4.04-6.21-5.35-1.86,1.19-3.2,2.88-3.2,5,0,2.5,2.08,4.32,4.9,4.32s4.51-1.63,4.51-3.97ZM29.16,173.14c0-2.24-1.44-4.04-3.97-4.04-2.18,0-3.75,1.44-3.75,3.65,0,2.75,2.53,3.9,5.28,4.99,1.57-1.41,2.43-2.91,2.43-4.61Z"/>
          <path d="M36.29,175.48c0-1.34.96-2.27,2.11-2.27s2.11.93,2.11,2.27-.96,2.21-2.11,2.21-2.11-.93-2.11-2.21ZM36.29,188.38c0-1.35.96-2.27,2.11-2.27s2.11.93,2.11,2.27-.96,2.21-2.11,2.21-2.11-.89-2.11-2.21Z"/>
          <path d="M53.73,183.87h-10.24v-1.92l9.76-14.6h3.23v14.18h3.11v2.34h-3.11v6.31h-2.75v-6.31ZM53.73,181.53v-6.69c0-1.18.1-3.14.16-4.35h-.13c-.58,1.09-1.22,2.08-1.89,3.2l-5.35,7.84h7.2Z"/>
          <path d="M62.18,178.68c0-7.65,2.79-11.75,7.33-11.75s7.3,4.13,7.3,11.75-2.75,11.91-7.3,11.91-7.33-4.26-7.33-11.91ZM73.96,178.68c0-6.69-1.79-9.41-4.45-9.41s-4.48,2.72-4.48,9.41,1.79,9.57,4.48,9.57,4.45-2.88,4.45-9.57Z"/>
          <path class="cls-3" d="M158.37,163.61c7.97,0,14.41,6.43,14.41,14.4s-6.43,14.41-14.41,14.41-14.4-6.44-14.4-14.41,6.43-14.4,14.4-14.4Z"/>
          <path d="M0,338.68c0-7.65,2.79-11.75,7.33-11.75s7.3,4.13,7.3,11.75-2.75,11.91-7.3,11.91-7.33-4.26-7.33-11.91ZM11.78,338.68c0-6.69-1.79-9.41-4.45-9.41s-4.48,2.72-4.48,9.41,1.79,9.57,4.48,9.57,4.45-2.88,4.45-9.57Z"/>
          <path d="M18.05,348.19l1.63-1.83c.9,1.12,2.3,1.79,3.74,1.79,3.2,0,5.92-2.5,6.05-9.79-1.47,1.82-3.49,2.95-5.35,2.95-3.97,0-6.53-2.4-6.53-7.08,0-4.35,3.07-7.3,6.72-7.3,4.51,0,7.88,3.65,7.88,10.98,0,9.16-4.13,12.68-8.68,12.68-2.43,0-4.22-1.02-5.47-2.4ZM24.61,339.13c1.47,0,3.33-.93,4.8-3.1-.38-4.42-2.18-6.79-5.09-6.79-2.24,0-3.97,1.98-3.97,4.99s1.41,4.9,4.26,4.9Z"/>
          <path d="M36.29,335.48c0-1.34.96-2.27,2.11-2.27s2.11.93,2.11,2.27-.96,2.21-2.11,2.21-2.11-.93-2.11-2.21ZM36.29,348.38c0-1.35.96-2.27,2.11-2.27s2.11.93,2.11,2.27-.96,2.21-2.11,2.21-2.11-.89-2.11-2.21Z"/>
          <path d="M44.42,338.68c0-7.65,2.79-11.75,7.33-11.75s7.3,4.13,7.3,11.75-2.75,11.91-7.3,11.91-7.33-4.26-7.33-11.91ZM56.2,338.68c0-6.69-1.79-9.41-4.45-9.41s-4.48,2.72-4.48,9.41,1.79,9.57,4.48,9.57,4.45-2.88,4.45-9.57Z"/>
          <path d="M62.18,338.68c0-7.65,2.79-11.75,7.33-11.75s7.3,4.13,7.3,11.75-2.75,11.91-7.3,11.91-7.33-4.26-7.33-11.91ZM73.96,338.68c0-6.69-1.79-9.41-4.45-9.41s-4.48,2.72-4.48,9.41,1.79,9.57,4.48,9.57,4.45-2.88,4.45-9.57Z"/>
          <path class="cls-3" d="M158.37,323.61c7.97,0,14.41,6.43,14.41,14.4s-6.43,14.41-14.41,14.41-14.4-6.44-14.4-14.41,6.43-14.4,14.4-14.4Z"/>
          <path d="M1.25,507.74h5.22v-16.84H2.3v-1.89c2.08-.35,3.59-.9,4.87-1.67h2.24v20.39h4.71v2.43H1.25v-2.43Z"/>
          <path d="M17.6,508.45c6.88-6.85,10.76-10.95,10.76-14.69,0-2.59-1.41-4.45-4.32-4.45-1.92,0-3.59,1.22-4.87,2.72l-1.7-1.63c1.92-2.08,3.94-3.46,6.91-3.46,4.19,0,6.82,2.66,6.82,6.69,0,4.29-3.9,8.55-9.31,14.25,1.21-.1,2.62-.23,3.84-.23h6.63v2.53h-14.76v-1.73Z"/>
          <path d="M36.29,495.48c0-1.34.96-2.27,2.11-2.27s2.11.93,2.11,2.27-.96,2.21-2.11,2.21-2.11-.93-2.11-2.21ZM36.29,508.38c0-1.35.96-2.27,2.11-2.27s2.11.93,2.11,2.27-.96,2.21-2.11,2.21-2.11-.89-2.11-2.21Z"/>
          <path d="M44.42,498.68c0-7.65,2.79-11.75,7.33-11.75s7.3,4.13,7.3,11.75-2.75,11.91-7.3,11.91-7.33-4.26-7.33-11.91ZM56.2,498.68c0-6.69-1.79-9.41-4.45-9.41s-4.48,2.72-4.48,9.41,1.79,9.57,4.48,9.57,4.45-2.88,4.45-9.57Z"/>
          <path d="M62.18,498.68c0-7.65,2.79-11.75,7.33-11.75s7.3,4.13,7.3,11.75-2.75,11.91-7.3,11.91-7.33-4.26-7.33-11.91ZM73.96,498.68c0-6.69-1.79-9.41-4.45-9.41s-4.48,2.72-4.48,9.41,1.79,9.57,4.48,9.57,4.45-2.88,4.45-9.57Z"/>
          <path class="cls-3" d="M158.37,483.61c7.97,0,14.41,6.43,14.41,14.4s-6.43,14.41-14.41,14.41-14.4-6.44-14.4-14.41,6.43-14.4,14.4-14.4Z"/>
          <path d="M1.25,667.74h5.22v-16.84H2.3v-1.89c2.08-.35,3.59-.9,4.87-1.67h2.24v20.39h4.71v2.43H1.25v-2.43Z"/>
          <path d="M17.12,667.39l1.47-1.92c1.38,1.44,3.17,2.69,5.83,2.69s4.77-1.63,4.77-4.19c0-2.72-1.89-4.52-7.3-4.52v-2.24c4.83,0,6.5-1.89,6.5-4.29,0-2.21-1.54-3.62-3.97-3.62-1.89,0-3.55.96-4.87,2.3l-1.57-1.83c1.76-1.66,3.84-2.85,6.56-2.85,3.94,0,6.82,2.08,6.82,5.79,0,2.75-1.7,4.52-4.16,5.41v.13c2.75.67,4.96,2.69,4.96,5.83,0,4.06-3.36,6.5-7.52,6.5-3.68,0-5.99-1.54-7.52-3.2Z"/>
          <path d="M36.29,655.48c0-1.34.96-2.27,2.11-2.27s2.11.93,2.11,2.27-.96,2.21-2.11,2.21-2.11-.93-2.11-2.21ZM36.29,668.38c0-1.35.96-2.27,2.11-2.27s2.11.93,2.11,2.27-.96,2.21-2.11,2.21-2.11-.89-2.11-2.21Z"/>
          <path d="M44.42,658.68c0-7.65,2.79-11.75,7.33-11.75s7.3,4.13,7.3,11.75-2.75,11.91-7.3,11.91-7.33-4.26-7.33-11.91ZM56.2,658.68c0-6.69-1.79-9.41-4.45-9.41s-4.48,2.72-4.48,9.41,1.79,9.57,4.48,9.57,4.45-2.88,4.45-9.57Z"/>
          <path d="M62.18,658.68c0-7.65,2.79-11.75,7.33-11.75s7.3,4.13,7.3,11.75-2.75,11.91-7.3,11.91-7.33-4.26-7.33-11.91ZM73.96,658.68c0-6.69-1.79-9.41-4.45-9.41s-4.48,2.72-4.48,9.41,1.79,9.57,4.48,9.57,4.45-2.88,4.45-9.57Z"/>
          <path class="cls-3" d="M158.37,643.61c7.97,0,14.41,6.43,14.41,14.4s-6.43,14.41-14.41,14.41-14.4-6.44-14.4-14.41,6.43-14.4,14.4-14.4Z"/>
          <path d="M1.25,827.74h5.22v-16.84H2.3v-1.89c2.08-.35,3.59-.9,4.87-1.67h2.24v20.39h4.71v2.43H1.25v-2.43Z"/>
          <path d="M17.09,827.48l1.44-1.92c1.34,1.35,3.04,2.59,5.76,2.59s4.99-2.02,4.99-5.19-1.92-5.06-4.87-5.06c-1.57,0-2.56.51-3.9,1.41l-1.57-.99.74-10.98h11.43v2.5h-8.87l-.58,6.82c1.06-.57,2.08-.96,3.49-.96,3.91,0,7.08,2.24,7.08,7.17s-3.71,7.71-7.68,7.71c-3.65,0-5.89-1.54-7.46-3.11Z"/>
          <path d="M36.29,815.48c0-1.34.96-2.27,2.11-2.27s2.11.93,2.11,2.27-.96,2.21-2.11,2.21-2.11-.93-2.11-2.21ZM36.29,828.38c0-1.35.96-2.27,2.11-2.27s2.11.93,2.11,2.27-.96,2.21-2.11,2.21-2.11-.89-2.11-2.21Z"/>
          <path d="M44.42,818.68c0-7.65,2.79-11.75,7.33-11.75s7.3,4.13,7.3,11.75-2.75,11.91-7.3,11.91-7.33-4.26-7.33-11.91ZM56.2,818.68c0-6.69-1.79-9.41-4.45-9.41s-4.48,2.72-4.48,9.41,1.79,9.57,4.48,9.57,4.45-2.88,4.45-9.57Z"/>
          <path d="M62.18,818.68c0-7.65,2.79-11.75,7.33-11.75s7.3,4.13,7.3,11.75-2.75,11.91-7.3,11.91-7.33-4.26-7.33-11.91ZM73.96,818.68c0-6.69-1.79-9.41-4.45-9.41s-4.48,2.72-4.48,9.41,1.79,9.57,4.48,9.57,4.45-2.88,4.45-9.57Z"/>
          <path class="cls-3" d="M158.37,803.61c7.97,0,14.41,6.43,14.41,14.4s-6.43,14.41-14.41,14.41-14.4-6.44-14.4-14.41,6.43-14.4,14.4-14.4Z"/>
          <path d="M1.25,987.74h5.22v-16.84H2.3v-1.89c2.08-.35,3.59-.9,4.87-1.67h2.24v20.39h4.71v2.43H1.25v-2.43Z"/>
          <path d="M29.12,969.85h-11.37v-2.5h14.69v1.79c-5.38,6.91-6.53,12.13-6.88,21.03h-3.04c.38-8.61,2.11-14.05,6.6-20.33Z"/>
          <path d="M36.29,975.48c0-1.34.96-2.27,2.11-2.27s2.11.93,2.11,2.27-.96,2.21-2.11,2.21-2.11-.93-2.11-2.21ZM36.29,988.38c0-1.35.96-2.27,2.11-2.27s2.11.93,2.11,2.27-.96,2.21-2.11,2.21-2.11-.89-2.11-2.21Z"/>
          <path d="M45.66,987.74h5.22v-16.84h-4.16v-1.89c2.08-.35,3.59-.9,4.87-1.67h2.24v20.39h4.71v2.43h-12.87v-2.43Z"/>
          <path d="M62.18,978.68c0-7.65,2.79-11.75,7.33-11.75s7.3,4.13,7.3,11.75-2.75,11.91-7.3,11.91-7.33-4.26-7.33-11.91ZM73.96,978.68c0-6.69-1.79-9.41-4.45-9.41s-4.48,2.72-4.48,9.41,1.79,9.57,4.48,9.57,4.45-2.88,4.45-9.57Z"/>
          <path class="cls-3" d="M158.37,963.61c7.97,0,14.41,6.43,14.41,14.4s-6.43,14.41-14.41,14.41-14.4-6.44-14.4-14.41,6.43-14.4,14.4-14.4Z"/>
        </g>
        <g>
          <path d="M241.69,18v14.77h-2.74v-2.16h-22.47v2.23h-2.66v-14.84h2.66v9.98h9.62v-12.28h-10.91V3.38h2.67v9.72h8.25V.18h2.74v12.93h8.64V3.38h2.77v12.31h-11.42v12.28h10.12v-9.98h2.74Z"/>
          <path d="M279.6,9.69c-.4,15.09-.72,20.09-1.84,21.57-.65.9-1.29,1.19-2.34,1.29-.97.11-2.56.11-4.18,0-.07-.72-.32-1.8-.76-2.48,1.66.18,3.17.18,3.82.18.58,0,.9-.11,1.19-.58.86-1.04,1.26-5.73,1.55-18.8h-5.22c-.4,9.61-1.8,17.36-7.31,22.11-.4-.57-1.33-1.48-1.94-1.87.5-.4.94-.83,1.37-1.3-5.94.72-12.06,1.44-16.35,1.95l-.36-2.34c2.16-.18,4.9-.47,7.89-.79v-3.28h-6.55v-1.98h6.55v-2.74h-7.09v-2.05h7.09v-2.23h-6.41v-7.67h15.56v7.67h-6.7v2.23h7.2v2.05h-7.2v2.74h6.88v1.98h-6.88v2.99c2.34-.25,4.82-.54,7.24-.83l.04,1.26c3.31-4.29,4.29-10.45,4.54-17.9h-4.11v-2.48h4.18c.07-2.56.07-5.29.07-8.1h2.48c0,2.81-.04,5.51-.07,8.1h7.67v1.3ZM251.47,5.15h-4.07v-2.09h4.07V0h2.45v3.06h4.82V0h2.45v3.06h4.25v2.09h-4.25v2.77h-2.45v-2.77h-4.82v2.77h-2.45v-2.77ZM255.11,14.4v-3.75h-4.07v3.75h4.07ZM261.77,10.66h-4.21v3.75h4.21v-3.75Z"/>
          <path d="M220.87,186.65v6.12h-2.59v-6.12h-7.06v-2.41h7.06v-2.88h-5.62v-12.1h5.62v-2.88h-6.62v-2.38h6.62v-4.03h2.59v4.03h6.95v2.38h-6.95v2.88h5.9v12.1h-5.9v2.88h7.02v2.41h-7.02ZM215.07,174.3h9.26v-2.99h-9.26v2.99ZM215.07,179.27h9.26v-2.99h-9.26v2.99ZM242.59,189.53c0,1.55-.36,2.38-1.37,2.85-.97.43-2.56.47-5.19.43-.14-.65-.47-1.91-.87-2.59,1.87.07,3.6.07,4.07.04.54-.04.76-.18.76-.76v-8.28h-8.03c-.58,4.21-1.94,8.53-5.15,11.7-.4-.47-1.48-1.26-2.05-1.55,4.57-4.54,5.04-11.2,5.04-16.46v-13.22h12.78v27.84ZM239.99,178.72v-6.05h-7.63v2.23c0,1.19-.04,2.48-.14,3.82h7.78ZM232.36,164.14v6.09h7.63v-6.09h-7.63Z"/>
          <path d="M261.8,167.6c-1.15,2.74-2.81,5.33-4.68,7.67,1.73,1.44,4.97,4.29,5.87,5.12l-1.66,2.2c-.97-1.19-3.17-3.38-4.9-5.01v15.27h-2.59v-14.01c-1.91,1.88-3.96,3.46-5.94,4.72-.29-.72-.97-1.95-1.4-2.45,4.54-2.52,9.25-7.06,11.85-11.96h-10.59v-2.45h6.09v-6.7h2.59v6.7h3.38l.47-.11,1.51,1.01ZM275.56,189.85c1.73,0,2.02-1.4,2.27-6.84.68.5,1.73,1.01,2.52,1.15-.4,6.16-1.12,8.28-4.61,8.28h-6.27c-3.46,0-4.5-1.04-4.5-4.97v-26.83h2.74v26.9c0,1.91.32,2.3,2.05,2.3h5.8Z"/>
          <path d="M223.54,337.97c-1.48.47-2.95.94-4.43,1.33v10.16c0,1.51-.36,2.23-1.33,2.63-.9.43-2.38.5-4.86.5-.11-.68-.47-1.77-.83-2.48,1.73.07,3.28.04,3.71.04.5,0,.68-.18.68-.68v-9.36l-4.72,1.4-.79-2.59c1.51-.36,3.42-.9,5.51-1.48v-7.71h-5.08v-2.52h5.08v-7.2h2.63v7.2h4.36v2.52h-4.36v7.02c1.33-.4,2.7-.83,4.07-1.22l.36,2.45ZM243.85,348.92v2.52h-21.64v-2.52h21.64ZM241.22,344.31h-16.35v-21.75h16.35v21.75ZM238.55,325.08h-11.09v7.02h11.09v-7.02ZM238.55,334.62h-11.09v7.16h11.09v-7.16Z"/>
          <path d="M265.05,332.64h11.74v20.24h-2.77v-1.58h-24.09v-2.63h24.09v-5.58h-22.22v-2.59h22.22v-5.22h-23.41v-2.63h11.56v-12.68h2.88v12.68ZM254.71,330.84c-.76-2.3-2.7-5.8-4.57-8.32l2.34-.97c2.02,2.52,3.96,5.91,4.79,8.18l-2.56,1.12ZM277.25,322.2c-1.51,3.06-3.53,6.55-5.15,8.89l-2.3-.94c1.58-2.34,3.56-6.16,4.64-8.93l2.81.97Z"/>
          <path d="M289.16,326.23h19.81c1.08,0,2.2-.11,3.06-.22v3.17c-.9-.11-2.05-.14-3.06-.14h-8.64v16.56h10.59c1.08,0,2.05-.11,2.99-.22v3.28c-.97-.14-2.27-.14-2.99-.14h-23.8c-.97,0-2.05.04-3.17.14v-3.28c1.08.14,2.2.22,3.17.22h10.16v-16.56h-8.1c-.68,0-2.12.04-3.03.14v-3.17c.94.14,2.3.22,3.03.22Z"/>
          <path d="M324.7,325.65v12.03c0,.9.07,2.09.14,2.74h-3.31c.07-.54.18-1.69.18-2.77v-11.99c0-.65-.07-1.91-.14-2.59h3.28c-.07.68-.14,1.73-.14,2.59ZM341.44,325.91v5.83c0,8.64-1.19,11.49-3.78,14.59-2.34,2.81-5.94,4.36-8.57,5.26l-2.34-2.49c3.31-.83,6.37-2.27,8.61-4.79,2.56-2.99,2.99-5.9,2.99-12.71v-5.69c0-1.23-.07-2.23-.18-3.13h3.38c-.07.9-.11,1.91-.11,3.13Z"/>
          <path d="M376.94,327.06c-1.44,2.45-4.86,7.09-8.97,9.94l-2.38-1.91c3.31-1.91,6.7-5.83,7.89-8.07h-20.53c-1.33,0-2.7.07-4.11.22v-3.28c1.26.18,2.77.32,4.11.32h20.67c.69,0,1.98-.11,2.52-.22l1.76,1.69c-.25.36-.72.9-.97,1.3ZM353.5,351.44l-2.67-2.16c1.01-.32,2.23-.9,3.24-1.62,5.58-3.42,6.37-8.54,6.37-14.55,0-.87-.04-1.66-.14-2.59h3.24c0,9.76-.87,16.35-10.05,20.92Z"/>
          <path d="M397.81,351.22l-1.69-2.67c1.15-.11,2.27-.29,3.1-.47,4.61-1.04,9.15-4.46,9.15-10.7,0-5.44-3.49-9.94-9.61-10.44-.47,3.35-1.15,7.02-2.16,10.37-2.2,7.42-5.04,11.2-8.39,11.2s-6.41-3.67-6.41-9.61c0-7.82,6.95-14.66,15.74-14.66s13.79,5.94,13.79,13.25-4.97,12.61-13.5,13.72ZM388.31,345.21c1.69,0,3.6-2.41,5.44-8.5.9-2.99,1.62-6.41,2.02-9.72-6.91.87-11.16,6.77-11.16,11.67,0,4.54,2.09,6.55,3.71,6.55Z"/>
          <path d="M435.47,344.05c3.38,2.59,8.61,4.82,13.14,5.94-.58.54-1.33,1.51-1.73,2.2-4.65-1.37-10.08-4.07-13.76-7.17v7.78h-2.63v-7.71c-3.67,3.13-9.08,5.91-13.65,7.35-.4-.68-1.19-1.69-1.77-2.2,4.54-1.15,9.76-3.53,13.18-6.19h-12.32v-2.2h14.55v-2.23h-10.19v-10.59c-1.04,1.12-2.16,2.23-3.38,3.24-.43-.61-1.33-1.4-1.91-1.76,4-3.13,6.91-7.35,8.5-10.59l2.77.54c-.65,1.22-1.41,2.48-2.27,3.78h6.95c.72-1.37,1.48-3.06,1.87-4.29l2.99.43c-.72,1.33-1.47,2.7-2.16,3.86h11.81v2.12h-11.74v2.41h10.34v1.91h-10.34v2.38h10.44v1.91h-10.44v2.48h13.14v2.16h-13.76v2.23h14.76v2.2h-12.42ZM431.19,326.37h-8.39v2.41h8.39v-2.41ZM431.19,330.7h-8.39v2.38h8.39v-2.38ZM422.8,337.46h8.39v-2.48h-8.39v2.48Z"/>
          <path d="M469.13,349.31h14.08v2.38h-30.54v-2.38h13.68v-8.89h-12.06v-2.34h12.06v-4.83h-7.42v-2.05c-1.87,1.37-3.89,2.66-5.94,3.75-.29-.61-1.04-1.55-1.62-2.09,6.19-3.13,12.1-8.43,14.91-12.93h2.66c3.82,5.15,10.05,9.97,15.63,12.46-.65.68-1.29,1.59-1.73,2.38-1.98-1.01-4.03-2.3-6.01-3.74v2.23h-7.71v4.83h12.35v2.34h-12.35v8.89ZM459.45,341.39c1.48,1.98,2.92,4.64,3.42,6.45l-2.3,1.01c-.47-1.8-1.87-4.57-3.28-6.62l2.16-.83ZM476.62,330.88c-3.53-2.56-6.77-5.55-8.86-8.36-1.87,2.7-4.9,5.69-8.43,8.36h17.29ZM472.12,347.94c1.3-1.76,2.95-4.61,3.85-6.62l2.52.97c-1.33,2.27-3.02,4.86-4.39,6.55l-1.98-.9Z"/>
          <path d="M507.65,344.31c3.28,2.59,8.25,4.72,12.86,5.69-.61.58-1.44,1.62-1.8,2.38-4.83-1.37-10.08-4.07-13.54-7.38v7.85h-2.63v-7.67c-3.46,3.13-8.71,5.72-13.43,7.09-.36-.68-1.15-1.69-1.73-2.27,4.46-1.01,9.47-3.17,12.71-5.69h-11.78v-2.27h14.22v-2.67h-10.84v-2.05h10.84v-2.63h-12.64v-2.2h7.85c-.32-1.08-1.04-2.52-1.76-3.6l1.26-.25h-8.79v-2.3h5.73c-.5-1.44-1.77-3.6-2.85-5.22l2.27-.76c1.22,1.62,2.52,3.85,3.06,5.29l-1.84.69h4.43v-6.37h2.49v6.37h4.29v-6.37h2.52v6.37h4.36l-1.33-.43c.94-1.51,2.09-3.86,2.74-5.47l2.74.72c-1.01,1.84-2.16,3.82-3.17,5.19h5.58v2.3h-7.2c-.72,1.37-1.51,2.77-2.23,3.85h8.17v2.2h-13.04v2.63h11.27v2.05h-11.27v2.67h14.44v2.27h-11.96ZM498.69,328.64c.76,1.12,1.51,2.63,1.8,3.6l-1.15.25h8.46l-.36-.11c.61-1.04,1.33-2.52,1.84-3.74h-10.59Z"/>
          <path d="M534.04,340.71c.69-1.48,1.41-3.71,1.95-5.8h-3.46v14.84c0,1.37-.29,2.09-1.19,2.56-.94.36-2.34.4-4.5.4-.11-.65-.47-1.76-.83-2.45,1.55.04,2.95.04,3.42.04.43-.04.58-.14.58-.54v-11.56c-1.4,3.46-3.28,6.84-5.26,8.86-.29-.76-.94-1.8-1.41-2.48,2.23-2.12,4.47-5.98,5.8-9.65h-5.44v-2.34h9.65c-1.87-1.58-5.19-3.6-7.99-4.82l1.66-1.73c1.12.47,2.34,1.04,3.49,1.66,1.33-1.01,2.7-2.3,3.78-3.56h-10.19v-2.34h12.1l.47-.11,1.73,1.08c-1.4,2.16-3.71,4.46-5.87,6.12,1.19.72,2.27,1.48,3.03,2.16l-1.37,1.55h2.67l.39-.14,1.62.58c-.18.61-.36,1.26-.54,1.91,2.41-.69,4.61-1.58,6.45-2.77-1.44-1.29-2.7-2.77-3.71-4.39-.87.94-1.73,1.84-2.59,2.56-.5-.43-1.55-1.19-2.2-1.55,2.81-2.09,5.4-5.37,6.84-8.79l2.56.68c-.47,1.04-1.04,2.09-1.66,3.1h11.96v2.27h-2.77c-1.01,2.45-2.48,4.46-4.32,6.12,2.27,1.44,4.93,2.52,7.81,3.13-.54.58-1.33,1.58-1.69,2.3-3.03-.83-5.8-2.12-8.17-3.82-2.27,1.58-4.93,2.77-7.85,3.67-.18-.36-.58-.9-.97-1.41-.61,2.09-1.33,4.14-2.12,5.62l-1.84-.93ZM555.18,340.06s-.04.72-.07,1.15c-.65,6.7-1.33,9.43-2.38,10.48-.61.65-1.3.83-2.23.94-.86.04-2.38.07-4-.04-.07-.72-.32-1.8-.72-2.48,1.55.14,2.99.18,3.56.18s.87-.04,1.22-.36c.69-.69,1.22-2.7,1.77-7.64h-6.05c-1.26,4.57-3.78,8.32-9.54,10.55-.32-.61-1.04-1.58-1.58-2.05,4.97-1.8,7.24-4.83,8.36-8.5h-5.62v-2.23h6.19c.22-1.15.36-2.34.47-3.57h2.7c-.11,1.22-.29,2.41-.5,3.57h8.43ZM542.72,326.01c.97,1.73,2.38,3.31,4.07,4.64,1.48-1.29,2.67-2.81,3.49-4.64h-7.56Z"/>
          <path d="M236.82,490.7c1.4,5.22,4.03,9.94,7.56,12.17-.61.54-1.48,1.51-1.91,2.27-2.52-1.76-4.5-4.57-6.01-7.96v9.26h-17.25v-12.93h15.85c-.29-.9-.58-1.84-.79-2.81h-15.7c-.43,4.86-1.84,10.55-5.65,14.69-.36-.54-1.44-1.58-1.98-1.91,4.61-5.01,5.22-11.92,5.22-16.89v-5.01h24.13v9.11h-3.46ZM212.73,509.2h30.03v2.45h-30.03v-2.45ZM218.75,486.62c0,.54,0,1.12-.04,1.73h18.87v-4.46h-18.83v2.74ZM233.91,495.56h-12.28v3.42h12.28v-3.42ZM233.91,500.89h-12.28v3.49h12.28v-3.49Z"/>
          <path d="M258.92,481.04c-1.08,2.63-2.41,5.26-3.92,7.71v24.05h-2.63v-20.2c-1.33,1.76-2.77,3.38-4.25,4.75-.25-.65-1.12-2.05-1.62-2.7,3.96-3.42,7.63-8.79,9.76-14.44l2.66.83ZM270.99,491.7c2.3,5.73,6.05,11.45,9.79,14.48-.65.5-1.58,1.44-2.02,2.16-3.49-3.24-6.91-8.71-9.33-14.48v19.01h-2.63v-18.26c-2.41,5.62-5.83,10.77-9.36,13.86-.5-.61-1.4-1.59-2.02-2.05,3.89-3.06,7.71-8.86,9.97-14.73h-8.71v-2.59h10.12v-8.64h2.63v8.64h10.41v2.59h-8.86Z"/>
          <path d="M283.22,510.21c2.7-1.4,4.21-3.93,4.93-6.77l2.34.76c-.79,3.06-2.2,5.94-5.08,7.53l-2.2-1.51ZM290.5,489.07h-6.66v-2.23h6.66v-3.06c-1.87.21-3.78.32-5.51.39-.11-.57-.4-1.44-.69-1.98,4.39-.25,9.79-.83,12.68-1.69l1.8,1.87c-1.62.47-3.67.87-5.83,1.15v3.31h6.48v2.23h-6.48v3.17h5.01v8.18h-12.39v-8.18h4.93v-3.17ZM295.57,494.37h-7.67v3.96h7.67v-3.96ZM304.07,510.03c1.62,0,1.84-.47,1.98-3.78.61.47,1.69.83,2.45.97-.36,4.21-1.15,5.22-4.21,5.22h-6.99c-3.78,0-4.72-.72-4.72-3.49v-5.47h2.63v5.47c0,.9.32,1.08,2.27,1.08h6.59ZM297.12,500.6c2.27,1.12,4.93,2.88,6.19,4.32l-1.87,1.62c-1.22-1.4-3.82-3.31-6.09-4.5l1.76-1.44ZM314.62,500.78h-13.87v-17.54h4.25c.47-1.19.94-2.56,1.19-3.56l2.92.43c-.47,1.08-.97,2.2-1.4,3.13h6.91v17.54ZM303.21,485.47v2.92h8.82v-2.92h-8.82ZM303.21,490.34v3.06h8.82v-3.06h-8.82ZM312.03,498.58v-3.24h-8.82v3.24h8.82ZM309.69,503.23c2.59,1.98,5.33,4.9,6.45,7.13l-2.38,1.33c-1.01-2.2-3.64-5.19-6.19-7.28l2.12-1.19Z"/>
          <path d="M243.88,662.65h-3.71v6.37h-2.66v-1.62h-8.64v2.49c0,1.66-.51,2.27-1.59,2.66-1.12.4-2.99.43-5.98.43-.14-.68-.58-1.66-.94-2.27,2.16.07,4.32.04,4.93.04.69-.04.9-.25.9-.87v-2.49h-11.63v-2.05h11.63v-2.7h-14.73v-2.12h14.73v-2.52h-11.31v-1.98h11.31v-2.52h-10.3v-6.34h10.3v-2.09h-14.04v-2.2h14.04v-2.88h2.67v2.88h14.33v2.2h-14.33v2.09h10.73v6.34h-10.73v2.52h11.31v4.5h3.71v2.12ZM226.2,651.63v-2.59h-7.74v2.59h7.74ZM228.87,649.04v2.59h8.07v-2.59h-8.07ZM228.87,660.53h8.64v-2.52h-8.64v2.52ZM237.51,662.65h-8.64v2.7h8.64v-2.7Z"/>
          <path d="M267.39,664.31c3.28,2.59,8.25,4.72,12.86,5.69-.61.58-1.44,1.62-1.8,2.38-4.83-1.37-10.08-4.07-13.54-7.38v7.85h-2.63v-7.67c-3.46,3.13-8.71,5.72-13.43,7.09-.36-.68-1.15-1.69-1.73-2.27,4.46-1.01,9.47-3.17,12.71-5.69h-11.78v-2.27h14.22v-2.67h-10.84v-2.05h10.84v-2.63h-12.64v-2.2h7.85c-.32-1.08-1.04-2.52-1.76-3.6l1.26-.25h-8.79v-2.3h5.73c-.5-1.44-1.77-3.6-2.85-5.22l2.27-.76c1.22,1.62,2.52,3.85,3.06,5.29l-1.84.69h4.43v-6.37h2.49v6.37h4.29v-6.37h2.52v6.37h4.36l-1.33-.43c.94-1.51,2.09-3.86,2.74-5.47l2.74.72c-1.01,1.84-2.16,3.82-3.17,5.19h5.58v2.3h-7.2c-.72,1.37-1.51,2.77-2.23,3.85h8.17v2.2h-13.04v2.63h11.27v2.05h-11.27v2.67h14.44v2.27h-11.96ZM258.42,648.64c.76,1.12,1.51,2.63,1.8,3.6l-1.15.25h8.46l-.36-.11c.61-1.04,1.33-2.52,1.84-3.74h-10.59Z"/>
          <path d="M302.09,653.9c-1.87,1.33-3.82,2.59-5.8,3.75h14.87v15.05h-2.74v-1.01h-14.58v1.15h-2.63v-12.46c-2.16,1.04-4.39,2.02-6.59,2.84-.32-.58-1.19-1.66-1.69-2.2,5.22-1.84,10.26-4.21,14.8-7.13h-14.01v-2.41h12.32v-4.61h-9.18v-2.38h9.18v-4.5h2.63v4.5h8.89v1.48c1.51-1.51,2.88-3.1,4.11-4.75l2.27,1.23c-2.52,3.31-5.47,6.34-8.75,9.04h10.37v2.41h-13.47ZM308.43,659.91h-14.58v3.56h14.58v-3.56ZM308.43,669.35v-3.74h-14.58v3.74h14.58ZM301.19,651.49c1.94-1.44,3.78-2.99,5.47-4.61h-7.99v4.61h2.52Z"/>
          <path d="M334.31,641.76l3.06-.4c.29,1.69.94,4.07,1.66,6.16,2.59-.36,5.58-.94,8.03-1.76l.32,2.81c-2.2.65-5.04,1.15-7.45,1.48,1.12,2.77,2.7,5.54,4.03,7.42.5.68,1.04,1.3,1.58,1.91l-1.48,2.02c-1.73-.4-6.09-.79-8.68-.97l.22-2.41c2.02.18,4.68.4,5.98.54-1.4-2.05-3.13-5.22-4.36-8.21-4.29.39-9.47.36-15.12-.07l-.07-2.88c5.29.65,10.3.72,14.22.43-.43-1.33-.79-2.41-1.04-3.24-.25-.76-.58-1.88-.9-2.81ZM325.88,663.88c0,3.42,3.13,4.93,8.46,4.97,3.67.04,6.77-.32,9.29-.9l-.14,2.88c-2.23.4-5.29.79-9.29.79-6.84-.04-11.16-2.52-11.16-7.42,0-1.98.72-3.85,1.73-5.98l2.81.65c-1.08,1.73-1.69,3.28-1.69,5.01Z"/>
          <path d="M369.12,643.93c0,.47-.04,1.26-.04,2.2,3.24-.14,6.52-.47,9.76-.97l-.04,2.63c-2.85.32-6.27.65-9.72.83v5.04c3.49-.14,6.77-.47,10.05-.97l-.04,2.7c-3.38.43-6.55.72-9.97.83.07,1.88.18,3.82.25,5.55,4.79,1.3,8.46,3.93,10.52,5.62l-1.66,2.56c-2.12-1.95-5.11-4.14-8.71-5.44.04.9.07,1.66.07,2.23,0,2.48-1.66,5.04-6.34,5.04-5.19,0-7.99-1.84-7.99-5.29,0-3.28,3.13-5.51,8.32-5.51,1.04,0,2.05.07,3.02.22-.04-1.62-.11-3.35-.14-4.9h-2.05c-2.45,0-6.41-.22-9-.5l-.04-2.7c2.59.43,6.7.69,9.07.69h1.95v-5.04h-1.58c-2.52,0-6.95-.36-9.22-.61l-.04-2.66c2.34.43,6.81.79,9.22.79h1.66v-2.56c0-.61-.07-1.66-.14-2.16h3.06c-.11.65-.18,1.37-.22,2.41ZM362.93,669.24c2.05,0,3.82-.65,3.82-3.13,0-.61-.04-1.48-.04-2.41-1.12-.25-2.3-.36-3.49-.36-3.42,0-5.29,1.33-5.29,2.99s1.44,2.92,5.01,2.92Z"/>
          <path d="M387.66,657.86c1.91-1.95,4.93-6.05,7.06-8.61,2.12-2.45,3.96-2.81,6.34-.39,2.2,2.2,4.93,5.76,7.24,8.25,2.2,2.41,5.76,6.16,9,9.04l-2.3,2.63c-2.7-2.56-5.98-6.23-8.46-9.04-2.34-2.67-5.08-6.12-6.73-8-1.55-1.66-2.23-1.4-3.49.11-1.69,2.12-4.61,6.09-6.45,8.32-.76.94-1.59,2.02-2.12,2.77l-2.67-2.7c.9-.68,1.62-1.41,2.59-2.38Z"/>
          <path d="M438.06,671.22l-1.69-2.67c1.15-.11,2.27-.29,3.1-.47,4.61-1.04,9.15-4.46,9.15-10.7,0-5.44-3.49-9.94-9.61-10.44-.47,3.35-1.15,7.02-2.16,10.37-2.2,7.42-5.04,11.2-8.39,11.2s-6.41-3.67-6.41-9.61c0-7.82,6.95-14.66,15.74-14.66s13.79,5.94,13.79,13.25-4.97,12.61-13.5,13.72ZM428.56,665.21c1.69,0,3.6-2.41,5.44-8.5.9-2.99,1.62-6.41,2.02-9.72-6.91.87-11.16,6.77-11.16,11.67,0,4.54,2.09,6.55,3.71,6.55Z"/>
          <path d="M463.04,645.33v8.14c4.32-1.05,10.37-2.92,14.12-4.54,1.08-.47,2.12-1.01,3.17-1.66l1.26,2.92c-1.04.43-2.34,1.01-3.42,1.4-4.07,1.62-10.62,3.67-15.12,4.83v7.92c0,1.84.79,2.3,2.52,2.66,1.15.18,2.99.29,4.79.29,3.78,0,9.33-.36,12.31-1.15v3.28c-3.13.47-8.53.76-12.46.76-2.16,0-4.29-.11-5.8-.36-2.74-.5-4.29-1.77-4.29-4.68v-19.81c0-.97-.07-2.2-.21-2.92h3.35c-.11.83-.22,1.91-.22,2.92Z"/>
          <path d="M517.77,647.06c-1.44,2.45-4.86,7.09-8.97,9.94l-2.38-1.91c3.31-1.91,6.7-5.83,7.89-8.07h-20.53c-1.33,0-2.7.07-4.11.22v-3.28c1.26.18,2.77.32,4.11.32h20.67c.69,0,1.98-.11,2.52-.22l1.76,1.69c-.25.36-.72.9-.97,1.3ZM494.33,671.44l-2.67-2.16c1.01-.32,2.23-.9,3.24-1.62,5.58-3.42,6.37-8.54,6.37-14.55,0-.87-.04-1.66-.14-2.59h3.24c0,9.76-.87,16.35-10.05,20.92Z"/>
          <path d="M528.53,645.65v12.03c0,.9.07,2.09.14,2.74h-3.31c.07-.54.18-1.69.18-2.77v-11.99c0-.65-.07-1.91-.14-2.59h3.28c-.07.68-.14,1.73-.14,2.59ZM545.28,645.91v5.83c0,8.64-1.19,11.49-3.78,14.59-2.34,2.81-5.94,4.36-8.57,5.26l-2.34-2.49c3.31-.83,6.37-2.27,8.61-4.79,2.56-2.99,2.99-5.9,2.99-12.71v-5.69c0-1.23-.07-2.23-.18-3.13h3.39c-.07.9-.11,1.91-.11,3.13Z"/>
          <path d="M566.98,662.58c5.54-3.49,9.94-8.82,12.03-13.25l1.73,3.06c-2.45,4.5-6.66,9.4-12.1,12.82-3.6,2.27-8.14,4.46-14.15,5.58l-1.91-2.95c6.3-.94,10.98-3.13,14.4-5.26ZM564.86,651.16l-2.27,2.27c-1.8-1.87-6.3-5.72-8.97-7.53l2.05-2.2c2.56,1.69,7.17,5.44,9.18,7.46Z"/>
          <path d="M597.11,645.83c-.25.51-.54,1.01-.83,1.51h9.76c.97,0,1.77-.11,2.34-.32l2.38,1.44c-.29.5-.65,1.33-.83,1.91-.97,3.64-3.17,8.5-6.38,12.42-3.28,4-7.6,7.28-14.33,9.8l-2.63-2.38c6.62-1.95,11.13-5.19,14.4-9.04,2.77-3.28,5.01-7.96,5.73-11.24h-12.14c-2.2,3.06-5.19,6.27-9.15,8.86l-2.48-1.84c6.19-3.71,9.72-8.97,11.31-12.17.36-.65.9-1.95,1.12-2.88l3.31,1.12c-.58.94-1.22,2.16-1.58,2.81ZM611.34,646.23l-1.95.86c-.72-1.44-1.95-3.64-2.92-4.97l1.91-.83c.9,1.29,2.2,3.46,2.95,4.93ZM615.37,644.75l-1.95.86c-.79-1.55-1.98-3.6-2.99-4.93l1.91-.83c.94,1.33,2.34,3.57,3.03,4.9Z"/>
          <path d="M626.92,656.42c0,2.12-1.69,3.82-3.82,3.82s-3.82-1.69-3.82-3.82,1.69-3.82,3.82-3.82,3.82,1.69,3.82,3.82Z"/>
          <path d="M644.56,658.11c-1.29.47-2.63.86-3.96,1.33v10.08c0,1.48-.32,2.16-1.22,2.59-.83.43-2.2.54-4.46.5-.11-.65-.43-1.73-.79-2.48,1.55.04,2.99.04,3.38.04.43,0,.61-.14.61-.68v-9.25c-1.48.5-2.88.94-4.18,1.33l-.65-2.59c1.33-.32,2.99-.83,4.83-1.4v-7.88h-4.43v-2.49h4.43v-7.17h2.48v7.17h3.96v2.49h-3.96v7.09l3.64-1.12.32,2.45ZM656.55,669.74c1.04.14,2.2.22,3.38.22.87,0,5.73,0,6.95-.04-.36.57-.69,1.69-.79,2.38h-6.27c-5.19,0-8.97-.97-11.31-6.01-.97,2.7-2.41,4.9-4.29,6.59-.43-.43-1.44-1.26-2.02-1.62,3.21-2.52,4.79-6.55,5.37-11.88l2.45.29c-.18,1.33-.4,2.63-.68,3.82,1.01,3.06,2.63,4.72,4.68,5.58v-11.38h-8.79v-2.27h20.56v2.27h-9.25v4.21h7.46v2.2h-7.46v5.65ZM663.79,652.86h-16.93v-11.67h16.93v11.67ZM661.23,643.2h-11.92v2.85h11.92v-2.85ZM661.23,647.92h-11.92v2.88h11.92v-2.88Z"/>
          <path d="M689.6,664.02c3.28,2.77,8.54,5.11,13.36,6.16-.57.54-1.33,1.55-1.73,2.23-5.01-1.37-10.48-4.21-13.9-7.67v8.07h-2.63v-7.92c-3.35,3.35-8.64,6.16-13.58,7.49-.36-.65-1.12-1.69-1.69-2.16,4.79-1.08,10.01-3.46,13.18-6.19h-12.49v-2.23h14.58v-2.99h2.63v2.99h14.84v2.23h-12.57ZM675.37,654.91c1.01-1.12,2.16-2.56,3.35-4.03h-8.03v-2.2h9.72c.9-1.15,1.73-2.3,2.45-3.31l2.49.72c-.58.83-1.22,1.69-1.91,2.59h18.22v2.2h-6.91c-.9,1.91-2.16,3.49-3.96,4.79,3.49.9,6.77,1.91,9.15,2.77l-1.62,1.95c-2.45-1.01-6.19-2.16-10.19-3.24-3.53,1.58-8.5,2.52-15.59,3.03-.11-.58-.54-1.58-.87-2.12,5.58-.36,9.69-.94,12.71-1.84-1.98-.5-3.96-.94-5.83-1.33l-.68.83-2.49-.79ZM673.61,647.81h-2.52v-5.15h13.65v-2.66h2.63v2.66h13.9v5.15h-2.56v-2.88h-25.1v2.88ZM681.75,650.88c-.61.79-1.22,1.58-1.8,2.3,2.41.47,5.11,1.04,7.78,1.69,1.98-1.04,3.24-2.38,4.11-4h-10.08Z"/>
          <path d="M218.17,800h2.41v14.37c0,7.09-.68,13.61-5.98,18.47-.39-.51-1.29-1.33-1.94-1.73,4.97-4.43,5.51-10.34,5.51-16.75v-14.37ZM214.89,821.07h-2.23v-16.93h2.23v16.93ZM243.34,813.76v5.83h-2.48v-3.71h-7.38v3.28h7.31v8.5c0,1.19-.18,1.84-1.04,2.23-.79.4-2.09.43-3.89.43-.07-.72-.36-1.58-.69-2.27,1.3.04,2.3.04,2.67.04.36-.04.43-.14.43-.47v-6.23h-4.79v11.45h-2.52v-11.45h-4.43v9.07h-2.41v-10.88h-2.41v-5.83h21.64ZM240.64,811.74h-16.96v-2.05h14.44v-2.38h-13.14v-1.94h13.14v-2.34h-14.01v-2.05h16.53v10.77ZM230.96,815.88h-6.84v3.28h6.84v-3.28Z"/>
          <path d="M279.81,804.61v2.56h-27.08v6.73c0,5.47-.5,13.54-3.56,18.98-.47-.47-1.62-1.22-2.27-1.51,2.92-5.15,3.21-12.35,3.21-17.47v-9.29h13.22v-4.61h2.74v4.61h13.76ZM267.24,812.21h12.06v2.41h-12.06v5.15h9.65v13.04h-2.7v-1.33h-15.56v1.4h-2.63v-13.11h8.54v-11.85h2.7v4.29ZM274.19,822.15h-15.56v6.91h15.56v-6.91Z"/>
          <path d="M351.56,818.15v1.98h-31.83v-1.98h14.48v-2.12h-12.03v-1.84h12.03v-1.98h-11.02v-1.8h11.02v-2.12h-14.4v-2.02h14.4v-2.02h-10.62v-1.8h10.62v-2.52h2.63v2.52h10.3v3.82h4.39v2.02h-4.39v3.93h-10.3v1.98h12.28v1.84h-12.28v2.12h14.73ZM324.33,821.82h22.98v11.05h-2.67v-1.12h-17.72v1.19h-2.59v-11.13ZM326.93,823.66v2.2h17.72v-2.2h-17.72ZM344.64,829.89v-2.3h-17.72v2.3h17.72ZM336.83,806.27h7.67v-2.02h-7.67v2.02ZM336.83,810.41h7.67v-2.12h-7.67v2.12Z"/>
          <path d="M368.72,830.46c-1.19-1.19-3.35-2.92-5.33-4.39-1.01,2.27-3.03,4.43-6.91,6.16-.29-.61-1.01-1.55-1.48-2.02,5.22-2.27,6.52-5.22,6.84-7.96h-6.16v-2.34h6.23v-2.99h2.45v2.99h6.52v2.34h-6.59c-.04.5-.11,1.04-.18,1.55,2.16,1.51,4.93,3.49,6.38,4.86l-1.77,1.8ZM361.96,810.84c-1.55,2.12-3.49,4.11-5.33,5.26-.32-.54-1.08-1.33-1.58-1.77,2.23-1.15,4.57-3.46,6.12-5.8h-5.47v-2.2h6.27v-5.98h2.38v5.98h6.37v2.2h-6.37v.47c1.4.76,5.62,3.49,6.59,4.21l-1.48,1.95c-.94-.94-3.35-2.74-5.11-4v5h-2.38v-5.33ZM358.35,805.8c-.32-1.22-1.15-2.95-2.02-4.25l1.87-.75c.9,1.29,1.8,3.02,2.05,4.14l-1.91.86ZM370.31,801.44c-.83,1.58-1.73,3.24-2.49,4.36l-1.84-.68c.72-1.19,1.58-3.1,2.05-4.39l2.27.72ZM377.76,827.98c-1.87,1.87-4.9,3.78-7.53,4.86-.43-.51-1.22-1.33-1.77-1.8,2.59-1.01,5.55-2.85,6.95-4.39l2.34,1.33ZM376.94,807.35c.29-1.04.61-2.27.83-3.35h-6.84v-2.34h16.96v2.34h-7.24c-.4,1.15-.76,2.3-1.15,3.35h7.28v18.62h-14.66v-18.62h4.83ZM384.25,809.47h-9.72v3.46h9.72v-3.46ZM384.25,814.87h-9.72v3.49h9.72v-3.49ZM384.25,820.35h-9.72v3.49h9.72v-3.49ZM382.59,826.83c2.09,1.3,4.75,3.2,6.12,4.54l-2.09,1.48c-1.26-1.3-3.89-3.31-5.98-4.68l1.95-1.33Z"/>
          <path d="M402.53,800.94c-.97,2.59-2.27,5.22-3.67,7.71v24.16h-2.66v-20.02c-1.12,1.58-2.34,3.03-3.57,4.29-.25-.61-1.04-2.09-1.55-2.66,3.57-3.46,6.88-8.82,8.9-14.3l2.56.83ZM413.04,808.54v5.15h10.26v2.48h-10.26v5.44h10.77v2.52h-10.77v8.71h-2.7v-24.31h-2.49c-1.55,2.88-3.31,5.47-5.11,7.49-.43-.47-1.48-1.37-2.09-1.8,3.24-3.35,6.16-8.53,7.92-13.79l2.56.69c-.58,1.66-1.26,3.28-1.98,4.86h14.98v2.56h-11.09Z"/>
          <path d="M457.58,812.17c-1.55,4.64-3.67,8.75-6.34,12.17,1.33,3.53,2.99,5.58,4.83,5.58,1.01,0,1.44-1.88,1.69-6.66.61.61,1.58,1.22,2.3,1.44-.5,6.12-1.48,7.89-4.21,7.89s-4.93-2.2-6.59-5.91c-2.16,2.34-4.64,4.36-7.42,5.98-.4-.54-1.33-1.62-1.95-2.12,3.21-1.73,5.98-3.96,8.28-6.66-1.3-4.07-2.16-9.36-2.63-15.16h-12.42v4.68h9.18v1.15c-.18,8.07-.4,11.09-1.15,12.03-.54.69-1.15.94-2.16,1.05-.9.07-2.52.07-4.29,0-.04-.83-.32-1.84-.76-2.52,1.66.14,3.21.18,3.82.18.51,0,.87-.07,1.08-.4.5-.54.68-2.81.83-9h-6.55v.29c0,5.04-.54,12.28-3.78,16.96-.47-.54-1.62-1.48-2.23-1.8,2.95-4.39,3.28-10.55,3.28-15.2v-10.05h15.02c-.14-1.98-.18-4-.21-6.05h2.77c0,2.09.04,4.11.14,6.05h11.63v2.63h-11.45c.36,4.79,1.01,9.07,1.98,12.5,1.95-2.85,3.49-6.09,4.61-9.72l2.7.68ZM451.35,800.14c2.23,1.12,5.04,2.84,6.45,4.11l-1.66,1.84c-1.37-1.26-4.11-3.1-6.38-4.32l1.58-1.62Z"/>
          <path d="M470.35,806.55c.65,1.19,1.37,2.63,2.09,4.14,4.36-1.91,9.22-3.85,12.96-3.85,4.97,0,8.03,2.85,8.03,6.77,0,4.14-2.66,7.28-8.28,7.28-2.02,0-4.03-.5-5.4-1.01l.11-2.81c1.41.61,3.21,1.15,5.12,1.15,3.92,0,5.58-2.16,5.58-4.75,0-2.12-1.69-4.07-5.22-4.07-3.17,0-7.6,1.69-11.78,3.64.47,1.01.94,2.02,1.37,2.99,1.98,4.46,4.25,11.16,5.47,15.12l-3.1.83c-1.12-4.25-2.84-10.05-4.9-14.76-.47-1.04-.9-2.05-1.37-2.99-2.77,1.33-5.29,2.63-6.95,3.39l-1.37-2.95c1.04-.25,2.3-.72,2.95-.97,1.22-.47,2.7-1.12,4.29-1.84-.76-1.59-1.44-2.95-2.05-3.96-.47-.72-1.19-1.84-1.76-2.56l2.95-1.19c.25.58.86,1.77,1.26,2.41ZM475.25,802.52l2.05-1.48c1.19.9,3.93,3.17,5.29,4.57l-2.05,1.62c-1.4-1.37-3.75-3.57-5.29-4.72Z"/>
          <path d="M529.69,822.65h-3.71v6.37h-2.66v-1.62h-8.64v2.49c0,1.66-.51,2.27-1.59,2.66-1.12.4-2.99.43-5.98.43-.14-.68-.58-1.66-.94-2.27,2.16.07,4.32.04,4.93.04.69-.04.9-.25.9-.87v-2.49h-11.63v-2.05h11.63v-2.7h-14.73v-2.12h14.73v-2.52h-11.31v-1.98h11.31v-2.52h-10.3v-6.34h10.3v-2.09h-14.04v-2.2h14.04v-2.88h2.67v2.88h14.33v2.2h-14.33v2.09h10.73v6.34h-10.73v2.52h11.31v4.5h3.71v2.12ZM512.01,811.63v-2.59h-7.74v2.59h7.74ZM514.67,809.04v2.59h8.07v-2.59h-8.07ZM514.67,820.53h8.64v-2.52h-8.64v2.52ZM523.31,822.65h-8.64v2.7h8.64v-2.7Z"/>
          <path d="M543.58,820.71c.69-1.48,1.41-3.71,1.95-5.8h-3.46v14.84c0,1.37-.29,2.09-1.19,2.56-.94.36-2.34.4-4.5.4-.11-.65-.47-1.76-.83-2.45,1.55.04,2.95.04,3.42.04.43-.04.58-.14.58-.54v-11.56c-1.4,3.46-3.28,6.84-5.26,8.86-.29-.76-.94-1.8-1.41-2.48,2.23-2.12,4.47-5.98,5.8-9.65h-5.44v-2.34h9.65c-1.87-1.58-5.19-3.6-7.99-4.82l1.66-1.73c1.12.47,2.34,1.04,3.49,1.66,1.33-1.01,2.7-2.3,3.78-3.56h-10.19v-2.34h12.1l.47-.11,1.73,1.08c-1.4,2.16-3.71,4.46-5.87,6.12,1.19.72,2.27,1.48,3.03,2.16l-1.37,1.55h2.67l.39-.14,1.62.58c-.18.61-.36,1.26-.54,1.91,2.41-.69,4.61-1.58,6.45-2.77-1.44-1.29-2.7-2.77-3.71-4.39-.87.94-1.73,1.84-2.59,2.56-.5-.43-1.55-1.19-2.2-1.55,2.81-2.09,5.4-5.37,6.84-8.79l2.56.68c-.47,1.04-1.04,2.09-1.66,3.1h11.96v2.27h-2.77c-1.01,2.45-2.48,4.46-4.32,6.12,2.27,1.44,4.93,2.52,7.81,3.13-.54.58-1.33,1.58-1.69,2.3-3.03-.83-5.8-2.12-8.17-3.82-2.27,1.58-4.93,2.77-7.85,3.67-.18-.36-.58-.9-.97-1.41-.61,2.09-1.33,4.14-2.12,5.62l-1.84-.93ZM564.71,820.06s-.04.72-.07,1.15c-.65,6.7-1.33,9.43-2.38,10.48-.61.65-1.3.83-2.23.94-.86.04-2.38.07-4-.04-.07-.72-.32-1.8-.72-2.48,1.55.14,2.99.18,3.56.18s.87-.04,1.22-.36c.69-.69,1.22-2.7,1.77-7.64h-6.05c-1.26,4.57-3.78,8.32-9.54,10.55-.32-.61-1.04-1.58-1.58-2.05,4.97-1.8,7.24-4.83,8.36-8.5h-5.62v-2.23h6.19c.22-1.15.36-2.34.47-3.57h2.7c-.11,1.22-.29,2.41-.5,3.57h8.43ZM552.26,806.01c.97,1.73,2.38,3.31,4.07,4.64,1.48-1.29,2.67-2.81,3.49-4.64h-7.56Z"/>
          <path d="M602.12,829.56c-.39.61-.86,1.84-1.01,2.59h-6.19c-6.55,0-12.46-1.26-16.75-6.7-1.94,3.24-4.43,5.65-7.27,7.49-.4-.65-1.12-1.66-1.66-2.12,2.92-1.69,5.37-4.25,7.31-7.74-1.26-2.12-2.3-4.72-3.17-7.85-.76,2.02-1.73,3.82-2.77,5.37-.4-.5-1.44-1.51-2.05-1.95,3.17-4.32,4.9-11.27,5.83-18.65l2.63.36c-.25,1.95-.58,3.89-.97,5.73h5.4l.5-.07,1.59.32c-.65,6.99-2.02,12.49-4.11,16.78,4.03,5.33,9.62,6.45,15.63,6.45h7.06ZM575.54,808.43c-.29,1.04-.54,2.09-.83,3.1.76,3.67,1.84,6.62,3.06,9,1.44-3.35,2.48-7.42,3.02-12.1h-5.26ZM589.01,809.61c0,4.9-.61,11.92-3.96,16.75-.47-.47-1.55-1.22-2.16-1.44,3.24-4.54,3.64-10.8,3.64-15.34v-7.06h9.76v20.27c0,1.05.07,1.19.61,1.19h1.44c.5,0,.61-.61.69-3.24.5.39,1.37.68,2.02.86-.18,3.28-.79,4.25-2.45,4.25h-2.12c-2.12,0-2.59-.72-2.59-3.13v-17.86h-4.86v4.75Z"/>
          <path d="M616.62,825.42c-3.85,1.3-7.96,2.7-11.16,3.75l-.61-2.7c1.33-.4,2.99-.9,4.83-1.51v-9.72h-4.07v-2.49h4.07v-7.81h-4.47v-2.52h11.16v2.52h-4.14v7.81h3.6v2.49h-3.6v8.93l3.92-1.3.47,2.55ZM638.12,829.24v2.45h-23.19v-2.45h10.95v-4.93h-8.18v-2.45h8.18v-4.21h-7.74v-16.02h18.29v16.02h-7.85v4.21h8.39v2.45h-8.39v4.93h9.54ZM620.58,808.5h5.47v-4.54h-5.47v4.54ZM620.58,815.3h5.47v-4.57h-5.47v4.57ZM633.87,803.96h-5.51v4.54h5.51v-4.54ZM633.87,810.73h-5.51v4.57h5.51v-4.57Z"/>
          <path d="M219.14,985.57c1.69,2.63,4.83,3.85,8.97,4.04,3.93.14,11.92.04,16.13-.25-.29.65-.76,1.91-.86,2.74-3.93.14-11.31.21-15.27.07-4.68-.18-7.88-1.48-10.19-4.25-1.73,1.51-3.53,3.06-5.44,4.61l-1.44-2.7c1.66-1.08,3.67-2.59,5.47-4.11v-9.11h-5.01v-2.52h7.63v11.49ZM218.39,968.35c-1.15-1.73-3.82-4.1-6.12-5.72l1.95-1.59c2.34,1.51,5.04,3.85,6.27,5.58l-2.09,1.73ZM221.66,984.92c.76-.14,1.58-.32,2.48-.54v-22.87h16.35v13.4h-6.91c.5,1.44,1.19,2.81,1.98,4.07,1.95-1.26,4.25-2.99,5.65-4.25l2.12,1.55c-2.05,1.51-4.5,3.17-6.59,4.32,1.87,2.23,4.25,3.89,7.13,4.82-.58.51-1.33,1.55-1.69,2.27-5.51-2.16-9.11-6.73-11.02-12.78h-4.43v8.86c2.23-.5,4.68-1.08,7.09-1.69l.22,2.34c-4.21,1.08-8.61,2.2-11.92,2.99l-.47-2.48ZM226.74,963.82v3.31h11.16v-3.31h-11.16ZM237.9,972.6v-3.42h-11.16v3.42h11.16Z"/>
          <path d="M279.6,969.69c-.4,15.09-.72,20.09-1.84,21.57-.65.9-1.29,1.19-2.34,1.29-.97.11-2.56.11-4.18,0-.07-.72-.32-1.8-.76-2.48,1.66.18,3.17.18,3.82.18.58,0,.9-.11,1.19-.58.86-1.04,1.26-5.73,1.55-18.8h-5.22c-.4,9.61-1.8,17.36-7.31,22.11-.4-.57-1.33-1.48-1.94-1.87.5-.4.94-.83,1.37-1.3-5.94.72-12.06,1.44-16.35,1.95l-.36-2.34c2.16-.18,4.9-.47,7.89-.79v-3.28h-6.55v-1.98h6.55v-2.74h-7.09v-2.05h7.09v-2.23h-6.41v-7.67h15.56v7.67h-6.7v2.23h7.2v2.05h-7.2v2.74h6.88v1.98h-6.88v2.99c2.34-.25,4.82-.54,7.24-.83l.04,1.26c3.31-4.29,4.29-10.45,4.54-17.9h-4.11v-2.48h4.18c.07-2.56.07-5.29.07-8.1h2.48c0,2.81-.04,5.51-.07,8.1h7.67v1.3ZM251.47,965.15h-4.07v-2.09h4.07v-3.06h2.45v3.06h4.82v-3.06h2.45v3.06h4.25v2.09h-4.25v2.77h-2.45v-2.77h-4.82v2.77h-2.45v-2.77ZM255.11,974.4v-3.75h-4.07v3.75h4.07ZM261.77,970.66h-4.21v3.75h4.21v-3.75Z"/>
        </g>
      </g>
      <rect class="cls-1" width="809.73" height="993.16"/>
    </g>
  </g>
</svg>