<?xml version="1.0" encoding="UTF-8"?>
<svg id="_レイヤー_2" data-name="レイヤー 2" xmlns="http://www.w3.org/2000/svg" xmlns:xlink="http://www.w3.org/1999/xlink" viewBox="0 0 223.86 376.63">
  <defs>
    <style>
      .cls-1 {
        fill: none;
      }

      .cls-2 {
        fill: #174e9d;
      }

      .cls-3 {
        fill: #5c4e42;
      }

      .cls-4 {
        fill: #e0a164;
      }

      .cls-5 {
        fill: #7da7da;
      }

      .cls-6 {
        fill: #3e6eb3;
      }

      .cls-7 {
        clip-path: url(#clippath-1);
      }

      .cls-8 {
        clip-path: url(#clippath-2);
      }

      .cls-9 {
        fill: #fff;
      }

      .cls-10 {
        fill: #646464;
      }

      .cls-11 {
        clip-path: url(#clippath);
      }
    </style>
    <clipPath id="clippath">
      <path class="cls-1" d="M100,162.83c-5.77-4.76-12.21-4.94-14.25-1.29-2.04,3.65-6.5,15.14-2,20.1,4.5,4.96,23.04-1.78,23.04-1.78l-.5-11.33s-.51-.95-6.29-5.71Z"/>
    </clipPath>
    <clipPath id="clippath-1">
      <path class="cls-1" d="M117.17,167.58c1.69-3.46,9.14-10.05,13.56-8.86,4.43,1.19,5.72,5.37,6.76,8,1.04,2.63,1.75,9.03,1.11,11.45-.65,2.42-7.87,4.88-11.97,4-4.11-.88-9.33-4.2-9.33-4.2l-.12-10.39Z"/>
    </clipPath>
    <clipPath id="clippath-2">
      <path class="cls-1" d="M104.43,166.65c-1.1,1.24-.82,13.12-.13,14.04.69.92,4.51,1.82,5.9,1.98,1.39.16,9.07-.58,9.13-5,.06-4.42,0-9.22-1.03-10.69-1.02-1.47-11.39-3.12-13.86-.33Z"/>
    </clipPath>
  </defs>
  <g id="_背景" data-name="背景">
    <g>
      <g>
        <path class="cls-4" d="M62.19,200.85c-.65-2.96,1-5.03,2.77-6.98,1.34-8.77,6.97-15.63,6.01-25.27-8.16-8.67-18.94-18.36-21.5-30.4-5.25-4.62-2.91-12.27-3.43-18.94,3.07-3.72-1.37-9.1,2.37-12.58.78-8.2,5.66-14.54,7.22-22.41,1.54-2.39,3.19-4.58,3.53-7.53.45-1.41,2.65-3.04,1.22-4.26l-.32.32v-.78c-.65-1.52-2.17-2.29-3.92-1.96-2.44,3.47-7.14,2.81-10.32,5.08-5.03-1.45-9.73-3.44-14.97-4.45-3.83-3.96-13-2.68-12.1-10.24.57-3.06,3.09-4.7,5.5-6.65,5.28-3.8,11.52-4.87,17.01-8.22,7.57-3.15,14.64,2.03,21.21,4.8l.44-.34c-3.28-1.22-2.93-5.26-6.32-7.14.78-3.4-4.13-4.4-3.89-7.56-6.09-6.72-7.48-15.8-6.56-24.75,1.44-2.52,3.86-5.57,7.13-5.12,5.57,2,11.48,3.67,16.5,7.18-.35,2.19,2.82,3.1,4.36,4.3,5.02-3.04,9.78-6.54,14.9-9,4.51-2.5,8.43,1.02,11.48,3.98-.34,2.52-1.01,5.89-.82,9.08-3.18,4.92-5.94,10.02-8.37,15.37,2.39,1.68,3.91,5.05,5.86,7.49l28.35.57c1.63-2.85,5.93-4.77,5.94-8.3-4.27-3.72-9.16-6.59-12.53-11.87-.84-5.17-7.04-10.54-1.89-15.76,6.68-4.36,14.99-.36,21.66,1.3,2.07.13,2.72,3.51,5.11,2.76,3.63-4.15,7.06-7.97,11.45-11.01,3.92-2.81,8.64-1.38,12.57.51,5.12,5.51,1.9,14.34,1.11,20.91-1.31,2.61.52,6.56-2.34,8.63-1.11,5.91-3.99,11.58-5.65,16.93,7.99-4.9,15.38-11.64,26.07-9.72,7.22,3.64,16.08,4.14,21.97,9.95.97,2.44-.02,5.03-1.14,7-7.56,2.48-13.82,7.81-21.38,10.2l-3.95,1.16c-3.49.99-8.08-.46-11.39,1.15.5,8.11,4.32,14.91,6.14,22.47-1.12,5.24,5.32,7.46,3.54,13.02,1.31,5.07.83,11.51.27,16.86,1.37,6.91-4.88,9.73-6.34,15.4-4.5,3.5-3.31,9.64-8.36,12.55-3,7.31-9.81,13.1-15.84,18.09,5.07,11.62,8.54,23.9,12.86,35.84-1.02,9.74,10.24,5.52,14.49,9.91,2.75.24,6.78,1.68,8.64-1.15,5.87-11.37,9.87-23.49,12.42-36.16,3.15-14-.73-27.81.65-42.57.67-1.42,1.68-2.4,3.09-3.05,3.92.47,9.62-1.48,11.02,3.12l-.08,17.72c2.73,1.34,6.58.44,8.31,3.97,3.8,5.5,1.24,13.14-1.72,18.17-1.27,7.11-11.63,1.82-10.68,10.24-2.46,9.95-6.1,19.34-9.22,29.06-1.88,6.23-2.56,13.21-6.75,18.13-8.77,1.06-15.97-5.01-23.94-5.7l1.08,3.63c6.29,10.97,1.84,25.38-2.47,35.74-5.63,11.92-12.14,23.5-20.61,34.16-4.22,14.55-3.32,29.13-6.1,44.53.83,6.68-4.36,16.05,4.14,19.4,1.4,4.15.94,9.61-1.25,13.33-2.86.76-5.92,2.38-8.98,1.18-4.03-1.66-8.51-3.1-9.82-7.94-1.6-3.4,1.02-6.01,2.34-8.63-1.12-11.95,1.23-26.27-1.76-37.87-2.07-4.73,1.13-11.7-2.66-15.79-7.12-.89-15.44.06-22.12-.84-2.66,9.49-1.27,20.65-2.86,30.71l-.77,1.53c.93,5.59-1.59,10.72-2.49,16.19-.9,2.73-.03,5.68.83,8.22,2.62,2.3,1.61,7.11.7,9.82-1.63,4.94-6.89,5.01-11.49,4.68-2.52-1.55-4.27-3-6.21-5.09-1.19-2.94-1.5-7.54,1.99-9.48.05-9.96,3.61-20.46.14-29.89l-.71-13.01c-2.27-7.45-1.88-15.76-3.82-23.33-5.56-2.77-7.6-9.01-10.99-13.85-2.39-3.07-2.48-7.12-5.09-10.2-.84-4.27-3.36-7.69-3.45-12.28-1.63-2.2-1.83-5.47-1.91-7.9-1.87-2.96.04-7.87.05-11.01h-.45s-.82-16.58,1.25-21.6c2.08-5.02,6.05-17.79,6.05-17.79Z"/>
        <path class="cls-9" d="M154.87,16.15c-4.63,3.12-6.51,11.67-13.84,8.24-3.82-2.31-7.19-5.28-11.78-5.22.08,5.72,7.19,5.76,10.57,9.15,2.92-.09,4.12,3.32,5.44,5.16,2.49,5.39-8.15,8.07-2.03,12.15-.22,1.98,1.85,1.33,2.72,1.99,5.02.57,3.1-5.03,5.19-7.43,5.64-8.27,9.26-18.11,8.79-27.96-1.77,1.64-2.77,3.7-5.07,3.92Z"/>
        <path class="cls-9" d="M56.71,17.63c-1.88,5.47,4.44,8.47,6.62,12.74,3.26,6.69,8.03,12.73,13.35,18.55,2.09-.76,4.51-.64,6.28-2.37-.33-3.85-7.08-7.71-3.44-13.05,3.51-3.27,5.28-8.3,6.72-11.79-3.84,1.41-7.15,5.34-9.89,7.83-.54,2.3-1.52-.86-2.73-.33-5.14-.15-6.42-6.6-11.35-7.19-1.1-2.4-3.72-3.07-5.57-4.41Z"/>
        <path class="cls-9" d="M98.75,131.09c-5.27.97-6.39,7.2-7.94,11.35-1.67,4.9,2.91,6.69,4.64,9.87,5.56,6.71,13.97,7.41,22.08,6.9,4.28-2.08,9.2-3.9,12.62-7.51,3.72-.64,3.19-5.12,4.75-7.86-1.73-5.69-2.04-13.01-8.58-15.78-8.4-5.41-20.85-5.7-27.57,3.03Z"/>
        <path class="cls-10" d="M106.61,131.13c-.99,3.4,1.4,5.91,3.92,7.12,3.6,1.04,8.09.49,9.86-3.56,1.54-3.15-.64-5.91-2.7-8.23-4.16-1.77-10.71-.82-11.08,4.66Z"/>
        <path class="cls-10" d="M112.02,145.72c-2.31.2-3.48-3.85-5.89-2.34-.88.76-1.66,2.08-.77,3.06,3.47,3.07,7.61,5.71,12.55,4,1.97-1.96,7.13-3.36,5.61-6.97-4.15-3.63-6.48,5.66-11.51,2.25Z"/>
        <path class="cls-9" d="M102.49,169.97c-6.57.74-9.74-1.37-14.91,2.99.55,3.49-4.3,6.72-6.15,9.73-10.26,16.82-9.93,39.66-15.93,58.78-1.77,5.88-.62,12.67,3.1,17.41,1.37,5.25,5.3,8.55,7.01,13.83,6.44,7.47,11.33,16.37,19.96,21.31,9.39.6,18.15,2.4,28,1.67,2.08-1.74,5.35.68,5.92-3.48,1.43-.74,1.97-1.4,2.74-2.71,7.03-3.91,10.04-12.53,17.06-16.43,3.09-5.12,6.48-9.93,7.92-15.72,3.08-4.69,4.11-10.05,6.43-14.97-1.51-7.66-2.87-15.44-6.68-22.15-3-10.83-7.78-20.91-10.47-31.88-2.6-2.1-1.04-5.91-3.88-7.91-1.29-3.82-3.77-6.33-7.7-9.19-12.03.26-20.27,0-32.42-1.27Z"/>
        <path class="cls-9" d="M145.02,100.8c-3.75,2.6-5.46,6.62-7.42,10.94-.74,3.15-.03,6.41.67,9.34,2.47,1.74,1.11,6.95,3.79,9.47,7.26,5.36,16.39,8.43,23.99,1.64,3.57-3.81,5.44-8.45,6.47-13.65-.81-4.11-1.48-8.25-2.53-12.52-4.3-6.51-11.86-9.51-18.81-7.55-1.62,1.94-4.27.95-6.16,2.33Z"/>
        <path class="cls-9" d="M61.19,104.01c-4.01,3.47-5.64,9.64-4.86,14.85-.2,5,2.69,10.97,6.07,14.47,4.5,2.63,10.19,5.16,15.35,2.46,4.11-1.82,6.36-6.91,8.94-10.49.65-5.53,2.11-11.93-1.16-16.52.47-3.89-3.53-5.65-5.38-7.83-6.14-1.89-14.04-2.04-18.96,3.04Z"/>
        <path class="cls-10" d="M147.3,110.68c-1.11,4.56-1.12,7.24-.06,11.61,3.32,2.2,5.76,8.46,9.92,6.14,3.87-.5,6.5-5.55,7.5-9.77,1.55-6.37-1.87-10.1-5.85-12.13-4.01-4.25-9.42-.41-11.51,4.15Z"/>
        <path class="cls-10" d="M63.94,115.27c.27,5.33.83,11.52,5.58,13.31,4.51-.34,10.01-.48,11.63-6.86-1.13-5.3-.94-12.2-6.29-14-5.49-3.76-8.59,3.67-10.91,7.55Z"/>
      </g>
      <g>
        <g>
          <path class="cls-6" d="M100,162.83c-5.77-4.76-12.21-4.94-14.25-1.29-2.04,3.65-6.5,15.14-2,20.1,4.5,4.96,23.04-1.78,23.04-1.78l-.5-11.33s-.51-.95-6.29-5.71Z"/>
          <g class="cls-11">
            <g>
              <path class="cls-2" d="M73.19,176.84c-2.86,0-2.71.14-2-1.78.71-1.92,10.41-4.82,22.13-14.27,4.42-3.07,9.76-7.67,10.2-7.81,1.42-.46,1.42,1.25,1.42,2.07s-28.88,21.78-31.74,21.78Z"/>
              <path class="cls-2" d="M78.07,183.2c-2.86,0-2.71.14-2-1.78.71-1.92,10.41-4.82,22.13-14.27,4.42-3.07,9.76-7.67,10.2-7.81,1.42-.46,1.42,1.25,1.42,2.07s-28.88,21.78-31.74,21.78Z"/>
              <path class="cls-2" d="M83.61,188.44c-2.86,0-2.71.14-2-1.78.71-1.92,10.41-4.82,22.13-14.27,4.42-3.07,9.76-7.67,10.2-7.81,1.42-.46,1.42,1.25,1.42,2.07s-28.88,21.78-31.74,21.78Z"/>
            </g>
          </g>
        </g>
        <g>
          <path class="cls-6" d="M117.17,167.58c1.69-3.46,9.14-10.05,13.56-8.86,4.43,1.19,5.72,5.37,6.76,8,1.04,2.63,1.75,9.03,1.11,11.45-.65,2.42-7.87,4.88-11.97,4-4.11-.88-9.33-4.2-9.33-4.2l-.12-10.39Z"/>
          <g class="cls-7">
            <g>
              <path class="cls-2" d="M108.15,180.95c-2.81.53-2.64.64-2.29-1.38.34-2.02,9.35-6.65,19.12-18.1,3.78-3.83,8.18-9.33,8.59-9.55,1.31-.71,1.62.97,1.77,1.77.15.81-24.37,26.73-27.19,27.26Z"/>
              <path class="cls-2" d="M114.12,186.3c-2.81.53-2.63.64-2.29-1.38.34-2.02,9.35-6.65,19.12-18.1,3.78-3.83,8.18-9.33,8.59-9.55,1.31-.71,1.62.97,1.77,1.77.15.81-24.37,26.73-27.19,27.26Z"/>
              <path class="cls-2" d="M120.53,190.43c-2.81.53-2.63.64-2.29-1.38.34-2.02,9.35-6.65,19.12-18.1,3.78-3.83,8.18-9.33,8.59-9.55,1.31-.71,1.62.97,1.77,1.77.15.81-24.37,26.73-27.19,27.26Z"/>
            </g>
          </g>
        </g>
        <g>
          <path class="cls-6" d="M104.43,166.65c-1.1,1.24-.82,13.12-.13,14.04.69.92,4.51,1.82,5.9,1.98,1.39.16,9.07-.58,9.13-5,.06-4.42,0-9.22-1.03-10.69-1.02-1.47-11.39-3.12-13.86-.33Z"/>
          <g class="cls-8">
            <g>
              <path class="cls-2" d="M92.41,185.63c-2.73.85-2.54.94-2.44-1.11.11-2.04,8.52-7.68,16.92-20.17,3.31-4.24,7.06-10.21,7.43-10.48,1.22-.86,1.72.77,1.97,1.56.24.78-21.15,29.35-23.88,30.2Z"/>
              <path class="cls-2" d="M98.96,190.26c-2.73.85-2.54.94-2.44-1.11.11-2.04,8.52-7.68,16.92-20.17,3.31-4.24,7.06-10.21,7.43-10.48,1.22-.86,1.72.77,1.97,1.56.24.78-21.15,29.35-23.88,30.2Z"/>
              <path class="cls-2" d="M105.8,193.63c-2.73.85-2.54.94-2.44-1.11.11-2.04,8.52-7.68,16.92-20.17,3.31-4.24,7.06-10.21,7.43-10.48,1.22-.86,1.72.77,1.97,1.56.24.78-21.15,29.35-23.88,30.2Z"/>
            </g>
          </g>
        </g>
      </g>
      <g>
        <path class="cls-5" d="M4.12,209.39c4.24-8.09,92.01,1.15,92.01,1.15,0,0-2.28,36.44-3.01,42.53-.72,6.09-1.47,24.56-1.47,24.56,0,0-39.34-1.11-54.56-2.56-15.22-1.45-37.1-3.81-37.1-3.81,0,0,1.91-42.38,4.12-61.86Z"/>
        <path class="cls-3" d="M5.72,198.51c-1.22,3.49-1.6,10.88-1.6,10.88,0,0,53.37,1.32,63.16,1.69,9.78.36,28.86.16,28.86.16l.51-10.96s-87.12-2.79-90.93-1.76Z"/>
        <path class="cls-9" d="M69.26,217.45l20.25-.29s-2.6,25.36-2.6,29.38-1.87,21.1-1.87,21.1h-19.14s.99-20.76,2.97-34.85"/>
        <path class="cls-9" d="M14.33,217.28s-1.25,24.01-1.52,27.29c-.26,3.17-.44,17.59-.45,18.59,0,.04-.12-2.83,0,.05.12,2.89,1.81-.44,1.49-2.71.61-4.31,1.21-19.19,1.33-22.9,0-1.76.91-18.38.98-20.42.08-2.04-1.68-2.75-1.83.08Z"/>
        <g>
          <path class="cls-3" d="M72.4,218.91c2.55-.26,12.05.19,12.85.73.8.54-7.59,5.68-9.11,6.26-1.52.58,7.97,2.52,8.65,2.95.68.43.39,1.07-1.04.99-1.43-.08-9.3-1.83-10.05-2.4-.75-.56-1.35-1.51-.28-1.97,1.07-.46,7.79-4.52,7.3-4.68-.49-.16-7.11-.93-7.76-.96-.65-.04-1.99-.77-.55-.91Z"/>
          <path class="cls-3" d="M83.5,238.64c.82-2.13-1.04-6.79-5.47-7.04-4.43-.25-7.77,3.36-6.63,6.36,1.14,2.99,9.81,6.63,12.1.69ZM76.27,239.47c-1.42-.21-3.49-.59-3-2.39.49-1.8,1.9-4.46,4.18-3.94,2.28.52,4.82,2.19,3.7,5.37-.7,1.99-3.46,1.17-4.89.96Z"/>
          <path class="cls-3" d="M81.56,247.88c.31-1.91.47-4.84,1.25-4.68.77.16.37,2.78.37,4.19,0,1.41-.38,6.66-.43,7.59-.05.93-.32,1.38-.82.69-.49-.7-.51-5.39-.51-5.39,0,0-8.33-.49-9.94-.56-1.61-.08-1.41-1.03.46-1.3,1.87-.27,9.62-.55,9.62-.55Z"/>
          <path class="cls-3" d="M83.09,265.51c.07-1.18-.45-7.35-.46-7.77-.02-.85-11.42-1.55-12.02-.12-.32.76-1.05,6.31-.71,7.14.34.83.5.78.92.05.43-.72.87-5.9.87-5.9l3.86-.09s-.06,4.27.27,5.09c.33.83.26.7.67-.52.42-1.22.41-4.56.41-4.56l4.65.2s.26,5.04.56,6.43c.3,1.39.94.68.97.06Z"/>
        </g>
      </g>
      <path class="cls-4" d="M51.13,244.95c2.39,2.31,3.01,5.03,3.61,7.74-1.19,3.06-3.93,5.23-6.74,7.35-2.89.74-6.4,2.84-9.31.41-3.09-2.87-5.16-6.84-5.21-10.97,1.67-3,2.55-7.49,6.82-7.93,0,0-.28-13.59-2.14-18.2-1.86-4.61-1.13-15.61-.54-18.55.73-3.6,7.77-9.23,12.75-13.89,4.98-4.65,17.96-9.69,19.42-9.97,2.92-.55,2.34-.04,2.34-.04l-6.25,15.41s-8.39,6.03-12.41,8.49c-4.02,2.45-4.24,9.48-4.24,9.48l-.32,7.41,2.22,23.27Z"/>
    </g>
  </g>
</svg>