<?xml version="1.0" encoding="UTF-8"?>
<svg id="_レイヤー_2" data-name="レイヤー 2" xmlns="http://www.w3.org/2000/svg" viewBox="0 0 406.66 344.54">
  <defs>
    <style>
      .cls-1 {
        fill: #251e1c;
      }

      .cls-2 {
        fill: #d4812b;
      }

      .cls-3 {
        fill: #fff;
      }
    </style>
  </defs>
  <g id="_背景" data-name="背景">
    <g>
      <path class="cls-2" d="M269.95,3.62c4.93,5.58,8.14,11.57,10.07,18.21,12.86,3.86,27.86,5.36,35.57,18.21.42,8.14-9,7.29-13.5,11.14-4.5.22-10.07-1.07-12.43,3.22.86,5.14-2.57,14.14,4.93,15.85,8.35.22,13.71,7.72,20.57,11.57,4.72-1.93,11.14-.22,15.22-3.43-1.29-9.64,1.07-19.07,9.21-23.57,8.15-3,12.86,4.72,17.79,9.64,1.07,3,3.43,5.36,5.14,8.14,11.14,3.22,24.22.86,33.64,8.14,2.36.86,1.29,3.86.86,5.36l-4.72,4.72-48,18.21c-.22,1.71,1.5,2.36,2.36,3.43,9.65-2.57,19.72-5.15,30.21-3.86,10.07,7.93,23.15,12.64,29.79,24.43-8.57,6-20.14,4.72-31.07,4.93-7.29-.86-13.29-4.93-20.14-6.86-4.72,18.21-8.79,36.65-11.15,55.72-5.57,15.86-22.28,14.14-34.07,20.57-3-.86-4.08,2.15-6.65,2.36-11.35-.65-20.57,4.71-31.71,4.92-1.93,3.64-1.72,8.57-3.64,12.43,0,5.57-2.57,11.79.43,16.71,35.78,5.36,73.28.86,107.35-5.36,3.21,0,5.79,3.64,6.64,6.21.22,3.43-1.93,6.22-4.72,7.29-1.5-.22-2.57.42-3.42,1.5,1.07,6.43,11.57,8.14,8.14,15.86-1.07,2.57-2.57,5.15-4.72,7.5-10.93,1.5-17.57-7.07-25.93-11.36-6.64-16.29-22.92-3.21-34.93-5.79-19.28,3.86-40.07,4.07-60.42,5.14-12.85,20.15-34.07,28.5-52.71,37.93-28.5,12.21-67.07,1.5-88.71,27.85-2.36,4.28-1.07,10.29-4.93,13.93-8.36-6.65-14.36-17.14-10.93-27.43-4.28-3.21-10.93-3-15.86-5.57-24.22-7.93-42.22-25.93-60-45.21-9.43-9-10.29-22.93-21-30.21-4.5-3.86-1.93-10.72-.43-15.22,2.36-5.36,6.43-9.42,10.93-13.07,4.29-2.36,9.65-5.57,14.79-2.79,3.43,1.5,4.08,4.93,4.5,8.14-.86,8.14-5.36,15-11.14,21,13.72,20.57,35.57,36.42,56.14,46.49,1.72-2.14-1.07-4.72-1.5-7.07-3.86-9.42-.43-22.07-2.79-32.14,0-7.28,6.64-14.79,1.5-21.21-13.29-22.5-34.07-43.07-28.29-72.43-.86-6.21,4.72-8.78,6.22-14.36,6-4.5,10.5-7.07,18.64-5.14,3.64.64,3.64,4.71,3.86,7.71,1.28,8.36-5.36,13.72-11.57,17.14-.86,1.28-2.78-.43-3.43,1.5,2.57,9.22,5.57,17.14,11.14,25.29,6.86,10.29,17.14,16.07,26.78,21.64,7.28-.86,12.86-6,21.21-4.71,5.57-3.21,12.64-3.21,19.07-4.28,9.22-1.5,19.08-.86,27.43-4.51-13.07-22.49-13.92-49.92-28.29-71.78-6.43,1.07-11.14-3.43-16.93-5.36-4.07-3.21-8.14-7.28-10.07-12-.22-5.14,0-10.93,5.36-13.28,6-1.07,13.29-1.5,17.79,4.72.42.65.42,1.5,1.29,1.93,3.85-2.36,1.93-13.28,9.21-9.22,5.79,7.5,2.79,18.21,4.29,27.42,8.78,15,15.21,31.28,24.85,46.07,4.29,5.79,4.08,14.79,11.14,17.79,11.36-1.93,2.57-14.15,3.86-21.21-2.14-16.93-5.79-33.22-6.21-50.78,7.5-22.93,32.57-25.71,49.71-36.43-4.71-3.43-10.93.43-16.28-1.5-8.58-3-18.43-3.21-25.71-8.99-5.57-9.01-11.79-17.57-13.93-27.86,8.78-9.43,20.14,1.5,30.64-.43,10.07.43,20.78,1.29,26.35,10.93,4.72,5.79,6,14.14,12.86,17.78,3.86-3.86-1.07-7.71.64-12.43,1.93-14.79-4.07-35.14,12.43-43.28,4.51-.86,8.14,1.28,11.36,3.42"/>
      <path class="cls-3" d="M264.81,15.19c1.5,4.93,2.36,10.5,3.43,15.86,8.57,5.15,20.36,3.21,29.57,7.07-5.57,6.43-20.57-1.72-21.43,10.5-.43,3.86-1.5,7.72-1.07,11.15l-12.43-1.93c-2.14-13.07,2.14-24.85-1.93-36.85.22-2.57,1.08-5.36,3.86-5.79"/>
      <path class="cls-3" d="M356.73,86.97c5.79-1.28,13.07-1.28,18.86,0-13.29,2.79-26.14,7.93-39.43,11.57l-5.15-5.36c5.36-1.93,13.07-3,16.72-8.57,0-4.93-6.43-9.01-1.93-13.93,6.64,3.85,4.5,12.43,10.93,16.28"/>
      <path class="cls-3" d="M243.6,102.41c3.21,4.72,2.57,12.21,1.93,17.14-4.28,8.36-12.43,15-21,18.43-9.64.64-17.36-5.36-23.15-12-3.64-6.65-3-13.93-.42-20.79,3-7.93,10.5-13.72,18.21-15.64,9.86.43,20.36,4.07,24.43,12.86"/>
      <path class="cls-1" d="M234.6,106.69c1.72,8.35-3.21,16.07-10.07,20.57-3.64,1.07-7.07.86-10.07-.86-2.57-5.36-9.86-11.14-4.29-17.35-1.07-4.08,3.86-6.22,6.22-8.57,5.79-1.72,15.43-1.72,18.21,6.21"/>
      <path class="cls-3" d="M331.88,150.4c4.93,4.07,4.72,10.93,3.86,16.71-3.43,5.57-4.07,13.72-11.57,16.29-9.64,4.5-22.5,4.07-31.5-1.5-4.92-4.93-8.57-11.14-6.21-18.64,3.43-9.86,13.28-20.14,23.79-22.07,8.99-1.29,14.78,5.56,21.64,9.21"/>
      <path class="cls-3" d="M259.02,166.26c.42,5.57-.22,11.14-4.72,14.36-2.36,3.43-6.64,2.14-9.22,4.72-13.5-1.72-25.92-7.29-35.35-17.35l-.65-9.43c3.43-5.79,9.22-10.07,15.43-11.14,14.79-1.93,25.93,7.28,34.5,18.85"/>
      <path class="cls-1" d="M248.1,159.4c.22,3.22-1.72,5.15-4.5,6.22-4.28-1.07-10.07-.86-12-5.79-.42-3,3-4.29,4.93-5.57,4.93-1.07,8.14,3.43,11.57,5.14"/>
      <path class="cls-1" d="M226.45,158.55c.22,4.72.22,10.29,5.79,12,8.14-1.29,15.21,3,22.07-1.93,1.5.22,2.36,2.36,1.29,3.86-7.71,4.28-16.93,7.5-26.36,4.71-5.14-3.85-13.07-9.86-10.5-17.78.86-3,7.5-6.21,7.71-.86"/>
      <path class="cls-1" d="M327.59,160.9c1.07,4.28-1.5,8.35-3.86,12-6.85-1.07-14.56-4.28-21.64-1.07-2.14.43-4.5-.22-4.28-2.78-.43-5.15,3.21-8.36,6.21-12,7.07.65,18.85-3.85,23.57,3.86"/>
      <path class="cls-3" d="M232.66,200.12l25.93,12c-2.78,12.64-7.71,24-13.5,35.14-5.78,6-10.07,15.64-18.21,19.07-21,18.64-46.93,23.57-76.28,23.57-16.93-1.5-32.15-7.71-47.36-13.5-4.07-4.72-10.71-4.72-11.57-11.57-3.86-12.43-5.79-25.28-1.5-38.36,7.93-18.64,29.57-10.5,44.57-15.21,21.86-6,45.21-9,58.5-30.64,3-6.86,4.08,2.14,7.72,1.29,10.28,6.64,21.43,11.57,31.71,18.21"/>
    </g>
  </g>
</svg>