<?xml version="1.0" encoding="UTF-8"?>
<svg id="_レイヤー_2" data-name="レイヤー 2" xmlns="http://www.w3.org/2000/svg" viewBox="0 0 211.73 357.95">
  <defs>
    <style>
      .cls-1 {
        fill: #cf9f67;
      }

      .cls-2 {
        fill: #d68257;
      }

      .cls-3 {
        fill: #fff;
      }

      .cls-4 {
        fill: #cb5520;
      }

      .cls-5 {
        fill: #646464;
      }
    </style>
  </defs>
  <g id="_背景" data-name="背景">
    <g>
      <g>
        <path class="cls-1" d="M162.11,3.97c1.96,4.08.39,8.52.56,12.86-1.65,11.3-5.38,21.25-7.9,31.84,1.5-.51,2.53-1.98,3.08-3.57,5.62-1.94,10.87-7.4,16.84-7.19,9.33,2.73,19.97,3.53,27.79,8.31,1.68,1.6,1.83,3.88.97,6.08-8.23,4.24-16.1,7.7-23.89,12.22-4.73,1.11-9.51,2.39-14.81.1-.82,2.73,3.03,5.36,3.18,8.32,1.86,9.56,6.76,18.63,8.46,28.15,2.04,4.44.68,9.45,1.87,13.86.45,10.42-4.5,20.43-10.54,27.77-5.51,7.98-9.66,16.8-18.81,22.02.16,2.96,2.07,6.51,2.47,9.88,4.8,10.94,7.62,22.27,12.05,33.3,4.61,8.84,13.14,12.75,21.27,16.91,4.59-3.38,4.79-10.04,8.19-14.22,1.7-3.55,3.2-6.98,4.87-10.37-2.71-2.36-6.08-5.57-6.53-9.46-.36-2.84,2.14-4.66,3.66-6.7,3.76-1.34,7.9-5,11.64-1.19,3.26.77,4.68,4.21,5.2,7.08-1.51,12.89-8.21,23-12.13,34.45-2.91,1.38-1.8,5.42-4.58,7-.77,3.26-2.48,6.12-5.06,8.26-5.97,2.71-9.82-3.53-15.79-3.75-2.64-.45-4.17-2.71-6.82-3.17-1.01,7.16-1.79,16.26-5.04,23.41-.53,10.2-7.54,17.99-11.24,27.09-2.16,2.58-4.48,5.13-6.36,7.95-3.27,4.38-5.85,9.45-9.83,13.15,6.7,10.19,13.52,19.89,21.78,28.56,3.4,2.36,6.75-2.35,10.47-.61,2.11-.19,2.54,1.63,3.88,2.47,1.46,3.27.5,7.34-.93,10.44-3.28,3.69-8.87,8.39-14.29,6.58l-3.34-1.14c-7.63-13.51-18.97-24.45-30.33-33.85-15.93,8.43-28.84,18.61-45.87,23.69-4.44,2.04,2.52,6.79-.11,10.64-.25,3.21-1.55,5.82-4.71,6.8l-7.36-.88c-4.02-6.98-3.57-16.85,1.18-23.11,6.83-2.68,12.48-9.08,18.92-13.06,1.71-2.86,5.81-2.75,6.66-6.33,3.56-4.14,9.43-5.68,12.46-10.46-2.19-3.1-5.49-4.4-8.44-6.48-4.23-3.93-9.81-5.77-13.4-10.23-2.56,2.83-6.44,4.67-10.63,4.19-4.11-.8-8.22-1.61-10.21-5.52-1.2-2.18-2.04-4.44-1.83-6.8,1.82-4.04,7.52.92,8.92-4.25-10.9-14.97-11.89-33.26-7.92-50.73,1.79-6.11,2.59-13.83,5.53-19.67-6.55-.69-14.46-4.29-21.05-1.9-1.8-1.12-3.49.21-5.24.31l-10.83.7c-4.69,5.25-9.05,10.58-11.93,16.95,1.84,4.56,2.15,9.8-.39,14.7-2.63,4.54-7.74,1.43-11.12.46-4.21-2.55-4.52-7.78-4.77-11.8.56-4.51,4.3-6.55,7.07-9.5,3.24-7.14,7.51-13.53,12.06-19.67,15.98-4.99,32.05-8.22,49.4-3.76,5.39-7.5,2.08-16.02,5.79-24.43-5.72-3.42-10.57-7.66-15.37-12.07-13.07-16.69-16.82-37.88-7.63-57.02,4.32-8.78,9.46-16.68,12.59-26.26-4.79-.11-9.29,3.64-14.31,5.21l-28.5-6.76c-1.92-1.32-2.8-3.42-3.84-5.56.91-5.28,7.34-7.72,11.41-9.68,8.38-4.89,17.55-12.35,27.83-4.92,2.12.5,3.72,2.43,6.27,1.83-6.85-9.54-14.62-17.4-19.02-28.59-1.02-3.68-1-8.84,1.97-11.92,2.04-2.1,4.83-2.98,7.51-3.38,6.65,3.13,12.51,7.44,17.64,12.62,5.78-5.51,10.95-11.34,19.22-12.13,3.26.77,6.48,2.4,7.34,6.04-2.7,8.48-4.09,17.95-9.73,24.35.11,2.43,2.32,3.99,3.84,5.55,4.4,1.74,7.89-2.08,12.55.74,6.23-1.62,13.2.9,19.66.54,4-1.63,2.63-7.46,6.22-9.53-5.14-5.86-13.06-9.46-15.4-18.45-.47-2.35-.51-5.11.85-7.2,4.96-6.39,12.16-1.24,17.94-.22.72,2.75,4.68,1.28,5.89,3.46l1.14.27c3.71-5.48,6.95-12.62,14.41-13.61,3.21.25,5.62,1.68,7.31,3.97Z"/>
        <path class="cls-3" d="M151.58,22.97c-.98,9.23-6.12,17.12-6.66,26.63l-7.74-2.18c.18-5.12,3.44-7.96,3.78-13.04-1.9-6.47-8.38-8.18-12.61-12.11-.6-2.55-3.24-3-3.88-5.39,4.45,2.26,9.78,3.01,13.19,6.74,2.93.7,6.03,2.12,8.43-.75l7.09-11.05c-.03,3.78-1.13,6.96-1.61,11.14Z"/>
        <path class="cls-3" d="M81.85,46.51c-2.62,1.62-5.68.72-7.67,3.34l-1.14-.27c-7.27-9.98-14.59-18.26-19.8-29.64l.39-1.63c2.87,2.4,6.51,4.47,8.5,7.69,3.63,1.38,5.55,6.31,10.62,5.27,4.87-3.14,7.45-8.21,12.41-10.99-.94,9.07-14.27,18.11-3.29,26.22Z"/>
        <path class="cls-3" d="M163.86,101.74c4.57,2.46,4.2,8.39,5.39,12.8-1.52,8.58-5.36,16.79-13.61,18.96-5.55.92-9.82-2.84-13.87-5.36-3.83-7.79-5.08-17.03-1.37-26.13,2.97-2.39,6.06-5.27,9.96-5.03,2.61-2.3,6.38-.04,8.9.9.99,1.61,2.99,2.6,4.59,3.84Z"/>
        <path class="cls-5" d="M163.1,112.22c.34,4.38-1.43,9.64-5.01,12.4-1.01-2.99-2.79.88-4.3.01-4.83.06-7.47-3.32-9.1-7.32.6-3.98-.2-10.02,3.5-12.58-.07-2.6,2.63-.93,3.96-1.47,5.73.5,8.7,4.65,10.95,8.96Z"/>
        <path class="cls-3" d="M86.86,112.37c1.33,5.99-.34,15.23-5.12,19.43l-5.97,3.4c-2.88.52-6.71-.73-9.36-1.88-6.45-6.17-9.23-14.75-8.48-23,2.46-4.57,6.25-10.38,12.01-10.74,8.47-.91,15.53,4.89,16.92,12.79Z"/>
        <path class="cls-5" d="M81.24,114.3c.12,3.12,1.39,7.21-1.18,10.04-1.93,1.61-4.43,2.73-6.74,3.05-2.18-2.41-6.42-.49-7.36-4.5-1.88-4.4-4.7-9.89-.86-14.48,2.01-1.93,4.97-2.09,7.73-2.12,3.59,1.54,8.45,3.55,8.42,8.01Z"/>
        <path class="cls-3" d="M130.92,134.01c2.78,2.03,2.94,5,3.95,7.99-3.17,9.74-14.32,13.97-23.53,14.37-7.86-1.69-17.42-3.44-20.31-11.52-.52-2.88.12-7.03,2.49-9.05.16-7.18,8.3-5.25,10.5-10.92,6.09-3.2,12.77-1.61,18.69,1.68l8.21,7.46Z"/>
        <path class="cls-5" d="M119.74,128.94c-.26,1.83.65,3.77-.75,5.33-2.69,2.63-6.49,4.14-9.68,1.66-1.78-2.66-3.64-5.68-1.81-9.03,2.06-.71,2.97-3.08,5.12-2.74,2.89.86,5.79,1.72,7.12,4.79Z"/>
        <path class="cls-5" d="M106.03,140.31c2.76,2.89,6.33,6.66,10.7,4.95,2.04-2.09,4.16-5.2,7.12-5.36-1.2,4.36-4.24,8.45-7.16,12.06-7.36-.89-15.47-3.67-17.44-12.05-.23-1.95-2.65-4.07-.48-5.96,5.5-5.06,4.59,3.84,7.26,6.37Z"/>
        <path class="cls-3" d="M142.93,173.31c5.78,21.33,17.34,41.44,15.1,63.96-1.52,5.66-.83,12.19-4.51,16.82l-.23,4.59c-4.54,7.53-6.57,16.84-12.96,22.73-1.92,5.91-7.23,9.47-9.89,14.86-1.45,1.03-2.68.4-3.75-.89-13.81-17.9-26.88-37.51-31.64-58.76-7.29-22.2-9.07-45.15-3.48-69.46,9.87.45,19.26-1.45,29.14-.31,6.74-.12,13.65.48,20.37-.33.92,1.93,2.04,4.44,1.83,6.79Z"/>
      </g>
      <g>
        <path class="cls-4" d="M119.8,220.91c18.38-15.82,24.89-28.07,30.55-50.47.83-1.94.15-3.96-1.43-5.68-9.53,4.37-20.76,5.26-34.32,5.26s-22.8-.3-38.15-3.55c.86.98-1.8,3.41-.93,4.35,30.36,28.28,30.36,36.02,44.29,50.08Z"/>
        <path class="cls-4" d="M75.51,166.47c-4.73-2.09-14.17-13.49-19.31-13.8-5.14-.31-12.15-2.87-24.76,2.42,4.83,5.6,26.73,13.39,31.74,12.61-17.41.97-24.89,6.07-32.67,12.15,16.04,5.76,37.68,1.25,44.07-8.72,6.38-9.97.93-4.66.93-4.66Z"/>
        <path class="cls-2" d="M81.66,170.51c10.82,5.61,30.29,8.46,42.19,6.08,5.01-1,3.82-.83,2.89.44-.93,1.27-10.87,3.24-19.99,1.94-9.12-1.3-21.43-4.55-29.06-8.67-2.17-1.17,3.97.22,3.97.22Z"/>
        <path class="cls-4" d="M83.16,168.63c0,1.49-2.3,4.4-1.51,5.19.79.79-.7,2.6-2.1,2.76s-6.8-2.34-7.14-5.29c-.34-2.96-.65-7.32,2.15-7.79,2.8-.47,8.59-1.56,8.59,5.13Z"/>
      </g>
    </g>
  </g>
</svg>