<?xml version="1.0" encoding="UTF-8"?>
<svg id="_レイヤー_2" data-name="レイヤー 2" xmlns="http://www.w3.org/2000/svg" viewBox="0 0 310.86 441.4">
  <defs>
    <style>
      .cls-1 {
        fill: #d17f3c;
      }

      .cls-2 {
        fill: #fff;
      }

      .cls-3 {
        fill: #262424;
      }
    </style>
  </defs>
  <g id="_背景" data-name="背景">
    <g>
      <path class="cls-1" d="M238.05,2.52c12.72,19.26-5.83,36.05-11.66,53.02-2.3,1.94-4.07,4.06-3.53,7.24,9.54.35,16.61-7.95,25.09-12.02,19.44-5.13,34.28,10.43,52.49,13.08,2.3,1.77,5.3,3.89,4.59,7.42-11.84,9.37-24.21,25.09-41.88,19.26-9.37-3.18-19.79-3.53-27.75-9.9-1.41.18-2.12-.53-3.18-1.06l-1.06,1.06c7.95,10.07,16.44,20.5,24.21,30.39,4.95,9.01,7.6,19.62,5.65,30.93-12.19,17.32-23.86,35.88-36.23,53.55l-6.19,7.24c-.17,12.9-.17,25.8,2.12,37.82,8.13,9.72,19.26,16.97,28.8,26.15,3.01.36,4.07-3.89,6.72-4.06,8.31-7.07,18.2-10.25,26.33-17.85,6-.89,5.3,8.13,11.49,7.25,6.19,1.24,14.32-12.73,16.79-1.06-1.24,7.6-2.3,16.08-9.9,19.97-3.53,1.77-8.48,1.24-12.19.53-3.71-1.59-6.01-5.83-9.37-7.95-6.72,8.66-17.14,13.79-22.62,23.15-3,4.07-7.95,4.95-12.55,3.71-7.42-5.48-13.43-12.01-19.97-18.38h-3.01l-1.06,22.09c-9.54,19.97-20.32,38.52-37.29,54.96,10.07,8.48,18.91,17.32,26.15,28.28,1.24,4.07.89,7.6-1.94,10.6-11.31,9.72-21.03,19.27-31.1,30.4,5.65,3.71,17.67-4.07,18.91,6.71.88,6.19-2.65,11.49-8.31,14.67-7.95,3.01-18.2,1.95-24.74-3-4.07-3.53-8.31-8.31-5.66-14.32,9.37-14.67,21.38-27.92,31.45-42.41-.89-7.77-10.25-8.3-15.2-12.55-9.72-1.24-16.79-7.78-25.8-10.43-11.13-.7-20.32-7.77-31.45-6.89-2.12-2.12-5.83-.18-8.31-1.59-13.61-2.47-30.22-2.47-42.41,2.65l-27.39,36.75c-6.72,1.42-13.43,0-18.38-4.24-6.72-5.84-6.89-15.38-5.65-23.15.35-3.18,3-6.01,5.65-7.77,4.24-1.95,7.25.18,10.6,2.65,3.01,4.06,1.59,12.72,8.84,12.55,6.89-12.55,11.49-26.15,18.38-38.88,7.6-10.07,22.97-6.89,34.11-6.72-1.06-20.15-3.53-41.53,4.78-59.38l1.94-13.61c-13.26-20.5-35.34-36.05-52.84-53.37-5.48-3.71-12.19-2.12-18.38-1.06-5.83,3.18-13.07.88-18.91-.53-3.36-2.3-4.77-6.36-7.25-9.54-.18-4.07,1.41-7.78,5.13-9.9,4.59-3.71,10.43-1.41,15.73-2.12-2.47-2.12-8.84-1.41-7.25-6.71,7.6-4.95,17.67-.53,24.57,4.06,7.95,8.66,15.55,18.73,25.27,25.27,11.49,11.84,26.86,16.79,40.82,24.03,3.89,1.06,6.36-2.65,8.3-5.13.71-3.71,2.65-7.07,2.65-11.13-8.84-6.72-16.08-14.31-25.63-19.44-10.07-14.14-33.05-24.21-27.74-45.06,6.36-18.73,12.55-37.47,16.79-57.08-5.66-1.41-11.66-1.41-17.32-2.12-12.37-4.59-25.98-10.43-33.58-22.09,11.14-7.6,26.86-6.54,40.82-8.84,10.43,3.53,19.26,10.96,27.92,18.91,1.06-.53,2.83,0,3.54-1.59-12.37-14.49-24.92-29.69-38.17-44-1.77-2.3-1.24-6.01-.53-8.48,3.36-1.42,7.07-3.71,10.96-2.12l28.8,9.54c6.36-3.53,12.02-7.95,19.44-8.48,3.18-2.65,6.19.71,9.37,1.06,6.89,3.89,5.65,13.43,4.24,19.97-1.24,3.36-4.07,6.01-5.3,9.37,3,5.48,9.72,5.13,12.72,10.6,9.72.35,19.27-4.59,28.81-.53,8.13-.53,6.72-9.54,10.43-14.14-6.01-6.54-14.32-10.78-18.38-19.44-1.06-1.77-1.06-4.06,0-5.83,12.55-10.25,30.75-2.65,44.71-.53,7.42-7.78,19.44-17.67,30.93-10.43"/>
      <path class="cls-2" d="M213.31,42.81l-7.78,13.61-13.25-4.6c2.47-5.83,6.54-11.66,4.24-18.91-4.95-4.77-12.37-6.36-15.73-12.55,10.43-.53,18.91,6.71,29.34,7.78,4.42.88,5.83-4.24,7.95-6.72l7.25-7.42c4.77,12.02-13.08,17.14-12.02,28.81"/>
      <path class="cls-2" d="M118.41,27.62c1.24,7.6-10.43,8.84-8.83,15.73,3.53,4.6,7.07,9.72,12.01,13.08-3.53.18-7.6,6.71-10.42.53-10.25-10.25-19.62-19.62-30.58-28.27,6.72,1.41,12.9,3.71,17.85,9.01,8.84,1.77,11.31-11.49,19.97-10.07"/>
      <path class="cls-2" d="M238.05,116.33c4.59,8.13,4.59,22.27,0,30.4-5.83,8.31-15.38,10.07-24.74,10.43-8.84.35-15.55-7.42-18.91-14.67-5.48-8.31-3.53-21.21,2.12-28.81,4.42-3.36,8.48-6.89,13.61-8.48,10.6.35,22.62,0,27.92,11.13"/>
      <path class="cls-2" d="M125.84,123.58c3.53,10.6,6.89,24.92-1.06,34.64-8.66,6.01-21.38,4.77-29.87,0-6.36-5.12-15.91-10.25-15.73-19.44-.35-10.43.88-21.74,10.96-26.68,12.72-3.36,29.33-2.48,35.7,11.49"/>
      <path class="cls-3" d="M224.37,119.55c4.24,4.24,2.83,10.78,3.18,16.79-3.36,6.18-7.95,13.78-15.73,15.2-5.83.88-11.49-.88-13.61-6.36-1.41-7.6-6.54-15.9-1.59-23.68,6.54-7.07,22.44-16.08,27.74-1.94"/>
      <path class="cls-3" d="M109.15,121.5c4.6,4.42,5.48,11.31,4.07,17.32-2.65,4.77-2.12,11.13-7.78,14.14-4.24,0-10.07.71-13.6-2.47-4.77-3.54-6.72-8.31-7.96-13.25.71-4.59.35-9.54,4.24-13.08,5.65-4.07,14.67-7.95,21.03-2.65"/>
      <path class="cls-2" d="M182.92,170.23l3.18,10.07c-1.59,13.78-15.73,12.02-26.15,13.61-10.25-.88-24.03-.35-28.45-12.02-2.83-5.65-1.95-12.19,1.59-17.32,9.72-4.6,21.21-10.07,33.58-6.36,6.36,1.95,12.73,5.83,16.26,12.02"/>
      <path class="cls-3" d="M163.48,166.69c1.41,2.65,0,4.95-2.65,6.19-5.66.88-10.78-.71-14.14-4.77-2.3-6.01,3.71-5.3,6.9-6.72,3.18.53,8.83.35,9.89,5.3"/>
      <path class="cls-3" d="M151.46,181.36c8.66,4.59,9.89-10.07,16.79-5.3-.53,3.89-2.48,7.95-6.36,9.9-8.31,1.59-17.5.53-21.91-6.72-.35-1.41.53-3-1.06-3.71,1.77-.35,3.53-2.65,5.65-1.06,2.3,2.3,3.53,5.83,6.89,6.89"/>
      <path class="cls-2" d="M199.17,205.92c-.88,2.12,1.94,2.65,2.12,4.24,5.12,27.04,9.54,56.2,8.31,83.94-9.54,18.38-23.68,35.52-39.76,50.72-11.14,8.13-22.27-3.01-32.52-6.19-20.85-10.08-30.04-32.87-27.74-55.67,7.42-25.45,11.84-52.31,22.44-76.52,22.09,2.3,45.95,2.83,67.15-.53"/>
    </g>
  </g>
</svg>