<?xml version="1.0" encoding="UTF-8"?>
<svg id="_レイヤー_2" data-name="レイヤー 2" xmlns="http://www.w3.org/2000/svg" viewBox="0 0 69.75 77.1">
  <defs>
    <style>
      .cls-1 {
        fill: none;
        stroke: #6faf69;
        stroke-linecap: round;
        stroke-linejoin: round;
        stroke-width: 1.53px;
      }
    </style>
  </defs>
  <g id="_背景" data-name="背景">
    <g>
      <g>
        <line class="cls-1" x1="34.87" y1="10.33" x2="34.87" y2=".77"/>
        <g>
          <g>
            <path class="cls-1" d="M41.39,41.31c-5.63,3.6-13.12,1.95-16.71-3.69-3.6-5.63-1.95-13.12,3.69-16.71,5.63-3.6,13.12-1.95,16.71,3.69,3.6,5.63,1.95,13.12-3.69,16.71Z"/>
            <g>
              <g>
                <path class="cls-1" d="M37.41,28.58c0-1.4-1.14-2.54-2.54-2.54s-2.54,1.14-2.54,2.54,1.14,2.54,2.54,2.54"/>
                <path class="cls-1" d="M32.34,33.65c0,1.4,1.14,2.54,2.54,2.54s2.54-1.14,2.54-2.54-1.14-2.54-2.54-2.54"/>
              </g>
              <line class="cls-1" x1="34.87" y1="24.43" x2="34.87" y2="26.04"/>
              <line class="cls-1" x1="34.87" y1="36.19" x2="34.87" y2="37.8"/>
            </g>
          </g>
          <g>
            <path class="cls-1" d="M68.98,76.33v-2.56c0-1.66-1.34-3-3-3H3.77c-1.66,0-3,1.34-3,3v2.56h68.22Z"/>
            <path class="cls-1" d="M52.91,32.12h4.26c1.19,0,2.15.96,2.15,2.15v3.04"/>
            <path class="cls-1" d="M10.42,37.31v-3.04c0-1.19.96-2.15,2.15-2.15h4.23"/>
            <path class="cls-1" d="M51.7,37.55h8.72c1.81,0,3.28,1.47,3.28,3.28v25.48"/>
            <path class="cls-1" d="M6.04,66.31v-25.48c0-1.81,1.47-3.28,3.28-3.28h8.72"/>
            <path class="cls-1" d="M11.9,66.31v-11.07c0-3.4,2.75-6.15,6.15-6.15h0c3.4,0,6.15,2.75,6.15,6.15v11.07"/>
            <path class="cls-1" d="M28.73,66.31v-11.07c0-3.4,2.75-6.15,6.15-6.15h0c3.4,0,6.15,2.75,6.15,6.15v11.07"/>
            <path class="cls-1" d="M45.55,66.31v-11.07c0-3.4,2.75-6.15,6.15-6.15h0c3.4,0,6.15,2.75,6.15,6.15v11.07"/>
            <path class="cls-1" d="M13.44,31.88c0-11.84,9.6-21.43,21.43-21.43s21.43,9.6,21.43,21.43"/>
          </g>
        </g>
      </g>
      <g>
        <g>
          <path class="cls-1" d="M34.87.77h0c1.23.96,2.81.96,4.05,0h0v4.56"/>
          <path class="cls-1" d="M34.87,5.33h0c1.23.96,2.81.96,4.05,0h0"/>
        </g>
        <g>
          <path class="cls-1" d="M43.55,3.47v4.56h0c-1.23-.96-2.81-.96-4.05,0h0"/>
          <path class="cls-1" d="M43.55,3.47h0c-.75-.59-1.64-.82-2.5-.68"/>
        </g>
      </g>
    </g>
  </g>
</svg>