<?xml version="1.0" encoding="UTF-8"?>
<svg id="_レイヤー_2" data-name="レイヤー 2" xmlns="http://www.w3.org/2000/svg" viewBox="0 0 79.73 67.4">
  <defs>
    <style>
      .cls-1 {
        fill: #6faf69;
      }
    </style>
  </defs>
  <g id="_背景" data-name="背景">
    <g>
      <path class="cls-1" d="M10.36,38.5c-4.54,0-8.24-3.7-8.24-8.24,0-.48.39-.86.86-.86s.86.39.86.86c0,3.59,2.92,6.51,6.51,6.51s6.51-2.92,6.51-6.51c0-.48.39-.86.86-.86s.86.39.86.86c0,4.54-3.7,8.24-8.24,8.24Z"/>
      <path class="cls-1" d="M25.11,38.5c-4.54,0-8.24-3.7-8.24-8.24,0-.48.39-.86.86-.86s.86.39.86.86c0,3.59,2.92,6.51,6.51,6.51s6.51-2.92,6.51-6.51c0-.48.39-.86.86-.86s.86.39.86.86c0,4.54-3.7,8.24-8.24,8.24Z"/>
      <path class="cls-1" d="M39.87,38.5c-4.54,0-8.24-3.7-8.24-8.24,0-.48.39-.86.86-.86s.86.39.86.86c0,3.59,2.92,6.51,6.51,6.51s6.51-2.92,6.51-6.51c0-.48.39-.86.86-.86s.86.39.86.86c0,4.54-3.7,8.24-8.24,8.24Z"/>
      <path class="cls-1" d="M54.62,38.5c-4.54,0-8.24-3.7-8.24-8.24,0-.48.39-.86.86-.86s.86.39.86.86c0,3.59,2.92,6.51,6.51,6.51s6.51-2.92,6.51-6.51c0-.48.39-.86.86-.86s.86.39.86.86c0,4.54-3.7,8.24-8.24,8.24Z"/>
      <path class="cls-1" d="M69.37,38.5c-4.54,0-8.24-3.7-8.24-8.24,0-.48.39-.86.86-.86s.86.39.86.86c0,3.59,2.92,6.51,6.51,6.51s6.51-2.92,6.51-6.51c0-.48.39-.86.86-.86s.86.39.86.86c0,4.54-3.7,8.24-8.24,8.24Z"/>
      <path class="cls-1" d="M76.75,30.6H2.99c-.27,0-.52-.12-.68-.33-.16-.21-.22-.49-.15-.74L8.73,4.22C9.29,1.74,11.46,0,14.01,0h51.71C68.27,0,70.44,1.74,71,4.22l6.58,25.3c.07.26.01.53-.15.74-.16.21-.41.33-.68.33ZM4.1,28.88h71.53l-6.3-24.24s0-.02,0-.03c-.38-1.7-1.86-2.89-3.61-2.89H14.01c-1.74,0-3.23,1.19-3.61,2.89,0,0,0,.02,0,.03l-6.3,24.24Z"/>
      <path class="cls-1" d="M17.74,30.6s-.1,0-.15-.01c-.47-.08-.78-.53-.7-.99L21.87.71c.08-.47.53-.78,1-.7.47.08.78.53.7.99l-4.98,28.88c-.07.42-.44.72-.85.72Z"/>
      <path class="cls-1" d="M32.49,31.14s-.05,0-.07,0c-.47-.04-.83-.46-.78-.93L34.14.79c.04-.47.46-.82.93-.79.47.04.83.46.78.93l-2.51,29.42c-.04.45-.41.79-.86.79Z"/>
      <path class="cls-1" d="M47.24,30.6c-.44,0-.82-.34-.86-.79L43.82.94c-.04-.47.31-.89.78-.93.47-.04.89.31.93.78l2.57,28.88c.04.47-.31.89-.78.93-.03,0-.05,0-.08,0Z"/>
      <path class="cls-1" d="M61.99,30.28c-.41,0-.77-.29-.85-.71L56.11,1.01c-.08-.47.23-.92.7-1,.47-.08.92.23,1,.7l5.03,28.55c.08.47-.23.92-.7,1-.05,0-.1.01-.15.01Z"/>
      <g>
        <path class="cls-1" d="M10.36,67.4c-.48,0-.86-.39-.86-.86v-28.9c0-.48.39-.86.86-.86s.86.39.86.86v28.9c0,.48-.39.86-.86.86Z"/>
        <path class="cls-1" d="M69.37,67.4c-.48,0-.86-.39-.86-.86v-28.9c0-.48.39-.86.86-.86s.86.39.86.86v28.9c0,.48-.39.86-.86.86Z"/>
        <path class="cls-1" d="M32.49,67.4c-.48,0-.86-.39-.86-.86v-33.72c0-.48.39-.86.86-.86s.86.39.86.86v33.72c0,.48-.39.86-.86.86Z"/>
      </g>
      <path class="cls-1" d="M78.87,67.4H.86c-.48,0-.86-.39-.86-.86s.39-.86.86-.86h78.01c.48,0,.86.39.86.86s-.39.86-.86.86Z"/>
      <path class="cls-1" d="M27.67,58.17c-.48,0-.86-.39-.86-.86v-9.23c0-.48.39-.86.86-.86s.86.39.86.86v9.23c0,.48-.39.86-.86.86Z"/>
      <path class="cls-1" d="M46.61,52.08c-.22,0-.44-.08-.61-.25-.34-.34-.34-.88,0-1.22l4.82-4.82c.34-.34.88-.34,1.22,0,.34.34.34.88,0,1.22l-4.82,4.82c-.17.17-.39.25-.61.25Z"/>
      <path class="cls-1" d="M46.27,60.18c-.22,0-.44-.08-.61-.25-.34-.34-.34-.88,0-1.22l13.25-13.25c.34-.34.88-.34,1.22,0,.34.34.34.88,0,1.22l-13.25,13.25c-.17.17-.39.25-.61.25Z"/>
    </g>
  </g>
</svg>