<?xml version="1.0" encoding="UTF-8"?>
<svg id="_レイヤー_2" data-name="レイヤー 2" xmlns="http://www.w3.org/2000/svg" viewBox="0 0 840.5 227.19">
  <defs>
    <style>
      .cls-1 {
        stroke-width: 3px;
      }

      .cls-1, .cls-2, .cls-3 {
        fill: none;
        stroke: #fff;
      }

      .cls-1, .cls-3 {
        stroke-miterlimit: 10;
      }

      .cls-4 {
        fill: #70964a;
      }

      .cls-2 {
        stroke-linejoin: round;
      }

      .cls-2, .cls-3 {
        stroke-linecap: round;
        stroke-width: 2.07px;
      }

      .cls-5 {
        fill: #fff;
      }
    </style>
  </defs>
  <g id="_背景" data-name="背景">
    <g>
      <rect class="cls-4" width="840.5" height="227.19" rx="12" ry="12"/>
      <g>
        <path class="cls-5" d="M383.62,102.77c-.02.48-.04,1.01-.07,1.56,1.45-.18,2.9-.46,4.05-.79l.07,2.73c-1.25.29-2.77.51-4.2.68-.02.66-.02,1.34-.02,1.98v.81c1.5-.37,3.01-.57,4.22-.57,3.39,0,6.05,1.76,6.05,4.8,0,2.6-1.36,4.55-4.86,5.44-1.01.22-1.98.29-2.88.35l-1.01-2.84c.99,0,1.94-.02,2.71-.15,1.78-.33,3.19-1.21,3.19-2.82,0-1.5-1.32-2.38-3.23-2.38-1.36,0-2.79.22-4.14.62.04,1.74.09,3.45.09,4.2,0,2.73-.97,3.45-2.42,3.45-2.13,0-5.15-1.85-5.15-4.18,0-1.91,2.2-3.92,4.91-5.08-.02-.53-.02-1.06-.02-1.56v-1.85c-.42.02-.81.04-1.17.04-1.47,0-2.33-.02-3.08-.11l-.04-2.66c1.3.15,2.25.18,3.04.18.4,0,.84-.02,1.28-.04.02-.77.02-1.41.02-1.78,0-.46-.09-1.54-.15-1.94h3.04c-.07.4-.15,1.34-.2,1.91ZM380.32,116.83c.4,0,.7-.18.7-.92,0-.55-.02-1.56-.07-2.75-1.34.73-2.25,1.63-2.25,2.4,0,.68,1.03,1.28,1.61,1.28ZM395.5,106.33l-1.32,2.24c-1.06-.9-3.94-2.55-5.3-3.21l1.21-2.13c1.69.81,4.25,2.27,5.41,3.1Z"/>
        <path class="cls-5" d="M414.38,106.62c-.95,1.58-2.25,2.9-3.79,4.05,2.29.81,4.95,1.36,7.79,1.65-.55.62-1.3,1.78-1.65,2.53-.77-.11-1.52-.24-2.24-.37v6.12h-2.71v-.64h-7.33v.68h-2.55v-6.01c-.97.26-1.94.48-2.93.68-.22-.7-.77-1.78-1.21-2.33,2.68-.42,5.39-1.14,7.72-2.18-.7-.51-1.36-1.06-1.98-1.65-.81.53-1.69,1.01-2.68,1.47-.35-.62-1.17-1.54-1.74-1.94,3.06-1.17,5.08-2.79,6.18-4.42h-4.05v2.44h-2.57v-4.82h8.03v-1.78h2.68v1.78h8.16v4.82h-2.68v-2.44h-9.2l2.44.48c-.22.31-.46.62-.7.92h4.8l.44-.11,1.76,1.06ZM411.78,117.8v-1.87h-7.33v1.87h7.33ZM411.74,113.77c-1.34-.4-2.6-.9-3.76-1.47-1.06.55-2.2,1.06-3.39,1.47h7.15ZM405.4,107.72c.73.66,1.58,1.28,2.57,1.8.92-.57,1.76-1.21,2.42-1.89h-4.88l-.11.09Z"/>
        <path class="cls-5" d="M429.71,101.07l2.97-.35c.22,1.17.55,2.35.92,3.45,1.58-.24,3.12-.59,4.51-1.01l.35,2.77c-1.12.33-2.53.59-3.92.79.64,1.43,1.41,2.79,1.96,3.59.37.55.79,1.03,1.19,1.47l-1.36,1.98c-1.23-.24-4-.53-5.85-.68l.22-2.33c1.08.09,2.53.22,3.21.26-.66-1.06-1.45-2.51-2.07-3.98-2.62.2-5.63.22-9.4-.09l-.04-2.82c3.3.4,6.12.46,8.45.31-.18-.51-.31-.97-.44-1.34-.18-.51-.42-1.3-.7-2.02ZM425.73,114.61c0,1.85,1.65,2.64,4.67,2.64,2.4,0,4.33-.22,5.9-.53l-.15,2.77c-1.25.24-3.23.53-5.92.53-4.49-.02-7.33-1.76-7.33-4.93,0-1.34.42-2.6,1.17-4.09l2.75.64c-.7,1.03-1.08,2-1.08,2.97Z"/>
        <path class="cls-5" d="M452.92,102.48c-.02.22-.02.55-.02.9,1.8-.09,3.63-.26,5.57-.59l-.02,2.53c-1.45.18-3.45.37-5.59.48v2.27c2.22-.11,4.09-.29,5.88-.53l-.02,2.6c-1.98.22-3.7.37-5.81.44.04.84.09,1.74.15,2.62,2.77.79,4.88,2.27,6.16,3.32l-1.58,2.46c-1.19-1.1-2.68-2.27-4.45-3.06.02.31.02.57.02.81,0,1.87-1.43,3.32-4.33,3.32-3.52,0-5.37-1.34-5.37-3.67s2.05-3.78,5.43-3.78c.46,0,.92.02,1.36.07-.04-.68-.07-1.39-.09-2.05h-1.14c-1.28,0-3.78-.11-5.24-.29l-.02-2.6c1.43.26,4.14.42,5.3.42h1.06c0-.73,0-1.52.02-2.27h-.81c-1.39,0-3.94-.2-5.39-.4l-.07-2.51c1.58.26,4.09.48,5.43.48h.86v-1.03c0-.42-.04-1.1-.13-1.52h2.97c-.07.44-.11.99-.13,1.56ZM448.48,117.58c1.17,0,1.94-.33,1.94-1.61,0-.24,0-.55-.02-.95-.59-.09-1.19-.15-1.8-.15-1.56,0-2.42.62-2.42,1.36,0,.84.79,1.34,2.31,1.34Z"/>
      </g>
      <circle class="cls-1" cx="417.58" cy="110.26" r="69.9"/>
      <rect class="cls-5" x="85.84" y="166.17" width="167.82" height="36.01" rx="4.43" ry="4.43"/>
      <g>
        <path class="cls-4" d="M154.49,175.37c-.44,1.26-.96,2.54-1.56,3.8v14.18h-2.26v-10.24c-.44.62-.88,1.2-1.34,1.72-.18-.58-.76-1.98-1.12-2.58,1.66-1.82,3.18-4.68,4.08-7.56l2.2.68ZM166.71,175.67v17.46h-2.26v-.98h-7.52v1.16h-2.16v-17.64h11.94ZM164.45,190.09v-12.36h-7.52v12.36h7.52ZM161.57,181.91v1.72h1.92v5.36h-5.54v-5.36h1.78v-1.72h-2.3v-1.72h2.3v-2.04h1.84v2.04h2.42v1.72h-2.42ZM161.71,185.27h-2.04v2.1h2.04v-2.1Z"/>
        <path class="cls-4" d="M182.61,175.11c-.02.32-.04.72-.06,1.14.16,2.76,1.16,11.38,8.62,14.88-.74.56-1.46,1.38-1.84,2.02-4.52-2.24-6.76-6.36-7.88-10.04-1.08,3.6-3.18,7.46-7.4,10.04-.42-.62-1.2-1.34-2-1.9,7.98-4.42,7.7-13.5,7.84-16.14h2.72Z"/>
      </g>
      <g>
        <g>
          <g>
            <g>
              <path class="cls-5" d="M182.53,95.51c.34,6.56.67,13.11,1.01,19.67.37,7.26.43,14.61,1.12,21.85.37,3.9,4.82,3.03,7.62,3.03h6.76c1.64,0,3.36-.04,4.1-1.84.73-1.76.4-4.34.5-6.19.22-4.37.45-8.75.67-13.12.4-7.8.8-15.6,1.2-23.4.07-1.37-2.06-1.37-2.13,0-.69,13.5-1.38,27.01-2.08,40.51-.04.83.14,1.58-.95,1.91-1.28.39-3.27,0-4.6,0h-6.5c-1,0-2.12.24-2.48-.96-.22-.74-.09-1.77-.13-2.53-.08-1.53-.16-3.05-.23-4.58-.22-4.37-.45-8.74-.67-13.11l-1.09-21.24c-.07-1.36-2.2-1.37-2.13,0h0Z"/>
              <path class="cls-5" d="M200.95,72.12c-.13,3.76-3.06,6.95-6.93,6.93-3.78-.02-6.93-3.14-6.93-6.93s2.99-6.77,6.66-6.92c3.97-.16,7.07,3.05,7.21,6.92.05,1.37,2.17,1.37,2.13,0-.17-4.93-4-9.06-9.06-9.06s-9.06,4.13-9.06,9.06,4.13,9.06,9.06,9.06,8.89-4.13,9.06-9.06c.05-1.37-2.08-1.37-2.13,0Z"/>
            </g>
            <path class="cls-5" d="M195.08,138.99v-23.64c0-1.37-2.13-1.37-2.13,0v23.64c0,1.37,2.13,1.37,2.13,0h0Z"/>
          </g>
          <path class="cls-5" d="M150.78,123.11c-.15,2.5-.3,4.99-.46,7.49-.1,1.66-.2,3.32-.3,4.98-.05.75.12,2.01-.68,2.36-.97.41-3.03,0-4.06,0h-4.91c-1.05,0-1.25-.44-1.31-1.44-.09-1.46-.18-2.91-.27-4.37-.18-3-.37-6.01-.55-9.01-.08-1.36-2.21-1.37-2.13,0,.19,3.13.38,6.26.57,9.38.14,2.37-.47,7.25,2.85,7.56,3.08.29,6.44.12,9.53,0,3.35-.13,3.03-3.48,3.19-5.98.22-3.66.45-7.31.67-10.97.08-1.37-2.05-1.36-2.13,0h0Z"/>
          <path class="cls-5" d="M135.91,74.12c.16,4.67,3.79,8.59,8.59,8.59s8.59-3.92,8.59-8.59-3.92-8.61-8.59-8.59c-4.8.02-8.42,3.91-8.59,8.59-.05,1.37,2.08,1.37,2.13,0,.12-3.52,2.85-6.46,6.46-6.46s6.46,2.95,6.46,6.46-2.78,6.3-6.19,6.45c-3.71.16-6.6-2.84-6.73-6.45-.05-1.37-2.18-1.37-2.13,0Z"/>
          <path class="cls-5" d="M162.95,109.12c.17,3.16,2.53,5.82,5.82,5.82s5.82-2.66,5.82-5.82-2.5-5.67-5.56-5.81c-3.39-.15-5.9,2.54-6.08,5.81-.07,1.37,2.05,1.36,2.13,0,.25-4.73,7.38-4.77,7.38,0s-7.13,4.73-7.38,0c-.07-1.36-2.2-1.37-2.13,0Z"/>
          <path class="cls-5" d="M145.57,138.99v-10.67c0-1.37-2.13-1.37-2.13,0v10.67c0,1.37,2.13,1.37,2.13,0h0Z"/>
          <path class="cls-5" d="M137.86,89.69c-1.88,9.67-3.76,19.33-5.64,29-.27,1.38-.54,2.76-.81,4.14-.13.67.29,1.35,1.03,1.35h24.14c.73,0,1.16-.68,1.03-1.35-1.88-9.67-3.76-19.33-5.64-29-.27-1.38-.54-2.76-.81-4.14-.26-1.34-2.31-.77-2.05.57,1.88,9.67,3.76,19.33,5.64,29,.27,1.38.54,2.76.81,4.14.34-.45.68-.9,1.03-1.35h-24.14c.34.45.68.9,1.03,1.35,1.88-9.67,3.76-19.33,5.64-29,.27-1.38.54-2.76.81-4.14.26-1.34-1.79-1.91-2.05-.57h0Z"/>
          <path class="cls-5" d="M173.23,115.85v16.7c0,1.3.29,2.97,0,4.24-.38,1.68-2.62,1.13-3.89,1.13-1.2,0-4.64.66-5.02-.9-.21-.87,0-2.06,0-2.94v-18.23c0-1.37-2.13-1.37-2.13,0v18.51c0,1.24-.22,2.79.31,3.95.96,2.13,3.42,1.75,5.34,1.75,1.72,0,4.45.51,6.02-.41,1.54-.9,1.5-2.54,1.5-4.08v-19.72c0-1.37-2.13-1.37-2.13,0h0Z"/>
          <path class="cls-5" d="M203.78,113.88c4.03,0,7.28-3.27,7.82-7.16.32-2.33.09-4.8.09-7.14,0-5.11,1.56-14.47-5.6-15.56-2.4-.36-4.79-.88-7.18-1.32-4.38-.81-8.5-.25-12.79.59-3.08.6-6.49.65-8.45,3.48-1.55,2.22-1.31,4.82-1.31,7.38,0,5,.17,10.03,0,15.02-.18,5.36-5.65,9.24-10.71,6.92-4.36-2-4.33-6.5-5.21-10.56-1.09-5.01-1.94-10.17-3.32-15.11-1.77-6.35-10.3-8.4-16-7.13-3.49.78-7.24,2.53-8.78,5.97-.83,1.86-1.12,4.04-1.6,6.01-.76,3.14-1.52,6.29-2.29,9.43-.62,2.56-.93,4.65.59,7.1,1.1,1.78,2.82,2.98,4.85,3.46,1.33.32,1.9-1.74.57-2.05-2.4-.57-4.39-2.63-4.49-5.19-.03-.67.19-1.31.35-1.97.66-2.74,1.33-5.47,1.99-8.21.54-2.22.99-4.49,1.62-6.69.93-3.24,3.96-4.83,7.03-5.63,5.05-1.33,12.82.17,14.22,6.01,1.16,4.86,2.16,9.77,3.22,14.65.76,3.48.8,7.05,3.41,9.76,2.65,2.75,6.81,3.68,10.38,2.34,3.69-1.39,6.12-4.89,6.29-8.81.07-1.66,0-3.32,0-4.98v-8.2c0-2.09-.36-4.59.16-6.65.94-3.69,4.96-3.69,8.04-4.3,3.93-.77,7.69-1.31,11.69-.58,1.38.25,2.76.54,4.13.81,1.34.26,3.2.32,4.4.91,3.12,1.52,2.66,5.14,2.66,8.01v9.54c0,3.62-1.42,7.72-5.79,7.72-1.37,0-1.37,2.13,0,2.13h0Z"/>
          <path class="cls-5" d="M169.84,138.99v-9.76c0-1.37-2.13-1.37-2.13,0v9.76c0,1.37,2.13,1.37,2.13,0h0Z"/>
        </g>
        <path class="cls-5" d="M219.88,74.22c-4.52-3.28-9.04-6.57-13.56-9.85.18.31.35.61.53.92v-21.72c0-.58-.49-1.06-1.06-1.06h-14.02c-.58,0-1.06.49-1.06,1.06v11.53c.53-.31,1.07-.61,1.6-.92-7.34-5.33-14.68-10.67-22.02-16-.28-.2-.8-.2-1.07,0-14.48,10.52-28.96,21.05-43.45,31.57-2.05,1.49-4.1,2.98-6.15,4.47-1.1.8-.04,2.64,1.07,1.84,14.48-10.52,28.96-21.05,43.45-31.57,2.05-1.49,4.1-2.98,6.15-4.47h-1.07c7.34,5.33,14.68,10.67,22.02,16,.67.49,1.6-.17,1.6-.92v-11.53c-.35.35-.71.71-1.06,1.06h14.02l-1.06-1.06v18.54c0,.97-.15,2.07,0,3.03.24,1.52,2.46,2.47,3.63,3.32,3.48,2.53,6.97,5.06,10.45,7.59,1.11.81,2.17-1.04,1.07-1.84h0Z"/>
      </g>
      <rect class="cls-5" x="591.35" y="166.17" width="167.82" height="36.01" rx="4.43" ry="4.43"/>
      <g>
        <path class="cls-4" d="M648.1,178.11v9.98h-2.5v-1h-4.52v6.24h-2.52v-6.24h-4.5v1.1h-2.4v-10.08h6.9v-3.46h2.52v3.46h7.02ZM638.56,184.75v-4.3h-4.5v4.3h4.5ZM645.6,184.75v-4.3h-4.52v4.3h4.52Z"/>
        <path class="cls-4" d="M659.72,179.95c-.68,2.98-1.76,6.7-3.42,8.9-.6-.4-1.7-.96-2.32-1.24,1.6-2.02,2.6-5.52,3.02-8.12l2.72.46ZM664.82,174.93v15.42c0,1.46-.34,2.12-1.22,2.5-.94.38-2.3.46-4.24.46-.14-.7-.58-1.82-.94-2.48,1.3.06,2.78.06,3.22.04.44,0,.6-.14.6-.52v-15.42h2.58ZM669.34,179.27c1.62,2.84,3.26,6.46,3.76,8.96l-2.6,1.02c-.4-2.42-1.92-6.18-3.5-9.1l2.34-.88Z"/>
        <path class="cls-4" d="M688.08,174.57c2.16,3.16,5.44,5.88,8.64,7.26-.6.62-1.14,1.4-1.6,2.14-3.1-1.72-6.44-4.6-8.16-7.06-1.62,2.44-4.7,5.22-8,7.08-.3-.54-.98-1.42-1.5-1.92,3.46-1.78,6.68-4.96,8.18-7.5h2.44ZM688.42,190.63h7.16v2.16h-17.02v-2.16h2.18v-6.94h2.34v6.94h2.84v-10.38h2.5v4.28h5.36v2.1h-5.36v4Z"/>
        <path class="cls-4" d="M713.78,188.77c1.7,1.04,4.02,1.82,6.34,2.18-.54.52-1.24,1.52-1.6,2.16-2.46-.62-4.88-1.82-6.72-3.38v3.6h-2.34v-3.48c-1.86,1.46-4.32,2.62-6.7,3.24-.34-.58-1.02-1.5-1.52-1.98,2.24-.46,4.6-1.3,6.32-2.34h-5.74v-1.96h7.64v-.88h-5.76v-1.72h5.76v-.9h-6.76v-1.86h3.8c-.16-.5-.42-1.1-.68-1.56l.24-.04h-4.18v-1.94h2.68c-.28-.76-.8-1.72-1.24-2.48l2.04-.7c.58.86,1.24,2.04,1.52,2.82l-.98.36h1.82v-3.26h2.22v3.26h1.48v-3.26h2.24v3.26h1.78l-.72-.22c.48-.82.98-2.02,1.26-2.9l2.5.6c-.56.92-1.1,1.82-1.56,2.52h2.6v1.94h-3.76c-.32.58-.64,1.12-.94,1.6h3.92v1.86h-6.94v.9h6v1.72h-6v.88h7.78v1.96h-5.8ZM708.34,179.85c.28.52.54,1.12.68,1.54l-.34.06h3.74c.24-.48.48-1.06.7-1.6h-4.78Z"/>
      </g>
      <g>
        <g>
          <circle class="cls-3" cx="641.26" cy="51.41" r="8.1" transform="translate(443.89 663.71) rotate(-76.72)"/>
          <path class="cls-3" d="M641.07,106.76v25.39c0,1.54-1.24,2.78-2.78,2.78h-4.39c-1.52,0-2.75-1.22-2.78-2.73l-.89-51.21"/>
          <path class="cls-3" d="M641.07,106.76v25.39c0,1.54,1.24,2.78,2.78,2.78h4.39c1.52,0,2.75-1.22,2.78-2.73l1.06-59.57"/>
          <path class="cls-3" d="M630.64,104.39h-3.83c-1.51,0-2.73-1.22-2.73-2.73v-28.4c0-5.57,4.52-10.09,10.09-10.09h45.87c2.6,0,4.71,2.11,4.71,4.71h0c0,2.6-2.11,4.71-4.71,4.71h-27.53"/>
        </g>
        <g>
          <line class="cls-2" x1="667.87" y1="134.89" x2="723.07" y2="134.89"/>
          <g>
            <polyline class="cls-2" points="673.56 58.77 673.56 44.85 717.38 44.85 717.38 134.89 673.56 134.89 673.56 76.82"/>
            <rect class="cls-2" x="691.13" y="122.54" width="8.67" height="12.35"/>
            <polyline class="cls-2" points="680.03 53.4 680.03 59.33 683.75 59.33"/>
            <polyline class="cls-2" points="689.59 53.4 689.59 59.33 693.31 59.33"/>
            <polyline class="cls-2" points="699.15 53.4 699.15 59.33 702.87 59.33"/>
            <polyline class="cls-2" points="708.7 53.4 708.7 59.33 712.43 59.33"/>
            <polyline class="cls-2" points="689.59 66.78 689.59 72.72 693.31 72.72"/>
            <polyline class="cls-2" points="699.15 66.78 699.15 72.72 702.87 72.72"/>
            <polyline class="cls-2" points="708.7 66.78 708.7 72.72 712.43 72.72"/>
            <polyline class="cls-2" points="680.03 80.16 680.03 86.1 683.75 86.1"/>
            <polyline class="cls-2" points="689.59 80.16 689.59 86.1 693.31 86.1"/>
            <polyline class="cls-2" points="699.15 80.16 699.15 86.1 702.87 86.1"/>
            <polyline class="cls-2" points="708.7 80.16 708.7 86.1 712.43 86.1"/>
            <polyline class="cls-2" points="680.03 93.54 680.03 99.48 683.75 99.48"/>
            <polyline class="cls-2" points="689.59 93.54 689.59 99.48 693.31 99.48"/>
            <polyline class="cls-2" points="699.15 93.54 699.15 99.48 702.87 99.48"/>
            <polyline class="cls-2" points="708.7 93.54 708.7 99.48 712.43 99.48"/>
            <polyline class="cls-2" points="680.03 106.92 680.03 112.86 683.75 112.86"/>
            <polyline class="cls-2" points="689.59 106.92 689.59 112.86 693.31 112.86"/>
            <polyline class="cls-2" points="699.15 106.92 699.15 112.86 702.87 112.86"/>
            <polyline class="cls-2" points="708.7 106.92 708.7 112.86 712.43 112.86"/>
          </g>
        </g>
      </g>
    </g>
  </g>
</svg>