<?xml version="1.0" encoding="UTF-8"?>
<svg id="_レイヤー_2" data-name="レイヤー 2" xmlns="http://www.w3.org/2000/svg" viewBox="0 0 223.92 427.99">
  <defs>
    <style>
      .cls-1, .cls-2 {
        fill: #fff;
      }

      .cls-1, .cls-3 {
        fill-rule: evenodd;
      }

      .cls-4, .cls-3 {
        fill: #2b337d;
      }

      .cls-5 {
        fill: #262424;
      }

      .cls-6 {
        fill: #dad7d0;
      }

      .cls-7 {
        fill: #d17d3d;
      }
    </style>
  </defs>
  <g id="_背景" data-name="背景">
    <g>
      <path class="cls-7" d="M176.78,5.14c1.57,9,1.17,19.56-1.37,27.97-3.52,3.72-1.36,9.78-4.89,13.5.59,3.72-2.93,6.06-2.35,8.99,9.19-4.69,16.82-14.47,28.55-12.12,9.39,2.93,19.36,6.06,26.6,13.5.2,1.96-.2,3.72-1.37,5.08-13.88,5.87-25.62,20.54-42.83,13.5,2.55,7.63,3.33,17.41,8.02,24.83,2.74,8.61,4.11,17.8,4.11,27.58,2.15,19.76-9.59,33.84-20.73,48.31-3.13,4.89-8.8,10.56-13.1,14.86,6.85,20.53,12.91,41.26,22.49,60.82,4.3,16.24,17.6,28.55,22.68,44.2l6.26,9.19c5.28.59,12.12-.39,14.86,4.89.78,3.32-.78,6.25-3.52,7.62h-2.73c0,3.71,3.71,7.43,1.75,11.73-1.96,2.34-3.13,5.87-6.25,6.84-10.75-.97-12.33-12.71-16.24-19.94.98-8.02-6.25-12.71-8.6-19.36-2.94-2.74-2.94-6.85-5.87-9.39-2.55,3.32-3.91,8.41-5.87,12.51-7.04,13.3-14.87,26.4-24.06,38.34-1.76,17.01-5.48,33.25-5.28,51.04,1.56,7.04-4.3,17.01,4.89,21.32.98,3.91,2.34,10.37-1.37,13.49-2.15,2.15-4.69,3.32-7.62,3.52-5.28.39-8.6-3.52-12.13-7.23-1.95-3.33-2.35-7.83-1.36-11.73,1.36-2.35,3.71-4.89,2.15-8.02.2-18.19.39-37.54-3.52-54.56-8.21.39-17.41.98-25.23-.59-4.11,19.37-1.37,41.46-5.87,60.44,1.56,3.32,2.35,7.63,1.37,11.34-1.96,2.93-3.33,7.24-7.24,8.21-3.71.78-7.82.39-10.95-1.37-3.52-3.52-4.49-8.99-2.74-13.49,10.37-2.54,3.14-12.71,4.5-18.97-1.95-18.78-4.7-37.16-8.02-55.16-13.69-14.67-22.88-32.07-26.21-51.44.2-26.4,7.24-50.07,15.45-73.14.2-7.43,5.09-14.28,2.54-21.71-7.43-4.11-11.14-11.35-16.63-17.01-7.62-13.88-13.69-29.34-10.36-46.55,2.54-6.85,2.74-14.48,6.26-20.73,2.15-9,8.21-16.43,10.95-25.23l-1.37-.98c-7.23,4.11-17.41,9.19-25.43,3.13-8.41-2.74-17.6-4.7-23.86-12.12.2-8.8,10.56-9.98,15.84-14.87,8.99-7.03,22.69-6.45,32.07-.97,1.57,1.17,4.3,1.17,5.87,1.76-9-9.59-15.06-21.32-20.34-32.86-1.76-3.52-2.35-8.21-1.37-12.12,1.76-2.74,3.52-6.06,7.24-5.87,10.95-.59,17.79,8.21,26.21,13.89,8.02-5.28,16.03-13.49,26.59-12.13,6.85,6.46.98,16.63-1.76,23.47-2.74,2.94-3.52,6.85-7.23,9.39l4.89,7.63c12.12-1.57,25.62.98,37.54,1.37,2.15-2.15,1.95-5.28,4.89-7.24-8.8-7.63-21.9-19.55-16.62-32.85,2.54-3.13,7.82-1.57,11.14-1.37,5.87,1.57,12.13,2.15,16.82,6.26,6.45-4.5,10.56-11.73,17.99-14.28,4.89-.97,8.81.98,11.74,4.89"/>
      <path class="cls-2" d="M165.44,29.98c-4.5,7.83-7.23,16.43-11.74,24.25-2.34-1.76-5.48-1.57-8.41-2.15.39-4.89,6.26-8.21,3.52-14.08-7.63-5.27-15.05-11.34-19.36-18.96,6.25.78,12.51,3.32,16.23,8.6,7.82,1.56,10.17-7.43,16.24-10.37.98-1.95,3.52-3.32,5.47-4.89,2.15,6.46-1.95,11.54-1.95,17.6"/>
      <path class="cls-2" d="M73.51,31.74c4.7-5.08,9.78-7.82,14.87-11.73-3.91,4.69-3.72,11.73-10.37,14.47-1.37,2.93-5.48,5.08-3.13,8.99,2.93,2.55,3.91,5.48,4.89,9-2.35,1.17-4.3,3.52-7.24,3.12-9.19-11.54-18.18-23.08-23.07-36.56,8.99,2.74,13.49,15.05,24.05,12.71"/>
      <path class="cls-2" d="M179.12,121.11c1.57,7.23,5.09,18.19-1.36,24.45-5.48,6.65-12.72,9.78-21.32,7.63-5.87-1.96-10.95-7.04-13.89-12.13-1.95-7.43-.59-15.65,2.15-22.29,6.46-5.08,14.67-9.39,22.69-6.26,5.28.2,9.39,3.91,11.73,8.61"/>
      <path class="cls-2" d="M82.51,120.13c3.71,7.44,2.15,16.82,1.37,24.45-2.34,5.67-8.21,10.17-14.47,10.37-7.82,1.57-13.49-3.52-17.6-9-3.72-6.85-1.17-15.85.78-22.49,2.35-7.43,10.17-7.04,15.45-9.98,5.48.59,11.35,1.37,14.47,6.65"/>
      <path class="cls-5" d="M172.67,126c.78,6.06,1.17,12.91-3.52,17.21-3.52,1.18-7.63,3.72-11.35,1.37-5.87-4.3-7.24-11.93-5.87-18.97.98-2.15,1.76-5.08,4.5-6.25,5.86-1.76,13.49.19,16.24,6.65"/>
      <path class="cls-5" d="M76.05,124.24c2.94,4.1,5.48,8.99,3.72,14.47-1.56,3.32-4.5,5.09-6.85,7.63-3.91,0-8.21.79-10.75-2.74-3.72-4.3-5.67-10.17-4.11-16.23.39-3.52,4.3-5.87,7.24-6.65,3.32.59,8.02.2,10.75,3.53"/>
      <path class="cls-2" d="M137.08,155.34l.39,10.37c-2.74,6.06-8.02,12.51-15.26,12.71-6.65,2.54-16.82,3.12-22.68-1.37-4.51-4.5-11.93-9.19-10.37-16.23,3.91-9.98,13.69-18.2,24.06-19.76,10.37-1.18,19.17,5.67,23.86,14.28"/>
      <path class="cls-5" d="M122.61,146.93c1.76,1.57.59,4.11.97,6.26-3.52,3.91-8.02,6.25-13.1,4.5-2.15-3.32-7.04-5.87-4.5-10.37,3.13-6.26,13.1-5.87,16.63-.39"/>
      <path class="cls-5" d="M110.48,161.79c5.28,1.76,10.17-1.18,13.5-4.5,1.17.2,2.93-.78,3.72.78v2.74c-6.26,2.74-11.73,8.6-19.56,6.25-3.53-2.74-10.37-5.28-9.39-11.14.79-1.76,2.55-1.37,4.11-1.37,1.37,3.13,4.89,5.28,7.63,7.24"/>
      <path class="cls-2" d="M69.02,246.67c-.98-4.89,3.32-7.63,2.54-12.32l.98-.78c-.39-10.76,3.52-19.95,7.24-28.95l2.15-11.73c7.04.98,15.1.98,21.09.79,5.99-.19,12.19.21,16.07.04,3.88-.17,14.87-2.59,23.86-.44l2.74,5.08c7.04,19.36,14.67,38.53,21.13,58.09,8.21,8.8,1.76,19.95.58,29.92-4.69,12.12-12.71,23.08-20.34,34.23-6.46,3.91-10.76,12.51-18.58,13.1-7.62-.98-16.03.2-23.08-2.74-13.5,3.32-20.93-7.82-28.36-16.63-6.46-12.32-17.01-23.47-15.25-38.33,1.95-4.69,1.36-10.17,3.91-14.47l3.33-14.86"/>
      <path class="cls-7" d="M56.92,234.61c-13.14-5.31-39.52-24.55-52.81-29.46-2.49-2.5-4.81-7.57-3.91-11.25,5.39-23.24,3.41-30.21,7.72-42.78-.47-4.04,1.35-18.86,3.33-21.94,4.79-3.75,17.55-9.97,21.54-2.39,3.99,7.58-5.46,20.22-5.46,20.22-10.37,9.53-5.22,16.46-9.43,35.17l-.48,10.65c11.26,4.1,35.83,20.36,46.77,25.28l-7.27,16.5"/>
      <path class="cls-7" d="M18.42,147.4l7.12-5.99s5.81.17,6.6.92c.8.75,2.69,4.47-.27,7.11,0,0-7.83,4.79-10.21,3.33-2.37-1.47-3.24-5.37-3.24-5.37"/>
      <path class="cls-6" d="M140.39,59.37c-8.88-1.56-18.7-2.33-29.53-2.07-10.27-.32-19.63.29-28.15,1.63-5.94.93-10.13-22.29-10.13-22.29,12.52-3.82,30.87-4.09,38.37-4.06,7.25.03,26.58.33,39.07,4.23,0,0-4.23,23.51-9.63,22.56"/>
      <path class="cls-1" d="M143.54,44.95c-1.57-5.13-3.89-8.75-5.68-11.25-13.06-18.23-38.93-18.68-53.09-.19-1.87,2.45-4.17,6.08-5.77,11.22l64.54.23"/>
      <path class="cls-4" d="M150.05,36.83c-10.85,3.82-23.68,5.97-38.77,5.44-15.09.43-27.91-1.81-38.73-5.71l5.63,24.11c10.82,3.9,26.52,6.83,33.01,6.86,6.28.02,22.85-2.69,33.69-6.51l5.16-24.18"/>
      <path class="cls-2" d="M150.18,39.21c-10.85,3.82-23.68,5.97-38.77,5.44-15.09.43-27.91-1.81-38.73-5.71l5.49,22.78c10.82,3.9,26.52,6.83,33.01,6.86,6.28.02,22.85-2.69,33.69-6.51l5.3-22.85"/>
      <path class="cls-4" d="M116.77,58.06c-.69,3.16-2.88,4.23-5.73,4.15-2.85.07-5.03-1.02-5.7-4.19h-1.24c.09.6.33,1.3.51,1.73.37.89,1.35,2.24,2.76,3.06,1.88,1.09,3.17,2.59,3.67,3.23.5-.63,1.8-2.12,3.69-3.2,1.41-.81,2.4-2.15,2.78-3.04.18-.43.42-1.13.52-1.74h-1.24"/>
      <path class="cls-3" d="M104.18,54.66l-1.59,5.25h.05s2.11-1.5,2.11-1.5c.09-.11.25-.16.41-.06l2.43.54-3.41-4.24"/>
      <path class="cls-3" d="M118.01,54.71l-3.44,4.21,2.43-.53c.16-.1.31-.05.41.06l2.09,1.53h.05s-1.55-5.27-1.55-5.27"/>
      <polyline class="cls-3" points="111.95 63.17 110.18 63.16 110.23 49.81 112 49.82 111.95 63.17"/>
      <path class="cls-4" d="M111.11,51.04c-1.35,0-2.45-1.11-2.45-2.47,0-1.35,1.11-2.45,2.47-2.45,1.35,0,2.45,1.11,2.45,2.47,0,1.35-1.11,2.45-2.47,2.45M111.12,47.54c-.57,0-1.04.46-1.05,1.04,0,.57.46,1.04,1.04,1.04.57,0,1.04-.46,1.04-1.04,0-.57-.46-1.04-1.04-1.05Z"/>
      <polyline class="cls-3" points="114.29 54.27 107.91 54.25 107.92 52.41 114.29 52.43 114.29 54.27"/>
      <path class="cls-3" d="M109.12,53.6c0,.61-.5,1.1-1.11,1.1s-1.1-.5-1.1-1.11v-.53c0-.61.5-1.1,1.11-1.1.61,0,1.1.5,1.1,1.11v.53"/>
      <path class="cls-3" d="M115.28,53.62c0,.61-.5,1.1-1.11,1.1-.61,0-1.1-.5-1.1-1.11v-.53c0-.61.5-1.1,1.11-1.1.61,0,1.1.5,1.1,1.11v.53"/>
      <polyline class="cls-4" points="159.7 190.25 111.74 230.34 65.14 190.87 59.49 212.28 111.82 233.87 167.47 211.34 159.7 190.25"/>
      <polyline class="cls-2" points="164.61 202.78 119.42 223.96 113.86 228.52 166.14 206.85 164.61 202.78"/>
      <polyline class="cls-2" points="61.63 204.77 103.99 223.78 109.76 228.67 60.15 209.12 61.63 204.77"/>
      <path class="cls-3" d="M125.98,252.21c-2.01-2.82-5.62-5.27-7.03-8.43-.95-2.13-.7-3.55-3-4.84-1.69-.95-4.06-1.41-5.93-.72-.03.03-.07.06-.12.08-5.18,3.03-14.26,11.09-14.33,17.64-.01,1.2.78,20.66,3.1,19.17,5.49-3.52,9.66-7.92,14.36-12.7,2.34,8.24,6.09,15.49,12.71,21.24,2.15,1.86,2.34,1.58,3.16-1.01,2.26-7.18,3.23-13.07,1.48-20.5-.96-4.07-2.39-7.1-4.41-9.94"/>
      <path class="cls-3" d="M102.34,229.07l19.95.28-5.38,10.05s-10.01,1.08-10.01.66-4.57-10.99-4.57-10.99"/>
    </g>
  </g>
</svg>