<?xml version="1.0" encoding="UTF-8"?>
<svg id="_レイヤー_2" data-name="レイヤー 2" xmlns="http://www.w3.org/2000/svg" viewBox="0 0 563.73 101.09">
  <defs>
    <style>
      .cls-1 {
        fill: #e0d6ca;
      }
    </style>
  </defs>
  <g id="_背景" data-name="背景">
    <path class="cls-1" d="M230.42.35c0,.25-.73.86-1.68,1.4-1.56.89-1.68.89-1.68,0,0-.73-.11-.78-.47-.22-.26.4-.89.56-1.4.36-.56-.22-1.05,0-1.26.56-.32.87-.39.87-1.34.03-1.13-1.01-1.63-.56-1.79,1.62-.06.78-.46,1.45-.86,1.45s-.9.39-1.06.84c-.16.45-.57.84-.87.84-1.47,0-2.18,1.84-2.32,6.03-.08,2.4-.33,4.66-.57,5.03-.45.71.54,2.74,1.88,3.84.56.46.62.69.17.7-1.03.03-.5,2.32.78,3.37.62.5,1.43,1.5,1.82,2.22.48.89.83,1.09,1.12.61.31-.52.5-.47.75.2.19.5.53.84.78.78.24-.06,1.84.54,3.52,1.31,3.24,1.5,7.49,2.44,6.94,1.54-.53-.86,1.25-.56,1.99.33.6.73.83.76,1.21.17.37-.56.58-.57.92-.06.3.45,1.09.53,2.37.25,1.06-.23,2.76-.24,3.77-.03,1.51.32,1.79.24,1.54-.45-.25-.67-.06-.76.95-.45.67.21,1.65.44,2.1.5.45.06,1.16.31,1.54.53.39.23.93.28,1.23.11.29-.17,1.68-.53,3.02-.78,2.01-.38,2.43-.32,2.19.31-.28.73.74.6,2.36-.31.9-.5,7.77-.19,9.39.42.95.36,1.58.36,1.82,0,.25-.39.59-.37,1.09.06.39.33.85.41,1,.17.35-.57,4.42-.53,5.37.06.42.26,1.09.08,1.59-.42.78-.78.93-.78,1.51,0,.5.68,1.06.75,2.57.34,1.05-.29,3.32-.43,5-.31,1.68.12,3.58.19,4.19.15,2.79-.18,4.57-.08,5.47.29.77.32.88.2.59-.64-.29-.84-.22-.9.39-.33.41.38,1.82.7,3.1.7s2.49-.3,2.68-.7c.27-.56.4-.56.67,0,.25.51.61.55,1.4.14.84-.44.99-.38.73.28-.18.45-.05.84.28.84s.61-.25.61-.56c0-.32,1.29-.47,3.07-.34,1.68.12,3.07-.02,3.07-.31s.28-.36.61-.15c1.07.66,4.41.76,5.92.18,1.12-.43,1.68-.36,2.43.33.87.79,1.02.78,1.34-.11.35-.96.41-.95,1.2.11.67.89.93.97,1.31.36.4-.63.57-.59,1.03.25.53.95.64.95,1.98.08.84-.54,1.49-.69,1.59-.36.11.37.75.35,1.93-.06,1.24-.43,2.37-.45,3.83-.06,1.73.47,2.01.42,1.75-.28-.41-1.06.15-1.03,1.38.09.84.76,1.05.77,1.76.05.45-.45,1.11-.62,1.48-.39.37.23,1.84.36,3.3.28,1.45-.08,2.79.13,2.99.48.25.42.64.38,1.26-.14.77-.65,1.03-.63,1.93.17.56.5,1.39.92,1.82.92s1.1.5,1.48,1.12c.44.7,1.28,1.12,2.29,1.12,1.06,0,1.95.47,2.65,1.4.6.78,1.36,1.4,1.73,1.4.77,0,2.4,2.85,2.4,4.19,0,.45.29.84.61.84s.46.42.28.92c-.18.5-.1,1.2.17,1.54.77.94.9,3.86.22,5.03-.42.72-.44,1.56-.07,2.63.57,1.63.31,2.12-3.03,5.64-.85.89-1.54,2.01-1.54,2.49,0,.5-.33.74-.78.56-.48-.19-.89.11-1.06.78-.19.73-.58.98-1.17.75-.66-.25-.8-.08-.53.64.25.67.15.85-.31.56-.36-.22-1.12-.04-1.62.39-.52.45-1.54.84-2.26.87-.73.03-1.66.5-2.09,1.06-.43.56-.75.76-.71.45.18-1.4-.11-1.58-.89-.56-.51.67-1.03.89-1.29.56-.34-.45-17.62-.66-23.87-.29-.62.04-1.93-.1-2.93-.3-1.17-.23-2.15-.1-2.76.39-.56.44-.78.48-.55.08.65-1.09-.74-1.41-2.14-.49-.89.59-1.46.7-1.68.32-.42-.69-11.28-.6-12.67.11-.67.34-1.01.29-1.01-.13,0-.36-.31-.53-.7-.39-.38.14-1.2.07-1.82-.14-.65-.23-1.76-.06-2.65.39-.84.43-1.54.54-1.54.25,0-.3-.84-.34-1.96-.08-1.06.24-2.1.22-2.26-.06-.17-.27-1.56-.39-3.07-.25-1.51.14-2.92,0-3.1-.31-.2-.33-.73-.2-1.28.31-.7.64-1.4.74-2.68.36-1.17-.34-1.93-.3-2.35.11-.45.45-.61.33-.61-.45,0-.97-.1-.95-1.26.28-.94,1.01-1.3,1.13-1.42.5-.18-.95-5.18-1.14-5.85-.22-.24.33-.41.25-.41-.19,0-.57-.2-.59-.81-.08-.45.37-1.09.5-1.42.29-.95-.59-5.03-.87-5.03-.34,0,.24-.39.45-.84.45s-.84-.18-.84-.39c0-.22-.73-.28-1.68-.14-1.06.16-1.68.02-1.68-.39,0-.33-.28-.47-.59-.28-.32.2-4.36.35-8.94.34-4.58-.02-8.49.21-8.66.5-.18.32-.53.53-.87.53s-.44-.2-.25-.5c.49-.8-.98-1.06-2.1-.36-.68.42-1.26.4-2.04-.08-.84-.52-1.14-.52-1.31,0-.17.52-.42.51-1.09-.06-.5-.42-.98-.54-1.15-.28-.15.25-2.07.4-4.25.34s-3.84.12-3.69.39c.17.3.06.64-.28.84-.32.19-.56-.03-.56-.53s-.35-.87-.84-.87c-.45,0-.84.22-.84.48,0,.26-.81.37-1.82.25-1.01-.12-2.44-.27-3.21-.34-.78-.06-1.72-.32-2.12-.59-.39-.26-1.04-.24-1.4.04-.78.6-9.65.59-10.24-.01-.78-.79-1.83-.39-1.47.56.29.78.21.88-.4.43-1.17-.87-4.48-.98-4.5-.15-.01.41-.37.25-.83-.36-.46-.61-.81-.79-.81-.39,0,.44-.42.57-1.15.34-.61-.2-1.53-.04-1.98.33-.62.51-.99.54-1.42.11-.34-.34-.92-.47-1.37-.31-.45.16-1.12,0-1.56-.36-.61-.5-.87-.5-1.17,0-.28.46-.52.45-.84-.06-.35-.54-.75-.5-1.82.17-.89.57-1.64.69-2.15.37-1.12-.71-4.58-.67-4.14.05.38.61-1.54.77-2.13.17-.67-.67-2.29-.67-2.7,0-.32.52-.81.52-2.15,0-.95-.37-2.07-.54-2.49-.39-.39.14-.94-.03-1.15-.36-.29-.48-.51-.45-.87.11-.37.6-.7.62-1.54.11-.84-.51-1.24-.47-1.93.2-.79.77-.98.76-2.15-.03-.73-.49-1.54-.67-1.87-.42-.32.24-2.49.28-4.78.08-2.29-.2-4.28-.16-4.39.08-.11.25-.75.3-1.48.11-.73-.19-1.46-.06-1.68.31-.26.43-.64.31-1.15-.36-.72-.96-.76-.95-.78.11-.02.95-.11.99-.59.28-.48-.73-.63-.73-1.09-.03-.46.71-.67.69-1.62-.17-.67-.6-1.23-.76-1.45-.42-.19.29-.73.42-1.12.28-.39-.14-.93,0-1.12.31-.21.34-.64.41-1.03.17-1.01-.62-4.86-.82-4.86-.26,0,.28-.61.5-1.4.5s-1.24-.25-1.03-.56c.23-.36-.56-.42-2.23-.17-1.68.25-2.6.18-2.6-.2,0-.36-.47-.41-1.26-.11-.69.26-3.74.44-6.76.39-3.02-.05-5.63.13-5.78.39-.15.25-.78.03-1.34-.48-.67-.6-1.06-.7-1.06-.28,0,.4-.42.53-1.03.34-.58-.19-1.73-.07-2.63.28-1.17.45-1.94.43-2.9-.08-.78-.42-1.48-.47-1.72-.14-.58.81-2.33.73-2.33-.11,0-.6-.31-.64-1.31-.17-.95.45-1.64.45-2.49,0-.67-.35-1.31-.4-1.48-.11-.38.61-4.13.61-4.5,0-.15-.25-1-.19-1.95.14-1.23.43-1.88.41-2.46-.06-.45-.37-.91-.43-1.09-.14-.33.54-2.37.5-2.93-.06-.73-.73-2.02-.39-1.7.45.34.89-.26,1.17-.98.45-.24-.24-1.76-.49-3.32-.53-1.56-.04-3.83-.2-4.97-.33-1.56-.19-2.1-.05-2.1.56,0,.56-.22.65-.7.28-.39-.3-1.84-.7-3.3-.92-2.12-.32-2.7-.22-3.16.56-.41.7-.84.83-1.62.48-1.56-.69-3.48-.79-3.83-.2-.46.76-2.09.67-2.93-.17-.95-.95-5.2-.96-6.2-.01-.67.63-.85.63-1.26.01-.38-.58-.59-.56-1.03.11-.48.72-.56.7-.56-.2s-.25-.97-1.82-.59c-1.01.25-2.5.44-3.35.42-.84-.02-1.54.25-1.54.59s-.23.25-.5-.2c-.41-.66-.67-.67-1.4-.08-.67.54-.89.57-.89.08,0-.41-.42-.51-1.15-.28-.61.19-1.49.07-1.9-.28-.5-.43-.88-.46-1.12-.08-.24.36-.84.37-1.73.03-.73-.28-1.37-.29-1.37-.03s-2.01.4-4.47.28c-2.79-.14-4.47-.01-4.47.34,0,.29-.5.56-1.06.56-1.73,0-7.04,3.11-7.24,4.24-.1.56-.61,1.39-1.08,1.76-.5.39-.69.7-.42.7.25,0-.05.59-.64,1.26-.6.67-1.33,1.78-1.57,2.37-.61,1.51-.72,7.1-.15,7.88.29.39.45.88.4,1.17-.15.84.72,2.96,1.21,2.96.27,0,.5.53.5,1.14,0,.61.39,1.29.84,1.45.45.16.84.62.84.98,0,.78,2.16,2.12,2.79,1.73.26-.16.58.22.75.9.18.67.57,1.01.92.78.35-.22.95-.1,1.4.28.45.38,1.07.49,1.45.25.39-.24.52-.17.31.17-.21.34.59.82,1.87,1.14,1.45.36,2.35.37,2.57.03.19-.3.67-.41,1.12-.25.45.16.78,0,.78-.39,0-.48.14-.45.5.11.29.45.78.6,1.15.36.33-.22,1.01-.11,1.4.22.45.38.88.44,1.06.14.41-.67,3.1-.67,3.51,0,.17.28.95.09,1.73-.42,1.12-.72,1.52-.77,1.84-.22.24.39.69.53,1.03.31.35-.22,1.09-.14,1.7.2.84.45,1.22.36,1.65-.39.52-.9.62-.89,1.34.11.67.94,1.01,1,2.4.42.97-.4,3.44-.58,6.17-.45,3.91.19,4.51.1,4.25-.64-.2-.56-.03-.77.47-.59.45.16.73.52.67.84-.15.69,11.46.78,12.8.09.6-.3,1.48-.25,2.37.16,1.08.48,1.79.48,2.9-.03,1.17-.53,1.67-.51,2.37.09.95.81,2.85.67,2.85-.2,0-.78,1.48-.56,2.21.34.47.57,1,.67,1.67.31.52-.28,1.56-.37,2.23-.2.78.21,1.44.04,1.73-.45.38-.63.7-.64,1.65-.06.67.41,1.39.59,1.68.42.3-.18.64-.08.84.25.2.34.55.44.87.25s.42-.5.25-.78c-.16-.26.33-.44,1.12-.39.78.05,1.4.29,1.4.56s.31.36.7.22c.4-.14,1.12-.04,1.68.25.73.37,1.06.28,1.31-.36.19-.5.56-.87.87-.87s.4.22.2.56c-.2.33.36.48,1.37.36.95-.11,1.85.03,2.04.31.18.27,1.4.36,2.68.18,5.53-.75,10.39-.81,10.39-.13,0,.5.1.52.41.06.45-.68,3.39-.72,4.46-.06.39.24.73.19.73-.11,0-.74,2.36-.56,2.94.22.24.33.41.17.41-.39,0-1.17.4-1.22,1.45-.17.62.61,1.15.66,2.49.19.95-.33,2.43-.45,3.35-.28.95.18,1.65.07,1.65-.25,0-.31.67-.2,1.51.25,1.34.72,1.66.71,2.91-.11.78-.52,1.23-.65,1.02-.31-.41.67,3.28.99,4.29.36,1.06-.66,2.82-.45,3.51.42.45.56.84.61,1.38.2.42-.33,1.98-.54,3.55-.47,1.56.06,3.09-.12,3.46-.42.39-.31.93-.37,1.28-.16,1.03.63,7.49.75,8.6.16.67-.36,1.21-.33,1.62.08.78.78,2.27.83,1.8.06-.2-.32-.09-.56.24-.56s.59.17.59.39c0,.67,22.31.72,22.73.06.23-.37.52-.31.88.2.39.56.6.57.81.06.16-.39.75-.7,1.37-.7.67,0,.94.25.7.64-.27.44.08.55,1.15.33.85-.17,2.43-.1,3.55.15,2.18.49,3.5.13,2.29-.63-.63-.39-.59-.49.2-.49.56,0,.98.19.98.45,0,.55,2.01.5,2.57-.06.7-.7,1.29-.39.95.5-.3.79-.17.78,1.11-.06.84-.55,1.76-.76,2.18-.5,1.01.63,11.17.69,12.01.08.44-.32,1.06-.26,1.56.14.45.36,1.2.53,1.62.36.45-.17.95-.14,1.17.08.5.5,7.54.45,7.54-.05,0-.22.5-.39,1.12-.39s1.12.31,1.12.7c0,.56.09.56.45.03.3-.45,1.62-.6,4.02-.45,1.96.12,4.03-.02,4.58-.31.84-.44.94-.37.62.45-.34.84-.26.87.53.25.7-.55,1.4-.6,2.91-.2,1.12.3,2.11.34,2.26.08.15-.25.78-.32,1.4-.17.61.15,1.48,0,1.93-.36.6-.48,1.12-.48,2.01,0,.66.35,2.12.53,3.24.39,1.12-.14,2.61-.04,3.3.22.95.36,1.26.27,1.26-.36,0-.45.26-.84.56-.84s.56.28.56.62.36.48.81.31c.45-.17.95-.08,1.13.2.53.84,1.41.67,1.41-.28,0-1.17.9-1.06,1.37.17.35.9.41.89,1.2-.17.54-.73.97-.92,1.22-.56.52.77,2.64.9,4.31.28.84-.31,1.48-.29,1.7.06.19.29.73.42,1.12.28.39-.15.9-.05,1.06.2.17.27,1.06.1,2.01-.36,1.51-.74,1.81-.74,2.65.03.69.63,1.23.7,1.96.28.6-.35,1.62-.39,2.51-.1,1.73.56,2.74.55,4.13-.06.56-.24,1.33-.16,1.73.18.45.38.93.42,1.26.11.29-.27,1.76-.31,3.21-.08,1.45.23,2.81.2,2.96-.06.15-.26.56-.3.89-.1.95.58,6.75.21,7.6-.49.48-.4.67-.36.67.14,0,.39.16.54.36.34.19-.19.73-.07,1.12.25.56.45.75.44.75-.06,0-.54.17-.54.84,0,.45.36.84.44.84.17,0-.72,4.41-.82,5.7-.13,1.29.69,2.2.13,1.01-.61-.45-.28-.64-.63-.45-.82s.67-.02,1.12.41c.89.85,8.25.98,8.26.15,0-.33.19-.28.44.11.65,1,3.13,1.11,3.88.17.57-.73.67-.73.69,0,.02.68.73.8,3.8.64,2.07-.11,4.09-.45,4.47-.75.5-.4.7-.37.7.11,0,.37.36.53.81.36.45-.17.99-.03,1.2.31.24.38.58.11.89-.73.4-1.06.61-1.17,1.01-.53.36.58,1.68.83,4.58.87,2.23.03,4.65.25,5.34.47.89.3,1.26.19,1.26-.36,0-.86,3.13-.67,3.69.22.16.25.84.24,1.56-.03.71-.26,3.13-.37,5.42-.25,2.29.12,4.38.22,4.69.22s2.71-.08,5.34-.17c2.62-.09,5.08-.36,5.45-.59.41-.25.67-.06.67.5,0,.67.2.76.73.33.89-.72,6.44-.7,6.9.03.17.27.62.08.98-.42.56-.76.87-.8,1.82-.22.83.51,1.59.55,2.77.14,1.23-.42,1.81-.36,2.4.25.65.67.87.68,1.31.06.39-.56.6-.58.78-.08.18.48.64.52,1.59.17.76-.28,2.21-.39,3.32-.25,1.23.16,1.98.02,1.98-.36,0-.44.2-.46.7-.06.38.31,2.46.47,4.58.36,2.29-.12,4.18.05,4.61.39.39.32.73.36.73.08,0-.28,2.46-.45,5.59-.39,4.13.08,5.49-.06,5.2-.53-.3-.49-.2-.48.42.03.46.38,2.18.6,4.02.5,1.79-.09,3.21.07,3.21.36s.34.26.78-.11c.84-.69,3.2-.6,3.72.14.2.28,1,.09,1.84-.45,1.17-.75,1.65-.81,2.32-.28.45.36.84.42.84.14,0-.34.95-.35,2.68-.01,4.3.83,9.13.85,8.82.04-.15-.39-.16-.73-.02-.73s.78.32,1.4.7c.95.58,1.22.57,1.59-.06.35-.6.52-.56.81.17.22.56.64.75,1.06.48.38-.24,1.17-.36,1.73-.25.73.14.91-.01.62-.5-.29-.48-.2-.56.31-.25.95.59,7.27.73,7.61.17.5-.82,1.28-.45.94.45-.29.75-.17.81.72.35,1.4-.72,5.91-.71,6.82.01.46.37.67.26.67-.36,0-.72.28-.79,1.4-.35,1.62.63,4.19.57,4.19-.1,0-.24.59-.1,1.26.31.7.42,1.87.66,2.65.53.77-.12,5.81-.33,11.17-.46,10-.25,13.18-.58,13.71-1.44.18-.28.79-.5,1.4-.5s1.09-.27,1.09-.61c0-1.01,1.59-2.3,2.29-1.87.46.29.57.14.34-.48-.23-.61.36-1.45,1.87-2.65,1.23-.98,2.06-1.99,1.87-2.29-.18-.29-.03-.89.33-1.34.37-.45.55-1.31.39-1.93-.15-.61-.08-.99.17-.84.51.31.32-4.58-.25-6.36-.21-.67-.61-1.17-.93-1.17-.34,0-.42-.22-.22-.56.19-.31-.41-1.48-1.37-2.65-.95-1.17-1.7-2.4-1.7-2.79s-.25-.7-.56-.7-1.06-.5-1.73-1.17c-.76-.77-1.62-1.09-2.46-.92-.95.19-1.36-.03-1.59-.84-.17-.61-.54-.94-.84-.75-.3.19-1.14.1-1.93-.2-1.06-.4-1.56-.34-2.09.28-.6.7-.78.7-1.31-.03-.47-.65-1.03-.72-2.43-.31-1.17.34-1.93.33-2.15-.03-.21-.36-.61-.33-1.12.08-.63.51-.95.51-1.62-.03-.5-.4-.84-.45-.84-.11s-1.65.49-4.33.39c-2.46-.1-4.63.07-5.03.39-.5.4-.7.37-.7-.11,0-.54-.17-.54-.84,0-.61.49-.84.49-.84,0,0-.66-3.18-.49-5.14.28-.82.32-.94.2-.64-.64.36-1.01.33-1.01-.84.03-.67.59-1.2.79-1.2.45,0-.66-2.12-.58-3.24.11-.43.26-1.12.1-1.68-.39-.97-.85-2.63-.91-4.97-.15-.67.22-1.31.17-1.48-.1-.17-.26-1.15-.38-2.15-.27-4.19.48-6.64.48-6.94.01-.18-.29-.65-.23-1.1.14-.47.39-1.56.5-2.74.28-1.34-.25-1.96-.16-1.96.28,0,.4-.36.5-.98.25-.54-.22-2.29-.5-3.91-.64-2.18-.19-2.93-.07-2.93.48,0,.57-.11.56-.5-.06-.28-.43-1.23-.82-2.12-.87-.89-.05-1.91-.26-2.26-.47-.33-.2-.81-.12-.99.17-.52.84-1.39.67-1.39-.28,0-.61-.42-.75-1.54-.53-1.12.22-1.88-.01-2.79-.87-.67-.63-1.26-1-1.26-.81s-.36.07-.75-.25c-.39-.32-.9-.47-1.06-.31-.17.17-.62-.56-1.03-1.68-.41-1.12-1.08-1.98-1.54-1.98s-.66-.15-.47-.34c.19-.19-.13-.84-.75-1.51-.62-.67-1.09-1.48-1.09-1.9,0-.39-.27-.73-.59-.73-.33,0-.43-.25-.22-.59.21-.33-.06-1.06-.61-1.68-.95-1.06-.95-1.11.08-1.9,1.02-.78,1.01-.83-.28-1.31-.89-.34-1.13-.63-.7-.89.33-.2.51-.62.36-.87-.15-.25.11-.79.56-1.15.6-.48.68-.95.28-1.68-.39-.7-.31-1.48.28-2.6.47-.89.84-1.4.84-1.15s.39.06.84-.39c.45-.45.84-1.19.84-1.59,0-.43.73-1.02,1.68-1.37.95-.35,1.68-1.01,1.68-1.54s.25-.77.56-.59c.31.18,1.12-.19,1.79-.82,1.08-1.02,2.79-1.43,4.8-1.17.36.05,1.26-.29,1.93-.72.7-.45,2.18-.77,3.35-.73,1.17.05,2.09-.09,2.09-.31s1.42-.32,3.21-.22c1.79.09,3.77-.04,4.47-.31.89-.34,1.26-.25,1.26.31,0,.85,2.57.6,3.8-.37.46-.36.67-.28.67.28,0,.65.45.73,2.35.39,2.46-.44,6.43-.3,6.98.26.17.17.7.04,1.09-.28.39-.32.75-.44.75-.25,0,.21.47.11,1.09-.22.73-.39,1.2-.4,1.43-.03.44.72,2.51.67,2.51-.06,0-.36.45-.31,1.23.12,1.4.77,5.39.69,6.37-.12.45-.37.87-.22,1.26.45.33.56.6.76.61.45.02-.31,1.23-.56,2.68-.56s2.82-.24,3.02-.53c.22-.31.67-.3,1.12.03.42.31,1.37.51,2.15.45.78-.06,1.58.17,1.82.53.29.44.65.33,1.17-.34.43-.56.87-.86,1.03-.7.56.56,6.03.81,6.03.28,0-.3.39-.56.84-.56s.84.29.84.61c0,.36.61.5,1.51.34.84-.16,2.08-.06,2.79.22.73.28,1.28.31,1.28.06,0-.7,6.2-.78,7.04-.09.63.53.78.45.78-.39,0-.61.17-.79.42-.45.23.32.92.62,1.54.66,3.69.25,7.11.13,10.06-.33,2.51-.4,3.56-.35,4.19.19.69.59,2.74.74,3.91.29.15-.06,1.68-.1,3.35-.08,1.79.02,3.24-.25,3.46-.64.31-.52.64-.52,1.54.03.95.58,1.14.55,1.14-.2s.15-.77.81-.22c.66.55,1.2.43,2.93-.64,1.17-.73,2.31-1.35,2.54-1.4.25-.05.64-.11.98-.14.3-.03.56-.45.56-.89,0-.47.48-.84,1.09-.84s1.24-.5,1.42-1.12c.18-.61.7-1.12,1.15-1.12.54,0,.81-.61.81-1.84,0-1.01.25-2.1.56-2.4.3-.3.65-1.31.75-2.21.11-.89.39-2.07.61-2.57.25-.55.02-1.54-.56-2.43-.83-1.28-.86-1.58-.2-1.98.67-.41.64-.7-.22-2.04-.54-.84-1.16-2.03-1.34-2.57-.19-.56-.66-.88-1.06-.73-.75.29-2.46-1.34-2.46-2.35,0-.68-3.02-2.35-4.25-2.35-.43,0-1.34-.29-2.01-.63-2.52-1.29-2.95-1.42-4.36-1.32-.78.06-1.7-.13-2.09-.42-.48-.36-.8-.25-1.03.36-.24.63-.73.8-1.68.56-2.29-.57-6.07-.6-6.82-.05-.46.34-.67.27-.67-.23,0-.56-.15-.57-.67-.06-.78.78-1.78.91-1.32.17.59-.95-3.26-1.09-4.33-.16-.78.69-1.1.74-1.42.22-.29-.46-1.73-.61-4.69-.48-2.35.11-4.48,0-4.72-.25-.24-.24-1.14-.09-1.98.34-1.23.63-1.54.64-1.54.06,0-.84-6.03-.54-7.15.36-.45.36-.67.34-.67-.05,0-.35-.73-.5-1.79-.36-1.01.12-2.08-.02-2.46-.34-.39-.33-.8-.36-.98-.08-.17.26-2.65.42-5.5.36-3.46-.07-5.34.1-5.62.53-.31.48-.55.45-.92-.11-.41-.61-.55-.61-.78,0-.21.56-.29.58-.32.08-.05-.84-2.3-1-2.3-.17,0,.91-1.2.67-1.98-.39-.63-.85-.84-.86-2.01-.11-.81.52-2.37.78-4.11.7-1.56-.08-3.9-.19-5.31-.25-1.4-.06-2.82-.35-3.21-.64-.45-.34-.7-.34-.7,0s-2.07.49-5.31.42c-2.9-.06-5.31.09-5.31.33,0,.8-1.23.57-2.35-.44-.73-.65-1.01-.7-1.01-.18s-.61.64-2.23.42c-1.23-.17-2.23-.11-2.23.14s-.5.32-1.12.17c-.61-.15-1.12-.48-1.12-.73s-1.06-.21-2.35.09c-2.18.49-8.71.2-9.33-.42-.12-.12-.73.23-1.29.73-.73.65-1.18.76-1.46.34-.48-.75-3.59-.67-4.16.11-.26.36-.56.33-.83-.06-.59-.88-5.12-1.14-8.24-.47-.95.2-2.16.34-2.79.3-7.77-.38-25.47-.23-25.62.22-.11.32-.55.25-1.05-.17-.56-.47-.99-.52-1.23-.14-.21.34-.6.59-.92.59s-.42-.21-.22-.53c.2-.32-.92-.43-2.82-.28-1.73.14-3.6.01-4.13-.28-.56-.3-1.14-.37-1.37-.15-.64.62-3.35.51-3.84-.16-.23-.32-.4-.14-.4.42s-.24.98-.56.98-.57-.42-.59-.98c-.03-.9-.09-.89-.84.11-.66.89-.81.93-.81.19,0-.94-1.84-.79-3.18.27-.48.38-1.06.26-1.73-.35-.92-.84-1.12-.84-2.29,0-.78.56-1.42.7-1.64.36-.43-.67-8.08-.77-8.51-.11-.16.25-1.19.24-2.31-.03-1.28-.3-2.23-.25-2.62.14-.45.45-.61.34-.61-.45,0-.84-.14-.92-.67-.39-.84.84-3.05.91-3.53.11-.23-.37-.63-.41-1.02-.08-.35.29-1.54.45-2.6.36-1.06-.09-2.26.07-2.63.36-.43.34-1.09.31-1.82-.08-.61-.33-1.14-.38-1.14-.11,0,.61-2.79.18-3.74-.57-.41-.32-.72-.21-.93.35-.44,1.15-1.83,1.12-2.28-.06-.3-.78-.45-.81-.84-.17-.38.63-.64.64-1.31.08-.56-.47-.96-.5-1.2-.11-.21.34-.6.44-.92.25-.29-.17-.92-.02-1.31.31-.58.49-.83.42-1.09-.31-.27-.77-.78-.87-2.74-.5-3.52.65-5.67.65-6.14,0-.23-.32-.4-.14-.4.42s-.24.98-.56.98-.5-.31-.42-.7c.07-.37-.25-.59-.7-.47-1.79.49-4.8.46-5.42-.05-.37-.31-.77-.26-1.01.13-.25.4-1.12.51-2.35.28-1.23-.23-2.27-.1-2.79.34-.56.46-.96.51-1.2.14-.48-.75-6.85-.88-7.74-.15-.45.36-1.06.34-1.84-.07-.89-.47-1.37-.46-1.98.03-.62.49-.81.5-.81.03,0-.39-.56-.5-1.56-.29-1.59.33-8.99.32-17.71-.02-3.13-.12-5.17.03-5.39.42-.25.42-.67.36-1.34-.2-.73-.6-1.04-.62-1.23-.08-.29.84-2.17.92-2.67.11-.2-.32-.83-.43-1.33-.23-1.4.57-4.48.75-4.76.28-.15-.25-1.83-.4-3.78-.33-1.96.06-3.81-.1-4.16-.36-.36-.27-1.26-.24-2.04.06-.77.29-2.4.52-3.63.5-1.23-.02-2.49.12-2.79.31-.3.18-.65-.11-.75-.61-.18-.89-.25-.89-1.15,0-1.01,1.01-1.85,1.26-1.32.39.19-.3.09-.64-.25-.84-.34-.2-.56-.16-.56.11h0Z"/>
  </g>
</svg>