<?xml version="1.0" encoding="UTF-8"?>
<svg id="_レイヤー_2" data-name="レイヤー 2" xmlns="http://www.w3.org/2000/svg" xmlns:xlink="http://www.w3.org/1999/xlink" viewBox="0 0 256.2 431.03">
  <defs>
    <style>
      .cls-1 {
        fill: none;
      }

      .cls-2 {
        fill: #174e9d;
      }

      .cls-3 {
        fill: #5c4e42;
      }

      .cls-4 {
        fill: #e0a164;
      }

      .cls-5 {
        fill: #7da7da;
      }

      .cls-6 {
        fill: #3e6eb3;
      }

      .cls-7 {
        clip-path: url(#clippath-1);
      }

      .cls-8 {
        clip-path: url(#clippath-2);
      }

      .cls-9 {
        fill: #fff;
      }

      .cls-10 {
        fill: #646464;
      }

      .cls-11 {
        clip-path: url(#clippath);
      }
    </style>
    <clipPath id="clippath">
      <path class="cls-1" d="M114.44,186.35c-6.61-5.44-13.98-5.65-16.31-1.47-2.33,4.18-7.43,17.33-2.29,23,5.15,5.67,26.36-2.03,26.36-2.03l-.57-12.97s-.59-1.09-7.2-6.53Z"/>
    </clipPath>
    <clipPath id="clippath-1">
      <path class="cls-1" d="M134.1,191.79c1.93-3.96,10.46-11.51,15.52-10.14,5.07,1.36,6.54,6.14,7.73,9.15,1.19,3.01,2.01,10.34,1.26,13.11-.74,2.77-9,5.58-13.7,4.58-4.7-1.01-10.68-4.81-10.68-4.81l-.14-11.89Z"/>
    </clipPath>
    <clipPath id="clippath-2">
      <path class="cls-1" d="M119.51,190.73c-1.26,1.42-.94,15.02-.15,16.07.79,1.05,5.16,2.09,6.75,2.27,1.59.18,10.38-.66,10.45-5.72.07-5.06,0-10.55-1.18-12.24-1.17-1.68-13.03-3.57-15.87-.38Z"/>
    </clipPath>
  </defs>
  <g id="_背景" data-name="背景">
    <g>
      <g>
        <path class="cls-4" d="M71.18,229.86c-.74-3.38,1.14-5.76,3.17-7.99,1.54-10.04,7.97-17.88,6.88-28.92-9.34-9.92-21.67-21.01-24.61-34.79-6.01-5.29-3.33-14.04-3.92-21.68,3.52-4.26-1.56-10.41,2.71-14.39.9-9.38,6.47-16.64,8.26-25.64,1.76-2.73,3.65-5.24,4.04-8.62.52-1.62,3.03-3.48,1.4-4.87l-.36.37v-.9c-.74-1.74-2.49-2.62-4.49-2.24-2.8,3.97-8.17,3.22-11.81,5.82-5.75-1.66-11.14-3.94-17.13-5.09-4.38-4.53-14.88-3.06-13.85-11.71.65-3.5,3.54-5.38,6.29-7.62,6.05-4.35,13.19-5.58,19.46-9.41,8.67-3.61,16.76,2.32,24.27,5.49l.51-.39c-3.76-1.39-3.36-6.02-7.23-8.17.9-3.89-4.73-5.04-4.46-8.66-6.97-7.69-8.56-18.08-7.51-28.33,1.65-2.89,4.42-6.38,8.16-5.86,6.37,2.29,13.14,4.2,18.89,8.21-.4,2.51,3.23,3.55,4.99,4.92,5.75-3.48,11.19-7.48,17.05-10.3,5.17-2.86,9.65,1.17,13.14,4.56-.39,2.89-1.16,6.74-.94,10.39-3.64,5.63-6.8,11.47-9.58,17.59,2.74,1.92,4.47,5.78,6.7,8.57l32.45.65c1.87-3.27,6.78-5.46,6.8-9.49-4.88-4.26-10.48-7.54-14.34-13.58-.97-5.91-8.06-12.06-2.16-18.04,7.65-4.99,17.15-.42,24.79,1.49,2.37.15,3.11,4.01,5.85,3.16,4.16-4.75,8.08-9.12,13.11-12.6,4.49-3.22,9.89-1.57,14.38.58,5.86,6.3,2.17,16.41,1.27,23.93-1.5,2.98.59,7.5-2.68,9.88-1.27,6.76-4.57,13.25-6.47,19.38,9.14-5.61,17.6-13.32,29.84-11.13,8.26,4.16,18.41,4.74,25.14,11.39,1.11,2.79-.03,5.76-1.31,8.02-8.65,2.84-15.82,8.94-24.47,11.67l-4.52,1.33c-3.99,1.13-9.25-.53-13.04,1.31.57,9.28,4.94,17.06,7.03,25.72-1.28,6,6.09,8.53,4.05,14.9,1.5,5.8.95,13.17.31,19.3,1.56,7.91-5.59,11.14-7.26,17.63-5.15,4.01-3.79,11.03-9.57,14.37-3.44,8.36-11.23,14.99-18.13,20.7,5.8,13.29,9.78,27.35,14.72,41.02-1.17,11.14,11.72,6.32,16.59,11.35,3.14.27,7.76,1.93,9.89-1.32,6.72-13.01,11.3-26.89,14.21-41.38,3.6-16.03-.83-31.83.75-48.72.76-1.62,1.92-2.75,3.54-3.49,4.48.54,11.01-1.69,12.61,3.57l-.1,20.28c3.12,1.53,7.53.51,9.51,4.55,4.35,6.3,1.42,15.04-1.97,20.79-1.45,8.14-13.31,2.08-12.22,11.72-2.82,11.39-6.98,22.13-10.55,33.26-2.16,7.13-2.93,15.12-7.73,20.74-10.03,1.22-18.28-5.73-27.4-6.52l1.23,4.15c7.2,12.56,2.11,29.05-2.83,40.91-6.44,13.64-13.9,26.9-23.59,39.1-4.83,16.65-3.8,33.33-6.98,50.96.95,7.65-4.99,18.37,4.74,22.2,1.6,4.75,1.08,11-1.43,15.25-3.27.87-6.77,2.73-10.28,1.35-4.62-1.9-9.74-3.55-11.24-9.08-1.84-3.9,1.17-6.87,2.68-9.87-1.29-13.67,1.41-30.06-2.02-43.34-2.37-5.41,1.3-13.39-3.05-18.07-8.15-1.02-17.67.07-25.31-.96-3.04,10.86-1.45,23.63-3.28,35.15l-.88,1.75c1.07,6.4-1.82,12.26-2.85,18.52-1.03,3.13-.03,6.5.95,9.41,3,2.63,1.85,8.14.8,11.24-1.87,5.66-7.89,5.74-13.15,5.35-2.88-1.77-4.88-3.43-7.1-5.83-1.36-3.37-1.72-8.62,2.28-10.85.05-11.4,4.13-23.42.16-34.21l-.81-14.89c-2.59-8.53-2.15-18.04-4.37-26.7-6.37-3.16-8.7-10.31-12.58-15.85-2.74-3.51-2.84-8.15-5.82-11.67-.96-4.88-3.84-8.8-3.95-14.05-1.86-2.52-2.1-6.26-2.19-9.04-2.13-3.38.04-9.01.06-12.6h-.51s-.94-18.97,1.43-24.72c2.38-5.75,6.92-20.36,6.92-20.36Z"/>
        <path class="cls-9" d="M177.25,18.48c-5.29,3.57-7.45,13.36-15.84,9.43-4.37-2.64-8.23-6.04-13.48-5.97.09,6.55,8.23,6.59,12.1,10.47,3.34-.11,4.72,3.8,6.23,5.91,2.85,6.16-9.32,9.23-2.32,13.9-.25,2.26,2.12,1.52,3.12,2.28,5.74.65,3.55-5.75,5.93-8.5,6.45-9.46,10.6-20.73,10.06-32-2.02,1.87-3.17,4.23-5.8,4.49Z"/>
        <path class="cls-9" d="M64.9,20.18c-2.15,6.27,5.08,9.69,7.57,14.58,3.73,7.66,9.19,14.57,15.28,21.24,2.4-.87,5.16-.73,7.18-2.71-.37-4.4-8.1-8.82-3.93-14.93,4.02-3.74,6.05-9.5,7.7-13.49-4.4,1.61-8.19,6.11-11.32,8.96-.62,2.63-1.74-.99-3.12-.37-5.88-.17-7.35-7.56-12.98-8.22-1.26-2.75-4.26-3.51-6.37-5.04Z"/>
        <path class="cls-9" d="M113.02,150.03c-6.03,1.11-7.31,8.24-9.09,12.98-1.91,5.6,3.34,7.66,5.32,11.29,6.36,7.68,15.99,8.48,25.27,7.9,4.9-2.38,10.53-4.46,14.44-8.59,4.26-.73,3.65-5.86,5.44-8.99-1.98-6.52-2.33-14.89-9.82-18.06-9.61-6.19-23.87-6.53-31.55,3.47Z"/>
        <path class="cls-10" d="M122.01,150.07c-1.13,3.9,1.6,6.76,4.49,8.15,4.12,1.19,9.25.56,11.29-4.07,1.76-3.61-.73-6.76-3.09-9.42-4.76-2.02-12.25-.94-12.68,5.34Z"/>
        <path class="cls-10" d="M128.2,166.77c-2.64.22-3.98-4.4-6.74-2.67-1.01.87-1.9,2.38-.88,3.5,3.97,3.52,8.71,6.54,14.37,4.57,2.25-2.25,8.16-3.84,6.42-7.98-4.76-4.16-7.42,6.48-13.17,2.58Z"/>
        <path class="cls-9" d="M117.29,194.52c-7.52.85-11.15-1.57-17.06,3.43.63,3.99-4.92,7.69-7.03,11.14-11.74,19.25-11.37,45.39-18.23,67.27-2.03,6.73-.71,14.5,3.54,19.92,1.57,6.01,6.07,9.79,8.03,15.83,7.37,8.54,12.96,18.73,22.84,24.38,10.75.69,20.77,2.75,32.05,1.92,2.38-1.99,6.12.78,6.77-3.99,1.64-.85,2.26-1.61,3.14-3.11,8.05-4.48,11.48-14.34,19.52-18.81,3.53-5.86,7.41-11.37,9.07-18,3.53-5.37,4.7-11.5,7.36-17.13-1.73-8.76-3.28-17.67-7.65-25.35-3.44-12.4-8.91-23.94-11.99-36.49-2.98-2.4-1.19-6.76-4.44-9.05-1.47-4.37-4.32-7.25-8.81-10.52-13.77.29-23.2,0-37.1-1.45Z"/>
        <path class="cls-9" d="M165.97,115.36c-4.29,2.97-6.25,7.58-8.49,12.52-.85,3.6-.03,7.34.77,10.69,2.82,1.99,1.27,7.95,4.33,10.84,8.31,6.13,18.75,9.65,27.45,1.87,4.08-4.36,6.23-9.67,7.4-15.62-.93-4.71-1.7-9.44-2.9-14.32-4.93-7.45-13.57-10.89-21.53-8.64-1.85,2.22-4.88,1.09-7.04,2.67Z"/>
        <path class="cls-9" d="M70.03,119.03c-4.58,3.97-6.45,11.03-5.56,17-.23,5.72,3.08,12.56,6.94,16.56,5.15,3.01,11.66,5.9,17.56,2.82,4.7-2.08,7.27-7.9,10.23-12,.74-6.32,2.42-13.65-1.32-18.9.54-4.46-4.04-6.47-6.15-8.96-7.03-2.16-16.07-2.34-21.7,3.48Z"/>
        <path class="cls-10" d="M168.57,126.67c-1.27,5.22-1.28,8.28-.06,13.29,3.8,2.52,6.59,9.68,11.35,7.02,4.43-.57,7.44-6.36,8.58-11.19,1.78-7.29-2.14-11.56-6.7-13.88-4.58-4.86-10.78-.46-13.17,4.75Z"/>
        <path class="cls-10" d="M73.18,131.92c.31,6.1.95,13.18,6.38,15.24,5.17-.39,11.46-.55,13.31-7.86-1.29-6.07-1.07-13.97-7.2-16.02-6.28-4.3-9.83,4.2-12.49,8.64Z"/>
      </g>
      <g>
        <g>
          <path class="cls-6" d="M114.44,186.35c-6.61-5.44-13.98-5.65-16.31-1.47-2.33,4.18-7.43,17.33-2.29,23,5.15,5.67,26.36-2.03,26.36-2.03l-.57-12.97s-.59-1.09-7.2-6.53Z"/>
          <g class="cls-11">
            <g>
              <path class="cls-2" d="M83.76,202.38c-3.27,0-3.1.16-2.29-2.03.81-2.2,11.92-5.51,25.32-16.33,5.06-3.51,11.17-8.77,11.67-8.94,1.62-.53,1.62,1.43,1.62,2.37s-33.05,24.93-36.33,24.93Z"/>
              <path class="cls-2" d="M89.35,209.66c-3.27,0-3.1.16-2.29-2.03.81-2.2,11.92-5.51,25.32-16.33,5.06-3.51,11.17-8.77,11.67-8.94,1.62-.53,1.62,1.43,1.62,2.37s-33.05,24.93-36.33,24.93Z"/>
              <path class="cls-2" d="M95.69,215.66c-3.27,0-3.1.16-2.29-2.03.81-2.2,11.92-5.51,25.32-16.33,5.06-3.51,11.17-8.77,11.67-8.94,1.62-.53,1.62,1.43,1.62,2.37s-33.05,24.93-36.33,24.93Z"/>
            </g>
          </g>
        </g>
        <g>
          <path class="cls-6" d="M134.1,191.79c1.93-3.96,10.46-11.51,15.52-10.14,5.07,1.36,6.54,6.14,7.73,9.15,1.19,3.01,2.01,10.34,1.26,13.11-.74,2.77-9,5.58-13.7,4.58-4.7-1.01-10.68-4.81-10.68-4.81l-.14-11.89Z"/>
          <g class="cls-7">
            <g>
              <path class="cls-2" d="M123.77,207.09c-3.22.6-3.02.73-2.62-1.58.39-2.31,10.7-7.61,21.88-20.71,4.32-4.38,9.36-10.68,9.83-10.93,1.5-.82,1.86,1.11,2.03,2.03.17.92-27.89,30.59-31.11,31.2Z"/>
              <path class="cls-2" d="M130.61,213.21c-3.22.6-3.02.73-2.62-1.58.39-2.31,10.7-7.61,21.88-20.71,4.32-4.38,9.36-10.68,9.83-10.93,1.5-.82,1.86,1.11,2.03,2.03.17.92-27.89,30.59-31.11,31.2Z"/>
              <path class="cls-2" d="M137.94,217.94c-3.22.6-3.02.73-2.62-1.58.39-2.31,10.7-7.61,21.88-20.71,4.32-4.38,9.36-10.68,9.83-10.93,1.5-.82,1.86,1.11,2.03,2.03.17.92-27.89,30.59-31.11,31.2Z"/>
            </g>
          </g>
        </g>
        <g>
          <path class="cls-6" d="M119.51,190.73c-1.26,1.42-.94,15.02-.15,16.07.79,1.05,5.16,2.09,6.75,2.27,1.59.18,10.38-.66,10.45-5.72.07-5.06,0-10.55-1.18-12.24-1.17-1.68-13.03-3.57-15.87-.38Z"/>
          <g class="cls-8">
            <g>
              <path class="cls-2" d="M105.76,212.45c-3.13.97-2.91,1.07-2.79-1.27.12-2.34,9.75-8.79,19.36-23.09,3.79-4.85,8.08-11.69,8.51-11.99,1.39-.98,1.97.88,2.25,1.78.28.9-24.2,33.59-27.33,34.56Z"/>
              <path class="cls-2" d="M113.25,217.74c-3.13.97-2.91,1.07-2.79-1.27.12-2.34,9.75-8.79,19.36-23.09,3.79-4.85,8.08-11.69,8.51-11.99,1.39-.98,1.97.89,2.25,1.78.28.9-24.2,33.59-27.33,34.56Z"/>
              <path class="cls-2" d="M121.08,221.6c-3.13.97-2.91,1.07-2.79-1.27.12-2.34,9.75-8.79,19.36-23.09,3.79-4.85,8.08-11.69,8.51-11.99,1.39-.98,1.97.88,2.25,1.78.28.9-24.2,33.59-27.33,34.56Z"/>
            </g>
          </g>
        </g>
      </g>
      <g>
        <path class="cls-5" d="M4.72,239.64c4.85-9.26,105.3,1.31,105.3,1.31,0,0-2.61,41.7-3.44,48.67-.83,6.97-1.68,28.11-1.68,28.11,0,0-45.02-1.27-62.44-2.93-17.42-1.66-42.46-4.36-42.46-4.36,0,0,2.18-48.51,4.72-70.8Z"/>
        <path class="cls-3" d="M6.55,227.19c-1.4,3.99-1.83,12.45-1.83,12.45,0,0,61.08,1.51,72.28,1.93,11.2.41,33.02.18,33.02.18l.59-12.55s-99.7-3.19-104.06-2.01Z"/>
        <path class="cls-9" d="M79.26,248.86l23.17-.33s-2.98,29.02-2.98,33.63-2.14,24.15-2.14,24.15h-21.91s1.14-23.76,3.39-39.89"/>
        <path class="cls-9" d="M16.4,248.67s-1.43,27.47-1.74,31.24c-.3,3.63-.5,20.14-.52,21.28,0,.04-.14-3.24,0,.06.14,3.3,2.07-.51,1.71-3.1.7-4.93,1.38-21.97,1.52-26.2,0-2.02,1.04-21.03,1.12-23.36.09-2.33-1.92-3.15-2.09.09Z"/>
        <g>
          <path class="cls-3" d="M82.86,250.53c2.92-.3,13.79.21,14.7.83.91.62-8.69,6.51-10.43,7.16-1.74.66,9.12,2.89,9.9,3.38.78.49.44,1.22-1.2,1.13-1.64-.09-10.64-2.1-11.5-2.74-.86-.65-1.55-1.73-.32-2.26,1.23-.53,8.91-5.17,8.35-5.35-.56-.18-8.14-1.06-8.88-1.1-.74-.04-2.28-.88-.63-1.05Z"/>
          <path class="cls-3" d="M95.56,273.11c.94-2.44-1.19-7.77-6.26-8.06-5.07-.29-8.89,3.85-7.59,7.27,1.3,3.43,11.22,7.59,13.85.78ZM87.29,274.06c-1.63-.24-4-.67-3.43-2.73.57-2.06,2.18-5.11,4.79-4.51,2.61.6,5.52,2.51,4.24,6.15-.8,2.28-3.96,1.34-5.59,1.09Z"/>
          <path class="cls-3" d="M93.34,283.69c.35-2.18.54-5.54,1.43-5.36.89.18.43,3.18.43,4.8,0,1.61-.43,7.62-.49,8.69-.06,1.07-.37,1.58-.93.79-.56-.8-.58-6.16-.58-6.16,0,0-9.53-.56-11.38-.64-1.85-.09-1.61-1.18.53-1.48,2.13-.31,11.01-.63,11.01-.63Z"/>
          <path class="cls-3" d="M95.09,303.87c.08-1.36-.52-8.41-.53-8.89-.03-.97-13.06-1.77-13.75-.14-.37.87-1.2,7.22-.82,8.17.39.95.57.89,1.06.06.49-.83,1-6.76,1-6.76l4.42-.11s-.07,4.88.3,5.83c.37.95.3.8.77-.6.48-1.4.47-5.22.47-5.22l5.32.23s.3,5.77.65,7.36c.35,1.59,1.07.78,1.11.06Z"/>
        </g>
      </g>
      <path class="cls-4" d="M58.52,280.33c2.73,2.64,3.45,5.76,4.13,8.85-1.36,3.5-4.49,5.99-7.72,8.41-3.3.85-7.32,3.25-10.65.47-3.54-3.29-5.91-7.83-5.96-12.55,1.92-3.43,2.92-8.57,7.8-9.07,0,0-.32-15.55-2.45-20.83-2.12-5.28-1.29-17.86-.61-21.23.83-4.11,8.89-10.57,14.6-15.89,5.7-5.32,20.55-11.09,22.22-11.41,3.34-.63,2.67-.05,2.67-.05l-7.16,17.63s-9.6,6.91-14.2,9.72c-4.6,2.81-4.86,10.85-4.86,10.85l-.37,8.48,2.54,26.63Z"/>
    </g>
  </g>
</svg>