<?xml version="1.0" encoding="UTF-8"?>
<svg id="_レイヤー_2" data-name="レイヤー 2" xmlns="http://www.w3.org/2000/svg" viewBox="0 0 410.29 395.32">
  <defs>
    <style>
      .cls-1 {
        fill: #4f8b74;
      }

      .cls-2 {
        fill: #d7822d;
      }

      .cls-3 {
        fill: #c62d25;
      }

      .cls-4 {
        fill: #fff;
      }
    </style>
  </defs>
  <g id="_背景" data-name="背景">
    <g>
      <g>
        <g>
          <path class="cls-3" d="M339.75,159.82c3.9,8.53,7.67,19,2.68,28.13-10.84,14.74-29.96-10.23-36.42,9.99-6.94,11.93-12.3,25.21-19.24,37.26-6.33,7.31-16.19,7.8-25.45,6.58-5.48-.85-11.69-3.78-13.64-9.62v-1.71l-17.05-9.62c-10.23-10.96-18.75-23.02-14.49-39.46,3.17-7.55,8.53-15.96,17.54-16.69,7.06-.73,11.93,3.9,17.17,7.92,9.13-4.51,22.41-4.51,32.4-1.82,1.34.49,2.44,2.68,3.9,1.33,4.63,6.58.37,15.59,2.19,23.27,5-2.8,11.82-6.7,14.98-12.3,2.07-11.81-9.75-22.28-1.83-33.73,4.99-5,13.15-3.41,19.73-3.05,6.82,2.19,13.15,7.19,17.54,13.52Z"/>
          <path class="cls-4" d="M335.85,161.64c2.8,7.31,8.04,16.93,2.2,24.48-6.58,4.39-15.71,1.58-21.44-2.56-9.87-6.45-11.32-16.2-12.79-25.94.73-2.43.37-5.84,3.53-6.94,11.45-3.65,22.04,1.71,28.5,10.96Z"/>
          <path d="M311.25,153.24c.49,2.44-2.31,2.44-3.41,3.53-1.58-.37-2.19-2.32-1.34-3.53.85-1.82,4.02-2.31,4.75,0Z"/>
          <path d="M323.55,154.09c.36,2.19-2.44,2.19-3.53,1.34-.73-.73-2.43-.24-2.56-1.71-.37-1.1.37-1.95,1.34-2.2,1.7.61,4.14.37,4.75,2.56Z"/>
          <path d="M321.36,161.16c-.12,1.09-.49,2.44-1.7,2.68-1.34.12-2.2-1.34-2.68-2.2-.97-3.65,4.38-3.9,4.38-.49Z"/>
          <path d="M333.17,162.5c.37,1.1-.98,1.95-1.71,2.19-1.71-.24-3.04-2.19-3.9-3.53,0-4.38,5.48-1.22,5.6,1.34Z"/>
          <path d="M314.42,163.84c.37,1.22-.73,1.83-1.34,2.55-2.8.61-2.92-2.43-4.02-3.9.97-2.44,5.36-1.34,5.36,1.34Z"/>
          <path d="M327.57,166.88c.12,1.46-.24,3.04-1.82,3.53-1.1-.49-2.68-.85-3.04-2.19-.85-3.29,3.65-4.02,4.87-1.34Z"/>
          <path d="M338.05,172.97c.49,1.95-1.22,4.14-3.05,2.68-.73-1.71-2.55-4.26,0-5.72,1.59,0,3.05,1.46,3.05,3.05Z"/>
          <path d="M321,173.82c.12,1.34-.37,2.31-1.34,3.17-2.2.85-3.53-1.34-4.39-2.68-.24-1.46.25-2.68,1.34-3.53,1.83.12,3.53,1.46,4.39,3.04Z"/>
          <path class="cls-4" d="M247.68,176.5c-1.7,14.25-.12,29.84-1.22,44.33-9.86-5.72-18.88-16.32-21.07-28.13-1.22-8.65,1.22-16.07,7.92-21.07,5.48-1.58,9.86,2.56,14.37,4.87Z"/>
          <path class="cls-4" d="M268.75,176.5c1.83,1.1,2.19,3.17,1.34,4.87-3.17,3.41-8.28,1.22-11.81,0-1.83-.73-2.68-2.44-2.19-4.39,3.53-1.95,9.01-2.8,12.67-.48Z"/>
          <path d="M330.62,178.69c-.49.85-.85,1.95-1.83,2.68-1.95.12-4.14-.12-4.75-2.19l1.34-3.17c1.95.36,4.26.97,5.24,2.68Z"/>
          <path d="M338.05,182.23c-.37,1.46-2.32,2.31-3.53,1.34-.37-1.46.61-3.53,1.82-4.87,2.07-.36,2.68,2.07,1.71,3.53Z"/>
          <path class="cls-1" d="M332.81,199.28c3.16,8.53,8.4,17.9,5.72,27.16-3.29,3.78-8.16,6.82-13.64,4.87-6.82-3.04-5.24-10.84-4.87-16.68,2.92-5.6,4.75-12.06,10.11-16.2l2.68.85Z"/>
          <path class="cls-4" d="M331.47,224.24c-1.71-.12-4.38.73-4.87-1.7-.85-5.6,1.22-9.99,4.02-14.01,2.32,4.02,3.17,11.08.85,15.71Z"/>
        </g>
        <g>
          <path class="cls-2" d="M175.86,2.07c10.72,16.2-4.87,30.2-9.74,44.33-1.95,1.71-3.41,3.53-3.04,6.09,8.04.36,14-6.57,21.07-9.99,16.2-4.26,28.74,8.65,43.84,10.96,1.95,1.34,4.5,3.29,3.9,6.09-9.87,7.91-20.22,21.07-35.08,16.2-7.79-2.68-16.56-2.92-23.14-8.28-1.09.12-1.83-.48-2.68-.85l-.85.85c6.7,8.41,13.64,17.17,20.1,25.45,4.26,7.55,6.45,16.44,4.87,25.82-9.62,13.88-18.39,28.25-28.99,42.14-5.97,5.72-6.7,12.54-6.09,20.58,1.46,8.89,4.02,17.17,6.09,25.82,6.58,7.55,11.69,15.71,17.17,23.75,10.11-8.16,21.56-16.2,29.35-27.28-1.22-3.65.12-7.43,2.68-9.99,3.65-4.02,8.89-1.71,13.52-2.19,2.56,1.82,6.21,3.41,6.58,6.94-.73,6.09-5.24,11.81-10.47,14.49l-4.39-.49c-10.35,14.98-22.04,29.35-35.07,42.99-7.43,2.19-10.48-6.58-15.35-10.47.24,7.79-.12,15.71-3.05,23.26l-24.6,33.73c.73,18.51,7.91,34.47,14.86,50.42-.73,4.14,2.92,7.67,3.53,11.81,6.21,3.53,13.64,9.14,15.35,16.2-1.46,2.68-1.82,6.94-5.72,7.43-5.24,2.07-9.5-1.1-13.16-4.39-3.41-3.66-6.09-8.77-4.38-13.52-7.55-13.51-14.37-26.55-24.48-38.6-5.48-7.18-8.53-15.47-14.98-22.41-6.46-1.58-13.16,1.22-20.1.97,7.31,21.8,20.1,41.16,30.2,61.75,3.9.73,7.31,4.14,9.26,7.43,1.58,3.9.85,7.43-.85,10.96-4.02,4.63-10.47,3.41-15.35,1.83-3.77-1.1-5.72-5.12-7.91-7.92,1.1-3.77.24-8.16-2.68-10.47-8.28-19.24-23.14-35.68-34.58-53.59-2.07-3.9-.98-9.25-4.39-12.67-7.67-.85-12.91-8.65-14.98-15.34,0-1.83-1.95-4.02,0-5.72,2.43-2.92,5.48,0,7.92.85.49.36.73,1.09,1.34.97-.61-8.65-2.56-16.68-1.71-25.94l-.48-3.9c-5.36,6.94-12.18,14.37-16.2,22.29,1.09,4.38.24,9.86-2.68,13.64-2.68,2.56-6.94,2.56-10.47,1.7-2.8-1.34-7.43-1.95-7.43-6.09,0-3.65-.61-7.55,2.19-10.1,10.72-1.34,13.28-11.82,18.76-19.25,8.89-16.32,16.32-33.12,20.7-51.27,4.39-12.18,8.53-24.6,11.81-37.27-8.52-5.97-15.35-12.91-24.11-18.03-8.53-11.93-27.65-20.21-23.26-37.76,5.36-15.59,10.6-31.3,14-47.74-4.63-1.22-9.62-1.22-14.49-1.7-10.23-3.9-21.68-8.77-28.01-18.51,9.38-6.45,22.53-5.48,34.22-7.43,8.65,3.04,16.08,9.14,23.26,15.83.97-.49,2.31,0,3.04-1.34-10.47-12.06-20.83-24.72-32.03-36.78-1.46-1.95-.97-4.99-.49-7.06,2.92-1.22,5.97-3.17,9.25-1.71l24.11,7.79c5.24-2.8,10.11-6.57,16.2-6.94,2.68-2.31,5.24.49,7.92.85,5.72,3.29,4.75,11.2,3.53,16.68-.98,2.81-3.41,4.99-4.39,7.92,2.44,4.5,8.04,4.26,10.47,8.77,8.28.25,16.2-3.9,24.11-.48,6.82-.49,5.6-8.04,8.77-11.82-4.99-5.48-11.93-9.01-15.35-16.2-.97-1.46-.97-3.41,0-4.87,10.6-8.65,25.7-2.31,37.27-.49,6.34-6.58,16.32-14.74,25.94-8.77Z"/>
          <path class="cls-4" d="M155.16,35.93l-6.58,11.32-10.96-3.9c2.07-4.87,5.48-9.74,3.53-15.83-4.14-3.9-10.23-5.24-13.15-10.47,8.77-.49,15.83,5.72,24.6,6.57,3.53.61,4.75-3.65,6.57-5.72l6.09-6.09c4.02,9.99-10.96,14.37-10.11,24.12Z"/>
          <path class="cls-4" d="M75.87,23.14c.97,6.34-8.77,7.43-7.43,13.16,3.05,3.78,5.97,8.04,9.99,10.96-2.92.12-6.34,5.6-8.77.49-8.52-8.64-16.32-16.44-25.33-23.75,5.48,1.1,10.72,3.16,14.86,7.55,7.31,1.46,9.38-9.62,16.68-8.41Z"/>
          <path class="cls-4" d="M176.23,98.53c3.16,6.7,3.65,17.78-.37,24.12-4.87,6.94-12.79,8.52-20.7,8.77-5.24-1.09-11.33-2.92-13.52-8.77-1.95-6.21-6.7-11.33-4.87-19.24,1.71-7.31,8.89-13.27,15.84-15.35,9.38-.24,19.6.61,23.63,10.47Z"/>
          <path class="cls-4" d="M81.96,103.4c2.8,8.16,5.24,17.91.49,25.82-4.75,6.09-12.18,8.04-19.37,5.72-8.16-1.83-16.68-8.53-20.09-16.68.36-9.25-.49-20.22,9.13-24.48,10.84-2.8,24.6-2.07,29.84,9.62Z"/>
          <path d="M169.65,104.25c2.32,4.14-.49,8.28-.85,12.3-4.26,3.9-8.52,8.77-14.86,6.09-7.19-3.41-6.58-12.18-5.73-19.24.24-4.38,5.12-4.87,7.92-7.06,5.48.49,11.81,1.83,13.52,7.92Z"/>
          <path d="M73.19,110.46c1.83,4.26,2.32,9.62-.36,13.52-4.26,2.2-10.11,2.32-14.98.85-4.27-1.34-6.7-5.97-7.43-9.98.49-3.05-1.46-8.16,1.71-10.6,3.9-.97,7.55-3.53,11.93-2.19,3.65,1.82,6.7,4.99,9.13,8.4Z"/>
          <path class="cls-4" d="M147.36,142.37l2.56,8.4c-1.34,11.57-13.15,10.11-21.92,11.33-8.4-.61-19.97-.25-23.63-9.99-2.44-4.75-1.7-10.23,1.34-14.49,8.04-3.89,17.66-8.4,28.01-5.24,5.23,1.58,10.59,4.75,13.64,9.99Z"/>
          <path d="M131.04,139.33c1.22,2.31,0,4.14-2.19,5.24-4.63.73-9.01-.61-11.81-3.9-1.95-4.99,3.04-4.5,5.73-5.72,2.68.49,7.43.37,8.28,4.39Z"/>
          <path d="M138.59,149.93c-3.29,4.02-7.31,8.16-12.3,8.76-7.06-.61-13.15-5.36-17.17-11.45-.61-1.95,1.09-3.77,2.68-2.68,4.87,4.87,11.45,7.92,18.39,5.36l7.06-6.58c3.05.73,1.46,4.5,1.34,6.58Z"/>
          <path class="cls-4" d="M163.07,225.31c5.36,19-3.65,37.76-19.24,50.42-6.21,6.34-12.54,13.52-18.03,20.58-3.65,1.83-7.31-.13-10.96,1.7-7.92-.12-15.46-1.09-22.78-2.55-4.99-4.02-4.75-11.08-7.06-16.69l-4.39-18.88c-4.87-5.6-3.41-16.32-3.04-24.48,2.56-6.58.61-11.81,1.83-18.88,4.39-13.03,3.53-28.25,7.43-41.65,22.04.12,44.33,2.07,65.28-1.83,4.99,16.93,9.99,34.22,10.96,52.25Z"/>
        </g>
      </g>
      <g>
        <g>
          <path class="cls-3" d="M386.28,317.88c-.92,10.25-4.43,20.23-5.91,30.57l-6.37,4.34c-2.77,12.19-3.88,25.03-6.65,37.22-7.76,6.56-20.32,5.54-30.2,4.62-2.96-1.66-7.11-2.77-8.31-6.65-.09-13.21-3.6-25.03-4.71-37.87-4.62-3.33-7.3-7.39-6.93-13.3l-3.7-19.95c.28-3.88,4.53-4.9,7.3-6.28,13.11-4.06,28.26-6.56,42.95-4.06,8.31,1.94,16.44,4.89,22.54,11.36Z"/>
          <path class="cls-2" d="M373.35,324.53c.55.37.18,1.75,1.29,1.29-12.84,9.05-33.35,7.3-46.83.37l-2.31-2.03c13.3-8.4,34.82-8.68,47.85.37Z"/>
        </g>
        <g>
          <path class="cls-1" d="M410.29,254.04c-1.76,6.84-8.87,11.36-12.65,17.27-11.73,8.41-24.29,14.87-38.89,16.35-3.42,1.76-3.32,5.54-3.69,8.96l.37,24.29c0,.92,1.2,1.94.28,2.95-1.02,1.11-1.39,2.77-2.96,2.96-2.22-.19-4.71-.55-6.01-2.31.74-2.96-1.57-6,.65-8.31-1.57-9.98,3.88-23.46-4.62-29.93-15.15-2.68-30.39-15.88-36.3-30.2-.37-1.85-.74-4.43.37-6,8.77-3.23,16.81,1.38,24.57,3.6,8.69,3.32,16.72,11.45,21.99,19.31,10.06-11.82,22.07-20.23,35.56-24.57,7.94-.09,16.63-.74,21.34,5.63Z"/>
          <path class="cls-4" d="M313.86,253.68c11.45,6.74,22.72,15.43,32.24,25.68.09.28-.19.46-.37.65-10.34-10.9-22.72-18.75-34.92-25.96l-1.29-2.03,4.34,1.66Z"/>
          <path class="cls-4" d="M404.29,256.35c-12.19,4.9-24.94,8.4-35.93,16.35l-9.61,7.3c12.84-11.36,28.27-21.34,45.54-24.66v1.02Z"/>
        </g>
      </g>
    </g>
  </g>
</svg>