<?xml version="1.0" encoding="UTF-8"?>
<svg id="_レイヤー_2" data-name="レイヤー 2" xmlns="http://www.w3.org/2000/svg" viewBox="0 0 323.36 582.62">
  <defs>
    <style>
      .cls-1 {
        fill: #fff;
      }

      .cls-2 {
        fill: #262424;
      }

      .cls-3 {
        fill: #d17d3d;
      }
    </style>
  </defs>
  <g id="_背景" data-name="背景">
    <g>
      <path class="cls-3" d="M55.38,388.4c2.92,3.19-1.05,5.57,0,9.29,3.18,16.19,4.77,33.43,12.74,47.76,2.64,7.43,5.04,14.6,5.04,23.36,6.9,18.83,7.43,40.32,18.3,57.57,1.59,7.96,5.58,14.86,6.63,23.08,5.32,2.66-2.11,4.79-.52,7.96-5.31,4.51-13.27,6.9-16.46,14.07,2.92,5.58,7.97,9.55,14.07,11.14,5.84-.26,10.09-4.25,16.46-3.72,4.77-1.59,6.36-5.84,7.43-10.35.26-16.72-7.7-31.57-9.83-47.76,3.72-11.68.81-29.45,16.46-32.37,16.17-2.64,31.83-1.85,44.04,8.5,3.18,16.18,18.83,28.12,32.63,35.54,6.64,5.05,16.19,4.78,22.01,11.68,1.87,6.1-2.39,15.13,6.12,18.84,9.02-1.6,12.2-10.62,15.91-17.77-.8-8.23,2.13-16.72-5.05-21.5-14.58,5.84-20.7-10.61-29.44-18.31l-4.78-7.16c-.8-13.26-1.33-27.86.54-40.59,1.59-2.39,5.04-.28,6.9-1.87,10.35-4.77,19.9-16.19,19.64-27.59-2.12-3.18-5.58-5.84-9.83-4.78-2.11,1.6-4.51,2.66-6.9,3.19,1.33-6.64,3.8-11.02,5.92-18.45,0,0,4.07-8.13,4.07-43.08s-5.73-43.27-5.73-43.27c-6.1-11.68-7.17-26.27-7.17-39.8-.8-1.31-1.85-2.64-1.85-4.24,11.15-3.99,21.49-11.14,30.51-19.1,13.53-16.72,24.93-36.88,23.88-58.64.28-25.21-13.54-46.44-18.83-69.78l1.05-1.33c5.31,4.25,12.2,4.25,16.72,11.15,16.97,3.19,32.89-3.45,50.14-3.72,2.66-2.92,5.3-3.98,7.17-7.43,0-10.35-10.88-12.47-16.46-19.1-12.2-7.17-22.81-21.76-40.84-13.27-3.72,1.86-7.97,3.72-11.68,2.93,11.68-13.53,26.79-24.94,35.55-40.86,3.44-6.91,1.33-16.19-2.66-22.02-13.27-10.35-27.33,4.77-38.47,11.4-3.7-2.64-7.43-6.1-9.82-10.35-4.25-6.36-11.94-9.82-19.11-12.2-4.51,1.32-10.35,1.59-12.2,7.43,1.85,14.06,3.18,28.39,10.61,40.32-1.06,3.72-5.05,6.9-7.97,9.29-16.71-3.72-34.49-3.19-50.4-5.04-6.11-3.72-3.72-12.21-8.5-16.99,12.2-7.43,30.51-17.51,29.45-34.49-1.07-3.72-5.84-6.37-9.29-8.49-7.97.79-16.71.54-23.34,4.78-3.2-.53-5.58,1.32-8.5,1.85-5.82-9.81-9.55-26.27-24.4-23.88-3.19.54-5.31,3.45-7.96,5.05-3.46,11.67-3.98,23.61-1.85,36.08.26,12.47,6.62,23.08,4.76,35.55-4.25-9.82-14.32-12.2-22.02-19.1-11.94-4.78-25.21,1.6-38.47,1.32-5.3,3.45-14.86-.26-17.25,7.96-.8,11.15,13.54,8.76,17.25,17.24,5.58,1.33,9.81,6.38,14.06,9.56,8.23,3.72,17.52,8.76,27.59,5.05-1.32,6.36-7.16,12.47-9.82,18.83-4.25,14.86-15.91,29.18-18.3,44.85-2.92,2.64-.28,5.03-1.87,7.95-3.72,15.93.8,30.52,5.58,45.37,11.15,14.33,13.53,33.96,29.98,44.57-7.69,19.11-19.9,36.35-27.06,55.72-4.78,16.98-12.6,27.77-14.42,44.14-1.18,10.66-.17,28.04-.17,28.04"/>
      <path class="cls-1" d="M121.45,47.99c2.38,9.56,3.18,20.44,3.7,29.98v1.86l12.75-1.86c2.38-8.49-7.43-20.16,1.33-27.32,8.49-6.9,18.83-8.23,24.93-17.78-10.09,0-19.11,9.28-31.04,7.96-6.9-6.37-8.21-15.92-13.53-23.35-1.05,9.29-.52,20.43,1.87,30.51"/>
      <path class="cls-1" d="M233.42,71.87c3.18,7.7-5.04,11.41-7.96,15.39,3.98,2.4,8.23,3.46,11.68,7.43,15.12-14.86,29.18-26,39.26-44.04-.78-.54-.78-1.33-.78-1.87-4.25,2.39-9.55,4.79-12.21,8.5-7.69.8-11.42,11.14-20.7,7.96-7.43-6.37-9.55-13.8-17.24-19.64,1.33,8.23,4.77,18.04,7.96,26.27"/>
      <path class="cls-1" d="M79.79,162.08l-6.1,14.59c1.59,12.74,4.77,28.39,18.3,33.16,10.09.79,22.28-2.11,27.07-11.67,2.9-10.08,6.9-23.35,3.72-34.23-3.99-5.04-9.56-11.41-16.72-11.15-4.79-4.24-10.61-.26-15.12,1.33v.54l-11.14,7.43"/>
      <path class="cls-2" d="M83.26,168.63c-3.18,7.43.28,15.13,4.51,20.96,1.07.27,2.13-.26,2.92-1.32,3.45,5.04,9.02.8,13.54,1.32,6.89-4.78,6.62-11.41,7.95-19.1,0-5.31-2.13-9.3-6.1-12.74-8.49-.54-18.85,2.39-22.82,10.87"/>
      <path class="cls-1" d="M211.92,178.53c-11.68,11.41-11.42,27.86-4.78,42.18,4.25,3.72,9.02,7.97,14.06,7.97,9.3,2.39,16.98-5.57,22.03-12.74,4.51-9.55,9.82-19.37,5.05-29.44-5.05-5.04-6.91-11.94-14.86-13.53-7.17,0-16.72-.8-21.49,5.57"/>
      <path class="cls-2" d="M214.09,184.05c-3.72,6.37-8.75,14.06-5.04,22.02,2.39,4.51,6.9,5.31,10.61,7.43,5.84-2.65,12.74-1.33,14.6-9.29,2.64-4.25,4.51-10.08,3.72-15.13-.28-4.24-5.05-5.31-7.43-7.96-6.11-2.12-11.42,1.06-16.46,2.92"/>
      <path class="cls-1" d="M122.78,226.29c0,9.55,8.49,16.45,15.91,22.02,12.2,7.17,28.92,7.17,42.19,2.39,3.98-4.51,10.61-5.3,10.88-12.21,2.65-8.75-3.99-14.85-6.11-22.55-8.49-2.91-10.61-12.2-20.16-14.06-7.17-2.92-14.6,1.59-21.49,3.45-7.43,6.37-18.85,10.61-21.22,20.96"/>
      <path class="cls-2" d="M149.04,210.37c-1.85,5.57,2.13,11.15,7.17,13.53,6.64,1.06,10.61-3.45,13-8.76.8-2.39-1.32-3.98-.54-6.63-3.18-.8-3.18-5.58-6.9-4.78-5.05.26-10.09,1.6-12.73,6.64"/>
      <path class="cls-2" d="M168.67,230.54c-5.57,3.18-10.61,8.49-17.78,5.57-3.44-3.45-5.29-10.08-10.61-9.82,1.07,5.31,4.77,10.88,6.91,16.45,3.98,7.7,13.51,1.32,19.63.8,6.9-1.6,7.7-7.96,12.2-12.47,1.87-3.19,3.98-7.7.54-11.41-1.59-1.86-2.92.8-4.78,0l-6.1,10.88"/>
      <path class="cls-1" d="M196.29,400.39c3.58-17.5.93-23.04,2.26-35.52.94-14.69-.88-29.33-2.51-42.33-5.58-17.24-6.41-29.38-9.59-47.17-14.59-.8-25.19-6.36-39.25-5.57-13.54-2.92-26.28-1.86-39.29-5.58-.78,3.72-5.82,7.43-4.77,11.68-6.1,14.33-14.86,27.33-19.11,42.19-7.95,12.21-11.67,26.8-15.91,39.79,3.18,3.2,1.86,6.64,1.32,10.35-.53,7.7-2.12,16.98,1.06,23.88l-1.06,7.43c3.98,13.27,3.98,28.12,11.67,39.79,3.2,11.68,7.43,23.08,15.13,33.17,15.12,5.05,31.05-4.51,47.76-1.32,14.6-5.84,29.72-11.15,40.6-24.41,6.1-10.08,12.51-15.31,11.71-28.31l-.02-18.07"/>
      <path class="cls-3" d="M78.25,276.37c-4.47-4.19-7.76-7.79-9.56-9.81-2.82-3.17-5.28-6.22-7.41-9.05-7.7-5.79-7.94-16.08-13.62-22.96-2.25-4.55-4.3-8.95-6.44-13.31.05-1.36.1-2.71.16-4.07-1.22-3.81-2.9-8.18-5.26-12.89-2.67-5.32-5.57-9.83-8.26-13.49-2.74-.95-5.52.09-7.57,1.61-5.84,4.2,4.88,12.56-4.83,12.09-3.13-1.74-6.16-1.24-9.19-.73-3.91,2.42-5.62,7.38-6.27,11.82,4.82,8.8,15.15,11.93,25.06,13.85,3.77,8.53,7.95,16.86,11.04,25.59,4.89,2.48,2.96,8.59,7.63,11.36,1.25,5.12,4.09,9.74,8.41,13.36,7.7,6.45,25.29,20.62,26.01,21.2,4.61-4.39,9.22-8.78,13.83-13.16-5.59-4.12-10.16-8.07-13.74-11.41Z"/>
      <path class="cls-3" d="M199.67,326.37c-5.74-1.73-10.17-3.43-12.61-4.4-3.83-1.53-7.28-3.09-10.35-4.6-9.31-1.82-13.65-10.15-21.56-13.62-3.86-2.87-7.49-5.69-11.17-8.45-.5-1.13-.99-2.26-1.49-3.39-2.63-2.66-5.91-5.6-9.94-8.55-4.55-3.34-9-5.93-12.91-7.91-2.87.26-4.97,2.16-6.23,4.18-3.62,5.64,9.46,8.43.45,11.72-3.54-.24-6.09,1.32-8.64,2.88-2.58,3.46-2.15,8.16-.96,12.03,7.9,5.37,18.53,4.03,28.3,1.85,6.84,5.55,13.97,10.78,20.28,16.75,5.44.18,6.12,5.9,11.48,6.4,3.19,3.71,7.61,6.42,12.99,7.75,9.58,2.36,31.23,7.3,32.11,7.5,2.43-5.33,4.86-10.66,7.29-15.99-6.73-1.25-12.46-2.75-17.04-4.14Z"/>
    </g>
  </g>
</svg>