<?xml version="1.0" encoding="UTF-8"?>
<svg id="_レイヤー_2" data-name="レイヤー 2" xmlns="http://www.w3.org/2000/svg" viewBox="0 0 621.3 160.35">
  <defs>
    <style>
      .cls-1 {
        fill: #e5d8cc;
      }
    </style>
  </defs>
  <g id="_背景" data-name="背景">
    <path class="cls-1" d="M511.72.33c.39.39,11.34.77,24.42.85,13.08.07,23.91.23,24.15.36.25.13.85.26,1.38.31.5.05,2.09,1.17,3.43,2.42,2.65,2.48,4.56,9.41,3.53,12.79-.79,2.58-5.62,6.9-7.09,6.34-.71-.27-1.25,0-1.25.64,0,.64-.67,1.17-1.56,1.25-.87.07-2.54.27-3.78.45-1.25.17-3.09.02-4.18-.36-1.07-.36-2.18-.3-2.45.13-.57.92-4.85.71-6.54-.33-.59-.36-1.87-.41-2.85-.12-.98.29-1.78.15-1.78-.31,0-.51-2.09-.35-5.29.4-2.94.69-5.81,1.06-6.45.83-2.4-.86-7.88-1.12-8.32-.39-.26.43-1.33.35-2.31-.18-.98-.52-2.05-.73-2.31-.44-.25.28-1.07.06-1.69-.44-.95-.77-1.2-.67-1.2.49,0,.89-.39,1.24-.98.89-.54-.32-6.45-.74-13.12-.93-6.67-.2-12.75-.38-13.48-.4-.73-.02-3.25.32-5.56.76-2.31.44-6.06.52-8.27.18-2.2-.34-6.14-.3-8.63.09-2.49.39-5.03.36-5.56-.06-.8-.63-5.34-.66-5.34-.03,0,.1-3.56.3-8.01.44-5.25.18-8.24-.09-8.67-.76-.49-.75-.9-.67-1.56.31-.71,1.07-1.04,1.09-1.65.13-.6-.95-1.16-.99-2.67-.18-1.07.57-2.29.81-2.76.53-.51-.29-1.04-.17-1.33.31-.26.43-1.65,1.08-2.98,1.41-2.49.6-9.96,7.29-9.96,8.91,0,.5-.61,2.05-1.41,3.56-1.41,2.67-1.94,8.49-1.02,11.12.26.73.77,2.14,1.14,3.11.37.98.61,2.06.55,2.4-.19.99,5.63,6.94,6.79,6.94.61,0,1.07.53,1.07,1.25,0,1.35,3.29,2.4,7.92,2.51,1.51.04,2.76.43,2.76.87,0,.48.32.6.8.3,1.06-.66,12.72-1.52,17.44-1.28,1.95.1,7.38.22,12.01.27,4.63.05,8.93.39,9.52.76.62.39,1.25.37,1.51-.04.67-1.08,9.08-1.14,11.84-.09,1.51.58,2.62.58,3.2,0,1.3-1.3,8.43-1.16,8.89.18.26.76.72.8,1.61.13.73-.54,5.83-.9,12.23-.85,10.59.09,11.05.17,12.77,2.27.94,1.16,1.99,1.99,2.22,1.77.87-.81,3.71,3.97,3.95,6.64.13,1.51.57,3.13,1.01,3.74,2.3,3.17-6.38,12-11.27,11.46-1.33-.15-2.31.2-2.31.81,0,.6-1.16,1.07-2.67,1.07-1.51,0-2.67-.37-2.67-.85,0-.48-.89-.26-2.05.49-1.42.93-2.51,1.08-3.56.49-1.16-.65-1.51-.53-1.51.49,0,1.06-.85,1.24-4.05.89-2.49-.27-4.56-.03-5.38.62-1.13.9-1.62.45-1.35-1.25.06-.34-.7-.62-1.68-.62s-1.78.28-1.78.62c0,.85-4.72.74-6.14-.14-.61-.38-1.6-.2-2.31.41-.71.61-1.59.86-2.05.57-1.6-.99-6.33-1.51-6.8-.75-.27.43-2.23.49-4.28.13-2.22-.39-3.9-.34-4.07.13-.4,1.13-3.45,1.07-4.17-.09-.42-.67-1.01-.65-1.9.09-.95.78-1.87.81-3.47.09-1.16-.52-2.81-.75-3.51-.49-.71.26-1.92.01-2.58-.53-.71-.58-1.46-.7-1.73-.27-.27.41-4.05.66-8.32.55-11.03-.3-17.64-.32-23.66-.08-2.85.11-5.41-.06-5.6-.37-.2-.32-1.65-.3-3.25.04-1.62.35-4.23.54-5.92.45-1.69-.1-3.95.17-5.12.62-1.33.51-2.09.48-2.09-.09,0-.98-13.13-1.06-13.73-.09-.18.29-4.11.37-8.65.18-4.54-.19-11.45-.4-15.21-.44-3.82-.05-6.89-.43-6.89-.85,0-.42-.58-.28-1.29.31-.71.59-3.11,1.07-5.34,1.07s-4.27.34-4.54.76c-.27.42-1.07.54-1.78.27-.8-.3-1.29-.02-1.29.76s-.86,3.02-1.89,5.16c-3.01,6.23-3.63,15.12-1.24,17.79.72.8,1.15,1.72.91,1.96-.24.24.27,1.11,1.07,1.85,6.14,5.71,7.66,6.89,8.54,6.6.6-.2,1.52.27,2.09,1.07.74,1.03,2.62,1.45,6.81,1.51,3.2.05,6.22.37,6.76.71.53.33,1.82.17,2.8-.36,1.29-.69,2.62-.71,4.58-.04,1.51.51,3.2.61,3.74.22.54-.39,5.16-.6,10.32-.46,11.3.31,9.34.31,20.64,0,5.25-.14,9.61.09,9.61.5,0,.45.36.54.89.22.49-.29,4.36-.71,8.63-.93,5.52-.29,7.94-.08,8.45.71.4.62.72.72.72.22.01-1.07,8.61-1.56,9.25-.53.24.4,2.22.43,4.44.09,2.49-.39,4.37-.25,4.98.36.68.68,1.17.67,1.6-.04.39-.64,2.89-.92,6.63-.76,3.29.15,6.23-.09,6.49-.53.29-.47.93-.52,1.56-.13,1.51.96,35.22,1.07,35.8.13.27-.43,1.47-.17,2.63.58,1.69,1.09,2.52,1.17,4,.36,1.01-.55,3.38-.79,5.16-.52,2.91.45,12.1.75,16.46.55.8-.04,1.74-.45,2-.87.29-.47,1.38-.47,2.62,0,2.76,1.04,15.87.76,16.64-.36.39-.56,1.24-.32,2.31.67,1.51,1.39,1.81,1.41,2.85.18.9-1.07,1.44-1.15,2.4-.34,1.16.96,8.99,1.27,9.88.39.2-.2,1.51-.02,2.94.4,1.42.42,2.77.44,3,.04.44-.75,3.76-.68,4.56.1.3.29,1.6.23,2.94-.13,2.85-.76,15.76-.56,18.42.29,1.07.34,2.24.18,2.58-.35.36-.56,1.87-.74,3.56-.42,4.98.96,8.37,1.01,8.66.15.43-1.28,6.91.18,7.5,1.69.27.71.94,1.25,1.55,1.25,2.36,0,4.35,3.56,4.58,8.18.28,5.78-1.52,9.2-5.82,11.09-1.69.74-3.74,1.69-4.49,2.08-.79.41-2.05.33-2.94-.18-1.07-.61-1.93-.57-2.76.13-.71.61-1.4.7-1.7.22-.54-.86-8.33-.71-9.2.18-.3.31-1.06.1-1.77-.49-.89-.73-1.53-.74-2.22-.04-.61.61-1.69.7-2.85.26-1.83-.71-3.11-.68-12.37.29-2.4.25-3.97.1-3.69-.36.27-.44-1.02-.58-2.89-.31-1.86.27-7.38.41-12.28.32-8.19-.15-23.97-.1-27.14.09-.74.04-3.6-.12-6.45-.36s-5.12-.09-5.12.36c0,.79-4.09.52-9.16-.6-1.42-.32-3.04-.09-3.78.52-1.02.84-1.73.78-3.43-.31-1.16-.75-2.36-1.15-2.62-.89-.27.27-4.85.63-10.1.8-5.25.17-11.36.43-13.48.58-2.14.15-4.09-.07-4.36-.49-.26-.39-.79-.27-1.11.27-.47.78-1.96.79-6.14.04-3.02-.54-6.28-.74-7.21-.44-3.02.96-11.98,1.28-12.49.44-.3-.48-1.83-.49-3.79-.04-1.92.44-4.76.38-6.81-.13-2.76-.7-3.92-.61-5.38.43-1.82,1.29-4.8,1.16-6.67-.28-.48-.37-2.62-.38-4.67-.02-2.31.41-4.01.34-4.36-.18-.34-.5-.87-.36-1.29.36-.55.93-1.07.98-2.31.22-1.01-.62-2.58-.7-4.27-.22-1.46.41-4.89.49-7.56.18-2.69-.32-11.3-.54-19.13-.49-7.83.05-16.44.04-19.13-.01-7.3-.15-13.4.45-15.04,1.47-.44.27-.95.06-1.14-.48-.32-.92-12.65-1.22-24.31-.6-2.49.13-5.62,0-7.12-.29-1.46-.29-6-.29-10.01,0-4,.29-8.05.29-8.9,0-.89-.3-2.19-.13-3.02.4-1.07.68-1.86.62-2.89-.22-1.16-.94-1.67-.96-2.76-.09-.71.57-1.33.65-1.33.18,0-.52-1.73-.73-4.23-.49-2.31.22-4.63.36-5.12.31-.49-.05-3.11-.15-5.78-.22-2.67-.07-5.16-.54-5.47-1.02-.37-.57-1.07-.48-1.96.27-.77.64-2.09.94-2.98.67-.88-.27-4.8-.17-8.72.22-4.27.43-7.54.37-8.18-.13-.57-.46-1.6-.52-2.22-.14-1.82,1.11-6.23,1.35-8.81.47-1.33-.46-2.6-.62-2.85-.38-.98.97-11.3,1.22-11.3.27,0-.53-.42-.72-.93-.4-.48.3-1.51.09-2.14-.44-.89-.76-1.36-.76-1.82,0-.41.67-1.96.82-4.45.44-2.49-.38-4.06-.22-4.49.44-.44.67-2.09.83-4.85.47-9.34-1.24-14.96-1.44-17.17-.59-1.25.47-2.52.57-2.76.21-.25-.37-2.62-.43-5.38-.13-2.76.3-4.94.26-4.94-.09,0-.34-2.4-.5-5.34-.36-2.94.15-5.34-.11-5.34-.58s-.8-.41-1.78.13c-.98.54-2.16.76-2.62.49-.51-.29-1.04-.15-1.33.36-.29.5-1.56.53-3.07.09-2.85-.83-17.23-.61-18.68.29-.51.31-1.14.15-1.47-.38-.34-.55-1.02-.59-1.65-.11-1.05.81-7.74.77-9.07-.06-.43-.27-2.54-.19-4.58.17-2.05.36-3.96.38-4.17.04-.49-.79-30.57-.45-31.37.36-.28.28-1.11.06-1.73-.44-.88-.72-1.56-.69-2.54.1-1.28,1.04-1.77.61-1.4-1.26.09-.46-.42-.32-1.22.36-.82.69-2.58.96-4.36.67-1.6-.26-3.54-.14-4.18.27-.71.45-1.44.38-1.78-.18-.39-.63-1.56-.66-3.6-.09-1.69.47-3.85.55-4.89.18-1.01-.36-3.47-.52-5.34-.34q-4.98.47-9.25.1c-2.22-.19-4.87-.03-5.96.37-1.16.42-2.19.35-2.54-.18-.37-.57-1.02-.51-1.82.18-.8.68-2.45.84-4.58.44-1.87-.35-5.29-.82-7.78-1.07-2.85-.29-4.98-1.05-5.92-2.14-.77-.89-1.68-1.48-1.91-1.25-.25.25-1.32-.8-2.45-2.4-1.75-2.49-1.88-3.18-1.02-5.52.55-1.51.77-3.02.49-3.47-.9-1.48,2.36-6.94,4.14-6.94.89,0,1.84-.61,2.14-1.38.34-.87,1.16-1.18,2.22-.85.89.28,1.92.18,2.18-.22.27-.42,6.01-.84,12.77-.93,6.76-.1,16.87-.34,22.51-.53,6.14-.21,10.68,0,11.34.53.74.59,1.51.56,2.31-.09.88-.72,1.5-.62,2.31.36.59.71,1.57,1.05,2.09.72.94-.59,5.52-.86,24.29-1.47,4.36-.14,7.1.11,6.81.61-.29.49.4.57,1.65.19,3.65-1.12,8.91-1.42,10.41-.58.87.49,2.05.4,3.03-.23,1.23-.79,2-.77,3.34.09,1.16.74,1.93.8,2.31.18.3-.49,1.38-.68,2.27-.4.96.3,2.58.63,3.74.76,1.16.13,2.49.49,3.07.85.53.32,1.28.2,1.56-.27.32-.53.89-.89,1.42-.89.51,0,.64.4.31.93-.39.62.27.71,1.96.27,1.42-.37,3.41-.63,4.54-.58,1.07.05,2-.33,2-.8,0-.47.71-.3,1.51.36,1.6,1.32,5.61,1.64,5.61.44,0-.39,4.89-.49,10.94-.22,12.46.56,15.06.85,16.64,1.85.6.38,1.36.19,1.74-.43.52-.87,1.11-.88,2.71-.04,1.6.84,2.2.82,2.76-.09.38-.62,1-.87,1.33-.53.32.32,1.11.22,1.65-.22.66-.55,2.18-.53,4.32.04,1.78.48,3.64.69,4.05.45.41-.24,1.96-.1,3.38.31,1.87.54,3.1.41,4.27-.45.89-.65,2.05-.95,2.54-.65,1.47.91,20.82.99,24.73.1,2.22-.5,4.05-.5,4.67.02.56.46,5.65.86,11.25.89,5.6.02,10.23.08,10.23.13s2.05.17,4.54.27c3.56.14,4.44-.09,4.09-1.07-.29-.8-.03-.99.71-.54,2.05,1.25,17.14,1.15,19.04-.13.97-.66,3.11-1.2,4.72-1.2,2.14,0,2.94-.39,2.94-1.42s.5-1.23,1.33-.91c1.22.47,4.89-2.12,4.89-3.45,0-.25.9-1.91,2.05-3.78,1.64-2.68,2.04-4.58,2-9.65-.04-5.52-.37-6.79-2.62-10.05-1.54-2.22-3.07-3.56-3.78-3.29-.62.23-1.2-.11-1.2-.71,0-1.3-3.11-2.73-8.01-3.67-1.69-.32-3.6-1-4.18-1.49-.59-.49-10.19-.99-21.49-1.11-11.21-.12-20.8-.46-21.26-.76-.51-.32-1.09-.28-1.47.09-.8.8-18.34.88-18.83.09-.21-.34-1.72-.32-3.32.04-3.38.76-18.22.51-20.91-.36-.98-.32-1.98-.25-2.22.14-.6.97-12.37.83-13.97-.17-.71-.44-.96-.41-.64.08.52.81-8.61.85-21.33.07-3.11-.19-5.76-.18-5.96.02-.65.65-14.41.63-15.48-.02-.53-.33-1.2-.24-1.47.2-.38.62-10.72.71-10.72.09,0-.36-10.76-.48-11.48-.13-1.6.79-18.33.58-18.33-.23,0-.48-.23-.57-.58-.22-.32.32-1.07.17-1.69-.36-.62-.52-1.46-.83-1.91-.71-1.52.43-4.82-2.1-5.75-4.41-1.94-4.8-1.19-14.41,1.12-14.41.54,0,2.05-.75,3.38-1.7,3.11-2.2,7.59-3.11,9.7-1.97.89.48,1.99.64,2.31.33.34-.32,3.91-.7,7.92-.85,11.03-.4,15.15-.78,16.9-1.53.87-.37,2.8-.47,4.23-.2,1.51.28,2.62.11,2.62-.4,0-.53.36-.68.89-.36.49.29,3.34.7,6.27.89,2.94.19,6.17.6,7.12.89.98.3,1.73.11,1.73-.44,0-1.23,3.3-1.16,4.08.09.29.47,1.35.64,2.24.35,2.4-.76,10.97-.86,12.19-.13.53.32,1.24.16,1.56-.35.32-.51,3.47-.93,6.94-.93s8.99,0,12.14,0,6.95.18,8.41.4c1.42.22,3.36-.07,4.23-.62,1.23-.79,2-.77,3.34.09.98.63,2.34.88,3.11.58.8-.31,1.38-.1,1.38.49,0,.53.43.77.89.49.49-.29,6.32-.61,12.9-.71,7.03-.1,12.01-.53,12.01-1.02,0-.49.44-.4,1.07.22,1.42,1.42,7.12,1.42,8.54,0,.85-.85,1.07-.8,1.07.27,0,.73.8,1.39,1.78,1.47.98.07,1.58-.19,1.34-.58-.55-.89,19.66-.71,20.55.18.32.32,1.2.13,1.82-.4.62-.53,1.48-.77,1.78-.49.32.29,1.25.17,2.05-.27.89-.49,3.02-.45,5.43.09,2.76.62,4.05.59,4.28-.09.35-1.07,4.3-1.14,4.94-.09.24.39,3.99.55,8.26.36,9.03-.4,11.92-.41,26.42-.07,5.78.13,10.66-.02,10.85-.33.19-.32,4.72-.56,9.96-.53,5.87.03,10.39-.37,11.61-1.02,1.33-.71,2.36-.77,3.07-.19,1.32,1.09,14.06-.72,17.97-2.56,3.29-1.55,7.8-5.96,6.76-6.62-.45-.29-.06-2.47.89-4.96,1.08-2.85,1.34-4.45.71-4.45-.57,0-.76-.89-.44-2.13.6-2.4-1.49-7.19-3.47-7.94-.71-.27-1.35-1.05-1.36-1.66-.03-1.28-7.44-6.05-9.4-6.05-.71,0-1.25-.32-1.25-.76,0-.41-4.05-.7-8.94-.62-4.89.07-9.16-.21-9.43-.62-.28-.44-.93-.39-1.56.13-.65.54-2.31.61-4.27.18-1.77-.39-4.72-.56-6.58-.37-3.56.37-10.1.55-13.26.38-.99-.06-4.05.06-6.89.26-3.2.22-5.12,0-5.12-.58,0-.59-1.38-.69-3.78-.27-2.05.36-4.8.67-6.01.68-3.83.02-13.33-.97-14.15-1.47-.43-.27-1.04.13-1.31.84-.54,1.42-4.12,1.89-4.12.53,0-.44-1.78-.71-4-.59-4.36.23-7.13-1.16-10.3-5.2-2.17-2.76-3.49-10.32-1.8-10.32.55,0,.98-.62.98-1.42,0-2.03,5.34-6.48,7.92-6.6,9.34-.43,15.91-.41,17.35.07.93.31,3.74.2,6.23-.23,5.87-1.03,15.75-.98,16.81.08.49.49,1.91.49,3.69,0,1.62-.45,4.23-.76,5.92-.71,1.69.05,4.32-.13,5.96-.4,1.64-.27,4.27.08,5.96.8,1.69.72,3.22.98,3.47.58.49-.79,8.3-.71,9.09.09.29.3,1.5.16,2.75-.31,1.25-.47,2.54-.65,2.94-.4.39.24,1.73.06,2.98-.4,1.25-.46,2.45-.56,2.67-.22.22.34,3.87.58,8.05.53,4.18-.05,7.65.23,7.65.62,0,.7.89.56,4.18-.67,2.58-.96,4.18-.88,6.23.32,1.07.62,2.13.86,2.34.52.5-.82,26.75-.71,28.08.11.53.33.98.28.98-.11,0-.4,2.98-.77,6.72-.85,3.74-.07,6.95-.35,7.25-.62.3-.27,1.25-.11,2.14.36.89.47,2.17.63,2.89.36.71-.27,1.51-.13,1.78.31.3.48,3.25.36,7.43-.31,3.83-.61,7.18-.97,7.47-.8,1.42.83,11.85,1.14,13.26.4.8-.42,1.78-.55,2.09-.26.32.3,3.07.59,6.18.67,3.11.07,6.06.41,6.63.76.53.32,1.23.28,1.46-.09.6-.99,10.24-1.34,11.49-.42,1.28.95,2.4.92,4-.09.62-.39,1.4-.48,1.69-.2s1.07.1,1.69-.4c.71-.57,1.78-.63,2.76-.16,1.76.85,5.34.76,7.47-.18.71-.31,1.67-.26,2.05.12h0Z"/>
  </g>
</svg>