<?xml version="1.0" encoding="UTF-8"?>
<svg id="_レイヤー_2" data-name="レイヤー 2" xmlns="http://www.w3.org/2000/svg" viewBox="0 0 72.69 72.69">
  <defs>
    <style>
      .cls-1 {
        fill: #fff;
      }

      .cls-2 {
        fill: #5b9843;
      }
    </style>
  </defs>
  <g id="_背景" data-name="背景">
    <g>
      <circle class="cls-2" cx="36.35" cy="36.35" r="36.35"/>
      <path class="cls-1" d="M47.25,50.86c-2.98,2.26-7.25,3.55-10.9,3.55-10.32,0-18.87-8.26-18.87-18.67s8.54-18.77,18.87-18.77,18.87,8.5,18.87,18.87c0,5.04-1.82,9.12-5.23,12.77l5.42,5.52h-5.14l-3.02-3.26ZM47.2,45.73c2.69-2.83,3.98-6.14,3.98-10.03,0-8.26-6.53-14.98-14.83-14.98s-14.83,6.77-14.83,14.98,6.62,14.98,14.83,14.98c2.69,0,5.86-1.01,8.07-2.69l-8.74-8.78h5.28l6.24,6.53Z"/>
    </g>
  </g>
</svg>