<?xml version="1.0" encoding="UTF-8"?>
<svg id="_レイヤー_2" data-name="レイヤー 2" xmlns="http://www.w3.org/2000/svg" viewBox="0 0 391.79 394.58">
  <defs>
    <style>
      .cls-1 {
        fill: #695f38;
      }

      .cls-2 {
        fill: #f4ef8a;
      }

      .cls-3 {
        fill: #e6b667;
      }

      .cls-4 {
        fill: #d1ae78;
      }

      .cls-5 {
        fill: #b78651;
      }

      .cls-6 {
        fill: #c04069;
      }

      .cls-7 {
        fill: #bbdcf2;
      }

      .cls-8 {
        fill: #c24345;
      }

      .cls-9 {
        fill: #fff;
      }

      .cls-10 {
        fill: #262424;
      }

      .cls-11 {
        fill: #beddf2;
      }

      .cls-12 {
        fill: #85b77a;
      }

      .cls-13 {
        fill: #d6929b;
      }

      .cls-14 {
        fill: #ddc49a;
      }

      .cls-15 {
        fill: #f5f09e;
      }

      .cls-16 {
        fill: #88b97f;
      }

      .cls-17 {
        fill: #d17d3d;
      }

      .cls-18 {
        fill: #b5a340;
      }

      .cls-19 {
        fill: #a4c584;
      }
    </style>
  </defs>
  <g id="_背景" data-name="背景">
    <g>
      <path class="cls-3" d="M155.48,163.95c0,.93-.75,1.68-1.68,1.68s-1.68-.75-1.68-1.68.75-1.68,1.68-1.68,1.68.75,1.68,1.68"/>
      <path class="cls-3" d="M184.41,194.72c0,.93-.75,1.68-1.68,1.68s-1.68-.75-1.68-1.68.75-1.68,1.68-1.68,1.68.75,1.68,1.68"/>
      <path class="cls-3" d="M157.21,174.62c0,.6-.49,1.09-1.09,1.09s-1.09-.49-1.09-1.09.49-1.09,1.09-1.09,1.09.49,1.09,1.09"/>
      <path class="cls-3" d="M193.58,194.92c0,.6-.49,1.09-1.09,1.09s-1.09-.49-1.09-1.09.49-1.09,1.09-1.09,1.09.49,1.09,1.09"/>
      <path class="cls-3" d="M168.64,218.09c0,.6-.49,1.09-1.09,1.09s-1.09-.49-1.09-1.09.49-1.09,1.09-1.09,1.09.49,1.09,1.09"/>
      <path class="cls-6" d="M253.13,19.99s-14.84-14.49-17.72-4.19c-2.88,10.3,8.2,22.11,15.63,15.62,0,0-10.89,15.1,1.41,24.24,9.13,6.79,9.72-17.41,5.55-23.9,0,0-4.3-7.91-4.86-11.78"/>
      <path class="cls-6" d="M255.21,23.72s.08-23.28,13.81-21.78c13.73,1.5,3.95,23.44,3.95,23.44,0,0,14.84-7.1,17.28,6.71,2.45,13.81-16.42,17.52-25.57,8.05-9.16-9.47-9.47-16.42-9.47-16.42"/>
      <path class="cls-13" d="M253.37,22.38s-12.94-11.66-14.1-5.73c-.86,4.38,3.72,4.26,3.72,4.26,0,0-3.23-.23-2.83,3.43.4,3.66,4.39,2.54,4.39,2.54,0,0-1.14.56-.41,2.75.73,2.2,8.92-.66,8.92-.66,0,0-5.58,8.36-4.35,14.66,1.23,6.3,3.22-.97,3.22-.97,0,0-.67,8.26,2.47,7.77,2.37-.37.76-6.78.76-6.78,0,0,1.85,7.6,4.06,4.76,1.93-2.49-2.18-14.51-1.59-16.15.59-1.64-2.22-3.8-4.26-9.87"/>
      <path class="cls-13" d="M256.39,28.77s1.02-24.46,9.23-22.97c5.21.95.79,7.5.79,7.5,0,0,4.97-4.26,6.87-1.18,1.89,3.08-3.39,6.55-3.39,6.55,0,0,7.18,2.76-4.34,9.71,0,0,10.66-3.55,14.21.79,3.55,4.34-.81,6.58-4.5,4.34,0,0,7.79,1.69,3.47,7.18-2.1,2.67-6.63-1.89-6.63-1.89,0,0,1.89,2.68-.87,2.76-2.76.08-13.42-8.6-14.84-12.79"/>
      <path class="cls-2" d="M265.97,9.67c0,.9-.73,1.62-1.62,1.62s-1.62-.73-1.62-1.62.73-1.62,1.62-1.62,1.62.73,1.62,1.62"/>
      <path class="cls-2" d="M243.79,17.91c0,.9-.73,1.62-1.62,1.62s-1.62-.73-1.62-1.62.73-1.62,1.62-1.62,1.62.73,1.62,1.62"/>
      <path class="cls-2" d="M272.58,14.12c0,.83-.67,1.5-1.5,1.5s-1.5-.67-1.5-1.5.67-1.5,1.5-1.5,1.5.67,1.5,1.5"/>
      <path class="cls-2" d="M278.5,37.99c0,.83-.67,1.5-1.5,1.5s-1.5-.67-1.5-1.5.67-1.5,1.5-1.5,1.5.67,1.5,1.5"/>
      <path class="cls-2" d="M277.78,30.44c0,.83-.67,1.5-1.5,1.5s-1.5-.67-1.5-1.5.67-1.5,1.5-1.5,1.5.67,1.5,1.5"/>
      <path class="cls-2" d="M244.51,24.04c0,.83-.67,1.5-1.5,1.5s-1.5-.67-1.5-1.5.67-1.5,1.5-1.5,1.5.67,1.5,1.5"/>
      <path class="cls-2" d="M258.58,24.37s.95-7.39,2.15-10.07c1.26-2.81,2.44-1.69,1.58.69-.86,2.38-3.72,9.37-3.72,9.37"/>
      <path class="cls-2" d="M263.66,31.18s4.28.8,7.47.65c3.07-.14,2.39-1.61-.15-1.45-2.53.16-7.32.8-7.32.8"/>
      <path class="cls-2" d="M264.7,33.7s3.65,2.36,6.66,3.43c2.9,1.04,2.82-.58.42-1.4-2.4-.81-7.08-2.04-7.08-2.04"/>
      <path class="cls-2" d="M260.47,26.03s3-6.2,4.97-8.37c2.07-2.28,2.84-.85,1.28,1.15-1.56,2-6.25,7.22-6.25,7.22"/>
      <path class="cls-2" d="M262,28.06s2.56-3.54,4.47-4.87c2-1.4,2.34-.15.78,1.13-1.56,1.27-5.25,3.74-5.25,3.74"/>
      <path class="cls-2" d="M253.36,24.14s-3.93-3.69-5.92-4.7c-2.09-1.06-2.38.01-.75.99,1.64.97,6.67,3.71,6.67,3.71"/>
      <path class="cls-2" d="M254.22,26.51s-4.77-2.25-7.05-2.68c-2.4-.45-2.28.63-.35,1.13,1.93.49,7.4,1.55,7.4,1.55"/>
      <path class="cls-2" d="M253.81,28.5s-3.35-.74-5.21-.61c-1.95.13-1.57.93.04.92,1.61,0,5.17-.31,5.17-.31"/>
      <path class="cls-9" d="M248.64,14.28l.08-.21s-.93-2.14-2.4-4.28c-1.47-2.14-3.45-4.31-5.67-4.33-.54,0-1.09.13-1.63.43-.97.53-1.37,1.44-1.37,2.4.02,2.2,1.94,4.81,3.73,4.85.29,0,.58-.08.85-.24.72-.45,1.02-1.15,1.02-1.87-.02-1.6-1.35-3.37-2.67-3.4-.17,0-.34.03-.49.1-.55.23-.8.69-.79,1.16,0,.52.26,1.07.6,1.49.34.42.77.74,1.2.75.09,0,.19-.02.28-.06.29-.12.44-.37.43-.62,0-.34-.21-.67-.44-.94-.24-.26-.49-.47-.75-.48h-.1c-.08.04-.13.13-.1.22l.2.1c.06,0,.32.15.51.38.21.23.37.53.36.73,0,.14-.05.24-.24.33l-.15.03c-.25,0-.65-.25-.95-.63-.31-.38-.53-.88-.53-1.29,0-.37.15-.67.6-.87.12-.05.24-.07.37-.07.5,0,1.11.39,1.57.99.46.6.78,1.38.78,2.09,0,.64-.24,1.21-.87,1.6-.22.14-.45.19-.68.19-.73,0-1.6-.6-2.27-1.49-.67-.88-1.14-2.03-1.14-3.05,0-.88.34-1.65,1.2-2.12.5-.27.99-.39,1.48-.39,1.99-.01,3.96,2.07,5.4,4.19,1.45,2.12,2.37,4.23,2.37,4.23l.15.1h.06"/>
      <path class="cls-9" d="M240.11,9.19c0,.26.21.47.47.47s.47-.21.47-.47-.21-.47-.47-.47-.47.21-.47.47"/>
      <path class="cls-9" d="M252.25,12.52c.09-.02.14-.11.12-.19,0,0-.69-2.87-.69-5.81,0-2.92.68-5.81,3.22-6.17.13-.02.25-.03.38-.03.91,0,1.6.52,2.08,1.31.48.79.72,1.83.72,2.8,0,1.49-.56,2.74-1.58,2.82h-.19c-.7,0-1.21-.35-1.57-.9-.35-.54-.54-1.27-.54-1.96,0-.97.37-1.8.99-1.94.11-.03.2-.04.29-.04.36,0,.61.19.8.5.18.31.28.73.27,1.14,0,.64-.24,1.19-.52,1.23l-.13.02c-.15,0-.23-.07-.31-.21-.07-.14-.11-.35-.11-.57,0-.29.07-.6.15-.72l.04-.05c.08-.03.12-.12.09-.2l-.2-.09c-.31.17-.37.6-.39,1.06,0,.25.04.51.15.72.11.21.32.38.59.38l.2-.02c.55-.16.75-.84.76-1.53,0-.89-.39-1.94-1.39-1.95-.12,0-.24.02-.37.05-.85.23-1.23,1.22-1.23,2.25,0,1.46.77,3.17,2.42,3.18h.22c1.29-.14,1.86-1.6,1.86-3.14C258.39,2.39,257.38.02,255.28,0c-.14,0-.28,0-.42.03-2.82.43-3.49,3.55-3.49,6.48,0,2.99.7,5.88.7,5.89h0s.15.12.15.12h.04"/>
      <path class="cls-9" d="M255.99,3.31c.16.21.12.51-.09.66-.21.16-.51.12-.66-.09-.16-.21-.12-.5.09-.66.21-.16.51-.12.66.09"/>
      <path class="cls-1" d="M244.95,15.82c0,1.63,1.32,2.95,2.95,2.95s2.95-1.32,2.95-2.95-1.32-2.95-2.95-2.95-2.95,1.32-2.95,2.95"/>
      <path class="cls-1" d="M249.84,14.3c0,1.71,1.39,3.1,3.1,3.1s3.1-1.39,3.1-3.1-1.39-3.11-3.1-3.11-3.1,1.39-3.1,3.11"/>
      <path class="cls-1" d="M254.95,18.14s.58,11,7.58,17.31c4.14,3.74,5.68,8.37,2.95,8.79-2.74.42-11.89-8.52-13.37-24.94,0,0,.84-3.16,2.84-1.16"/>
      <path class="cls-1" d="M247.79,17.99c.29,1.56,2.36,2.48,4.63,2.06,2.27-.42,3.88-2.02,3.59-3.58-.29-1.56-2.36-2.48-4.63-2.05-2.27.42-3.88,2.02-3.59,3.58"/>
      <path class="cls-9" d="M250.26,14.3c0,1.48,1.2,2.68,2.68,2.68s2.68-1.2,2.68-2.68-1.2-2.68-2.68-2.68-2.68,1.2-2.68,2.68"/>
      <path class="cls-9" d="M245.47,15.82c0,1.34,1.08,2.42,2.42,2.42s2.42-1.08,2.42-2.42-1.08-2.42-2.42-2.42-2.42,1.08-2.42,2.42"/>
      <path class="cls-1" d="M251.53,14.46c0,.58.47,1.05,1.05,1.05s1.05-.47,1.05-1.05-.47-1.05-1.05-1.05-1.05.47-1.05,1.05"/>
      <path class="cls-1" d="M247.68,16.09c0,.49.4.89.89.89s.89-.4.89-.89-.4-.89-.89-.89-.89.4-.89.89"/>
      <path class="cls-9" d="M250.38,18.1c.13-.03,1.05.31,1.66.21.81-.02,1.41-.54,1.52-.55l.11.09c0,.08-.41.86-1.58.99-1.17.06-1.73-.56-1.78-.61l.08-.13"/>
      <path class="cls-17" d="M203.44,85.13c7.86-4.28,19.92-.16,25.83-2.95,4.76-4.76,12.96-1.64,18.54-4.1l51.52,9.03c.65,3.94,4.75,7.38,6.56,11.32,5.09,10.66,13.78,19.85,20.01,30.02,5.75,13.45-5.41,23.79-9.19,35.11-7.05,7.54-10.17,17.39-18.87,23.46,3.45,6.56,4.26,14.43,11.32,19.03,3.12-.65,5.09-3.94,8.37-4.26,19.36-18.38,39.22-37.24,55.3-57.42,2.13-.98,4.42-.33,6.07,1.14,1.48,1.81,2.13,4.92.82,7.06-1.64,1.31-2.14,3.61.32,4.26,3.94.65,9.68-.49,10.99,4.43,1.64,2.62.17,5.91-.49,8.37-5.58,6.4-13.78,3.28-21.16,5.74l-8.37-.82c-13.29,14.43-28.22,26.9-42.33,40.19-2.96,20.02,3.61,39.05,13.29,55.29,3.6,6.57,10.82,8.04,17.71,8.37,2.79.98-.32,2.62-.32,4.1-3.45,3.93-8.2,5.09-12.97,6.07-1.48,2.3-5.09.49-6.4,3.77,0,1.15-.16,2.63.82,3.45-.65,0-1.14.66-1.48,1.15-.82,7.87-3.77,14.93-4.26,22.97-3.78,17.88-12.48,33.63-12.8,52.66-2.63,1.48.32,3.78-1.15,5.74-1.31,3.61-.33,8.2-3.77,10.99-3.61,2.63-8.2,4.27-12.96,2.95-5.75-3.77-3.61-10.17-1.48-15.09,1.31-1.97,2.63-3.28,4.6-4.6,2.13-19.36,6.56-37.57,6.39-57.91-5.41.16-11.81.99-17.06,2.63-4.26,8.53-3.61,19.19-7.87,27.73-2.13,10.01-5.09,19.68-6.07,30.19,2.14,4.26,2.46,11.65-.82,15.58-2.14,4.59-7.38,3.94-11.32,3.45l-4.1-4.59c-.82-6.89,3.44-11.48,7.87-16.24-1.81-13.78,1.97-28.06-.33-42-.65-6.89-3.12-12.96-3.77-19.69-8.86-10.33-22.64-18.87-26.58-31.17-5.42-12.96-4.26-28.55-4.92-43.47-1.31-4.76-1.48-10.17-6.07-13.29-18.87-6.24-33.14-24.28-51.85-31.01-6.4,4.43-8.16,7.87-15.38,3.45-.98-3.61-3.33-7.12-4.92-11.92-.2-3.7-1.52-6.78,2.91-6.29,1.97-.66,3.78,1.48,5.25-.33-.33-3.11-4.43-6.89-.66-9.51,5.91-.98,8.37,6.23,11.98,9.51,3.61,7.22,12.15,9.03,18.55,12.47,10.82,6.39,23.46,8.36,33.79,15.91,1.97-.16,4.27-1.64,4.59-3.77.98-4.1,1.48-10.17-1.97-12.96l-4.92-1.48c-11.98-10.83-25.1-19.52-36.42-31.5-1.81-2.14-4.26-5.25-2.14-8.2,4.1-11.81,8.37-24.28,11.65-36.09l10.1-26.91"/>
      <path class="cls-9" d="M308.84,120.08c1.81,5.08,5.91,9.68,3.77,15.92-2.95,8.37-9.68,14.6-18.54,15.91-5.74-.49-11.15-3.12-13.94-8.36-3.61-6.89-3.12-16.41-.49-23.46,5.58-6.56,14.1-7.71,21.98-6.4,2.79.98,5.75,3.61,7.22,6.4"/>
      <path class="cls-10" d="M304.74,125c1.15,4.1,3.28,10.66-.82,13.94-3.93,2.63-9.35,4.75-13.61,2.63-3.28-2.47-4.1-6.24-4.1-10.17.65-4.59,2.46-9.84,7.54-11.32,4.1.49,9.36-.16,10.99,4.92"/>
      <path class="cls-9" d="M234.19,134.02c2.3,7.88-1.64,14.77-6.73,19.36-6.23,4.6-12.31,10.34-20.83,7.88-4.43-1.48-8.04-6.24-9.03-10.5-.49-4.76.33-9.84,2.63-14.11,6.56-7.55,15.26-12.47,25.27-9.84,4.26-.17,6.89,4.1,8.7,7.22"/>
      <path class="cls-10" d="M227.13,145.84h.66c-1.64,1.81-2.79,4.1-4.93,5.25-4.1-1.8-9.03-4.92-13.29-2.95-.82,1.15-1.31,2.46-2.95,2.3-1.98-1.81-.98-5.08-.82-7.22,1.64-2.46,4.1-4.1,6.56-4.92,5.91-.33,11.82,1.81,14.77,7.55"/>
      <path class="cls-9" d="M272.09,165.85c.98,4.6,0,9.19-1.81,12.96-4.59,5.41-11.65,4.43-17.06,7.05l-11.32.49c-2.79-3.93-8.36-5.58-7.21-10.99-.33-6.23,3.44-11.49,8.7-14.77,6.89-3.77,16.08-2.79,23.46-.82l5.25,6.07"/>
      <path class="cls-10" d="M258.8,164.38c.49,3.45-3.61,4.1-5.58,5.74-2.14.65-5.58.49-6.07-1.97,0-2.96-.33-5.42,2.95-6.4,3.29.16,8.2-2.63,8.7,2.62"/>
      <path class="cls-10" d="M262.57,170.77c1.31,4.92-2.95,8.2-6.39,10.67-4.76.82-9.03-2.3-12.15-6.07.16-2.63,2.46-3.28,4.59-2.3,1.97,3.77,5.75.82,8.36.33,1.48-1.64,3.61-2.13,5.58-2.63"/>
      <path class="cls-9" d="M288.34,191.94l.49-.33c4.75,11.65,7.21,24.28,12.47,35.6,2.79,8.54.49,19.2,4.92,26.91.82,2.13-1.81,4.26.66,5.58.49,13.12-.33,25.6-2.14,37.57-4.1,7.05-12.47,6.56-19.36,7.87-5.42-.16-12.31,4.43-16.24-1.48-4.1-3.94-8.37-7.06-12.96-9.51-4.27-5.91-11.65-10.83-13.95-17.72-10.99-8.86-7.22-25.27-9.19-38.55-.16-13.29.33-27.56,1.15-40.2,6.56-.82,13.29-1.48,19.69-2.3,9.68-1.64,19.68-2.46,28.87-5.58,1.97.16,4.27.82,5.59,2.13"/>
      <path class="cls-17" d="M201.01,117.26c-3.4,1.11-14.23.15-17.53.98-5.82.7-15.37,3.75-21.42,2.04-5.78-5.19-14.15-4.15-18-11.9,2.38-7.41,9.77-5.61,14.71-8.57,7.78-2.89,16.23-9.49,23.3-2.78,4.4,2.57,14.88,12.94,18.57,12.7-.23-3.38-11.87-9.92-13.51-12.41-7.45-10.63-21.15-19.74-18.15-35.39,2.49-2.95,5.88-4.57,9.49-3.31,3.9,1.42,7.93,2.32,11.3,5.44,7.57-5.46,16.39-12.14,25.95-8.17,3.26,3.97-.19,8.64-.35,13.04-1.06,3.25-7.81,7.69-6.84,11.39,2.45,5.63-.05,10.38,4.91,11.29l-12.41,25.64"/>
      <path class="cls-9" d="M206.54,71.02c-.13,5.76-7.19,8.83-5.45,15.05,1.67,3.51,3.48,7.01,6.14,9.98l-6.13,5.93c-8.3-5.36-11.2-17.13-20.03-20.95-1.75-1.47-1.68-3.85-2.18-6.2,3.5,2.27,6.98,4.38,10.22,7.67,5.99-.5,10.53-7.07,15.42-11.43l2-.06"/>
      <path class="cls-17" d="M257.96,83.94c1.28-4.3,9.94-11.47,9.91-16.18-4.49-5.84-8.94-13.17-6.49-21.04.62-3.28,4.18-4.38,6.69-5.28,5.99-.12,11.09,3.74,16.38,6.14,8.37-2.55,15.96-9.37,24.65-10.55,2.17.36,4.45,1.12,5.1,3.86l-1.12,8.1c-7.47,12.11-14.29,24.52-21,37.32.73.87,1.97.52,3.11.9,4.99-6.5,9.47-14.22,17.32-17.99,10.56,1.4,21.47-1.1,31.35,3.94-.43,9.34-10.22,13.53-16.32,19.47-5.17,2.9-12.93,9.66-18.63,10.21l-50.96-18.9"/>
      <path class="cls-9" d="M281.85,81.39l-5.79-1.34c.69-2.52,2.93-5.16,4.34-7.94.52-2.55,3.57-4.86,1.4-7.67-2.63-3.26-8.27-4.4-7.67-9.94,6.08.46,8.55,7.27,14.63,7.72,2.99-4.39,7.33-7.43,11.85-9.3-6.3,8.54-12.98,18.71-18.76,28.47"/>
      <polyline class="cls-4" points="198.04 99.13 216.81 90 255.74 79.5 285.49 78.46 280.41 57.24 270.25 40.45 261.67 34.79 251.21 32.39 241.56 34.52 227.84 40.04 214.97 40.31 203.02 43.64 194.49 53.02 189.87 61.33 190.31 79.26 198.04 99.13"/>
      <polyline class="cls-8" points="197.95 103.24 220.6 95.08 256.91 84.29 287.14 82.02 287.54 80.22 285.49 78.46 255.74 79.5 216.81 90 198.04 99.13 197.27 101.09 197.95 103.24"/>
      <polyline class="cls-4" points="146.44 134.65 138.77 129.01 144.4 123.93 152.55 120.21 171.43 110.42 197.95 103.24 220.6 95.08 256.91 84.29 287.14 82.02 329.83 81.7 353.54 89.79 339.09 93.52 331.66 97.79 319.85 102.33 307.8 107.08 238.11 111.75 193.89 126.18 157.47 136 146.44 134.65"/>
      <polyline class="cls-5" points="195.38 91.93 209.72 82.48 221.93 79.65 209.94 80.76 194.43 90.1 195.38 91.93"/>
      <polyline class="cls-5" points="193.22 86.96 203.14 81.05 208.07 79.32 202.08 79.47 192.71 85.55 193.22 86.96"/>
      <polyline class="cls-5" points="191.69 82.33 201.68 76.99 207.52 75.29 200.91 75.09 190.99 81 191.69 82.33"/>
      <polyline class="cls-5" points="190.31 79.26 200.16 71.95 208.08 70.36 199.29 70.29 190.08 77.12 190.31 79.26"/>
      <polyline class="cls-5" points="189.87 61.33 201.02 56.92 209.08 57.31 201.33 55.36 190.92 59.05 189.87 61.33"/>
      <polyline class="cls-5" points="192.41 56.77 200 53.7 204.9 53.62 199.31 51.96 193.36 54.73 192.41 56.77"/>
      <polyline class="cls-5" points="256.27 84.36 264.42 88.78 268.64 95.1 265.36 87.56 259.27 84.08 256.27 84.36"/>
      <polyline class="cls-5" points="263.81 83.75 269.72 86.9 276.14 91.86 271.19 85.85 265.98 83.63 263.81 83.75"/>
      <polyline class="cls-5" points="220.6 95.08 216.21 101.67 215.57 106.01 217.56 102.1 222.28 94.59 220.6 95.08"/>
      <polyline class="cls-5" points="217.77 96.1 211.2 102.81 208.11 107.2 210.05 101.48 215.06 97.02 217.77 96.1"/>
      <path class="cls-16" d="M144.18,132.99c-.43-.18-.91-.53-1.43-1.05l.73.54.7.51"/>
      <path class="cls-11" d="M142.54,125.61c-1.02-.05-2.04-.07-3.05-.07-.34,0-.68,0-1.02,0-.65-1.2-1.32-2.54-2.03-4.02-2.73-5.63-5.42-12.15-8.05-19.64v-.04s-.02-.04-.02-.04c-.53-1.59-1.08-3.22-1.64-4.9.55.13,1.1.25,1.64.25.06,0,.12,0,.18,0,1.73,0,3.1-1.74,3.97-3,.39-1.62.07-3.38-.91-4.61-.99-1.08-2.32-1.33-3.75-1.33-.58,0-1.19.04-1.79.08-.6.04-1.21.08-1.79.08-.08,0-.17,0-.25,0-3.23-10.79-5.44-20.24-6.62-28.3-1.33-8.8-1.03-13.46.84-13.92.1-.02.2-.04.31-.04,1.88,0,4.68,3.89,8.43,11.61,3.9,8.13,7.75,18.24,11.46,30.24,3.72,12.01,6.21,22.4,7.55,31.2.2,1.36.36,2.63.49,3.79l-2.1.96-1.86,1.68"/>
      <path class="cls-16" d="M139.87,128.01c-.45-.74-.92-1.56-1.4-2.47.34,0,.68,0,1.02,0,1.02,0,2.03.02,3.05.07l-2.67,2.41"/>
      <path class="cls-11" d="M128.37,94.04c-.84-.26-1.8-.49-2.76-.58-.23-.72-.46-1.44-.68-2.17,0-.03-.02-.06-.03-.09.36.01.73.02,1.1.02.83,0,1.66-.02,2.5-.05.39.39,1.17.52,1.17,1.17.19,1.11-.78,1.04-1.3,1.69"/>
      <path class="cls-14" d="M144.86,133.14c-.21,0-.44-.05-.68-.15l-.7-.51-.73-.54c-.85-.85-1.81-2.16-2.88-3.93l4.53-4.09,2.1-.96c.68,6.36.25,9.74-1.33,10.13-.1.02-.2.04-.31.04"/>
      <path class="cls-7" d="M80.5,62.72l-.5-.15c-.52-.16-1.03-.3-1.52-.43.63-2.25,1.48-4.37,2.56-6.38.18.18.46.34.75.51.73.43,1.73,1.01,1.71,2.15.34,1.93-.81,2.61-1.65,3.12-.39.23-.76.45-1.02.78l-.33.41M15.76,136.76c-.67,0-6.63-3.5-11.37-6.16-.16-.13-.32-.26-.48-.38,1.46-1.16,3.09-2.11,4.87-2.87,2.3-.92,4.49-2.06,6.6-3.38,4.48-2.88,7.26-6.98,8.34-12.3.81-4.09,1.4-8.2,1.78-12.38.07-1.25.39-2.46.85-3.65,1.66-4.12,4.29-7.43,8-9.94,3.23-2.17,6.71-3.87,10.45-5.1,4.74-1.63,9.53-3.03,14.41-4.3,3.81-.97,7.53-2.24,11.16-3.85,2.91-1.35,5.06-3.31,6.48-5.89,1.18.28,2.3.54,3.43.55.1,0,.2.01.3.01,2.84,0,5.23-2.85,6.99-5.36.65-2.91.03-6.02-1.62-8.11-.7-.76-1.51-1.32-2.5-1.7.43-.58.89-1.15,1.37-1.71,3.02-3.55,6.72-6.21,11.13-8,4.08-1.49,8.29-2.61,12.64-3.27,1.66-.3,3.32-.44,4.97-.44,1.31,0,2.61.09,3.91.26-1.97,1.82-2.61,7.26-1.89,16.45.74,9.35,2.68,20.21,5.86,32.49-.09,0-.18,0-.28.01l-1.82-1.23c-1.77-.23-3.68-.73-5.58-.73-.75,0-1.49.08-2.22.28-1.21,1.9-2.78,2.43-4.52,2.43-1.09,0-2.24-.21-3.41-.42-1.17-.21-2.36-.42-3.52-.42-1.39,0-2.74.3-3.96,1.26-.65,1.24-2.02,2.34-1.37,3.9.83,3.13,3.26,3.69,6.03,3.69.78,0,1.59-.04,2.4-.09.81-.04,1.61-.09,2.39-.09.67,0,1.32.03,1.92.13,3.55,1.58,6.8,3.74,11.04,3.74.65,0,1.33-.05,2.03-.16,1.5-.19,1.89-1.88,2.54-2.99.25-.17.52-.29.78-.36,3.28,11.26,6.86,20.96,10.66,29.06-5.69.44-11.31,1.66-16.83,3.8-.99-.63-1.96-1.21-2.93-1.75-15.74-8.7-31.9-13.53-47.45-13.53-18.64,0-36.41,6.94-51.54,22.48,0,.02-.03.03-.06.03"/>
      <path class="cls-12" d="M135.24,143.62c-6.18-5.64-11.99-10.57-17.51-14.09,5.52-2.15,11.14-3.36,16.83-3.8.33.71.67,1.41,1.01,2.1,2.78,5.61,5.23,9.42,7.31,11.45l.19.69c-.31.44-.6.94-.86,1.49-1.26.49-2.54.92-3.89,1.29-1.02.3-2.05.59-3.07.87"/>
      <path class="cls-19" d="M25.43,153.52c-2.28,0-4.54-.13-6.79-.37-1.99-.19-3.9-.7-5.73-1.55-4.27-1.91-7.84-4.71-10.81-8.46-2.1-2.71-2.64-5.69-1.55-8.91.25-.73.61-1.36,1.12-1.92.69-.76,1.44-1.45,2.24-2.09.16.13.32.25.48.38,4.73,2.66,10.69,6.16,11.37,6.16.03,0,.06,0,.06-.03,15.13-15.54,32.89-22.48,51.54-22.48,15.55,0,31.71,4.83,47.45,13.53.97.53,1.95,1.12,2.93,1.75,5.52,3.52,11.33,8.45,17.51,14.09-4.4,1.23-8.83,2.36-13.28,3.38-4.88,1.1-9.78,1.99-14.82,2.68-2.34.29-4.66.44-6.98.44s-4.67-.15-7.01-.46c-2.35-.3-4.62-.79-6.91-1.47-4.74-1.37-9.55-2.1-14.47-2.19-.81-.03-1.62-.05-2.44-.05-3.4,0-6.84.27-10.29.75-4.87.68-9.6,1.9-14.19,3.62-4.35,1.53-8.9,2.49-13.6,2.92-1.95.18-3.89.27-5.83.27"/>
      <path class="cls-15" d="M142.21,141.45c.26-.55.54-1.06.86-1.49l.28,1.03c-.38.16-.76.32-1.14.47"/>
      <path class="cls-9" d="M105.68,57.99c-2.91-1.3-5.66-2.76-8.26-4.31.32-1.98.66-4.17,1.03-6.58-.1-.06-.19-.11-.33-.16-.4,2.29-.75,4.44-1.13,6.52-2.92-1.79-5.67-3.71-8.25-5.75-.05.14-.05.26-.01.41.3,1.11,3.03,3.08,8.19,5.85-1.17,6.66-2.08,11.89-2.74,15.73-.12.77-.27,1.56-.44,2.3-3.26-1.82-7.33-4.2-12.2-7.09-.11-.09-.13,0-.03.34.08.31,2.41,1.72,6.98,4.29,2.09,1.15,3.84,2.15,5.17,2.94-1.43,7.8-2.93,14.59-4.56,20.35-.13.41-.26.85-.39,1.26-3.26-2.15-6.64-4.55-10.1-7.26-1.62-1.24-3.93-3.07-6.95-5.54.23-.97.42-1.92.62-2.97l-.16-.12-.27.07c-.12.03-.42.86-.88,2.5-1.07-.9-2.29-1.88-3.56-2.93-.12-.13-.14-.05-.05.26.13.46,1.26,1.59,3.44,3.37-.57,2.09-1.32,5.22-2.31,9.4-.64,2.77-1.25,5.32-1.83,7.54-.37-.31-.76-.66-1.18-.99-3.07-2.61-7.23-6.24-12.43-10.94.1-.85.24-1.67.4-2.58l-.16-.12-.27.07c-.13.73-.29,1.48-.46,2.23-1.1-1.02-2.26-2.09-3.51-3.19-.05.14-.04.3,0,.49.12.42,1.23,1.64,3.32,3.53-1.68,8.12-3.21,14.79-4.59,20.11-.12-.13-.23-.22-.3-.33-1.34-1.44-3.69-3.84-7.03-7.16-.7-.76-1.82-2.13-3.32-4.15-.22-.35-.47-.65-.67-.93.16-1.07.31-2.14.48-3.18-.1-.06-.22-.06-.41,0-.07.35-.24,1.22-.5,2.65-.71-.92-1.18-1.44-1.49-1.69-.11-.1-.13,0-.03.34.19.69.62,1.52,1.27,2.53-.37,1.95-.89,4.69-1.54,8.16-.69,3.61-1.42,6.81-2.19,9.53-1.55-1.75-2.63-2.69-3.26-2.72-.11-.09-.16,0-.07.35.08.31,1.09,1.55,2.96,3.71-.12.44-.29.9-.41,1.35-1.93,5.84-4.78,11.48-8.6,16.89-2.24-1.86-3.83-3.76-4.82-5.71l-.31.08c-.05.13-.08.31,0,.58.42,1.53,2.04,3.39,4.78,5.56-2.32,3.23-4.99,6.39-7.97,9.48l-.03.17c-.09.11,0,.12.3.04,1.11-.31,3.03-2.31,5.78-6.08.83-1.17,1.59-2.29,2.34-3.32,1.51,1.15,3.37,2.37,5.51,3.71,2.36,1.41,4.51,2.63,6.48,3.65-1.42,2.32-2.97,4.6-4.67,6.8.03.11,0,.16.02.2.02.08.15.08.34.03.77-.21,2.46-2.45,5.03-6.69,2.89,1.38,5.37,2.31,7.47,2.76l.21-.14c-2.69-1.11-5.13-2.21-7.3-3.21,2.36-3.98,4.05-7.25,5.02-9.86.45-1.2,1.01-2.75,1.67-4.7,1.19,1.19,2.24,2.18,3.1,2.89,1.59,1.29,3.75,2.87,6.42,4.65-2.32,3.68-4.91,7.11-7.76,10.37.03.12,0,.16.01.2.02.08.15.08.34.03,2.18-.6,4.92-3.95,8.27-10.01,1.4.89,2.94,1.86,4.62,2.88,1.8,1.15,4.62,2.27,8.45,3.35-.66.88-1.33,1.76-1.99,2.65l.08.14c-.17.13-.11.2.23.1.84-.23,1.84-1.08,3.01-2.52.27.09.54.18.84.22,4.52,1.18,7.13,1.7,7.86,1.5.46-.13.74-.29.79-.42-3.29-.29-6.35-.8-9.28-1.56,1.47-1.84,3.18-4.58,5.18-8.25.72-1.43,1.42-2.78,2.02-4.01,4.14,2.32,7.6,4.12,10.46,5.39,2.35,1.08,4.85,2.08,7.41,3.02-.88,1.27-1.8,2.59-2.74,3.96.02.07.08.14.19.23,1.07-1.32,2.11-2.64,3.1-3.98,4.92,1.73,10.14,3.22,15.66,4.41-1.16,1.92-2.21,3.49-3.05,4.75,1.23-1.37,2.42-2.89,3.62-4.62,1.92.41,3.95.76,5.95,1.12.19.11.29,0,.2-.3-.04-.15-1.12-.47-3.23-.96-.92-.2-1.71-.39-2.45-.52,2.28-3.39,4.57-7.47,6.84-12.21,1.15.43,2.37.83,3.65,1.3,4.71,1.58,8.33,2.89,10.91,3.91-.33.88-.7,1.92-1.17,3.08-.42,1.02-1.45,2.38-3.03,4.09-1.52,1.65-3.06,3.11-4.65,4.33l.09.18c-.17.13-.12.16.22.06,2.3-.63,4.65-3.13,7.07-7.5.83-1.47,1.49-2.8,2.02-4.01.96.35,1.75.67,2.35.92.11.09.12-.03.03-.34-.07-.27-.76-.66-2.11-1.23.65-1.54,1.06-2.88,1.27-4.05-.1-.05-.22-.06-.41,0,0,0-.51,1.29-1.42,3.81-1.95-.82-4.92-1.9-8.92-3.26-2.09-.7-3.95-1.34-5.59-1.92.25-.56.51-1.13.8-1.74,2.96-6.45,4.89-11.55,5.79-15.3.17.04.35.07.53.14l.41-.32c-.31-.08-.58-.17-.84-.22.09-.43.19-.79.25-1.18l-.16-.12-.27.07s-.15.37-.37,1.05c-4.74-1.37-9.34-2.98-13.81-4.88,1.45-4.6,2.78-9.94,4-16.12.38-1.92.85-4.39,1.38-7.38.86.3,1.6.59,2.24.82l.41-.32c-.89-.25-1.74-.51-2.6-.76.48-2.44.95-5.2,1.54-8.33l-.16-.12-.27.07c-.57,2.87-1.13,5.62-1.65,8.19-5.74-1.88-11.43-4.3-16.93-7.23-.91-.45-1.83-.98-2.9-1.55.18-.83.35-1.7.49-2.56.21-1.33,1.05-6.5,2.45-15.61,1.01.54,2.13,1.14,3.32,1.76,5.74,2.9,9.87,4.9,12.49,5.9.19-.05.31-.08.34-.09.08-.02.09-.11.04-.3-.07-.27-2.69-1.4-7.83-3.48M107.24,123.89c-1.59-.84-3.17-1.64-4.66-2.42,2.66-5.13,4.84-10.38,6.58-15.84,4.41,1.83,9.04,3.39,13.82,4.75-.37,1.21-1.02,3.16-1.87,5.91-1.71,5.29-3.02,8.77-3.96,10.43-.13.28-.26.53-.44.78-5.14-1.79-8.27-2.99-9.47-3.6ZM93.43,136.21c3.38-4.63,6.31-9.35,8.89-14.21,1.44.75,2.77,1.42,3.92,1.97,2.56,1.23,5.95,2.64,10.12,4.17-2.8,4.93-5.18,9-7.14,12.17-3.02-.65-4.6-1-4.69-1.05-4.13-.96-7.87-1.99-11.08-3.04ZM74.87,127.66c2.79-5.42,4.68-9.02,5.74-10.84,1.05-1.73,2.03-3.52,2.93-5.33,7.46,4.37,13.54,7.79,18.25,10.24-.08.15-.14.24-.22.39-2.1,3.75-5.02,8.38-8.76,13.89-3.05-1.05-5.68-2.1-7.91-3.17-3.72-1.86-7.08-3.6-10.02-5.18ZM52.99,133.69c.63-1.16,1.28-2.37,1.91-3.65,1.39-2.73,3.1-6.53,5.19-11.34,1.75,1.41,2.85,2.26,3.29,2.55,3.96,2.45,7.56,4.59,10.77,6.38-2.47,4.18-5.14,8.24-8.02,12.25-2.99-.86-5.85-1.97-8.45-3.35-1.49-.78-3.02-1.72-4.69-2.83ZM35.48,118.35c2.55,2.84,4.75,5.15,6.56,6.96-.71,1.92-1.4,3.59-2.03,5.04-1.42,3.35-3.1,6.53-4.92,9.63-2.84-1.36-5.22-2.68-7.24-3.89-1.84-1.14-3.41-2.23-4.8-3.37.97-1.42,1.79-2.76,2.47-4.01,3.55-6.08,5.63-10.48,6.38-13.16.08-.31.16-.62.21-.88.94,1.02,2.07,2.27,3.36,3.68ZM47.62,107.76c-.71,2.66-1.35,4.94-1.97,6.88-1.22,3.79-2.31,7.14-3.34,9.97-.34-.32-.64-.69-.99-1.05-.95-1.05-2.32-2.61-4.12-4.67-.9-1.03-2.48-2.86-4.61-5.52l-.11-.1c1.59-6.03,2.82-11.89,3.78-17.5,2.06,2.85,5.83,6.83,11.36,11.97ZM48.33,108.39c.18.2.4.39.61.57,3.03,2.79,6.18,5.54,9.42,8.23.49.44.96.81,1.36,1.19-1.39,3.31-2.61,5.9-3.58,7.78-1.23,2.4-2.58,4.7-3.97,6.94-1.99-1.39-4.1-3.07-6.31-4.97-.98-.88-2.03-1.87-3.14-3.04.27-.81.53-1.67.82-2.57,1.15-3.61,2.03-6.24,2.65-7.85.76-2.02,1.46-4.11,2.14-6.27ZM66.54,98.93c-1.29,5.04-2.39,8.64-3.22,10.72-1.24,3.1-2.38,5.84-3.37,8.21-4.58-3.64-8.39-6.99-11.46-10.09.87-2.83,1.61-5.8,2.3-8.82.61-2.85,1.32-6.7,2.08-11.56,2.4,2.14,5.9,5.13,10.47,8.88,1.08.94,2.18,1.79,3.2,2.66ZM67.39,99.6c6.82,5.49,11.89,9.27,15.23,11.36-2.41,5.6-5.19,11.06-8.28,16.39-4.7-2.57-8.34-4.86-10.93-6.82-1.04-.79-2.09-1.61-3.08-2.36,1.1-2.57,2.3-5.41,3.58-8.52,1.3-3.03,2.44-6.39,3.49-10.05ZM88.49,94.78c-1.58,5.33-3.44,10.53-5.65,15.67-4.84-3.07-9.9-6.82-15.33-11.29.45-1.65.88-3.37,1.34-5.14.63-2.81,1.51-6.75,2.63-11.96,1.5,1.27,3.47,2.75,5.82,4.57,4.7,3.6,8.45,6.32,11.18,8.16ZM89.38,95.36c.3.2.61.41.91.61,5.81,3.62,11.96,6.83,18.5,9.51-1.24,4.62-3.45,9.88-6.74,15.72-7.26-3.8-13.2-7.15-17.84-9.94-.15-.08-.29-.16-.45-.29,1-2.05,1.9-4.14,2.66-6.33.92-2.48,1.92-5.59,2.95-9.29ZM94.3,72.85c1.75.96,2.78,1.58,3.08,1.79,1.89,1.21,4.86,2.57,8.93,4.04,3.13,1.07,5.77,1.99,7.83,2.74-2.12,10.25-3.86,18.1-5.21,23.53-6.19-2.61-12.11-5.72-17.83-9.29-.5-.31-1.04-.66-1.59-1,.18-.67.37-1.34.55-2.04,1.46-5.59,2.9-12.2,4.23-19.76Z"/>
      <path class="cls-18" d="M194.92,323.23l-46.88-186.71.12-.16c.98-2.57,1.19-7.2.66-13.88-.81-10.11-3.07-21.91-6.8-35.45-3.74-13.58-7.84-24.88-12.31-33.93-4.47-9.06-8-13.23-10.61-12.51-2.6.72-3.5,6.11-2.74,16.19.8,10.07,3.06,21.87,6.8,35.45,3.73,13.54,7.83,24.84,12.31,33.93,1.75,3.51,3.37,6.27,4.81,8.35.58.91,1.14,1.74,1.75,2.48,2.11,2.59,2.91,4.47,2.91,4.47-.23.06-.45.16-.71.27l45.96,183.18,4.71-1.67M147.07,120.13c1.19,9.1.94,13.89-.78,14.37-1.72.47-4.42-3.51-8.02-11.95-2.51-5.81-4.98-12.54-7.39-20.27v-.04s-.02-.04-.02-.04c-1.02-3.42-2.11-7.07-3.15-10.86-3.41-12.39-5.72-23.15-6.89-32.21-1.23-9.08-.95-13.9.77-14.37,1.72-.47,4.39,3.53,8.02,11.95,3.59,8.4,7.12,18.82,10.53,31.21,3.41,12.39,5.71,23.12,6.93,32.2Z"/>
      <path class="cls-1" d="M251.62,35.16c-.28,0-.51-.16-.61-.43-.04-.12.02-.25.14-.29.12-.04.25.02.29.14.03.09.1.14.2.13.12,0,.26-.09.29-.22.04-.19-.22-1.35-.42-2.28-.46-2.1-.78-3.63-.62-4.21.27-1.01,2.24-3.5,2.33-3.61.08-.1.22-.11.32-.04.1.08.11.22.04.32-.56.7-2.05,2.68-2.24,3.44-.14.51.31,2.52.63,3.99.34,1.57.48,2.23.42,2.48-.07.31-.37.55-.71.57h-.04"/>
      <path class="cls-1" d="M258.66,35.97l-.23-.03c-.34-.1-.53-.42-.46-.76.03-.14.08-.36.14-.64.3-1.36,1.11-4.96.91-5.74-.2-.75-2.66-3.5-3.6-4.5-.09-.09-.08-.23.01-.32.09-.08.23-.08.32.01.35.37,3.44,3.69,3.7,4.69.2.78-.31,3.32-.91,5.95-.06.27-.11.49-.14.63-.03.15.08.21.15.23.1.03.3.02.39-.2.05-.12.18-.17.29-.13.12.05.17.18.13.29-.14.35-.44.5-.72.5"/>
      <path class="cls-17" d="M150.42,177.72c2.38-.45,5.37-.89,6.71,2.53,1.34,3.43,4.17,10.28,4.47,12.07.3,1.79,2.09,6.56.45,7.3-1.64.75-5.66,1.94-6.71,1.19-1.04-.75-3.88-5.96-4.02-7.6-.15-1.64-3.73-10.28-3.43-11.18.3-.89,2.53-4.32,2.53-4.32"/>
    </g>
  </g>
</svg>