<?xml version="1.0" encoding="UTF-8"?>
<svg id="_レイヤー_2" data-name="レイヤー 2" xmlns="http://www.w3.org/2000/svg" viewBox="0 0 371.37 497.8">
  <defs>
    <style>
      .cls-1 {
        fill: none;
      }

      .cls-2 {
        fill: #d17f3c;
      }

      .cls-3 {
        fill: #fff;
      }

      .cls-4 {
        fill: #262424;
      }
    </style>
  </defs>
  <g id="_背景" data-name="背景">
    <g>
      <g>
        <path class="cls-2" d="M225.87,29.51c4.3,18.28-8.78,32.08-14.88,47.32-2.15,1.97-3.95,4.3-4.3,7.35,1.79,2.51,6.09.9,8.61-.54,10.22-5.73,20.07-15.42,32.98-11.65,13.27,5.56,27.07,10.22,40.33,15.95,1.79,1.62,3.58,5.38.54,6.99-12.9,8.78-24.38,24.38-42.48,17.56-10.76-1.97-20.26-6.27-29.76-10.75l-1.08,1.07c12.37,19.54,35.32,35.13,30.3,61.13-7.35,15.42-20.97,28.32-28.68,43.73-7.71,4.84-6.27,13.45-14.52,18.11.35,1.79-.72,5.02,2.15,4.66,23.66,32.45,45.71,66.15,76.18,94.64,15.78,10.4,31.91,20.8,50.01,26.17,6.27-1.26,11.11-6.27,16.85-8.61,4.66-.9,8.07,1.43,11.29,3.76,1.97,3.76,2.51,8.96,1.61,13.27-1.43,7.71-9.32,8.61-14.88,11.3-4.84,1.07-9.86-1.98-14.52-1.62-28.14-7.17-52.88-24.2-84.42-21.33-25.63,12.19-27.42,40.69-29.22,65.97,2.33,14.88-6.46,36.21,9.5,45.71,3.23,4.12.72,9.86-1.08,13.8-5.56,6.09-14.88,2.33-21.33,1.07-8.42-10.04.72-23.3-3.59-35.13-4.84-24.56-13.44-48.4-35.67-64.89-4.3,0-6.99-4.12-11.29-4.12-3.59-4.66-9.86-4.3-12.73-10.22-3.95-.36-4.84-5.38-8.43-6.81-5.2,6.27-13.27,7.71-17.03,15.41-3.76.18-5.73,3.41-7.53,6.28-2.69,6.81-7.89,16.49-16.49,17.03-6.45,1.26-11.65-4.12-18.64-3.76-3.05-1.97-6.99-4.12-8.43-7.89-.36-6.09.18-12.01,3.76-16.49,4.3-6.09,12.37-3.41,18.11-6.45,2.51-23.84,6.09-47.32,3.05-71.7-.18-23.84-3.58-44.28-3.05-66.5-4.66-8.78-15.06-8.42-19.18-17.03-10.76-11.65-27.78-22.94-24.02-39.97,5.02-16.85,12.73-32.81,14.88-50.91.54-2.87,3.59-5.92,1.07-8.61-18.1,1.79-31.55-7.88-45.17-16.49l-4.84-6.81c10.75-8.78,27.25-5.2,40.51-9.14,11.11,2.51,19.36,12.19,28.68,19.18,1.79.18,3.22-.18,4.3-1.62l-39.44-45.17c-.18-2.51-1.97-4.84-.54-7.53,3.05-3.05,7.89-3.05,11.83-2.15l29.76,9.14c8.24-5.38,19.54-12.19,29.22-6.45,5.73,4.3,4.48,12.9,3.22,18.64-2.51,5.02-9.68,12.73.54,15.42,2.51,1.43,5.56,3.76,7.35,5.91,9.68.36,18.46-5.56,27.78-1.07,4.66,1.44,6.99-3.23,8.43-6.45,0-3.58,4.3-5.38,3.22-9.5-8.07-4.84-14.34-11.11-19.18-19.18-1.97-4.3,3.22-6.81,5.91-7.89,13.09-3.76,27.25-.36,39.26,3.05,6.27-6.63,13.27-11.29,21.33-13.8,4.66,1.07,12.73,1.43,13.8,8.61"/>
        <path class="cls-3" d="M197.73,64.64l-8.07,13.8-13.26-4.84c2.51-5.92,6.63-11.83,4.3-19.18-5.02-4.66-12.55-6.27-15.95-12.73,10.58-.53,19.18,6.99,29.75,7.89,4.3.9,5.92-4.3,8.07-6.81l7.35-7.53c4.84,12.19-13.26,17.57-12.19,29.4"/>
        <path class="cls-3" d="M101.47,49.04c1.07,7.71-10.76,8.96-9.15,16.13,3.77,4.48,7.35,9.68,12.37,13.27-3.76,0-7.89,6.82-10.75.54-10.39-10.58-19.72-20.08-30.83-28.86,6.81,1.43,13.08,3.76,18.1,9.14,8.96,1.79,11.47-11.65,20.26-10.22"/>
        <path class="cls-3" d="M223.18,140.64c3.95,8.07,4.48,21.51-.54,29.22-5.92,8.43-15.42,10.22-24.92,10.58-6.45-1.25-13.8-3.58-16.49-10.58-2.51-7.53-8.25-13.8-5.92-23.48,1.97-8.78,10.76-15.96,19.18-18.47,11.47-.36,23.84.72,28.68,12.73"/>
        <path class="cls-3" d="M108.82,146.38c3.41,9.86,6.45,21.69.54,31.55-5.73,7.17-14.7,9.68-23.3,6.81-10.04-2.15-20.43-10.4-24.56-20.26.54-11.29-.54-24.56,11.29-29.76,12.9-3.23,29.76-2.51,36.03,11.65"/>
        <path class="cls-4" d="M214.03,147.1c3.23,3.05,3.58,7.53,4.66,11.65-1.08,7.89-5.02,16.49-13.27,19.72-5.02.54-10.57-.72-14.88-3.76-3.59-5.02-6.45-11.65-3.76-18.11,2.15-6.09,7.89-9.86,13.45-12.72,5.2-.54,9.68.54,13.8,3.23"/>
        <path class="cls-4" d="M101.82,149.61c3.05,6.81,8.78,13.26,5.74,21.87-1.08,5.56-6.09,11.47-11.65,12.73-5.02,0-10.58.72-14.34-2.69-5.2-3.58-6.46-8.6-8.07-13.8.54-6.09,3.05-11.3,5.91-16.49,5.74-4.66,16.13-7.17,22.41-1.61"/>
        <path class="cls-3" d="M188.05,193.88l3.23,10.04c-1.61,14.16-15.95,12.19-26.53,13.81-10.75-1.08-24.2-.54-28.68-12.19-3.05-5.73-2.15-12.37,1.61-17.57,9.68-4.66,21.51-10.04,33.88-6.45,6.45,1.97,12.9,5.92,16.49,12.37"/>
        <path class="cls-4" d="M168.51,190.12c1.97,4.84-2.69,5.2-5.91,6.27-3.95-.72-9.14,0-11.12-4.66-2.51-6.09,3.59-5.56,6.81-6.99,3.23.54,9.14.36,10.22,5.38"/>
        <path class="cls-4" d="M169.05,205.53c-1.44,2.15-2.69,5.74-5.92,5.74-1.43,0-2.51-1.43-3.76-2.51-.72-3.23,1.97-5.56,4.3-6.99,2.51-.36,4.84,1.43,5.38,3.76"/>
        <polyline class="cls-3" points="102.54 227.76 103.08 226.68 104.69 227.76 102.54 227.76"/>
        <path class="cls-3" d="M135.53,231.52l39.79.54c.9,8.6,8.61,15.95,4.3,25.63-3.05,5.38-7.17,10.4-9.14,16.49-6.63,2.33-6.27,10.22-11.12,13.8-10.39,11.65-16.67,24.2-26.53,35.49-3.23-3.58-9.14-5.2-9.68-11.12-13.8-13.98-15.41-33.52-19.54-51.62-2.69-10.04.36-21.15-.54-31.37,9.68,0,22.23,0,32.45,2.15"/>
        <path class="cls-3" d="M232.33,299.1c2.69,6.63,6.27,13.09,6.27,20.8-17.39,6.99-32.99,19.89-46.79,34.59-7.53-.72-16.67,1.97-21.33-4.3-6.81-2.33-13.09-7.35-17.92-12.72,4.12-1.97,7.35-7.53,10.57-10.76,10.58-12.91,26.53-19.72,35.14-34.6,2.5-3.41,9.5-1.43,9.5-6.81,1.97-4.31,6.09-.9,9.14-1.08,6.27,3.05,10.58,10.22,15.42,14.88"/>
        <path class="cls-3" d="M117.42,339.97c-5.91,4.66-7.17,12.37-13.8,15.96-1.61-7.17,6.45-15.24,6.27-24.38l7.53,8.42"/>
      </g>
      <rect class="cls-1" width="371.37" height="497.8"/>
    </g>
  </g>
</svg>