<?xml version="1.0" encoding="UTF-8"?>
<svg id="_レイヤー_2" data-name="レイヤー 2" xmlns="http://www.w3.org/2000/svg" viewBox="0 0 809.73 993.16">
  <defs>
    <style>
      .cls-1, .cls-2 {
        fill: none;
      }

      .cls-2 {
        stroke: #5b9843;
        stroke-miterlimit: 10;
        stroke-width: 2px;
      }

      .cls-3 {
        fill: #5b9843;
      }
    </style>
  </defs>
  <g id="_背景" data-name="背景">
    <g>
      <g>
        <line class="cls-2" x1="157.2" y1="14.54" x2="157.2" y2="982.33"/>
        <g>
          <path d="M0,18.68C0,11.03,2.79,6.93,7.33,6.93s7.3,4.13,7.3,11.75-2.75,11.91-7.3,11.91S0,26.33,0,18.68ZM11.78,18.68c0-6.69-1.79-9.41-4.45-9.41s-4.48,2.72-4.48,9.41,1.79,9.57,4.48,9.57,4.45-2.88,4.45-9.57Z"/>
          <path d="M17.63,24.35c0-2.98,2.18-5.03,4.32-6.18v-.13c-1.7-1.15-3.17-2.85-3.17-5.28,0-3.49,2.79-5.83,6.43-5.83,4,0,6.44,2.5,6.44,6.05,0,2.4-1.76,4.45-3.14,5.51v.16c2.02,1.22,3.97,2.82,3.97,5.86,0,3.43-2.95,6.08-7.36,6.08s-7.49-2.62-7.49-6.24ZM29.7,24.45c0-2.98-2.88-4.04-6.21-5.35-1.86,1.19-3.2,2.88-3.2,5,0,2.5,2.08,4.32,4.9,4.32s4.51-1.63,4.51-3.97ZM29.16,13.14c0-2.24-1.44-4.04-3.97-4.04-2.18,0-3.75,1.44-3.75,3.65,0,2.75,2.53,3.9,5.28,4.99,1.57-1.41,2.43-2.91,2.43-4.61Z"/>
          <path d="M36.29,15.48c0-1.34.96-2.27,2.11-2.27s2.11.93,2.11,2.27-.96,2.21-2.11,2.21-2.11-.93-2.11-2.21ZM36.29,28.38c0-1.35.96-2.27,2.11-2.27s2.11.93,2.11,2.27-.96,2.21-2.11,2.21-2.11-.89-2.11-2.21Z"/>
          <path d="M44.26,28.45c6.88-6.85,10.76-10.95,10.76-14.69,0-2.59-1.41-4.45-4.32-4.45-1.92,0-3.59,1.22-4.87,2.72l-1.7-1.63c1.92-2.08,3.94-3.46,6.91-3.46,4.19,0,6.82,2.66,6.82,6.69,0,4.29-3.9,8.55-9.31,14.25,1.21-.1,2.62-.23,3.84-.23h6.63v2.53h-14.76v-1.73Z"/>
          <path d="M62.18,18.68c0-7.65,2.79-11.75,7.33-11.75s7.3,4.13,7.3,11.75-2.75,11.91-7.3,11.91-7.33-4.26-7.33-11.91ZM73.96,18.68c0-6.69-1.79-9.41-4.45-9.41s-4.48,2.72-4.48,9.41,1.79,9.57,4.48,9.57,4.45-2.88,4.45-9.57Z"/>
          <path class="cls-3" d="M158.37,3.61c7.97,0,14.41,6.43,14.41,14.4s-6.43,14.41-14.41,14.41-14.4-6.44-14.4-14.41,6.43-14.4,14.4-14.4Z"/>
          <path d="M1.25,187.74h5.22v-16.84H2.3v-1.89c2.08-.35,3.59-.9,4.87-1.67h2.24v20.39h4.71v2.43H1.25v-2.43Z"/>
          <path d="M17.76,178.68c0-7.65,2.79-11.75,7.33-11.75s7.3,4.13,7.3,11.75-2.75,11.91-7.3,11.91-7.33-4.26-7.33-11.91ZM29.54,178.68c0-6.69-1.79-9.41-4.45-9.41s-4.48,2.72-4.48,9.41,1.79,9.57,4.48,9.57,4.45-2.88,4.45-9.57Z"/>
          <path d="M36.29,175.48c0-1.34.96-2.27,2.11-2.27s2.11.93,2.11,2.27-.96,2.21-2.11,2.21-2.11-.93-2.11-2.21ZM36.29,188.38c0-1.35.96-2.27,2.11-2.27s2.11.93,2.11,2.27-.96,2.21-2.11,2.21-2.11-.89-2.11-2.21Z"/>
          <path d="M44.42,178.68c0-7.65,2.79-11.75,7.33-11.75s7.3,4.13,7.3,11.75-2.75,11.91-7.3,11.91-7.33-4.26-7.33-11.91ZM56.2,178.68c0-6.69-1.79-9.41-4.45-9.41s-4.48,2.72-4.48,9.41,1.79,9.57,4.48,9.57,4.45-2.88,4.45-9.57Z"/>
          <path d="M62.18,178.68c0-7.65,2.79-11.75,7.33-11.75s7.3,4.13,7.3,11.75-2.75,11.91-7.3,11.91-7.33-4.26-7.33-11.91ZM73.96,178.68c0-6.69-1.79-9.41-4.45-9.41s-4.48,2.72-4.48,9.41,1.79,9.57,4.48,9.57,4.45-2.88,4.45-9.57Z"/>
          <path class="cls-3" d="M158.37,163.61c7.97,0,14.41,6.43,14.41,14.4s-6.43,14.41-14.41,14.41-14.4-6.44-14.4-14.41,6.43-14.4,14.4-14.4Z"/>
          <path d="M1.25,347.74h5.22v-16.84H2.3v-1.89c2.08-.35,3.59-.9,4.87-1.67h2.24v20.39h4.71v2.43H1.25v-2.43Z"/>
          <path d="M17.6,348.45c6.88-6.85,10.76-10.95,10.76-14.69,0-2.59-1.41-4.45-4.32-4.45-1.92,0-3.59,1.22-4.87,2.72l-1.7-1.63c1.92-2.08,3.94-3.46,6.91-3.46,4.19,0,6.82,2.66,6.82,6.69,0,4.29-3.9,8.55-9.31,14.25,1.21-.1,2.62-.23,3.84-.23h6.63v2.53h-14.76v-1.73Z"/>
          <path d="M36.29,335.48c0-1.34.96-2.27,2.11-2.27s2.11.93,2.11,2.27-.96,2.21-2.11,2.21-2.11-.93-2.11-2.21ZM36.29,348.38c0-1.35.96-2.27,2.11-2.27s2.11.93,2.11,2.27-.96,2.21-2.11,2.21-2.11-.89-2.11-2.21Z"/>
          <path d="M44.42,338.68c0-7.65,2.79-11.75,7.33-11.75s7.3,4.13,7.3,11.75-2.75,11.91-7.3,11.91-7.33-4.26-7.33-11.91ZM56.2,338.68c0-6.69-1.79-9.41-4.45-9.41s-4.48,2.72-4.48,9.41,1.79,9.57,4.48,9.57,4.45-2.88,4.45-9.57Z"/>
          <path d="M62.18,338.68c0-7.65,2.79-11.75,7.33-11.75s7.3,4.13,7.3,11.75-2.75,11.91-7.3,11.91-7.33-4.26-7.33-11.91ZM73.96,338.68c0-6.69-1.79-9.41-4.45-9.41s-4.48,2.72-4.48,9.41,1.79,9.57,4.48,9.57,4.45-2.88,4.45-9.57Z"/>
          <path class="cls-3" d="M158.37,323.61c7.97,0,14.41,6.43,14.41,14.4s-6.43,14.41-14.41,14.41-14.4-6.44-14.4-14.41,6.43-14.4,14.4-14.4Z"/>
          <path d="M1.25,507.74h5.22v-16.84H2.3v-1.89c2.08-.35,3.59-.9,4.87-1.67h2.24v20.39h4.71v2.43H1.25v-2.43Z"/>
          <path d="M17.12,507.39l1.47-1.92c1.38,1.44,3.17,2.69,5.83,2.69s4.77-1.63,4.77-4.19c0-2.72-1.89-4.52-7.3-4.52v-2.24c4.83,0,6.5-1.89,6.5-4.29,0-2.21-1.54-3.62-3.97-3.62-1.89,0-3.55.96-4.87,2.3l-1.57-1.83c1.76-1.66,3.84-2.85,6.56-2.85,3.94,0,6.82,2.08,6.82,5.79,0,2.75-1.7,4.52-4.16,5.41v.13c2.75.67,4.96,2.69,4.96,5.83,0,4.06-3.36,6.5-7.52,6.5-3.68,0-5.99-1.54-7.52-3.2Z"/>
          <path d="M36.29,495.48c0-1.34.96-2.27,2.11-2.27s2.11.93,2.11,2.27-.96,2.21-2.11,2.21-2.11-.93-2.11-2.21ZM36.29,508.38c0-1.35.96-2.27,2.11-2.27s2.11.93,2.11,2.27-.96,2.21-2.11,2.21-2.11-.89-2.11-2.21Z"/>
          <path d="M44.42,498.68c0-7.65,2.79-11.75,7.33-11.75s7.3,4.13,7.3,11.75-2.75,11.91-7.3,11.91-7.33-4.26-7.33-11.91ZM56.2,498.68c0-6.69-1.79-9.41-4.45-9.41s-4.48,2.72-4.48,9.41,1.79,9.57,4.48,9.57,4.45-2.88,4.45-9.57Z"/>
          <path d="M62.18,498.68c0-7.65,2.79-11.75,7.33-11.75s7.3,4.13,7.3,11.75-2.75,11.91-7.3,11.91-7.33-4.26-7.33-11.91ZM73.96,498.68c0-6.69-1.79-9.41-4.45-9.41s-4.48,2.72-4.48,9.41,1.79,9.57,4.48,9.57,4.45-2.88,4.45-9.57Z"/>
          <path class="cls-3" d="M158.37,483.61c7.97,0,14.41,6.43,14.41,14.4s-6.43,14.41-14.41,14.41-14.4-6.44-14.4-14.41,6.43-14.4,14.4-14.4Z"/>
          <path d="M1.25,667.74h5.22v-16.84H2.3v-1.89c2.08-.35,3.59-.9,4.87-1.67h2.24v20.39h4.71v2.43H1.25v-2.43Z"/>
          <path d="M27.08,663.87h-10.24v-1.92l9.76-14.6h3.23v14.18h3.11v2.34h-3.11v6.31h-2.75v-6.31ZM27.08,661.53v-6.69c0-1.18.1-3.14.16-4.35h-.13c-.58,1.09-1.22,2.08-1.89,3.2l-5.35,7.84h7.2Z"/>
          <path d="M36.29,655.48c0-1.34.96-2.27,2.11-2.27s2.11.93,2.11,2.27-.96,2.21-2.11,2.21-2.11-.93-2.11-2.21ZM36.29,668.38c0-1.35.96-2.27,2.11-2.27s2.11.93,2.11,2.27-.96,2.21-2.11,2.21-2.11-.89-2.11-2.21Z"/>
          <path d="M44.42,658.68c0-7.65,2.79-11.75,7.33-11.75s7.3,4.13,7.3,11.75-2.75,11.91-7.3,11.91-7.33-4.26-7.33-11.91ZM56.2,658.68c0-6.69-1.79-9.41-4.45-9.41s-4.48,2.72-4.48,9.41,1.79,9.57,4.48,9.57,4.45-2.88,4.45-9.57Z"/>
          <path d="M62.18,658.68c0-7.65,2.79-11.75,7.33-11.75s7.3,4.13,7.3,11.75-2.75,11.91-7.3,11.91-7.33-4.26-7.33-11.91ZM73.96,658.68c0-6.69-1.79-9.41-4.45-9.41s-4.48,2.72-4.48,9.41,1.79,9.57,4.48,9.57,4.45-2.88,4.45-9.57Z"/>
          <path class="cls-3" d="M158.37,643.61c7.97,0,14.41,6.43,14.41,14.4s-6.43,14.41-14.41,14.41-14.4-6.44-14.4-14.41,6.43-14.4,14.4-14.4Z"/>
          <path d="M1.25,827.74h5.22v-16.84H2.3v-1.89c2.08-.35,3.59-.9,4.87-1.67h2.24v20.39h4.71v2.43H1.25v-2.43Z"/>
          <path d="M17.92,819.64c0-9.19,4.13-12.71,8.71-12.71,2.43,0,4.2,1.02,5.47,2.4l-1.63,1.83c-.93-1.12-2.34-1.79-3.74-1.79-3.23,0-5.92,2.46-6.05,9.73,1.47-1.76,3.49-2.85,5.35-2.85,3.94,0,6.5,2.37,6.5,7.01,0,4.38-3.07,7.33-6.72,7.33-4.51,0-7.88-3.65-7.88-10.95ZM20.74,821.47c.38,4.45,2.15,6.85,5.03,6.85,2.27,0,4-2.02,4-5.06s-1.41-4.83-4.23-4.83c-1.47,0-3.27.8-4.8,3.04Z"/>
          <path d="M36.29,815.48c0-1.34.96-2.27,2.11-2.27s2.11.93,2.11,2.27-.96,2.21-2.11,2.21-2.11-.93-2.11-2.21ZM36.29,828.38c0-1.35.96-2.27,2.11-2.27s2.11.93,2.11,2.27-.96,2.21-2.11,2.21-2.11-.89-2.11-2.21Z"/>
          <path d="M44.42,818.68c0-7.65,2.79-11.75,7.33-11.75s7.3,4.13,7.3,11.75-2.75,11.91-7.3,11.91-7.33-4.26-7.33-11.91ZM56.2,818.68c0-6.69-1.79-9.41-4.45-9.41s-4.48,2.72-4.48,9.41,1.79,9.57,4.48,9.57,4.45-2.88,4.45-9.57Z"/>
          <path d="M62.18,818.68c0-7.65,2.79-11.75,7.33-11.75s7.3,4.13,7.3,11.75-2.75,11.91-7.3,11.91-7.33-4.26-7.33-11.91ZM73.96,818.68c0-6.69-1.79-9.41-4.45-9.41s-4.48,2.72-4.48,9.41,1.79,9.57,4.48,9.57,4.45-2.88,4.45-9.57Z"/>
          <path class="cls-3" d="M158.37,803.61c7.97,0,14.41,6.43,14.41,14.4s-6.43,14.41-14.41,14.41-14.4-6.44-14.4-14.41,6.43-14.4,14.4-14.4Z"/>
          <path d="M1.25,987.74h5.22v-16.84H2.3v-1.89c2.08-.35,3.59-.9,4.87-1.67h2.24v20.39h4.71v2.43H1.25v-2.43Z"/>
          <path d="M29.12,969.85h-11.37v-2.5h14.69v1.79c-5.38,6.91-6.53,12.13-6.88,21.03h-3.04c.38-8.61,2.11-14.05,6.6-20.33Z"/>
          <path d="M36.29,975.48c0-1.34.96-2.27,2.11-2.27s2.11.93,2.11,2.27-.96,2.21-2.11,2.21-2.11-.93-2.11-2.21ZM36.29,988.38c0-1.35.96-2.27,2.11-2.27s2.11.93,2.11,2.27-.96,2.21-2.11,2.21-2.11-.89-2.11-2.21Z"/>
          <path d="M53.73,983.87h-10.24v-1.92l9.76-14.6h3.23v14.18h3.11v2.34h-3.11v6.31h-2.75v-6.31ZM53.73,981.53v-6.69c0-1.18.1-3.14.16-4.35h-.13c-.58,1.09-1.22,2.08-1.89,3.2l-5.35,7.84h7.2Z"/>
          <path d="M62.18,978.68c0-7.65,2.79-11.75,7.33-11.75s7.3,4.13,7.3,11.75-2.75,11.91-7.3,11.91-7.33-4.26-7.33-11.91ZM73.96,978.68c0-6.69-1.79-9.41-4.45-9.41s-4.48,2.72-4.48,9.41,1.79,9.57,4.48,9.57,4.45-2.88,4.45-9.57Z"/>
          <path class="cls-3" d="M158.37,963.61c7.97,0,14.41,6.43,14.41,14.4s-6.43,14.41-14.41,14.41-14.4-6.44-14.4-14.41,6.43-14.4,14.4-14.4Z"/>
        </g>
        <g>
          <path d="M241.69,18v14.77h-2.74v-2.16h-22.47v2.23h-2.66v-14.84h2.66v9.98h9.62v-12.28h-10.91V3.38h2.67v9.72h8.25V.18h2.74v12.93h8.64V3.38h2.77v12.31h-11.42v12.28h10.12v-9.98h2.74Z"/>
          <path d="M260.58,22.51c-.94-1.04-2.92-3.06-4.54-4.57v14.91h-2.63v-13.97c-1.8,1.8-3.67,3.31-5.51,4.5-.29-.68-.97-1.91-1.4-2.41,4.29-2.48,8.79-7.02,11.27-11.81h-10.01v-2.45h5.65V0h2.63v6.7h3.13l.47-.11,1.51,1.01c-1.12,2.77-2.77,5.44-4.68,7.85,1.69,1.33,4.86,4.11,5.76,4.9l-1.66,2.16ZM280.42,29.2v2.63h-20.17v-2.63h9.11v-14.94h-7.71v-2.59h7.71V.25h2.67v11.42h7.67v2.59h-7.67v14.94h8.39Z"/>
          <path d="M283.19,24.09l2.34-2.05c2.59,2.09,5.83,5.36,8.07,7.99l-2.45,2.09c-2.3-2.84-5.4-5.94-7.96-8.03Z"/>
          <path d="M325.57,6.52c-1.19,3.17-2.99,7.13-5.4,10.62,3.24,2.66,6.34,5.47,8.89,8.25l-2.27,2.48c-2.67-3.06-5.4-5.62-8.5-8.28-3.39,4.07-7.85,8.35-14.12,11.63l-2.48-2.27c6.3-2.95,10.73-6.95,14.3-11.31-2.67-2.16-6.7-5.11-10.16-7.27l1.87-2.27c3.1,1.98,7.27,4.93,10.12,7.13,2.34-3.35,3.82-6.77,4.9-9.83.25-.72.58-1.88.72-2.67l3.31,1.15c-.39.65-.9,1.87-1.19,2.63Z"/>
          <path d="M339.53,14.69h19.73c1.8,0,3.1-.11,3.89-.18v3.53c-.72-.04-2.23-.18-3.85-.18h-19.77c-1.98,0-3.89.07-5,.18v-3.53c1.08.07,2.99.18,5,.18Z"/>
          <path d="M373.48,20.31c1.04-3.28,1.08-10.48,1.08-14.48,0-1.08-.11-1.87-.25-2.63h3.31c-.04.43-.18,1.51-.18,2.59,0,4-.14,11.7-1.12,15.3-1.08,3.85-3.39,7.38-6.41,9.9l-2.7-1.84c3.03-2.16,5.19-5.37,6.27-8.86ZM383.96,27.33V5.76c0-1.37-.18-2.41-.21-2.66h3.31c-.04.25-.14,1.29-.14,2.66v20.78c3.31-1.51,7.74-4.79,10.52-8.86l1.69,2.45c-3.1,4.21-8.1,7.92-12.28,9.98-.58.32-.97.61-1.22.83l-1.91-1.59c.14-.57.25-1.3.25-2.02Z"/>
          <path d="M417.08,4.54c3.28-.47,7.53-1.33,9.29-2.09l1.91,2.48c-.79.21-1.51.39-2.02.54-1.8.47-4.57,1.01-7.17,1.41v6.91h9.94c.79,0,2.09-.07,2.84-.14v2.99c-.79-.07-1.87-.14-2.77-.14h-10.05c-.4,6.73-3.03,11.49-9.22,15.09l-2.85-1.98c5.69-2.63,8.68-6.66,9.11-13.11h-10.7c-1.15,0-2.38.07-3.24.14v-2.99c.83.07,2.09.14,3.17.14h10.84v-6.55c-3.64.36-7.71.47-10.48.5l-.72-2.66c2.74.11,8.21-.04,12.1-.54Z"/>
          <path d="M439.68,11.63h16.57c.9,0,1.8-.07,2.56-.14v2.88c-.79-.07-1.73-.11-2.56-.11h-7.02v13.25h8.71c.87,0,1.69-.07,2.41-.18v3.02c-.72-.07-1.84-.11-2.41-.11h-19.91c-.79,0-1.73.04-2.59.11v-3.02c.83.11,1.76.18,2.59.18h8.28v-13.25h-6.63c-.58,0-1.73.04-2.48.11v-2.88c.76.11,1.91.14,2.48.14Z"/>
          <path d="M471,19.3l-2.74,1.01c-.54-1.87-2.48-6.84-3.21-8.1l2.67-1.04c.72,1.55,2.59,6.27,3.28,8.14ZM488.57,13.18c-.97,3.96-2.52,7.81-5.11,11.05-3.31,4.25-7.71,7.02-11.74,8.57l-2.38-2.41c4.18-1.22,8.75-3.96,11.7-7.67,2.56-3.13,4.43-7.71,4.97-12.32l3.1.97c-.25.76-.4,1.33-.54,1.8ZM478.92,17.14l-2.66.94c-.4-1.62-2.05-6.2-2.81-7.82l2.63-.9c.61,1.44,2.38,6.19,2.85,7.78Z"/>
          <path d="M507.69,4.97c-.25.5-.54,1.01-.87,1.51h9.76c.97,0,1.76-.11,2.34-.36l2.41,1.48c-.29.5-.65,1.33-.83,1.91-.97,3.64-3.2,8.5-6.41,12.39-3.28,4-7.56,7.31-14.33,9.79l-2.59-2.34c6.59-1.95,11.09-5.22,14.37-9.04,2.81-3.31,5-7.96,5.76-11.23h-12.17c-2.2,3.03-5.22,6.23-9.15,8.86l-2.48-1.87c6.2-3.71,9.76-8.93,11.31-12.17.36-.61.9-1.91,1.12-2.85l3.35,1.08c-.61.94-1.26,2.16-1.58,2.84Z"/>
          <path d="M521.62,24.09l2.34-2.05c2.59,2.09,5.83,5.36,8.07,7.99l-2.45,2.09c-2.3-2.84-5.4-5.94-7.96-8.03Z"/>
          <path d="M567.92,2.45v29.85h-2.81v-2.2h-17.86v2.34h-2.7V2.45h23.37ZM547.25,5.08v9.72h17.86V5.08h-17.86ZM565.11,27.48v-10.05h-17.86v10.05h17.86Z"/>
          <path d="M584.98,9.54h6.62v2.3h-3.74l1.73.47c-.65,1.66-1.37,3.38-1.98,4.64h3.56v2.34h-6.19v3.89h5.72v2.27h-5.72v7.31h-2.52v-7.31h-5.91v-2.27h5.91v-3.89h-6.27v-2.34h3.53c-.22-1.3-.83-3.21-1.51-4.64l1.77-.47h-4.29v-2.3h6.77v-3.57h-5.47v-2.3h5.47V.04h2.52v3.64h5.26v2.3h-5.26v3.57ZM585.52,16.56c.58-1.3,1.37-3.31,1.77-4.72h-7.02c.79,1.51,1.48,3.53,1.66,4.75l-1.26.36h6.23l-1.37-.4ZM607.56,14.26c-.76,4.32-2.2,8.39-4.36,11.85,1.66,1.94,3.56,3.53,5.69,4.57-.58.5-1.4,1.48-1.84,2.16-1.98-1.12-3.75-2.7-5.33-4.57-1.37,1.8-2.99,3.38-4.83,4.65-.36-.54-1.08-1.26-1.69-1.77v1.73h-2.45V1.62h13.97v6.91c0,1.33-.25,2.05-1.4,2.45-1.08.36-2.88.4-5.62.4-.11-.72-.47-1.66-.83-2.3,2.23.07,4.11.07,4.65,0,.58-.04.72-.14.72-.58v-4.43h-9.04v9.69h10.23l.47-.11,1.66.61ZM595.21,31c1.91-1.26,3.56-2.92,4.97-4.82-2.02-2.95-3.56-6.45-4.64-10.19h-.32v15.02ZM597.8,15.99c.9,2.84,2.2,5.58,3.78,7.96,1.4-2.45,2.45-5.18,3.1-7.96h-6.88Z"/>
          <path d="M622.96.94c-.97,2.59-2.27,5.22-3.67,7.71v24.16h-2.66V12.78c-1.12,1.58-2.34,3.03-3.57,4.29-.25-.61-1.04-2.09-1.55-2.66,3.57-3.46,6.88-8.82,8.9-14.3l2.56.83ZM633.47,8.54v5.15h10.26v2.48h-10.26v5.44h10.77v2.52h-10.77v8.71h-2.7V8.54h-2.49c-1.55,2.88-3.31,5.47-5.11,7.49-.43-.47-1.48-1.37-2.09-1.8,3.24-3.35,6.16-8.53,7.92-13.79l2.56.69c-.58,1.66-1.26,3.28-1.98,4.86h14.98v2.56h-11.09Z"/>
          <path d="M678.01,12.17c-1.55,4.64-3.67,8.75-6.34,12.17,1.33,3.53,2.99,5.58,4.83,5.58,1.01,0,1.44-1.88,1.69-6.66.61.61,1.58,1.22,2.3,1.44-.5,6.12-1.48,7.89-4.21,7.89s-4.93-2.2-6.59-5.91c-2.16,2.34-4.64,4.36-7.42,5.98-.4-.54-1.33-1.62-1.95-2.12,3.21-1.73,5.98-3.96,8.28-6.66-1.3-4.07-2.16-9.36-2.63-15.16h-12.42v4.68h9.18v1.15c-.18,8.07-.4,11.09-1.15,12.03-.54.69-1.15.94-2.16,1.05-.9.07-2.52.07-4.29,0-.04-.83-.32-1.84-.76-2.52,1.66.14,3.21.18,3.82.18.51,0,.87-.07,1.08-.4.5-.54.68-2.81.83-9h-6.55v.29c0,5.04-.54,12.28-3.78,16.96-.47-.54-1.62-1.48-2.23-1.8,2.95-4.39,3.28-10.55,3.28-15.2V6.09h15.02c-.14-1.98-.18-4-.21-6.05h2.77c0,2.09.04,4.11.14,6.05h11.63v2.63h-11.45c.36,4.79,1.01,9.07,1.98,12.5,1.95-2.85,3.49-6.09,4.61-9.72l2.7.68ZM671.78.14c2.23,1.12,5.04,2.84,6.45,4.11l-1.66,1.84c-1.37-1.26-4.11-3.1-6.38-4.32l1.58-1.62Z"/>
          <path d="M226.42,164.72v28.05h-2.59v-6.52c-4.54.76-9.15,1.44-12.57,2.02l-.47-2.7c1.01-.11,2.2-.25,3.49-.43v-20.42h-2.81v-2.48h17.47v2.48h-2.52ZM223.82,164.72h-7.02v4.79h7.02v-4.79ZM223.82,171.88h-7.02v5.01h7.02v-5.01ZM216.8,184.78c2.2-.29,4.61-.65,7.02-1.01v-4.43h-7.02v5.44ZM243.13,165.29c-.94,7.71-2.95,13.68-5.83,18.26,1.98,2.88,4.43,5.19,7.42,6.7-.61.51-1.48,1.51-1.91,2.2-2.85-1.62-5.22-3.82-7.17-6.52-2.12,2.7-4.61,4.83-7.35,6.41-.4-.68-1.19-1.66-1.77-2.16,2.85-1.48,5.4-3.71,7.56-6.66-2.48-4.25-4.18-9.47-5.37-15.38l2.56-.47c.94,4.97,2.38,9.51,4.43,13.32,2.09-3.67,3.64-8.17,4.46-13.47h-12.13v-2.63h12.86l.5-.11,1.73.5Z"/>
          <path d="M263.79,177.29s-.04.86-.07,1.22c-.65,8.5-1.26,11.85-2.56,13.07-.72.86-1.55,1.08-2.85,1.15-1.12.11-3.38.04-5.69-.07-.04-.83-.43-1.98-.94-2.73,2.38.21,4.75.25,5.65.25.76,0,1.19-.04,1.58-.39.87-.76,1.48-3.53,1.95-10.01h-9.47c-.14.61-.29,1.19-.4,1.73l-2.63-.43c.72-2.99,1.59-7.74,2.09-11.38h10.51v-5.69h-11.74v-2.52h14.37v10.73h-10.84c-.29,1.69-.58,3.46-.9,5.08h11.92ZM276.1,160.36v32.48h-2.66v-32.48h2.66Z"/>
          <path d="M311.74,189.74c1.29,0,1.51-.76,1.66-5.4.61.47,1.73.94,2.48,1.12-.29,5.44-1.08,6.84-3.93,6.84h-5.11c-3.17,0-3.96-.9-3.96-3.82v-10.55h-6.81c-.72,7.02-2.74,12.28-10.91,15.12-.29-.69-1.08-1.77-1.69-2.27,7.6-2.34,9.22-6.95,9.83-12.86h-9.33v-2.59h14.33v-7.2h-7.42c-.86,2.05-1.94,3.96-3.13,5.47-.61-.43-1.66-.97-2.34-1.26,2.48-3.03,4.29-7.78,5.15-11.52l2.7.54c-.36,1.37-.83,2.77-1.33,4.21h6.38v-5.58h2.66v5.58h11.81v2.55h-11.81v7.2h14.4v2.59h-9.83v10.55c0,1.08.25,1.26,1.62,1.26h4.57Z"/>
          <path d="M326.17,165.44c-.68,3.31-1.8,9.76-1.8,13.79,0,1.76.11,3.28.32,5.04.61-1.62,1.48-3.78,2.09-5.26l1.51,1.15c-.94,2.56-2.23,6.37-2.56,8.07-.11.54-.22,1.22-.18,1.62.04.4.07.9.11,1.26l-2.59.18c-.72-2.56-1.33-6.7-1.33-11.56,0-5.29,1.19-11.45,1.62-14.44.14-.83.25-1.77.25-2.56l3.21.29c-.18.61-.5,1.77-.65,2.41ZM334.56,183.77c0,1.66,1.19,3.24,6.09,3.24,3.24,0,6.01-.29,8.93-.94l.07,3.03c-2.27.43-5.29.76-9,.76-6.05,0-8.75-2.02-8.75-5.4,0-1.22.21-2.49.61-4.25l2.59.25c-.36,1.33-.54,2.34-.54,3.31ZM348.5,165.76v2.92c-3.85.43-10.84.43-14.8,0v-2.88c3.93.65,11.2.5,14.8-.04Z"/>
          <path d="M357.1,166.01c2.34-.25,9.15-.94,15.77-1.48,3.92-.36,7.31-.54,9.72-.65v2.88c-2.05,0-5.22.04-7.06.58-5.11,1.66-8.25,7.13-8.25,11.38,0,7.06,6.55,9.29,12.42,9.51l-1.04,2.99c-6.66-.25-14.26-3.82-14.26-11.85,0-5.62,3.42-10.19,6.73-12.17-3.85.43-13.04,1.3-16.93,2.12l-.32-3.13c1.37-.04,2.52-.11,3.21-.18Z"/>
          <path d="M406.46,170.19c2.99,6.16,8.18,11.88,13.83,14.62-.65.54-1.58,1.58-1.98,2.34-5.44-2.99-10.26-8.46-13.5-14.69v11.02h6.84v2.67h-6.84v6.7h-2.77v-6.7h-7.02v-2.67h7.02v-11.02c-3.31,6.23-8.18,11.67-13.47,14.73-.4-.65-1.3-1.66-1.91-2.16,5.47-2.85,10.7-8.68,13.72-14.84h-12.5v-2.67h14.15v-7.53h2.77v7.53h14.26v2.67h-12.61Z"/>
          <path d="M443.18,184.31c3.28,2.59,8.25,4.72,12.86,5.69-.61.58-1.44,1.62-1.8,2.38-4.83-1.37-10.08-4.07-13.54-7.38v7.85h-2.63v-7.67c-3.46,3.13-8.71,5.72-13.43,7.09-.36-.68-1.15-1.69-1.73-2.27,4.46-1.01,9.47-3.17,12.71-5.69h-11.78v-2.27h14.22v-2.67h-10.84v-2.05h10.84v-2.63h-12.64v-2.2h7.85c-.32-1.08-1.04-2.52-1.76-3.6l1.26-.25h-8.79v-2.3h5.73c-.5-1.44-1.77-3.6-2.85-5.22l2.27-.76c1.22,1.62,2.52,3.85,3.06,5.29l-1.84.69h4.43v-6.37h2.49v6.37h4.29v-6.37h2.52v6.37h4.36l-1.33-.43c.94-1.51,2.09-3.86,2.74-5.47l2.74.72c-1.01,1.84-2.16,3.82-3.17,5.19h5.58v2.3h-7.2c-.72,1.37-1.51,2.77-2.23,3.85h8.17v2.2h-13.04v2.63h11.27v2.05h-11.27v2.67h14.44v2.27h-11.96ZM434.21,168.64c.76,1.12,1.51,2.63,1.8,3.6l-1.15.25h8.46l-.36-.11c.61-1.04,1.33-2.52,1.84-3.74h-10.59Z"/>
          <path d="M487.35,174.62c-2.02,5-5.29,8.75-9.4,11.59,3.85,2.09,8.57,3.49,13.97,4.21-.61.57-1.33,1.76-1.69,2.52-5.83-.9-10.8-2.59-14.87-5.11-4.43,2.45-9.54,4.03-14.95,5.01-.21-.69-.94-1.95-1.44-2.52,5.08-.79,9.87-2.12,13.97-4.18-3.13-2.45-5.62-5.47-7.46-9.15l2.16-.76h-5.69v-2.63h12.03v-5.54h-13.65v-2.59h13.65v-5.47h2.74v5.47h13.72v2.59h-13.72v5.54h8.28l.5-.11,1.84,1.12ZM467.98,176.24c1.73,3.42,4.25,6.23,7.49,8.46,3.42-2.12,6.19-4.9,8.03-8.46h-15.52Z"/>
          <path d="M502.07,180.2v9.54c0,1.48-.36,2.2-1.26,2.63-.83.43-2.2.54-4.47.5-.11-.65-.43-1.73-.79-2.48,1.55.04,2.99.04,3.38,0,.43,0,.61-.11.61-.65v-8.71c-1.55.51-2.99.97-4.32,1.37l-.43-2.59c1.33-.36,2.95-.86,4.75-1.4v-8.71h-4.46v-2.49h4.46v-7.2h2.52v7.2h3.82v2.49h-3.82v7.92l3.75-1.19.36,2.41-4.11,1.37ZM525.15,179.95c-1.08,3.38-2.77,5.98-4.93,7.99,2.3,1.3,5.04,2.2,8,2.74-.58.54-1.26,1.59-1.62,2.27-3.17-.68-6.01-1.8-8.43-3.38-2.3,1.58-4.97,2.63-7.85,3.35-.29-.54-1.01-1.59-1.51-1.98,2.74-.61,5.22-1.51,7.35-2.81-1.66-1.33-3.1-2.88-4.21-4.68-1.4,3.67-3.53,7.06-7.09,9.4-.4-.61-1.22-1.48-1.84-1.87,5.15-3.21,7.1-8.79,7.96-14.01h-4.9v-2.27h5.26c.11-.97.22-1.95.29-2.84h-4.72v-2.2h12.78c1.15-1.76,2.52-4.25,3.31-6.05l2.52.83c-1.01,1.73-2.2,3.67-3.31,5.22h4.36v2.2h-12.35c-.07.9-.18,1.87-.29,2.84h13.68v2.27h-14.04c-.11.79-.29,1.62-.47,2.41h10.08l.47-.07,1.51.65ZM525.94,162.23c-4.9,1.08-12.64,1.66-18.94,1.84-.07-.61-.4-1.48-.65-2.09,6.23-.22,13.83-.83,18.01-1.77l1.58,2.02ZM510.03,164.54c.65,1.37,1.48,3.24,1.8,4.36l-2.2.76c-.32-1.22-1.01-3.13-1.69-4.57l2.09-.54ZM513.41,181.46c1.15,2.02,2.77,3.78,4.79,5.22,1.62-1.37,2.92-3.1,3.82-5.22h-8.61ZM515.32,169.22c-.11-1.22-.54-3.31-.94-4.9l2.12-.36c.47,1.55.9,3.56,1.12,4.75l-2.3.5Z"/>
          <path d="M548.04,191.22l-1.69-2.67c1.15-.11,2.27-.29,3.1-.47,4.61-1.04,9.15-4.46,9.15-10.7,0-5.44-3.49-9.94-9.61-10.44-.47,3.35-1.15,7.02-2.16,10.37-2.2,7.42-5.04,11.2-8.39,11.2s-6.41-3.67-6.41-9.61c0-7.82,6.95-14.66,15.74-14.66s13.79,5.94,13.79,13.25-4.97,12.61-13.5,13.72ZM538.54,185.21c1.69,0,3.6-2.41,5.44-8.5.9-2.99,1.62-6.41,2.02-9.72-6.91.87-11.16,6.77-11.16,11.67,0,4.54,2.09,6.55,3.71,6.55Z"/>
          <path d="M583.25,164.93c-.43,1.51-.94,3.13-1.4,4.5h14.44v23.44h-2.7v-1.91h-23.01v1.91h-2.59v-23.44h11.13c.4-1.37.76-3.02,1.04-4.5h-13.79v-2.56h31.65v2.56h-14.77ZM570.57,188.48h5.11v-16.57h-5.11v16.57ZM585.74,171.92h-7.6v3.96h7.6v-3.96ZM585.74,178.08h-7.6v4.03h7.6v-4.03ZM578.14,188.48h7.6v-4.18h-7.6v4.18ZM593.59,171.92h-5.4v16.57h5.4v-16.57Z"/>
          <path d="M614.96,168.14h-13.32v-2.2h13.32v2.2ZM613.78,190.79h-8.17v1.66h-2.34v-12.06h10.52v10.41ZM613.74,172.93h-10.44v-2.12h10.44v2.12ZM603.3,175.56h10.44v2.16h-10.44v-2.16ZM613.67,163.38h-10.23v-2.16h10.23v2.16ZM605.6,182.58v6.05h5.87v-6.05h-5.87ZM626.16,179.98c0,1.98,1.26,7.85,8.71,10.62-.5.61-1.26,1.66-1.62,2.27-5.47-2.2-7.89-6.84-8.43-9-.54,2.2-3.06,6.7-9.36,9-.32-.58-1.04-1.62-1.58-2.16,8.36-2.88,9.62-8.68,9.62-10.73v-5.15h2.66v5.15ZM614.75,184.02c1.73-1.26,2.84-3.75,3.35-6.27l2.38.5c-.5,2.7-1.66,5.44-3.6,7.02l-2.12-1.26ZM632.72,175.95c-1.8-1.62-5.22-4.04-8.25-5.94-1.4,2.81-3.78,4.82-7.96,6.23-.29-.65-.97-1.58-1.51-2.09,7.38-2.27,8.39-6.52,8.75-14.15h2.59c-.14,3.02-.4,5.58-1.01,7.74,3.17,1.91,7.09,4.46,9.15,6.19l-1.76,2.02ZM620.69,162.84c-.36,2.38-1.33,4.97-3.03,6.45l-2.05-1.01c1.51-1.22,2.48-3.6,2.85-5.87l2.23.43ZM633.76,163.1c-1.15,2.02-2.49,4.29-3.6,5.72l-1.98-.83c1.04-1.55,2.38-4.03,3.06-5.8l2.52.9ZM628.25,183.77c1.15-1.66,2.59-4.39,3.35-6.27l2.59.9c-1.22,2.16-2.7,4.64-3.93,6.23l-2.02-.87Z"/>
          <path d="M236.82,330.7c1.4,5.22,4.03,9.94,7.56,12.17-.61.54-1.48,1.51-1.91,2.27-2.52-1.76-4.5-4.57-6.01-7.96v9.26h-17.25v-12.93h15.85c-.29-.9-.58-1.84-.79-2.81h-15.7c-.43,4.86-1.84,10.55-5.65,14.69-.36-.54-1.44-1.58-1.98-1.91,4.61-5.01,5.22-11.92,5.22-16.89v-5.01h24.13v9.11h-3.46ZM212.73,349.2h30.03v2.45h-30.03v-2.45ZM218.75,326.62c0,.54,0,1.12-.04,1.73h18.87v-4.46h-18.83v2.74ZM233.91,335.56h-12.28v3.42h12.28v-3.42ZM233.91,340.89h-12.28v3.49h12.28v-3.49Z"/>
          <path d="M258.92,321.04c-1.08,2.63-2.41,5.26-3.92,7.71v24.05h-2.63v-20.2c-1.33,1.76-2.77,3.38-4.25,4.75-.25-.65-1.12-2.05-1.62-2.7,3.96-3.42,7.63-8.79,9.76-14.44l2.66.83ZM270.99,331.7c2.3,5.73,6.05,11.45,9.79,14.48-.65.5-1.58,1.44-2.02,2.16-3.49-3.24-6.91-8.71-9.33-14.48v19.01h-2.63v-18.26c-2.41,5.62-5.83,10.77-9.36,13.86-.5-.61-1.4-1.59-2.02-2.05,3.89-3.06,7.71-8.86,9.97-14.73h-8.71v-2.59h10.12v-8.64h2.63v8.64h10.41v2.59h-8.86Z"/>
          <path d="M283.22,350.21c2.7-1.4,4.21-3.93,4.93-6.77l2.34.76c-.79,3.06-2.2,5.94-5.08,7.53l-2.2-1.51ZM290.5,329.07h-6.66v-2.23h6.66v-3.06c-1.87.21-3.78.32-5.51.39-.11-.57-.4-1.44-.69-1.98,4.39-.25,9.79-.83,12.68-1.69l1.8,1.87c-1.62.47-3.67.87-5.83,1.15v3.31h6.48v2.23h-6.48v3.17h5.01v8.18h-12.39v-8.18h4.93v-3.17ZM295.57,334.37h-7.67v3.96h7.67v-3.96ZM304.07,350.03c1.62,0,1.84-.47,1.98-3.78.61.47,1.69.83,2.45.97-.36,4.21-1.15,5.22-4.21,5.22h-6.99c-3.78,0-4.72-.72-4.72-3.49v-5.47h2.63v5.47c0,.9.32,1.08,2.27,1.08h6.59ZM297.12,340.6c2.27,1.12,4.93,2.88,6.19,4.32l-1.87,1.62c-1.22-1.4-3.82-3.31-6.09-4.5l1.76-1.44ZM314.62,340.78h-13.87v-17.54h4.25c.47-1.19.94-2.56,1.19-3.56l2.92.43c-.47,1.08-.97,2.2-1.4,3.13h6.91v17.54ZM303.21,325.47v2.92h8.82v-2.92h-8.82ZM303.21,330.34v3.06h8.82v-3.06h-8.82ZM312.03,338.58v-3.24h-8.82v3.24h8.82ZM309.69,343.23c2.59,1.98,5.33,4.9,6.45,7.13l-2.38,1.33c-1.01-2.2-3.64-5.19-6.19-7.28l2.12-1.19Z"/>
          <path d="M222.71,488.14h-11.56v-2.2h11.56v2.2ZM221.77,510.75h-7.02v1.69h-2.16v-12.06h9.18v10.37ZM212.62,490.8h9.15v2.12h-9.15v-2.12ZM212.62,495.56h9.15v2.16h-9.15v-2.16ZM221.7,483.38h-8.86v-2.16h8.86v2.16ZM214.75,502.58v6.01h4.79v-6.01h-4.79ZM242.3,503.98c-.9,1.58-2.16,3.06-3.57,4.36.79,1.73,1.73,2.59,2.74,2.59.61,0,.97-.76,1.15-3.1.43.47,1.15.79,1.69,1.01-.39,3.24-1.26,4.25-3.02,4.29-1.8,0-3.24-1.15-4.36-3.31-1.4,1.04-2.92,1.95-4.47,2.63-.29-.4-.9-1.04-1.37-1.44,1.76-.76,3.53-1.8,5.08-3.06-.54-1.58-.97-3.49-1.26-5.69h-4.82v2.45c1.26-.18,2.52-.36,3.82-.54l.07,1.98-3.89.57v3.67c0,1.19-.29,1.8-1.19,2.12-.86.32-2.23.32-4.32.32-.11-.54-.47-1.4-.76-2.02,1.51.04,2.92.04,3.31.04.43-.04.54-.14.54-.5v-3.28l-4.82.72-.36-2.16c1.48-.14,3.24-.36,5.19-.61v-2.77h-5.04v-2.05h5.04v-2.41c-1.33.18-2.66.36-3.89.47-.11-.47-.36-1.23-.61-1.69,3.13-.36,6.88-1.01,8.89-1.73l1.62,1.66c-1.04.32-2.3.61-3.6.86v2.85h4.57c-.14-1.58-.25-3.35-.32-5.19h2.3c.04,1.91.14,3.64.29,5.19h6.91v2.05h-6.66c.21,1.55.5,2.88.83,4.03.94-1.01,1.73-2.05,2.3-3.21l1.98.9ZM232,485.47h-8.03v-1.98h4.39c-.43-.9-1.15-1.91-1.8-2.77l1.91-.75c.9,1.01,1.87,2.48,2.27,3.46l-.18.07h5.55c.68-1.04,1.55-2.56,1.98-3.56l2.38.72c-.65,1.01-1.33,2.02-1.95,2.84h4.5v1.98h-8.46v2.3h7.53v1.84h-7.53v2.52h9.22v2.05h-21.1v-2.05h9.33v-2.52h-6.88v-1.84h6.88v-2.3ZM239.56,495.05c1.47.94,3.17,2.34,3.96,3.35l-1.62,1.37c-.79-1.08-2.45-2.56-3.89-3.53l1.55-1.19Z"/>
          <path d="M279.88,502.65h-3.71v6.37h-2.66v-1.62h-8.64v2.49c0,1.66-.51,2.27-1.59,2.66-1.12.4-2.99.43-5.98.43-.14-.68-.58-1.66-.94-2.27,2.16.07,4.32.04,4.93.04.69-.04.9-.25.9-.87v-2.49h-11.63v-2.05h11.63v-2.7h-14.73v-2.12h14.73v-2.52h-11.31v-1.98h11.31v-2.52h-10.3v-6.34h10.3v-2.09h-14.04v-2.2h14.04v-2.88h2.67v2.88h14.33v2.2h-14.33v2.09h10.73v6.34h-10.73v2.52h11.31v4.5h3.71v2.12ZM262.2,491.63v-2.59h-7.74v2.59h7.74ZM264.87,489.04v2.59h8.07v-2.59h-8.07ZM264.87,500.53h8.64v-2.52h-8.64v2.52ZM273.51,502.65h-8.64v2.7h8.64v-2.7Z"/>
          <path d="M304.32,505.39c-2.27,1.77-4.72,3.57-6.84,5.01l-.79-1.4c-4.54,1.01-9.22,1.98-12.75,2.77l-.54-2.48c1.66-.25,3.71-.65,5.94-1.08v-10.91h-5.62v-2.34h5.62v-3.82h-3.71v-1.62c-.47.47-.97.94-1.48,1.4-.4-.54-1.19-1.37-1.66-1.69,3.24-2.74,5.54-6.38,6.73-9.22h2.41c2.12,1.91,4.75,4.61,5.98,6.45l-1.76,1.98c-1.08-1.62-3.17-4.18-5.08-5.98-1.08,1.94-2.56,4.21-4.54,6.37h9.58v2.3h-4.14v3.82h5.15v2.34h-5.15v10.44l4.97-1.01.11,1.12c1.84-1.12,4.32-2.81,6.77-4.46l.79,2.02ZM286.39,499.19c.76,2.16,1.33,4.93,1.44,6.77l-1.98.51c-.07-1.88-.61-4.65-1.3-6.81l1.84-.47ZM292.98,505.35c.5-1.73,1.19-4.57,1.48-6.48l2.09.54c-.58,2.2-1.26,4.75-1.8,6.41l-1.76-.47ZM307.53,495.23c1.15,4.68,3.85,10.48,9.22,13.29-.54.43-1.37,1.51-1.77,2.16-3.6-2.2-5.94-5.8-7.45-9.25v8.64c0,1.26-.25,1.98-1.12,2.38-.83.4-2.2.4-4.14.4-.11-.65-.43-1.66-.76-2.34,1.37.07,2.59.04,2.99.04s.5-.11.5-.54v-15.59h-8.03v-2.34h13.72v-3.13h-11.13v-2.16h11.13v-3.1h-11.85v-2.27h14.3v10.66h2.95v2.34h-8.57v.83ZM301.59,502.33c-.72-1.37-2.34-3.46-3.85-4.9l1.8-1.15c1.55,1.4,3.24,3.38,4,4.75l-1.95,1.3ZM309.54,500.74c1.33-1.33,3.17-3.53,4.18-5.08l2.09,1.3c-1.4,1.76-3.17,3.67-4.61,4.97l-1.66-1.19Z"/>
          <path d="M330.53,480.94c-.97,2.59-2.27,5.22-3.67,7.71v24.16h-2.66v-20.02c-1.12,1.58-2.34,3.03-3.57,4.29-.25-.61-1.04-2.09-1.55-2.66,3.57-3.46,6.88-8.82,8.9-14.3l2.56.83ZM341.04,488.54v5.15h10.26v2.48h-10.26v5.44h10.77v2.52h-10.77v8.71h-2.7v-24.31h-2.49c-1.55,2.88-3.31,5.47-5.11,7.49-.43-.47-1.48-1.37-2.09-1.8,3.24-3.35,6.16-8.53,7.92-13.79l2.56.69c-.58,1.66-1.26,3.28-1.98,4.86h14.98v2.56h-11.09Z"/>
          <path d="M385.58,492.17c-1.55,4.64-3.67,8.75-6.34,12.17,1.33,3.53,2.99,5.58,4.83,5.58,1.01,0,1.44-1.88,1.69-6.66.61.61,1.58,1.22,2.3,1.44-.5,6.12-1.48,7.89-4.21,7.89s-4.93-2.2-6.59-5.91c-2.16,2.34-4.64,4.36-7.42,5.98-.4-.54-1.33-1.62-1.95-2.12,3.21-1.73,5.98-3.96,8.28-6.66-1.3-4.07-2.16-9.36-2.63-15.16h-12.42v4.68h9.18v1.15c-.18,8.07-.4,11.09-1.15,12.03-.54.69-1.15.94-2.16,1.05-.9.07-2.52.07-4.29,0-.04-.83-.32-1.84-.76-2.52,1.66.14,3.21.18,3.82.18.51,0,.87-.07,1.08-.4.5-.54.68-2.81.83-9h-6.55v.29c0,5.04-.54,12.28-3.78,16.96-.47-.54-1.62-1.48-2.23-1.8,2.95-4.39,3.28-10.55,3.28-15.2v-10.05h15.02c-.14-1.98-.18-4-.21-6.05h2.77c0,2.09.04,4.11.14,6.05h11.63v2.63h-11.45c.36,4.79,1.01,9.07,1.98,12.5,1.95-2.85,3.49-6.09,4.61-9.72l2.7.68ZM379.35,480.14c2.23,1.12,5.04,2.84,6.45,4.11l-1.66,1.84c-1.37-1.26-4.11-3.1-6.38-4.32l1.58-1.62Z"/>
          <path d="M226.42,644.72v28.05h-2.59v-6.52c-4.54.76-9.15,1.44-12.57,2.02l-.47-2.7c1.01-.11,2.2-.25,3.49-.43v-20.42h-2.81v-2.48h17.47v2.48h-2.52ZM223.82,644.72h-7.02v4.79h7.02v-4.79ZM223.82,651.88h-7.02v5.01h7.02v-5.01ZM216.8,664.78c2.2-.29,4.61-.65,7.02-1.01v-4.43h-7.02v5.44ZM243.13,645.29c-.94,7.71-2.95,13.68-5.83,18.26,1.98,2.88,4.43,5.19,7.42,6.7-.61.51-1.48,1.51-1.91,2.2-2.85-1.62-5.22-3.82-7.17-6.52-2.12,2.7-4.61,4.83-7.35,6.41-.4-.68-1.19-1.66-1.77-2.16,2.85-1.48,5.4-3.71,7.56-6.66-2.48-4.25-4.18-9.47-5.37-15.38l2.56-.47c.94,4.97,2.38,9.51,4.43,13.32,2.09-3.67,3.64-8.17,4.46-13.47h-12.13v-2.63h12.86l.5-.11,1.73.5Z"/>
          <path d="M263.79,657.29s-.04.86-.07,1.22c-.65,8.5-1.26,11.85-2.56,13.07-.72.86-1.55,1.08-2.85,1.15-1.12.11-3.38.04-5.69-.07-.04-.83-.43-1.98-.94-2.73,2.38.21,4.75.25,5.65.25.76,0,1.19-.04,1.58-.39.87-.76,1.48-3.53,1.95-10.01h-9.47c-.14.61-.29,1.19-.4,1.73l-2.63-.43c.72-2.99,1.59-7.74,2.09-11.38h10.51v-5.69h-11.74v-2.52h14.37v10.73h-10.84c-.29,1.69-.58,3.46-.9,5.08h11.92ZM276.1,640.36v32.48h-2.66v-32.48h2.66Z"/>
          <path d="M311.74,669.74c1.29,0,1.51-.76,1.66-5.4.61.47,1.73.94,2.48,1.12-.29,5.44-1.08,6.84-3.93,6.84h-5.11c-3.17,0-3.96-.9-3.96-3.82v-10.55h-6.81c-.72,7.02-2.74,12.28-10.91,15.12-.29-.69-1.08-1.77-1.69-2.27,7.6-2.34,9.22-6.95,9.83-12.86h-9.33v-2.59h14.33v-7.2h-7.42c-.86,2.05-1.94,3.96-3.13,5.47-.61-.43-1.66-.97-2.34-1.26,2.48-3.03,4.29-7.78,5.15-11.52l2.7.54c-.36,1.37-.83,2.77-1.33,4.21h6.38v-5.58h2.66v5.58h11.81v2.55h-11.81v7.2h14.4v2.59h-9.83v10.55c0,1.08.25,1.26,1.62,1.26h4.57Z"/>
          <path d="M326.17,645.44c-.68,3.31-1.8,9.76-1.8,13.79,0,1.76.11,3.28.32,5.04.61-1.62,1.48-3.78,2.09-5.26l1.51,1.15c-.94,2.56-2.23,6.37-2.56,8.07-.11.54-.22,1.22-.18,1.62.04.4.07.9.11,1.26l-2.59.18c-.72-2.56-1.33-6.7-1.33-11.56,0-5.29,1.19-11.45,1.62-14.44.14-.83.25-1.77.25-2.56l3.21.29c-.18.61-.5,1.77-.65,2.41ZM334.56,663.77c0,1.66,1.19,3.24,6.09,3.24,3.24,0,6.01-.29,8.93-.94l.07,3.03c-2.27.43-5.29.76-9,.76-6.05,0-8.75-2.02-8.75-5.4,0-1.22.21-2.49.61-4.25l2.59.25c-.36,1.33-.54,2.34-.54,3.31ZM348.5,645.76v2.92c-3.85.43-10.84.43-14.8,0v-2.88c3.93.65,11.2.5,14.8-.04Z"/>
          <path d="M357.1,646.01c2.34-.25,9.15-.94,15.77-1.48,3.92-.36,7.31-.54,9.72-.65v2.88c-2.05,0-5.22.04-7.06.58-5.11,1.66-8.25,7.13-8.25,11.38,0,7.06,6.55,9.29,12.42,9.51l-1.04,2.99c-6.66-.25-14.26-3.82-14.26-11.85,0-5.62,3.42-10.19,6.73-12.17-3.85.43-13.04,1.3-16.93,2.12l-.32-3.13c1.37-.04,2.52-.11,3.21-.18Z"/>
          <path d="M406.46,650.19c2.99,6.16,8.18,11.88,13.83,14.62-.65.54-1.58,1.58-1.98,2.34-5.44-2.99-10.26-8.46-13.5-14.69v11.02h6.84v2.67h-6.84v6.7h-2.77v-6.7h-7.02v-2.67h7.02v-11.02c-3.31,6.23-8.18,11.67-13.47,14.73-.4-.65-1.3-1.66-1.91-2.16,5.47-2.85,10.7-8.68,13.72-14.84h-12.5v-2.67h14.15v-7.53h2.77v7.53h14.26v2.67h-12.61Z"/>
          <path d="M443.18,664.31c3.28,2.59,8.25,4.72,12.86,5.69-.61.58-1.44,1.62-1.8,2.38-4.83-1.37-10.08-4.07-13.54-7.38v7.85h-2.63v-7.67c-3.46,3.13-8.71,5.72-13.43,7.09-.36-.68-1.15-1.69-1.73-2.27,4.46-1.01,9.47-3.17,12.71-5.69h-11.78v-2.27h14.22v-2.67h-10.84v-2.05h10.84v-2.63h-12.64v-2.2h7.85c-.32-1.08-1.04-2.52-1.76-3.6l1.26-.25h-8.79v-2.3h5.73c-.5-1.44-1.77-3.6-2.85-5.22l2.27-.76c1.22,1.62,2.52,3.85,3.06,5.29l-1.84.69h4.43v-6.37h2.49v6.37h4.29v-6.37h2.52v6.37h4.36l-1.33-.43c.94-1.51,2.09-3.86,2.74-5.47l2.74.72c-1.01,1.84-2.16,3.82-3.17,5.19h5.58v2.3h-7.2c-.72,1.37-1.51,2.77-2.23,3.85h8.17v2.2h-13.04v2.63h11.27v2.05h-11.27v2.67h14.44v2.27h-11.96ZM434.21,648.64c.76,1.12,1.51,2.63,1.8,3.6l-1.15.25h8.46l-.36-.11c.61-1.04,1.33-2.52,1.84-3.74h-10.59Z"/>
          <path d="M487.35,654.62c-2.02,5-5.29,8.75-9.4,11.59,3.85,2.09,8.57,3.49,13.97,4.21-.61.57-1.33,1.76-1.69,2.52-5.83-.9-10.8-2.59-14.87-5.11-4.43,2.45-9.54,4.03-14.95,5.01-.21-.69-.94-1.95-1.44-2.52,5.08-.79,9.87-2.12,13.97-4.18-3.13-2.45-5.62-5.47-7.46-9.15l2.16-.76h-5.69v-2.63h12.03v-5.54h-13.65v-2.59h13.65v-5.47h2.74v5.47h13.72v2.59h-13.72v5.54h8.28l.5-.11,1.84,1.12ZM467.98,656.24c1.73,3.42,4.25,6.23,7.49,8.46,3.42-2.12,6.19-4.9,8.03-8.46h-15.52Z"/>
          <path d="M502.07,660.2v9.54c0,1.48-.36,2.2-1.26,2.63-.83.43-2.2.54-4.47.5-.11-.65-.43-1.73-.79-2.48,1.55.04,2.99.04,3.38,0,.43,0,.61-.11.61-.65v-8.71c-1.55.51-2.99.97-4.32,1.37l-.43-2.59c1.33-.36,2.95-.86,4.75-1.4v-8.71h-4.46v-2.49h4.46v-7.2h2.52v7.2h3.82v2.49h-3.82v7.92l3.75-1.19.36,2.41-4.11,1.37ZM525.15,659.95c-1.08,3.38-2.77,5.98-4.93,7.99,2.3,1.3,5.04,2.2,8,2.74-.58.54-1.26,1.59-1.62,2.27-3.17-.68-6.01-1.8-8.43-3.38-2.3,1.58-4.97,2.63-7.85,3.35-.29-.54-1.01-1.59-1.51-1.98,2.74-.61,5.22-1.51,7.35-2.81-1.66-1.33-3.1-2.88-4.21-4.68-1.4,3.67-3.53,7.06-7.09,9.4-.4-.61-1.22-1.48-1.84-1.87,5.15-3.21,7.1-8.79,7.96-14.01h-4.9v-2.27h5.26c.11-.97.22-1.95.29-2.84h-4.72v-2.2h12.78c1.15-1.76,2.52-4.25,3.31-6.05l2.52.83c-1.01,1.73-2.2,3.67-3.31,5.22h4.36v2.2h-12.35c-.07.9-.18,1.87-.29,2.84h13.68v2.27h-14.04c-.11.79-.29,1.62-.47,2.41h10.08l.47-.07,1.51.65ZM525.94,642.23c-4.9,1.08-12.64,1.66-18.94,1.84-.07-.61-.4-1.48-.65-2.09,6.23-.22,13.83-.83,18.01-1.77l1.58,2.02ZM510.03,644.54c.65,1.37,1.48,3.24,1.8,4.36l-2.2.76c-.32-1.22-1.01-3.13-1.69-4.57l2.09-.54ZM513.41,661.46c1.15,2.02,2.77,3.78,4.79,5.22,1.62-1.37,2.92-3.1,3.82-5.22h-8.61ZM515.32,649.22c-.11-1.22-.54-3.31-.94-4.9l2.12-.36c.47,1.55.9,3.56,1.12,4.75l-2.3.5Z"/>
          <path d="M548.04,671.22l-1.69-2.67c1.15-.11,2.27-.29,3.1-.47,4.61-1.04,9.15-4.46,9.15-10.7,0-5.44-3.49-9.94-9.61-10.44-.47,3.35-1.15,7.02-2.16,10.37-2.2,7.42-5.04,11.2-8.39,11.2s-6.41-3.67-6.41-9.61c0-7.82,6.95-14.66,15.74-14.66s13.79,5.94,13.79,13.25-4.97,12.61-13.5,13.72ZM538.54,665.21c1.69,0,3.6-2.41,5.44-8.5.9-2.99,1.62-6.41,2.02-9.72-6.91.87-11.16,6.77-11.16,11.67,0,4.54,2.09,6.55,3.71,6.55Z"/>
          <path d="M583.25,644.93c-.43,1.51-.94,3.13-1.4,4.5h14.44v23.44h-2.7v-1.91h-23.01v1.91h-2.59v-23.44h11.13c.4-1.37.76-3.02,1.04-4.5h-13.79v-2.56h31.65v2.56h-14.77ZM570.57,668.48h5.11v-16.57h-5.11v16.57ZM585.74,651.92h-7.6v3.96h7.6v-3.96ZM585.74,658.08h-7.6v4.03h7.6v-4.03ZM578.14,668.48h7.6v-4.18h-7.6v4.18ZM593.59,651.92h-5.4v16.57h5.4v-16.57Z"/>
          <path d="M614.96,648.14h-13.32v-2.2h13.32v2.2ZM613.78,670.79h-8.17v1.66h-2.34v-12.06h10.52v10.41ZM613.74,652.93h-10.44v-2.12h10.44v2.12ZM603.3,655.56h10.44v2.16h-10.44v-2.16ZM613.67,643.38h-10.23v-2.16h10.23v2.16ZM605.6,662.58v6.05h5.87v-6.05h-5.87ZM626.16,659.98c0,1.98,1.26,7.85,8.71,10.62-.5.61-1.26,1.66-1.62,2.27-5.47-2.2-7.89-6.84-8.43-9-.54,2.2-3.06,6.7-9.36,9-.32-.58-1.04-1.62-1.58-2.16,8.36-2.88,9.62-8.68,9.62-10.73v-5.15h2.66v5.15ZM614.75,664.02c1.73-1.26,2.84-3.75,3.35-6.27l2.38.5c-.5,2.7-1.66,5.44-3.6,7.02l-2.12-1.26ZM632.72,655.95c-1.8-1.62-5.22-4.04-8.25-5.94-1.4,2.81-3.78,4.82-7.96,6.23-.29-.65-.97-1.58-1.51-2.09,7.38-2.27,8.39-6.52,8.75-14.15h2.59c-.14,3.02-.4,5.58-1.01,7.74,3.17,1.91,7.09,4.46,9.15,6.19l-1.76,2.02ZM620.69,642.84c-.36,2.38-1.33,4.97-3.03,6.45l-2.05-1.01c1.51-1.22,2.48-3.6,2.85-5.87l2.23.43ZM633.76,643.1c-1.15,2.02-2.49,4.29-3.6,5.72l-1.98-.83c1.04-1.55,2.38-4.03,3.06-5.8l2.52.9ZM628.25,663.77c1.15-1.66,2.59-4.39,3.35-6.27l2.59.9c-1.22,2.16-2.7,4.64-3.93,6.23l-2.02-.87Z"/>
          <path d="M243.88,822.65h-3.71v6.37h-2.66v-1.62h-8.64v2.49c0,1.66-.51,2.27-1.59,2.66-1.12.4-2.99.43-5.98.43-.14-.68-.58-1.66-.94-2.27,2.16.07,4.32.04,4.93.04.69-.04.9-.25.9-.87v-2.49h-11.63v-2.05h11.63v-2.7h-14.73v-2.12h14.73v-2.52h-11.31v-1.98h11.31v-2.52h-10.3v-6.34h10.3v-2.09h-14.04v-2.2h14.04v-2.88h2.67v2.88h14.33v2.2h-14.33v2.09h10.73v6.34h-10.73v2.52h11.31v4.5h3.71v2.12ZM226.2,811.63v-2.59h-7.74v2.59h7.74ZM228.87,809.04v2.59h8.07v-2.59h-8.07ZM228.87,820.53h8.64v-2.52h-8.64v2.52ZM237.51,822.65h-8.64v2.7h8.64v-2.7Z"/>
          <path d="M257.77,820.71c.69-1.48,1.41-3.71,1.95-5.8h-3.46v14.84c0,1.37-.29,2.09-1.19,2.56-.94.36-2.34.4-4.5.4-.11-.65-.47-1.76-.83-2.45,1.55.04,2.95.04,3.42.04.43-.04.58-.14.58-.54v-11.56c-1.4,3.46-3.28,6.84-5.26,8.86-.29-.76-.94-1.8-1.41-2.48,2.23-2.12,4.47-5.98,5.8-9.65h-5.44v-2.34h9.65c-1.87-1.58-5.19-3.6-7.99-4.82l1.66-1.73c1.12.47,2.34,1.04,3.49,1.66,1.33-1.01,2.7-2.3,3.78-3.56h-10.19v-2.34h12.1l.47-.11,1.73,1.08c-1.4,2.16-3.71,4.46-5.87,6.12,1.19.72,2.27,1.48,3.03,2.16l-1.37,1.55h2.67l.39-.14,1.62.58c-.18.61-.36,1.26-.54,1.91,2.41-.69,4.61-1.58,6.45-2.77-1.44-1.29-2.7-2.77-3.71-4.39-.87.94-1.73,1.84-2.59,2.56-.5-.43-1.55-1.19-2.2-1.55,2.81-2.09,5.4-5.37,6.84-8.79l2.56.68c-.47,1.04-1.04,2.09-1.66,3.1h11.96v2.27h-2.77c-1.01,2.45-2.48,4.46-4.32,6.12,2.27,1.44,4.93,2.52,7.81,3.13-.54.58-1.33,1.58-1.69,2.3-3.03-.83-5.8-2.12-8.17-3.82-2.27,1.58-4.93,2.77-7.85,3.67-.18-.36-.58-.9-.97-1.41-.61,2.09-1.33,4.14-2.12,5.62l-1.84-.93ZM278.91,820.06s-.04.72-.07,1.15c-.65,6.7-1.33,9.43-2.38,10.48-.61.65-1.3.83-2.23.94-.86.04-2.38.07-4-.04-.07-.72-.32-1.8-.72-2.48,1.55.14,2.99.18,3.56.18s.87-.04,1.22-.36c.69-.69,1.22-2.7,1.77-7.64h-6.05c-1.26,4.57-3.78,8.32-9.54,10.55-.32-.61-1.04-1.58-1.58-2.05,4.97-1.8,7.24-4.83,8.36-8.5h-5.62v-2.23h6.19c.22-1.15.36-2.34.47-3.57h2.7c-.11,1.22-.29,2.41-.5,3.57h8.43ZM266.45,806.01c.97,1.73,2.38,3.31,4.07,4.64,1.48-1.29,2.67-2.81,3.49-4.64h-7.56Z"/>
          <path d="M287.83,819.3c-.11,4.36-.72,9.83-3.21,13.58-.4-.43-1.51-1.29-2.05-1.62,2.45-3.89,2.7-9.36,2.7-13.43v-9.69h13.22v11.16h-10.66ZM299.39,804.39h-15.41v-2.41h15.41v2.41ZM287.83,810.59v6.27h8.07v-6.27h-8.07ZM316.28,814.73h-3.96v18.12h-2.67v-18.12h-6.19c-.14,5.62-1.22,12.86-6.09,18.04-.4-.58-1.33-1.48-1.98-1.8,4.97-5.29,5.47-12.46,5.47-17.9v-9.54l2.12.54c3.82-.97,7.85-2.3,10.19-3.64l2.38,1.98c-3.24,1.58-7.85,2.95-12.06,3.96v5.76h12.78v2.59Z"/>
          <path d="M326.17,805.44c-.68,3.31-1.8,9.76-1.8,13.79,0,1.76.11,3.28.32,5.04.61-1.62,1.48-3.78,2.09-5.26l1.51,1.15c-.94,2.56-2.23,6.37-2.56,8.07-.11.54-.22,1.22-.18,1.62.04.4.07.9.11,1.26l-2.59.18c-.72-2.56-1.33-6.7-1.33-11.56,0-5.29,1.19-11.45,1.62-14.44.14-.83.25-1.77.25-2.56l3.21.29c-.18.61-.5,1.77-.65,2.41ZM334.56,823.77c0,1.66,1.19,3.24,6.09,3.24,3.24,0,6.01-.29,8.93-.94l.07,3.03c-2.27.43-5.29.76-9,.76-6.05,0-8.75-2.02-8.75-5.4,0-1.22.21-2.49.61-4.25l2.59.25c-.36,1.33-.54,2.34-.54,3.31ZM348.5,805.76v2.92c-3.85.43-10.84.43-14.8,0v-2.88c3.93.65,11.2.5,14.8-.04Z"/>
          <path d="M374.02,822.04c1.98,4.82,6.23,7.49,12.96,8.46-.61.54-1.33,1.66-1.66,2.38-6.7-1.22-10.91-4.07-13.29-9.25-1.58,4.57-4.9,7.6-12.35,9.33-.25-.65-.9-1.69-1.44-2.2,7.28-1.55,10.19-4.32,11.45-8.71h-9.83c-.61,3.6-1.84,7.31-4.11,10.23-.47-.47-1.62-1.22-2.27-1.51,3.85-4.79,4.29-11.56,4.29-16.46v-7.28h25.78v8.43h-10.16c-.07,1.51-.21,2.92-.43,4.25h12.75v2.34h-11.7ZM385.51,804.39h-30.21v-2.41h30.21v2.41ZM370.24,819.7c.22-1.29.36-2.7.43-4.25h-10.23c-.04,1.33-.11,2.77-.25,4.25h10.05ZM360.44,809.18v4.14h20.53v-4.14h-20.53Z"/>
          <path d="M396.62,811.7c1.48-3.67,5.22-8.18,9.79-8.18s8.21,4.79,8.21,12.35c0,10.01-6.27,14.41-15.2,16.03l-1.69-2.59c7.81-1.15,13.94-4.36,13.94-13.4,0-5.69-1.95-9.79-5.73-9.79-4.5,0-8.68,6.55-9.11,11.27-.18,1.4-.14,2.63.07,4.43l-2.77.22c-.18-1.37-.4-3.39-.4-5.73,0-3.42.68-8.71,1.12-11.63.14-1.08.22-2.12.29-3.1l3.17.11c-.76,2.63-1.48,7.49-1.69,10.01Z"/>
          <path d="M431.33,808.14h-11.56v-2.2h11.56v2.2ZM430.39,830.75h-7.02v1.69h-2.16v-12.06h9.18v10.37ZM421.25,810.8h9.15v2.12h-9.15v-2.12ZM421.25,815.56h9.15v2.16h-9.15v-2.16ZM430.32,803.38h-8.86v-2.16h8.86v2.16ZM423.37,822.58v6.01h4.79v-6.01h-4.79ZM450.92,823.98c-.9,1.58-2.16,3.06-3.57,4.36.79,1.73,1.73,2.59,2.74,2.59.61,0,.97-.76,1.15-3.1.43.47,1.15.79,1.69,1.01-.39,3.24-1.26,4.25-3.02,4.29-1.8,0-3.24-1.15-4.36-3.31-1.4,1.04-2.92,1.95-4.47,2.63-.29-.4-.9-1.04-1.37-1.44,1.76-.76,3.53-1.8,5.08-3.06-.54-1.58-.97-3.49-1.26-5.69h-4.82v2.45c1.26-.18,2.52-.36,3.82-.54l.07,1.98-3.89.57v3.67c0,1.19-.29,1.8-1.19,2.12-.86.32-2.23.32-4.32.32-.11-.54-.47-1.4-.76-2.02,1.51.04,2.92.04,3.31.04.43-.04.54-.14.54-.5v-3.28l-4.82.72-.36-2.16c1.48-.14,3.24-.36,5.19-.61v-2.77h-5.04v-2.05h5.04v-2.41c-1.33.18-2.66.36-3.89.47-.11-.47-.36-1.23-.61-1.69,3.13-.36,6.88-1.01,8.89-1.73l1.62,1.66c-1.04.32-2.3.61-3.6.86v2.85h4.57c-.14-1.58-.25-3.35-.32-5.19h2.3c.04,1.91.14,3.64.29,5.19h6.91v2.05h-6.66c.21,1.55.5,2.88.83,4.03.94-1.01,1.73-2.05,2.3-3.21l1.98.9ZM440.62,805.47h-8.03v-1.98h4.39c-.43-.9-1.15-1.91-1.8-2.77l1.91-.75c.9,1.01,1.87,2.48,2.27,3.46l-.18.07h5.55c.68-1.04,1.55-2.56,1.98-3.56l2.38.72c-.65,1.01-1.33,2.02-1.95,2.84h4.5v1.98h-8.46v2.3h7.53v1.84h-7.53v2.52h9.22v2.05h-21.1v-2.05h9.33v-2.52h-6.88v-1.84h6.88v-2.3ZM448.18,815.05c1.47.94,3.17,2.34,3.96,3.35l-1.62,1.37c-.79-1.08-2.45-2.56-3.89-3.53l1.55-1.19Z"/>
          <path d="M488.5,822.65h-3.71v6.37h-2.66v-1.62h-8.64v2.49c0,1.66-.51,2.27-1.59,2.66-1.12.4-2.99.43-5.98.43-.14-.68-.58-1.66-.94-2.27,2.16.07,4.32.04,4.93.04.69-.04.9-.25.9-.87v-2.49h-11.63v-2.05h11.63v-2.7h-14.73v-2.12h14.73v-2.52h-11.31v-1.98h11.31v-2.52h-10.3v-6.34h10.3v-2.09h-14.04v-2.2h14.04v-2.88h2.67v2.88h14.33v2.2h-14.33v2.09h10.73v6.34h-10.73v2.52h11.31v4.5h3.71v2.12ZM470.82,811.63v-2.59h-7.74v2.59h7.74ZM473.49,809.04v2.59h8.07v-2.59h-8.07ZM473.49,820.53h8.64v-2.52h-8.64v2.52ZM482.13,822.65h-8.64v2.7h8.64v-2.7Z"/>
          <path d="M512.95,825.39c-2.27,1.77-4.72,3.57-6.84,5.01l-.79-1.4c-4.54,1.01-9.22,1.98-12.75,2.77l-.54-2.48c1.66-.25,3.71-.65,5.94-1.08v-10.91h-5.62v-2.34h5.62v-3.82h-3.71v-1.62c-.47.47-.97.94-1.48,1.4-.4-.54-1.19-1.37-1.66-1.69,3.24-2.74,5.54-6.38,6.73-9.22h2.41c2.12,1.91,4.75,4.61,5.98,6.45l-1.76,1.98c-1.08-1.62-3.17-4.18-5.08-5.98-1.08,1.94-2.56,4.21-4.54,6.37h9.58v2.3h-4.14v3.82h5.15v2.34h-5.15v10.44l4.97-1.01.11,1.12c1.84-1.12,4.32-2.81,6.77-4.46l.79,2.02ZM495.01,819.19c.76,2.16,1.33,4.93,1.44,6.77l-1.98.51c-.07-1.88-.61-4.65-1.3-6.81l1.84-.47ZM501.6,825.35c.5-1.73,1.19-4.57,1.48-6.48l2.09.54c-.58,2.2-1.26,4.75-1.8,6.41l-1.76-.47ZM516.15,815.23c1.15,4.68,3.85,10.48,9.22,13.29-.54.43-1.37,1.51-1.77,2.16-3.6-2.2-5.94-5.8-7.45-9.25v8.64c0,1.26-.25,1.98-1.12,2.38-.83.4-2.2.4-4.14.4-.11-.65-.43-1.66-.76-2.34,1.37.07,2.59.04,2.99.04s.5-.11.5-.54v-15.59h-8.03v-2.34h13.72v-3.13h-11.13v-2.16h11.13v-3.1h-11.85v-2.27h14.3v10.66h2.95v2.34h-8.57v.83ZM510.21,822.33c-.72-1.37-2.34-3.46-3.85-4.9l1.8-1.15c1.55,1.4,3.24,3.38,4,4.75l-1.95,1.3ZM518.17,820.74c1.33-1.33,3.17-3.53,4.18-5.08l2.09,1.3c-1.4,1.76-3.17,3.67-4.61,4.97l-1.66-1.19Z"/>
          <path d="M539.15,800.94c-.97,2.59-2.27,5.22-3.67,7.71v24.16h-2.66v-20.02c-1.12,1.58-2.34,3.03-3.57,4.29-.25-.61-1.04-2.09-1.55-2.66,3.57-3.46,6.88-8.82,8.9-14.3l2.56.83ZM549.66,808.54v5.15h10.26v2.48h-10.26v5.44h10.77v2.52h-10.77v8.71h-2.7v-24.31h-2.49c-1.55,2.88-3.31,5.47-5.11,7.49-.43-.47-1.48-1.37-2.09-1.8,3.24-3.35,6.16-8.53,7.92-13.79l2.56.69c-.58,1.66-1.26,3.28-1.98,4.86h14.98v2.56h-11.09Z"/>
          <path d="M594.2,812.17c-1.55,4.64-3.67,8.75-6.34,12.17,1.33,3.53,2.99,5.58,4.83,5.58,1.01,0,1.44-1.88,1.69-6.66.61.61,1.58,1.22,2.3,1.44-.5,6.12-1.48,7.89-4.21,7.89s-4.93-2.2-6.59-5.91c-2.16,2.34-4.64,4.36-7.42,5.98-.4-.54-1.33-1.62-1.95-2.12,3.21-1.73,5.98-3.96,8.28-6.66-1.3-4.07-2.16-9.36-2.63-15.16h-12.42v4.68h9.18v1.15c-.18,8.07-.4,11.09-1.15,12.03-.54.69-1.15.94-2.16,1.05-.9.07-2.52.07-4.29,0-.04-.83-.32-1.84-.76-2.52,1.66.14,3.21.18,3.82.18.51,0,.87-.07,1.08-.4.5-.54.68-2.81.83-9h-6.55v.29c0,5.04-.54,12.28-3.78,16.96-.47-.54-1.62-1.48-2.23-1.8,2.95-4.39,3.28-10.55,3.28-15.2v-10.05h15.02c-.14-1.98-.18-4-.21-6.05h2.77c0,2.09.04,4.11.14,6.05h11.63v2.63h-11.45c.36,4.79,1.01,9.07,1.98,12.5,1.95-2.85,3.49-6.09,4.61-9.72l2.7.68ZM587.97,800.14c2.23,1.12,5.04,2.84,6.45,4.11l-1.66,1.84c-1.37-1.26-4.11-3.1-6.38-4.32l1.58-1.62Z"/>
          <path d="M219.14,985.57c1.69,2.63,4.83,3.85,8.97,4.04,3.93.14,11.92.04,16.13-.25-.29.65-.76,1.91-.86,2.74-3.93.14-11.31.21-15.27.07-4.68-.18-7.88-1.48-10.19-4.25-1.73,1.51-3.53,3.06-5.44,4.61l-1.44-2.7c1.66-1.08,3.67-2.59,5.47-4.11v-9.11h-5.01v-2.52h7.63v11.49ZM218.39,968.35c-1.15-1.73-3.82-4.1-6.12-5.72l1.95-1.59c2.34,1.51,5.04,3.85,6.27,5.58l-2.09,1.73ZM221.66,984.92c.76-.14,1.58-.32,2.48-.54v-22.87h16.35v13.4h-6.91c.5,1.44,1.19,2.81,1.98,4.07,1.95-1.26,4.25-2.99,5.65-4.25l2.12,1.55c-2.05,1.51-4.5,3.17-6.59,4.32,1.87,2.23,4.25,3.89,7.13,4.82-.58.51-1.33,1.55-1.69,2.27-5.51-2.16-9.11-6.73-11.02-12.78h-4.43v8.86c2.23-.5,4.68-1.08,7.09-1.69l.22,2.34c-4.21,1.08-8.61,2.2-11.92,2.99l-.47-2.48ZM226.74,963.82v3.31h11.16v-3.31h-11.16ZM237.9,972.6v-3.42h-11.16v3.42h11.16Z"/>
          <path d="M279.6,969.69c-.4,15.09-.72,20.09-1.84,21.57-.65.9-1.29,1.19-2.34,1.29-.97.11-2.56.11-4.18,0-.07-.72-.32-1.8-.76-2.48,1.66.18,3.17.18,3.82.18.58,0,.9-.11,1.19-.58.86-1.04,1.26-5.73,1.55-18.8h-5.22c-.4,9.61-1.8,17.36-7.31,22.11-.4-.57-1.33-1.48-1.94-1.87.5-.4.94-.83,1.37-1.3-5.94.72-12.06,1.44-16.35,1.95l-.36-2.34c2.16-.18,4.9-.47,7.89-.79v-3.28h-6.55v-1.98h6.55v-2.74h-7.09v-2.05h7.09v-2.23h-6.41v-7.67h15.56v7.67h-6.7v2.23h7.2v2.05h-7.2v2.74h6.88v1.98h-6.88v2.99c2.34-.25,4.82-.54,7.24-.83l.04,1.26c3.31-4.29,4.29-10.45,4.54-17.9h-4.11v-2.48h4.18c.07-2.56.07-5.29.07-8.1h2.48c0,2.81-.04,5.51-.07,8.1h7.67v1.3ZM251.47,965.15h-4.07v-2.09h4.07v-3.06h2.45v3.06h4.82v-3.06h2.45v3.06h4.25v2.09h-4.25v2.77h-2.45v-2.77h-4.82v2.77h-2.45v-2.77ZM255.11,974.4v-3.75h-4.07v3.75h4.07ZM261.77,970.66h-4.21v3.75h4.21v-3.75Z"/>
        </g>
      </g>
      <rect class="cls-1" width="809.73" height="993.16"/>
    </g>
  </g>
</svg>