<?xml version="1.0" encoding="UTF-8"?>
<svg id="_レイヤー_2" data-name="レイヤー 2" xmlns="http://www.w3.org/2000/svg" viewBox="0 0 228.97 426.06">
  <defs>
    <style>
      .cls-1 {
        fill: #989a9d;
      }

      .cls-2 {
        fill: #e0a164;
      }

      .cls-3 {
        fill: #9774ac;
      }

      .cls-4 {
        fill: #fffded;
      }

      .cls-5 {
        fill: #fff;
      }

      .cls-6 {
        fill: #646464;
      }

      .cls-7 {
        fill: #535557;
      }

      .cls-8 {
        fill: #c1c5c7;
      }
    </style>
  </defs>
  <g id="_背景" data-name="背景">
    <g>
      <g>
        <path class="cls-2" d="M180.7,291c-1.17,12.15-8.93,22.02-11.74,28.96-2.81,6.93-14.52,16.12-14.52,16.12-9.72,5.68-15.78,13.64-37.33,8.19-11.02-3.27-21.85-4.72-21.85-4.72,0,0-8.47-3.68-12.73-8.98l-3.18-3.16c-3.04,3.36-7.65,5.54-12.61,4.97-4.88-.95-9.76-1.91-12.13-6.55-1.43-2.59-2.43-5.27-2.17-8.07,2.16-4.8,8.93,1.09,10.59-5.05-12.94-17.77-14.11-25.71-9.4-46.45l4.02-17.69s10.58-32.6,11.13-36.1c.55-3.5,2.1-14.6,2.1-14.6-6.79-4.06-12.54-9.1-18.25-14.33-15.51-19.81-19.96-44.96-9.06-67.69,5.13-10.42,11.23-19.8,14.95-31.17-5.69-.12-11.03,4.32-16.99,6.18l-33.83-8.02c-2.28-1.56-3.33-4.06-4.56-6.6,1.08-6.27,8.71-9.16,13.55-11.49,9.95-5.81,20.83-14.66,33.04-5.84,2.51.6,4.42,2.89,7.45,2.18-8.14-11.32-17.36-20.66-22.58-33.94-1.21-4.37-1.19-10.49,2.34-14.15,2.43-2.49,5.74-3.54,8.92-4.01,7.9,3.71,14.85,8.83,20.95,14.98,6.86-6.54,12.99-13.46,22.81-14.4,3.87.92,7.7,2.85,8.72,7.17-3.2,10.06-4.85,21.31-11.56,28.91.13,2.89,2.76,4.74,4.56,6.59,5.23,2.06,9.37-2.47,14.9.88,7.4-1.92,15.67,1.06,23.33.64,4.75-1.94,3.12-8.86,7.38-11.32-6.11-6.96-15.51-11.23-18.29-21.9-.56-2.79-.6-6.07,1-8.54,5.89-7.59,14.44-1.47,21.3-.26.86,3.27,5.56,1.52,6.99,4.1l1.36.32c4.4-6.51,8.25-14.99,17.11-16.15,3.81.29,6.67,1.99,8.68,4.71,2.33,4.84.46,10.12.67,15.27-1.96,13.42-6.39,25.23-9.37,37.8,1.78-.6,3.01-2.35,3.66-4.24,6.67-2.3,12.91-8.78,19.99-8.53,11.07,3.24,23.71,4.19,32.99,9.87,2,1.9,2.17,4.6,1.15,7.22-9.77,5.03-19.12,9.14-28.36,14.51-5.62,1.32-11.29,2.83-17.59.12-.97,3.24,3.6,6.37,3.78,9.88,2.21,11.35,8.03,22.12,10.04,33.42,2.43,5.27.81,11.22,2.22,16.46.54,12.37-5.34,24.25-12.52,32.97-6.54,9.47-11.47,19.94-22.33,26.14.19,3.51,2.46,7.73,2.94,11.72,5.7,12.99,9.04,26.44,14.31,39.53,0,0,6.01,13.81,6.9,25.87,0,0,0,8.78-2.87,18.28Z"/>
        <path class="cls-5" d="M162.59,27.27c-1.17,10.95-7.27,20.33-7.91,31.61l-9.19-2.59c.22-6.08,4.08-9.45,4.49-15.48-2.26-7.69-9.95-9.71-14.97-14.38-.71-3.03-3.85-3.56-4.6-6.4,5.28,2.69,11.61,3.57,15.66,8,3.48.83,7.16,2.52,10.01-.89l8.42-13.11c-.04,4.48-1.35,8.26-1.91,13.23Z"/>
        <path class="cls-5" d="M79.8,55.21c-3.11,1.92-6.74.85-9.11,3.97l-1.35-.32c-8.63-11.85-17.32-21.67-23.51-35.19l.46-1.93c3.41,2.85,7.72,5.3,10.09,9.13,4.31,1.64,6.59,7.49,12.6,6.26,5.79-3.73,8.85-9.74,14.73-13.05-1.12,10.76-16.94,21.5-3.91,31.13Z"/>
        <path class="cls-5" d="M177.16,120.78c5.43,2.92,4.99,9.96,6.4,15.2-1.8,10.19-6.36,19.93-16.16,22.51-6.59,1.09-11.66-3.38-16.46-6.36-4.55-9.24-6.03-20.21-1.63-31.01,3.53-2.83,7.2-6.26,11.83-5.97,3.1-2.74,7.57-.05,10.57,1.07,1.18,1.91,3.56,3.09,5.45,4.56Z"/>
        <path class="cls-6" d="M176.25,133.22c.4,5.2-2.63,13.67-5.94,14.72-3.31,1.05-4.82,1.83-6.62.79-5.74.07-7.36-4.72-9.29-9.47.71-4.73-.24-11.9,4.16-14.94-.08-3.08,3.12-1.1,4.7-1.74,6.8.59,10.33,5.51,12.99,10.64Z"/>
        <path class="cls-5" d="M85.75,133.4c1.58,7.11-.41,18.08-6.08,23.06l-7.08,4.04c-3.41.62-7.96-.87-11.11-2.23-7.65-7.33-10.96-17.5-10.07-27.3,2.92-5.43,7.42-12.33,14.26-12.75,10.06-1.08,18.43,5.81,20.09,15.18Z"/>
        <path class="cls-6" d="M79.08,135.7c.14,3.71,1.65,8.56-1.4,11.92-2.29,1.91-5.26,3.25-8,3.62-2.59-2.86-7.62-.58-8.74-5.34-2.23-5.23-5.59-11.74-1.03-17.2,2.38-2.29,5.9-2.48,9.17-2.52,4.26,1.82,10.03,4.21,10,9.51Z"/>
        <path class="cls-5" d="M138.06,159.09c3.31,2.41,3.49,5.93,4.69,9.48-1.76,5.41-2.91,13.69-7.19,17.67-4.87,4.53-10.71,8.8-18.93,8.55-7.01,1.13-12.02-3.92-17.66-6.16-4.54-4.52-7.52-10.8-8.27-16.69-.62-3.42.14-8.34,2.95-10.74.19-8.53,9.85-6.23,12.47-12.97,7.23-3.8,15.16-1.92,22.19,1.99l9.74,8.85Z"/>
        <path class="cls-6" d="M124.78,153.07c-.31,2.17.78,4.48-.89,6.32-3.19,3.12-7.7,4.91-11.5,1.97-2.11-3.15-4.32-6.74-2.15-10.72,2.45-.85,3.52-3.66,6.08-3.26,3.43,1.02,6.87,2.04,8.46,5.68Z"/>
        <path class="cls-5" d="M170.24,281.67c-1.8,6.72-8.16,20.21-15.8,36.6-2.28,7.02-14.29,10.46-26.05,10.7-11.76.23-22.95-2.71-24.23-4.24-13.66-6.38-24.58-20.06-32.26-35.09-8.65-26.35,12.4-60.61,19.04-89.46,18.41,5.48,23.3,6.3,31.01,5.76,8-.14,17.2-2.23,24.72-6.54,8.76,20.3,26.23,55.55,23.57,82.27Z"/>
      </g>
      <path class="cls-6" d="M124.41,173.05c-.06-4.02-3.35-6.13-7.46-7.28-4.11-1.14-8.17,3.4-9.87,7.28-1.71,3.88,1.02,11.17,3.28,15.68,2.26,4.51,7.85,3.81,9.81,2.53,1.96-1.29,3.27-5.16,4.23-7.42.96-2.26.06-6.77,0-10.79ZM120.25,183.35c-.14,1.64-1.23,2.93-2.43,4.34-1.2,1.41-3.09.21-4.18-2.37-1.09-2.58-3.56-5.23-3.01-8.52.55-3.28.91-4.53,2.73-6.25,1.82-1.72,4-.39,5.09,0,1.09.39,2.36,2.48,2.36,2.48.18,2.36-.41,8.67-.55,10.31Z"/>
      <g>
        <path class="cls-7" d="M126.25,190.64c.04-4.05.18-8.3,6.6-9.61,6.42-1.31,58.7-9.91,63.34-7.3,4.64,2.61,9.22,28.09,9.08,31.51-.14,3.43,1.95,9.18-3.02,10.61-4.97,1.43-52.05,9.14-57.54,8.63-5.48-.51-13.12.66-13.75-3.84-.63-4.5-4.72-30.01-4.72-30.01Z"/>
        <path class="cls-1" d="M200.84,182.94c-4.54.24-39.77,5.1-48.01,5.48-8.24.38-26.29,4.74-26.29,4.74,0,0-2.13-8.6-1.23-10.7.9-2.1,12.98-6.25,24.28-7.32,11.3-1.07,31.72-4.75,38.04-4.39,6.32.36,9.08-.45,10.14,1.25,1.05,1.7,3.08,10.94,3.08,10.94Z"/>
        <path class="cls-8" d="M150.67,194.39c1.42-6.18,4.23-10.99,12.13-11.9,7.9-.91,16.2.04,19.02,7.15,2.82,7.11,6.35,18.21.54,24.51-5.81,6.29-15.78,6.25-21.3,2.74-3.5-1.73-14.57-4.31-10.38-22.5Z"/>
        <path class="cls-7" d="M172.17,187.96c6.17,1.37,7.47,12.51,7.67,16.77.21,4.26-2.85,7.47-7.29,8.55-4.44,1.08-11.2-.01-14.29-4.51-3.09-4.5-4.28-11.19-1.36-15.53,2.93-4.33,8.49-6.78,15.26-5.28Z"/>
        <path class="cls-1" d="M147.83,177.77s.78-8.62,2.09-9.4c.72-1.16,16.84-2.55,19.7-2.52,2.29,1.57,5.33,8.8,5.33,8.8l-27.11,3.13Z"/>
        <path class="cls-4" d="M182.94,181.53c-1.14-.85-1.08-6.04-.8-6.97s11.37-1.3,12.9-1.25c1.53.05,1.89,6.07,1.57,6.64-.31.57-10.9,2.24-13.67,1.58Z"/>
        <path class="cls-8" d="M143.1,196.05c-2.27-.22-2.05-3.58-.51-4.39,1.54-.81,3.56-.91,3.9.96.34,1.86-.43,3.73-3.4,3.44Z"/>
      </g>
      <path class="cls-3" d="M144.83,63.61c-15.45,9.69-26.21,5.99-34.74,7.14s-21.09,5.09-26.2,8.68c-5.1,3.6-17.94,12.91-30.83,6.75-4.49-5.01-5.2-17.09.51-22.29,5.72-5.2,19.03-15.99,35.49-14.78-4.76-4.5-9.34-10.55-6.68-11.77,2.66-1.22,4.13-5.11,6.97-1.07,2.84,4.04,7.91,11.58,7.91,11.58,10.66-4.82,15.94-13.26,23.86-13.62,7.92-.36,17.62,1.11,22.12,6.59,4.5,5.48,10.39,14.92,1.58,22.77Z"/>
      <path class="cls-2" d="M33.59,193.9c1.56,1.37,5.9,8.45,8.4,8.73,4.4,7.07,13.41,11.26,20.03,15.42,6.24,5.46,7.52,6.24,8.63,10.47,1.84,7.05-3,20.41-8.8,15.4-5.79-2.54-15.16-12.84-17.81-18.64-7.14-5.62-25.7-25.4-26.74-28.4-1.03-3-5.26-24.11-5.26-24.11-4.09-2.53-9.02-3.69-11.06-8.69-.96-4.68-2.24-10.77,1.79-15,3.57-2.16,8.46-7.31,12.88-2.93,4.43,4.83,8.35,8.95,5.02,16.72,0,0,8.48,20.58,9.51,24.24,1.03,3.67,3.4,6.78,3.4,6.78Z"/>
      <path class="cls-2" d="M140.92,330.65s.28,26.71,3.87,36.54c3.59,9.83,9.19,32.59,10.59,36.59,1.4,4,2.47,8.69,2.47,8.69,0,0-2.51,2.34-3.34,5.49-.83,3.15-1.32,5.98,6.53,7.84,7.85,1.86,16.36-6.8,17-11.04.64-4.23-1.6-11.13-3.12-11.22-1.52-.09-7.29.27-7.29.27,0,0-5.93-22.07-6.64-31.73-.71-9.65-2.59-18.31-2.59-18.31l-1.39-30.58-16.12,7.45Z"/>
      <path class="cls-2" d="M96.67,336.18c-1,1.79-5.54,22.43-8.06,29.43-2.52,7-4.85,16.93-7.56,20.99-2.71,4.05-7.32,13.17-7.32,13.17-2.68-3.84-7.84-1.03-8.62,2.28-.78,3.31-1.42,12.85,1.77,16.81,3.2,3.96,11.44,8.73,13.93,6.42,2.49-2.3,5.86-3.6,5.17-7.44-.69-3.84-4.23-10.15-4.23-10.15,0,0,9.79-13.36,14.35-21.41,4.56-8.06,6.48-20.3,8.8-25.57,2.32-5.27,8.18-26.17,8.18-26.17l-16.42,1.65Z"/>
      <g>
        <path class="cls-2" d="M192.08,224.4c-6.27-.14-7.17-6.09-5.74-9.21,1.43-3.12,2.87-8.85,9.08-10.29,6.21-1.43,11.95-1.91,14.34,2.39,2.39,4.3-.96,10.04,0,12.43,11.95,6.69,21.56,16.62,18.69,21.07-2.87,4.45-6.27,8.09-12.96,1.39-6.69-6.69-17.19-17.11-17.19-17.11,0,0,.04-.53-6.23-.68Z"/>
        <path class="cls-2" d="M168.61,228.74c7.28.76,25.69,7.96,33.93,6.82,8.23-1.14,13.16-4.93,15.06-2.28,1.9,2.65,14.33,4.26,9.4,9.57-4.93,5.31-4.81,5.98-14.33,5.6-20.58,2.65-40.75-5.1-40.75-5.1l-3.3-14.62Z"/>
      </g>
    </g>
  </g>
</svg>