<?xml version="1.0" encoding="UTF-8"?>
<svg xmlns="http://www.w3.org/2000/svg" xmlns:xlink="http://www.w3.org/1999/xlink" viewBox="0 0 282.98 386.32">
  <defs>
    <style>
      .cls-1, .cls-2 {
        fill: none;
      }

      .cls-2 {
        stroke: #929292;
        stroke-width: .99px;
      }

      .cls-3 {
        fill: #040000;
      }

      .cls-4 {
        isolation: isolate;
      }

      .cls-5 {
        mix-blend-mode: multiply;
      }

      .cls-6 {
        clip-path: url(#clippath-1);
      }

      .cls-7 {
        fill: #fff;
      }

      .cls-8 {
        fill: #e57f24;
      }

      .cls-9 {
        clip-path: url(#clippath);
      }
    </style>
    <clipPath id="clippath">
      <rect class="cls-1" x="121.13" y="48.76" width="7.74" height="26.77"/>
    </clipPath>
    <clipPath id="clippath-1">
      <rect class="cls-1" x="121.17" y="48.73" width="7.74" height="26.77"/>
    </clipPath>
  </defs>
  <g class="cls-4">
    <g id="_レイヤー_2" data-name="レイヤー 2">
      <g id="_レイヤー_1-2" data-name="レイヤー 1">
        <g>
          <g class="cls-5">
            <g class="cls-9">
              <g class="cls-6">
                <line class="cls-2" x1="125.04" y1="48.73" x2="125.04" y2="75.5"/>
              </g>
            </g>
          </g>
          <path class="cls-8" d="M85.2,8.63c-1.76,3.03-1.54,6.58-3.49,9.61-.12,10.3-2.99,19.7-2.49,30.22-4.68-9.38-10.45-18.81-22.11-21.69-5.77-2.47-11.12-1.91-16.79-4.82-2.49.1-6.44.8-7.34,4.04-2.68,7.16,3.92,12.75,6.58,18.92,2.49,3.03,3.33,7.36,6.77,9.29,5.51,2.03,11.19,3.58,16.44,6.03-6.25,10.96-14.06,21.27-23.71,31.03-3.49,6.8-8.29,13.2-10.33,20.46-1.19,7.38.07,14.78,2.16,21.4.81,6.47,3.59,12.29,8.17,17.34,2.28,5.71,10.45,8.27,7.27,16.12l.9.79-.9,38.73c-12.95,10.3-27.22,19.35-40.17,30.22-2.02,3.47-7.1,6.26-5.99,10.41,9.79,6.29,21.09,11.96,28.55,21.04,1.31,3.7-2.04,6.15-4.85,7.62-1.52.23-3.4.44-3.78,2.03.38,3.9,3.78,5.93,6.82,8.49,5.18-.21,10.9.8,14.75-2.46,4.54-6.5,6.15-14.56,4.66-22.94-8.86-7.73-21.64-8.85-31-16.59,8.27-10.62,21.07-14.64,31-23.38.17,14.34,1.5,28.19,2.19,42.3.83,9.06,4.32,16.91,10.4,23.87-1.31,4.26-5.35,8.05-9.91,9.28-1.69,1.12-1.61,3.26-.9,4.8,3.73,4.17,9.62,3.7,14.66,4.82,4.09-.57,7.22-3.47,10.78-5.24,1.47,6.6,7.81,11.06,6.98,18.6,1.19,2.09,1.07,4.78,2.52,6.8-.5,4.59,2.73,7.83,2.16,12.55,2.28,8.15,2.76,17.67,2.97,26.2-6.58,2.58-8.96,9.06-8.96,15.18,1.19,2.28.74,5.96,4.35,6.52,2.99-.42,7.01,1.25,8.96-1.54,4.56-.7,5.87-5.28,7.44-8.51-.14-3.26,2.4-8.5-2.21-10.55,2.07-7.49,1.38-16.09,2.21-24.16l.33-31.78,13.47-1.23c.69,17.34,1.99,35.47,2.16,53.61,4.39,4.38-2.3,10.05,2.97,14.11,1.28,4.58,6.72,6.61,10.33,9.31,3.97.19,7.32-.93,9.93-3.26,1.62-3.38,5.68-7.17,2.21-10.88-3.52-3.68-8.46-5.73-12.97-7.7.57-19.49,4.42-37.86,8.62-55.96,6.49-10.11,15.68-18.49,24.23-27.45,6.6-8.61,12.02-18.35,12.09-28.99.24-9.87.24-20.62-6.46-28.21.48-1.91-1.09-3.03-1.8-4.49,5.27.11,9-3.24,14.3-3.13,1.88-2,5.13-1.02,7.29-2.46,13.66-5.38,24.3-15.55,32.38-27.43l10.81-18.92c1.54-7.48-7.82-10.97-12.95-14.9-8.5-5.12-17.77-8.38-28.46-8.5-4.54,1.46-8.48,5.94-8.58,10.54-1.85,7.15,2.11,12.06,7.29,16.44,4.04,2.12,10.05,1.35,13.75-.77,2.66-2.15,3.11-8.4,8.2-6.05,3.23,1.44,3.92,4.72,5.23,7.26-5.61,19.37-28.27,27.43-46.56,31.47-5.23-.55-11.52,1.33-15.63-1.67-7.22-7.28-13.21-15.23-17.65-23.75,12.02-7.17,26.25-13.99,35.39-26.2,4.8-5.61,7.91-12.11,10.78-18.57,1.78-16.58.45-34.07-2.21-49.96l.43-.42c3.09,2.68,6.46,4.59,9.93,6.05,3.59,4.12,9.12,4.02,12.99,7.26,9.93.59,19.12-1.34,25.51-8.07,2.52-8.15-8.15-9.27-11.28-14.88-3.02.13-3.21-3.7-6.01-4.03-4.39-2.58-9.22-5.93-15.08-4.02-5.65,2.68-12.97,2.92-18.58,4.49v-.9c12.35-7.38,22.4-17.44,34.02-26.54,2.73-3.57,7.22-7.27,4.82-12.53-.88-2.82-3.35-4.61-6.1-6.03-8.39-.25-15.13,3.12-22.45,5.68l-2.97,2.03c-6.39-4.91-10.36-16.57-21.14-12.97-5.25.78-5.54,6.03-6.91,9.73.62,5.03.31,10.41,3.42,14.43-.69,2.03,1.57,2.88,1.69,4.49-4.7,2.77-8.88,10.96-16.82,7.27-9.22-3.59-19.41-4.71-29.84-5.73-.33-2.33-.81-4.82-1.16-7.17,9.79-3.58,20.48-6.8,27.1-15.76,1.33-2.25,1.78-5.35.93-8.05-2.99-6.94-11.26-3.47-17.25-4.38-3.71,2.26-9.26.23-12.61,3.12-3.21-4.35-1.69-12.41-9.5-14.43-7.6-2.35-12.57,3.26-16.39,8.08h0Z"/>
          <path class="cls-7" d="M92.14,25.98c-1.42,7.05-2.76,14.01-2.16,21.72l13.33-.47c-1.31-4.12-.95-9.61-.36-14.09,2.64-4.05,8.27-1.91,11.64-4.81,5.89.11,9.45-4.47,14.25-6.85-4.2.7-8.17,1.92-12.61,2.05-3.8,1.8-8.15,3.79-12.92,2.45-5.87-3.59-2.73-10.64-4.66-15.76-6.51,2.79-5.27,10.05-6.51,15.76h0Z"/>
          <path class="cls-7" d="M165.06,53.31c-1.54.89-2.04,1.67-3.52,2.92l8.34,3.12c3.37-3.38,7.53-6.26,12.09-8.06,2.87-3.35,7.91-5.28,10.33-9.63,3.97-2.12,8.12-5.48,10.81-8.85-7.15,2.05-13.4,5.61-20.31,8.4-6.72,2.26-6.11-5.03-10.43-7.17l-5.51-7.73c-3.85,9.29,13.66,20.49-1.81,27.01h0Z"/>
          <path class="cls-3" d="M229.41,102.87c-3.42,5.7-10.83,9.84-11.69,16.57l.95.8c6.27-3.03,9.74-9.97,16.32-12.11,4.06-2.79,7.91-6.03,12.09-8.5,1.33-1.35,1.33-4.15,0-5.61-1.57-1.59-4.18-2.56-6.44-1.58-3.82,2.37-8.43,6.64-11.24,10.43h0Z"/>
          <path class="cls-7" d="M45.98,102.55c-1.69,4.26-6.37,7.84-4.8,12.87-.97,6.94,6.03,10.41,10.78,13.34,5.63.76,10.19-.91,13.78-4.51,3.02-5.69,10.33-10.73,7.34-17.67-.29-4.26-2.04-9.06-6.84-10.52-7.93-3.91-15.7,1.37-20.26,6.5h0Z"/>
          <path class="cls-3" d="M54.63,106.58c.83,4.47-2.3,10.05,1.16,14.1,2.61,1.47,6.65,2.24,9.6.78,3.97-5.12,7.24-12.42,3.37-18.58-4.28-3.89-12-1.77-14.13,3.7h0Z"/>
          <path class="cls-7" d="M135.7,114.96c-6.86,6.63-10,16.72-6.01,25.42,2.4,1.46.33,4.82,3.8,5.29,5.44,1,10.95,0,15.61-1.67,7.91-5.18,9.83-13.44,9.95-22.19-1.64-4.81-4.39-9.52-9.43-11.64-5.3.47-10.69.23-13.92,4.8h0Z"/>
          <path class="cls-3" d="M139.15,124.25c-.09,3.49-2.54,6.84-.36,10.1.86,1.88-.24,4.8,2.57,5.59,3.47-.11,7.39.91,9.43-2.35,2.85-4.82,6.13-10.05,4.32-16.13-2.76-2.35-6.6-4.57-10.29-2.45-2.3.89-4.68,3.15-5.68,5.24h0Z"/>
          <path class="cls-3" d="M241.96,127.85c-2.49,3-6.84,3.68-8.15,7.26l.78.8c10.14-2.01,19.81-5.29,29.76-8.06,1.57-1.14,2.78-2.48,2.18-4.38-3.28-4.37-8.03-.32-12.14-.43-4.32,1.02-7.39,5.38-12.45,4.81h0Z"/>
          <path class="cls-7" d="M67.1,133.9c-.5,2.45-1.45,5.12-.5,7.7,2.99,3.72,3.94,8.29,8.6,11.32,6.15,6.01,16.72,5.38,24.75,3.56,5.63-2.56,14.06-4.58,15.49-11.64-1.35-6.35-6.96-11.52-10.81-16.55-5.42-4.23-13.21-5.52-20.31-3.6-5.87,2.61-12.68,4.28-17.22,9.21h0Z"/>
          <path class="cls-3" d="M86.06,132.32c0,2.79,2.71,3.91,4.77,5.59,3.83,0,6.75-1.02,8.17-4.37-.26-1.56,1.05-3.68-1.26-4.48-4.87,1.35-9.79-3.14-11.69,3.26h0Z"/>
          <path class="cls-3" d="M76.58,137.12c4.54,3.26,6.25,12.32,14.25,8.55,3.42-.57,6.03-2.71,9.12-4.06v-1.67c-4.2-1.02-7.53,1.91-11.78,2.03-.95-2.03-3.21-1.12-4.63-2.37-2.3-3.68-6.27-6.05-8.69-9.29-2.04,2.37,1.83,4.38,1.73,6.82h0Z"/>
          <path class="cls-3" d="M245.42,154.04l-2.16,2.9,2.54,1.59c11.14,0,23.61,1.77,34.99,0,2.52-.58,2.52-3.51,1.69-5.29-1.09-2-3.4-1.02-4.68-2.35-10.81,1.12-22.95-.89-32.38,3.15h0Z"/>
          <path class="cls-7" d="M58.4,186.71c3.49,2.39.5,7.31,2.71,10.1,1.14,14,4.47,27.19,6.82,40.74,4.54,9.41,4.7,20.49,10.78,29.33.83,10.18,7.34,18.58,14.75,25.87,4.44,1.44,9.03,2.79,14.13,2.79,12.4,2.12,21.62-4.71,32.04-8.08,12.21-11.76,18.46-25.84,22.9-40.74-.57-7.73.09-14.32-5.63-20.14-3.85-12.98-17.2-22.18-23.73-34.27-4.23-4.15-7.7-9.4-8.67-15.2l-1.31-2.05c-22.92-1-45.85-2.01-66.11-8.93-.81,6.5,1.62,13.52,1.31,20.57h0Z"/>
        </g>
      </g>
    </g>
  </g>
</svg>