<?xml version="1.0" encoding="UTF-8"?>
<svg id="_レイヤー_2" data-name="レイヤー 2" xmlns="http://www.w3.org/2000/svg" viewBox="0 0 272.88 411.6">
  <defs>
    <style>
      .cls-1 {
        fill: #fff;
      }

      .cls-2 {
        fill: #262424;
      }

      .cls-3 {
        fill: #cd7e3c;
      }

      .cls-4 {
        fill: #4678b5;
      }
    </style>
  </defs>
  <g id="_背景" data-name="背景">
    <g>
      <path class="cls-1" d="M188.62,313.25c1.6.91,2.06,2.97,2.06,5.02-3.88,3.2-8.91,3.42-13.93,3.88-3.88.91-5.71-2.97-4.11-6.16,3.2-5.25,11.19-6.16,15.98-2.74"/>
      <path class="cls-3" d="M272.63,55.84c-13.68-8.66-30.54-10.03-47.19-11.62-9.12,2.96-17.09,8.89-24.16,16.41-1.59,1.14-3.19.23-4.33-.91,11.17-11.85,21.2-25.3,33.05-37.38,1.6-2.51,2.97-5.01,2.51-8.43-.91-3.42-4.79-3.19-7.52-3.87l-29.4,8.89c-6.38-3.65-12.31-8.2-19.83-8.43-3.19,1.14-7.52,1.37-9.12,5.24-2.97,7.75-1.14,17.1,4.33,23.25-2.74,4.79-8.89,4.56-11.4,9.35-9.35,0-18.92-3.88-28.04-.46-5.02-2.05-3.42-7.75-7.07-10.94-1.37-5.93,6.38-6.61,9.57-9.8,2.05-5.24,11.17-9.8,5.7-15.73-11.62-7.52-26.9-1.82-38.98.46-4.33-4.56-10.48-9.35-16.87-11.4-4.1-1.37-7.98.68-11.4,2.05-10.71,15.73,2.96,30.77,8.43,44.45.46,3.87,7.29,5.7,4.79,10.49-7.98,0-12.77-7.07-19.38-10.03-18.24-9.34-31.91,8.89-49.24,10.03-2.74,1.14-5.47,3.87-5.24,7.06,9.12,8.21,19.37,18.92,32.6,18.01,11.4-2.74,23.48-3.65,33.28-10.48l.91.91c-8.89,14.36-24.84,24.39-27.12,41.26-.91,7.52-.46,15.73,4.33,21.2,9.35,11.4,15.5,24.84,25.98,36.01.69,5.47,8.44,8.66,7.3,14.36,1.82,7.98-.46,16.64-2.96,23.93-24.62-19.6-46.96-45.36-67.24-69.52,11.4-10.26,20.29-23.93,31.23-34.42,4.1-6.15-4.33-10.03-6.61-14.36,1.37-.91,3.19-1.37,2.51-3.65-6.61-5.93-16.41-1.37-23.25,1.37-5.47,3.65-7.07,8.89-6.15,15.04,2.05,3.42,3.19,7.52,7.06,9.57l-7.06,6.61C10.95,125.82-.44,129.01.01,138.35c9.12,11.17,17.32,22.79,27.58,33.51,8.66,16.64,25.53,28.26,35.78,43.99,6.15,6.61,9.34,12.99,16.64,17.55.68,13.9-5.02,25.3-2.28,39.43,0,16.64,12.99,28.04,21.65,41.03,1.14,16.64-3.88,32.14-4.1,47.87l13.68,12.76c1.82-1.14,3.42,1.6,5.24,2.51-1.6,4.1-2.74,9.34-7.75,12.76-7.07,4.56-6.38-7.07-12.31-9.12-3.65-.68-7.98-.68-10.71,2.05-1.83,4.1-5.93,7.98-3.88,13.22,3.19,5.93,7.75,10.94,14.13,12.76,5.7-1.59,11.62,3.19,17.09-.45,2.73-9.35,10.26-15.27,15.27-23.71,1.37.46,2.96.46,4.1,1.82-.23,4.1-2.74,7.29-4.1,10.94-.68,4.56-1.82,10.71,2.74,13.68,5.93,2.05,10.94-1.37,16.19-2.73,5.24-5.24,7.06-11.85,6.15-19.38-3.19-6.15-5.47-16.18-14.36-16.64-1.82.68-4.1,1.14-5.24-.91,8.21-14.13,17.09-29.18,30.32-39.89,6.61-.23,13.45.91,19.6-.91,7.06-1.82,11.17-8.89,13.68-15.04-2.28-3.88-7.98,0-9.12-5.24-1.6-7.52,2.96-13.91,5.7-20.51,1.14-2.74-.46-6.84,1.37-9.35-.46-10.49,2.96-19.37,2.51-29.86,10.94,8.21,22.11,18.46,33.51,25.53-2.51,1.37-5.7,1.37-8.43,2.05-10.48,1.82-20.06,9.8-24.62,18.92-.91,3.42-.91,7.75,1.82,10.26,5.01,6.15,12.31,2.51,18.46,1.6,8.66-2.05,5.7-11.17,7.52-17.1,6.15-3.19,12.76-5.7,20.51-5.24,2.73-1.14,5.24-4.1,4.1-7.52-10.71-15.27-23.48-26.9-36.24-41.26-12.77-9.8-17.1-23.71-27.13-35.1-1.6-5.7-2.51-11.62-4.79-16.87,8.66-5.93,15.27-13.45,24.16-18.01,9.8-12.31,28.94-22.11,27.58-40.35-3.87-14.13-10.03-27.35-12.31-42.17-.23-4.1-3.42-7.98-2.96-11.85,5.24.91,9.12,5.01,15.27,3.42,13.22-2.28,25.76-6.84,36.02-15.73,1.37-1.59,5.93-1.37,4.56-5.24M118.77,365.15c-3.88-1.14-5.24-4.79-6.61-8.21-1.14-9.12,3.42-15.73,6.61-23.02,1.59-2.51,5.01-2.28,7.29-1.6.46,12.08-4.1,22.11-7.29,32.82Z"/>
      <path class="cls-1" d="M103.27,24.61c5.01-1.82,10.26-3.42,15.04-6.15,2.05.68,3.19-.91,5.24-.46-.91,5.47-7.75,6.84-11.85,10.03-4.79,4.56-1.14,11.62.46,16.64.68.68,2.05,1.37,1.59,2.73-4.33.68-7.98,2.51-11.85,3.88-8.43-9.8-7.98-23.02-18.46-31.68-1.37-2.28.23-4.56.45-6.84,7.98,2.05,7.75,19.15,19.37,11.85"/>
      <path class="cls-1" d="M204.47,29.4c3.19-1.82,6.61-2.28,10.03-3.19-10.94,7.52-19.6,18.24-29.86,27.81-2.74,0-4.56-2.28-7.07-2.74,4.79-4.1,10.72-9.35,10.94-15.27-2.96-2.96-8.89-5.7-8.2-10.94,8.66.23,15.95,17.55,24.16,4.33"/>
      <path class="cls-1" d="M114.66,112.37c0,10.94-3.65,21.43-12.31,27.81-7.06,2.96-13.68.68-20.97,0-5.7-3.87-11.62-8.66-11.85-15.96-1.6-11.17,1.6-20.97,10.94-26.67,9.8-2.51,22.34-4.33,29.4,5.24l4.79,9.57"/>
      <path class="cls-1" d="M211.08,105.07c6.61,6.84,5.93,19.6,2.51,27.58-7.75,9.8-18.69,15.04-30.77,13.68-5.47-2.28-11.62-7.07-12.31-13.22-.45-10.49,1.14-21.2,9.34-28.95,7.3-6.61,18.24-3.19,27.13-2.28l4.1,3.19"/>
      <path class="cls-2" d="M99.85,107.58c4.56,5.01,3.42,14.82.91,20.29-1.37,2.28-2.74,3.87-5.02,4.79-6.84,2.96-11.17-2.74-15.73-6.61-1.6-6.38-2.96-13.45,2.28-18.46,5.24-3.19,12.54-4.79,17.55,0"/>
      <path class="cls-2" d="M207.43,115.1c.46,5.24,1.37,10.26-1.37,14.59-4.56,7.29-13.45,6.38-20.51,5.7-2.96-1.6-2.96-5.01-4.1-7.98.23-7.52,5.47-14.82,12.76-17.55,4.79.46,10.71.68,13.22,5.24"/>
      <path class="cls-1" d="M148.17,148.15c1.82,4.79,5.24,10.26,1.82,15.27-.68,3.87-5.7,5.24-7.06,8.43-7.98,3.88-17.1,2.74-25.99,2.96l-11.4-2.51-5.24-8.89c1.14-5.93,2.96-11.4,8.21-15.73,11.17-9.12,28.26-5.24,39.66.46"/>
      <path class="cls-2" d="M135.4,152.94c-3.42,3.19-7.98,3.65-12.76,3.42-3.19-1.37-2.05-4.79-.91-7.07,3.42-5.01,8.44-2.74,13.68-2.05v5.7"/>
      <path class="cls-2" d="M147.26,153.4c-.91,5.24-5.24,8.89-8.89,12.77-5.47,2.51-10.03,9.12-16.64,7.29-5.47-3.88-12.54-7.75-13.68-14.82-.68-2.05-.91-5.02,1.82-5.7,6.15-.23,9.12,6.15,13.68,9.12,7.75-.91,16.64-.68,20.29-9.57,1.37.23,2.73-.46,3.42.91"/>
      <path class="cls-1" d="M134.04,189.41c11.17.68,23.25-.91,34.42-.46,3.65,21.2,8.44,42.85,9.12,63.82,1.82,9.35,3.42,22.11-3.42,29.4v2.51c-12.54,11.4-22.34,30.77-40.57,30.77-13.22,5.47-21.65-6.38-30.32-14.82-12.31-15.04-21.88-33.51-17.09-53.34.46-20.51,5.7-41.03,11.85-60.18,11.62,2.73,23.7,2.28,36.01,2.28"/>
      <path class="cls-4" d="M193.45,51.12c.91,4.33,4.56,7.75,6.61,11.85,5.7,11.4,11.17,22.79,15.95,34.42-.45,1.37-.68,1.59-1.82,2.05h-1.37c-5.7-8.66-15.04-15.04-21.88-22.79-9.12,12.31-23.47,15.73-38.75,15.04-11.4-1.82-23.02-5.93-29.4-16.87-2.28-3.42-5.93-6.84-10.49-4.79-3.42,1.14-3.19,5.47-5.01,7.98-12.76,13.45-32.6,15.96-49.92,10.94-4.33,5.47-8.66,12.54-14.13,17.55-.91-.68-2.28-.68-2.28-1.82,3.19-24.62-7.75-56.76,20.28-67.7,17.55-4.79,38.98-3.42,50.6,11.62,5.93.91,13.45,1.6,17.1-4.1,10.03-12.08,26.9-14.82,41.71-10.48,8.43,3.42,19.38,7.29,22.79,17.09"/>
      <path class="cls-1" d="M184.79,47.25c5.24,7.29,8.2,17.1,2.96,25.07-8.66,11.85-21.65,14.59-35.56,14.36-10.71-2.28-23.93-6.15-27.12-18.46-3.19-3.87-7.75-5.93-12.77-4.33-7.75,2.96-8.2,13.45-16.41,17.09-13.45,4.79-32.14,9.57-44.68-.46-5.7-4.33-6.38-10.71-6.61-17.1.23-8.43,5.93-15.96,12.76-20.29,17.1-5.24,40.8-6.15,52.65,9.8,12.77,4.33,21.43-6.38,30.77-13.22,6.84-3.87,14.82-2.51,23.25-1.82,7.29,2.05,14.81,3.65,20.74,9.34"/>
      <path class="cls-4" d="M183.87,52.95c3.19,6.15.23,13.22-2.73,18.46-9.58,7.75-22.57,9.57-35.1,7.07-5.24-1.14-10.26-4.1-12.76-9.35-3.19-6.38-.91-13.9,3.19-18.92,7.75-11.63,22.34-8.89,34.19-7.07,5.7.91,9.8,4.79,13.22,9.8"/>
      <path class="cls-4" d="M97.26,49.76c2.51,4.1,5.01,8.89,3.87,14.13-3.42,9.34-13.91,15.04-22.79,17.55-6.38,1.14-13.22.23-18.46-2.96-6.84-5.01-9.8-13.22-7.98-21.65,2.96-10.94,15.05-12.31,24.62-13.68,7.75,0,15.27.68,20.74,6.61"/>
      <path class="cls-1" d="M176.81,50.21c1.59,2.28,3.19,5.01,1.82,7.98-1.37,1.6-4.1,1.14-5.7.46-.23-6.38-14.82-5.7-6.15-12.31,4.1-.91,7.29,1.14,10.03,3.88"/>
      <path class="cls-1" d="M92.47,52.95c1.14,2.05.23,4.1-.91,5.7-5.01,1.82-7.98-4.1-12.76-4.79-1.37-2.05.23-4.56,1.82-5.7,4.1-.23,10.03,0,11.85,4.79"/>
      <path class="cls-1" d="M194.82,73.92c-.69-2.96,1.37-5.93,1.37-9.12l10.03,19.83-11.4-10.71"/>
      <path class="cls-1" d="M52.36,87.14c-2.51,3.19-4.79,6.61-7.3,9.8l-.45-16.87,7.75,7.07"/>
    </g>
  </g>
</svg>