<?xml version="1.0" encoding="UTF-8"?>
<svg id="_レイヤー_2" data-name="レイヤー 2" xmlns="http://www.w3.org/2000/svg" viewBox="0 0 198.32 179.37">
  <defs>
    <style>
      .cls-1 {
        fill: none;
        stroke: #5b9843;
        stroke-linecap: round;
        stroke-linejoin: round;
        stroke-width: 3.06px;
      }
    </style>
  </defs>
  <g id="_背景" data-name="背景">
    <g>
      <path class="cls-1" d="M115.82,1.53H44.27c-2.29,0-4.14,1.85-4.14,4.14v45.74c0,2.29,1.85,4.14,4.14,4.14h5.86c.47,0,.85.38.85.85v14.08c0,1.22,1.43,1.89,2.37,1.11l18.48-15.34c.55-.45,1.24-.7,1.95-.7h42.05c2.29,0,4.14-1.85,4.14-4.14V5.67c0-2.29-1.85-4.14-4.14-4.14Z"/>
      <path class="cls-1" d="M135.03,14.26h15.59c2.29,0,4.14,1.85,4.14,4.14v45.74c0,2.29-1.85,4.14-4.14,4.14h-5.86c-.47,0-.85.38-.85.85v14.08c0,1.22-1.43,1.89-2.37,1.11l-18.48-15.34c-.55-.45-1.24-.7-1.95-.7h-36.93"/>
      <g>
        <line class="cls-1" x1="44.82" y1="173.6" x2="44.82" y2="150.8"/>
        <path class="cls-1" d="M1.53,177.84v-44.86c0-11.95,9.69-21.64,21.64-21.64,5.98,0,11.39,2.43,15.3,6.34,3.35,3.35,5.61,7.8,6.19,12.76"/>
        <path class="cls-1" d="M44.67,130.43h25.19c2.82,0,5.36,1.14,7.21,2.98,1.84,1.84,2.98,4.39,2.98,7.21,0,5.63-4.56,10.19-10.19,10.19h-30.73c-6,0-10.86-4.86-10.86-10.86v-6.11"/>
      </g>
      <line class="cls-1" x1="69.86" y1="150.8" x2="128.46" y2="150.8"/>
      <path class="cls-1" d="M10.76,104.78c-3.34-3.31-5.41-7.9-5.41-12.97,0-10.08,8.17-18.25,18.25-18.25s18.25,8.17,18.25,18.25c0,5.04-2.04,9.6-5.34,12.9"/>
      <g>
        <line class="cls-1" x1="153.5" y1="173.6" x2="153.5" y2="150.8"/>
        <path class="cls-1" d="M196.79,177.84v-44.86c0-11.95-9.69-21.64-21.64-21.64-5.98,0-11.39,2.43-15.3,6.34-3.35,3.35-5.61,7.8-6.19,12.76"/>
        <path class="cls-1" d="M153.66,130.43h-25.19c-2.82,0-5.36,1.14-7.21,2.98-1.84,1.84-2.98,4.39-2.98,7.21,0,5.63,4.56,10.19,10.19,10.19h30.73c6,0,10.86-4.86,10.86-10.86v-6.11"/>
      </g>
      <line class="cls-1" x1="140.1" y1="166.83" x2="58.22" y2="166.83"/>
      <path class="cls-1" d="M187.56,104.78c3.34-3.31,5.41-7.9,5.41-12.97,0-10.08-8.17-18.25-18.25-18.25s-18.25,8.17-18.25,18.25c0,5.04,2.04,9.6,5.34,12.9"/>
    </g>
  </g>
</svg>