<?xml version="1.0" encoding="UTF-8"?>
<svg id="_レイヤー_2" data-name="レイヤー 2" xmlns="http://www.w3.org/2000/svg" viewBox="0 0 147.77 152.03">
  <defs>
    <style>
      .cls-1 {
        fill: none;
        stroke: #5b9843;
        stroke-linecap: round;
        stroke-linejoin: round;
        stroke-width: 3.06px;
      }

      .cls-2 {
        fill: #5b9843;
      }
    </style>
  </defs>
  <g id="_背景" data-name="背景">
    <g>
      <g>
        <path class="cls-1" d="M14.05,12.11h0c-16.86,15.76-16.73,43.86.65,63.15l49.52,55c18.97,21.06,44.97,28.89,67.57,7.77,22.6-21.13,16.53-47.6-3.21-67.94l-51.55-53.1C58.93-1.63,30.9-3.65,14.05,12.11Z"/>
        <path class="cls-1" d="M24.6,23.4c-10.59,9.9-14.79,22.92-3.57,34.88l18.76,17.76c6.33,5.99,20.49,2.04,28.73-5.67,8.24-7.71,13.14-21.57,7.59-28.29l-16.46-19.91c-9.85-10.57-24.44-8.68-35.04,1.23Z"/>
        <path class="cls-1" d="M73.32,25.95c13.5,21.08,9.16,51.75-24.41,85.35"/>
        <path class="cls-1" d="M27.46,74.6s25.63,14.61,47.13-4.6"/>
        <path class="cls-1" d="M92.79,33.25c13.38,17.87,19.67,82.06-11.43,111.13"/>
        <path class="cls-1" d="M122.46,115.72c-.71,2.67-1.63,5.32-2.81,7.94"/>
        <path class="cls-1" d="M108.12,49.64s17.97,22.31,16.15,54.1"/>
        <g>
          <path class="cls-2" d="M43.31,57.27c1.18,1.26,1.11,3.23-.15,4.4-1.26,1.18-3.23,1.11-4.4-.15-1.18-1.26-1.11-3.23.15-4.4,1.26-1.18,3.23-1.11,4.4.15Z"/>
          <path class="cls-2" d="M61.69,40.09c1.18,1.26,1.11,3.23-.15,4.4-1.26,1.18-3.23,1.11-4.4-.15-1.18-1.26-1.11-3.23.15-4.4,1.26-1.18,3.23-1.11,4.4.15Z"/>
        </g>
        <path class="cls-2" d="M63.03,55.35c-.39,4.95-4.03,8.49-8.93,9.03-2.14.23-2.59-2.84-.46-3.22.28-.04.57,0,.82.09,1.54.59,3.38.02,4.53-1.15,1.17-1.15,1.76-2.98,1.24-4.55-.25-.76.15-1.58.91-1.83,1.02-.36,2.08.57,1.89,1.63h0Z"/>
      </g>
      <g>
        <path class="cls-2" d="M113.57,24.54h-3.88v-3.88c0-1.23-.99-2.22-2.22-2.22s-2.22.99-2.22,2.22v3.88h-3.88c-1.23,0-2.22.99-2.22,2.22s.99,2.22,2.22,2.22h3.88v3.88c0,1.23.99,2.22,2.22,2.22s2.22-.99,2.22-2.22v-3.88h3.88c1.23,0,2.22-.99,2.22-2.22s-.99-2.22-2.22-2.22Z"/>
        <path class="cls-2" d="M55.51,131.4h-2.85v-2.85c0-.9-.73-1.63-1.63-1.63s-1.63.73-1.63,1.63v2.85h-2.85c-.9,0-1.63.73-1.63,1.63s.73,1.63,1.63,1.63h2.85v2.85c0,.9.73,1.63,1.63,1.63s1.63-.73,1.63-1.63v-2.85h2.85c.9,0,1.63-.73,1.63-1.63s-.73-1.63-1.63-1.63Z"/>
        <path class="cls-2" d="M41.9,128.13h-1.81v-1.81c0-.57-.46-1.03-1.03-1.03s-1.03.46-1.03,1.03v1.81h-1.81c-.57,0-1.03.46-1.03,1.03s.46,1.03,1.03,1.03h1.81v1.81c0,.57.46,1.03,1.03,1.03s1.03-.46,1.03-1.03v-1.81h1.81c.57,0,1.03-.46,1.03-1.03s-.46-1.03-1.03-1.03Z"/>
        <path class="cls-2" d="M142.38,51.87h-3.1v-3.1c0-.98-.79-1.77-1.77-1.77s-1.77.79-1.77,1.77v3.1h-3.1c-.98,0-1.77.79-1.77,1.77s.79,1.77,1.77,1.77h3.1v3.1c0,.98.79,1.77,1.77,1.77s1.77-.79,1.77-1.77v-3.1h3.1c.98,0,1.77-.79,1.77-1.77s-.79-1.77-1.77-1.77Z"/>
        <path class="cls-2" d="M140.23,23.2h-1.97v-1.97c0-.62-.5-1.12-1.12-1.12s-1.12.5-1.12,1.12v1.97h-1.97c-.62,0-1.12.5-1.12,1.12s.5,1.12,1.12,1.12h1.97v1.97c0,.62.5,1.12,1.12,1.12s1.12-.5,1.12-1.12v-1.97h1.97c.62,0,1.12-.5,1.12-1.12s-.5-1.12-1.12-1.12Z"/>
        <path class="cls-2" d="M19.95,106.48h-4.23v-4.23c0-1.34-1.08-2.42-2.42-2.42s-2.42,1.08-2.42,2.42v4.23h-4.23c-1.34,0-2.42,1.08-2.42,2.42s1.08,2.42,2.42,2.42h4.23v4.23c0,1.34,1.08,2.42,2.42,2.42s2.42-1.08,2.42-2.42v-4.23h4.23c1.34,0,2.42-1.08,2.42-2.42s-1.08-2.42-2.42-2.42Z"/>
        <path class="cls-2" d="M103.51,7.55h-2.77v-2.77c0-.87-.71-1.58-1.58-1.58s-1.58.71-1.58,1.58v2.77h-2.77c-.87,0-1.58.71-1.58,1.58s.71,1.58,1.58,1.58h2.77v2.77c0,.87.71,1.58,1.58,1.58s1.58-.71,1.58-1.58v-2.77h2.77c.87,0,1.58-.71,1.58-1.58s-.71-1.58-1.58-1.58Z"/>
      </g>
    </g>
  </g>
</svg>