<?xml version="1.0" encoding="UTF-8"?>
<svg id="_レイヤー_2" data-name="レイヤー 2" xmlns="http://www.w3.org/2000/svg" viewBox="0 0 173.3 171.29">
  <defs>
    <style>
      .cls-1 {
        fill: none;
        stroke: #5b9843;
        stroke-linecap: round;
        stroke-linejoin: round;
        stroke-width: 3.06px;
      }
    </style>
  </defs>
  <g id="_背景" data-name="背景">
    <g>
      <g>
        <path class="cls-1" d="M32.56,48.12l-.41-.86c-1.02-2.13-1.66-4.44-1.72-6.8,0-.14,0-.28,0-.43,0-6.97,4.35-13.5,11.31-15.95l.54-2.1c.56-2.2,1.75-4.13,3.35-5.61,1.6-1.48,3.61-2.51,5.85-2.9,1.4-.24,2.8-.36,4.2-.36,4.87,0,9.65,1.45,13.73,4.22,6.23,4.23,10.02,10.97,10.62,18.17"/>
        <path class="cls-1" d="M36.64,56.78l.04,5.04c0,3.64,1.31,7.17,3.68,9.93l2.44,2.82"/>
        <path class="cls-1" d="M50.39,37.2c.67.38,1.38.72,2.11,1.02,2.79,1.11,5.85,1.41,8.82.86l5.23-.96c.4-.07.8-.11,1.19-.11,2.31,0,4.48,1.22,5.69,3.25.6,1.02.92,2.18.92,3.37v17.19c0,1.66-.27,3.3-.79,4.85"/>
        <line class="cls-1" x1="42.61" y1="27.69" x2="41.73" y2="24.09"/>
      </g>
      <g>
        <rect class="cls-1" x="1.53" y="123.48" width="167.51" height="20.94" rx="5.75" ry="5.75"/>
        <g>
          <line class="cls-1" x1="10.13" y1="169.76" x2="10.13" y2="151.56"/>
          <line class="cls-1" x1="160.44" y1="151.56" x2="160.44" y2="169.76"/>
        </g>
        <g>
          <line class="cls-1" x1="135.89" y1="144.42" x2="135.89" y2="169.04"/>
          <line class="cls-1" x1="34.68" y1="144.42" x2="34.68" y2="169.04"/>
        </g>
      </g>
      <polyline class="cls-1" points="23.48 101.23 21.47 74.57 88.97 74.57 87.42 100.36"/>
      <path class="cls-1" d="M21.34,120.28v-9.48c0-1.76,1.43-3.19,3.19-3.19h61.37c1.76,0,3.19,1.43,3.19,3.19v5.79"/>
      <path class="cls-1" d="M88.43,83.59l5.44,8.25c6.16,9.34,8.98,20.49,8,31.64h0"/>
      <path class="cls-1" d="M16.24,91.84c-6.16,9.34-8.98,20.49-8,31.64h0"/>
      <path class="cls-1" d="M171.77,52.52c-5.89,9.68-16.54,16.14-28.7,16.14-18.54,0-33.57-15.03-33.57-33.58S123.97,2.08,142.03,1.53c-6.54,5.49-10.7,13.73-10.7,22.94,0,16.54,13.41,29.95,29.94,29.95,3.69,0,7.23-.67,10.49-1.89Z"/>
    </g>
  </g>
</svg>