<?xml version="1.0" encoding="UTF-8"?>
<svg id="_レイヤー_2" data-name="レイヤー 2" xmlns="http://www.w3.org/2000/svg" viewBox="0 0 145.26 125.62">
  <defs>
    <style>
      .cls-1 {
        fill: none;
        stroke: #5b9843;
        stroke-linecap: round;
        stroke-linejoin: round;
        stroke-width: 3.06px;
      }
    </style>
  </defs>
  <g id="_背景" data-name="背景">
    <g>
      <g>
        <path class="cls-1" d="M91,71.97h32.16c7.64-.07,14.3-4.27,17.84-10.48,1.74-3.03,2.74-6.55,2.74-10.31v-18.58c0-4.63-3.75-8.37-8.38-8.37H9.91c-4.63,0-8.38,3.74-8.38,8.37v18.58c0,3.75,1,7.28,2.75,10.31,3.55,6.2,10.2,10.39,17.83,10.47h32.16"/>
        <path class="cls-1" d="M141,73.44v40.38c0,5.67-4.6,10.26-10.27,10.26H14.54c-5.67,0-10.26-4.59-10.26-10.26v-40.37"/>
        <path class="cls-1" d="M43.44,24.24v-12.95c0-5.39,4.37-9.76,9.76-9.76h38.86c5.39,0,9.76,4.37,9.76,9.76v12.95"/>
      </g>
      <path class="cls-1" d="M64.77,57.65h15.73c1.33,0,2.42,1.08,2.42,2.42v19.51c0,3.71-3.01,6.72-6.72,6.72h-7.13c-3.71,0-6.72-3.01-6.72-6.72v-19.51c0-1.33,1.08-2.42,2.42-2.42Z"/>
    </g>
  </g>
</svg>