<?xml version="1.0" encoding="UTF-8"?>
<svg id="_レイヤー_2" data-name="レイヤー 2" xmlns="http://www.w3.org/2000/svg" viewBox="0 0 137.33 160.87">
  <defs>
    <style>
      .cls-1 {
        fill: none;
        stroke: #5b9843;
        stroke-linecap: round;
        stroke-linejoin: round;
        stroke-width: 3.06px;
      }
    </style>
  </defs>
  <g id="_背景" data-name="背景">
    <g>
      <path class="cls-1" d="M49.95,11.29c2.34,8.2-1.56,29.77-2.34,31.33-.78,1.56-6.24-14.16-18.73-15.72-12.49-1.56-17.95,8.98-19.51,8.2-1.56-.78,1.17-25.37,8.98-33.56"/>
      <path class="cls-1" d="M45.71,40.41s-12.15,34.77-12.15,40.68c16,2.79,40.98,26.2,56.2,28.93,0,0,17.17,2.34,24.2,5.07,7.02,2.73,9.71,4.68,14.65,8.33,1.86,1.37.8,4.55-3.12,4.51-2.35-.03-5.73-1.69-10.11-4.26"/>
      <path class="cls-1" d="M102.25,140.33c7.02,10.03,23.63,18.13,21.51,8.76,0,0,9.36,2.7,9.37-.35,0-6.59-17.08-25.67-19.95-26.71"/>
      <path class="cls-1" d="M114.2,150.87c0,4.72-10.66.07-15.86-4.82-4.17-3.92-8.48-13.41-16.81-19.06-8.33-5.65-67.14-13.72-76.07-22.3-5.8-5.58-4.73-11.52.26-36.94,2.27-11.54,4.42-24.72,5.72-32.65"/>
      <path class="cls-1" d="M70.77,1.53c1.04,5.85,5.07,9.59,6.89,12.45,1.82,2.86,20.68,12.13,28.23,21.11,5.58,6.63,1.82,21.2-4.94,25.11"/>
      <path class="cls-1" d="M102.25,81.29c-5.9-.2-8.61-2.28-8.59-6.44,0-2.95,5.47-7.11,5.47-7.11-3.99,0-6.4-4.15-4.86-6.07,2.08-2.6,7.2-2.34,10.23.69,0,0,8.33,3.64,12.22,12.27,0,0,4.43,5.31,3.91,9.53-.27,2.2-4.23,2.3-8.12,2.45-5.35.19-10.02-2.17-10.26-5.32Z"/>
      <path class="cls-1" d="M53.46,2.2c11.71,19.93,37.69,30.2,36.21,20.43"/>
      <path class="cls-1" d="M117.68,86.72c12.92,10.68,22.29,27.87,16.23,50.24"/>
      <path class="cls-1" d="M33.56,114.58c1.95,13.34-10.15,38.99-11.32,44.75"/>
    </g>
  </g>
</svg>