<?xml version="1.0" encoding="UTF-8"?>
<svg id="_レイヤー_2" data-name="レイヤー 2" xmlns="http://www.w3.org/2000/svg" viewBox="0 0 232.04 144.78">
  <defs>
    <style>
      .cls-1 {
        fill: none;
        stroke: #5b9843;
        stroke-linecap: round;
        stroke-linejoin: round;
        stroke-width: 3.06px;
      }
    </style>
  </defs>
  <g id="_背景" data-name="背景">
    <g>
      <g>
        <path class="cls-1" d="M204.92,59.45c2.01.6,2.89,3.6,1.96,6.69s-3.31,5.1-5.32,4.5h0c-3.44,8.94-10.13,15.01-17.84,15.01s-14.41-6.07-17.85-15.01c-2.01.6-4.39-1.41-5.32-4.5s-.05-6.08,1.96-6.69"/>
        <path class="cls-1" d="M159.32,48.17c.22-1.01,3.9-16.76,17.43-20.12,7.23-1.8,15.54.37,20.66,5.81,1.46,1.55,2.41,3.1,3.01,4.25.11.05.31.17.57.36,4.35,3.04,6.78,8.28,6.44,13.71-.17,2.85-.67,7.28-.67,9.05"/>
        <path class="cls-1" d="M174.79,83.42v2.19c0,2.16-.69,4.24-1.92,5.95"/>
        <path class="cls-1" d="M194.57,91.57c.7.98,1.58,1.83,2.61,2.52h0c2.86,1.91,6.18,3.04,9.61,3.27l4.78.31c10.66.72,18.94,9.57,18.94,20.25v19.84"/>
        <path class="cls-1" d="M162.51,59.45c4.74-3,10.91-7.32,14.48-11.64,7.26,6.59,17.61,11.43,27.41,11.64"/>
      </g>
      <g>
        <path class="cls-1" d="M27.12,59.45c-2.01.6-2.89,3.6-1.96,6.69.93,3.09,3.31,5.1,5.32,4.5h0c3.44,8.94,10.14,15.01,17.84,15.01s14.41-6.07,17.85-15.01c2.01.6,4.39-1.41,5.32-4.5s.05-6.08-1.96-6.69"/>
        <path class="cls-1" d="M72.73,48.17c-.22-1.01-3.9-16.76-17.43-20.12-7.23-1.8-15.54.37-20.66,5.81-1.46,1.55-2.41,3.1-3.01,4.25-.11.05-.31.17-.57.36-4.35,3.04-6.78,8.28-6.44,13.71.17,2.85.67,7.28.67,9.05"/>
        <path class="cls-1" d="M59.18,91.56c-1.23-1.71-1.92-3.79-1.92-5.95v-2.19"/>
        <path class="cls-1" d="M37.47,91.56c-.7.98-1.58,1.83-2.61,2.52h0c-2.86,1.91-6.18,3.04-9.61,3.27l-4.78.31c-10.66.72-18.94,9.57-18.94,20.25v19.84"/>
        <path class="cls-1" d="M69.53,59.45c-4.74-3-10.91-7.32-14.48-11.64-7.26,6.59-17.61,11.43-27.41,11.64"/>
      </g>
      <g>
        <path class="cls-1" d="M88.29,44.48l-.51-1.06c-1.26-2.61-2.03-5.44-2.11-8.34,0-.18,0-.35,0-.53,0-8.55,5.33-16.57,13.87-19.57l.66-2.58c.69-2.7,2.14-5.07,4.11-6.88,1.96-1.82,4.44-3.08,7.18-3.56,1.72-.3,3.44-.45,5.16-.45,5.97,0,11.85,1.78,16.85,5.17,7.64,5.19,12.29,13.46,13.03,22.3"/>
        <path class="cls-1" d="M110.18,31.07c.83.47,1.69.89,2.59,1.25,3.44,1.36,7.19,1.73,10.82,1.06l6.42-1.18c.49-.09.98-.13,1.46-.13,2.83,0,5.51,1.49,6.98,3.98.74,1.25,1.13,2.68,1.13,4.13v.56s0,20.54,0,20.54c0,4.47-1.6,8.79-4.52,12.17l-4.47,5.19c-3.54,4.11-8.7,6.47-14.13,6.48h0c-5.43,0-10.58-2.36-14.13-6.47l-4.47-5.19c-2.92-3.38-4.52-7.7-4.52-12.17l-.05-6.19"/>
        <line class="cls-1" x1="100.62" y1="19.4" x2="99.55" y2="14.99"/>
        <path class="cls-1" d="M68.18,143.25l.94-30.13c.33-7.27,4.94-13.8,11.83-16.1.31-.1.63-.2.94-.28l14.56-4.04c.62-.17,1.19-.41,1.73-.71.99-.54,1.85-1.29,2.52-2.17l4.06-8.49"/>
        <path class="cls-1" d="M163.62,143.25l-.93-30.13c-.33-7.27-4.94-13.8-11.84-16.1-.31-.1-.62-.2-.93-.28l-9.38-2.61-5.18-1.43c-1.74-.48-3.21-1.52-4.25-2.88l-4.1-7.58"/>
        <path class="cls-1" d="M100.46,90.75c0,8.08,6.86,14.64,15.33,14.64s15.33-6.55,15.33-14.64"/>
        <g>
          <line class="cls-1" x1="90.98" y1="124.31" x2="90.98" y2="141.94"/>
          <line class="cls-1" x1="140.6" y1="124.31" x2="140.6" y2="141.94"/>
        </g>
      </g>
    </g>
  </g>
</svg>