<?xml version="1.0" encoding="UTF-8"?>
<svg id="_レイヤー_2" data-name="レイヤー 2" xmlns="http://www.w3.org/2000/svg" viewBox="0 0 11.77 16.41">
  <defs>
    <style>
      .cls-1 {
        fill: #f6de5c;
      }
    </style>
  </defs>
  <g id="_背景" data-name="背景">
    <path class="cls-1" d="M10.05,1.72c-1.11-1.11-2.59-1.72-4.16-1.72S2.84.61,1.72,1.72,0,4.31,0,5.89s.61,3.05,1.72,4.16c.2.2.42.39.64.55,1.55,1.16,2.64,2.83,3.05,4.72l.18.85c.07.32.52.32.59,0l.18-.85c.41-1.89,1.5-3.56,3.05-4.72.22-.17.44-.35.64-.55,1.11-1.11,1.72-2.59,1.72-4.16s-.61-3.05-1.72-4.16ZM7.12,7.12c-.33.33-.77.51-1.24.51s-.91-.18-1.24-.51c-.33-.33-.51-.77-.51-1.24s.18-.91.51-1.24c.33-.33.77-.51,1.24-.51s.91.18,1.24.51c.33.33.51.77.51,1.24s-.18.91-.51,1.24Z"/>
  </g>
</svg>