<?xml version="1.0" encoding="UTF-8"?>
<svg id="_レイヤー_2" data-name="レイヤー 2" xmlns="http://www.w3.org/2000/svg" viewBox="0 0 136.97 155.46">
  <defs>
    <style>
      .cls-1 {
        fill: none;
        stroke: #5b9843;
        stroke-linecap: round;
        stroke-linejoin: round;
        stroke-width: 3.06px;
      }
    </style>
  </defs>
  <g id="_背景" data-name="背景">
    <g>
      <g>
        <path class="cls-1" d="M10.66,64.2c-11.28,5.59-9.38,14.28-8.28,18.39,2.3,8.54,10.72,15.41,11.74,22.68,1.06,7.52-3.32,17.54-4.08,25.75-.76,8.21,2.95,20.73,14.77,22.89,0,0,11.39.48,26.96-3.16,15.57-3.64,25.57-9.11,25.57-9.11,9.64-7.17,7.42-20.04,3.1-27.07-4.32-7.03-12.68-14.06-15.06-21.28-2.3-6.97,2.2-16.86.49-25.53-.83-4.17-2.98-12.81-15.57-12.82"/>
        <line class="cls-1" x1="45.79" y1="43.28" x2="48.81" y2="54.1"/>
        <line class="cls-1" x1="34.39" y1="46.82" x2="37.41" y2="57.63"/>
        <line class="cls-1" x1="23.53" y1="49.7" x2="26.32" y2="60.35"/>
        <line class="cls-1" x1="13.35" y1="51.41" x2="16.38" y2="62.22"/>
        <path class="cls-1" d="M56.67,51.41s-5.95,4.99-24.15,9.25c-18.21,4.25-25.75,2.41-25.75,2.41l-2.29-9.79c-1.26-5.41,2.59-10.93,8.61-12.34l28.11-6.56c6.02-1.41,11.92,1.84,13.18,7.25l2.29,9.79Z"/>
        <path class="cls-1" d="M40.83,34.45c-2.56-.89-10.13-4.58-9.54-11.43.46-5.34.63-10.43-.5-14.13-1.36-4.49-5.01-8.62-11.93-7.01-6.31,1.47-7.54,6.79-6.92,11.05s3.48,9.16,6.13,13.18c5.09,7.72-1.59,12.54-3.49,14.47"/>
        <line class="cls-1" x1="40.13" y1="70.92" x2="54.11" y2="67.65"/>
        <path class="cls-1" d="M43.9,89.48c10.21,1.16,15.55-5.65,15.55-5.65"/>
        <line class="cls-1" x1="51.46" y1="119.44" x2="65.45" y2="116.17"/>
        <line class="cls-1" x1="55.34" y1="136.05" x2="69.33" y2="132.78"/>
        <line class="cls-1" x1="39.11" y1="105.27" x2="61.67" y2="100"/>
        <path class="cls-1" d="M13.35,97.33c4.56-6.59,13.43-12.67,24.07-9.12"/>
      </g>
      <g>
        <path class="cls-1" d="M114.52,54.09c7.63.33,13.47-1.52,16.83-4.11,5.38-4.15,6.79-14.9-4.19-17.01-11.54-2.21-13.46-1.9-20.08-4.31-6.62-2.41-7.89-3.89-18.14-9.63-9.76-5.46-15.6,3.68-14.15,10.32.91,4.15,4.19,9.32,10.24,13.98"/>
        <path class="cls-1" d="M87.08,83.54c-11.55-4.21-17.71-16.48-13.75-27.36,3.97-10.88,16.59-16.31,28.13-12.1,11.55,4.21,17.71,16.48,13.75,27.36-3.97,10.88-16.59,16.31-28.13,12.1ZM99.15,50.43c-6.74-2.46-14.12.71-16.43,7.07-2.32,6.35,1.29,13.53,8.03,15.98,6.74,2.46,14.12-.71,16.43-7.07,2.32-6.35-1.29-13.53-8.03-15.98Z"/>
        <path class="cls-1" d="M92.6,41.7c-.56-1.07-.71-2.14-.37-3.08,1.05-2.89,6.34-3.61,11.82-1.61,5.47,2,9.06,5.95,8.01,8.84-.33.9-1.08,1.6-2.11,2.06"/>
        <circle class="cls-1" cx="110.44" cy="19.45" r="9.69" transform="translate(64.19 121.61) rotate(-75.63)"/>
      </g>
    </g>
  </g>
</svg>