<?xml version="1.0" encoding="UTF-8"?>
<svg id="_レイヤー_2" data-name="レイヤー 2" xmlns="http://www.w3.org/2000/svg" viewBox="0 0 158.07 174.73">
  <defs>
    <style>
      .cls-1 {
        fill: none;
        stroke: #5b9843;
        stroke-linecap: round;
        stroke-linejoin: round;
        stroke-width: 3.47px;
      }
    </style>
  </defs>
  <g id="_背景" data-name="背景">
    <g>
      <g>
        <line class="cls-1" x1="79.03" y1="23.41" x2="79.03" y2="1.73"/>
        <g>
          <g>
            <path class="cls-1" d="M93.79,93.63c-12.77,8.15-29.72,4.41-37.88-8.35-8.15-12.77-4.41-29.72,8.35-37.88,12.77-8.15,29.72-4.41,37.88,8.35,8.15,12.77,4.41,29.72-8.35,37.88Z"/>
            <g>
              <g>
                <path class="cls-1" d="M84.78,64.76c0-3.18-2.57-5.75-5.75-5.75s-5.75,2.57-5.75,5.75,2.57,5.75,5.75,5.75"/>
                <path class="cls-1" d="M73.28,76.26c0,3.18,2.57,5.75,5.75,5.75s5.75-2.57,5.75-5.75-2.57-5.75-5.75-5.75"/>
              </g>
              <line class="cls-1" x1="79.03" y1="55.35" x2="79.03" y2="59.01"/>
              <line class="cls-1" x1="79.03" y1="82.01" x2="79.03" y2="85.67"/>
            </g>
          </g>
          <g>
            <path class="cls-1" d="M156.33,172.99v-5.81c0-3.76-3.05-6.81-6.81-6.81H8.54c-3.76,0-6.81,3.05-6.81,6.81v5.81h154.6Z"/>
            <path class="cls-1" d="M119.91,72.79h9.66c2.7,0,4.88,2.19,4.88,4.88v6.88"/>
            <path class="cls-1" d="M23.61,84.55v-6.88c0-2.7,2.18-4.88,4.88-4.88h9.58"/>
            <path class="cls-1" d="M117.17,85.1h19.77c4.11,0,7.44,3.33,7.44,7.44v57.75"/>
            <path class="cls-1" d="M13.69,150.28v-57.75c0-4.11,3.33-7.44,7.44-7.44h19.77"/>
            <path class="cls-1" d="M26.96,150.28v-25.08c0-7.7,6.24-13.93,13.93-13.93h0c7.7,0,13.93,6.24,13.93,13.93v25.08"/>
            <path class="cls-1" d="M65.1,150.28v-25.08c0-7.7,6.24-13.93,13.93-13.93h0c7.7,0,13.93,6.24,13.93,13.93v25.08"/>
            <path class="cls-1" d="M103.24,150.28v-25.08c0-7.7,6.24-13.93,13.93-13.93h0c7.7,0,13.93,6.24,13.93,13.93v25.08"/>
            <path class="cls-1" d="M30.46,72.25c0-26.83,21.75-48.57,48.57-48.57s48.57,21.75,48.57,48.57"/>
          </g>
        </g>
      </g>
      <g>
        <g>
          <path class="cls-1" d="M79.03,1.73h0c2.79,2.18,6.38,2.18,9.17,0h0v10.34"/>
          <path class="cls-1" d="M79.03,12.08h0c2.79,2.18,6.38,2.18,9.17,0h0"/>
        </g>
        <g>
          <path class="cls-1" d="M98.7,7.87v10.34h0c-2.79-2.18-6.38-2.18-9.17,0h0"/>
          <path class="cls-1" d="M98.7,7.87h0c-1.71-1.33-3.72-1.85-5.66-1.55"/>
        </g>
      </g>
    </g>
  </g>
</svg>