<?xml version="1.0" encoding="UTF-8"?>
<svg id="_レイヤー_2" data-name="レイヤー 2" xmlns="http://www.w3.org/2000/svg" viewBox="0 0 229.04 216.76">
  <defs>
    <style>
      .cls-1 {
        fill: #5b9843;
      }
    </style>
  </defs>
  <g id="_背景" data-name="背景">
    <g>
      <g>
        <path class="cls-1" d="M167.22,139.73l-6.11,1.02c-5.29.88-9.13,5.41-9.13,10.78v24.41c0,3.49,2.84,6.32,6.32,6.32,1.04,0,2.01-.27,2.88-.72v33.5c0,.95.77,1.72,1.72,1.72s1.72-.77,1.72-1.72v-59.81c0-.95-.77-1.72-1.72-1.72s-1.72.77-1.72,1.72v20.7c0,1.58-1.29,2.87-2.88,2.87s-2.87-1.29-2.87-2.87v-24.41c0-3.67,2.63-6.77,6.25-7.37l6.11-1.02c.94-.15,1.57-1.05,1.42-1.99-.16-.94-1.06-1.57-1.99-1.42ZM174.41,183.41c-.95,0-1.73.77-1.73,1.73v29.91c0,.95.77,1.72,1.73,1.72s1.72-.77,1.72-1.72v-29.91c0-.95-.77-1.73-1.72-1.73ZM174.41,138.56c4.75,0,8.62-3.87,8.62-8.63v-4.6c0-4.76-3.87-8.63-8.62-8.63s-8.63,3.87-8.63,8.63v4.6c0,4.76,3.86,8.63,8.63,8.63ZM169.23,125.34c0-2.86,2.32-5.17,5.18-5.17s5.17,2.32,5.17,5.17v4.6c0,2.85-2.32,5.18-5.17,5.18s-5.18-2.33-5.18-5.18v-4.6ZM174.41,144.31c-.95,0-1.73.77-1.73,1.73v13.8c0,.96.77,1.73,1.73,1.73s1.72-.77,1.72-1.73v-13.8c0-.95-.77-1.73-1.72-1.73ZM187.7,140.75l-6.11-1.02c-.92-.15-1.83.48-1.98,1.42-.16.94.48,1.83,1.42,1.99l6.11,1.02c3.62.6,6.24,3.7,6.24,7.37v24.41c0,1.58-1.28,2.87-2.87,2.87s-2.88-1.29-2.88-2.87v-20.7c0-.95-.77-1.72-1.72-1.72s-1.72.77-1.72,1.72v59.81c0,.95.77,1.72,1.72,1.72s1.72-.77,1.72-1.72v-33.5c.87.45,1.83.72,2.88.72,3.49,0,6.33-2.84,6.33-6.32v-24.41c0-5.36-3.84-9.89-9.13-10.78ZM135.02,139.73l-6.11,1.02c-5.29.88-9.13,5.41-9.13,10.78v24.41c0,3.49,2.84,6.32,6.33,6.32,1.04,0,2.01-.27,2.88-.72v28.9c0,.95.77,1.73,1.72,1.73s1.72-.77,1.72-1.73v-55.2c0-.95-.77-1.72-1.72-1.72s-1.72.77-1.72,1.72v20.7c0,1.58-1.29,2.87-2.88,2.87s-2.88-1.29-2.88-2.87v-24.41c0-3.67,2.62-6.77,6.25-7.37l6.11-1.02c.94-.15,1.57-1.05,1.42-1.99-.16-.94-1.05-1.57-1.99-1.42ZM142.2,183.41c-.95,0-1.72.77-1.72,1.73v25.3c0,.95.77,1.73,1.72,1.73s1.73-.77,1.73-1.73v-25.3c0-.95-.78-1.73-1.73-1.73ZM142.2,116.71c-4.76,0-8.63,3.87-8.63,8.63v4.6c0,4.76,3.87,8.63,8.63,8.63s8.62-3.87,8.62-8.63v-4.6c0-4.76-3.87-8.63-8.62-8.63ZM147.38,129.93c0,2.85-2.32,5.18-5.17,5.18s-5.18-2.33-5.18-5.18v-4.6c0-2.86,2.33-5.17,5.18-5.17s5.17,2.32,5.17,5.17v4.6ZM219.9,140.75l-6.11-1.02c-.92-.15-1.83.48-1.99,1.42-.15.94.48,1.83,1.42,1.99l6.11,1.02c3.62.6,6.24,3.7,6.24,7.37v24.41c0,1.58-1.29,2.87-2.87,2.87s-2.88-1.29-2.88-2.87v-20.7c0-.95-.77-1.72-1.72-1.72s-1.73.77-1.73,1.72v55.2c0,.95.78,1.73,1.73,1.73s1.72-.77,1.72-1.73v-28.9c.87.45,1.84.72,2.88.72,3.48,0,6.33-2.84,6.33-6.32v-24.41c0-5.36-3.84-9.89-9.13-10.78ZM206.61,183.41c-.95,0-1.73.77-1.73,1.73v25.3c0,.95.77,1.73,1.73,1.73s1.73-.77,1.73-1.73v-25.3c0-.95-.78-1.73-1.73-1.73ZM215.23,129.93v-4.6c0-4.76-3.87-8.63-8.62-8.63s-8.63,3.87-8.63,8.63v4.6c0,4.76,3.87,8.63,8.63,8.63s8.62-3.87,8.62-8.63ZM201.43,129.93v-4.6c0-2.86,2.32-5.17,5.18-5.17s5.17,2.32,5.17,5.17v4.6c0,2.85-2.32,5.18-5.17,5.18s-5.18-2.33-5.18-5.18Z"/>
        <path class="cls-1" d="M47.44,139.73l-6.11,1.02c-5.29.88-9.13,5.41-9.13,10.78v24.41c0,3.49,2.84,6.32,6.32,6.32,1.04,0,2.01-.27,2.88-.72v33.5c0,.95.77,1.72,1.72,1.72s1.72-.77,1.72-1.72v-59.81c0-.95-.77-1.72-1.72-1.72s-1.72.77-1.72,1.72v20.7c0,1.58-1.29,2.87-2.88,2.87s-2.87-1.29-2.87-2.87v-24.41c0-3.67,2.63-6.77,6.25-7.37l6.11-1.02c.94-.15,1.57-1.05,1.42-1.99-.16-.94-1.06-1.57-1.99-1.42ZM54.63,183.41c-.95,0-1.73.77-1.73,1.73v29.91c0,.95.77,1.72,1.73,1.72s1.72-.77,1.72-1.72v-29.91c0-.95-.77-1.73-1.72-1.73ZM54.63,138.56c4.75,0,8.62-3.87,8.62-8.63v-4.6c0-4.76-3.87-8.63-8.62-8.63s-8.63,3.87-8.63,8.63v4.6c0,4.76,3.86,8.63,8.63,8.63ZM49.45,125.34c0-2.86,2.32-5.17,5.18-5.17s5.17,2.32,5.17,5.17v4.6c0,2.85-2.32,5.18-5.17,5.18s-5.18-2.33-5.18-5.18v-4.6ZM54.63,144.31c-.95,0-1.73.77-1.73,1.73v13.8c0,.96.77,1.73,1.73,1.73s1.72-.77,1.72-1.73v-13.8c0-.95-.77-1.73-1.72-1.73ZM67.92,140.75l-6.11-1.02c-.92-.15-1.83.48-1.98,1.42-.16.94.48,1.83,1.42,1.99l6.11,1.02c3.62.6,6.24,3.7,6.24,7.37v24.41c0,1.58-1.28,2.87-2.87,2.87s-2.88-1.29-2.88-2.87v-20.7c0-.95-.77-1.72-1.72-1.72s-1.72.77-1.72,1.72v59.81c0,.95.77,1.72,1.72,1.72s1.72-.77,1.72-1.72v-33.5c.87.45,1.83.72,2.88.72,3.49,0,6.33-2.84,6.33-6.32v-24.41c0-5.36-3.84-9.89-9.13-10.78ZM15.24,139.73l-6.11,1.02c-5.29.88-9.13,5.41-9.13,10.78v24.41c0,3.49,2.84,6.32,6.33,6.32,1.04,0,2.01-.27,2.88-.72v28.9c0,.95.77,1.73,1.72,1.73s1.72-.77,1.72-1.73v-55.2c0-.95-.77-1.72-1.72-1.72s-1.72.77-1.72,1.72v20.7c0,1.58-1.29,2.87-2.88,2.87s-2.88-1.29-2.88-2.87v-24.41c0-3.67,2.62-6.77,6.25-7.37l6.11-1.02c.94-.15,1.57-1.05,1.42-1.99-.16-.94-1.05-1.57-1.99-1.42ZM22.43,183.41c-.95,0-1.72.77-1.72,1.73v25.3c0,.95.77,1.73,1.72,1.73s1.73-.77,1.73-1.73v-25.3c0-.95-.78-1.73-1.73-1.73ZM22.43,116.71c-4.76,0-8.63,3.87-8.63,8.63v4.6c0,4.76,3.87,8.63,8.63,8.63s8.62-3.87,8.62-8.63v-4.6c0-4.76-3.87-8.63-8.62-8.63ZM27.6,129.93c0,2.85-2.32,5.18-5.17,5.18s-5.18-2.33-5.18-5.18v-4.6c0-2.86,2.33-5.17,5.18-5.17s5.17,2.32,5.17,5.17v4.6ZM100.13,140.75l-6.11-1.02c-.92-.15-1.83.48-1.99,1.42-.15.94.48,1.83,1.42,1.99l6.11,1.02c3.62.6,6.24,3.7,6.24,7.37v24.41c0,1.58-1.29,2.87-2.87,2.87s-2.88-1.29-2.88-2.87v-20.7c0-.95-.77-1.72-1.72-1.72s-1.73.77-1.73,1.72v55.2c0,.95.78,1.73,1.73,1.73s1.72-.77,1.72-1.73v-28.9c.87.45,1.84.72,2.88.72,3.48,0,6.33-2.84,6.33-6.32v-24.41c0-5.36-3.84-9.89-9.13-10.78ZM86.83,183.41c-.95,0-1.73.77-1.73,1.73v25.3c0,.95.77,1.73,1.73,1.73s1.73-.77,1.73-1.73v-25.3c0-.95-.78-1.73-1.73-1.73ZM95.46,129.93v-4.6c0-4.76-3.87-8.63-8.62-8.63s-8.63,3.87-8.63,8.63v4.6c0,4.76,3.87,8.63,8.63,8.63s8.62-3.87,8.62-8.63ZM81.65,129.93v-4.6c0-2.86,2.32-5.17,5.18-5.17s5.17,2.32,5.17,5.17v4.6c0,2.85-2.32,5.18-5.17,5.18s-5.18-2.33-5.18-5.18Z"/>
      </g>
      <path class="cls-1" d="M107.33,23.03l-6.11,1.02c-5.29.88-9.13,5.41-9.13,10.78v24.41c0,3.49,2.84,6.32,6.32,6.32,1.04,0,2.01-.27,2.88-.72v33.5c0,.95.77,1.72,1.72,1.72s1.72-.77,1.72-1.72v-59.81c0-.95-.77-1.72-1.72-1.72s-1.72.77-1.72,1.72v20.7c0,1.58-1.29,2.87-2.88,2.87s-2.87-1.29-2.87-2.87v-24.41c0-3.67,2.63-6.77,6.25-7.37l6.11-1.02c.94-.15,1.57-1.05,1.42-1.99-.16-.94-1.06-1.57-1.99-1.42ZM114.52,66.7c-.95,0-1.73.77-1.73,1.73v29.91c0,.95.77,1.72,1.73,1.72s1.72-.77,1.72-1.72v-29.91c0-.95-.77-1.73-1.72-1.73ZM114.52,21.85c4.75,0,8.62-3.87,8.62-8.63v-4.6c0-4.76-3.87-8.63-8.62-8.63s-8.63,3.87-8.63,8.63v4.6c0,4.76,3.86,8.63,8.63,8.63ZM109.34,8.63c0-2.86,2.32-5.17,5.18-5.17s5.17,2.32,5.17,5.17v4.6c0,2.85-2.32,5.18-5.17,5.18s-5.18-2.33-5.18-5.18v-4.6ZM114.52,27.6c-.95,0-1.73.77-1.73,1.73v13.8c0,.96.77,1.73,1.73,1.73s1.72-.77,1.72-1.73v-13.8c0-.95-.77-1.73-1.72-1.73ZM127.81,24.05l-6.11-1.02c-.92-.15-1.83.48-1.98,1.42-.16.94.48,1.83,1.42,1.99l6.11,1.02c3.62.6,6.24,3.7,6.24,7.37v24.41c0,1.58-1.28,2.87-2.87,2.87s-2.88-1.29-2.88-2.87v-20.7c0-.95-.77-1.72-1.72-1.72s-1.72.77-1.72,1.72v59.81c0,.95.77,1.72,1.72,1.72s1.72-.77,1.72-1.72v-33.5c.87.45,1.83.72,2.88.72,3.49,0,6.33-2.84,6.33-6.32v-24.41c0-5.36-3.84-9.89-9.13-10.78ZM75.13,23.03l-6.11,1.02c-5.29.88-9.13,5.41-9.13,10.78v24.41c0,3.49,2.84,6.32,6.33,6.32,1.04,0,2.01-.27,2.88-.72v28.9c0,.95.77,1.73,1.72,1.73s1.72-.77,1.72-1.73v-55.2c0-.95-.77-1.72-1.72-1.72s-1.72.77-1.72,1.72v20.7c0,1.58-1.29,2.87-2.88,2.87s-2.88-1.29-2.88-2.87v-24.41c0-3.67,2.62-6.77,6.25-7.37l6.11-1.02c.94-.15,1.57-1.05,1.42-1.99-.16-.94-1.05-1.57-1.99-1.42ZM82.32,66.7c-.95,0-1.72.77-1.72,1.73v25.3c0,.95.77,1.73,1.72,1.73s1.73-.77,1.73-1.73v-25.3c0-.95-.78-1.73-1.73-1.73ZM82.32,0c-4.76,0-8.63,3.87-8.63,8.63v4.6c0,4.76,3.87,8.63,8.63,8.63s8.62-3.87,8.62-8.63v-4.6c0-4.76-3.87-8.63-8.62-8.63ZM87.49,13.23c0,2.85-2.32,5.18-5.17,5.18s-5.18-2.33-5.18-5.18v-4.6c0-2.86,2.33-5.17,5.18-5.17s5.17,2.32,5.17,5.17v4.6ZM160.02,24.05l-6.11-1.02c-.92-.15-1.83.48-1.99,1.42-.15.94.48,1.83,1.42,1.99l6.11,1.02c3.62.6,6.24,3.7,6.24,7.37v24.41c0,1.58-1.29,2.87-2.87,2.87s-2.88-1.29-2.88-2.87v-20.7c0-.95-.77-1.72-1.72-1.72s-1.73.77-1.73,1.72v55.2c0,.95.78,1.73,1.73,1.73s1.72-.77,1.72-1.73v-28.9c.87.45,1.84.72,2.88.72,3.48,0,6.33-2.84,6.33-6.32v-24.41c0-5.36-3.84-9.89-9.13-10.78ZM146.72,66.7c-.95,0-1.73.77-1.73,1.73v25.3c0,.95.77,1.73,1.73,1.73s1.73-.77,1.73-1.73v-25.3c0-.95-.78-1.73-1.73-1.73ZM155.34,13.23v-4.6c0-4.76-3.87-8.63-8.62-8.63s-8.63,3.87-8.63,8.63v4.6c0,4.76,3.87,8.63,8.63,8.63s8.62-3.87,8.62-8.63ZM141.54,13.23v-4.6c0-2.86,2.32-5.17,5.18-5.17s5.17,2.32,5.17,5.17v4.6c0,2.85-2.32,5.18-5.17,5.18s-5.18-2.33-5.18-5.18Z"/>
    </g>
  </g>
</svg>