<?xml version="1.0" encoding="UTF-8"?>
<svg id="_レイヤー_2" data-name="レイヤー 2" xmlns="http://www.w3.org/2000/svg" viewBox="0 0 141.19 164.36">
  <defs>
    <style>
      .cls-1 {
        fill: none;
        stroke: #5b9843;
        stroke-linecap: round;
        stroke-linejoin: round;
        stroke-width: 3.06px;
      }
    </style>
  </defs>
  <g id="_背景" data-name="背景">
    <g>
      <g>
        <g>
          <path class="cls-1" d="M42.45,59.75v7.92c0,9.02,3.58,17.66,9.95,24.04h0c4.1,4.1,9.66,6.41,15.45,6.41h2.6c10.16,0,19.76-5.32,24.59-14.26,2.66-4.92,4.08-10.47,4.08-16.16v-7.95"/>
          <path class="cls-1" d="M39.32,48.41c14.22-1.63,25.13-5.4,25.13-5.4,17.68-6.12,19.83-14.33,26.9-12.63,4,.97,9.45,5.07,13.52,21.21"/>
          <path class="cls-1" d="M109.22,67.33c3.38-3.08,4.57-6.13,5.02-7.58.8-2.58.72-4.74.56-8.78,0,0-.27-6.1-1.48-11.22-4.13-17.54-14.67-33.7-33.53-37.52-13.45-2.72-27.36,2.74-37.65,11.34-3.68,3.07-13.63,13.11-15.26,29.29-1.16,11.43,2.44,20.48,4.91,25.25"/>
          <path class="cls-1" d="M29.88,114.54c-5.42-9.75-4.68-21.76,1.86-30.76"/>
          <path class="cls-1" d="M107.65,83.78c6.48,8.9,7.27,20.79,2.01,30.48"/>
        </g>
        <path class="cls-1" d="M77.22,75.72c-2.01,1.22-4.37,1.92-6.9,1.92-2.33,0-4.53-.6-6.43-1.65"/>
        <path class="cls-1" d="M63.85,60.32c0,3.62-2.93,6.55-6.55,6.55s-6.55-2.93-6.55-6.55,2.93-3.68,6.55-3.68,6.55.06,6.55,3.68Z"/>
        <path class="cls-1" d="M90.81,60.32c0,3.62-2.93,6.55-6.55,6.55s-6.55-2.93-6.55-6.55,2.93-3.68,6.55-3.68,6.55.06,6.55,3.68Z"/>
        <path class="cls-1" d="M63.85,60.32h0c3.66-3.92,9.84-4.03,13.63-.23l.23.23"/>
        <line class="cls-1" x1="57.29" y1="56.64" x2="57.29" y2="52.72"/>
        <line class="cls-1" x1="84.26" y1="56.64" x2="84.26" y2="52.72"/>
      </g>
      <path class="cls-1" d="M139.66,162.54v-13.48c0-7.21-2.21-14.24-6.34-20.15-5.75-8.23-14.74-13.61-24.71-14.79l-16.24-1.75c-5.04-.54-8.98-4.6-9.37-9.65l-.43-5.58"/>
      <path class="cls-1" d="M1.53,162.54v-13.48c0-7.21,2.21-14.24,6.34-20.15,5.75-8.23,14.74-13.61,24.71-14.79l16.24-1.75c5.04-.54,8.98-4.6,9.37-9.65l.43-5.58"/>
      <path class="cls-1" d="M57.36,119.89c3.45,1.27,8.12,2.05,13.24,2.05s9.77-.78,13.23-2.05"/>
      <path class="cls-1" d="M53.96,162.83c-1.17-5.5-1.32-11.21-.42-16.75,1-6.11,3.25-11.98,4-18.12.31-2.53.31-5.18-.12-7.71-.57-3.5-1.96-6.78-4.45-9.21"/>
      <path class="cls-1" d="M87.23,162.82c1.17-5.5,1.32-11.21.41-16.75-.99-6.11-3.24-11.98-3.99-18.12-.34-2.77-.31-5.7.24-8.45.64-3.22,2.01-6.21,4.32-8.47"/>
    </g>
  </g>
</svg>