<?xml version="1.0" encoding="UTF-8"?>
<svg id="_レイヤー_2" data-name="レイヤー 2" xmlns="http://www.w3.org/2000/svg" viewBox="0 0 200.82 163.88">
  <defs>
    <style>
      .cls-1 {
        fill: none;
        stroke: #5b9843;
        stroke-linecap: round;
        stroke-linejoin: round;
        stroke-width: 3.06px;
      }
    </style>
  </defs>
  <g id="_背景" data-name="背景">
    <g>
      <g>
        <g>
          <path class="cls-1" d="M104.96,48.21c12.73-10.29,29.08-16.49,46.93-16.54,0,0,0,0,0,0,.08,0,.16,0,.24,0s.16,0,.24,0h0c17.84.05,34.19,6.26,46.93,16.54h0"/>
          <polyline class="cls-1" points="104.96 48.21 134.29 48.21 134.29 48.21 169.96 48.21 199.29 48.21 199.29 48.21"/>
          <path class="cls-1" d="M134.29,48.21c-1.36,1.79-2.63,3.64-3.82,5.54-1.15,1.84-3.15,2.99-5.32,2.99h-15.8c-2.43,0-4.4-1.97-4.4-4.4v-4.13"/>
          <path class="cls-1" d="M199.29,48.21v4.13c0,2.43-1.96,4.4-4.39,4.4h-15.81c-2.17,0-4.16-1.14-5.3-2.98-1.19-1.92-2.47-3.76-3.83-5.55"/>
          <path class="cls-1" d="M169.96,48.21v4.13c0,2.43-1.97,4.4-4.4,4.4h-26.88c-2.43,0-4.4-1.97-4.4-4.4v-4.12h0"/>
        </g>
        <line class="cls-1" x1="152.13" y1="57" x2="152.13" y2="87.73"/>
        <line class="cls-1" x1="152.13" y1="20.05" x2="152.13" y2="31.67"/>
      </g>
      <g>
        <path class="cls-1" d="M131.69,81.63c5.66,4.36,12.74,6.94,20.44,6.94s14.78-2.58,20.44-6.94"/>
        <g>
          <path class="cls-1" d="M121.92,124.38c2.81,5.76,7.22,10.59,12.66,13.93,2.22,1.35,4.6,2.46,7.11,3.29,3.29,1.08,6.8,1.66,10.46,1.66s7.15-.58,10.45-1.66c2.5-.82,4.9-1.94,7.1-3.29,5.44-3.34,9.85-8.17,12.66-13.93"/>
          <path class="cls-1" d="M121.92,124.37c19.52,6.22,39.68,5.99,60.41,0"/>
        </g>
        <g>
          <line class="cls-1" x1="131.69" y1="126.93" x2="131.69" y2="81.63"/>
          <line class="cls-1" x1="172.57" y1="126.77" x2="172.57" y2="81.63"/>
        </g>
        <g>
          <path class="cls-1" d="M177.94,161.89c-.59.31-1.23.46-1.85.46-1.4,0-2.74-.74-3.44-2.05l-10.07-18.7c2.51-.82,4.9-1.94,7.1-3.29l9.84,18.29c1.02,1.9.31,4.27-1.58,5.29Z"/>
          <path class="cls-1" d="M141.68,141.6l-10.07,18.7c-.7,1.31-2.04,2.05-3.44,2.05-.62,0-1.26-.15-1.85-.46-1.89-1.02-2.6-3.39-1.58-5.29l9.84-18.29"/>
        </g>
      </g>
      <g>
        <g>
          <line class="cls-1" x1="61.28" y1="13.67" x2="43.26" y2="13.67"/>
          <path class="cls-1" d="M34.72,13.67h-12.68c-4.65,0-8.41,3.76-8.41,8.41v94.01c0,4.65,3.76,8.41,8.41,8.41h87c4.65,0,8.41-3.76,8.41-8.41v-59.36"/>
          <path class="cls-1" d="M96.37,13.67h12.68c4.65,0,8.41,3.76,8.41,8.41v16.4"/>
          <g>
            <path class="cls-1" d="M104.16,86.1v20.66c0,2.46-2,4.46-4.46,4.46H31.36c-2.46,0-4.46-2-4.46-4.46v-41.33c0-2.46,2-4.46,4.46-4.46h68.34c2.46,0,4.46,2,4.46,4.46v20.67"/>
            <line class="cls-1" x1="26.93" y1="86.1" x2="104.2" y2="86.1"/>
            <g>
              <line class="cls-1" x1="52.36" y1="60.98" x2="52.36" y2="111.23"/>
              <line class="cls-1" x1="78.7" y1="60.98" x2="78.7" y2="111.23"/>
            </g>
          </g>
          <g>
            <path class="cls-1" d="M43.26,20.47c0,2.65-2.41,4.73-5.16,4.18-2.01-.41-3.38-2.28-3.38-4.33V5.95c0-2.05,1.37-3.92,3.38-4.33,2.75-.55,5.16,1.53,5.16,4.18v14.68Z"/>
            <path class="cls-1" d="M96.37,20.47c0,2.65-2.41,4.73-5.16,4.18-2.01-.41-3.38-2.28-3.38-4.33V5.95c0-2.05,1.37-3.92,3.38-4.33,2.75-.55,5.16,1.53,5.16,4.18v14.68Z"/>
            <path class="cls-1" d="M69.81,20.47c0,2.65-2.41,4.73-5.16,4.18-2.01-.41-3.38-2.28-3.38-4.33V5.95c0-2.05,1.37-3.92,3.38-4.33,2.75-.55,5.16,1.53,5.16,4.18v14.68Z"/>
          </g>
          <path class="cls-1" d="M94.65,48.14h-58.2c-.95,0-1.72-.97-1.72-2.16v-9.48c0-1.19.77-2.16,1.72-2.16h58.2c.95,0,1.72.97,1.72,2.16v9.48c0,1.19-.77,2.16-1.72,2.16Z"/>
        </g>
        <g>
          <line class="cls-1" x1="86.42" y1="68.36" x2="95.98" y2="77.92"/>
          <line class="cls-1" x1="95.98" y1="68.36" x2="86.42" y2="77.92"/>
        </g>
        <g>
          <line class="cls-1" x1="34.73" y1="93.59" x2="44.29" y2="103.15"/>
          <line class="cls-1" x1="44.29" y1="93.59" x2="34.73" y2="103.15"/>
        </g>
        <g>
          <line class="cls-1" x1="60.79" y1="93.59" x2="70.35" y2="103.15"/>
          <line class="cls-1" x1="70.35" y1="93.59" x2="60.79" y2="103.15"/>
        </g>
        <line class="cls-1" x1="87.83" y1="13.67" x2="69.81" y2="13.67"/>
      </g>
      <path class="cls-1" d="M13.63,37.33c-6.77.53-12.1,6.2-12.1,13.09v72.85c0,7.26,5.89,13.13,13.14,13.13h40.16v11.61h-13.63c-1.79,0-3.23,1.44-3.23,3.23v7.86c0,1.78,1.44,3.23,3.23,3.23h66.86c1.79,0,3.23-1.46,3.23-3.23v-7.86c0-1.79-1.44-3.23-3.23-3.23h-13.63v-11.6h29.06"/>
    </g>
  </g>
</svg>