<?xml version="1.0" encoding="UTF-8"?>
<svg id="_レイヤー_2" data-name="レイヤー 2" xmlns="http://www.w3.org/2000/svg" viewBox="0 0 218.39 395.11">
  <defs>
    <style>
      .cls-1 {
        fill: #fff;
      }

      .cls-2 {
        fill: #262424;
      }

      .cls-3 {
        fill: #d17d3d;
      }
    </style>
  </defs>
  <g id="_背景" data-name="背景">
    <g>
      <path class="cls-3" d="M181.73,263.4c-1.98,2.16.72,3.78,0,6.3-2.16,10.98-3.23,22.67-8.64,32.39-1.79,5.04-3.42,9.9-3.42,15.84-4.68,12.77-5.04,27.35-12.41,39.04-1.08,5.4-3.78,10.08-4.5,15.65-3.61,1.8,1.43,3.25.35,5.4,3.6,3.06,9,4.68,11.16,9.54-1.98,3.78-5.4,6.48-9.54,7.56-3.96-.18-6.84-2.88-11.16-2.52-3.23-1.08-4.31-3.96-5.04-7.02-.18-11.34,5.22-21.41,6.66-32.39-2.52-7.92-.55-19.97-11.16-21.95-10.97-1.79-21.58-1.25-29.87,5.76-2.16,10.97-12.77,19.07-22.13,24.1-4.5,3.42-10.98,3.24-14.93,7.92-1.27,4.14,1.62,10.26-4.15,12.78-6.11-1.09-8.27-7.2-10.79-12.05.54-5.58-1.44-11.34,3.42-14.58,9.89,3.96,14.04-7.2,19.97-12.41l3.24-4.86c.54-8.99.9-18.89-.36-27.53-1.08-1.62-3.42-.19-4.68-1.27-7.02-3.23-13.5-10.98-13.32-18.71,1.44-2.16,3.78-3.96,6.66-3.24,1.43,1.09,3.06,1.8,4.68,2.16-.9-4.5-2.57-7.47-4.01-12.51,0,0-2.76-5.51-2.76-29.22s3.89-29.34,3.89-29.34c4.14-7.92,4.86-17.81,4.86-26.99.54-.89,1.26-1.79,1.26-2.88-7.56-2.7-14.58-7.56-20.69-12.95-9.17-11.34-16.91-25.01-16.19-39.76-.19-17.09,9.18-31.49,12.77-47.32l-.72-.9c-3.6,2.88-8.27,2.88-11.34,7.56-11.51,2.16-22.31-2.34-34-2.52-1.8-1.98-3.59-2.7-4.86-5.04,0-7.02,7.38-8.45,11.16-12.95,8.27-4.86,15.47-14.76,27.7-9,2.52,1.26,5.4,2.52,7.92,1.98-7.92-9.18-18.17-16.92-24.11-27.71-2.33-4.68-.9-10.98,1.8-14.93,9-7.02,18.54,3.23,26.09,7.73,2.51-1.79,5.04-4.14,6.66-7.02,2.88-4.31,8.09-6.66,12.96-8.27,3.06.9,7.02,1.08,8.27,5.04-1.25,9.54-2.16,19.25-7.2,27.35.72,2.52,3.42,4.68,5.4,6.3,11.33-2.52,23.39-2.16,34.18-3.42,4.14-2.52,2.52-8.28,5.76-11.52-8.27-5.04-20.69-11.88-19.97-23.39.73-2.52,3.96-4.32,6.3-5.76,5.4.54,11.33.36,15.83,3.24,2.17-.36,3.78.89,5.77,1.26,3.95-6.65,6.48-17.81,16.54-16.19,2.16.36,3.6,2.34,5.4,3.42,2.34,7.91,2.7,16.01,1.25,24.47-.18,8.46-4.49,15.65-3.23,24.11,2.88-6.66,9.71-8.27,14.93-12.95,8.1-3.24,17.09,1.08,26.09.9,3.59,2.34,10.08-.18,11.7,5.4.54,7.56-9.18,5.94-11.7,11.69-3.78.9-6.65,4.32-9.54,6.48-5.58,2.52-11.88,5.94-18.71,3.42.89,4.31,4.85,8.46,6.66,12.77,2.88,10.08,10.79,19.79,12.41,30.41,1.98,1.79.19,3.41,1.27,5.39,2.52,10.8-.54,20.7-3.78,30.77-7.56,9.72-9.18,23.03-20.33,30.23,5.22,12.96,13.5,24.65,18.35,37.78,3.24,11.52,8.55,18.83,9.78,29.93.8,7.23.12,19.01.12,19.01"/>
      <path class="cls-1" d="M136.93,32.54c-1.62,6.48-2.16,13.86-2.51,20.33v1.26l-8.64-1.26c-1.62-5.76,5.04-13.67-.9-18.53-5.75-4.68-12.77-5.58-16.91-12.06,6.84,0,12.96,6.29,21.05,5.4,4.68-4.32,5.57-10.8,9.18-15.83.72,6.3.35,13.85-1.27,20.69"/>
      <path class="cls-1" d="M61,48.74c-2.16,5.22,3.42,7.74,5.4,10.43-2.7,1.62-5.58,2.34-7.92,5.04-10.25-10.08-19.79-17.63-26.62-29.87.53-.36.53-.9.53-1.27,2.88,1.62,6.48,3.25,8.28,5.77,5.22.54,7.74,7.56,14.04,5.4,5.04-4.32,6.48-9.36,11.69-13.32-.9,5.58-3.23,12.24-5.4,17.81"/>
      <path class="cls-1" d="M165.18,109.92l4.14,9.9c-1.08,8.64-3.23,19.26-12.41,22.49-6.84.54-15.11-1.43-18.36-7.91-1.97-6.84-4.68-15.83-2.52-23.21,2.71-3.42,6.48-7.73,11.34-7.56,3.25-2.88,7.2-.18,10.25.9v.36l7.56,5.04"/>
      <path class="cls-2" d="M161.4,117.69c2.16,5.04-.19,10.26-3.06,14.22-.72.18-1.44-.18-1.98-.89-2.34,3.41-6.11.54-9.18.89-4.67-3.24-4.49-7.74-5.39-12.95,0-3.6,1.44-6.3,4.14-8.64,5.75-.36,12.78,1.62,15.48,7.37"/>
      <path class="cls-1" d="M75.57,121.07c7.92,7.74,7.74,18.89,3.24,28.6-2.88,2.52-6.12,5.4-9.54,5.4-6.3,1.62-11.52-3.78-14.94-8.64-3.06-6.47-6.66-13.13-3.42-19.97,3.42-3.42,4.69-8.09,10.08-9.18,4.86,0,11.34-.54,14.58,3.78"/>
      <path class="cls-2" d="M74.1,127.12c2.52,4.32,5.93,9.54,3.41,14.93-1.62,3.06-4.68,3.6-7.2,5.04-3.96-1.8-8.64-.9-9.9-6.3-1.79-2.88-3.06-6.84-2.52-10.26.19-2.88,3.42-3.6,5.04-5.4,4.14-1.44,7.74.72,11.16,1.98"/>
      <path class="cls-1" d="M136.03,153.46c0,6.48-5.75,11.16-10.79,14.93-8.27,4.86-19.61,4.86-28.61,1.62-2.7-3.06-7.2-3.59-7.38-8.28-1.8-5.93,2.7-10.07,4.14-15.29,5.75-1.97,7.2-8.27,13.67-9.53,4.86-1.98,9.9,1.08,14.58,2.34,5.04,4.32,12.78,7.19,14.39,14.21"/>
      <path class="cls-2" d="M118.22,142.67c1.25,3.77-1.44,7.56-4.86,9.18-4.5.72-7.2-2.34-8.81-5.94-.54-1.62.89-2.7.36-4.49,2.16-.54,2.16-3.78,4.68-3.24,3.42.18,6.84,1.08,8.63,4.5"/>
      <path class="cls-2" d="M104.91,156.34c3.77,2.16,7.2,5.76,12.06,3.78,2.33-2.34,3.59-6.84,7.2-6.66-.73,3.6-3.23,7.38-4.69,11.16-2.7,5.22-9.16.9-13.31.54-4.68-1.08-5.22-5.4-8.27-8.45-1.27-2.16-2.7-5.22-.36-7.74,1.08-1.26,1.98.54,3.24,0l4.14,7.38"/>
      <path class="cls-1" d="M86.18,271.53c-2.43-11.87-.63-15.62-1.53-24.09-.64-9.96.6-19.89,1.7-28.71,3.78-11.69,4.35-19.93,6.51-31.99,9.89-.54,17.08-4.31,26.62-3.77,9.18-1.98,17.82-1.26,26.64-3.78.53,2.52,3.95,5.04,3.23,7.92,4.14,9.72,10.08,18.54,12.96,28.61,5.39,8.28,7.91,18.17,10.79,26.98-2.16,2.17-1.26,4.5-.9,7.02.36,5.22,1.44,11.52-.72,16.2l.72,5.04c-2.7,9-2.7,19.07-7.91,26.99-2.17,7.92-5.04,15.65-10.26,22.49-10.25,3.42-21.06-3.06-32.39-.9-9.9-3.96-20.15-7.56-27.53-16.56-4.14-6.84-8.48-10.38-7.94-19.2v-12.25"/>
      <path class="cls-3" d="M215.04,138.18c-.62-.41-1.4-1.07-1.62-2.05-.22-.95.23-1.54,1.11-3.54,1.47-3.37,1.55-4.82,1.55-5.53,0-.89-.02-2-.76-2.53-.88-.62-2.24-.05-2.56.09-2.03.86-2.41,2.66-4.2,5.53-.67,1.06-.41.48-4.65,5.75-1.75,2.17-3.18,4-4.2,5.31-1.18,1.68-2.36,3.37-3.54,5.09-1.12,1.63-2.23,3.25-3.32,4.87-.99,1.21-2.07,2.68-3.1,4.43-1.19,2.01-2.04,3.9-2.66,5.53-1.4,1.97-2.81,3.96-4.22,5.99-1.75,2.52-3.46,5.02-5.13,7.51-1.45,1.92-3.11,3.99-5.02,6.14-1.22,1.37-3.45,3.81-6.48,6.65-2.42,2.27-5.52,4.95-9.32,7.74,3.13,2.98,6.25,5.95,9.38,8.93.49-.39,12.42-10,17.64-14.38,2.93-2.46,4.85-5.59,5.7-9.06,3.17-1.88,1.86-6.02,5.18-7.7,2.1-5.92,4.93-11.57,7.49-17.36,1.68,0,5.73-.26,9.79-2.95,3.02-2,4.71-4.47,5.53-5.89.22-.4,1.2-2.3.56-4.67-.7-2.57-2.79-3.72-3.14-3.91Z"/>
      <path class="cls-3" d="M78.27,221.79c-.76,1.3-3.55,6.05-7.52,12.17-2.19,3.37-4.84,7.34-7.97,11.73-1.17,1.97-2.99,4.55-5.69,7.1-2.52,2.39-5.01,3.99-6.95,5.04-2.62,1.94-5.08,3.86-7.58,5.73-.34.77-.67,1.53-1.01,2.3-1.78,1.8-4.01,3.79-6.74,5.8-3.09,2.27-6.1,4.02-8.75,5.36-1.95-.18-3.37-1.47-4.23-2.83-2.45-3.83,6.42-5.72.31-7.95-2.4.17-4.13-.89-5.86-1.95-1.75-2.35-1.46-5.54-.65-8.16,5.36-3.64,12.57-2.73,19.19-1.26,2.39-1.03,4.94-2.23,7.6-3.66,2.32-1.25,4.46-2.51,6.42-3.76,1.4-1.62,2.8-3.25,4.2-4.87,1.4-1.62,2.8-3.23,4.2-4.84,2.58-3.72,5.17-7.49,7.75-11.31,4.98-7.37,9.77-14.68,14.38-21.91,1.64,2.15,3.28,4.29,4.92,6.44-1.57,2.97-3.59,6.65-6.03,10.82Z"/>
    </g>
  </g>
</svg>