<?xml version="1.0" encoding="UTF-8"?>
<svg id="_レイヤー_2" data-name="レイヤー 2" xmlns="http://www.w3.org/2000/svg" viewBox="0 0 213.99 380.83">
  <defs>
    <style>
      .cls-1 {
        fill: #d7822d;
      }

      .cls-2 {
        fill: #fff;
      }

      .cls-3 {
        fill: #272c6e;
      }
    </style>
  </defs>
  <g id="_背景" data-name="背景">
    <g>
      <g>
        <path class="cls-1" d="M213.75,67.39c-5.65-9.55-17.33-11.14-26-16.27-8.67-3.01-15.21,3.18-21.93,4.95,2.12-2.65,2.48-5.84,5.66-7.96-.18-2.65,2.12-4.42,4.07-6.19,2.48-5.13,6.54-9.9,7.43-15.92-.71-6.01,3.89-15.74-4.07-18.93-7.6-.53-14.5,3.54-21.04,6.55-.53,3.18-3.72,4.07-6.19,5.3l-17.69-10.61c-4.42-1.06-8.31,1.77-11.49,4.95-1.6,10.08,5.83,16.45,8.84,24.58,2.48,4.07-3.89,7.6-5.66,11.5-12.38-2.3-34.84,8.13-37.84-8.84l13.09-12.38c1.41-6.01,8.13-11.85,3.18-18.39-7.96-4.95-17.33-.53-25.11,1.24-1.77.53-2.65,3.54-4.95,3.18-4.42-4.78-9.2-10.43-14.5-13.79-3.72-.71-8.14-.36-11.5.88-9.2,7.96-1.24,20.69-1.77,30.95,3.36,6.9,5.84,14.5,7.61,21.58-8.32-5.13-15.92-11.85-26.53-10.97-8.84,3.89-19.28,4.42-26.88,11.5-.88,2.48-.53,5.48,1.42,7.43,9.2,3.71,16.98,10.43,26.88,12.73,4.07,1.95,9.9,0,13.97,1.77-.35,10.08-5.83,17.86-6.54,27.76-6.72,10.08-5.66,24.94-4.42,36.61l7.96,12.73c3.18,8.13,9.02,13.97,13.62,21.58,3.36,7.78,17.33,9.38,11.5,20.34,4.95,4.25,10.08,8.14,15.38,11.5,27.59,23.17,56.95,46.16,83.83,70.57,1.94,1.06,2.65,4.42,5.3,4.78-.71-2.65.71-4.42,2.12-6.19.86-2.52,2.05-3.65,3.43-4.02-2.95-6.72-5.54-13.56-6.61-20.84l-7.44-27.5c-2.83-10.96-9.02-21.58-6.54-33.6,9.73-10.08,20.87-20.34,24.23-33.43,5.66-5.84,4.07-15.21,4.42-22.46-3-5.48.53-12.02-3.18-17.33-4.42-11.5-7.96-23.52-13.09-34.66.88-1.41,2.3-3.89,4.42-3.54,11.67,13.44,26-.89,38.2-3.18,2.83-1.24,5.49-4.07,4.42-7.96Z"/>
        <path class="cls-2" d="M77.57,26.89c3.71-2.65,7.6-5.13,12.38-5.3-2.83,9.9-19.28,6.9-18.04,19.46.88,2.83,4.77,4.42,4.42,7.96-2.65,2.3-3.54,4.78-7.61,3.89-1.77-2.12-2.12-4.78-2.65-7.43-6.72-9.37-10.61-20.16-10.08-31.83,8.66,2.65,11.14,18.75,21.58,13.26Z"/>
        <path class="cls-2" d="M171.48,24.77c-8.84,9.2-12.73,20.34-21.93,29.53-2.48.35-5.48-.53-7.61-2.3,1.24-4.42,6.55-7.6,4.95-12.73-4.07-4.25-6.72-9.2-7.96-14.5,6.37.53,9.37,14.5,16.63,7.43,4.42-5.13,10.79-7.78,15.56-11.85,1.59.53.53,2.83.35,4.42Z"/>
        <path class="cls-2" d="M86.94,114.61c2.3,6.19,6.37,15.39.35,21.22-2.83,8.31-11.85,11.32-18.57,15.39-7.78,1.77-13.97-2.83-20.16-6.19l-6.72-9.2c-4.07-9.73-1.77-21.04,5.84-28.3,11.85-7.96,31.13-6.72,39.26,7.08Z"/>
        <path class="cls-2" d="M171.13,116.38c5.13,6.19,6.9,16.1,3.53,23.88-3,5.48-4.07,12.2-11.14,14.5-7.43,3.36-17.69,3.54-24.23-1.77-4.78-2.65-5.84-8.13-9.73-10.97-3.71-9.9,1.06-19.46,2.65-28.65,6.9-7.08,18.04-5.66,27.41-5.84l11.5,8.84Z"/>
        <path d="M74.67,123.02c.58,2.82-.14,6.03-1.48,9.17-4.65,10.88-13.31,6.58-17.09-2.34-3.72-8.79,3.26-18.23,13.22-13.27,3.21,1.6,4.82,3.85,5.35,6.43Z"/>
        <path d="M158.67,123.76c.48.55.9,1.18,1.26,1.9,3.55,7.06-2.98,20.8-11.94,17.39-8.59-3.27-12.73-19.3-1.58-22.11,4.29-1.08,9.31-.59,12.26,2.82Z"/>
        <path class="cls-2" d="M130.09,160.95c.71,4.42,4.6,9.02,1.24,13.62-6.72,10.97-18.75,13.62-30.42,11.5-6.55-4.07-17.33-6.72-17.51-16.27,1.59-7.96,3.71-18.21,13.08-19.98,8.14-4.07,19.28-2.3,26,3.54,1.94,3.18,6.36,3.71,7.6,7.6Z"/>
        <path d="M113.29,151.58c2.48,2.12,1.95,5.83,1.42,8.49-2.48,4.95-7.96,3.36-12.03,3.01-2.48-2.12-5.3-5.13-3.54-8.84,1.95-1.77,2.83-4.95,5.84-5.3,3.18-.18,6.19,0,8.31,2.65Z"/>
        <path d="M109.76,171.38c1.77-.71,3-3.18,5.3-2.48.71.88,2.48,1.41,1.77,3.01-4.07,3.89-8.84,7.07-14.5,5.3-2.3-2.48-7.6-3.36-6.72-7.96,3.71-3.18,6.37,1.95,9.38,3.01l4.78-.89Z"/>
        <path class="cls-2" d="M136.29,190.84l4.42,1.77c3.72,10.43,6.9,21.93,7.43,33.07,3.36,4.24,2.65,10.08,3.89,15.03,2.48,7.78,5.3,15.56,6.72,23.7-24.58-22.11-51.12-40.32-75.34-62.08-2.83-1.06-5.66-3.36-7.08-5.66.35-2.65,1.77-4.95,3.89-6.72,18.57,1.77,36.79.53,56.07.88Z"/>
        <path class="cls-1" d="M167.06,297.13l-17.51-14.15c-32.9-21.04-61.02-51.82-93.03-73.57-5.48,13.44-7.08,28.47-12.38,41.91-.27.05-.6.14-.95.22-1.18,5.89-2.33,11.78-3.41,17.68.29-.23.57-.47.83-.75,2.3,17.86,6.19,35.72,17.15,49.7l.53-.35c2.3,2.48,5.66,2.48,8.31,4.78,2.83.71,5.65,1.24,8.31,2.3.53,12.03,3,22.11,2.65,33.96-1.06,2.3-3.36,4.78-5.66,5.66-.53,3.89-1.06,8.84.35,12.38,1.24,3.89,5.84,3.36,9.38,3.89,4.42-.89,8.49-2.83,11.85-6.54,2.65-4.42.71-8.49-1.77-12.38l.89-35.2c1.77-3.71,6.72-.53,10.08-.88,6.72,1.41,15.21.88,21.58.35,1.24,3.18-.35,7.25,1.41,10.26-1.77,10.79,8.14,20.16.88,29.89-1.06,4.24-.53,9.02,2.12,12.38,2.83,2.65,7.08,2.12,11.14,2.12,2.48-1.77,6.01-3.71,7.43-7.08,1.06-3.18.18-6.9-2.65-9.2-2.3-13.62-1.77-27.59,1.42-40.5,6.19-1.94,12.73-4.95,16.63-10.61-.35-6.19,5.13-9.9,4.42-16.27Z"/>
        <path class="cls-2" d="M115.06,264.06c12.73,11.14,26.71,19.1,39.62,29.53.88,2.48-1.42,4.6-3.01,6.54l-.53-.35c-1.24,1.77-3.54,2.12-5.13,1.24-.89-3.18-3.72-6.37-6.72-7.96-5.66-.35-11.67-1.77-15.03,4.07-2.12,3.01-4.95,5.83-4.25,10.08l-21.22.89c.35-2.48-2.48-4.24-.88-6.54-2.48-6.37-9.02-8.13-15.03-8.49-3.18,1.77-6.72,3.18-9.2,6.72-9.38-3.71-18.92-10.97-20.34-21.58,1.06-5.48-2.12-11.49.88-15.56,2.12-12.91,6.9-24.93,12.38-36.43v-1.77c16.8,11.67,32.54,26,48.46,39.61Z"/>
      </g>
      <path class="cls-3" d="M168.41,203.54l-3.54-3.89c-19.81-27.94-58.72-26.35-87.54-18.57-18.93,4.24-34.31,23.17-38.91,41.03-1.95,13.44,3.36,26,11.85,36.08,17.33,18.75,41.39,24.58,66.68,22.11,19.28-3.36,39.44-8.49,51.47-25.64,7.96-14.85,9.9-36.61,0-51.11ZM67.96,215.38c-4.6,1.24-8.31-4.24-12.38-.35-1.77,1.59-2.83,4.24-1.77,6.54,4.42,5.66,12.03,3.18,16.8,7.6,12.2,7.25,16.27,20.16,20.69,31.66,2.12,3.54,5.84,7.25,9.73,7.96-18.04.53-36.44-9.73-46.69-26.53-5.84-5.84-3.72-13.97-3.54-21.93,6.72-21.05,29.53-29.71,49.87-31.3,22.11-.71,46.69-.35,58.19,22.46,1.59,3.54,3.36,6.9,3.89,10.96-3.36-8.13-9.55-1.06-15.39-2.65-26,0-55.18,4.95-79.41-4.42ZM142.42,260.84c-9.9,4.78-21.4,6.19-32.54,7.96,18.75-6.01,13.97-31.48,33.96-35.2,7.08-2.12,17.86,3.36,19.46-7.6-1.06,14.15-5.66,30.07-20.87,34.84Z"/>
      <path class="cls-1" d="M186.87,273.25c2.48-1.24,5.84-2.12,6.72-5.3.17-10.79-6.01-20.16-10.61-29.54l1.24-6.19c.53-3.71-2.3-6.72-5.31-8.67-2.65-1.41-7.07-1.41-9.55,0-2.3,1.59-5.66,4.25-4.95,7.78.18,4.24,2.83,8.13,6.19,10.26-1.41,3-.71,7.07-2.12,10.08l-.17-.63c1.07,7.28,3.65,14.12,6.61,20.84,3.47-.93,8.16,2.88,11.95,1.37Z"/>
      <path class="cls-1" d="M40.61,250.79l.88-8.31c2.12-2.3-1.06-8.67,4.42-7.6,1.59-1.42,3.89-3.54,3.89-6.19-1.41-4.6-5.3-8.13-10.08-9.2-3.54-1.59-6.9.89-8.84,3.18-1.42,2.83-1.06,5.66,0,8.67-3.89,9.37-8.49,18.39-9.73,28.65,1.95,4.24,4.6,9.9,9.73,10.61,3.01.95,6.44.61,8.9-1.38,1.08-5.89,2.24-11.79,3.41-17.68-1.02.25-2.2.43-2.59-.75Z"/>
    </g>
  </g>
</svg>