<?xml version="1.0" encoding="UTF-8"?>
<svg id="_レイヤー_2" data-name="レイヤー 2" xmlns="http://www.w3.org/2000/svg" viewBox="0 0 371.37 497.8">
  <defs>
    <style>
      .cls-1 {
        fill: none;
      }

      .cls-2 {
        fill: #fff;
      }

      .cls-3 {
        fill: #262424;
      }

      .cls-4 {
        fill: #8a699e;
      }

      .cls-5 {
        fill: #d17d3d;
      }
    </style>
  </defs>
  <g id="_背景" data-name="背景">
    <g>
      <g>
        <path class="cls-2" d="M209.07,267.32c2.3,1.84,2.77,5.06,1.84,7.59-.69.23-.69,1.15-.69,1.61,2.3,0,5.75,0,7.82,2.3,1.61,3.22,3.91,7.13,2.07,11.04-.92,2.53-2.07,5.29-4.83,6.67-5.52,1.15-8.51-3.22-13.35-3.91-2.07,4.37.23,11.04-5.98,13.11-2.99-.68-7.13-1.61-7.13-5.52.46-3.91,2.3-11.5-3.91-11.96-2.53-.92-6.9,0-7.13-3.91,0-3.91-.69-8.51,2.76-11.05,4.14.46,8.28.92,11.5,3.91,5.75-2.3,2.3-9.89,7.82-12.19,3.45,0,6.9,0,9.2,2.3"/>
        <path class="cls-4" d="M207,271c1.39,5.98-12.19,6.44-3.91,11.04,4.37,1.15,11.27-4.83,12.65,1.84.23,2.99.23,6.21-2.07,8.28-4.6-1.84-9.43-4.6-14.49-3.45-4.14,2.99-.23,11.04-5.52,12.19-1.15-6.21,1.38-16.1-7.59-17.02h-3.91v-5.52c4.6-1.84,8.51,5.52,13.34,2.07,3.45-3.22,4.6-7.13,5.52-11.5,2.08.23,4.6-.23,5.98,2.07"/>
        <path class="cls-5" d="M210.96,381.12c17.71-17.25,15.43-29.93,22.83-65.26l1.15-23.23c0-21.78-4.59-59.14-4.59-59.14,0-3.61,1.83-13.56,1.83-13.56l6.67-7.82c12.88-18.63,25.08-37.95,37.96-56.13,2.07-11.96-.69-23-6.21-32.67-8.05-10.35-16.8-21.39-25.3-31.97l1.15-1.15c1.15.69,1.84,1.39,3.22,1.15,8.51,6.9,19.55,7.13,29.21,10.58,18.63,5.98,31.74-10.58,44.17-20.47.69-3.68-2.53-5.98-4.84-7.82-19.09-2.76-34.73-19.09-55.2-13.57-8.74,4.15-16.33,13.12-26.46,12.66-.46-3.45,1.38-5.75,3.91-7.82,5.98-17.71,25.53-35.42,11.96-55.67-11.96-7.59-24.38,2.76-32.43,11.04-14.73-2.3-33.59-10.35-46.93.46-1.15,1.84-1.15,4.37,0,6.21,4.37,8.97,13.11,13.57,19.33,20.24-3.91,4.83-2.53,14.49-11.05,14.95-9.89-4.14-20.01.92-30.36.69-2.99-5.75-10.12-5.52-13.12-11.04,1.15-3.68,4.14-6.44,5.52-9.89,1.38-6.9,2.77-17.02-4.37-21.16-3.45-.23-6.67-3.91-9.89-.92-7.82.46-13.8,5.06-20.47,8.74l-30.36-9.89c-4.14-1.84-8.05.7-11.5,2.08-.7,2.76-1.39,6.67.46,8.97,14.03,15.18,27.15,31.05,40.25,46.24-.69,1.61-2.53,1.15-3.91,1.61-8.97-8.28-18.17-16.1-29.22-19.78-14.49,2.3-31.05,1.15-43.01,9.43,8.05,11.96,22.31,18.17,35.43,23,5.98.69,12.42.69,18.17,2.3-4.37,20.7-10.81,40.49-17.71,60.04-5.52,21.85,18.63,32.43,29.21,47.38,10.12,5.53,17.71,13.35,27.15,20.47-1.38,5.52-1.61,11.27-6.21,15.41-10.58,6.44-20.47,14.26-32.9,16.11-3.68-8.98-12.65-15.41-17.25-23.7-13.8-14.95-14.26-40.25-36.35-46.92-5.29-.7-10.58-3.68-15.87-1.15-3.91,1.15-5.52,5.29-6.67,8.74-2.07,8.05.23,15.87,6.67,20.47,6.21,6.9,15.42.92,23.01,1.15,12.65,23,23.69,46.93,38.18,69.46,10.81,2.53,18.86-7.59,28.53-7.82v1.61c-7.36,21.85-11.5,47.16-7.13,71.77,0,0,11.14,24.47,24.71,33.97,13.56,9.49,38.42,13.11,46.11,13.11s35.4-4.05,42.54-11.49"/>
        <path class="cls-2" d="M226.66,51.79l-8.28,14.26-13.8-5.06c2.53-5.98,6.9-12.19,4.37-19.78-5.29-4.83-12.88-6.67-16.56-13.11,11.04-.69,19.78,7.13,30.82,8.29,4.6.68,6.21-4.6,8.28-7.36l7.82-7.59c4.83,12.42-13.8,17.94-12.66,30.36"/>
        <path class="cls-2" d="M126.83,35.68c1.15,7.82-11.05,9.2-9.43,16.56,3.91,4.6,7.59,10.12,12.65,13.8-3.68.23-7.82,7.13-11.04.46-10.58-10.81-20.47-20.7-31.98-29.67,7.13,1.38,13.57,3.91,18.87,9.43,9.2,1.85,11.73-11.95,20.94-10.58"/>
        <path class="cls-2" d="M252.42,128.85c5.06,8.51,5.06,23.46,0,31.98-5.98,8.74-15.87,10.58-25.76,11.04-9.43.23-16.33-7.82-19.78-15.42-5.98-8.74-3.91-22.31,2.07-30.36,4.6-3.45,8.97-7.37,14.26-8.74,11.27.46,23.46-.69,29.21,11.5"/>
        <path class="cls-3" d="M251.96,130c3.91,5.29-.46,11.04-.46,16.56-2.76,3.91-4.83,9.66-10.12,11.04-5.52,2.07-10.12-1.38-14.72-3.45-5.06-2.99-5.52-8.28-6.67-13.11.68-6.67,4.6-12.88,9.89-17.02,7.13-5.53,18.4-2.77,22.08,5.98"/>
        <path class="cls-2" d="M134.65,136.67c3.68,11.04,7.13,26.22-1.15,36.34-8.97,6.22-22.32,4.84-31.52,0-6.67-5.29-16.56-10.81-16.56-20.47-.23-11.04,1.15-22.77,11.73-28.07,13.35-3.45,30.83-2.53,37.5,12.19"/>
        <path class="cls-3" d="M129.13,135.97c3.45,4.37,4.6,10.36,3.22,16.11-2.3,3.45-3.92,8.74-8.74,9.89-6.9,2.08-15.41,1.61-20.47-4.37-6.67-4.37-3.45-14.49-2.76-20.47,2.53-5.98,8.74-8.05,14.26-9.43,5.98,0,10.35,3.91,14.49,8.28"/>
        <path class="cls-2" d="M194.69,185.67l3.22,10.58c-1.61,14.49-16.57,12.66-27.6,14.26-10.58-.92-25.08-.46-29.67-12.66-2.99-5.98-2.08-12.88,1.61-18.17,10.12-4.83,22.31-10.58,35.19-6.67,6.67,2.07,13.57,5.98,17.25,12.66"/>
        <path class="cls-3" d="M174.21,181.75c1.61,2.99,0,5.29-2.76,6.67-5.98.92-11.5-.92-14.95-5.06-2.3-6.21,3.91-5.52,7.36-7.13,3.22.69,9.2.46,10.35,5.52"/>
        <path class="cls-3" d="M164.78,198.32c6.9,0,12.65-2.99,17.71-7.13,1.38.23,2.99.7,3.22,2.3-3.45,5.98-10.35,8.74-17.02,9.89-6.21-.92-13.57-2.08-16.56-8.28-.23-1.61.23-3.45,1.61-3.92,4.14,1.61,5.98,6.91,11.05,7.13"/>
        <path class="cls-2" d="M211.71,223.16c-.92,2.3,2.06,2.76,2.3,4.37,5.29,28.52,9.89,59.11,8.74,88.33-10.12,23.85-10.38,42.82-32.96,53.36-11.73,8.51-32.14-3.22-43.18-6.67-21.85-10.35-31.51-34.5-29.21-58.43,7.82-26.91,12.65-54.97,23.69-80.51,23.23,2.53,48.54,2.99,70.62-.46"/>
        <path class="cls-5" d="M262.54,244.7c21.39-20.15,34.3-30.03,54.69-51.66,15.18,3.49,32.59,1.74,44.76-7.46.99-3.98,3-8.7.51-12.68-1.99-7.72-10.7-5.72-16.67-6.97-3.48-1-2.98-4.48-.51-6.22,1.99-3.23,1.01-7.97-1.23-10.94-2.49-1.99-5.97-2.98-9.2-1.74-24.13,30.59-45.47,50.44-75.06,78.54l-36.19,5.16,2.36,22.06,36.54-8.07"/>
        <path class="cls-5" d="M156.19,383.98c-8.13,22.69-4.42,49.94-12.3,72.87-2.58,11.05,6.25,28.39-10.21,34.22-3.47.36-7.97.03-11.5-1.33-5.81-2.53-5.05-8.78-4.47-13.53,1.81-5.04,4.87-9.88,9.73-13.05,3.48-27.5-3.16-58.58-2.41-86.24l31.16,7.06"/>
        <path class="cls-5" d="M214.23,359.57c5.66,3.04.42,20.42-3.37,52.01-2.61,21.76-3.27,39.76-3.41,51.82-.09,1.19-.18,2.37-.27,3.56.37,1.82,1.07,6.56-1.32,11.56-1.16,2.42-2.66,4.12-3.82,5.22-2.01,1.97-3.81,3.41-5.17,4.42-1.18.87-2.12,1.48-3.44,1.78-1.22.28-2.19.16-3.1.04-2.61-.34-4.93-.65-7.16-.97-3.49-2.65-4.34-5.38-4.61-6.58-1.2-5.5,3-10.96,5.77-14.55.88-1.15,1.69-2.05,2.29-2.67.29-13.51.35-27.47.14-41.86-.22-14.46-.7-28.48-1.4-42.03,18.4-20.9,25.67-23.45,28.87-21.73Z"/>
      </g>
      <rect class="cls-1" x="0" width="371.37" height="497.8"/>
    </g>
  </g>
</svg>