<?xml version="1.0" encoding="UTF-8"?>
<svg id="_レイヤー_2" data-name="レイヤー 2" xmlns="http://www.w3.org/2000/svg" viewBox="0 0 809.73 993.16">
  <defs>
    <style>
      .cls-1, .cls-2 {
        fill: none;
      }

      .cls-2 {
        stroke: #5b9843;
        stroke-miterlimit: 10;
        stroke-width: 2px;
      }

      .cls-3 {
        fill: #5b9843;
      }
    </style>
  </defs>
  <g id="_背景" data-name="背景">
    <g>
      <g>
        <line class="cls-2" x1="157.2" y1="14.58" x2="157.2" y2="982.37"/>
        <g>
          <path d="M0,18.72C0,11.07,2.79,6.97,7.33,6.97s7.3,4.13,7.3,11.75-2.75,11.91-7.3,11.91S0,26.37,0,18.72ZM11.78,18.72c0-6.69-1.79-9.41-4.45-9.41s-4.48,2.72-4.48,9.41,1.79,9.57,4.48,9.57,4.45-2.88,4.45-9.57Z"/>
          <path d="M17.63,24.38c0-2.98,2.18-5.03,4.32-6.18v-.13c-1.7-1.15-3.17-2.85-3.17-5.28,0-3.49,2.79-5.83,6.43-5.83,4,0,6.44,2.5,6.44,6.05,0,2.4-1.76,4.45-3.14,5.51v.16c2.02,1.22,3.97,2.82,3.97,5.86,0,3.43-2.95,6.08-7.36,6.08s-7.49-2.62-7.49-6.24ZM29.7,24.48c0-2.98-2.88-4.04-6.21-5.35-1.86,1.19-3.2,2.88-3.2,5,0,2.5,2.08,4.32,4.9,4.32s4.51-1.63,4.51-3.97ZM29.16,13.18c0-2.24-1.44-4.04-3.97-4.04-2.18,0-3.75,1.44-3.75,3.65,0,2.75,2.53,3.9,5.28,4.99,1.57-1.41,2.43-2.91,2.43-4.61Z"/>
          <path d="M36.29,15.52c0-1.34.96-2.27,2.11-2.27s2.11.93,2.11,2.27-.96,2.21-2.11,2.21-2.11-.93-2.11-2.21ZM36.29,28.42c0-1.35.96-2.27,2.11-2.27s2.11.93,2.11,2.27-.96,2.21-2.11,2.21-2.11-.89-2.11-2.21Z"/>
          <path d="M44.26,28.48c6.88-6.85,10.76-10.95,10.76-14.69,0-2.59-1.41-4.45-4.32-4.45-1.92,0-3.59,1.22-4.87,2.72l-1.7-1.63c1.92-2.08,3.94-3.46,6.91-3.46,4.19,0,6.82,2.66,6.82,6.69,0,4.29-3.9,8.55-9.31,14.25,1.21-.1,2.62-.23,3.84-.23h6.63v2.53h-14.76v-1.73Z"/>
          <path d="M62.18,18.72c0-7.65,2.79-11.75,7.33-11.75s7.3,4.13,7.3,11.75-2.75,11.91-7.3,11.91-7.33-4.26-7.33-11.91ZM73.96,18.72c0-6.69-1.79-9.41-4.45-9.41s-4.48,2.72-4.48,9.41,1.79,9.57,4.48,9.57,4.45-2.88,4.45-9.57Z"/>
          <path class="cls-3" d="M158.37,3.64c7.97,0,14.41,6.43,14.41,14.4s-6.43,14.41-14.41,14.41-14.4-6.44-14.4-14.41,6.43-14.4,14.4-14.4Z"/>
          <path d="M0,178.72c0-7.65,2.79-11.75,7.33-11.75s7.3,4.13,7.3,11.75-2.75,11.91-7.3,11.91-7.33-4.26-7.33-11.91ZM11.78,178.72c0-6.69-1.79-9.41-4.45-9.41s-4.48,2.72-4.48,9.41,1.79,9.57,4.48,9.57,4.45-2.88,4.45-9.57Z"/>
          <path d="M18.05,188.23l1.63-1.83c.9,1.12,2.3,1.79,3.74,1.79,3.2,0,5.92-2.5,6.05-9.79-1.47,1.82-3.49,2.95-5.35,2.95-3.97,0-6.53-2.4-6.53-7.08,0-4.35,3.07-7.3,6.72-7.3,4.51,0,7.88,3.65,7.88,10.98,0,9.16-4.13,12.68-8.68,12.68-2.43,0-4.22-1.02-5.47-2.4ZM24.61,179.16c1.47,0,3.33-.93,4.8-3.1-.38-4.42-2.18-6.79-5.09-6.79-2.24,0-3.97,1.98-3.97,4.99s1.41,4.9,4.26,4.9Z"/>
          <path d="M36.29,175.52c0-1.34.96-2.27,2.11-2.27s2.11.93,2.11,2.27-.96,2.21-2.11,2.21-2.11-.93-2.11-2.21ZM36.29,188.42c0-1.35.96-2.27,2.11-2.27s2.11.93,2.11,2.27-.96,2.21-2.11,2.21-2.11-.89-2.11-2.21Z"/>
          <path d="M44.42,178.72c0-7.65,2.79-11.75,7.33-11.75s7.3,4.13,7.3,11.75-2.75,11.91-7.3,11.91-7.33-4.26-7.33-11.91ZM56.2,178.72c0-6.69-1.79-9.41-4.45-9.41s-4.48,2.72-4.48,9.41,1.79,9.57,4.48,9.57,4.45-2.88,4.45-9.57Z"/>
          <path d="M62.18,178.72c0-7.65,2.79-11.75,7.33-11.75s7.3,4.13,7.3,11.75-2.75,11.91-7.3,11.91-7.33-4.26-7.33-11.91ZM73.96,178.72c0-6.69-1.79-9.41-4.45-9.41s-4.48,2.72-4.48,9.41,1.79,9.57,4.48,9.57,4.45-2.88,4.45-9.57Z"/>
          <path class="cls-3" d="M158.37,163.64c7.97,0,14.41,6.43,14.41,14.4s-6.43,14.41-14.41,14.41-14.4-6.44-14.4-14.41,6.43-14.4,14.4-14.4Z"/>
          <path d="M1.25,347.78h5.22v-16.84H2.3v-1.89c2.08-.35,3.59-.9,4.87-1.67h2.24v20.39h4.71v2.43H1.25v-2.43Z"/>
          <path d="M19.01,347.78h5.22v-16.84h-4.16v-1.89c2.08-.35,3.59-.9,4.87-1.67h2.24v20.39h4.71v2.43h-12.87v-2.43Z"/>
          <path d="M36.29,335.52c0-1.34.96-2.27,2.11-2.27s2.11.93,2.11,2.27-.96,2.21-2.11,2.21-2.11-.93-2.11-2.21ZM36.29,348.42c0-1.35.96-2.27,2.11-2.27s2.11.93,2.11,2.27-.96,2.21-2.11,2.21-2.11-.89-2.11-2.21Z"/>
          <path d="M44.42,338.72c0-7.65,2.79-11.75,7.33-11.75s7.3,4.13,7.3,11.75-2.75,11.91-7.3,11.91-7.33-4.26-7.33-11.91ZM56.2,338.72c0-6.69-1.79-9.41-4.45-9.41s-4.48,2.72-4.48,9.41,1.79,9.57,4.48,9.57,4.45-2.88,4.45-9.57Z"/>
          <path d="M62.18,338.72c0-7.65,2.79-11.75,7.33-11.75s7.3,4.13,7.3,11.75-2.75,11.91-7.3,11.91-7.33-4.26-7.33-11.91ZM73.96,338.72c0-6.69-1.79-9.41-4.45-9.41s-4.48,2.72-4.48,9.41,1.79,9.57,4.48,9.57,4.45-2.88,4.45-9.57Z"/>
          <path class="cls-3" d="M158.37,323.64c7.97,0,14.41,6.43,14.41,14.4s-6.43,14.41-14.41,14.41-14.4-6.44-14.4-14.41,6.43-14.4,14.4-14.4Z"/>
          <path d="M1.25,507.78h5.22v-16.84H2.3v-1.89c2.08-.35,3.59-.9,4.87-1.67h2.24v20.39h4.71v2.43H1.25v-2.43Z"/>
          <path d="M17.12,507.43l1.47-1.92c1.38,1.44,3.17,2.69,5.83,2.69s4.77-1.63,4.77-4.19c0-2.72-1.89-4.52-7.3-4.52v-2.24c4.83,0,6.5-1.89,6.5-4.29,0-2.21-1.54-3.62-3.97-3.62-1.89,0-3.55.96-4.87,2.3l-1.57-1.83c1.76-1.66,3.84-2.85,6.56-2.85,3.94,0,6.82,2.08,6.82,5.79,0,2.75-1.7,4.52-4.16,5.41v.13c2.75.67,4.96,2.69,4.96,5.83,0,4.06-3.36,6.5-7.52,6.5-3.68,0-5.99-1.54-7.52-3.2Z"/>
          <path d="M36.29,495.52c0-1.34.96-2.27,2.11-2.27s2.11.93,2.11,2.27-.96,2.21-2.11,2.21-2.11-.93-2.11-2.21ZM36.29,508.42c0-1.35.96-2.27,2.11-2.27s2.11.93,2.11,2.27-.96,2.21-2.11,2.21-2.11-.89-2.11-2.21Z"/>
          <path d="M44.42,498.72c0-7.65,2.79-11.75,7.33-11.75s7.3,4.13,7.3,11.75-2.75,11.91-7.3,11.91-7.33-4.26-7.33-11.91ZM56.2,498.72c0-6.69-1.79-9.41-4.45-9.41s-4.48,2.72-4.48,9.41,1.79,9.57,4.48,9.57,4.45-2.88,4.45-9.57Z"/>
          <path d="M62.18,498.72c0-7.65,2.79-11.75,7.33-11.75s7.3,4.13,7.3,11.75-2.75,11.91-7.3,11.91-7.33-4.26-7.33-11.91ZM73.96,498.72c0-6.69-1.79-9.41-4.45-9.41s-4.48,2.72-4.48,9.41,1.79,9.57,4.48,9.57,4.45-2.88,4.45-9.57Z"/>
          <path class="cls-3" d="M158.37,483.64c7.97,0,14.41,6.43,14.41,14.4s-6.43,14.41-14.41,14.41-14.4-6.44-14.4-14.41,6.43-14.4,14.4-14.4Z"/>
          <path d="M1.25,667.78h5.22v-16.84H2.3v-1.89c2.08-.35,3.59-.9,4.87-1.67h2.24v20.39h4.71v2.43H1.25v-2.43Z"/>
          <path d="M17.09,667.52l1.44-1.92c1.34,1.35,3.04,2.59,5.76,2.59s4.99-2.02,4.99-5.19-1.92-5.06-4.87-5.06c-1.57,0-2.56.51-3.9,1.41l-1.57-.99.74-10.98h11.43v2.5h-8.87l-.58,6.82c1.06-.57,2.08-.96,3.49-.96,3.91,0,7.08,2.24,7.08,7.17s-3.71,7.71-7.68,7.71c-3.65,0-5.89-1.54-7.46-3.11Z"/>
          <path d="M36.29,655.52c0-1.34.96-2.27,2.11-2.27s2.11.93,2.11,2.27-.96,2.21-2.11,2.21-2.11-.93-2.11-2.21ZM36.29,668.42c0-1.35.96-2.27,2.11-2.27s2.11.93,2.11,2.27-.96,2.21-2.11,2.21-2.11-.89-2.11-2.21Z"/>
          <path d="M44.42,658.72c0-7.65,2.79-11.75,7.33-11.75s7.3,4.13,7.3,11.75-2.75,11.91-7.3,11.91-7.33-4.26-7.33-11.91ZM56.2,658.72c0-6.69-1.79-9.41-4.45-9.41s-4.48,2.72-4.48,9.41,1.79,9.57,4.48,9.57,4.45-2.88,4.45-9.57Z"/>
          <path d="M62.18,658.72c0-7.65,2.79-11.75,7.33-11.75s7.3,4.13,7.3,11.75-2.75,11.91-7.3,11.91-7.33-4.26-7.33-11.91ZM73.96,658.72c0-6.69-1.79-9.41-4.45-9.41s-4.48,2.72-4.48,9.41,1.79,9.57,4.48,9.57,4.45-2.88,4.45-9.57Z"/>
          <path class="cls-3" d="M158.37,643.64c7.97,0,14.41,6.43,14.41,14.4s-6.43,14.41-14.41,14.41-14.4-6.44-14.4-14.41,6.43-14.4,14.4-14.4Z"/>
          <path d="M1.25,827.78h5.22v-16.84H2.3v-1.89c2.08-.35,3.59-.9,4.87-1.67h2.24v20.39h4.71v2.43H1.25v-2.43Z"/>
          <path d="M17.92,819.68c0-9.19,4.13-12.71,8.71-12.71,2.43,0,4.2,1.02,5.47,2.4l-1.63,1.83c-.93-1.12-2.34-1.79-3.74-1.79-3.23,0-5.92,2.46-6.05,9.73,1.47-1.76,3.49-2.85,5.35-2.85,3.94,0,6.5,2.37,6.5,7.01,0,4.38-3.07,7.33-6.72,7.33-4.51,0-7.88-3.65-7.88-10.95ZM20.74,821.5c.38,4.45,2.15,6.85,5.03,6.85,2.27,0,4-2.02,4-5.06s-1.41-4.83-4.23-4.83c-1.47,0-3.27.8-4.8,3.04Z"/>
          <path d="M36.29,815.52c0-1.34.96-2.27,2.11-2.27s2.11.93,2.11,2.27-.96,2.21-2.11,2.21-2.11-.93-2.11-2.21ZM36.29,828.42c0-1.35.96-2.27,2.11-2.27s2.11.93,2.11,2.27-.96,2.21-2.11,2.21-2.11-.89-2.11-2.21Z"/>
          <path d="M44.42,818.72c0-7.65,2.79-11.75,7.33-11.75s7.3,4.13,7.3,11.75-2.75,11.91-7.3,11.91-7.33-4.26-7.33-11.91ZM56.2,818.72c0-6.69-1.79-9.41-4.45-9.41s-4.48,2.72-4.48,9.41,1.79,9.57,4.48,9.57,4.45-2.88,4.45-9.57Z"/>
          <path d="M62.18,818.72c0-7.65,2.79-11.75,7.33-11.75s7.3,4.13,7.3,11.75-2.75,11.91-7.3,11.91-7.33-4.26-7.33-11.91ZM73.96,818.72c0-6.69-1.79-9.41-4.45-9.41s-4.48,2.72-4.48,9.41,1.79,9.57,4.48,9.57,4.45-2.88,4.45-9.57Z"/>
          <path class="cls-3" d="M158.37,803.64c7.97,0,14.41,6.43,14.41,14.4s-6.43,14.41-14.41,14.41-14.4-6.44-14.4-14.41,6.43-14.4,14.4-14.4Z"/>
          <path d="M1.25,987.78h5.22v-16.84H2.3v-1.89c2.08-.35,3.59-.9,4.87-1.67h2.24v20.39h4.71v2.43H1.25v-2.43Z"/>
          <path d="M29.12,969.88h-11.37v-2.5h14.69v1.79c-5.38,6.91-6.53,12.13-6.88,21.03h-3.04c.38-8.61,2.11-14.05,6.6-20.33Z"/>
          <path d="M36.29,975.52c0-1.34.96-2.27,2.11-2.27s2.11.93,2.11,2.27-.96,2.21-2.11,2.21-2.11-.93-2.11-2.21ZM36.29,988.42c0-1.35.96-2.27,2.11-2.27s2.11.93,2.11,2.27-.96,2.21-2.11,2.21-2.11-.89-2.11-2.21Z"/>
          <path d="M45.66,987.78h5.22v-16.84h-4.16v-1.89c2.08-.35,3.59-.9,4.87-1.67h2.24v20.39h4.71v2.43h-12.87v-2.43Z"/>
          <path d="M62.18,978.72c0-7.65,2.79-11.75,7.33-11.75s7.3,4.13,7.3,11.75-2.75,11.91-7.3,11.91-7.33-4.26-7.33-11.91ZM73.96,978.72c0-6.69-1.79-9.41-4.45-9.41s-4.48,2.72-4.48,9.41,1.79,9.57,4.48,9.57,4.45-2.88,4.45-9.57Z"/>
          <path class="cls-3" d="M158.37,963.64c7.97,0,14.41,6.43,14.41,14.4s-6.43,14.41-14.41,14.41-14.4-6.44-14.4-14.41,6.43-14.4,14.4-14.4Z"/>
        </g>
        <g>
          <path d="M241.69,18.04v14.77h-2.74v-2.16h-22.47v2.23h-2.66v-14.84h2.66v9.98h9.62v-12.28h-10.91V3.42h2.67v9.72h8.25V.21h2.74v12.93h8.64V3.42h2.77v12.31h-11.42v12.28h10.12v-9.98h2.74Z"/>
          <path d="M279.6,9.72c-.4,15.09-.72,20.09-1.84,21.57-.65.9-1.29,1.19-2.34,1.29-.97.11-2.56.11-4.18,0-.07-.72-.32-1.8-.76-2.48,1.66.18,3.17.18,3.82.18.58,0,.9-.11,1.19-.58.86-1.04,1.26-5.73,1.55-18.8h-5.22c-.4,9.61-1.8,17.36-7.31,22.11-.4-.57-1.33-1.48-1.94-1.87.5-.4.94-.83,1.37-1.3-5.94.72-12.06,1.44-16.35,1.95l-.36-2.34c2.16-.18,4.9-.47,7.89-.79v-3.28h-6.55v-1.98h6.55v-2.74h-7.09v-2.05h7.09v-2.23h-6.41v-7.67h15.56v7.67h-6.7v2.23h7.2v2.05h-7.2v2.74h6.88v1.98h-6.88v2.99c2.34-.25,4.82-.54,7.24-.83l.04,1.26c3.31-4.29,4.29-10.45,4.54-17.9h-4.11v-2.48h4.18c.07-2.56.07-5.29.07-8.1h2.48c0,2.81-.04,5.51-.07,8.1h7.67v1.3ZM251.47,5.18h-4.07v-2.09h4.07V.04h2.45v3.06h4.82V.04h2.45v3.06h4.25v2.09h-4.25v2.77h-2.45v-2.77h-4.82v2.77h-2.45v-2.77ZM255.11,14.44v-3.75h-4.07v3.75h4.07ZM261.77,10.69h-4.21v3.75h4.21v-3.75Z"/>
          <path d="M323.58,13.57v19.34h-2.63V1.55h13.04v12.03h-10.41ZM323.58,3.6v2.92h7.89v-2.92h-7.89ZM331.46,11.52v-3.1h-7.89v3.1h7.89ZM340.4,24.2v8.03h-2.38v-8.03h-5.12c-.21,2.41-1.37,6.16-4.82,8.5-.4-.47-1.19-1.22-1.77-1.58,3.03-1.84,4.03-4.83,4.25-6.91h-4.5v-2.27h4.57v-3.89h-3.89v-2.2h17.75v2.2h-4.1v3.89h4.9v2.27h-4.9ZM338.02,21.93v-3.89h-5.04v3.89h5.04ZM350.51,29.42c0,1.58-.36,2.45-1.4,2.92-1.08.43-2.88.5-5.58.47-.07-.68-.47-1.95-.87-2.66,1.98.07,3.93.07,4.46.04.58,0,.76-.21.76-.79v-15.77h-10.73V1.55h13.36v27.87ZM339.71,3.6v2.92h8.17v-2.92h-8.17ZM347.88,11.56v-3.13h-8.17v3.13h8.17Z"/>
          <path d="M387.81,4.64v2.56h-27.08v6.73c0,5.47-.5,13.54-3.56,18.98-.47-.47-1.62-1.22-2.27-1.51,2.92-5.15,3.21-12.35,3.21-17.47V4.64h13.22V.04h2.74v4.61h13.76ZM375.24,12.24h12.06v2.41h-12.06v5.15h9.65v13.04h-2.7v-1.33h-15.56v1.4h-2.63v-13.11h8.54V7.96h2.7v4.29ZM382.19,22.18h-15.56v6.91h15.56v-6.91Z"/>
          <path d="M411.39,24.34c3.28,2.59,8.25,4.72,12.86,5.69-.61.58-1.44,1.62-1.8,2.38-4.83-1.37-10.08-4.07-13.54-7.38v7.85h-2.63v-7.67c-3.46,3.13-8.71,5.72-13.43,7.09-.36-.68-1.15-1.69-1.73-2.27,4.46-1.01,9.47-3.17,12.71-5.69h-11.78v-2.27h14.22v-2.67h-10.84v-2.05h10.84v-2.63h-12.64v-2.2h7.85c-.32-1.08-1.04-2.52-1.76-3.6l1.26-.25h-8.79v-2.3h5.73c-.5-1.44-1.77-3.6-2.85-5.22l2.27-.76c1.22,1.62,2.52,3.85,3.06,5.29l-1.84.69h4.43V0h2.49v6.37h4.29V0h2.52v6.37h4.36l-1.33-.43c.94-1.51,2.09-3.86,2.74-5.47l2.74.72c-1.01,1.84-2.16,3.82-3.17,5.19h5.58v2.3h-7.2c-.72,1.37-1.51,2.77-2.23,3.85h8.17v2.2h-13.04v2.63h11.27v2.05h-11.27v2.67h14.44v2.27h-11.96ZM402.42,8.68c.76,1.12,1.51,2.63,1.8,3.6l-1.15.25h8.46l-.36-.11c.61-1.04,1.33-2.52,1.84-3.74h-10.59Z"/>
          <path d="M437.77,20.74c.69-1.48,1.41-3.71,1.95-5.8h-3.46v14.84c0,1.37-.29,2.09-1.19,2.56-.94.36-2.34.4-4.5.4-.11-.65-.47-1.76-.83-2.45,1.55.04,2.95.04,3.42.04.43-.04.58-.14.58-.54v-11.56c-1.4,3.46-3.28,6.84-5.26,8.86-.29-.76-.94-1.8-1.41-2.48,2.23-2.12,4.47-5.98,5.8-9.65h-5.44v-2.34h9.65c-1.87-1.58-5.19-3.6-7.99-4.82l1.66-1.73c1.12.47,2.34,1.04,3.49,1.66,1.33-1.01,2.7-2.3,3.78-3.56h-10.19V1.8h12.1l.47-.11,1.73,1.08c-1.4,2.16-3.71,4.46-5.87,6.12,1.19.72,2.27,1.48,3.03,2.16l-1.37,1.55h2.67l.39-.14,1.62.58c-.18.61-.36,1.26-.54,1.91,2.41-.69,4.61-1.58,6.45-2.77-1.44-1.29-2.7-2.77-3.71-4.39-.87.94-1.73,1.84-2.59,2.56-.5-.43-1.55-1.19-2.2-1.55,2.81-2.09,5.4-5.37,6.84-8.79l2.56.68c-.47,1.04-1.04,2.09-1.66,3.1h11.96v2.27h-2.77c-1.01,2.45-2.48,4.46-4.32,6.12,2.27,1.44,4.93,2.52,7.81,3.13-.54.58-1.33,1.58-1.69,2.3-3.03-.83-5.8-2.12-8.17-3.82-2.27,1.58-4.93,2.77-7.85,3.67-.18-.36-.58-.9-.97-1.41-.61,2.09-1.33,4.14-2.12,5.62l-1.84-.93ZM458.91,20.09s-.04.72-.07,1.15c-.65,6.7-1.33,9.43-2.38,10.48-.61.65-1.3.83-2.23.94-.86.04-2.38.07-4-.04-.07-.72-.32-1.8-.72-2.48,1.55.14,2.99.18,3.56.18s.87-.04,1.22-.36c.69-.69,1.22-2.7,1.77-7.64h-6.05c-1.26,4.57-3.78,8.32-9.54,10.55-.32-.61-1.04-1.58-1.58-2.05,4.97-1.8,7.24-4.83,8.36-8.5h-5.62v-2.23h6.19c.22-1.15.36-2.34.47-3.57h2.7c-.11,1.22-.29,2.41-.5,3.57h8.43ZM446.45,6.05c.97,1.73,2.38,3.31,4.07,4.64,1.48-1.29,2.67-2.81,3.49-4.64h-7.56Z"/>
          <path d="M215.58,173.57v19.34h-2.63v-31.37h13.04v12.03h-10.41ZM215.58,163.6v2.92h7.89v-2.92h-7.89ZM223.46,171.52v-3.1h-7.89v3.1h7.89ZM232.4,184.2v8.03h-2.38v-8.03h-5.12c-.21,2.41-1.37,6.16-4.82,8.5-.4-.47-1.19-1.22-1.77-1.58,3.03-1.84,4.03-4.83,4.25-6.91h-4.5v-2.27h4.57v-3.89h-3.89v-2.2h17.75v2.2h-4.1v3.89h4.9v2.27h-4.9ZM230.02,181.93v-3.89h-5.04v3.89h5.04ZM242.51,189.42c0,1.58-.36,2.45-1.4,2.92-1.08.43-2.88.5-5.58.47-.07-.68-.47-1.95-.87-2.66,1.98.07,3.93.07,4.46.04.58,0,.76-.21.76-.79v-15.77h-10.73v-12.06h13.36v27.87ZM231.71,163.6v2.92h8.17v-2.92h-8.17ZM239.88,171.56v-3.13h-8.17v3.13h8.17Z"/>
          <path d="M279.81,164.64v2.56h-27.08v6.73c0,5.47-.5,13.54-3.56,18.98-.47-.47-1.62-1.22-2.27-1.51,2.92-5.15,3.21-12.35,3.21-17.47v-9.29h13.22v-4.61h2.74v4.61h13.76ZM267.24,172.24h12.06v2.41h-12.06v5.15h9.65v13.04h-2.7v-1.33h-15.56v1.4h-2.63v-13.11h8.54v-11.85h2.7v4.29ZM274.19,182.18h-15.56v6.91h15.56v-6.91Z"/>
          <path d="M330.17,160.86c-1.04,2.59-2.27,5.15-3.67,7.49v24.45h-2.56v-20.53c-1.22,1.73-2.56,3.28-3.85,4.61-.29-.57-1.04-1.98-1.51-2.59,3.57-3.42,7.02-8.75,9.08-14.19l2.52.76ZM343.35,179.98c2.38,3.78,6.01,7.42,9.47,9.29-.58.47-1.44,1.44-1.91,2.12-3.21-2.09-6.66-5.83-9.11-9.76v11.27h-2.67v-11.16c-2.52,3.96-6.12,7.56-9.62,9.58-.47-.65-1.26-1.62-1.87-2.12,3.71-1.84,7.53-5.4,9.94-9.22h-8.89v-2.45h10.44v-4.46h-7.78v-11.38h18.54v11.38h-8.1v4.46h10.08v2.45h-8.54ZM333.88,170.69h13.36v-6.59h-13.36v6.59Z"/>
          <path d="M367.21,162.52c-1.12,2.99-2.56,6.8-3.85,9.83,2.77,2.81,3.53,5.26,3.56,7.45,0,1.95-.47,3.38-1.51,4.07-.54.39-1.22.61-1.95.68-.79.07-1.73.11-2.66.04-.04-.68-.29-1.69-.65-2.38.87.07,1.73.07,2.27.04.47,0,.94-.11,1.26-.32.58-.36.79-1.33.79-2.41-.04-1.91-.83-4.18-3.57-6.84,1.12-2.7,2.27-6.16,3.1-8.68h-4.97v28.88h-2.38v-31.33h8.39l.39-.11,1.77,1.08ZM379.28,183.15c2.05,4.43,4.97,6.2,9.22,7.64-.61.57-1.26,1.51-1.55,2.27-4.29-1.62-7.35-3.74-9.54-8.32-1.26,3.28-4.18,6.3-10.52,8.32-.25-.58-1.01-1.58-1.44-2.02,6.52-2.02,9.04-4.82,9.94-7.89h-7.27v-9.14h7.78v-3.13h-5.65v-1.95c-1.01.68-2.09,1.33-3.17,1.87-.29-.65-.86-1.58-1.33-2.16,4.11-1.91,8.1-5.4,10.05-8.61h2.45c2.59,3.46,6.7,6.62,10.48,8.21-.47.57-1.04,1.55-1.4,2.3-.97-.47-1.98-1.04-2.95-1.69v2.02h-6.05v3.13h8.17v9.14h-7.2ZM375.82,180.99c.04-.57.07-1.19.07-1.76v-3.06h-5.4v4.82h5.33ZM383.99,168.61c-2.67-1.8-5.19-4.03-6.88-6.23-1.44,2.09-3.74,4.36-6.41,6.23h13.29ZM378.3,176.17v3.13c0,.58-.04,1.12-.07,1.69h5.8v-4.82h-5.72Z"/>
          <path d="M416.36,165.87c-.69,1.37-1.4,2.7-2.05,3.78h7.6v19.91c0,1.59-.36,2.45-1.51,2.88-1.19.39-3.17.43-6.12.43-.11-.69-.5-1.91-.9-2.59,2.34.11,4.5.07,5.15.04.61,0,.79-.18.79-.76v-17.57h-7.53v3.56c0,.72.14.79,1.04.79h3.13c.79,0,.94-.25,1.04-2.38.39.36,1.37.69,2.05.83-.25,2.88-.9,3.6-2.81,3.6h-3.71c-2.52,0-3.13-.58-3.13-2.81v-3.6h-4.29c-.43,4.32-2.05,6.55-7.31,7.81-.21-.54-.83-1.44-1.29-1.87,4.54-.94,5.83-2.59,6.19-5.94h-6.45v20.85h-2.52v-23.19h7.06c-.4-1.15-1.08-2.66-1.69-3.78h-6.88v-2.45h13.94v-3.38h2.7v3.38h14.26v2.45h-6.77ZM403.39,189.02v2.2h-2.38v-10.98h13.58v8.79h-11.2ZM411.35,169.65c.61-1.04,1.37-2.55,1.87-3.78h-11.24c.72,1.23,1.37,2.74,1.69,3.78h7.67ZM403.39,182.32v4.61h8.75v-4.61h-8.75Z"/>
          <path d="M428.73,177.25h12.71v15.34h-2.63v-1.62h-7.53v1.94h-2.56v-15.66ZM431.29,179.84v8.54h7.53v-8.54h-7.53ZM453.54,173.47h-19.59v-11.92h19.59v11.92ZM450.84,164.1h-14.29v6.81h14.29v-6.81ZM458.77,177.25v15.41h-2.63v-1.69h-8.18v1.94h-2.59v-15.66h13.4ZM456.14,188.38v-8.54h-8.18v8.54h8.18Z"/>
          <path d="M470.35,166.59c.65,1.19,1.37,2.63,2.09,4.14,4.36-1.91,9.22-3.85,12.96-3.85,4.97,0,8.03,2.85,8.03,6.77,0,4.14-2.66,7.28-8.28,7.28-2.02,0-4.03-.5-5.4-1.01l.11-2.81c1.41.61,3.21,1.15,5.12,1.15,3.92,0,5.58-2.16,5.58-4.75,0-2.12-1.69-4.07-5.22-4.07-3.17,0-7.6,1.69-11.78,3.64.47,1.01.94,2.02,1.37,2.99,1.98,4.46,4.25,11.16,5.47,15.12l-3.1.83c-1.12-4.25-2.84-10.05-4.9-14.76-.47-1.04-.9-2.05-1.37-2.99-2.77,1.33-5.29,2.63-6.95,3.39l-1.37-2.95c1.04-.25,2.3-.72,2.95-.97,1.22-.47,2.7-1.12,4.29-1.84-.76-1.59-1.44-2.95-2.05-3.96-.47-.72-1.19-1.84-1.76-2.56l2.95-1.19c.25.58.86,1.77,1.26,2.41ZM475.25,162.55l2.05-1.48c1.19.9,3.93,3.17,5.29,4.57l-2.05,1.62c-1.4-1.37-3.75-3.57-5.29-4.72Z"/>
          <path d="M509.02,178c-1.33.47-2.66.94-4,1.4v10.33c0,1.48-.32,2.23-1.29,2.67-.9.4-2.34.47-4.75.43-.07-.65-.47-1.76-.79-2.41,1.62.04,3.1.04,3.57,0,.47,0,.65-.14.65-.69v-9.43c-1.69.58-3.31,1.15-4.75,1.62l-.9-2.74c1.55-.39,3.49-.97,5.65-1.62v-7.99h-5.19v-2.48h5.19v-7.06h2.63v7.06h4v2.48h-4v7.2l3.71-1.12.29,2.34ZM527.71,176.1c-1.33,4.39-3.67,7.81-6.63,10.48,2.59,1.84,5.73,3.17,9.33,3.93-.58.54-1.37,1.66-1.77,2.38-3.78-.94-7.02-2.49-9.72-4.57-3.02,2.16-6.52,3.64-10.19,4.61-.29-.68-.9-1.84-1.44-2.38,3.46-.79,6.77-2.12,9.62-4.03-2.2-2.2-3.93-4.86-5.19-8l1.94-.58h-3.13v-2.45h14.95l.5-.11,1.73.72ZM515.18,165.08c0,3.13-.9,7.06-4.86,9.69-.36-.54-1.3-1.58-1.8-1.91,3.56-2.27,4.14-5.33,4.14-7.82v-3.6h11.81v8.57c0,.83.11.97.76.97h1.94c.69,0,.83-.54.9-4.25.51.43,1.55.83,2.23,1.01-.18,4.36-.83,5.47-2.84,5.47h-2.63c-2.27,0-2.92-.65-2.92-3.17v-6.09h-6.73v1.12ZM514.2,177.93c1.08,2.67,2.7,5.01,4.83,6.95,2.16-1.87,3.96-4.21,5.15-6.95h-9.97Z"/>
          <path d="M543.61,169.58c-3.24,1.04-6.63,2.09-9.33,2.95l-1.04-2.34c2.59-.61,6.37-1.69,10.05-2.7l.32,2.09ZM546.46,188.66c-2.92,1.69-7.42,3.35-10.98,4.32-.47-.5-1.37-1.55-1.98-2.02,3.67-.76,7.99-2.02,10.55-3.46l2.41,1.15ZM542.53,165.65c-1.66-.97-4.97-2.23-7.53-3.03l1.19-1.84c2.48.68,5.8,1.87,7.53,2.77l-1.19,2.09ZM538.03,172.71h23.3v14.44h-23.3v-14.44ZM540.62,176.92h18.04v-2.41h-18.04v2.41ZM540.62,181.14h18.04v-2.48h-18.04v2.48ZM540.62,185.39h18.04v-2.52h-18.04v2.52ZM548.94,164.64c-.9,1.12-1.95,2.16-3.21,3.13-.5-.5-1.37-1.08-2.02-1.33,2.7-1.87,4.5-4.29,5.44-6.45l2.41.39c-.36.76-.76,1.48-1.22,2.23h12.31l.43-.11,1.8.54c-1.01,1.84-2.34,3.86-3.64,5.11l-2.12-.75c.76-.72,1.55-1.73,2.2-2.77h-5.76c.79,2.77,2.81,5.4,10.19,6.48-.5.5-1.12,1.51-1.37,2.16-6.12-1.08-8.75-3.38-10.08-5.98-1.4,2.66-4.07,4.36-9.18,5.37-.21-.58-.83-1.44-1.26-1.91,5.87-1.04,8.03-2.84,8.89-6.12h-3.82ZM554.63,187.62c3.89,1.26,8.17,2.81,10.8,4l-2.95,1.33c-2.23-1.15-6.12-2.67-10.05-3.96l2.2-1.37Z"/>
          <path d="M579.97,160.86c-1.01,2.52-2.27,5.08-3.67,7.42v24.49h-2.52v-20.63c-1.3,1.8-2.63,3.38-4,4.75-.25-.57-1.04-1.98-1.51-2.59,3.64-3.42,7.13-8.75,9.22-14.19l2.48.76ZM601.94,166.66v2.23h-23.26v-2.23h23.26ZM581.23,181.53h18.29v11.24h-2.67v-1.59h-13.04v1.69h-2.59v-11.34ZM599.2,173.83h-17.57v-2.2h17.57v2.2ZM581.63,176.6h17.5v2.16h-17.5v-2.16ZM598.55,163.92h-16.49v-2.2h16.49v2.2ZM583.83,183.69v5.29h13.04v-5.29h-13.04Z"/>
          <path d="M619.14,168.17h-14.19v-2.2h14.19v2.2ZM617.7,190.82h-8.71v1.66h-2.38v-12.06h11.09v10.41ZM606.65,170.84h11.16v2.12h-11.16v-2.12ZM606.65,175.59h11.16v2.16h-11.16v-2.16ZM617.81,163.42h-10.98v-2.16h10.98v2.16ZM608.99,182.61v6.05h6.3v-6.05h-6.3ZM634.27,189.96c1.12,0,1.33-1.12,1.47-5.58.65.5,1.69,1.01,2.45,1.15-.29,5.18-.97,6.95-3.74,6.95h-4.72c-2.92,0-3.74-.9-3.74-4.36v-10.59l-6.91,1.08-.4-2.52,7.31-1.12v-9.47c-1.95.43-3.89.79-5.73,1.08-.11-.61-.54-1.62-.86-2.27,5.26-.9,11.34-2.34,14.73-3.89l2.23,2.09c-2.16.9-4.86,1.69-7.71,2.38v9.65l8.93-1.37.47,2.52-9.4,1.44v11.02c0,1.51.25,1.8,1.44,1.8h4.18Z"/>
          <path d="M658.06,191.26l-1.69-2.67c1.15-.11,2.27-.29,3.1-.47,4.61-1.04,9.15-4.46,9.15-10.7,0-5.44-3.49-9.94-9.61-10.44-.47,3.35-1.15,7.02-2.16,10.37-2.2,7.42-5.04,11.2-8.39,11.2s-6.41-3.67-6.41-9.61c0-7.82,6.95-14.66,15.74-14.66s13.79,5.94,13.79,13.25-4.97,12.61-13.5,13.72ZM648.55,185.24c1.69,0,3.6-2.41,5.44-8.5.9-2.99,1.62-6.41,2.02-9.72-6.91.87-11.16,6.77-11.16,11.67,0,4.54,2.09,6.55,3.71,6.55Z"/>
          <path d="M686.6,178.15c-1.29.47-2.63.86-3.96,1.33v10.08c0,1.48-.32,2.16-1.22,2.59-.83.43-2.2.54-4.46.5-.11-.65-.43-1.73-.79-2.48,1.55.04,2.99.04,3.38.04.43,0,.61-.14.61-.68v-9.25c-1.48.5-2.88.94-4.18,1.33l-.65-2.59c1.33-.32,2.99-.83,4.83-1.4v-7.88h-4.43v-2.49h4.43v-7.17h2.48v7.17h3.96v2.49h-3.96v7.09l3.64-1.12.32,2.45ZM698.6,189.78c1.04.14,2.2.22,3.38.22.87,0,5.73,0,6.95-.04-.36.57-.69,1.69-.79,2.38h-6.27c-5.19,0-8.97-.97-11.31-6.01-.97,2.7-2.41,4.9-4.29,6.59-.43-.43-1.44-1.26-2.02-1.62,3.21-2.52,4.79-6.55,5.37-11.88l2.45.29c-.18,1.33-.4,2.63-.68,3.82,1.01,3.06,2.63,4.72,4.68,5.58v-11.38h-8.79v-2.27h20.56v2.27h-9.25v4.21h7.46v2.2h-7.46v5.65ZM705.83,172.89h-16.93v-11.67h16.93v11.67ZM703.28,163.24h-11.92v2.85h11.92v-2.85ZM703.28,167.96h-11.92v2.88h11.92v-2.88Z"/>
          <path d="M731.64,184.05c3.28,2.77,8.54,5.11,13.36,6.16-.57.54-1.33,1.55-1.73,2.23-5.01-1.37-10.48-4.21-13.9-7.67v8.07h-2.63v-7.92c-3.35,3.35-8.64,6.16-13.58,7.49-.36-.65-1.12-1.69-1.69-2.16,4.79-1.08,10.01-3.46,13.18-6.19h-12.49v-2.23h14.58v-2.99h2.63v2.99h14.84v2.23h-12.57ZM717.42,174.94c1.01-1.12,2.16-2.56,3.35-4.03h-8.03v-2.2h9.72c.9-1.15,1.73-2.3,2.45-3.31l2.49.72c-.58.83-1.22,1.69-1.91,2.59h18.22v2.2h-6.91c-.9,1.91-2.16,3.49-3.96,4.79,3.49.9,6.77,1.91,9.15,2.77l-1.62,1.95c-2.45-1.01-6.19-2.16-10.19-3.24-3.53,1.58-8.5,2.52-15.59,3.03-.11-.58-.54-1.58-.87-2.12,5.58-.36,9.69-.94,12.71-1.84-1.98-.5-3.96-.94-5.83-1.33l-.68.83-2.49-.79ZM715.65,167.85h-2.52v-5.15h13.65v-2.66h2.63v2.66h13.9v5.15h-2.56v-2.88h-25.1v2.88ZM723.79,170.91c-.61.79-1.22,1.58-1.8,2.3,2.41.47,5.11,1.04,7.78,1.69,1.98-1.04,3.24-2.38,4.11-4h-10.08Z"/>
          <path d="M236.82,330.73c1.4,5.22,4.03,9.94,7.56,12.17-.61.54-1.48,1.51-1.91,2.27-2.52-1.76-4.5-4.57-6.01-7.96v9.26h-17.25v-12.93h15.85c-.29-.9-.58-1.84-.79-2.81h-15.7c-.43,4.86-1.84,10.55-5.65,14.69-.36-.54-1.44-1.58-1.98-1.91,4.61-5.01,5.22-11.92,5.22-16.89v-5.01h24.13v9.11h-3.46ZM212.73,349.24h30.03v2.45h-30.03v-2.45ZM218.75,326.66c0,.54,0,1.12-.04,1.73h18.87v-4.46h-18.83v2.74ZM233.91,335.59h-12.28v3.42h12.28v-3.42ZM233.91,340.92h-12.28v3.49h12.28v-3.49Z"/>
          <path d="M258.92,321.08c-1.08,2.63-2.41,5.26-3.92,7.71v24.05h-2.63v-20.2c-1.33,1.76-2.77,3.38-4.25,4.75-.25-.65-1.12-2.05-1.62-2.7,3.96-3.42,7.63-8.79,9.76-14.44l2.66.83ZM270.99,331.74c2.3,5.73,6.05,11.45,9.79,14.48-.65.5-1.58,1.44-2.02,2.16-3.49-3.24-6.91-8.71-9.33-14.48v19.01h-2.63v-18.26c-2.41,5.62-5.83,10.77-9.36,13.86-.5-.61-1.4-1.59-2.02-2.05,3.89-3.06,7.71-8.86,9.97-14.73h-8.71v-2.59h10.12v-8.64h2.63v8.64h10.41v2.59h-8.86Z"/>
          <path d="M283.22,350.25c2.7-1.4,4.21-3.93,4.93-6.77l2.34.76c-.79,3.06-2.2,5.94-5.08,7.53l-2.2-1.51ZM290.5,329.11h-6.66v-2.23h6.66v-3.06c-1.87.21-3.78.32-5.51.39-.11-.57-.4-1.44-.69-1.98,4.39-.25,9.79-.83,12.68-1.69l1.8,1.87c-1.62.47-3.67.87-5.83,1.15v3.31h6.48v2.23h-6.48v3.17h5.01v8.18h-12.39v-8.18h4.93v-3.17ZM295.57,334.4h-7.67v3.96h7.67v-3.96ZM304.07,350.07c1.62,0,1.84-.47,1.98-3.78.61.47,1.69.83,2.45.97-.36,4.21-1.15,5.22-4.21,5.22h-6.99c-3.78,0-4.72-.72-4.72-3.49v-5.47h2.63v5.47c0,.9.32,1.08,2.27,1.08h6.59ZM297.12,340.63c2.27,1.12,4.93,2.88,6.19,4.32l-1.87,1.62c-1.22-1.4-3.82-3.31-6.09-4.5l1.76-1.44ZM314.62,340.81h-13.87v-17.54h4.25c.47-1.19.94-2.56,1.19-3.56l2.92.43c-.47,1.08-.97,2.2-1.4,3.13h6.91v17.54ZM303.21,325.51v2.92h8.82v-2.92h-8.82ZM303.21,330.37v3.06h8.82v-3.06h-8.82ZM312.03,338.62v-3.24h-8.82v3.24h8.82ZM309.69,343.26c2.59,1.98,5.33,4.9,6.45,7.13l-2.38,1.33c-1.01-2.2-3.64-5.19-6.19-7.28l2.12-1.19Z"/>
          <path d="M222.17,480.86c-1.04,2.59-2.27,5.15-3.67,7.49v24.45h-2.56v-20.53c-1.22,1.73-2.56,3.28-3.85,4.61-.29-.57-1.04-1.98-1.51-2.59,3.57-3.42,7.02-8.75,9.08-14.19l2.52.76ZM235.35,499.98c2.38,3.78,6.01,7.42,9.47,9.29-.58.47-1.44,1.44-1.91,2.12-3.21-2.09-6.66-5.83-9.11-9.76v11.27h-2.67v-11.16c-2.52,3.96-6.12,7.56-9.62,9.58-.47-.65-1.26-1.62-1.87-2.12,3.71-1.84,7.53-5.4,9.94-9.22h-8.89v-2.45h10.44v-4.46h-7.78v-11.38h18.54v11.38h-8.1v4.46h10.08v2.45h-8.54ZM225.88,490.69h13.36v-6.59h-13.36v6.59Z"/>
          <path d="M259.21,482.52c-1.12,2.99-2.56,6.8-3.85,9.83,2.77,2.81,3.53,5.26,3.56,7.45,0,1.95-.47,3.38-1.51,4.07-.54.39-1.22.61-1.95.68-.79.07-1.73.11-2.66.04-.04-.68-.29-1.69-.65-2.38.87.07,1.73.07,2.27.04.47,0,.94-.11,1.26-.32.58-.36.79-1.33.79-2.41-.04-1.91-.83-4.18-3.57-6.84,1.12-2.7,2.27-6.16,3.1-8.68h-4.97v28.88h-2.38v-31.33h8.39l.39-.11,1.77,1.08ZM271.28,503.15c2.05,4.43,4.97,6.2,9.22,7.64-.61.57-1.26,1.51-1.55,2.27-4.29-1.62-7.35-3.74-9.54-8.32-1.26,3.28-4.18,6.3-10.52,8.32-.25-.58-1.01-1.58-1.44-2.02,6.52-2.02,9.04-4.82,9.94-7.89h-7.27v-9.14h7.78v-3.13h-5.65v-1.95c-1.01.68-2.09,1.33-3.17,1.87-.29-.65-.86-1.58-1.33-2.16,4.11-1.91,8.1-5.4,10.05-8.61h2.45c2.59,3.46,6.7,6.62,10.48,8.21-.47.57-1.04,1.55-1.4,2.3-.97-.47-1.98-1.04-2.95-1.69v2.02h-6.05v3.13h8.17v9.14h-7.2ZM267.82,500.99c.04-.57.07-1.19.07-1.76v-3.06h-5.4v4.82h5.33ZM275.99,488.61c-2.67-1.8-5.19-4.03-6.88-6.23-1.44,2.09-3.74,4.36-6.41,6.23h13.29ZM270.3,496.17v3.13c0,.58-.04,1.12-.07,1.69h5.8v-4.82h-5.72Z"/>
          <path d="M308.36,485.87c-.69,1.37-1.4,2.7-2.05,3.78h7.6v19.91c0,1.59-.36,2.45-1.51,2.88-1.19.39-3.17.43-6.12.43-.11-.69-.5-1.91-.9-2.59,2.34.11,4.5.07,5.15.04.61,0,.79-.18.79-.76v-17.57h-7.53v3.56c0,.72.14.79,1.04.79h3.13c.79,0,.94-.25,1.04-2.38.39.36,1.37.69,2.05.83-.25,2.88-.9,3.6-2.81,3.6h-3.71c-2.52,0-3.13-.58-3.13-2.81v-3.6h-4.29c-.43,4.32-2.05,6.55-7.31,7.81-.21-.54-.83-1.44-1.29-1.87,4.54-.94,5.83-2.59,6.19-5.94h-6.45v20.85h-2.52v-23.19h7.06c-.4-1.15-1.08-2.66-1.69-3.78h-6.88v-2.45h13.94v-3.38h2.7v3.38h14.26v2.45h-6.77ZM295.39,509.02v2.2h-2.38v-10.98h13.58v8.79h-11.2ZM303.35,489.65c.61-1.04,1.37-2.55,1.87-3.78h-11.24c.72,1.23,1.37,2.74,1.69,3.78h7.67ZM295.39,502.32v4.61h8.75v-4.61h-8.75Z"/>
          <path d="M320.73,497.25h12.71v15.34h-2.63v-1.62h-7.53v1.94h-2.56v-15.66ZM323.29,499.84v8.54h7.53v-8.54h-7.53ZM345.54,493.47h-19.59v-11.92h19.59v11.92ZM342.84,484.1h-14.29v6.81h14.29v-6.81ZM350.77,497.25v15.41h-2.63v-1.69h-8.18v1.94h-2.59v-15.66h13.4ZM348.14,508.38v-8.54h-8.18v8.54h8.18Z"/>
          <path d="M362.35,486.59c.65,1.19,1.37,2.63,2.09,4.14,4.36-1.91,9.22-3.85,12.96-3.85,4.97,0,8.03,2.85,8.03,6.77,0,4.14-2.66,7.28-8.28,7.28-2.02,0-4.03-.5-5.4-1.01l.11-2.81c1.41.61,3.21,1.15,5.12,1.15,3.92,0,5.58-2.16,5.58-4.75,0-2.12-1.69-4.07-5.22-4.07-3.17,0-7.6,1.69-11.78,3.64.47,1.01.94,2.02,1.37,2.99,1.98,4.46,4.25,11.16,5.47,15.12l-3.1.83c-1.12-4.25-2.84-10.05-4.9-14.76-.47-1.04-.9-2.05-1.37-2.99-2.77,1.33-5.29,2.63-6.95,3.39l-1.37-2.95c1.04-.25,2.3-.72,2.95-.97,1.22-.47,2.7-1.12,4.29-1.84-.76-1.59-1.44-2.95-2.05-3.96-.47-.72-1.19-1.84-1.76-2.56l2.95-1.19c.25.58.86,1.77,1.26,2.41ZM367.25,482.55l2.05-1.48c1.19.9,3.93,3.17,5.29,4.57l-2.05,1.62c-1.4-1.37-3.75-3.57-5.29-4.72Z"/>
          <path d="M401.02,498c-1.33.47-2.66.94-4,1.4v10.33c0,1.48-.32,2.23-1.29,2.67-.9.4-2.34.47-4.75.43-.07-.65-.47-1.76-.79-2.41,1.62.04,3.1.04,3.57,0,.47,0,.65-.14.65-.69v-9.43c-1.69.58-3.31,1.15-4.75,1.62l-.9-2.74c1.55-.39,3.49-.97,5.65-1.62v-7.99h-5.19v-2.48h5.19v-7.06h2.63v7.06h4v2.48h-4v7.2l3.71-1.12.29,2.34ZM419.71,496.1c-1.33,4.39-3.67,7.81-6.63,10.48,2.59,1.84,5.73,3.17,9.33,3.93-.58.54-1.37,1.66-1.77,2.38-3.78-.94-7.02-2.49-9.72-4.57-3.02,2.16-6.52,3.64-10.19,4.61-.29-.68-.9-1.84-1.44-2.38,3.46-.79,6.77-2.12,9.62-4.03-2.2-2.2-3.93-4.86-5.19-8l1.94-.58h-3.13v-2.45h14.95l.5-.11,1.73.72ZM407.18,485.08c0,3.13-.9,7.06-4.86,9.69-.36-.54-1.3-1.58-1.8-1.91,3.56-2.27,4.14-5.33,4.14-7.82v-3.6h11.81v8.57c0,.83.11.97.76.97h1.94c.69,0,.83-.54.9-4.25.51.43,1.55.83,2.23,1.01-.18,4.36-.83,5.47-2.84,5.47h-2.63c-2.27,0-2.92-.65-2.92-3.17v-6.09h-6.73v1.12ZM406.2,497.93c1.08,2.67,2.7,5.01,4.83,6.95,2.16-1.87,3.96-4.21,5.15-6.95h-9.97Z"/>
          <path d="M435.61,489.58c-3.24,1.04-6.63,2.09-9.33,2.95l-1.04-2.34c2.59-.61,6.37-1.69,10.05-2.7l.32,2.09ZM438.46,508.66c-2.92,1.69-7.42,3.35-10.98,4.32-.47-.5-1.37-1.55-1.98-2.02,3.67-.76,7.99-2.02,10.55-3.46l2.41,1.15ZM434.53,485.65c-1.66-.97-4.97-2.23-7.53-3.03l1.19-1.84c2.48.68,5.8,1.87,7.53,2.77l-1.19,2.09ZM430.03,492.71h23.3v14.44h-23.3v-14.44ZM432.62,496.92h18.04v-2.41h-18.04v2.41ZM432.62,501.14h18.04v-2.48h-18.04v2.48ZM432.62,505.39h18.04v-2.52h-18.04v2.52ZM440.94,484.64c-.9,1.12-1.95,2.16-3.21,3.13-.5-.5-1.37-1.08-2.02-1.33,2.7-1.87,4.5-4.29,5.44-6.45l2.41.39c-.36.76-.76,1.48-1.22,2.23h12.31l.43-.11,1.8.54c-1.01,1.84-2.34,3.86-3.64,5.11l-2.12-.75c.76-.72,1.55-1.73,2.2-2.77h-5.76c.79,2.77,2.81,5.4,10.19,6.48-.5.5-1.12,1.51-1.37,2.16-6.12-1.08-8.75-3.38-10.08-5.98-1.4,2.66-4.07,4.36-9.18,5.37-.21-.58-.83-1.44-1.26-1.91,5.87-1.04,8.03-2.84,8.89-6.12h-3.82ZM446.63,507.62c3.89,1.26,8.17,2.81,10.8,4l-2.95,1.33c-2.23-1.15-6.12-2.67-10.05-3.96l2.2-1.37Z"/>
          <path d="M471.97,480.86c-1.01,2.52-2.27,5.08-3.67,7.42v24.49h-2.52v-20.63c-1.3,1.8-2.63,3.38-4,4.75-.25-.57-1.04-1.98-1.51-2.59,3.64-3.42,7.13-8.75,9.22-14.19l2.48.76ZM493.94,486.66v2.23h-23.26v-2.23h23.26ZM473.23,501.53h18.29v11.24h-2.67v-1.59h-13.04v1.69h-2.59v-11.34ZM491.2,493.83h-17.57v-2.2h17.57v2.2ZM473.63,496.6h17.5v2.16h-17.5v-2.16ZM490.55,483.92h-16.49v-2.2h16.49v2.2ZM475.83,503.69v5.29h13.04v-5.29h-13.04Z"/>
          <path d="M511.14,488.17h-14.19v-2.2h14.19v2.2ZM509.7,510.82h-8.71v1.66h-2.38v-12.06h11.09v10.41ZM498.65,490.84h11.16v2.12h-11.16v-2.12ZM498.65,495.59h11.16v2.16h-11.16v-2.16ZM509.81,483.42h-10.98v-2.16h10.98v2.16ZM500.99,502.61v6.05h6.3v-6.05h-6.3ZM526.27,509.96c1.12,0,1.33-1.12,1.47-5.58.65.5,1.69,1.01,2.45,1.15-.29,5.18-.97,6.95-3.74,6.95h-4.72c-2.92,0-3.74-.9-3.74-4.36v-10.59l-6.91,1.08-.4-2.52,7.31-1.12v-9.47c-1.95.43-3.89.79-5.73,1.08-.11-.61-.54-1.62-.86-2.27,5.26-.9,11.34-2.34,14.73-3.89l2.23,2.09c-2.16.9-4.86,1.69-7.71,2.38v9.65l8.93-1.37.47,2.52-9.4,1.44v11.02c0,1.51.25,1.8,1.44,1.8h4.18Z"/>
          <path d="M539.98,485.47c-.68,3.31-1.8,9.76-1.8,13.79,0,1.76.11,3.28.32,5.04.61-1.62,1.48-3.78,2.09-5.26l1.51,1.15c-.94,2.56-2.23,6.37-2.56,8.07-.11.54-.22,1.22-.18,1.62.04.4.07.9.11,1.26l-2.59.18c-.72-2.56-1.33-6.7-1.33-11.56,0-5.29,1.19-11.45,1.62-14.44.14-.83.25-1.77.25-2.56l3.21.29c-.18.61-.5,1.77-.65,2.41ZM548.37,503.8c0,1.66,1.19,3.24,6.09,3.24,3.24,0,6.01-.29,8.93-.94l.07,3.03c-2.27.43-5.29.76-9,.76-6.05,0-8.75-2.02-8.75-5.4,0-1.22.21-2.49.61-4.25l2.59.25c-.36,1.33-.54,2.34-.54,3.31ZM562.3,485.8v2.92c-3.85.43-10.84.43-14.8,0v-2.88c3.93.65,11.2.5,14.8-.04Z"/>
          <path d="M572.05,493.14v19.77h-2.63v-31.37h13.04v11.6h-10.41ZM572.05,483.56v2.77h7.89v-2.77h-7.89ZM579.94,491.16v-2.99h-7.89v2.99h7.89ZM598.99,509.71c0,1.44-.29,2.23-1.26,2.7-.9.43-2.45.47-4.72.47-.07-.65-.4-1.69-.72-2.38-.14.21-.29.43-.36.61-3.53-.94-6.16-2.81-7.81-5.4-1.04,2.02-3.31,4.03-8.1,5.51-.32-.5-1.04-1.33-1.58-1.8,5.08-1.4,7.06-3.46,7.78-5.33h-7.46v-2.05h7.85v-2.81h-7.24v-2.02h3.85c-.36-.94-.97-2.09-1.62-2.92l2.09-.69c.86,1.12,1.69,2.59,1.95,3.6h4.68c.61-1.12,1.37-2.59,1.73-3.67l2.41.79c-.61.97-1.26,2.02-1.84,2.88h4.25v2.02h-7.89v2.81h8.5v2.05h-7.92c1.51,2.56,4.21,4.32,7.89,5.04-.32.29-.72.76-1.04,1.19,1.51.07,2.92.07,3.35.04.47,0,.61-.18.61-.68v-16.49h-10.73v-11.63h13.36v28.16ZM588.18,483.56v2.77h8.17v-2.77h-8.17ZM596.36,491.23v-3.06h-8.17v3.06h8.17Z"/>
          <path d="M622.56,483.89c0,.54-.04,1.37-.04,2.34h.54c4.39,0,8.82.04,10.55.04l-.04,2.66c-2.02-.11-5.29-.18-10.55-.18h-.5c0,2.05.04,4.29.07,5.94.76,1.22,1.15,2.81,1.15,4.61,0,4.86-2.38,10.26-10.77,12.78l-2.41-2.38c4.79-1.08,8.1-3.1,9.54-6.37-.86.65-1.91.97-3.13.97-3.02,0-5.9-2.09-5.9-6.01,0-3.57,2.92-6.27,6.34-6.27.9,0,1.69.14,2.41.39,0-1.08,0-2.38-.04-3.64-5.47.04-11.59.29-16.1.61l-.07-2.77c4-.07,10.77-.29,16.13-.36,0-1.01-.04-1.88-.07-2.38-.04-.94-.18-1.98-.22-2.27h3.28c-.07.4-.14,1.8-.18,2.27ZM617.45,501.82c2.12,0,3.49-1.69,3.17-5.11-.57-1.58-1.8-2.27-3.2-2.27-1.87,0-3.64,1.47-3.64,3.82s1.66,3.56,3.67,3.56Z"/>
          <path d="M644.12,483.74c1.87,0,10.44-.29,12.35-.47,1.08-.07,1.58-.18,1.95-.29l1.66,2.09c-.65.47-1.37.94-2.02,1.48-1.8,1.37-6.7,5.54-9.51,7.89,1.66-.58,3.38-.76,5.01-.76,5.98,0,10.26,3.6,10.26,8.46,0,5.8-4.75,9.54-12.39,9.54-4.9,0-7.89-2.12-7.89-5.11,0-2.48,2.2-4.68,5.55-4.68,4.5,0,6.91,2.95,7.35,6.37,2.88-1.12,4.5-3.21,4.5-6.16,0-3.53-3.39-6.2-8.07-6.2-6.02,0-9.22,2.56-13.79,7.2l-2.05-2.12c2.99-2.45,7.6-6.3,9.69-8.07,2.02-1.66,6.52-5.44,8.35-7.06-1.91.07-9.11.4-11.02.51-.79.04-1.62.11-2.38.22l-.11-2.99c.83.11,1.84.14,2.56.14ZM650.97,509.17c1.04,0,2.02-.07,2.92-.22-.29-2.85-2.09-4.9-4.83-4.9-1.62,0-2.88,1.04-2.88,2.3,0,1.73,1.98,2.81,4.79,2.81Z"/>
          <path d="M677.28,493.39c1.26,1.3,4.57,5.11,5.33,6.09l-1.66,2.2c-.68-1.19-2.3-3.46-3.67-5.22v16.38h-2.52v-17.21c-1.4,4.14-3.28,8.14-5.22,10.59-.29-.76-.97-1.8-1.41-2.45,2.49-2.99,5.04-8.57,6.3-13.54h-5.51v-2.52h5.83v-7.71h2.52v7.71h5.15v2.52h-5.15v3.17ZM700.11,482.12v30.39h-2.63v-2.05h-10.91v2.16h-2.56v-30.5h16.1ZM686.57,484.64v6.01h10.91v-6.01h-10.91ZM686.57,499.3h10.91v-6.2h-10.91v6.2ZM697.48,507.98v-6.23h-10.91v6.23h10.91Z"/>
          <path d="M717.78,488.17h-13.32v-2.2h13.32v2.2ZM716.6,510.82h-8.18v1.66h-2.34v-12.06h10.52v10.41ZM716.56,492.96h-10.44v-2.12h10.44v2.12ZM706.12,495.59h10.44v2.16h-10.44v-2.16ZM716.49,483.42h-10.23v-2.16h10.23v2.16ZM708.42,502.61v6.05h5.87v-6.05h-5.87ZM728.98,500.02c0,1.98,1.26,7.85,8.71,10.62-.5.61-1.26,1.66-1.62,2.27-5.47-2.2-7.88-6.84-8.43-9-.54,2.2-3.06,6.7-9.36,9-.32-.58-1.04-1.62-1.58-2.16,8.36-2.88,9.62-8.68,9.62-10.73v-5.15h2.66v5.15ZM717.57,504.05c1.73-1.26,2.84-3.75,3.35-6.27l2.38.5c-.5,2.7-1.66,5.44-3.6,7.02l-2.12-1.26ZM735.54,495.99c-1.8-1.62-5.22-4.04-8.25-5.94-1.4,2.81-3.78,4.82-7.96,6.23-.29-.65-.97-1.58-1.51-2.09,7.38-2.27,8.39-6.52,8.75-14.15h2.59c-.14,3.02-.39,5.58-1.01,7.74,3.17,1.91,7.09,4.46,9.15,6.19l-1.76,2.02ZM723.51,482.88c-.36,2.38-1.33,4.97-3.03,6.45l-2.05-1.01c1.51-1.22,2.48-3.6,2.85-5.87l2.23.43ZM736.58,483.13c-1.15,2.02-2.49,4.29-3.6,5.72l-1.98-.83c1.04-1.55,2.38-4.03,3.06-5.8l2.52.9ZM731.07,503.8c1.15-1.66,2.59-4.39,3.35-6.27l2.59.9c-1.22,2.16-2.7,4.64-3.93,6.23l-2.02-.87Z"/>
          <path d="M754.58,489.61c-.72,4.21-1.69,7.96-3.06,11.2,1.69,2.23,3.1,4.39,4,6.16l-2.16,1.84c-.72-1.51-1.84-3.35-3.13-5.26-2.02,3.71-4.65,6.73-8.14,9.04-.32-.5-1.3-1.58-1.87-2.05,3.75-2.23,6.41-5.37,8.36-9.33-1.98-2.67-4.25-5.4-6.38-7.67l1.87-1.51c1.87,1.94,3.85,4.21,5.65,6.45,1.01-2.74,1.76-5.83,2.27-9.22l2.59.36ZM757.71,488.43h-16.64v-2.48h6.84v-5.87h2.56v5.87h7.24v2.48ZM773.34,491.2h-4.29v18.04c0,1.8-.43,2.59-1.51,3.1-1.08.43-2.88.5-5.98.5-.11-.72-.47-1.98-.87-2.77,2.27.07,4.25.07,4.86.04.61-.04.87-.22.87-.87v-18.04h-9.83v-2.56h9.83v-8.64h2.63v8.64h4.29v2.56ZM760.91,504.02c-.58-2.12-2.2-5.58-3.89-8.07l2.2-1.01c1.73,2.45,3.42,5.76,3.96,7.92l-2.27,1.15Z"/>
          <path d="M782.04,487.2v6.73c0,5.47-.5,13.54-3.56,18.98-.47-.47-1.62-1.22-2.27-1.51,2.92-5.15,3.21-12.35,3.21-17.47v-9.29h13.22v-4.61h2.74v4.61h13.72v2.56h-27.04ZM782.08,508.38c1.8-2.74,2.74-7.13,3.17-10.91l2.45.54c-.5,3.93-1.4,8.61-3.24,11.45l-2.38-1.08ZM799.18,509.74c1.48,0,1.69-.9,1.8-6.16.61.43,1.69.9,2.41,1.08-.29,5.94-.97,7.53-4.03,7.53h-5.26c-3.13,0-3.96-.9-3.96-3.89v-13.9h2.63v13.9c0,1.22.29,1.44,1.66,1.44h4.75ZM798.97,495.66c-1.73-1.62-5.33-4-8.28-5.55l1.84-1.73c2.88,1.4,6.52,3.67,8.35,5.29l-1.91,1.98ZM804.48,496.67c2.38,3.67,4.64,8.5,5.26,11.7l-2.56,1.12c-.61-3.17-2.74-8.1-5.08-11.85l2.38-.97Z"/>
          <path d="M215.65,653.83v19.08h-2.66v-31.37h13v12.28h-10.34ZM215.65,643.64v2.99h7.78v-2.99h-7.78ZM223.43,651.77v-3.17h-7.78v3.17h7.78ZM231.21,660.16v9.04c0,1.26-.25,1.91-1.12,2.3-.9.4-2.27.4-4.39.4-.14-.65-.5-1.58-.83-2.23,1.51.07,2.92.04,3.35.04.4-.04.54-.14.54-.54v-6.95c-2.52,3.1-6.16,5.94-9.4,7.53-.43-.61-1.19-1.47-1.69-1.94,3.6-1.48,7.63-4.46,10.08-7.63h-9.11v-2.23h10.12v-3.21h2.45v3.21h5.58v2.23h-5.58ZM242.51,669.28c0,1.8-.43,2.67-1.66,3.13-1.19.43-3.24.47-6.41.47-.11-.76-.54-2.02-.94-2.74,2.38.11,4.72.07,5.44.04.65,0,.87-.21.87-.9v-15.41h-10.62v-12.32h13.32v27.73ZM231.75,643.64v2.99h8.07v-2.99h-8.07ZM239.81,651.81v-3.21h-8.07v3.21h8.07Z"/>
          <path d="M279.81,644.64v2.56h-27.08v6.73c0,5.47-.5,13.54-3.56,18.98-.47-.47-1.62-1.22-2.27-1.51,2.92-5.15,3.21-12.35,3.21-17.47v-9.29h13.22v-4.61h2.74v4.61h13.76ZM267.24,652.24h12.06v2.41h-12.06v5.15h9.65v13.04h-2.7v-1.33h-15.56v1.4h-2.63v-13.11h8.54v-11.85h2.7v4.29ZM274.19,662.18h-15.56v6.91h15.56v-6.91Z"/>
          <path d="M332.37,663.48c-4.5,1.33-9.29,2.74-12.78,3.78l-.72-2.55c1.58-.4,3.53-.9,5.65-1.51v-8.71h-4.54v-2.48h4.54v-7.67h-4.97v-2.45h12.28v2.45h-4.75v7.67h4.43v2.48h-4.43v8.03l4.97-1.4.32,2.38ZM349.25,670.32c.83,0,.97-.54,1.08-4.25.5.47,1.59.86,2.23,1.04-.18,4.39-.86,5.51-3.02,5.51h-3.49c-2.56,0-3.21-.76-3.21-3.35v-7.99h-3.53c-.72,5.73-2.66,9.65-9.65,11.81-.25-.61-.97-1.69-1.51-2.2,6.34-1.73,7.96-4.97,8.53-9.61h-3.2v-19.7h16.82v19.7h-4.9v7.99c0,.9.14,1.04,1.04,1.04h2.81ZM336,647.45h11.67v-3.6h-11.67v3.6ZM336,653.18h11.67v-3.6h-11.67v3.6ZM336,659.01h11.67v-3.67h-11.67v3.67Z"/>
          <path d="M372.87,669.35h14.08v2.38h-30.54v-2.38h13.68v-8.89h-12.06v-2.34h12.06v-4.83h-7.42v-2.05c-1.87,1.37-3.89,2.66-5.94,3.75-.29-.61-1.04-1.55-1.62-2.09,6.19-3.13,12.1-8.43,14.91-12.93h2.66c3.82,5.15,10.05,9.97,15.63,12.46-.65.68-1.29,1.59-1.73,2.38-1.98-1.01-4.03-2.3-6.01-3.74v2.23h-7.71v4.83h12.35v2.34h-12.35v8.89ZM363.18,661.43c1.48,1.98,2.92,4.64,3.42,6.45l-2.3,1.01c-.47-1.8-1.87-4.57-3.28-6.62l2.16-.83ZM380.36,650.91c-3.53-2.56-6.77-5.55-8.86-8.36-1.87,2.7-4.9,5.69-8.43,8.36h17.29ZM375.86,667.98c1.3-1.76,2.95-4.61,3.85-6.62l2.52.97c-1.33,2.27-3.02,4.86-4.39,6.55l-1.98-.9Z"/>
          <path d="M395.15,660.81c-.5,3.39-1.3,6.81-2.45,9.11-.4-.29-1.44-.76-1.94-.94,1.12-2.2,1.8-5.44,2.2-8.57l2.2.39ZM401.12,651.45c1.37,2.38,2.63,5.51,3.06,7.53l-2.05.86c-.11-.65-.32-1.44-.61-2.27l-2.66.14v15.16h-2.34v-15.02c-1.98.14-3.85.25-5.47.36l-.22-2.41c.79-.04,1.69-.07,2.63-.11.69-.9,1.4-1.91,2.12-3.02-1.04-1.62-2.84-3.71-4.5-5.26l1.44-1.66c.36.32.76.72,1.12,1.08,1.15-2.05,2.45-4.82,3.17-6.8l2.3.86c-1.22,2.48-2.77,5.44-4.03,7.42.72.79,1.37,1.59,1.87,2.27,1.4-2.23,2.7-4.57,3.64-6.48l2.2.97c-1.95,3.35-4.61,7.46-6.91,10.48l4.82-.25c-.43-1.08-.94-2.16-1.44-3.13l1.87-.72ZM401.77,660.31c.9,2.05,1.59,4.75,1.8,6.52l-2.02.58c-.11-1.76-.83-4.46-1.66-6.52l1.87-.58ZM423.78,650.12v6.16h-2.52v-3.89h-14.98v3.89h-2.41v-6.16h5.11c-.29-1.33-.87-3.06-1.48-4.43l.29-.07h-3.67v-2.3h8.25v-3.31h2.66v3.31h8.36v2.3h-3.1c-.65,1.58-1.37,3.2-2.05,4.5h5.55ZM421.9,666.57c0,1.12-.22,1.84-1.04,2.27-.79.36-1.94.39-3.78.39-.07-.65-.43-1.66-.79-2.27,1.33.04,2.41.04,2.81,0,.29,0,.4-.11.4-.47v-7.31h-4.57v13.65h-2.45v-13.65h-4.25v10.16h-2.41v-12.42h6.66v-3.38h2.45v3.38h6.99v9.65ZM410.05,645.62c.65,1.48,1.26,3.28,1.48,4.5h4.11c.61-1.26,1.33-3.06,1.8-4.5h-7.38Z"/>
          <path d="M449.47,645.08c-.18.79-.36,1.62-.58,2.48,5.76.94,9.72,5.37,9.72,11.56,0,7.16-5.15,11.52-12.86,12.6l-1.69-2.56c7.53-.65,11.7-4.61,11.7-10.16,0-4.68-2.92-8.21-7.56-9-1.37,4.57-3.21,9.29-5.26,12.24.72.94,1.48,1.8,2.23,2.52l-2.27,1.87c-.58-.65-1.15-1.33-1.69-2.09-2.23,2.7-4.43,4.5-7.13,4.5s-5-2.27-5-6.48,2.27-8.5,5.54-11.16c-.4-1.12-.76-2.23-1.08-3.31-.32-1.12-.76-2.3-1.19-3.24l2.99-.97c.18,1.01.47,2.2.72,3.21.21.83.54,1.8.86,2.81,3.06-1.8,6.12-2.52,9.25-2.56.22-.9.43-1.76.58-2.63.11-.72.22-1.91.22-2.73l3.1.29c-.25.9-.47,2.12-.61,2.81ZM434.39,666.21c1.76,0,3.67-1.8,5.26-3.93-.29-.43-.54-.9-.83-1.37-1.04-1.62-2.2-4.18-3.24-6.91-2.38,2.23-3.89,5.54-3.89,8.35,0,2.38,1.08,3.85,2.7,3.85ZM441.3,659.84c1.55-2.55,3.1-6.3,4.21-10.01-2.81.14-5.37,1.01-7.74,2.48.9,2.48,1.95,4.9,2.81,6.34.22.4.47.79.72,1.19Z"/>
          <path d="M223.43,803.85c-.04.86-.11,2.27-.14,3.89,2.63-.32,5.37-.83,7.42-1.44l.07,2.81c-2.12.5-4.93.97-7.56,1.26-.04,1.69-.07,3.42-.07,4.86v1.26c2.74-.87,5.55-1.33,7.92-1.33,5.26,0,9.04,2.84,9.04,7.16s-2.74,7.13-7.67,8.32c-1.62.36-3.21.43-4.46.5l-1.01-2.92c1.33.04,2.88.04,4.21-.25,3.17-.61,6.05-2.3,6.05-5.62,0-3.06-2.77-4.72-6.19-4.72-2.7,0-5.26.5-7.85,1.4.07,3.06.14,6.27.14,7.81,0,3.35-1.22,4.43-3.17,4.43-2.81,0-7.49-2.77-7.49-5.98,0-2.99,3.74-6.12,7.89-7.89v-2.05c0-1.44,0-3.13.04-4.72-1.01.07-1.91.11-2.66.11-2.05,0-3.38-.04-4.61-.18l-.07-2.74c1.98.25,3.28.29,4.61.29.83,0,1.76-.04,2.77-.11,0-1.87.04-3.46.04-4.11,0-.72-.07-1.94-.18-2.56h3.21c-.11.65-.22,1.66-.25,2.48ZM219.4,828.23c.83,0,1.33-.57,1.33-1.76,0-1.3-.07-3.74-.11-6.37-2.95,1.37-5.15,3.46-5.15,5.08s2.52,3.06,3.93,3.06ZM243.09,810.62l-1.48,2.3c-1.77-1.69-5.76-4.18-8.07-5.4l1.29-2.16c2.56,1.37,6.48,3.82,8.25,5.26Z"/>
          <path d="M271.85,810.01c-1.73,2.67-4.21,4.97-7.09,6.91,4.03,1.87,8.89,3.13,13.97,3.78-.61.65-1.33,1.76-1.69,2.56-1.66-.25-3.28-.58-4.86-.97v10.52h-2.7v-1.15h-14.55v1.19h-2.56v-10.19c-1.84.58-3.67,1.04-5.47,1.44-.25-.68-.83-1.77-1.33-2.34,4.83-.87,9.9-2.48,14.22-4.72-1.84-1.22-3.49-2.63-4.86-4.21-1.62,1.3-3.49,2.48-5.62,3.53-.4-.61-1.19-1.48-1.8-1.91,4.93-2.2,8.43-5.33,10.23-8.1l2.88.54c-.5.72-1.04,1.44-1.66,2.12h10.62l.47-.11,1.8,1.12ZM249.63,809.97h-2.56v-6.73h13.65v-3.2h2.7v3.2h13.79v6.73h-2.67v-4.25h-24.92v4.25ZM270.7,821.89c-3.06-.87-5.9-1.98-8.46-3.39-2.38,1.33-4.93,2.45-7.56,3.39h16.02ZM269.48,829.35v-5.22h-14.55v5.22h14.55ZM256.8,811.27c1.4,1.66,3.28,3.1,5.47,4.36,2.16-1.33,4.03-2.85,5.47-4.5h-10.84l-.11.14Z"/>
          <path d="M296.83,801.8l3.06-.4c.29,1.69.94,4.07,1.66,6.16,2.59-.36,5.58-.94,8.03-1.76l.32,2.81c-2.2.65-5.04,1.15-7.45,1.48,1.12,2.77,2.7,5.54,4.03,7.42.5.68,1.04,1.3,1.58,1.91l-1.48,2.02c-1.73-.4-6.09-.79-8.68-.97l.22-2.41c2.02.18,4.68.4,5.98.54-1.4-2.05-3.13-5.22-4.36-8.21-4.29.39-9.47.36-15.12-.07l-.07-2.88c5.29.65,10.3.72,14.22.43-.43-1.33-.79-2.41-1.04-3.24-.25-.76-.58-1.88-.9-2.81ZM288.41,823.91c0,3.42,3.13,4.93,8.46,4.97,3.67.04,6.77-.32,9.29-.9l-.14,2.88c-2.23.4-5.29.79-9.29.79-6.84-.04-11.16-2.52-11.16-7.42,0-1.98.72-3.85,1.73-5.98l2.81.65c-1.08,1.73-1.69,3.28-1.69,5.01Z"/>
          <path d="M331.65,803.96c0,.47-.04,1.26-.04,2.2,3.24-.14,6.52-.47,9.76-.97l-.04,2.63c-2.85.32-6.27.65-9.72.83v5.04c3.49-.14,6.77-.47,10.05-.97l-.04,2.7c-3.38.43-6.55.72-9.97.83.07,1.88.18,3.82.25,5.55,4.79,1.3,8.46,3.93,10.52,5.62l-1.66,2.56c-2.12-1.95-5.11-4.14-8.71-5.44.04.9.07,1.66.07,2.23,0,2.48-1.66,5.04-6.34,5.04-5.19,0-7.99-1.84-7.99-5.29,0-3.28,3.13-5.51,8.32-5.51,1.04,0,2.05.07,3.02.22-.04-1.62-.11-3.35-.14-4.9h-2.05c-2.45,0-6.41-.22-9-.5l-.04-2.7c2.59.43,6.7.69,9.07.69h1.95v-5.04h-1.58c-2.52,0-6.95-.36-9.22-.61l-.04-2.66c2.34.43,6.81.79,9.22.79h1.66v-2.56c0-.61-.07-1.66-.14-2.16h3.06c-.11.65-.18,1.37-.22,2.41ZM325.45,829.28c2.05,0,3.82-.65,3.82-3.13,0-.61-.04-1.48-.04-2.41-1.12-.25-2.3-.36-3.49-.36-3.42,0-5.29,1.33-5.29,2.99s1.44,2.92,5.01,2.92Z"/>
          <path d="M350.18,817.9c1.91-1.95,4.93-6.05,7.06-8.61,2.12-2.45,3.96-2.81,6.34-.39,2.2,2.2,4.93,5.76,7.24,8.25,2.2,2.41,5.76,6.16,9,9.04l-2.3,2.63c-2.7-2.56-5.98-6.23-8.46-9.04-2.34-2.67-5.08-6.12-6.73-8-1.55-1.66-2.23-1.4-3.49.11-1.69,2.12-4.61,6.09-6.45,8.32-.76.94-1.59,2.02-2.12,2.77l-2.66-2.7c.9-.68,1.62-1.41,2.59-2.38Z"/>
          <path d="M400.59,831.26l-1.69-2.67c1.15-.11,2.27-.29,3.1-.47,4.61-1.04,9.15-4.46,9.15-10.7,0-5.44-3.49-9.94-9.61-10.44-.47,3.35-1.15,7.02-2.16,10.37-2.2,7.42-5.04,11.2-8.39,11.2s-6.41-3.67-6.41-9.61c0-7.82,6.95-14.66,15.74-14.66s13.79,5.94,13.79,13.25-4.97,12.61-13.5,13.72ZM391.08,825.24c1.69,0,3.6-2.41,5.44-8.5.9-2.99,1.62-6.41,2.02-9.72-6.91.87-11.16,6.77-11.16,11.67,0,4.54,2.09,6.55,3.71,6.55Z"/>
          <path d="M444.44,807.99c-.76,3.78-2.52,9.58-5.37,13.29-3.28,4.21-7.56,7.56-14.19,9.65l-2.45-2.7c6.99-1.76,11.02-4.82,14.04-8.68,2.56-3.28,4.21-8.28,4.72-11.74h-18.4c-1.44,0-2.66.07-3.6.11v-3.17c1.01.11,2.41.22,3.6.22h18.08c.54,0,1.22,0,1.91-.18l2.2,1.4c-.25.5-.4,1.12-.54,1.8Z"/>
          <path d="M466.04,810.55c0,.68.04,1.69.07,2.92h5.19c.72,0,1.91-.07,2.41-.14v2.85c-.61-.04-1.66-.11-2.34-.11h-5.22c.07,4.54.18,10.45.22,13.83.04,1.55-1.12,2.48-2.7,2.48-1.44,0-3.78-.11-5.22-.21l-.14-2.63c1.44.21,3.31.32,4.39.32.65,0,.97-.4.97-1.04,0-2.27-.04-6.3-.11-10.12-2.45,3.46-7.63,8.03-12.53,10.62l-2.02-2.23c5.4-2.59,10.88-7.35,13.32-11.02h-9.62c-.97,0-1.87.07-2.74.14v-2.88c.83.11,1.8.14,2.66.14h10.84c-.04-1.22-.07-2.23-.11-2.92,0-.72-.11-1.62-.25-2.45h3.06c-.11.79-.14,1.62-.14,2.45Z"/>
          <path d="M482.77,805.54h19.34c.79,0,2.09,0,3.17-.07-.07.9-.07,1.91-.07,2.81v17.75c0,1.15.04,3.96.07,4.36h-3.1c0-.25.04-1.12.04-2.09h-19.66c.04.94.04,1.8.07,2.09h-3.1c.04-.47.11-3.13.11-4.39v-17.72c0-.83,0-1.95-.07-2.81,1.4.04,2.38.07,3.21.07ZM482.56,825.49h19.7v-17.11h-19.7v17.11Z"/>
          <path d="M518.38,814.73h19.73c1.8,0,3.1-.11,3.89-.18v3.53c-.72-.04-2.23-.18-3.85-.18h-19.77c-1.98,0-3.89.07-5,.18v-3.53c1.08.07,2.99.18,5,.18Z"/>
          <path d="M564.03,831.26l-1.69-2.67c1.15-.11,2.27-.29,3.1-.47,4.61-1.04,9.15-4.46,9.15-10.7,0-5.44-3.49-9.94-9.61-10.44-.47,3.35-1.15,7.02-2.16,10.37-2.2,7.42-5.04,11.2-8.39,11.2s-6.41-3.67-6.41-9.61c0-7.82,6.95-14.66,15.74-14.66s13.79,5.94,13.79,13.25-4.97,12.61-13.5,13.72ZM554.52,825.24c1.69,0,3.6-2.41,5.44-8.5.9-2.99,1.62-6.41,2.02-9.72-6.91.87-11.16,6.77-11.16,11.67,0,4.54,2.09,6.55,3.71,6.55Z"/>
          <path d="M596.72,807.78h-11.31v5.04h-2.41v-6.99h13.72v-2.2h-11.67v-2.09h26.14v2.09h-11.88v2.2h13.97v6.99h-2.48v-5.04h-11.49v8.21h-2.59v-8.21ZM609.86,830.43c1.91,0,2.27-.61,2.45-4.21.61.39,1.58.76,2.34.9-.4,4.36-1.22,5.44-4.61,5.44h-8.28c-4.03,0-5.15-.69-5.15-3.56v-1.15h-7.99v1.87h-2.56v-12.5h24.27v10.62h-11.16v1.15c0,1.22.43,1.44,2.7,1.44h7.99ZM586.6,813.36h8.28v1.69h-8.28v-1.69ZM594.88,811.38h-7.6v-1.66h7.6v1.66ZM588.61,819.16v2.48h7.99v-2.48h-7.99ZM596.61,825.89v-2.45h-7.99v2.45h7.99ZM607.74,819.16h-8.57v2.48h8.57v-2.48ZM607.74,825.89v-2.45h-8.57v2.45h8.57ZM608.92,809.72v1.66h-7.71v-1.66h7.71ZM601.22,813.36h8.57v1.69h-8.57v-1.69Z"/>
          <path d="M617.63,806.05h13.32v2.2h-13.32v-2.2ZM629.87,831.22h-8.28v1.62h-2.34v-12.03h10.62v10.41ZM629.76,813.14h-10.44v-2.12h10.44v2.12ZM619.32,815.91h10.44v2.12h-10.44v-2.12ZM629.69,803.42h-10.15v-2.16h10.15v2.16ZM621.59,823.01v6.01h5.94v-6.01h-5.94ZM642.29,813v6.01h6.77v13.65h-2.66v-1.58h-10.59v1.8h-2.52v-13.87h6.3v-6.01h-8.39v-2.56h8.39v-5.73c-2.3.29-4.61.51-6.77.69-.07-.65-.47-1.62-.76-2.23,5.4-.54,11.81-1.44,15.41-2.56l1.95,2.16c-2.02.61-4.5,1.12-7.13,1.55v6.12h8.43v2.56h-8.43ZM646.4,821.46h-10.59v7.2h10.59v-7.2Z"/>
          <path d="M219.14,985.6c1.69,2.63,4.83,3.85,8.97,4.04,3.93.14,11.92.04,16.13-.25-.29.65-.76,1.91-.86,2.74-3.93.14-11.31.21-15.27.07-4.68-.18-7.88-1.48-10.19-4.25-1.73,1.51-3.53,3.06-5.44,4.61l-1.44-2.7c1.66-1.08,3.67-2.59,5.47-4.11v-9.11h-5.01v-2.52h7.63v11.49ZM218.39,968.39c-1.15-1.73-3.82-4.1-6.12-5.72l1.95-1.59c2.34,1.51,5.04,3.85,6.27,5.58l-2.09,1.73ZM221.66,984.95c.76-.14,1.58-.32,2.48-.54v-22.87h16.35v13.4h-6.91c.5,1.44,1.19,2.81,1.98,4.07,1.95-1.26,4.25-2.99,5.65-4.25l2.12,1.55c-2.05,1.51-4.5,3.17-6.59,4.32,1.87,2.23,4.25,3.89,7.13,4.82-.58.51-1.33,1.55-1.69,2.27-5.51-2.16-9.11-6.73-11.02-12.78h-4.43v8.86c2.23-.5,4.68-1.08,7.09-1.69l.22,2.34c-4.21,1.08-8.61,2.2-11.92,2.99l-.47-2.48ZM226.74,963.85v3.31h11.16v-3.31h-11.16ZM237.9,972.64v-3.42h-11.16v3.42h11.16Z"/>
          <path d="M279.6,969.72c-.4,15.09-.72,20.09-1.84,21.57-.65.9-1.29,1.19-2.34,1.29-.97.11-2.56.11-4.18,0-.07-.72-.32-1.8-.76-2.48,1.66.18,3.17.18,3.82.18.58,0,.9-.11,1.19-.58.86-1.04,1.26-5.73,1.55-18.8h-5.22c-.4,9.61-1.8,17.36-7.31,22.11-.4-.57-1.33-1.48-1.94-1.87.5-.4.94-.83,1.37-1.3-5.94.72-12.06,1.44-16.35,1.95l-.36-2.34c2.16-.18,4.9-.47,7.89-.79v-3.28h-6.55v-1.98h6.55v-2.74h-7.09v-2.05h7.09v-2.23h-6.41v-7.67h15.56v7.67h-6.7v2.23h7.2v2.05h-7.2v2.74h6.88v1.98h-6.88v2.99c2.34-.25,4.82-.54,7.24-.83l.04,1.26c3.31-4.29,4.29-10.45,4.54-17.9h-4.11v-2.48h4.18c.07-2.56.07-5.29.07-8.1h2.48c0,2.81-.04,5.51-.07,8.1h7.67v1.3ZM251.47,965.18h-4.07v-2.09h4.07v-3.06h2.45v3.06h4.82v-3.06h2.45v3.06h4.25v2.09h-4.25v2.77h-2.45v-2.77h-4.82v2.77h-2.45v-2.77ZM255.11,974.44v-3.75h-4.07v3.75h4.07ZM261.77,970.69h-4.21v3.75h4.21v-3.75Z"/>
        </g>
      </g>
      <rect class="cls-1" width="809.73" height="993.16"/>
    </g>
  </g>
</svg>