<?xml version="1.0" encoding="UTF-8"?>
<svg id="_レイヤー_2" data-name="レイヤー 2" xmlns="http://www.w3.org/2000/svg" viewBox="0 0 221.1 348.79">
  <defs>
    <style>
      .cls-1 {
        fill: #ca5393;
      }

      .cls-2 {
        fill: #d4812b;
      }

      .cls-3 {
        fill: #fff;
      }
    </style>
  </defs>
  <g id="_背景" data-name="背景">
    <g>
      <g>
        <path class="cls-2" d="M172.82,1.83c9.69,14.63-4.39,27.25-8.78,40.06-1.65,1.46-3.11,3.11-2.75,5.49,5.49.73,7.68-6.95,12.62-8.78,6.22-8.6,17.56-5.3,26.52-5.49,6.77,1.83,19.02-4.39,20.67,4.76-3.29,7.13-8.96,13.72-13.9,19.75-11.89,5.12-27.44,5.49-39.51,2.74,9.88,15,26.52,26.52,22.5,46.64-6.22,10.61-13.91,19.76-20.49,30.18-6.4,3.47-11.52,9.69-15.91,15-5.31.55-2.2,5.67-3.11,8.6,2.2,11.16,2.01,21.77,3.11,33.29,1.28,11.52,2.56,22.86,2.01,34.75-1.46,2.56-2.19,5.85-1.28,8.78,1.46,3.66,3.11,7.32,6.4,10.24l7.13,1.28c-1.83,4.21-.36,11.52-6.76,12.25-8.23,4.76-19.57,2.38-26.16,11.34-4.39,2.74-6.95,6.03-10.61,10.06-5.49,5.85-3.47,15.55-4.02,22.5,2.38,6.04,7.13,10.98,9.51,17.01,4.02,1.47,3.84,6.04,4.76,9.51.55,6.59-7.14,8.41-10.61,12.62-5.12,2.93-11.34,6.22-17.38,3.11-2.74-2.01-4.02-4.76-4.02-7.87,1.83-6.95,9.15-11.16,15.55-13.9-.55-6.95-9.14-10.43-10.42-17.74-3.11-8.23-6.59-16.46-8.96-24.88-1.83-5.67,2.93-8.78,3.84-13.54-4.21-2.56-10.24-2.56-15-4.76-11.16-.73-22.5-4.75-34.75-2.74-2.38,6.04-1.83,13.17-3.66,19.39-1.46,3.84.36,9.14-2.01,12.62.37,7.32-.36,15-.73,21.03-3.48,3.29-8.23,6.77-13.9,4.76-8.6-2.93-19.75-5.85-22.86-16.28-1.1-4.21-.18-8.78,2.38-12.26,1.46-1.83,4.39-.36,5.49-3.11,5.67-.18,10.24,3.84,14.63,5.86l1.65,1.65,1.1-1.28c-3.29-11.52,0-25.97-2.74-37.86.73-5.31,4.21-10.61,9.14-12.62,6.04-2.56,13.17-.37,19.76-.55-3.29-21.4,1.46-42.44,11.16-60,2.56-10.06,5.67-19.75,7.86-30.18-6.76-5.12-12.25-10.61-19.39-14.63-7.68-10.61-24.87-18.11-21.03-34.02,4.94-14.08,9.7-28.17,12.8-42.98-4.2-1.1-8.78-1.1-13.17-1.65-9.33-3.48-19.57-7.87-25.24-16.65,8.41-5.67,20.3-4.94,30.73-6.77,7.86,2.74,14.63,8.41,21.03,14.27.91-.37,2.2.18,2.74-1.1-9.33-10.79-18.84-22.31-28.9-33.29-1.28-1.65-.92-4.39-.36-6.22,2.56-1.1,5.31-2.93,8.41-1.65l21.77,7.13c4.57-2.56,8.96-5.85,14.63-6.4,2.19-2.01,4.57.55,6.95.92,5.12,2.93,4.39,10.06,3.3,15-.92,2.56-3.11,4.57-4.02,7.13,2.2,4.02,7.32,3.84,9.51,7.87,7.32.37,14.64-3.48,21.77-.37,6.03-.37,4.94-7.13,7.86-10.79-4.57-4.75-10.79-8.05-13.72-14.63-.92-1.1-.92-2.93,0-4.21,9.33-7.87,23.05-2.2,33.47-.55,5.85-5.85,14.81-13.17,23.41-7.86Z"/>
        <path class="cls-3" d="M154.16,32.38l-5.85,10.24-9.88-3.66c1.83-4.21,4.94-8.6,3.1-14.09-3.84-3.66-9.33-4.75-11.89-9.51,7.87-.36,14.27,5.12,22.14,5.85,3.29.73,4.39-3.29,6.03-5.12l5.49-5.49c3.47,8.96-9.88,12.99-9.15,21.77Z"/>
        <path class="cls-3" d="M82.64,20.85c.92,5.67-7.87,6.59-6.77,11.89,2.75,3.29,5.49,7.32,9.15,9.88-2.74.18-5.86,5.12-7.87.37-7.87-7.68-14.82-14.82-23.05-21.4,5.12,1.1,9.69,2.93,13.54,6.77,6.58,1.46,8.41-8.6,15-7.5Z"/>
        <path class="cls-3" d="M172.82,87.62c3.47,6.95,3.84,17.19-.37,23.78-4.58,6.22-11.52,6.59-18.29,7.13-6.77.18-11.71-5.67-14.27-10.97-4.03-6.22-2.56-16.1,1.64-21.77,5.49-5.3,12.62-9.51,20.67-6.76,3.84,2.19,7.87,4.57,10.61,8.59Z"/>
        <path class="cls-3" d="M88.13,93.29c2.74,8.05,5.3,18.84-.73,25.97-6.4,4.57-16.09,3.66-22.5,0-4.76-3.66-11.89-7.68-11.89-14.63-.19-7.87.73-16.28,8.23-20.12,9.69-2.38,22.13-1.83,26.89,8.78Z"/>
        <path d="M167.69,97.13c1.28,7.68-2.56,13.72-9.15,17.92-3.84-.18-6.77.73-9.51-2.01-5.3-4.57-6.77-11.71-5.85-17.92,1.1-1.1.55-4.57,3.48-3.84,2.38-1.83,4.94-4.94,8.41-3.11,4.39,2.38,9.88,4.39,12.62,8.96Z"/>
        <path d="M79.9,98.41c2.93,1.83,2.56,5.49,2.01,8.23-1.65,3.11-.18,5.85-2.93,8.41-2.38,2.56-5.85,1.47-8.96,1.1-1.83-.91-4.57.73-6.4-1.65-4.76-4.39-4.21-9.88-3.48-16.1,1.28-3.11,4.39-4.94,7.5-5.67,4.57.73,8.23,3.47,12.25,5.67Z"/>
        <path class="cls-3" d="M131.29,128.41c2.01,4.02,2.74,8.41.73,12.62l-3.11,3.29c-8.41,1.65-17.01,2.01-25.42,1.1-5.12-.73-7.68-4.76-10.97-8.23-2.2-4.21-1.46-9.15,1.1-13.17,7.32-3.29,16.1-7.5,25.42-4.75,4.76,1.65,9.51,4.39,12.25,9.15Z"/>
        <path d="M116.66,125.66c.73,2.56-1.65,3.66-3.11,4.76-3.84.18-7.68-.37-9.51-3.66-1.83-4.39,2.74-3.84,5.12-5.12,2.38.55,6.58.36,7.5,4.02Z"/>
        <path d="M124.16,131.52c0,2.74-1.1,5.31-3.66,6.4-1.83-1.09-2.93,2.56-5.12,2.38-2.01,2.19-4.94,1.83-7.5,2.38-3.66-2.56-9.69-3.11-10.97-7.86-.19-2.01,1.46-4.02,3.47-4.39,5.12.55,5.67,10.24,11.52,5.12,4.02-1.28,8.23-9.14,12.25-4.02Z"/>
        <path class="cls-3" d="M138.06,154.56l1.09,2.38c-2.2,17.01,6.22,33.66,0,49.75,1.65,5.49-3.11,8.05-2.01,13.17-5.85,7.87-6.03,18.29-15,24.51-.92,3.29-5.3,4.76-7.14,7.5-4.21,3.29-5.67,13.35-12.62,9.88-6.04-2.2-11.89-4.94-18.11-6.77-1.28-2.74-4.03-3.29-6.04-5.49-2.56-4.39-4.75-8.78-5.49-13.9-4.39-8.41,3.11-14.82,1.1-23.78,2.93-2.93,2.38-7.14,5.12-10.24,5.12-15.37,7.14-32.38,14.27-47.01,5.85-1.83,12.62-1.28,19.02-2.01,8.6.73,18.48-1.65,25.8,2.01Z"/>
      </g>
      <g>
        <path class="cls-1" d="M171.13,178.24c4.92-1.28,7.11,3.84,11.85,3.11,1.28,1.1,2.74,2.19,4.75,2.01,2.73,2.38,5.83,4.03,9.49,4.76,8.75,10.79,22.07,20.85,20.06,36.77,2.55,8.6-.55,17.01-5.47,23.41.18,4.39-4.38,5.12-6.38,8.23-9.3,10.24-21.34,17.19-34.29,20.12-10.04,5.31-21.16,8.05-32.29,10.79-6.02,4.02-14.23,3.11-21.34,4.39-21.16-.55-44.87,3.29-63.84-3.3-9.31,1.65-16.23-5.31-24.99-6.22-1.64-2.93-4.74-2.74-6.93-4.39-6.2-5.3-10.22-11.52-14.59-17.37.73-3.84-4.38-5.12-4.74-8.41-5.47-11.34.19-22.68-.54-35.12,2.37-5.12,4.74-10.43,8.39-15,9.3-4.94,14.96-16.28,25.54-17.92,6.2-.91,12.04-3.11,17.88-5.12,5.83-1.46,12.76-.36,19.33-.73,1.09.73,1.28,1.83,1.09,3.11-2.19,3.29-1.82,7.5-4.74,10.24-1.28,6.77-4.56,12.8-5.11,19.94-2.55,3.66-8.21.73-9.85,5.49.18,6.95-7.29,13.72-1.09,20.12,5.29,8.05,15.32,4.94,21.53,10.79,18.78,0,38.85,2.38,56.17-3.66,9.12-.55,16.97-4.03,23.9-10.24,4.74-2.2,5.65-7.14,6.75-11.53,1.64-8.96-11.12-10.97-7.11-20.85-1.28-9.88-.92-18.84-1.46-28.9,5.29,3.29,12.22,3.11,18.06,5.49Z"/>
        <path class="cls-3" d="M61.14,187.38c.91,3.29-1.46,5.3-3.28,7.5-1.46,1.1-3.65,1.65-5.47.73-3.1-1.46-2.92-5.12-2.73-8.23,1.09-1.83,3.28-2.93,5.1-4.03,2.74-.36,4.92,2.01,6.38,4.03Z"/>
        <path class="cls-3" d="M180.62,200.37c1.64,2.37,2.01,5.85,1.28,8.78-1.28,1.83-2.56,4.39-4.74,5.12-3.65-.55-8.03-.18-9.12-4.39-2.92-4.39,1.46-8.05,3.46-11.15,2.74-2.38,6.75-.55,9.12,1.65Z"/>
        <path class="cls-3" d="M44.91,204.76c.92,1.83,1.65,4.02.73,5.86-2.37,2.93-6.2,4.57-10.21,3.29-1.28-1.65-3.65-1.47-4.38-3.66-.55-3.84.36-7.87,4.38-9.51,3.47-.36,8.03.36,9.48,4.02Z"/>
        <path class="cls-3" d="M207.43,205.86c.36,3.11-1.64,5.12-3.1,7.13-2.37,1.47-4.92,2.56-7.84,2.01-3.47-2.01-5.47-5.67-4.01-9.51.55-1.46,1.64-2.92,3.1-4.39,3.64-1.83,6.2,1.65,9.48,2.01l2.37,2.74Z"/>
        <path class="cls-3" d="M25.94,215.37c1.64,3.29-2.01,5.3-1.09,8.78-1.28,3.47-5.66,2.19-8.39,2.01-1.82-1.1-2.92-2.38-3.46-4.39-.36-2.92-1.46-7.31,2.37-8.78,3.47-1.46,8.39-.73,10.58,2.38Z"/>
        <path class="cls-3" d="M204.33,236.04c-.55,3.29.19,7.68-4.01,8.6-3.47,1.47-6.93-.37-8.57-3.48-.37-4.02-.18-8.05,3.83-9.88,4.01-2.01,6.93,2.01,8.75,4.76Z"/>
        <path class="cls-3" d="M23.21,245.55c-.73,2.56,2.19,3.66,1.28,6.22-2.19,2.38-5.47,4.57-8.39,2.38-2.19-.91-4.56-3.29-5.47-5.49-.36-3.29,2.55-5.67,5.11-7.13,2.92.36,6.57.55,7.48,4.02Z"/>
        <path class="cls-3" d="M51.66,247.38c.36,3.11-.36,7.32-4.01,7.13-2.37-.55-5.47,2.19-7.85,0-1.82-2.2-3.83-5.12-2.37-8.23,2.37-3.29,6.93-4.76,10.21-2.38,1.28,1.28,3.28,1.83,4.01,3.48Z"/>
        <path class="cls-3" d="M177.15,249.39c1.09,2.2.73,5.67.36,7.87-1.83,2.38-3.28,4.58-6.02,5.31-3.1.91-7.29.54-8.2-3.3-1.28-1.83-1.28-5.49,0-7.5,3.65-2.93,10.76-10.06,13.86-2.38Z"/>
        <path class="cls-3" d="M149.06,251.04c0,3.84,3.47,8.23,0,11.53-1.64,3.84-6.02.73-9.12,1.09-2.37-2.01-4.74-4.75-4.19-8.23.55-3.48,2.92-6.22,6.2-7.5,3.1-.73,5.47.91,7.11,3.11Z"/>
        <path class="cls-3" d="M89.05,259.26c.19,4.58.37,10.61-4.74,13.17-3.65.91-7.66-1.1-9.85-4.39,0-2.56-1.83-5.49.37-7.5,3.1-3.84,11.12-6.22,14.22-1.28Z"/>
        <path class="cls-3" d="M57.86,271.89c-1.64,3.48.91,8.05-3.83,9.51-4.01.37-8.03-1.1-9.49-5.12.18-3.11.36-6.77,4.01-8.23,3.29-.55,7.85.36,9.31,3.84Z"/>
        <path class="cls-3" d="M120.97,274.27c1.28,6.03-4.19,7.5-6.93,10.79-3.28,1.1-5.11-1.64-7.12-3.29-1.64-2.01-2-5.12-1.28-7.87,1.09-2.74,3.83-4.02,6.38-5.12,3.65,0,7.12,2.56,8.94,5.49Z"/>
      </g>
      <path class="cls-2" d="M57.8,153.83c7.87,4.76,16.1,8.41,24.51,11.71-1.1,7.86-3.47,15.18-7.13,21.76h-.73v-1.1c-7.5-6.58-14.82-17.19-24.51-20.12-3.48-2.38-6.95-4.57-11.16-4.75l-.37,35.12c2.74,2.93,4.21,6.4,4.39,10.24-.92,2.56-.55,6.22-4.02,6.77-4.39.36-5.49-6.77-10.61-5.49-4.21,4.39-5.12,14.81-13.9,11.52-2.93-2.01-4.39-5.3-4.76-8.78-.55-9.33,8.05-15.55,14.63-21.4,1.1.18,1.65-.55,2.75-.37-.55-8.41,3.11-16.64,0-24.51,1.28-6.95-2.93-13.35,3.66-18.29,9.87-6.22,18.29,4.57,27.25,7.68Z"/>
      <path class="cls-2" d="M191.3,159.36c1.83,9.14-.18,20.3,2.74,28.53-.73,3.66,1.65,7.13,2.01,10.97,5.85,2.56,11.16,7.32,13.35,13.54-.18,3.29-1.28,6.4-3.11,8.96-3.29,3.11-7.68,4.75-11.53,1.65-1.83-4.02-1.1-9.15-3.47-12.99-4.76,1.28-3.47,8.6-9.15,9.14-2.56-1.65-3.47-4.57-2.38-7.13l5.85-7.68c1.28-10.97-2.01-22.31-3.11-33.47.18-2.2.18-4.39-1.65-6.04-8.6,6.59-19.76,7.32-27.62,16.28l-3.47,1.64c-.73-3.66-2.01-7.32-2.01-10.79,7.68-3.84,15.18-8.96,23.78-11.52,6.4-.55,15.36-12.07,19.75-1.1Z"/>
    </g>
  </g>
</svg>