<?xml version="1.0" encoding="UTF-8"?>
<svg id="_レイヤー_2" data-name="レイヤー 2" xmlns="http://www.w3.org/2000/svg" viewBox="0 0 371.43 497.8">
  <defs>
    <style>
      .cls-1 {
        fill: none;
      }

      .cls-2 {
        fill: #fff;
      }

      .cls-3 {
        fill: #262424;
      }

      .cls-4 {
        fill: #cd7e3c;
      }
    </style>
  </defs>
  <g id="_背景" data-name="背景">
    <g>
      <g>
        <path class="cls-4" d="M161.8,18.59c9.25-1.87,17.82-6.67,27.15-4.65,4.55,2.39,8.23,5.54,9.54,10.48.05,9.4-3.64,17.95-11.62,24.31.9,5.66,8.45,8.28,9.79,13.68,10.06,5.4,23.39,0,32.93,7.5,7.61.55,9.4-8.76,14.53-13.52-5.92-8.25-13.6-15.44-16-25.57.03-2.53,1.18-5.37,3.61-6.71,17.47-5.27,31.16,5.58,45.81,11.08,9.66-5.57,22.6-13.01,33.9-6.33,5.84,4.36,5.63,13.32,4.52,19.59-6.3,16.09-21.92,30.39-32.14,43.35-.91,3.05,2.72,2.54,4.34,2.64,15.37-2.82,31.61-15.1,46.32-2.95,10.74,8.33,22.96,14.94,34.54,22.29,1.54,2.17,2.42,4.63,2.41,7.38-9.88,8.57-23.03,10.52-34.56,15.55-17.21-3.01-33.16-10.47-47.22-23.13l.27,3.42c8.14,21.84,27.76,43.92,17.15,69.52-14.97,16.77-32.6,31.69-49,47.65-3.3,7.6-20.14,6.4-12.6,17.73,2.84,21.56,8.83,42.42,8.08,64.95-3.83,21.4-17.65,38.08-27.58,57.67.81,4.52,4.83,6.04,8.25,8.75,2.98,0,6.01.67,8.47,2.78,1.31,4.94-4.39,8.37-7.38,11.13-4.48,1.27-10.13,2.4-15.01,1.64-3.57,7.16-.8,16.12-2.28,23.57-1.61,14.57-4.93,33.64,3.6,45.81,1.9,6.73-.87,12.22-2.73,17.87-8.82,7.34-21,15.87-33.19,9.49-7.23-13.19,5.42-24.51,12.64-34.71-.93-8.87-3.71-18.05-5.11-27.11l-6.01-32.78c-9.42-6.14-21.41-4.05-31.56-7.62-2.02,6.35-1.47,13.42-2.09,20.12-1.57,18.01-.35,36.48-2.14,54.51-1.26,10.19-9.47,19.55-18.52,24.16-5.97,2.77-11.69,0-16.5-2.83-5.74-2.99-3.51-9.58-2.95-14.21,5.4-10.06,14.51-16.74,24.89-18.92-7.75-25.76-11.32-53.69-21.29-78.36-9.26-24.5-11.22-55.31-4.7-80.35l1.1-15.23c-16.38-21.65-42.33-36.81-63.23-54.66-6.25-3.63-13.62-1.23-20.37.45-6.1,4.15-14.5,2.29-21.01,1.19-3.86-2.45-5.79-6.65-8.8-9.86-.36-4.56.92-8.79,4.82-11.62,4.69-4.5,11.5-2.51,17.14-3.64-2.93-2.29-9.92-.83-8.57-6.9,8.02-5.9,19.57-1.99,27.71,2.41,9.43,9.12,18.72,19.4,30.01,25.85,13.8,12.22,31.32,16.34,47.22,23.12,11.15-1.1,9.85-14.76,15.46-19.33.96-2.37-.43-5.47,1.95-7.26-9.68-9.33-15.22-21.51-26.47-30.49-.2-5.49-5.92-8.25-7.89-12.91-5.89-10.77-14.97-21.3-12.8-34.54,7.65-19.4,22.37-36.38,28.84-56.16,2.31-2.7,3.66-6.02,5.25-9.12-18.52-2.22-33.81-15.93-46.18-30.32-1.57-2.4-1.8-5.36-3.59-7.74,14.51-5.04,31.6-.65,46.82.45,11.71,5.96,17.91,17.85,25.98,27.08,1.56-.58,3.96.84,4.69-1.52l-31.08-54.2c-1.03-4.28-1.63-9.05,1.82-11.84,2.93-.69,7.01-1.24,10.12.35l30.5,17.56"/>
        <path class="cls-2" d="M165.35,34.6c3.96-2.15,8.63-6.87,13.21-4.02-.98,7.87-9.56,6.72-13.02,12.26,1.92,6.96,5.19,13.58,9.57,19.66-3.24-.43-5.36,1.8-8.63,1.13-10.02-13.66-17.37-28.45-28.94-41.53,12.17.19,14.4,22.72,27.81,12.5"/>
        <path class="cls-2" d="M275.84,51.61c7.79,5.81,10.67-7.26,17.56-7.11,1.75-1.05,2.96-3.21,5.01-3.37.71,14.85-18.13,14.49-20.47,28.44l-11.17,12.57-13.72-8.33c4.81-5.88,10.9-13.01,8.43-21.07-4.53-5.14-11.94-8.92-12.95-15.95,10.21,1.49,17.46,12.16,27.31,14.82"/>
        <path class="cls-2" d="M159.78,127.22c6.42,11.65,7.69,27.84.78,39.16-3.8,1.21-3.39,6.46-7.65,7.71-14.26,5.24-26.22-3.91-35.42-13.04-3.39-5.24-7.91-10.16-8.44-16.99,1.91-10.7,4.99-24.01,17.02-28.63,12.2.65,26.56-.48,33.72,11.8"/>
        <path class="cls-3" d="M150.07,123.39c5.36,3.94,8.06,9.23,8.34,15.63-1.26,4.45-2.42,10.05-7.29,12.27-7.95,3.84-20.77,7.14-28.98,1.81-4.64-3.53-7.34-8.83-5.76-14.91.76-7.86,6.27-13.56,13.05-17.77,7.7-1.29,14.63-.69,20.64,2.97"/>
        <path class="cls-2" d="M282.04,145.14c8.68,8.26,6.72,24.24,3.37,34.14-2.79,8.25-9.87,11.55-16.95,14.86-9.87-.14-20.16.21-28.03-6.51-6.01-9.39-8.94-23.38-5.7-34.64,3.01-8.49,12.03-13.33,19.82-16.23,9.72,1.07,19.81,1.2,27.49,8.39"/>
        <path class="cls-3" d="M278.75,152.97c.27,6.4.95,15.06-6.34,18.62-8.64,3.89-20.38,6.19-29.03,1.13-2.51-2.78-4.6-6.06-4.93-10.16.88-9.24,8.23-17.84,16.41-21.7,10.39-1.96,18.63,3.58,23.88,12.11"/>
        <path class="cls-2" d="M213.89,197.28c.39,5.02,2.84,9.87,1.63,15.01-4.41,13.88-18.55,9.03-27.99,8.62-10.88-4.19-26.75-4.78-30.59-18.69-3.89-8.64.85-15.44,6.61-20.93,17.95-5.08,40.63-2.51,50.33,16"/>
        <path class="cls-3" d="M193.7,188.32c3.11,4.57-.99,7.87-4.25,10.2-5.22.64-10.24-1.95-12.85-5.87-.48-3.17-.74-6.59,1.6-8.84,4.84.31,11.65-.69,15.49,4.52"/>
        <path class="cls-3" d="M186.4,206.32c6.7.62,9.56-6.71,15.91-7.67.36,1.57,1.6,2.85,1.52,4.69-5.84,7.34-15.08,12.43-24.93,9.52-5.69-2.3-10.62-6.73-13.77-11.76-.41-2.26-.85-4.98,1.13-6.05,8.27.27,10.49,13.85,20.15,11.26"/>
        <path class="cls-2" d="M225.52,243.15l3.69,3.15c6.15,22.91,9.71,47.85,13.4,71.41-7.5,24.22-25,46.68-43.45,65.79-11.48,5.71-22.73-3.26-33.73-6.07-23.88-9.13-36.14-33.86-35.6-59.12,4.46-27.87,9.85-55.58,16.19-82.91,1.94-16.21,15.35-3.04,22.69-3.16,15.93,4.25,32.07,8.26,49.15,9.67,2,2.13,5.49-.2,7.66,1.23"/>
        <path class="cls-4" d="M201.32,264.37c7.94,16.35,13.64,33.56,22.01,49.64l1.91,1c5.43-12.59,12.92-25.32,16.74-38.01,3.54,10.04,5.99,20.86,7.78,31.96-9.19,8.52-13.94,21.05-24.15,28.27-3.59.97-9.17.03-10.67-4.44-3.58-13.48-11.12-24.82-15.36-38.01-2.44-1.87-3.48-3.4-5.66-4.83-2.44,1.11-5.73,0-8.33-.95-3.63-2.47-7.86-3.74-10.9-7.4-3.43-8.67.08-16.52,6.24-22.73,7.21-1.71,14.9-.03,20.39,5.51"/>
      </g>
      <rect class="cls-1" x=".06" width="371.37" height="497.8"/>
    </g>
  </g>
</svg>