<?xml version="1.0" encoding="UTF-8"?>
<svg id="_レイヤー_2" data-name="レイヤー 2" xmlns="http://www.w3.org/2000/svg" viewBox="0 0 809.73 1153.02">
  <defs>
    <style>
      .cls-1, .cls-2 {
        fill: none;
      }

      .cls-2 {
        stroke: #5b9843;
        stroke-miterlimit: 10;
        stroke-width: 2px;
      }

      .cls-3 {
        fill: #5b9843;
      }
    </style>
  </defs>
  <g id="_背景" data-name="背景">
    <g>
      <g>
        <line class="cls-2" x1="157.2" y1="14.58" x2="157.2" y2="1141.58"/>
        <g>
          <path d="M0,18.72C0,11.07,2.79,6.97,7.33,6.97s7.3,4.13,7.3,11.75-2.75,11.91-7.3,11.91S0,26.37,0,18.72ZM11.78,18.72c0-6.69-1.79-9.41-4.45-9.41s-4.48,2.72-4.48,9.41,1.79,9.57,4.48,9.57,4.45-2.88,4.45-9.57Z"/>
          <path d="M17.63,24.38c0-2.98,2.18-5.03,4.32-6.18v-.13c-1.7-1.15-3.17-2.85-3.17-5.28,0-3.49,2.79-5.83,6.43-5.83,4,0,6.44,2.5,6.44,6.05,0,2.4-1.76,4.45-3.14,5.51v.16c2.02,1.22,3.97,2.82,3.97,5.86,0,3.43-2.95,6.08-7.36,6.08s-7.49-2.62-7.49-6.24ZM29.7,24.48c0-2.98-2.88-4.04-6.21-5.35-1.86,1.19-3.2,2.88-3.2,5,0,2.5,2.08,4.32,4.9,4.32s4.51-1.63,4.51-3.97ZM29.16,13.18c0-2.24-1.44-4.04-3.97-4.04-2.18,0-3.75,1.44-3.75,3.65,0,2.75,2.53,3.9,5.28,4.99,1.57-1.41,2.43-2.91,2.43-4.61Z"/>
          <path d="M36.29,15.52c0-1.34.96-2.27,2.11-2.27s2.11.93,2.11,2.27-.96,2.21-2.11,2.21-2.11-.93-2.11-2.21ZM36.29,28.42c0-1.35.96-2.27,2.11-2.27s2.11.93,2.11,2.27-.96,2.21-2.11,2.21-2.11-.89-2.11-2.21Z"/>
          <path d="M44.26,28.48c6.88-6.85,10.76-10.95,10.76-14.69,0-2.59-1.41-4.45-4.32-4.45-1.92,0-3.59,1.22-4.87,2.72l-1.7-1.63c1.92-2.08,3.94-3.46,6.91-3.46,4.19,0,6.82,2.66,6.82,6.69,0,4.29-3.9,8.55-9.31,14.25,1.21-.1,2.62-.23,3.84-.23h6.63v2.53h-14.76v-1.73Z"/>
          <path d="M62.18,18.72c0-7.65,2.79-11.75,7.33-11.75s7.3,4.13,7.3,11.75-2.75,11.91-7.3,11.91-7.33-4.26-7.33-11.91ZM73.96,18.72c0-6.69-1.79-9.41-4.45-9.41s-4.48,2.72-4.48,9.41,1.79,9.57,4.48,9.57,4.45-2.88,4.45-9.57Z"/>
          <path class="cls-3" d="M158.37,3.64c7.97,0,14.41,6.43,14.41,14.4s-6.43,14.41-14.41,14.41-14.4-6.44-14.4-14.41,6.43-14.4,14.4-14.4Z"/>
          <path d="M0,178.72c0-7.65,2.79-11.75,7.33-11.75s7.3,4.13,7.3,11.75-2.75,11.91-7.3,11.91-7.33-4.26-7.33-11.91ZM11.78,178.72c0-6.69-1.79-9.41-4.45-9.41s-4.48,2.72-4.48,9.41,1.79,9.57,4.48,9.57,4.45-2.88,4.45-9.57Z"/>
          <path d="M18.05,188.23l1.63-1.83c.9,1.12,2.3,1.79,3.74,1.79,3.2,0,5.92-2.5,6.05-9.79-1.47,1.82-3.49,2.95-5.35,2.95-3.97,0-6.53-2.4-6.53-7.08,0-4.35,3.07-7.3,6.72-7.3,4.51,0,7.88,3.65,7.88,10.98,0,9.16-4.13,12.68-8.68,12.68-2.43,0-4.22-1.02-5.47-2.4ZM24.61,179.16c1.47,0,3.33-.93,4.8-3.1-.38-4.42-2.18-6.79-5.09-6.79-2.24,0-3.97,1.98-3.97,4.99s1.41,4.9,4.26,4.9Z"/>
          <path d="M36.29,175.52c0-1.34.96-2.27,2.11-2.27s2.11.93,2.11,2.27-.96,2.21-2.11,2.21-2.11-.93-2.11-2.21ZM36.29,188.42c0-1.35.96-2.27,2.11-2.27s2.11.93,2.11,2.27-.96,2.21-2.11,2.21-2.11-.89-2.11-2.21Z"/>
          <path d="M43.78,187.43l1.47-1.92c1.38,1.44,3.17,2.69,5.83,2.69s4.77-1.63,4.77-4.19c0-2.72-1.89-4.52-7.3-4.52v-2.24c4.83,0,6.5-1.89,6.5-4.29,0-2.21-1.54-3.62-3.97-3.62-1.89,0-3.55.96-4.87,2.3l-1.57-1.83c1.76-1.66,3.84-2.85,6.56-2.85,3.94,0,6.82,2.08,6.82,5.79,0,2.75-1.7,4.52-4.16,5.41v.13c2.75.67,4.96,2.69,4.96,5.83,0,4.06-3.36,6.5-7.52,6.5-3.68,0-5.99-1.54-7.52-3.2Z"/>
          <path d="M62.18,178.72c0-7.65,2.79-11.75,7.33-11.75s7.3,4.13,7.3,11.75-2.75,11.91-7.3,11.91-7.33-4.26-7.33-11.91ZM73.96,178.72c0-6.69-1.79-9.41-4.45-9.41s-4.48,2.72-4.48,9.41,1.79,9.57,4.48,9.57,4.45-2.88,4.45-9.57Z"/>
          <path class="cls-3" d="M158.37,163.64c7.97,0,14.41,6.43,14.41,14.4s-6.43,14.41-14.41,14.41-14.4-6.44-14.4-14.41,6.43-14.4,14.4-14.4Z"/>
          <path d="M1.25,347.78h5.22v-16.84H2.3v-1.89c2.08-.35,3.59-.9,4.87-1.67h2.24v20.39h4.71v2.43H1.25v-2.43Z"/>
          <path d="M17.76,338.72c0-7.65,2.79-11.75,7.33-11.75s7.3,4.13,7.3,11.75-2.75,11.91-7.3,11.91-7.33-4.26-7.33-11.91ZM29.54,338.72c0-6.69-1.79-9.41-4.45-9.41s-4.48,2.72-4.48,9.41,1.79,9.57,4.48,9.57,4.45-2.88,4.45-9.57Z"/>
          <path d="M36.29,335.52c0-1.34.96-2.27,2.11-2.27s2.11.93,2.11,2.27-.96,2.21-2.11,2.21-2.11-.93-2.11-2.21ZM36.29,348.42c0-1.35.96-2.27,2.11-2.27s2.11.93,2.11,2.27-.96,2.21-2.11,2.21-2.11-.89-2.11-2.21Z"/>
          <path d="M43.78,347.43l1.47-1.92c1.38,1.44,3.17,2.69,5.83,2.69s4.77-1.63,4.77-4.19c0-2.72-1.89-4.52-7.3-4.52v-2.24c4.83,0,6.5-1.89,6.5-4.29,0-2.21-1.54-3.62-3.97-3.62-1.89,0-3.55.96-4.87,2.3l-1.57-1.83c1.76-1.66,3.84-2.85,6.56-2.85,3.94,0,6.82,2.08,6.82,5.79,0,2.75-1.7,4.52-4.16,5.41v.13c2.75.67,4.96,2.69,4.96,5.83,0,4.06-3.36,6.5-7.52,6.5-3.68,0-5.99-1.54-7.52-3.2Z"/>
          <path d="M62.18,338.72c0-7.65,2.79-11.75,7.33-11.75s7.3,4.13,7.3,11.75-2.75,11.91-7.3,11.91-7.33-4.26-7.33-11.91ZM73.96,338.72c0-6.69-1.79-9.41-4.45-9.41s-4.48,2.72-4.48,9.41,1.79,9.57,4.48,9.57,4.45-2.88,4.45-9.57Z"/>
          <path class="cls-3" d="M158.37,323.64c7.97,0,14.41,6.43,14.41,14.4s-6.43,14.41-14.41,14.41-14.4-6.44-14.4-14.41,6.43-14.4,14.4-14.4Z"/>
          <path d="M1.25,507.78h5.22v-16.84H2.3v-1.89c2.08-.35,3.59-.9,4.87-1.67h2.24v20.39h4.71v2.43H1.25v-2.43Z"/>
          <path d="M17.6,508.48c6.88-6.85,10.76-10.95,10.76-14.69,0-2.59-1.41-4.45-4.32-4.45-1.92,0-3.59,1.22-4.87,2.72l-1.7-1.63c1.92-2.08,3.94-3.46,6.91-3.46,4.19,0,6.82,2.66,6.82,6.69,0,4.29-3.9,8.55-9.31,14.25,1.21-.1,2.62-.23,3.84-.23h6.63v2.53h-14.76v-1.73Z"/>
          <path d="M36.29,495.52c0-1.34.96-2.27,2.11-2.27s2.11.93,2.11,2.27-.96,2.21-2.11,2.21-2.11-.93-2.11-2.21ZM36.29,508.42c0-1.35.96-2.27,2.11-2.27s2.11.93,2.11,2.27-.96,2.21-2.11,2.21-2.11-.89-2.11-2.21Z"/>
          <path d="M44.42,498.72c0-7.65,2.79-11.75,7.33-11.75s7.3,4.13,7.3,11.75-2.75,11.91-7.3,11.91-7.33-4.26-7.33-11.91ZM56.2,498.72c0-6.69-1.79-9.41-4.45-9.41s-4.48,2.72-4.48,9.41,1.79,9.57,4.48,9.57,4.45-2.88,4.45-9.57Z"/>
          <path d="M62.18,498.72c0-7.65,2.79-11.75,7.33-11.75s7.3,4.13,7.3,11.75-2.75,11.91-7.3,11.91-7.33-4.26-7.33-11.91ZM73.96,498.72c0-6.69-1.79-9.41-4.45-9.41s-4.48,2.72-4.48,9.41,1.79,9.57,4.48,9.57,4.45-2.88,4.45-9.57Z"/>
          <path class="cls-3" d="M158.37,483.64c7.97,0,14.41,6.43,14.41,14.4s-6.43,14.41-14.41,14.41-14.4-6.44-14.4-14.41,6.43-14.4,14.4-14.4Z"/>
          <path d="M1.25,667.78h5.22v-16.84H2.3v-1.89c2.08-.35,3.59-.9,4.87-1.67h2.24v20.39h4.71v2.43H1.25v-2.43Z"/>
          <path d="M17.12,667.43l1.47-1.92c1.38,1.44,3.17,2.69,5.83,2.69s4.77-1.63,4.77-4.19c0-2.72-1.89-4.52-7.3-4.52v-2.24c4.83,0,6.5-1.89,6.5-4.29,0-2.21-1.54-3.62-3.97-3.62-1.89,0-3.55.96-4.87,2.3l-1.57-1.83c1.76-1.66,3.84-2.85,6.56-2.85,3.94,0,6.82,2.08,6.82,5.79,0,2.75-1.7,4.52-4.16,5.41v.13c2.75.67,4.96,2.69,4.96,5.83,0,4.06-3.36,6.5-7.52,6.5-3.68,0-5.99-1.54-7.52-3.2Z"/>
          <path d="M36.29,655.52c0-1.34.96-2.27,2.11-2.27s2.11.93,2.11,2.27-.96,2.21-2.11,2.21-2.11-.93-2.11-2.21ZM36.29,668.42c0-1.35.96-2.27,2.11-2.27s2.11.93,2.11,2.27-.96,2.21-2.11,2.21-2.11-.89-2.11-2.21Z"/>
          <path d="M44.42,658.72c0-7.65,2.79-11.75,7.33-11.75s7.3,4.13,7.3,11.75-2.75,11.91-7.3,11.91-7.33-4.26-7.33-11.91ZM56.2,658.72c0-6.69-1.79-9.41-4.45-9.41s-4.48,2.72-4.48,9.41,1.79,9.57,4.48,9.57,4.45-2.88,4.45-9.57Z"/>
          <path d="M62.18,658.72c0-7.65,2.79-11.75,7.33-11.75s7.3,4.13,7.3,11.75-2.75,11.91-7.3,11.91-7.33-4.26-7.33-11.91ZM73.96,658.72c0-6.69-1.79-9.41-4.45-9.41s-4.48,2.72-4.48,9.41,1.79,9.57,4.48,9.57,4.45-2.88,4.45-9.57Z"/>
          <path class="cls-3" d="M158.37,643.64c7.97,0,14.41,6.43,14.41,14.4s-6.43,14.41-14.41,14.41-14.4-6.44-14.4-14.41,6.43-14.4,14.4-14.4Z"/>
          <path d="M1.25,827.78h5.22v-16.84H2.3v-1.89c2.08-.35,3.59-.9,4.87-1.67h2.24v20.39h4.71v2.43H1.25v-2.43Z"/>
          <path d="M17.09,827.52l1.44-1.92c1.34,1.35,3.04,2.59,5.76,2.59s4.99-2.02,4.99-5.19-1.92-5.06-4.87-5.06c-1.57,0-2.56.51-3.9,1.41l-1.57-.99.74-10.98h11.43v2.5h-8.87l-.58,6.82c1.06-.57,2.08-.96,3.49-.96,3.91,0,7.08,2.24,7.08,7.17s-3.71,7.71-7.68,7.71c-3.65,0-5.89-1.54-7.46-3.11Z"/>
          <path d="M36.29,815.52c0-1.34.96-2.27,2.11-2.27s2.11.93,2.11,2.27-.96,2.21-2.11,2.21-2.11-.93-2.11-2.21ZM36.29,828.42c0-1.35.96-2.27,2.11-2.27s2.11.93,2.11,2.27-.96,2.21-2.11,2.21-2.11-.89-2.11-2.21Z"/>
          <path d="M44.42,818.72c0-7.65,2.79-11.75,7.33-11.75s7.3,4.13,7.3,11.75-2.75,11.91-7.3,11.91-7.33-4.26-7.33-11.91ZM56.2,818.72c0-6.69-1.79-9.41-4.45-9.41s-4.48,2.72-4.48,9.41,1.79,9.57,4.48,9.57,4.45-2.88,4.45-9.57Z"/>
          <path d="M62.18,818.72c0-7.65,2.79-11.75,7.33-11.75s7.3,4.13,7.3,11.75-2.75,11.91-7.3,11.91-7.33-4.26-7.33-11.91ZM73.96,818.72c0-6.69-1.79-9.41-4.45-9.41s-4.48,2.72-4.48,9.41,1.79,9.57,4.48,9.57,4.45-2.88,4.45-9.57Z"/>
          <path class="cls-3" d="M158.37,803.64c7.97,0,14.41,6.43,14.41,14.4s-6.43,14.41-14.41,14.41-14.4-6.44-14.4-14.41,6.43-14.4,14.4-14.4Z"/>
          <path d="M1.25,987.78h5.22v-16.84H2.3v-1.89c2.08-.35,3.59-.9,4.87-1.67h2.24v20.39h4.71v2.43H1.25v-2.43Z"/>
          <path d="M17.92,979.68c0-9.19,4.13-12.71,8.71-12.71,2.43,0,4.2,1.02,5.47,2.4l-1.63,1.83c-.93-1.12-2.34-1.79-3.74-1.79-3.23,0-5.92,2.46-6.05,9.73,1.47-1.76,3.49-2.85,5.35-2.85,3.94,0,6.5,2.37,6.5,7.01,0,4.38-3.07,7.33-6.72,7.33-4.51,0-7.88-3.65-7.88-10.95ZM20.74,981.5c.38,4.45,2.15,6.85,5.03,6.85,2.27,0,4-2.02,4-5.06s-1.41-4.83-4.23-4.83c-1.47,0-3.27.8-4.8,3.04Z"/>
          <path d="M36.29,975.52c0-1.34.96-2.27,2.11-2.27s2.11.93,2.11,2.27-.96,2.21-2.11,2.21-2.11-.93-2.11-2.21ZM36.29,988.42c0-1.35.96-2.27,2.11-2.27s2.11.93,2.11,2.27-.96,2.21-2.11,2.21-2.11-.89-2.11-2.21Z"/>
          <path d="M44.42,978.72c0-7.65,2.79-11.75,7.33-11.75s7.3,4.13,7.3,11.75-2.75,11.91-7.3,11.91-7.33-4.26-7.33-11.91ZM56.2,978.72c0-6.69-1.79-9.41-4.45-9.41s-4.48,2.72-4.48,9.41,1.79,9.57,4.48,9.57,4.45-2.88,4.45-9.57Z"/>
          <path d="M62.18,978.72c0-7.65,2.79-11.75,7.33-11.75s7.3,4.13,7.3,11.75-2.75,11.91-7.3,11.91-7.33-4.26-7.33-11.91ZM73.96,978.72c0-6.69-1.79-9.41-4.45-9.41s-4.48,2.72-4.48,9.41,1.79,9.57,4.48,9.57,4.45-2.88,4.45-9.57Z"/>
          <path class="cls-3" d="M158.37,963.64c7.97,0,14.41,6.43,14.41,14.4s-6.43,14.41-14.41,14.41-14.4-6.44-14.4-14.41,6.43-14.4,14.4-14.4Z"/>
          <path d="M1.25,1147.78h5.22v-16.84H2.3v-1.89c2.08-.35,3.59-.9,4.87-1.67h2.24v20.39h4.71v2.43H1.25v-2.43Z"/>
          <path d="M29.12,1129.88h-11.37v-2.5h14.69v1.79c-5.38,6.91-6.53,12.13-6.88,21.03h-3.04c.38-8.61,2.11-14.05,6.6-20.33Z"/>
          <path d="M36.29,1135.52c0-1.34.96-2.27,2.11-2.27s2.11.93,2.11,2.27-.96,2.21-2.11,2.21-2.11-.93-2.11-2.21ZM36.29,1148.42c0-1.35.96-2.27,2.11-2.27s2.11.93,2.11,2.27-.96,2.21-2.11,2.21-2.11-.89-2.11-2.21Z"/>
          <path d="M45.66,1147.78h5.22v-16.84h-4.16v-1.89c2.08-.35,3.59-.9,4.87-1.67h2.24v20.39h4.71v2.43h-12.87v-2.43Z"/>
          <path d="M62.18,1138.72c0-7.65,2.79-11.75,7.33-11.75s7.3,4.13,7.3,11.75-2.75,11.91-7.3,11.91-7.33-4.26-7.33-11.91ZM73.96,1138.72c0-6.69-1.79-9.41-4.45-9.41s-4.48,2.72-4.48,9.41,1.79,9.57,4.48,9.57,4.45-2.88,4.45-9.57Z"/>
          <path class="cls-3" d="M158.37,1123.64c7.97,0,14.41,6.43,14.41,14.4s-6.43,14.41-14.41,14.41-14.4-6.44-14.4-14.41,6.43-14.4,14.4-14.4Z"/>
        </g>
        <g>
          <path d="M241.69,18.04v14.77h-2.74v-2.16h-22.47v2.23h-2.66v-14.84h2.66v9.98h9.62v-12.28h-10.91V3.42h2.67v9.72h8.25V.21h2.74v12.93h8.64V3.42h2.77v12.31h-11.42v12.28h10.12v-9.98h2.74Z"/>
          <path d="M279.6,9.72c-.4,15.09-.72,20.09-1.84,21.57-.65.9-1.29,1.19-2.34,1.29-.97.11-2.56.11-4.18,0-.07-.72-.32-1.8-.76-2.48,1.66.18,3.17.18,3.82.18.58,0,.9-.11,1.19-.58.86-1.04,1.26-5.73,1.55-18.8h-5.22c-.4,9.61-1.8,17.36-7.31,22.11-.4-.57-1.33-1.48-1.94-1.87.5-.4.94-.83,1.37-1.3-5.94.72-12.06,1.44-16.35,1.95l-.36-2.34c2.16-.18,4.9-.47,7.89-.79v-3.28h-6.55v-1.98h6.55v-2.74h-7.09v-2.05h7.09v-2.23h-6.41v-7.67h15.56v7.67h-6.7v2.23h7.2v2.05h-7.2v2.74h6.88v1.98h-6.88v2.99c2.34-.25,4.82-.54,7.24-.83l.04,1.26c3.31-4.29,4.29-10.45,4.54-17.9h-4.11v-2.48h4.18c.07-2.56.07-5.29.07-8.1h2.48c0,2.81-.04,5.51-.07,8.1h7.67v1.3ZM251.47,5.18h-4.07v-2.09h4.07V.04h2.45v3.06h4.82V.04h2.45v3.06h4.25v2.09h-4.25v2.77h-2.45v-2.77h-4.82v2.77h-2.45v-2.77ZM255.11,14.44v-3.75h-4.07v3.75h4.07ZM261.77,10.69h-4.21v3.75h4.21v-3.75Z"/>
          <path d="M328.87,26.68v6.12h-2.59v-6.12h-7.06v-2.41h7.06v-2.88h-5.62v-12.1h5.62v-2.88h-6.62v-2.38h6.62V0h2.59v4.03h6.95v2.38h-6.95v2.88h5.9v12.1h-5.9v2.88h7.02v2.41h-7.02ZM323.07,14.33h9.26v-2.99h-9.26v2.99ZM323.07,19.3h9.26v-2.99h-9.26v2.99ZM350.59,29.56c0,1.55-.36,2.38-1.37,2.85-.97.43-2.56.47-5.19.43-.14-.65-.47-1.91-.87-2.59,1.87.07,3.6.07,4.07.04.54-.04.76-.18.76-.76v-8.28h-8.03c-.58,4.21-1.94,8.53-5.15,11.7-.4-.47-1.48-1.26-2.05-1.55,4.57-4.54,5.04-11.2,5.04-16.46V1.73h12.78v27.84ZM347.99,18.76v-6.05h-7.63v2.23c0,1.19-.04,2.48-.14,3.82h7.78ZM340.36,4.18v6.09h7.63v-6.09h-7.63Z"/>
          <path d="M369.8,7.63c-1.15,2.74-2.81,5.33-4.68,7.67,1.73,1.44,4.97,4.29,5.87,5.12l-1.66,2.2c-.97-1.19-3.17-3.38-4.9-5.01v15.27h-2.59v-14.01c-1.91,1.88-3.96,3.46-5.94,4.72-.29-.72-.97-1.95-1.4-2.45,4.54-2.52,9.25-7.06,11.85-11.96h-10.59v-2.45h6.09V.04h2.59v6.7h3.38l.47-.11,1.51,1.01ZM383.56,29.89c1.73,0,2.02-1.4,2.27-6.84.68.5,1.73,1.01,2.52,1.15-.4,6.16-1.12,8.28-4.61,8.28h-6.27c-3.46,0-4.5-1.04-4.5-4.97V.68h2.74v26.9c0,1.91.32,2.3,2.05,2.3h5.8Z"/>
          <path d="M460.06,14.66v2.92h-32.7v-2.92h32.7Z"/>
          <path d="M491.49,2.48v29.85h-2.81v-2.2h-17.86v2.34h-2.7V2.48h23.37ZM470.82,5.11v9.72h17.86V5.11h-17.86ZM488.68,27.51v-10.05h-17.86v10.05h17.86Z"/>
          <path d="M516.25,31.26l-1.69-2.67c1.15-.11,2.27-.29,3.1-.47,4.61-1.04,9.15-4.46,9.15-10.7,0-5.44-3.49-9.94-9.61-10.44-.47,3.35-1.15,7.02-2.16,10.37-2.2,7.42-5.04,11.2-8.39,11.2s-6.41-3.67-6.41-9.61c0-7.82,6.95-14.66,15.74-14.66s13.79,5.94,13.79,13.25-4.97,12.61-13.5,13.72ZM506.75,25.24c1.69,0,3.6-2.41,5.44-8.5.9-2.99,1.62-6.41,2.02-9.72-6.91.87-11.16,6.77-11.16,11.67,0,4.54,2.09,6.55,3.71,6.55Z"/>
          <path d="M558.45,7.63c-1.22,3.1-3.49,7.31-6.05,10.55,3.78,3.24,8.17,7.92,10.51,10.77l-2.52,2.16c-2.41-3.17-6.23-7.42-9.9-10.7-3.85,4.14-8.71,8.1-14.04,10.51l-2.3-2.41c5.8-2.27,11.13-6.55,14.84-10.7,2.45-2.77,5.08-7.02,5.98-10.01h-14.04c-1.26,0-3.24.14-3.64.18v-3.28c.5.07,2.56.22,3.64.22h13.9c1.19,0,2.12-.11,2.7-.29l1.84,1.4c-.22.29-.68,1.08-.9,1.58Z"/>
          <path d="M578.06,4.82c-.36,1.04-.79,2.34-1.37,3.64h17c.9,0,2.34-.04,3.38-.18v3.1c-1.15-.07-2.56-.11-3.38-.11h-6.09c-.58,10.3-4.61,16.31-10.8,20.27l-3.06-2.09c1.01-.4,2.12-1.01,2.92-1.66,3.53-2.67,7.42-7.38,7.92-16.53h-9.22c-1.48,2.7-3.89,5.98-6.02,7.71l-2.84-1.69c2.59-1.88,5.19-5.55,6.41-7.74,1.01-1.8,1.66-3.67,2.05-5.04.29-.94.47-1.95.54-2.88l3.46.69c-.29.83-.65,1.76-.9,2.52Z"/>
          <path d="M611.33,15.7l-1.62,2.52c-1.8-1.29-5.69-3.82-7.89-4.93l1.62-2.45c2.12,1.15,6.34,3.74,7.89,4.86ZM615.54,24.3c5.98-3.42,10.73-8.14,13.65-13.21l1.73,2.99c-3.13,4.83-8.1,9.47-13.86,12.86-3.6,2.12-8.57,3.78-11.92,4.47l-1.66-2.92c3.93-.69,8.43-2.12,12.06-4.18ZM616.69,7.81l-1.69,2.48c-1.73-1.33-5.65-3.92-7.74-5.15l1.62-2.41c2.12,1.19,6.27,3.96,7.81,5.08ZM627.61,8.86l-2.05.94c-.9-1.87-2.09-4.03-3.28-5.69l1.98-.83c.9,1.3,2.52,3.89,3.35,5.58ZM632.43,7.06l-2.05.94c-.97-1.91-2.2-3.96-3.42-5.58l2.02-.86c.97,1.26,2.56,3.85,3.46,5.51Z"/>
          <path d="M654.5,14.12c-.29,2.45-1.33,9.58-1.84,12.89h3.53c.79,0,2.09-.04,2.85-.11v2.92c-.65-.04-1.98-.07-2.74-.07h-19.73c-1.12,0-1.94.04-2.99.11v-2.99c.87.07,1.91.14,2.99.14h13.04c.54-3.03,1.58-10.05,1.69-12.1h-11.45c-1.04,0-1.98.07-2.88.11v-3.03c.87.11,1.95.22,2.85.22h10.95c.58,0,1.48-.11,1.8-.25l2.2,1.04c-.11.36-.21.83-.25,1.12Z"/>
          <path d="M669.94,14.73h19.73c1.8,0,3.1-.11,3.89-.18v3.53c-.72-.04-2.23-.18-3.85-.18h-19.77c-1.98,0-3.89.07-5,.18v-3.53c1.08.07,2.99.18,5,.18Z"/>
          <path d="M703.88,20.34c1.04-3.28,1.08-10.48,1.08-14.48,0-1.08-.11-1.87-.25-2.63h3.31c-.04.43-.18,1.51-.18,2.59,0,4-.14,11.7-1.12,15.3-1.08,3.85-3.39,7.38-6.41,9.9l-2.7-1.84c3.03-2.16,5.19-5.37,6.27-8.86ZM714.36,27.37V5.8c0-1.37-.18-2.41-.21-2.66h3.31c-.04.25-.14,1.29-.14,2.66v20.78c3.31-1.51,7.74-4.79,10.52-8.86l1.69,2.45c-3.1,4.21-8.1,7.92-12.28,9.98-.58.32-.97.61-1.22.83l-1.91-1.59c.14-.57.25-1.3.25-2.02Z"/>
          <path d="M765.09,31.33h-14.73v1.55h-2.52V15.81c-.61.61-1.26,1.15-1.91,1.69-.32-.43-1.08-1.19-1.62-1.69v12.68h-6.91v2.81h-2.2v-11.6c-.61,1.26-1.26,2.45-2.02,3.49-.29-.61-1.04-1.91-1.51-2.48,2.63-3.82,4.14-9.58,5.08-15.81h-4.07v-2.45h12.64v2.45h-6.05c-.4,2.77-.94,5.47-1.62,7.99h6.66v2.45c3.03-2.3,5.47-5.51,7.27-9.33h-3.85v3.78h-2.34V3.67h7.2c.47-1.19.87-2.41,1.19-3.67l2.56.5c-.32,1.08-.65,2.16-1.01,3.17h9.58v6.12h-2.41v-3.78h-8.1c-.86,1.91-1.8,3.71-2.92,5.33h4.39c.61-1.37,1.26-3.03,1.62-4.25l2.52.61c-.58,1.22-1.19,2.52-1.73,3.64h5.69v2.27h-6.23v3.68h5.65v2.09h-5.65v3.82h5.65v2.09h-5.65v3.75h7.35v2.3ZM742.04,15.2h-4.64v10.95h4.64v-10.95ZM755.22,13.61h-4.86v3.68h4.86v-3.68ZM755.22,19.37h-4.86v3.82h4.86v-3.82ZM750.36,29.02h4.86v-3.75h-4.86v3.75Z"/>
          <path d="M780.93,8.17h-12.75v-2.2h12.75v2.2ZM779.95,30.82h-7.96v1.66h-2.27v-12.06h10.23v10.41ZM779.92,12.96h-10.15v-2.12h10.15v2.12ZM769.76,15.59h10.15v2.16h-10.15v-2.16ZM779.81,3.42h-9.87V1.26h9.87v2.16ZM772,22.61v6.05h5.65v-6.05h-5.65ZM780.21,29.67c1.69-1.8,2.49-4.93,2.85-7.89l2.16.54c-.36,3.17-1.15,6.63-3.06,8.61l-1.95-1.26ZM792.95,12.96c-.94-.69-2.27-1.51-3.71-2.3-1.33,2.63-3.35,4.93-6.55,6.52-.32-.54-1.04-1.44-1.59-1.87,2.99-1.37,4.79-3.42,5.98-5.72-1.58-.76-3.21-1.44-4.68-1.95l1.33-1.87c1.33.43,2.77,1.04,4.21,1.66.36-1.15.65-2.38.83-3.57h-6.05V1.55h17.18s0,.79-.04,1.12c-.32,8.46-.68,11.59-1.58,12.64-.54.72-1.15.97-2.12,1.04-.86.07-2.52.07-4.21-.04-.04-.76-.29-1.73-.68-2.41,1.62.14,3.13.14,3.71.14.61.04.94-.04,1.15-.36.61-.65.94-3.17,1.22-9.83h-6.09c-.25,1.59-.61,3.13-1.12,4.64,1.62.83,3.1,1.66,4.14,2.38l-1.33,2.09ZM793.46,30.25c.94,0,1.12-.51,1.22-4.11.5.47,1.51.83,2.23,1.04-.25,4.32-.9,5.4-3.17,5.4h-4c-2.66,0-3.31-.72-3.31-3.38v-8.64h2.48v8.64c0,.9.14,1.04,1.19,1.04h3.35ZM788.63,15.73c2.3,1.23,5.11,3.17,6.41,4.68l-1.66,1.76c-1.3-1.48-4-3.56-6.3-4.86l1.55-1.59ZM797.56,21.14c1.95,2.63,3.57,6.12,4.07,8.57l-2.34.97c-.47-2.41-2.05-6.01-3.89-8.68l2.16-.86Z"/>
          <path d="M222.17,160.86c-1.01,2.52-2.27,5.08-3.67,7.42v24.49h-2.52v-20.63c-1.3,1.8-2.63,3.38-4,4.75-.25-.57-1.04-1.98-1.51-2.59,3.64-3.42,7.13-8.75,9.22-14.19l2.48.76ZM244.17,189.1v2.56h-23.19v-2.56h10.41v-9h-8.28v-2.56h8.28v-7.89h-9.47v-2.52h12.28c-1.76-1.62-4.93-3.82-7.45-5.29l1.76-1.91c2.67,1.51,6.2,3.82,7.92,5.44l-1.55,1.77h8.75v2.52h-9.58v7.89h8.53v2.56h-8.53v9h10.12Z"/>
          <path d="M273.87,190.1c2.09,0,2.41-.94,2.63-5.44.65.5,1.87.9,2.66,1.12-.43,5.4-1.29,6.91-5.15,6.91h-8.03c-4.18,0-5.37-.94-5.37-4.43v-6.66l-12.64,1.48-.36-2.59,13-1.44v-5.33c-2.92.58-5.91,1.08-8.71,1.48-.11-.65-.5-1.69-.83-2.27,7.17-1.12,15.3-2.81,19.77-4.86l2.2,2.12c-2.63,1.12-5.98,2.09-9.58,2.92v5.62l15.63-1.76.36,2.48-15.99,1.84v6.99c0,1.51.39,1.84,2.7,1.84h7.71ZM251.33,171.41h-2.7v-7.63h13.54v-3.74h2.77v3.74h13.79v7.63h-2.77v-5.15h-24.63v5.15Z"/>
          <path d="M289.56,165.54h19.34c.79,0,2.09,0,3.17-.07-.07.9-.07,1.91-.07,2.81v17.75c0,1.15.04,3.96.07,4.36h-3.1c0-.25.04-1.12.04-2.09h-19.66c.04.94.04,1.8.07,2.09h-3.1c.04-.47.11-3.13.11-4.39v-17.72c0-.83,0-1.95-.07-2.81,1.4.04,2.38.07,3.21.07ZM289.34,185.49h19.7v-17.11h-19.7v17.11Z"/>
          <path d="M325.16,174.73h19.73c1.8,0,3.1-.11,3.89-.18v3.53c-.72-.04-2.23-.18-3.85-.18h-19.77c-1.98,0-3.89.07-5,.18v-3.53c1.08.07,2.99.18,5,.18Z"/>
          <path d="M367.86,182.61c5.54-3.49,9.94-8.82,12.03-13.25l1.73,3.06c-2.45,4.5-6.66,9.4-12.1,12.82-3.6,2.27-8.14,4.46-14.15,5.58l-1.91-2.95c6.3-.94,10.98-3.13,14.4-5.26ZM365.74,171.2l-2.27,2.27c-1.8-1.87-6.3-5.72-8.97-7.53l2.05-2.2c2.56,1.69,7.17,5.44,9.18,7.46Z"/>
          <path d="M400.98,191.26l-1.69-2.67c1.15-.11,2.27-.29,3.1-.47,4.61-1.04,9.15-4.46,9.15-10.7,0-5.44-3.49-9.94-9.61-10.44-.47,3.35-1.15,7.02-2.16,10.37-2.2,7.42-5.04,11.2-8.39,11.2s-6.41-3.67-6.41-9.61c0-7.82,6.95-14.66,15.74-14.66s13.79,5.94,13.79,13.25-4.97,12.61-13.5,13.72ZM391.48,185.24c1.69,0,3.6-2.41,5.44-8.5.9-2.99,1.62-6.41,2.02-9.72-6.91.87-11.16,6.77-11.16,11.67,0,4.54,2.09,6.55,3.71,6.55Z"/>
          <path d="M437.34,183.3c2.34,4.36,7.1,6.48,14.37,7.13-.61.58-1.3,1.73-1.66,2.48-7.13-.94-11.81-3.21-14.55-7.88-1.37,3.13-5.22,6.19-15.3,7.88-.29-.65-1.01-1.66-1.55-2.23,10.52-1.73,13.72-4.68,14.62-7.38h-13.79v-2.3h14.08v-2.59h2.67v2.59h14.55v2.3h-13.43ZM419.12,175.34c1.8-.22,4.07-.5,6.55-.83v-4.07h-5.47v-2.12h5.47v-3.35h-5.94v-2.12h5.94v-2.84h2.52v2.84h5.73v2.12h-5.73v3.35h5.29v2.12h-5.29v3.75c1.95-.25,3.96-.54,5.94-.83l.04,2.16c-5.33.83-10.84,1.58-14.8,2.12l-.25-2.3ZM442.42,164c-.47,6.59-1.76,11.05-7.17,13.72-.29-.57-1.04-1.44-1.58-1.87,4.79-2.3,5.87-6.12,6.23-11.85h-5.15v-2.3h15.84s0,.79-.04,1.12c-.4,9-.79,12.24-1.73,13.36-.54.72-1.19.97-2.16,1.04-.83.07-2.38.07-3.93,0-.07-.72-.32-1.76-.76-2.41,1.55.14,2.95.14,3.53.14s.86-.07,1.15-.4c.61-.68.97-3.38,1.33-10.55h-5.58Z"/>
          <path d="M458.76,180.85c-.5,3.39-1.37,6.84-2.56,9.15-.43-.32-1.51-.83-2.09-1.01,1.19-2.2,1.94-5.4,2.34-8.57l2.3.43ZM465.35,171.52c1.48,2.3,3.06,5.36,3.57,7.31l-2.12,1.01c-.14-.61-.36-1.3-.69-2.05l-3.13.18v14.98h-2.41v-14.84l-5.87.29-.22-2.41c.72,0,1.55-.04,2.38-.07.79-.93,1.62-2.02,2.41-3.2-1.12-1.62-3.02-3.64-4.72-5.15l1.37-1.76c.36.29.72.61,1.08.94,1.19-2.02,2.45-4.72,3.21-6.7l2.38.9c-1.22,2.41-2.74,5.29-4.1,7.24.86.87,1.62,1.73,2.2,2.49,1.48-2.27,2.85-4.61,3.85-6.55l2.3,1.01c-2.09,3.38-4.97,7.63-7.45,10.73,1.8-.07,3.78-.18,5.76-.25-.54-1.12-1.15-2.23-1.77-3.21l1.98-.86ZM466.29,180.27c1.04,2.2,2.09,5.04,2.41,6.91l-2.12.72c-.32-1.87-1.33-4.75-2.3-6.98l2.02-.65ZM486.78,167.85c-.65,16.13-1.15,21.71-2.63,23.48-.83,1.04-1.62,1.3-2.99,1.44-1.19.11-3.38.07-5.54-.07-.07-.75-.36-1.91-.87-2.63,2.41.22,4.61.22,5.51.22.69,0,1.15-.07,1.55-.54,1.19-1.22,1.8-6.7,2.34-20.74h-11.81c-1.01,1.91-2.16,3.64-3.35,5.04-.5-.43-1.69-1.22-2.34-1.59,2.77-2.99,5.08-7.71,6.41-12.46l2.7.61c-.61,2.02-1.33,4-2.2,5.87h13.21v1.37ZM476.37,183.69c-.83-2.2-2.84-5.76-4.86-8.39l2.16-1.04c2.02,2.52,4.18,5.94,5.04,8.21l-2.34,1.22Z"/>
          <path d="M504.7,169.61c-.72,4.21-1.69,7.96-3.06,11.2,1.69,2.23,3.1,4.39,4,6.16l-2.16,1.84c-.72-1.51-1.84-3.35-3.13-5.26-2.02,3.71-4.64,6.73-8.14,9.04-.32-.5-1.3-1.58-1.87-2.05,3.75-2.23,6.41-5.37,8.36-9.33-1.98-2.67-4.25-5.4-6.38-7.67l1.87-1.51c1.87,1.94,3.85,4.21,5.65,6.45,1.01-2.74,1.76-5.83,2.27-9.22l2.59.36ZM507.83,168.43h-16.64v-2.48h6.84v-5.87h2.56v5.87h7.24v2.48ZM523.46,171.2h-4.29v18.04c0,1.8-.43,2.59-1.51,3.1-1.08.43-2.88.5-5.98.5-.11-.72-.47-1.98-.87-2.77,2.27.07,4.25.07,4.86.04.61-.04.87-.22.87-.87v-18.04h-9.83v-2.56h9.83v-8.64h2.63v8.64h4.29v2.56ZM511.04,184.02c-.58-2.12-2.2-5.58-3.89-8.07l2.2-1.01c1.73,2.45,3.42,5.76,3.96,7.92l-2.27,1.15Z"/>
          <path d="M532.16,167.2v6.73c0,5.47-.5,13.54-3.56,18.98-.47-.47-1.62-1.22-2.27-1.51,2.92-5.15,3.21-12.35,3.21-17.47v-9.29h13.22v-4.61h2.74v4.61h13.72v2.56h-27.04ZM532.2,188.38c1.8-2.74,2.74-7.13,3.17-10.91l2.45.54c-.5,3.93-1.4,8.61-3.24,11.45l-2.38-1.08ZM549.3,189.74c1.48,0,1.69-.9,1.8-6.16.61.43,1.69.9,2.41,1.08-.29,5.94-.97,7.53-4.03,7.53h-5.26c-3.13,0-3.96-.9-3.96-3.89v-13.9h2.63v13.9c0,1.22.29,1.44,1.66,1.44h4.75ZM549.09,175.66c-1.73-1.62-5.33-4-8.28-5.55l1.84-1.73c2.88,1.4,6.52,3.67,8.36,5.29l-1.91,1.98ZM554.6,176.67c2.38,3.67,4.64,8.5,5.26,11.7l-2.56,1.12c-.61-3.17-2.74-8.1-5.08-11.85l2.38-.97Z"/>
          <path d="M222.17,320.86c-1.01,2.52-2.27,5.08-3.67,7.42v24.49h-2.52v-20.63c-1.3,1.8-2.63,3.38-4,4.75-.25-.57-1.04-1.98-1.51-2.59,3.64-3.42,7.13-8.75,9.22-14.19l2.48.76ZM244.17,349.1v2.56h-23.19v-2.56h10.41v-9h-8.28v-2.56h8.28v-7.89h-9.47v-2.52h12.28c-1.76-1.62-4.93-3.82-7.45-5.29l1.76-1.91c2.67,1.51,6.2,3.82,7.92,5.44l-1.55,1.77h8.75v2.52h-9.58v7.89h8.53v2.56h-8.53v9h10.12Z"/>
          <path d="M273.87,350.1c2.09,0,2.41-.94,2.63-5.44.65.5,1.87.9,2.66,1.12-.43,5.4-1.29,6.91-5.15,6.91h-8.03c-4.18,0-5.37-.94-5.37-4.43v-6.66l-12.64,1.48-.36-2.59,13-1.44v-5.33c-2.92.58-5.91,1.08-8.71,1.48-.11-.65-.5-1.69-.83-2.27,7.17-1.12,15.3-2.81,19.77-4.86l2.2,2.12c-2.63,1.12-5.98,2.09-9.58,2.92v5.62l15.63-1.76.36,2.48-15.99,1.84v6.99c0,1.51.39,1.84,2.7,1.84h7.71ZM251.33,331.41h-2.7v-7.63h13.54v-3.74h2.77v3.74h13.79v7.63h-2.77v-5.15h-24.63v5.15Z"/>
          <path d="M289.56,325.54h19.34c.79,0,2.09,0,3.17-.07-.07.9-.07,1.91-.07,2.81v17.75c0,1.15.04,3.96.07,4.36h-3.1c0-.25.04-1.12.04-2.09h-19.66c.04.94.04,1.8.07,2.09h-3.1c.04-.47.11-3.13.11-4.39v-17.72c0-.83,0-1.95-.07-2.81,1.4.04,2.38.07,3.21.07ZM289.34,345.49h19.7v-17.11h-19.7v17.11Z"/>
          <path d="M325.16,334.73h19.73c1.8,0,3.1-.11,3.89-.18v3.53c-.72-.04-2.23-.18-3.85-.18h-19.77c-1.98,0-3.89.07-5,.18v-3.53c1.08.07,2.99.18,5,.18Z"/>
          <path d="M367.86,342.61c5.54-3.49,9.94-8.82,12.03-13.25l1.73,3.06c-2.45,4.5-6.66,9.4-12.1,12.82-3.6,2.27-8.14,4.46-14.15,5.58l-1.91-2.95c6.3-.94,10.98-3.13,14.4-5.26ZM365.74,331.2l-2.27,2.27c-1.8-1.87-6.3-5.72-8.97-7.53l2.05-2.2c2.56,1.69,7.17,5.44,9.18,7.46Z"/>
          <path d="M390.9,325.47c-.68,3.31-1.8,9.76-1.8,13.79,0,1.76.11,3.28.32,5.04.61-1.62,1.48-3.78,2.09-5.26l1.51,1.15c-.94,2.56-2.23,6.37-2.56,8.07-.11.54-.22,1.22-.18,1.62.04.4.07.9.11,1.26l-2.59.18c-.72-2.56-1.33-6.7-1.33-11.56,0-5.29,1.19-11.45,1.62-14.44.14-.83.25-1.77.25-2.56l3.21.29c-.18.61-.5,1.77-.65,2.41ZM399.29,343.8c0,1.66,1.19,3.24,6.09,3.24,3.24,0,6.01-.29,8.93-.94l.07,3.03c-2.27.43-5.29.76-9,.76-6.05,0-8.75-2.02-8.75-5.4,0-1.22.21-2.49.61-4.25l2.59.25c-.36,1.33-.54,2.34-.54,3.31ZM413.23,325.8v2.92c-3.85.43-10.84.43-14.8,0v-2.88c3.92.65,11.2.5,14.8-.04Z"/>
          <path d="M422.97,333.14v19.77h-2.63v-31.37h13.04v11.6h-10.41ZM422.97,323.56v2.77h7.89v-2.77h-7.89ZM430.86,331.16v-2.99h-7.89v2.99h7.89ZM449.91,349.71c0,1.44-.29,2.23-1.26,2.7-.9.43-2.45.47-4.72.47-.07-.65-.4-1.69-.72-2.38-.14.21-.29.43-.36.61-3.53-.94-6.16-2.81-7.81-5.4-1.04,2.02-3.31,4.03-8.1,5.51-.32-.5-1.04-1.33-1.58-1.8,5.08-1.4,7.06-3.46,7.78-5.33h-7.46v-2.05h7.85v-2.81h-7.24v-2.02h3.85c-.36-.94-.97-2.09-1.62-2.92l2.09-.69c.86,1.12,1.69,2.59,1.95,3.6h4.68c.61-1.12,1.37-2.59,1.73-3.67l2.41.79c-.61.97-1.26,2.02-1.84,2.88h4.25v2.02h-7.89v2.81h8.5v2.05h-7.92c1.51,2.56,4.21,4.32,7.89,5.04-.32.29-.72.76-1.04,1.19,1.51.07,2.92.07,3.35.04.47,0,.61-.18.61-.68v-16.49h-10.73v-11.63h13.36v28.16ZM439.11,323.56v2.77h8.18v-2.77h-8.18ZM447.28,331.23v-3.06h-8.18v3.06h8.18Z"/>
          <path d="M473.49,323.89c0,.54-.04,1.37-.04,2.34h.54c4.39,0,8.82.04,10.55.04l-.04,2.66c-2.02-.11-5.29-.18-10.55-.18h-.5c0,2.05.04,4.29.07,5.94.76,1.22,1.15,2.81,1.15,4.61,0,4.86-2.38,10.26-10.77,12.78l-2.41-2.38c4.79-1.08,8.1-3.1,9.54-6.37-.86.65-1.91.97-3.13.97-3.02,0-5.9-2.09-5.9-6.01,0-3.57,2.92-6.27,6.34-6.27.9,0,1.69.14,2.41.39,0-1.08,0-2.38-.04-3.64-5.47.04-11.59.29-16.1.61l-.07-2.77c4-.07,10.77-.29,16.13-.36,0-1.01-.04-1.88-.07-2.38-.04-.94-.18-1.98-.21-2.27h3.28c-.07.4-.14,1.8-.18,2.27ZM468.38,341.82c2.12,0,3.49-1.69,3.17-5.11-.58-1.58-1.8-2.27-3.21-2.27-1.87,0-3.64,1.47-3.64,3.82s1.66,3.56,3.67,3.56Z"/>
          <path d="M495.05,323.74c1.87,0,10.44-.29,12.35-.47,1.08-.07,1.59-.18,1.95-.29l1.66,2.09c-.65.47-1.37.94-2.02,1.48-1.8,1.37-6.7,5.54-9.51,7.89,1.66-.58,3.38-.76,5.01-.76,5.98,0,10.26,3.6,10.26,8.46,0,5.8-4.75,9.54-12.39,9.54-4.9,0-7.89-2.12-7.89-5.11,0-2.48,2.2-4.68,5.55-4.68,4.5,0,6.91,2.95,7.35,6.37,2.88-1.12,4.5-3.21,4.5-6.16,0-3.53-3.38-6.2-8.07-6.2-6.01,0-9.22,2.56-13.79,7.2l-2.05-2.12c2.99-2.45,7.6-6.3,9.69-8.07,2.02-1.66,6.52-5.44,8.35-7.06-1.91.07-9.11.4-11.02.51-.79.04-1.62.11-2.38.22l-.11-2.99c.83.11,1.84.14,2.56.14ZM501.89,349.17c1.04,0,2.02-.07,2.92-.22-.29-2.85-2.09-4.9-4.83-4.9-1.62,0-2.88,1.04-2.88,2.3,0,1.73,1.98,2.81,4.79,2.81Z"/>
          <path d="M547.33,324.9c-2.09,3.31-5.19,6.16-8.75,8.57,4.18,2.27,9.07,4.03,14.04,5.01-.61.61-1.33,1.73-1.73,2.45-5.22-1.19-10.33-3.24-14.8-5.94-4.97,2.81-10.55,4.86-15.74,6.08-.21-.72-.83-1.84-1.3-2.41,4.75-1.01,9.98-2.81,14.62-5.26-2.23-1.58-4.25-3.31-5.91-5.22-1.84,1.73-3.78,3.24-5.72,4.43-.43-.5-1.44-1.51-2.05-1.98,4.5-2.45,8.86-6.48,11.38-10.91l2.56.9c-.65,1.08-1.37,2.16-2.16,3.17h13.25l.47-.14,1.84,1.26ZM525.25,340.09h21.17v12.86h-2.77v-1.55h-15.74v1.66h-2.66v-12.96ZM527.92,342.58v6.41h15.74v-6.41h-15.74ZM529.47,326.48c1.73,2.02,4,3.89,6.59,5.51,2.74-1.69,5.19-3.67,6.99-5.83h-13.29l-.29.32Z"/>
          <path d="M567.48,341.86c-.58-1.01-2.05-2.99-3.28-4.47v15.41h-2.59v-15.92c-1.48,3.64-3.38,7.24-5.22,9.44-.25-.76-.9-1.8-1.33-2.45,2.27-2.52,4.75-7.17,6.2-11.27h-5.51v-2.52h5.87v-5.47c-1.76.36-3.6.65-5.26.9-.14-.61-.5-1.48-.83-2.09,4.03-.65,8.75-1.69,11.38-2.88l1.87,2.02c-1.3.54-2.88,1.04-4.57,1.44v6.09h4.5v2.52h-4.5v2.2c1.12.94,4.18,4.11,4.9,4.93l-1.62,2.12ZM588.48,349.92v2.23h-21.43v-2.23h9.87v-2.81h-7.81v-2.16h7.81v-2.55h-7.42v-11.49h7.42v-2.41h-8.93v-2.2h8.93v-2.41c-2.59.18-5.26.29-7.67.36-.04-.58-.36-1.51-.61-2.02,5.98-.25,13.43-.86,17.47-1.76l1.62,2.02c-2.27.5-5.15.9-8.25,1.19v2.63h8.32v2.2h-8.32v2.41h7.6v11.49h-7.6v2.55h7.78v2.16h-7.78v2.81h9ZM571.88,335.73h5.04v-2.81h-5.04v2.81ZM576.92,340.38v-2.88h-5.04v2.88h5.04ZM579.47,332.93v2.81h5.19v-2.81h-5.19ZM584.66,337.5h-5.19v2.88h5.19v-2.88Z"/>
          <path d="M606.65,324.75v28.05h-2.59v-6.52c-4.54.76-9.15,1.44-12.57,2.02l-.47-2.7c1.01-.11,2.2-.25,3.49-.43v-20.42h-2.81v-2.48h17.47v2.48h-2.52ZM604.06,324.75h-7.02v4.79h7.02v-4.79ZM604.06,331.92h-7.02v5.01h7.02v-5.01ZM597.04,344.81c2.2-.29,4.61-.65,7.02-1.01v-4.43h-7.02v5.44ZM623.36,325.33c-.94,7.71-2.95,13.68-5.83,18.26,1.98,2.88,4.43,5.19,7.42,6.7-.61.51-1.48,1.51-1.91,2.2-2.85-1.62-5.22-3.82-7.17-6.52-2.12,2.7-4.61,4.83-7.35,6.41-.4-.68-1.19-1.66-1.77-2.16,2.85-1.48,5.4-3.71,7.56-6.66-2.48-4.25-4.18-9.47-5.37-15.38l2.56-.47c.94,4.97,2.38,9.51,4.43,13.32,2.09-3.67,3.64-8.17,4.46-13.47h-12.13v-2.63h12.86l.5-.11,1.73.5Z"/>
          <path d="M644.02,337.32s-.04.86-.07,1.22c-.65,8.5-1.26,11.85-2.56,13.07-.72.86-1.55,1.08-2.85,1.15-1.12.11-3.38.04-5.69-.07-.04-.83-.43-1.98-.94-2.73,2.38.21,4.75.25,5.65.25.76,0,1.19-.04,1.58-.39.87-.76,1.48-3.53,1.95-10.01h-9.47c-.14.61-.29,1.19-.4,1.73l-2.63-.43c.72-2.99,1.59-7.74,2.09-11.38h10.51v-5.69h-11.74v-2.52h14.37v10.73h-10.84c-.29,1.69-.58,3.46-.9,5.08h11.92ZM656.34,320.39v32.48h-2.66v-32.48h2.66Z"/>
          <path d="M677.5,329.61c-.72,4.21-1.69,7.96-3.06,11.2,1.69,2.23,3.1,4.39,4,6.16l-2.16,1.84c-.72-1.51-1.84-3.35-3.13-5.26-2.02,3.71-4.64,6.73-8.14,9.04-.32-.5-1.3-1.58-1.87-2.05,3.75-2.23,6.41-5.37,8.36-9.33-1.98-2.67-4.25-5.4-6.38-7.67l1.87-1.51c1.87,1.94,3.85,4.21,5.65,6.45,1.01-2.74,1.76-5.83,2.27-9.22l2.59.36ZM680.63,328.43h-16.64v-2.48h6.84v-5.87h2.56v5.87h7.24v2.48ZM696.26,331.2h-4.29v18.04c0,1.8-.43,2.59-1.51,3.1-1.08.43-2.88.5-5.98.5-.11-.72-.47-1.98-.87-2.77,2.27.07,4.25.07,4.86.04.61-.04.87-.22.87-.87v-18.04h-9.83v-2.56h9.83v-8.64h2.63v8.64h4.29v2.56ZM683.84,344.02c-.58-2.12-2.2-5.58-3.89-8.07l2.2-1.01c1.73,2.45,3.42,5.76,3.96,7.92l-2.27,1.15Z"/>
          <path d="M704.96,327.2v6.73c0,5.47-.5,13.54-3.56,18.98-.47-.47-1.62-1.22-2.27-1.51,2.92-5.15,3.21-12.35,3.21-17.47v-9.29h13.22v-4.61h2.74v4.61h13.72v2.56h-27.04ZM705,348.38c1.8-2.74,2.74-7.13,3.17-10.91l2.45.54c-.5,3.93-1.4,8.61-3.24,11.45l-2.38-1.08ZM722.11,349.74c1.48,0,1.69-.9,1.8-6.16.61.43,1.69.9,2.41,1.08-.29,5.94-.97,7.53-4.03,7.53h-5.26c-3.13,0-3.96-.9-3.96-3.89v-13.9h2.63v13.9c0,1.22.29,1.44,1.66,1.44h4.75ZM721.89,335.66c-1.73-1.62-5.33-4-8.28-5.55l1.84-1.73c2.88,1.4,6.52,3.67,8.36,5.29l-1.91,1.98ZM727.4,336.67c2.38,3.67,4.64,8.5,5.26,11.7l-2.56,1.12c-.61-3.17-2.74-8.1-5.08-11.85l2.38-.97Z"/>
          <path d="M236.82,490.73c1.4,5.22,4.03,9.94,7.56,12.17-.61.54-1.48,1.51-1.91,2.27-2.52-1.76-4.5-4.57-6.01-7.96v9.26h-17.25v-12.93h15.85c-.29-.9-.58-1.84-.79-2.81h-15.7c-.43,4.86-1.84,10.55-5.65,14.69-.36-.54-1.44-1.58-1.98-1.91,4.61-5.01,5.22-11.92,5.22-16.89v-5.01h24.13v9.11h-3.46ZM212.73,509.24h30.03v2.45h-30.03v-2.45ZM218.75,486.66c0,.54,0,1.12-.04,1.73h18.87v-4.46h-18.83v2.74ZM233.91,495.59h-12.28v3.42h12.28v-3.42ZM233.91,500.92h-12.28v3.49h12.28v-3.49Z"/>
          <path d="M258.92,481.08c-1.08,2.63-2.41,5.26-3.92,7.71v24.05h-2.63v-20.2c-1.33,1.76-2.77,3.38-4.25,4.75-.25-.65-1.12-2.05-1.62-2.7,3.96-3.42,7.63-8.79,9.76-14.44l2.66.83ZM270.99,491.74c2.3,5.73,6.05,11.45,9.79,14.48-.65.5-1.58,1.44-2.02,2.16-3.49-3.24-6.91-8.71-9.33-14.48v19.01h-2.63v-18.26c-2.41,5.62-5.83,10.77-9.36,13.86-.5-.61-1.4-1.59-2.02-2.05,3.89-3.06,7.71-8.86,9.97-14.73h-8.71v-2.59h10.12v-8.64h2.63v8.64h10.41v2.59h-8.86Z"/>
          <path d="M283.22,510.25c2.7-1.4,4.21-3.93,4.93-6.77l2.34.76c-.79,3.06-2.2,5.94-5.08,7.53l-2.2-1.51ZM290.5,489.11h-6.66v-2.23h6.66v-3.06c-1.87.21-3.78.32-5.51.39-.11-.57-.4-1.44-.69-1.98,4.39-.25,9.79-.83,12.68-1.69l1.8,1.87c-1.62.47-3.67.87-5.83,1.15v3.31h6.48v2.23h-6.48v3.17h5.01v8.18h-12.39v-8.18h4.93v-3.17ZM295.57,494.4h-7.67v3.96h7.67v-3.96ZM304.07,510.07c1.62,0,1.84-.47,1.98-3.78.61.47,1.69.83,2.45.97-.36,4.21-1.15,5.22-4.21,5.22h-6.99c-3.78,0-4.72-.72-4.72-3.49v-5.47h2.63v5.47c0,.9.32,1.08,2.27,1.08h6.59ZM297.12,500.63c2.27,1.12,4.93,2.88,6.19,4.32l-1.87,1.62c-1.22-1.4-3.82-3.31-6.09-4.5l1.76-1.44ZM314.62,500.81h-13.87v-17.54h4.25c.47-1.19.94-2.56,1.19-3.56l2.92.43c-.47,1.08-.97,2.2-1.4,3.13h6.91v17.54ZM303.21,485.51v2.92h8.82v-2.92h-8.82ZM303.21,490.37v3.06h8.82v-3.06h-8.82ZM312.03,498.62v-3.24h-8.82v3.24h8.82ZM309.69,503.26c2.59,1.98,5.33,4.9,6.45,7.13l-2.38,1.33c-1.01-2.2-3.64-5.19-6.19-7.28l2.12-1.19Z"/>
          <path d="M211.91,641.62h16.85v2.27h-16.85v-2.27ZM228.25,670.32c0,1.12-.18,1.73-1.01,2.12-.79.32-2.05.36-4,.36-.04-.58-.36-1.48-.65-2.05,1.41.04,2.59.04,2.95,0,.4,0,.5-.11.5-.47v-8.07h-2.56c-1.76,0-2.16-.36-2.16-2.16v-2.81h-2.23v.22c0,1.94-.36,4.36-3.17,6.05-.32-.43-1.01-.97-1.48-1.26,2.63-1.3,2.92-3.39,2.92-4.86v-.14h-2.95v15.56h-2.09v-17.57h15.92v15.09ZM226.85,653.14h-13.04v-7.2h13.04v7.2ZM221.23,665.53v6.34h-2.02v-6.34h-3.17v-1.87h8.5v1.87h-3.31ZM224.44,647.81h-8.28v3.49h8.28v-3.49ZM225.41,660.56c.47,0,.54-.04.65-.22v-3.1h-2.99v2.77c0,.5.07.54.61.54h1.73ZM242.05,672.91c-.11-.79-.29-1.76-.58-2.81-4.21.79-8.57,1.58-11.88,2.16l-.68-2.56c1.69-.25,3.82-.58,6.12-.94v-8.14h-5.15v-13.5h5.15v-6.84h2.34v6.84h5.47v13.5h-5.47v7.78l3.46-.54c-.5-1.62-1.15-3.28-1.84-4.72l2.05-.57c1.55,3.1,2.92,7.16,3.24,9.72l-2.23.61ZM232.04,658.33h3.13v-8.86h-3.13v8.86ZM240.57,649.47h-3.31v8.86h3.31v-8.86Z"/>
          <path d="M257.81,649.58c-3.24,1.04-6.63,2.09-9.33,2.95l-1.04-2.34c2.59-.61,6.37-1.69,10.05-2.7l.32,2.09ZM260.65,668.66c-2.92,1.69-7.42,3.35-10.98,4.32-.47-.5-1.37-1.55-1.98-2.02,3.67-.76,7.99-2.02,10.55-3.46l2.41,1.15ZM256.73,645.65c-1.66-.97-4.97-2.23-7.53-3.03l1.19-1.84c2.48.68,5.8,1.87,7.53,2.77l-1.19,2.09ZM252.23,652.71h23.3v14.44h-23.3v-14.44ZM254.82,656.92h18.04v-2.41h-18.04v2.41ZM254.82,661.14h18.04v-2.48h-18.04v2.48ZM254.82,665.39h18.04v-2.52h-18.04v2.52ZM263.14,644.64c-.9,1.12-1.95,2.16-3.21,3.13-.5-.5-1.37-1.08-2.02-1.33,2.7-1.87,4.5-4.29,5.44-6.45l2.41.39c-.36.76-.76,1.48-1.22,2.23h12.31l.43-.11,1.8.54c-1.01,1.84-2.34,3.86-3.64,5.11l-2.12-.75c.76-.72,1.55-1.73,2.2-2.77h-5.76c.79,2.77,2.81,5.4,10.19,6.48-.5.5-1.12,1.51-1.37,2.16-6.12-1.08-8.75-3.38-10.08-5.98-1.4,2.66-4.07,4.36-9.18,5.37-.21-.58-.83-1.44-1.26-1.91,5.87-1.04,8.03-2.84,8.89-6.12h-3.82ZM268.83,667.62c3.89,1.26,8.17,2.81,10.8,4l-2.95,1.33c-2.23-1.15-6.12-2.67-10.05-3.96l2.2-1.37Z"/>
          <path d="M303.13,664.05c3.28,2.77,8.54,5.11,13.36,6.16-.57.54-1.33,1.55-1.73,2.23-5.01-1.37-10.48-4.21-13.9-7.67v8.07h-2.63v-7.92c-3.35,3.35-8.64,6.16-13.58,7.49-.36-.65-1.12-1.69-1.69-2.16,4.79-1.08,10.01-3.46,13.18-6.19h-12.49v-2.23h14.58v-2.99h2.63v2.99h14.84v2.23h-12.57ZM288.91,654.94c1.01-1.12,2.16-2.56,3.35-4.03h-8.03v-2.2h9.72c.9-1.15,1.73-2.3,2.45-3.31l2.49.72c-.58.83-1.22,1.69-1.91,2.59h18.22v2.2h-6.91c-.9,1.91-2.16,3.49-3.96,4.79,3.49.9,6.77,1.91,9.15,2.77l-1.62,1.95c-2.45-1.01-6.19-2.16-10.19-3.24-3.53,1.58-8.5,2.52-15.59,3.03-.11-.58-.54-1.58-.87-2.12,5.58-.36,9.69-.94,12.71-1.84-1.98-.5-3.96-.94-5.83-1.33l-.68.83-2.49-.79ZM287.15,647.85h-2.52v-5.15h13.65v-2.66h2.63v2.66h13.9v5.15h-2.56v-2.88h-25.1v2.88ZM295.29,650.91c-.61.79-1.22,1.58-1.8,2.3,2.41.47,5.11,1.04,7.78,1.69,1.98-1.04,3.24-2.38,4.11-4h-10.08Z"/>
          <path d="M329.88,640.93c-1.01,2.63-2.2,5.29-3.57,7.78v24.13h-2.56v-19.98c-1.04,1.55-2.2,2.95-3.31,4.21-.25-.65-1.04-2.02-1.51-2.63,3.35-3.49,6.52-8.86,8.43-14.3l2.52.79ZM351.78,660.49h-9.76v12.42h-2.66v-12.42h-10.26v-2.63h10.26v-7.89h-5.65c-.76,2.09-1.62,3.96-2.59,5.47-.51-.4-1.62-1.04-2.3-1.37,2.12-2.95,3.6-7.63,4.43-12.28l2.52.54c-.32,1.69-.72,3.38-1.19,5h4.79v-6.88h2.66v6.88h8.21v2.63h-8.21v7.89h9.76v2.63Z"/>
          <path d="M372.25,671.26l-1.69-2.67c1.15-.11,2.27-.29,3.1-.47,4.61-1.04,9.15-4.46,9.15-10.7,0-5.44-3.49-9.94-9.61-10.44-.47,3.35-1.15,7.02-2.16,10.37-2.2,7.42-5.04,11.2-8.39,11.2s-6.41-3.67-6.41-9.61c0-7.82,6.95-14.66,15.74-14.66s13.79,5.94,13.79,13.25-4.97,12.61-13.5,13.72ZM362.75,665.24c1.69,0,3.6-2.41,5.44-8.5.9-2.99,1.62-6.41,2.02-9.72-6.91.87-11.16,6.77-11.16,11.67,0,4.54,2.09,6.55,3.71,6.55Z"/>
          <path d="M409.98,665.28c3.24,2.34,8.35,4.18,12.93,5.01-.58.47-1.3,1.44-1.62,2.12-4.82-1.15-10.3-3.56-13.68-6.48v6.91h-2.66v-6.98c-3.46,2.92-8.93,5.36-13.61,6.55-.36-.65-1.08-1.58-1.62-2.05,4.39-.94,9.43-2.77,12.75-5.08h-11.92v-2.12h14.4v-2.16c-3.93.22-7.96.36-11.63.4-.07-.58-.29-1.37-.5-1.87,8.64-.14,19.23-.76,24.81-1.8l1.76,1.77c-3.21.58-7.35,1.01-11.78,1.33v2.34h14.55v2.12h-12.17ZM421.44,644.79h-30.32v-2.16h13.83v-2.59h2.66v2.59h13.83v2.16ZM394.14,657.5v-11.02h24.56v11.02h-24.56ZM396.59,655.84h19.55v-7.71h-19.55v7.71ZM399.54,649.65h13.54v4.68h-13.54v-4.68ZM401.81,652.96h8.93v-1.91h-8.93v1.91Z"/>
          <path d="M437.41,648.17h-11.56v-2.2h11.56v2.2ZM436.48,670.79h-7.02v1.69h-2.16v-12.06h9.18v10.37ZM427.33,650.84h9.15v2.12h-9.15v-2.12ZM427.33,655.59h9.15v2.16h-9.15v-2.16ZM436.41,643.42h-8.86v-2.16h8.86v2.16ZM429.46,662.61v6.01h4.79v-6.01h-4.79ZM457,664.02c-.9,1.58-2.16,3.06-3.56,4.36.79,1.73,1.73,2.59,2.74,2.59.61,0,.97-.76,1.15-3.1.43.47,1.15.79,1.69,1.01-.4,3.24-1.26,4.25-3.02,4.29-1.8,0-3.24-1.15-4.36-3.31-1.4,1.04-2.92,1.95-4.47,2.63-.29-.4-.9-1.04-1.37-1.44,1.76-.76,3.53-1.8,5.08-3.06-.54-1.58-.97-3.49-1.26-5.69h-4.83v2.45c1.26-.18,2.52-.36,3.82-.54l.07,1.98-3.89.57v3.67c0,1.19-.29,1.8-1.19,2.12-.86.32-2.23.32-4.32.32-.11-.54-.47-1.4-.76-2.02,1.51.04,2.92.04,3.31.04.43-.04.54-.14.54-.5v-3.28l-4.82.72-.36-2.16c1.48-.14,3.24-.36,5.19-.61v-2.77h-5.04v-2.05h5.04v-2.41c-1.33.18-2.66.36-3.89.47-.11-.47-.36-1.23-.61-1.69,3.13-.36,6.88-1.01,8.9-1.73l1.62,1.66c-1.04.32-2.3.61-3.6.86v2.85h4.57c-.14-1.58-.25-3.35-.32-5.19h2.3c.04,1.91.14,3.64.29,5.19h6.91v2.05h-6.66c.21,1.55.5,2.88.83,4.03.94-1.01,1.73-2.05,2.3-3.21l1.98.9ZM446.71,645.51h-8.03v-1.98h4.39c-.43-.9-1.15-1.91-1.8-2.77l1.91-.75c.9,1.01,1.87,2.48,2.27,3.46l-.18.07h5.55c.68-1.04,1.55-2.56,1.98-3.56l2.38.72c-.65,1.01-1.33,2.02-1.94,2.84h4.5v1.98h-8.46v2.3h7.53v1.84h-7.53v2.52h9.22v2.05h-21.1v-2.05h9.33v-2.52h-6.88v-1.84h6.88v-2.3ZM454.27,655.09c1.48.94,3.17,2.34,3.96,3.35l-1.62,1.37c-.79-1.08-2.45-2.56-3.89-3.53l1.55-1.19Z"/>
          <path d="M494.26,658.18v1.98h-31.83v-1.98h14.48v-2.12h-12.03v-1.84h12.03v-1.98h-11.02v-1.8h11.02v-2.12h-14.4v-2.02h14.4v-2.02h-10.62v-1.8h10.62v-2.52h2.63v2.52h10.3v3.82h4.39v2.02h-4.39v3.93h-10.3v1.98h12.28v1.84h-12.28v2.12h14.73ZM467.04,661.86h22.97v11.05h-2.66v-1.12h-17.72v1.19h-2.59v-11.13ZM469.63,663.69v2.2h17.72v-2.2h-17.72ZM487.35,669.92v-2.3h-17.72v2.3h17.72ZM479.54,646.3h7.67v-2.02h-7.67v2.02ZM479.54,650.44h7.67v-2.12h-7.67v2.12Z"/>
          <path d="M509.23,640.97c-.97,2.59-2.27,5.22-3.67,7.71v24.16h-2.66v-20.02c-1.12,1.58-2.34,3.03-3.57,4.29-.25-.61-1.04-2.09-1.55-2.66,3.56-3.46,6.88-8.82,8.89-14.3l2.56.83ZM519.75,648.57v5.15h10.26v2.48h-10.26v5.44h10.77v2.52h-10.77v8.71h-2.7v-24.31h-2.49c-1.55,2.88-3.31,5.47-5.11,7.49-.43-.47-1.48-1.37-2.09-1.8,3.24-3.35,6.16-8.53,7.92-13.79l2.56.69c-.58,1.66-1.26,3.28-1.98,4.86h14.98v2.56h-11.09Z"/>
          <path d="M564.28,652.21c-1.55,4.64-3.67,8.75-6.34,12.17,1.33,3.53,2.99,5.58,4.83,5.58,1.01,0,1.44-1.88,1.69-6.66.61.61,1.59,1.22,2.3,1.44-.5,6.12-1.48,7.89-4.21,7.89s-4.93-2.2-6.59-5.91c-2.16,2.34-4.64,4.36-7.42,5.98-.4-.54-1.33-1.62-1.95-2.12,3.21-1.73,5.98-3.96,8.28-6.66-1.3-4.07-2.16-9.36-2.63-15.16h-12.42v4.68h9.18v1.15c-.18,8.07-.4,11.09-1.15,12.03-.54.69-1.15.94-2.16,1.05-.9.07-2.52.07-4.29,0-.04-.83-.32-1.84-.76-2.52,1.66.14,3.21.18,3.82.18.51,0,.87-.07,1.08-.4.5-.54.68-2.81.83-9h-6.55v.29c0,5.04-.54,12.28-3.78,16.96-.47-.54-1.62-1.48-2.23-1.8,2.95-4.39,3.28-10.55,3.28-15.2v-10.05h15.02c-.14-1.98-.18-4-.21-6.05h2.77c0,2.09.04,4.11.14,6.05h11.63v2.63h-11.45c.36,4.79,1.01,9.07,1.98,12.5,1.95-2.85,3.49-6.09,4.61-9.72l2.7.68ZM558.05,640.18c2.23,1.12,5.04,2.84,6.45,4.11l-1.66,1.84c-1.37-1.26-4.11-3.1-6.38-4.32l1.58-1.62Z"/>
          <path d="M211.91,801.62h16.85v2.27h-16.85v-2.27ZM228.25,830.32c0,1.12-.18,1.73-1.01,2.12-.79.32-2.05.36-4,.36-.04-.58-.36-1.48-.65-2.05,1.41.04,2.59.04,2.95,0,.4,0,.5-.11.5-.47v-8.07h-2.56c-1.76,0-2.16-.36-2.16-2.16v-2.81h-2.23v.22c0,1.94-.36,4.36-3.17,6.05-.32-.43-1.01-.97-1.48-1.26,2.63-1.3,2.92-3.39,2.92-4.86v-.14h-2.95v15.56h-2.09v-17.57h15.92v15.09ZM226.85,813.14h-13.04v-7.2h13.04v7.2ZM221.23,825.53v6.34h-2.02v-6.34h-3.17v-1.87h8.5v1.87h-3.31ZM224.44,807.81h-8.28v3.49h8.28v-3.49ZM225.41,820.56c.47,0,.54-.04.65-.22v-3.1h-2.99v2.77c0,.5.07.54.61.54h1.73ZM242.05,832.91c-.11-.79-.29-1.76-.58-2.81-4.21.79-8.57,1.58-11.88,2.16l-.68-2.56c1.69-.25,3.82-.58,6.12-.94v-8.14h-5.15v-13.5h5.15v-6.84h2.34v6.84h5.47v13.5h-5.47v7.78l3.46-.54c-.5-1.62-1.15-3.28-1.84-4.72l2.05-.57c1.55,3.1,2.92,7.16,3.24,9.72l-2.23.61ZM232.04,818.33h3.13v-8.86h-3.13v8.86ZM240.57,809.47h-3.31v8.86h3.31v-8.86Z"/>
          <path d="M257.81,809.58c-3.24,1.04-6.63,2.09-9.33,2.95l-1.04-2.34c2.59-.61,6.37-1.69,10.05-2.7l.32,2.09ZM260.65,828.66c-2.92,1.69-7.42,3.35-10.98,4.32-.47-.5-1.37-1.55-1.98-2.02,3.67-.76,7.99-2.02,10.55-3.46l2.41,1.15ZM256.73,805.65c-1.66-.97-4.97-2.23-7.53-3.03l1.19-1.84c2.48.68,5.8,1.87,7.53,2.77l-1.19,2.09ZM252.23,812.71h23.3v14.44h-23.3v-14.44ZM254.82,816.92h18.04v-2.41h-18.04v2.41ZM254.82,821.14h18.04v-2.48h-18.04v2.48ZM254.82,825.39h18.04v-2.52h-18.04v2.52ZM263.14,804.64c-.9,1.12-1.95,2.16-3.21,3.13-.5-.5-1.37-1.08-2.02-1.33,2.7-1.87,4.5-4.29,5.44-6.45l2.41.39c-.36.76-.76,1.48-1.22,2.23h12.31l.43-.11,1.8.54c-1.01,1.84-2.34,3.86-3.64,5.11l-2.12-.75c.76-.72,1.55-1.73,2.2-2.77h-5.76c.79,2.77,2.81,5.4,10.19,6.48-.5.5-1.12,1.51-1.37,2.16-6.12-1.08-8.75-3.38-10.08-5.98-1.4,2.66-4.07,4.36-9.18,5.37-.21-.58-.83-1.44-1.26-1.91,5.87-1.04,8.03-2.84,8.89-6.12h-3.82ZM268.83,827.62c3.89,1.26,8.17,2.81,10.8,4l-2.95,1.33c-2.23-1.15-6.12-2.67-10.05-3.96l2.2-1.37Z"/>
          <path d="M295.82,808.17h-12.68v-2.2h12.68v2.2ZM294.92,830.82h-7.96v1.66h-2.27v-12.06h10.23v10.41ZM294.89,812.96h-10.15v-2.12h10.15v2.12ZM284.73,815.59h10.15v2.16h-10.15v-2.16ZM294.78,803.42h-9.87v-2.16h9.87v2.16ZM286.97,822.61v6.05h5.65v-6.05h-5.65ZM308.61,820.85c1.94,3.17,5.08,6.45,7.85,8.14-.58.47-1.44,1.4-1.84,2.02-2.52-1.84-5.33-5.04-7.35-8.32v10.15h-2.59v-9.94c-2.05,3.46-4.9,6.59-7.78,8.35-.39-.58-1.22-1.55-1.76-2.02,3.1-1.69,6.3-4.97,8.28-8.39h-7.13v-2.41h8.39v-2.99h-7.06v-13.94h16.89v13.94h-7.24v2.99h8.32v2.41h-6.99ZM300.04,807.38h4.75v-3.67h-4.75v3.67ZM300.04,813.25h4.75v-3.71h-4.75v3.71ZM312.03,803.71h-4.9v3.67h4.9v-3.67ZM312.03,809.54h-4.9v3.71h4.9v-3.71Z"/>
          <path d="M350.05,829.35c0,1.73-.4,2.59-1.62,3.02-1.26.47-3.49.47-6.7.47-.11-.72-.5-1.98-.9-2.7,2.52.11,4.97.11,5.72.07.65-.04.87-.25.87-.9v-20.53h-10.44c-.07,1.48-.25,3.06-.65,4.68,3.56,3.13,7.96,7.35,10.15,10.01l-2.2,1.73c-1.84-2.41-5.44-6.09-8.75-9.18-1.33,3.46-3.92,6.8-8.75,9.65-.4-.58-1.3-1.55-1.91-2.02,7.92-4.21,9.22-10.15,9.44-14.87h-10.37v24.16h-2.63v-26.79h13.04v-6.16h2.66v6.16h13.04v23.19Z"/>
          <path d="M358.43,806.27c2.34-.25,9.15-.94,15.77-1.48,3.93-.32,7.31-.54,9.72-.65v2.88c-2.05,0-5.22.04-7.06.58-5.12,1.66-8.25,7.13-8.25,11.41,0,7.02,6.55,9.26,12.42,9.47l-1.04,2.99c-6.66-.25-14.26-3.82-14.26-11.85,0-5.62,3.42-10.19,6.73-12.17-3.85.43-13.04,1.3-16.93,2.12l-.32-3.13c1.37-.04,2.52-.11,3.21-.18ZM381.69,816.46l-1.84.87c-.83-1.73-1.87-3.6-2.95-5.08l1.84-.79c.83,1.19,2.2,3.42,2.95,5.01ZM385.79,814.91l-1.87.9c-.86-1.77-1.91-3.53-3.03-5.04l1.77-.83c.86,1.19,2.3,3.38,3.13,4.97Z"/>
          <path d="M405.52,831.26l-1.69-2.67c1.15-.11,2.27-.29,3.1-.47,4.61-1.04,9.15-4.46,9.15-10.7,0-5.44-3.49-9.94-9.61-10.44-.47,3.35-1.15,7.02-2.16,10.37-2.2,7.42-5.04,11.2-8.39,11.2s-6.41-3.67-6.41-9.61c0-7.82,6.95-14.66,15.74-14.66s13.79,5.94,13.79,13.25-4.97,12.61-13.5,13.72ZM396.01,825.24c1.69,0,3.6-2.41,5.44-8.5.9-2.99,1.62-6.41,2.02-9.72-6.91.87-11.16,6.77-11.16,11.67,0,4.54,2.09,6.55,3.71,6.55Z"/>
          <path d="M447.25,828.27l-1.22,2.77c-4.79-2.09-15.48-4.5-21.32-5.44l1.12-2.74c6.05.94,16.49,3.42,21.43,5.4ZM445.95,816.71l-1.15,2.77c-4.18-1.66-12.96-3.64-18.08-4.39l1.08-2.7c4.93.83,13.65,2.66,18.15,4.32ZM448.33,807.06l-1.15,2.77c-4.39-1.58-13.83-3.64-18.8-4.29l1.04-2.66c4.68.58,14.37,2.59,18.9,4.18Z"/>
          <path d="M459.73,814.73h19.73c1.8,0,3.1-.11,3.89-.18v3.53c-.72-.04-2.23-.18-3.85-.18h-19.77c-1.98,0-3.89.07-5,.18v-3.53c1.08.07,2.99.18,5,.18Z"/>
          <path d="M491.81,812.71h23.59c.76,0,1.95-.04,2.81-.18v2.99c-.79-.04-1.94-.07-2.81-.07h-9.79c-.11,3.89-.68,7.17-2.12,9.83-1.29,2.41-4.03,5.01-7.09,6.59l-2.66-1.98c2.81-1.15,5.4-3.24,6.8-5.51,1.59-2.52,1.98-5.55,2.09-8.93h-10.8c-1.08,0-2.12,0-3.13.07v-2.99c1.01.11,2.02.18,3.13.18ZM496.24,803.71h14.59c1.01,0,2.3-.07,3.35-.21v2.99c-1.04-.07-2.3-.11-3.35-.11h-14.55c-1.19,0-2.38.04-3.28.11v-2.99c1.01.11,2.09.21,3.24.21Z"/>
          <path d="M532.2,815.41c3.42-2.09,6.73-5.04,8.57-7.34l2.23,2.16c-1.8,1.98-4.86,4.61-8.14,6.73v12.82c0,1.12.04,2.59.18,3.17h-3.31c.07-.58.14-2.05.14-3.17v-11.02c-3.03,1.62-7.2,3.49-11.27,4.75l-1.37-2.67c4.75-1.12,10.05-3.64,12.96-5.44Z"/>
          <path d="M562.55,822.61c5.54-3.49,9.94-8.82,12.03-13.25l1.73,3.06c-2.45,4.5-6.66,9.4-12.1,12.82-3.6,2.27-8.14,4.46-14.15,5.58l-1.91-2.95c6.3-.94,10.98-3.13,14.4-5.26ZM560.43,811.2l-2.27,2.27c-1.8-1.87-6.3-5.72-8.97-7.53l2.05-2.2c2.56,1.69,7.17,5.44,9.18,7.46Z"/>
          <path d="M592.68,805.87c-.25.51-.54,1.01-.83,1.51h9.76c.97,0,1.77-.11,2.34-.32l2.38,1.44c-.29.5-.65,1.33-.83,1.91-.97,3.64-3.17,8.5-6.37,12.42-3.28,4-7.6,7.28-14.33,9.8l-2.63-2.38c6.63-1.95,11.13-5.19,14.4-9.04,2.77-3.28,5.01-7.96,5.73-11.24h-12.14c-2.2,3.06-5.19,6.27-9.15,8.86l-2.48-1.84c6.19-3.71,9.72-8.97,11.31-12.17.36-.65.9-1.95,1.12-2.88l3.31,1.12c-.58.94-1.22,2.16-1.58,2.81ZM606.91,806.27l-1.95.86c-.72-1.44-1.95-3.64-2.92-4.97l1.91-.83c.9,1.29,2.2,3.46,2.95,4.93ZM610.94,804.79l-1.95.86c-.79-1.55-1.98-3.6-2.99-4.93l1.91-.83c.94,1.33,2.34,3.57,3.03,4.9Z"/>
          <path d="M608.7,824.12l2.34-2.05c2.59,2.09,5.83,5.36,8.07,7.99l-2.45,2.09c-2.3-2.84-5.4-5.94-7.96-8.03Z"/>
          <path d="M626.3,816.1c.79-2.41,1.37-6.34,1.62-9.18l1.98.25c-.14,2.81-.72,6.95-1.55,9.62l-2.05-.68ZM630.7,800h2.49v32.88h-2.49v-32.88ZM635.23,805.26c.79,1.62,1.66,3.78,1.98,5.08l-1.87.94c-.29-1.37-1.12-3.6-1.87-5.29l1.76-.72ZM659.5,811.63v2.05h-23.37v-2.05h10.26v-2.52h-8.32v-1.95h8.32v-2.3h-9.18v-2.05h9.18v-2.81h2.63v2.81h9.47v2.05h-9.47v2.3h8.57v1.95h-8.57v2.52h10.48ZM656.73,829.89c0,1.37-.29,2.05-1.3,2.45-1.01.4-2.59.43-5.15.4-.14-.65-.43-1.62-.76-2.3,1.8.07,3.53.07,3.96.04.5,0,.69-.14.69-.61v-2.59h-12.96v5.62h-2.52v-17.14h18.04v14.15ZM641.21,817.82v2.7h12.96v-2.7h-12.96ZM654.18,825.28v-2.74h-12.96v2.74h12.96Z"/>
          <path d="M672.06,809.58h6.62v2.3h-3.74l1.73.47c-.65,1.66-1.37,3.38-1.98,4.64h3.57v2.34h-6.19v3.89h5.72v2.27h-5.72v7.31h-2.52v-7.31h-5.91v-2.27h5.91v-3.89h-6.27v-2.34h3.53c-.22-1.3-.83-3.21-1.51-4.64l1.77-.47h-4.29v-2.3h6.77v-3.57h-5.47v-2.3h5.47v-3.64h2.52v3.64h5.26v2.3h-5.26v3.57ZM672.6,816.6c.58-1.3,1.37-3.31,1.77-4.72h-7.02c.79,1.51,1.48,3.53,1.66,4.75l-1.26.36h6.23l-1.37-.4ZM694.64,814.29c-.76,4.32-2.2,8.39-4.36,11.85,1.66,1.94,3.56,3.53,5.69,4.57-.58.5-1.4,1.48-1.84,2.16-1.98-1.12-3.75-2.7-5.33-4.57-1.37,1.8-2.99,3.38-4.83,4.65-.36-.54-1.08-1.26-1.69-1.77v1.73h-2.45v-31.26h13.97v6.91c0,1.33-.25,2.05-1.4,2.45-1.08.36-2.88.4-5.62.4-.11-.72-.47-1.66-.83-2.3,2.23.07,4.11.07,4.65,0,.58-.04.72-.14.72-.58v-4.43h-9.04v9.69h10.23l.47-.11,1.66.61ZM682.29,831.04c1.91-1.26,3.56-2.92,4.97-4.82-2.02-2.95-3.56-6.45-4.64-10.19h-.32v15.02ZM684.88,816.02c.9,2.84,2.2,5.58,3.78,7.96,1.4-2.45,2.45-5.18,3.1-7.96h-6.88Z"/>
          <path d="M731.43,818.69v2.59h-32.37v-2.59h8.28v-8.5h-6.84v-2.59h6.84v-7.28h2.7v7.28h10.23v-7.28h2.74v7.28h7.13v2.59h-7.13v8.5h8.43ZM711.84,824.45c-2.56,3.1-6.62,6.41-10.23,8.5-.5-.54-1.48-1.41-2.12-1.91,3.53-1.84,7.56-4.97,9.58-7.67l2.77,1.08ZM710.04,818.69h10.23v-8.5h-10.23v8.5ZM720.59,823.33c3.31,2.34,7.78,5.8,10.05,7.92l-2.52,1.66c-2.12-2.12-6.45-5.69-9.83-8.21l2.3-1.37Z"/>
          <path d="M747.52,807.16c-.69,1.41-1.4,2.85-2.2,4.18h17.36v18.19c0,1.62-.36,2.41-1.51,2.84-1.19.43-3.21.47-6.27.47-.11-.79-.5-1.87-.86-2.63,2.38.11,4.54.07,5.19.07.61-.04.83-.22.83-.76v-3.75h-15.02v7.1h-2.63v-17.32c-1.73,2.12-3.71,4.07-5.98,5.65-.36-.58-1.19-1.55-1.73-2.05,4.32-2.92,7.6-7.24,9.9-11.99h-9.04v-2.52h10.16c.61-1.55,1.15-3.1,1.58-4.64l2.66.65c-.43,1.33-.86,2.7-1.4,4h18.33v2.52h-19.37ZM760.05,813.75h-15.02v3.64h15.02v-3.64ZM760.05,823.48v-3.78h-15.02v3.78h15.02Z"/>
          <path d="M229.91,983.3c2.34,4.36,7.1,6.48,14.37,7.13-.61.58-1.3,1.73-1.66,2.48-7.13-.94-11.81-3.21-14.55-7.88-1.37,3.13-5.22,6.19-15.3,7.88-.29-.65-1.01-1.66-1.55-2.23,10.52-1.73,13.72-4.68,14.62-7.38h-13.79v-2.3h14.08v-2.59h2.67v2.59h14.55v2.3h-13.43ZM211.69,975.34c1.8-.22,4.07-.5,6.55-.83v-4.07h-5.47v-2.12h5.47v-3.35h-5.94v-2.12h5.94v-2.84h2.52v2.84h5.73v2.12h-5.73v3.35h5.29v2.12h-5.29v3.75c1.95-.25,3.96-.54,5.94-.83l.04,2.16c-5.33.83-10.84,1.58-14.8,2.12l-.25-2.3ZM234.99,964c-.47,6.59-1.76,11.05-7.17,13.72-.29-.57-1.04-1.44-1.58-1.87,4.79-2.3,5.87-6.12,6.23-11.85h-5.15v-2.3h15.84s0,.79-.04,1.12c-.4,9-.79,12.24-1.73,13.36-.54.72-1.19.97-2.16,1.04-.83.07-2.38.07-3.93,0-.07-.72-.32-1.76-.76-2.41,1.55.14,2.95.14,3.53.14s.86-.07,1.15-.4c.61-.68.97-3.38,1.33-10.55h-5.58Z"/>
          <path d="M251.33,980.85c-.5,3.39-1.37,6.84-2.56,9.15-.43-.32-1.51-.83-2.09-1.01,1.19-2.2,1.94-5.4,2.34-8.57l2.3.43ZM257.92,971.52c1.48,2.3,3.06,5.36,3.57,7.31l-2.12,1.01c-.14-.61-.36-1.3-.69-2.05l-3.13.18v14.98h-2.41v-14.84l-5.87.29-.22-2.41c.72,0,1.55-.04,2.38-.07.79-.93,1.62-2.02,2.41-3.2-1.12-1.62-3.02-3.64-4.72-5.15l1.37-1.76c.36.29.72.61,1.08.94,1.19-2.02,2.45-4.72,3.21-6.7l2.38.9c-1.22,2.41-2.74,5.29-4.1,7.24.86.87,1.62,1.73,2.2,2.49,1.48-2.27,2.85-4.61,3.85-6.55l2.3,1.01c-2.09,3.38-4.97,7.63-7.45,10.73,1.8-.07,3.78-.18,5.76-.25-.54-1.12-1.15-2.23-1.77-3.21l1.98-.86ZM258.85,980.27c1.04,2.2,2.09,5.04,2.41,6.91l-2.12.72c-.32-1.87-1.33-4.75-2.3-6.98l2.02-.65ZM279.34,967.85c-.65,16.13-1.15,21.71-2.63,23.48-.83,1.04-1.62,1.3-2.99,1.44-1.19.11-3.38.07-5.54-.07-.07-.75-.36-1.91-.87-2.63,2.41.22,4.61.22,5.51.22.69,0,1.15-.07,1.55-.54,1.19-1.22,1.8-6.7,2.34-20.74h-11.81c-1.01,1.91-2.16,3.64-3.35,5.04-.5-.43-1.69-1.22-2.34-1.59,2.77-2.99,5.08-7.71,6.41-12.46l2.7.61c-.61,2.02-1.33,4-2.2,5.87h13.21v1.37ZM268.94,983.69c-.83-2.2-2.84-5.76-4.86-8.39l2.16-1.04c2.02,2.52,4.18,5.94,5.04,8.21l-2.34,1.22Z"/>
          <path d="M315.56,978.18v1.98h-31.83v-1.98h14.48v-2.12h-12.03v-1.84h12.03v-1.98h-11.02v-1.8h11.02v-2.12h-14.4v-2.02h14.4v-2.02h-10.62v-1.8h10.62v-2.52h2.63v2.52h10.3v3.82h4.39v2.02h-4.39v3.93h-10.3v1.98h12.28v1.84h-12.28v2.12h14.73ZM288.33,981.86h22.98v11.05h-2.67v-1.12h-17.72v1.19h-2.59v-11.13ZM290.93,983.69v2.2h17.72v-2.2h-17.72ZM308.64,989.92v-2.3h-17.72v2.3h17.72ZM300.83,966.3h7.67v-2.02h-7.67v2.02ZM300.83,970.44h7.67v-2.12h-7.67v2.12Z"/>
          <path d="M330.53,960.97c-.97,2.59-2.27,5.22-3.67,7.71v24.16h-2.66v-20.02c-1.12,1.58-2.34,3.03-3.57,4.29-.25-.61-1.04-2.09-1.55-2.66,3.57-3.46,6.88-8.82,8.9-14.3l2.56.83ZM341.04,968.57v5.15h10.26v2.48h-10.26v5.44h10.77v2.52h-10.77v8.71h-2.7v-24.31h-2.49c-1.55,2.88-3.31,5.47-5.11,7.49-.43-.47-1.48-1.37-2.09-1.8,3.24-3.35,6.16-8.53,7.92-13.79l2.56.69c-.58,1.66-1.26,3.28-1.98,4.86h14.98v2.56h-11.09Z"/>
          <path d="M385.58,972.21c-1.55,4.64-3.67,8.75-6.34,12.17,1.33,3.53,2.99,5.58,4.83,5.58,1.01,0,1.44-1.88,1.69-6.66.61.61,1.58,1.22,2.3,1.44-.5,6.12-1.48,7.89-4.21,7.89s-4.93-2.2-6.59-5.91c-2.16,2.34-4.64,4.36-7.42,5.98-.4-.54-1.33-1.62-1.95-2.12,3.21-1.73,5.98-3.96,8.28-6.66-1.3-4.07-2.16-9.36-2.63-15.16h-12.42v4.68h9.18v1.15c-.18,8.07-.4,11.09-1.15,12.03-.54.69-1.15.94-2.16,1.05-.9.07-2.52.07-4.29,0-.04-.83-.32-1.84-.76-2.52,1.66.14,3.21.18,3.82.18.51,0,.87-.07,1.08-.4.5-.54.68-2.81.83-9h-6.55v.29c0,5.04-.54,12.28-3.78,16.96-.47-.54-1.62-1.48-2.23-1.8,2.95-4.39,3.28-10.55,3.28-15.2v-10.05h15.02c-.14-1.98-.18-4-.21-6.05h2.77c0,2.09.04,4.11.14,6.05h11.63v2.63h-11.45c.36,4.79,1.01,9.07,1.98,12.5,1.95-2.85,3.49-6.09,4.61-9.72l2.7.68ZM379.35,960.18c2.23,1.12,5.04,2.84,6.45,4.11l-1.66,1.84c-1.37-1.26-4.11-3.1-6.38-4.32l1.58-1.62Z"/>
          <path d="M404.54,967.13c1.87-.29,3.82-.72,5.65-1.33l.07,2.7c-1.91.54-4.18,1.01-6.55,1.33-1.76,5.08-4.97,11.31-7.85,15.2l-2.77-1.44c2.99-3.49,6.05-9.25,7.71-13.47-1.08.07-2.16.11-3.21.11-1.33,0-2.85-.04-4.21-.11l-.18-2.7c1.33.18,2.88.25,4.39.25,1.3,0,2.66-.07,4.07-.18.54-2.02,1.04-4.29,1.12-6.23l3.17.29c-.32,1.3-.83,3.49-1.4,5.58ZM414.41,976.56c.04,1.33.18,3.67.25,5.91,3.1,1.12,5.62,2.88,7.49,4.46l-1.55,2.45c-1.55-1.37-3.49-2.99-5.83-4.14.04.58.04,1.08.04,1.51,0,2.88-1.84,5.22-6.3,5.22-3.96,0-7.2-1.62-7.2-5.19,0-3.31,3.13-5.4,7.2-5.4,1.22,0,2.41.11,3.53.36-.14-2.95-.32-6.52-.4-9.07h2.81c-.07,1.47-.07,2.59-.04,3.89ZM408.15,989.38c2.99,0,4-1.58,4-3.56,0-.47,0-1.01-.04-1.62-1.15-.36-2.41-.54-3.71-.54-2.63,0-4.43,1.22-4.43,2.88s1.37,2.84,4.18,2.84ZM413.4,968.68l1.48-2.2c2.59,1.15,6.7,3.49,8.39,4.79l-1.62,2.38c-1.95-1.66-5.83-3.89-8.25-4.97Z"/>
          <path d="M439.5,973.29c3.17-1.91,6.45-3.49,8.43-4.61,1.01-.61,1.8-1.08,2.56-1.69l1.44,2.63c-.79.47-1.69.94-2.74,1.48-2.45,1.3-6.48,3.17-9.97,5.51-3.35,2.16-5.37,4.54-5.37,7.28,0,2.99,2.84,4.86,8.54,4.86,3.92,0,8.71-.5,11.52-1.22l-.04,3.2c-2.7.5-6.88.9-11.38.9-6.77,0-11.63-2.02-11.63-7.42,0-3.75,2.34-6.66,6.23-9.33-1.66-2.99-3.56-7.2-5.26-11.09l2.85-1.19c1.44,3.96,3.28,7.85,4.83,10.7ZM455.49,967.2l-1.95.87c-.72-1.48-1.94-3.64-2.95-5.01l1.95-.83c.9,1.3,2.2,3.49,2.95,4.97ZM459.52,965.69l-1.91.87c-.79-1.55-1.98-3.6-3.03-4.97l1.91-.79c.97,1.29,2.34,3.56,3.03,4.9Z"/>
          <path d="M476.98,991.26l-1.69-2.67c1.15-.11,2.27-.29,3.1-.47,4.61-1.04,9.15-4.46,9.15-10.7,0-5.44-3.49-9.94-9.61-10.44-.47,3.35-1.15,7.02-2.16,10.37-2.2,7.42-5.04,11.2-8.39,11.2s-6.41-3.67-6.41-9.61c0-7.82,6.95-14.66,15.74-14.66s13.79,5.94,13.79,13.25-4.97,12.61-13.5,13.72ZM467.47,985.24c1.69,0,3.6-2.41,5.44-8.5.9-2.99,1.62-6.41,2.02-9.72-6.91.87-11.16,6.77-11.16,11.67,0,4.54,2.09,6.55,3.71,6.55Z"/>
          <path d="M527.31,982.69h-3.71v6.37h-2.66v-1.62h-8.64v2.49c0,1.66-.5,2.27-1.59,2.66-1.12.4-2.99.43-5.98.43-.14-.68-.58-1.66-.94-2.27,2.16.07,4.32.04,4.93.04.69-.04.9-.25.9-.87v-2.49h-11.63v-2.05h11.63v-2.7h-14.73v-2.12h14.73v-2.52h-11.31v-1.98h11.31v-2.52h-10.3v-6.34h10.3v-2.09h-14.04v-2.2h14.04v-2.88h2.67v2.88h14.33v2.2h-14.33v2.09h10.73v6.34h-10.73v2.52h11.31v4.5h3.71v2.12ZM509.63,971.67v-2.59h-7.74v2.59h7.74ZM512.29,969.07v2.59h8.07v-2.59h-8.07ZM512.29,980.56h8.64v-2.52h-8.64v2.52ZM520.94,982.69h-8.64v2.7h8.64v-2.7Z"/>
          <path d="M541.2,980.74c.69-1.48,1.4-3.71,1.95-5.8h-3.46v14.84c0,1.37-.29,2.09-1.19,2.56-.94.36-2.34.4-4.5.4-.11-.65-.47-1.76-.83-2.45,1.55.04,2.95.04,3.42.04.43-.04.58-.14.58-.54v-11.56c-1.4,3.46-3.28,6.84-5.26,8.86-.29-.76-.94-1.8-1.4-2.48,2.23-2.12,4.46-5.98,5.8-9.65h-5.44v-2.34h9.65c-1.87-1.58-5.19-3.6-7.99-4.82l1.66-1.73c1.12.47,2.34,1.04,3.49,1.66,1.33-1.01,2.7-2.3,3.78-3.56h-10.19v-2.34h12.1l.47-.11,1.73,1.08c-1.4,2.16-3.71,4.46-5.87,6.12,1.19.72,2.27,1.48,3.03,2.16l-1.37,1.55h2.67l.39-.14,1.62.58c-.18.61-.36,1.26-.54,1.91,2.41-.69,4.61-1.58,6.45-2.77-1.44-1.29-2.7-2.77-3.71-4.39-.87.94-1.73,1.84-2.59,2.56-.5-.43-1.55-1.19-2.2-1.55,2.81-2.09,5.4-5.37,6.84-8.79l2.56.68c-.47,1.04-1.04,2.09-1.66,3.1h11.96v2.27h-2.77c-1.01,2.45-2.48,4.46-4.32,6.12,2.27,1.44,4.93,2.52,7.81,3.13-.54.58-1.33,1.58-1.69,2.3-3.03-.83-5.8-2.12-8.17-3.82-2.27,1.58-4.93,2.77-7.85,3.67-.18-.36-.58-.9-.97-1.41-.61,2.09-1.33,4.14-2.12,5.62l-1.84-.93ZM562.34,980.09s-.04.72-.07,1.15c-.65,6.7-1.33,9.43-2.38,10.48-.61.65-1.29.83-2.23.94-.86.04-2.38.07-4-.04-.07-.72-.32-1.8-.72-2.48,1.55.14,2.99.18,3.56.18s.87-.04,1.22-.36c.69-.69,1.22-2.7,1.77-7.64h-6.05c-1.26,4.57-3.78,8.32-9.54,10.55-.32-.61-1.04-1.58-1.58-2.05,4.97-1.8,7.24-4.83,8.35-8.5h-5.62v-2.23h6.2c.21-1.15.36-2.34.47-3.57h2.7c-.11,1.22-.29,2.41-.5,3.57h8.43ZM549.88,966.05c.97,1.73,2.38,3.31,4.07,4.64,1.48-1.29,2.67-2.81,3.49-4.64h-7.56Z"/>
          <path d="M599.74,989.6c-.4.61-.86,1.84-1.01,2.59h-6.19c-6.55,0-12.46-1.26-16.75-6.7-1.94,3.24-4.43,5.65-7.27,7.49-.4-.65-1.12-1.66-1.66-2.12,2.92-1.69,5.37-4.25,7.31-7.74-1.26-2.12-2.3-4.72-3.17-7.85-.76,2.02-1.73,3.82-2.77,5.37-.39-.5-1.44-1.51-2.05-1.95,3.17-4.32,4.9-11.27,5.83-18.65l2.63.36c-.25,1.95-.58,3.89-.97,5.73h5.4l.5-.07,1.59.32c-.65,6.99-2.02,12.49-4.11,16.78,4.03,5.33,9.61,6.45,15.63,6.45h7.06ZM573.17,968.46c-.29,1.04-.54,2.09-.83,3.1.76,3.67,1.84,6.62,3.06,9,1.44-3.35,2.48-7.42,3.02-12.1h-5.26ZM586.63,969.65c0,4.9-.61,11.92-3.96,16.75-.47-.47-1.55-1.22-2.16-1.44,3.24-4.54,3.64-10.8,3.64-15.34v-7.06h9.76v20.27c0,1.05.07,1.19.61,1.19h1.44c.51,0,.61-.61.69-3.24.5.39,1.37.68,2.02.86-.18,3.28-.79,4.25-2.45,4.25h-2.12c-2.12,0-2.59-.72-2.59-3.13v-17.86h-4.86v4.75Z"/>
          <path d="M614.24,985.46c-3.85,1.3-7.96,2.7-11.16,3.75l-.61-2.7c1.33-.4,2.99-.9,4.83-1.51v-9.72h-4.07v-2.49h4.07v-7.81h-4.47v-2.52h11.16v2.52h-4.14v7.81h3.6v2.49h-3.6v8.93l3.92-1.3.47,2.55ZM635.74,989.28v2.45h-23.19v-2.45h10.95v-4.93h-8.18v-2.45h8.18v-4.21h-7.74v-16.02h18.29v16.02h-7.85v4.21h8.39v2.45h-8.39v4.93h9.54ZM618.21,968.53h5.47v-4.54h-5.47v4.54ZM618.21,975.34h5.47v-4.57h-5.47v4.57ZM631.49,964h-5.51v4.54h5.51v-4.54ZM631.49,970.77h-5.51v4.57h5.51v-4.57Z"/>
          <path d="M638.62,984.12l2.34-2.05c2.59,2.09,5.83,5.36,8.07,7.99l-2.45,2.09c-2.3-2.84-5.4-5.94-7.96-8.03Z"/>
          <path d="M689.35,989.64v2.41h-32.45v-2.41h9.87c-.32-1.91-1.4-4.75-2.48-6.91l2.45-.69c1.19,2.12,2.23,5.01,2.63,6.88l-2.48.72h22.47ZM667.42,972.13c-3.21,1.4-6.59,2.88-9.25,4.03l-1.12-2.23c2.52-.83,6.27-2.34,9.9-3.74l.47,1.95ZM668.79,963.96h-11.09v-2.27h13.58v12.75c0,1.26-.25,1.98-1.15,2.38-.94.39-2.41.39-4.5.39-.11-.65-.47-1.66-.76-2.34,1.58.04,2.92.04,3.38,0,.4,0,.54-.11.54-.47v-10.44ZM661.26,964.39c1.51,1.33,3.13,3.21,3.85,4.47l-1.91,1.37c-.72-1.33-2.34-3.31-3.78-4.65l1.84-1.19ZM671.77,979.37v-3.31h2.59v3.31h12.06v2.38h-26.54v-2.38h11.88ZM683.55,971.45c-3.21,1.51-6.59,3.06-9.25,4.21l-1.19-2.23c2.52-.9,6.27-2.45,9.97-3.92l.47,1.94ZM684.92,963.96h-11.45v-2.27h13.94v12.68c0,1.33-.22,2.02-1.15,2.45-1.01.39-2.52.39-4.79.39-.07-.65-.43-1.66-.72-2.34,1.73.07,3.17.04,3.64,0,.43,0,.54-.11.54-.5v-10.41ZM676.78,964.21c1.58,1.26,3.28,3.06,4.14,4.29l-1.91,1.44c-.83-1.26-2.56-3.17-4.07-4.5l1.84-1.23ZM676.46,988.99c1.12-1.91,2.56-5.01,3.28-7.09l2.81.65c-1.15,2.41-2.52,5.22-3.67,7.06l-2.41-.61Z"/>
          <path d="M720.92,962.48v29.85h-2.81v-2.2h-17.86v2.34h-2.7v-30h23.37ZM700.25,965.11v9.72h17.86v-9.72h-17.86ZM718.11,987.51v-10.05h-17.86v10.05h17.86Z"/>
          <path d="M734.45,970.66c-1.26-.87-3.85-1.98-5.83-2.67l1.33-1.87c1.95.57,4.54,1.66,5.83,2.41l-1.33,2.12ZM761.2,985.86h-14.91v7.06h-2.7v-7.06h-14.51v-2.41h14.51v-2.95h2.7v2.95h14.91v2.41ZM729.66,979.41c1.94-1.73,4.72-4.65,7.06-7.38l1.44,1.8c-2.05,2.52-4.47,5.29-6.63,7.63l-1.87-2.05ZM737.04,965c-1.3-.9-3.74-2.2-5.72-2.95l1.33-1.84c1.98.65,4.46,1.84,5.8,2.7l-1.4,2.09ZM740.5,968.46c-.79.9-1.62,1.69-2.45,2.41-.43-.47-1.47-1.41-2.09-1.84,2.92-2.23,5.65-5.65,7.27-9.18l2.56.76c-.54,1.12-1.15,2.27-1.87,3.35h5.01c.72-1.26,1.4-2.81,1.87-3.93l2.85.54c-.65,1.15-1.37,2.34-2.02,3.39h7.96v2.16h-8.17v2.63h7.13v2.02h-7.13v2.56h7.2v2.02h-7.2v2.74h9.15v2.16h-20.06v-11.78ZM748.89,966.12h-5.83v2.63h5.83v-2.63ZM748.89,970.77h-5.83v2.56h5.83v-2.56ZM748.89,975.34h-5.83v2.74h5.83v-2.74Z"/>
          <path d="M774.01,960.9c-.79,2.38-1.73,4.75-2.81,7.02v24.96h-2.56v-20.17c-1.08,1.8-2.2,3.42-3.38,4.82-.25-.65-.97-2.05-1.4-2.7,3.1-3.6,5.94-9.07,7.67-14.62l2.48.68ZM797.56,972.28h-20.27v5.37c0,4.46-.47,10.91-3.31,15.23-.4-.47-1.37-1.33-1.95-1.66,2.56-4,2.85-9.54,2.85-13.61v-7.71h22.69v2.38ZM780.06,965.72h-5.83v-2.34h5.83v-3.06h2.45v3.06h6.73v-3.06h2.52v3.06h5.65v2.34h-5.65v2.95h-2.52v-2.95h-6.73v2.95h-2.45v-2.95ZM796.66,990.28c0,1.19-.21,1.84-1.04,2.2-.87.4-2.23.43-4.36.4-.11-.58-.4-1.48-.69-2.09,1.55.04,2.81.04,3.24,0,.43-.04.5-.11.5-.51v-3.31h-5.29v5.69h-2.16v-5.69h-5.08v5.91h-2.3v-17.97h17.18v15.38ZM781.79,976.96v3.13h5.08v-3.13h-5.08ZM786.87,985.06v-3.1h-5.08v3.1h5.08ZM789.03,976.96v3.13h5.29v-3.13h-5.29ZM794.32,985.06v-3.1h-5.29v3.1h5.29Z"/>
          <path d="M219.14,1145.6c1.69,2.63,4.83,3.85,8.97,4.04,3.93.14,11.92.04,16.13-.25-.29.65-.76,1.91-.86,2.74-3.93.14-11.31.21-15.27.07-4.68-.18-7.88-1.48-10.19-4.25-1.73,1.51-3.53,3.06-5.44,4.61l-1.44-2.7c1.66-1.08,3.67-2.59,5.47-4.11v-9.11h-5.01v-2.52h7.63v11.49ZM218.39,1128.39c-1.15-1.73-3.82-4.1-6.12-5.72l1.95-1.59c2.34,1.51,5.04,3.85,6.27,5.58l-2.09,1.73ZM221.66,1144.95c.76-.14,1.58-.32,2.48-.54v-22.87h16.35v13.4h-6.91c.5,1.44,1.19,2.81,1.98,4.07,1.95-1.26,4.25-2.99,5.65-4.25l2.12,1.55c-2.05,1.51-4.5,3.17-6.59,4.32,1.87,2.23,4.25,3.89,7.13,4.82-.58.51-1.33,1.55-1.69,2.27-5.51-2.16-9.11-6.73-11.02-12.78h-4.43v8.86c2.23-.5,4.68-1.08,7.09-1.69l.22,2.34c-4.21,1.08-8.61,2.2-11.92,2.99l-.47-2.48ZM226.74,1123.85v3.31h11.16v-3.31h-11.16ZM237.9,1132.64v-3.42h-11.16v3.42h11.16Z"/>
          <path d="M279.6,1129.72c-.4,15.09-.72,20.09-1.84,21.57-.65.9-1.29,1.19-2.34,1.29-.97.11-2.56.11-4.18,0-.07-.72-.32-1.8-.76-2.48,1.66.18,3.17.18,3.82.18.58,0,.9-.11,1.19-.58.86-1.04,1.26-5.73,1.55-18.8h-5.22c-.4,9.61-1.8,17.36-7.31,22.11-.4-.57-1.33-1.48-1.94-1.87.5-.4.94-.83,1.37-1.3-5.94.72-12.06,1.44-16.35,1.95l-.36-2.34c2.16-.18,4.9-.47,7.89-.79v-3.28h-6.55v-1.98h6.55v-2.74h-7.09v-2.05h7.09v-2.23h-6.41v-7.67h15.56v7.67h-6.7v2.23h7.2v2.05h-7.2v2.74h6.88v1.98h-6.88v2.99c2.34-.25,4.82-.54,7.24-.83l.04,1.26c3.31-4.29,4.29-10.45,4.54-17.9h-4.11v-2.48h4.18c.07-2.56.07-5.29.07-8.1h2.48c0,2.81-.04,5.51-.07,8.1h7.67v1.3ZM251.47,1125.18h-4.07v-2.09h4.07v-3.06h2.45v3.06h4.82v-3.06h2.45v3.06h4.25v2.09h-4.25v2.77h-2.45v-2.77h-4.82v2.77h-2.45v-2.77ZM255.11,1134.44v-3.75h-4.07v3.75h4.07ZM261.77,1130.69h-4.21v3.75h4.21v-3.75Z"/>
        </g>
      </g>
      <rect class="cls-1" width="809.73" height="1153.02"/>
    </g>
  </g>
</svg>