<?xml version="1.0" encoding="UTF-8"?>
<svg id="_レイヤー_2" data-name="レイヤー 2" xmlns="http://www.w3.org/2000/svg" viewBox="0 0 977.01 95.11">
  <defs>
    <style>
      .cls-1 {
        fill: #fff;
      }
    </style>
  </defs>
  <g id="_背景" data-name="背景">
    <g>
      <path class="cls-1" d="M75.44,16.65c-.36-.25-.77-.25-.94-.25-.26,0-.81,0-1.31.49-.64.64-1.15,1.33-1.65,1.99-.08.1-.16.21-.24.32h-38.33c2.65-3.44,5.21-7.56,7.44-11.32.22.02.42.02.58.02,2.14,0,4.3-.96,4.3-2.8s-1.74-2.96-6.73-4.19c-1.61-.28-3.24-.59-4.19-.87-.29-.09-.61-.04-.86.14-.25.18-.41.46-.42.77-.27,5.14-4.49,14.74-6.48,18.25H8.86c-2.16-1.2-5.36-2.73-7.63-3.27-.32-.08-.66.01-.91.24-.24.23-.36.56-.31.89.79,5.23.79,8.02.79,12.65v41.6c0,4.85-.15,9.99-.24,13.05-.03,1.21-.06,2.09-.06,2.48-.04.35-.08.99-.13,1.79-.07,1.1-.15,2.46-.26,3.24,0,.05-.01.09-.01.14v.2c0,.87.33,2.9,3.4,2.9,1.24,0,5,0,5-3.6v-.4c0-.05,0-.11-.01-.16-.08-.51-.19-2.54-.19-3.44,0-1.02-.01-2.55-.03-4.46-.03-3.15-.07-7.33-.07-11.94l.1-46.9h63.01c.09,16.04.09,43.6.09,51.8v6.46c-.07,1.57-2.14,3.05-3.7,3.05-1.92,0-4.23-.19-14.09-1.29-.04,0-.17,0-.21,0-1.24,0-1.8,1.4-1.8,2.7,0,1.13.52,1.96,1.44,2.19.85.14,1.71.26,2.62.4,1.74.25,3.71.54,6.25,1,1.66.31,1.97.91,2.79,2.47.46.91,1.17,1.35,2.19,1.35,1.69,0,4.72-.85,7.35-2.72,2.26-1.6,4.95-4.46,4.95-8.98v-.2c0-.49-.05-2.37-.12-4.74-.12-4-.28-9.48-.28-11.86V25.52c2.12-.78,3.2-1.9,3.2-3.32,0-2.25-2.33-3.43-6.56-5.55Z"/>
      <path class="cls-1" d="M57.4,71.3c0-.37-.1-2.21-.2-3.2,0-.49-.07-2.96-.14-5.58-.07-2.72-.16-5.81-.16-6.42v-13.88c2.19-.81,3.3-1.92,3.3-3.32,0-2.55-4.98-5.2-6.15-5.69-.26-.13-.61-.31-1.05-.31-.81,0-1.57.72-3.89,3.68l-.1.12h-19.83c-2.3-1.44-5.24-2.87-7.09-3.45-.33-.1-.7-.03-.96.2-.26.23-.39.58-.33.93.55,3.09.89,7.51.89,11.53v10.6c0,2.8-.2,8.12-.4,11.7,0,1.4-.13,2.63-.17,3.09-.02.17-.02.28-.02.31v.5c0,.9.33,3,3.4,3,2.64,0,4.29-1.36,4.4-3.7,0-.2-.02-.69-.05-1.22-.03-.55-.05-1.13-.05-1.38v-2.3h20.9v.65c-.09.99-.1,3.57-.1,4.65,0,1.28.57,2.8,3.3,2.8,4.06,0,4.5-2.31,4.5-3.3ZM49.8,41.5v16c0,.3-.01.81-.03,1.45-.02.79-.05,1.76-.06,2.75h-21.01v-2.99c0-.12.09-11.76.1-17.21h21Z"/>
      <path class="cls-1" d="M169.08,33.97c-.69-.28-2.04-.57-3.37-.57-1.65,0-2.54.3-6.03,2.05l-.44.27c-.91.57-1.12.7-2.31,1.02l-5.21,1.5c-1.76-2.57-3.65-5.59-5.52-8.83,11.45-3.3,14.6-4.62,14.6-7.11,0-2.26-1.84-3.1-3-3.1h-1.1c-4.49,0-5.72,1.05-6.56,2.14-.68.68-1.22,1.13-6.65,2.86-2.19-4.2-4.01-9.18-4.72-12.91-.9-4.19-6.68-4.19-8.58-4.19-5.65,0-7.7,2.51-7.7,4.2,0,1.27.97,2.2,2.3,2.2.36,0,.75-.13,1.19-.28.52-.22,1.06-.32,1.81-.32,1.89,0,3,.56,4.4,2.2,1.26,1.89,2.71,4.39,5.84,10.62-3.71.87-6.29,1.28-8.04,1.28-3.63,0-7.64-1.28-9.99-3.19-1.05-.81-1.94-1.21-2.71-1.21-1.03,0-1.7.71-1.7,1.8,0,2.87,3.93,8.5,13,8.5,3.97,0,10.06-1.48,12.2-2.03,1.72,3.14,3.53,6.19,5.31,8.93-11.75,3.14-15.46,3.71-18.71,3.71-4.7,0-9.4-1.18-12.62-3.17-1.17-.65-1.91-.93-2.49-.93-.97,0-1.7.77-1.7,1.8,0,.65.22,1.47.66,2.45,1.48,3.92,6.83,6.45,13.64,6.45,4.52,0,9.9-1.13,24.81-5.25.12.16.24.32.35.48.63.87,1.23,1.69,1.85,2.37,6.1,8.1,7.01,9.98,7.09,11.7h-.23c-5.77-.69-10.21-1-14.36-1-19.07,0-30,5.32-30,14.6,0,10.97,16.9,15.9,28.9,15.9,13.53,0,15.4-2.4,15.4-5,0-1.53-.88-4.1-6.8-4.1-.33,0-.64.03-.94.05-.25.02-.49.05-.76.05-.94,0-2.23.49-3.26.88-.26.1-.5.19-.7.26-.52.1-2.59.47-5.14.47-6.85,0-21-2.22-21-9.1,0-8.31,18.13-8.4,18.9-8.4,9.68,0,18.51,2.39,20.36,4.07.79.66,1.82,1.03,2.84,1.03,2.03,0,4.4-1.34,4.4-5.1,0-7.18-3.02-10.98-11.03-20.63,1.22-.3,2.47-.57,3.73-.79,9.7-1.98,12-2.45,12-5.58v-.2c0-.07,0-.13-.02-.2-.27-1.35-1.03-2.24-2.21-2.63Z"/>
      <path class="cls-1" d="M221,44.5s.06,0,.09,0c5.77-.53,11.79-.6,15.81-.6h23.6c1.92,0,2.8-1.35,2.8-2.6,0-2.55-7.14-6.62-8.12-7.03-.12-.05-.31-.1-.44-.1-.14-.03-.32-.08-.54-.08-.33,0-.82.1-1.28.56-1.12,1.03-2.82,3.04-3.82,4.34h-9.51c-6.07,0-14.49-.15-20.17-.89-.3-.04-.6.06-.82.27-.22.21-.33.5-.31.8.11,1.47.88,4.05,2.03,5.07.18.16.42.25.66.25Z"/>
      <path class="cls-1" d="M287.32,41.15s-.07-.02-.11-.03c-12.09-2.58-31.99-15.69-43.89-32.63,2.37-.44,2.58-2.04,2.58-2.59,0-3.37-9.5-5-9.6-5-.44,0-.83.29-.96.71-.59,1.95-.88,2.84-1.16,3.49-.11.27-.23.49-.36.73-.19.37-.44.84-.71,1.5-9,17.11-22.16,30.76-40.27,41.74-.57.38-.85.88-.85,1.53,0,1.18.98,2.5,2.3,2.5s27.51-12.17,45.33-41.5c10.38,16.06,25.25,30.12,39.14,36.95.36.25.77.25.93.25.61,0,1.15-.23,1.61-.69,1.46-1.46,3.32-2.32,5.29-2.51,1.17,0,1.8-1.34,1.8-2.6,0-1.34-.76-1.74-1.08-1.85Z"/>
      <path class="cls-1" d="M263.4,53.8c-.68,0-1.84,1.01-3.48,3h-40.24c-2.32-1.41-4.99-2.61-7.02-3.17-.33-.09-.67,0-.93.22-.25.22-.38.56-.33.89.6,4.09.89,7.9.89,11.66v12.4c0,2.19-.14,4.49-.29,7.15l-.11,1.85c0,1.32-.13,2.6-.18,3.08-.02.18-.02.29-.02.32v.4c0,1.41.59,3.1,3.4,3.1,3.78,0,4.47-2.51,4.59-3.59,0-.04,0-.07,0-.11,0-.26-.03-.8-.05-1.35-.02-.51-.05-1.01-.05-1.25v-1.7h40.59c-.01.69-.03,1.6-.05,2.4-.02.86-.04,1.59-.04,1.8,0,1.91,1.24,3,3.4,3,3.64,0,4.6-2.03,4.6-3.1,0-.11-.02-.42-.06-.83-.06-.67-.14-1.69-.14-2.37,0-.03,0-.07,0-.1-.09-.93-.3-6.08-.3-7.2v-17.17c2.54-.9,3.1-2.23,3.1-3.23,0-2.53-5.82-6.1-7.3-6.1ZM260.3,61.8v19.8h-40.7v-19.8h40.7Z"/>
      <path class="cls-1" d="M344.8,45.8c-.81,0-1.54.35-1.92.93-2.68,3.87-6.12,10.41-8.88,15.66-1,1.89-1.91,3.63-2.69,5.07-.27.55-.48.65-.91.65-.11,0-10.6-.29-10.6-23.7,0-3.04.2-6.23.59-9.5.03-.31.08-.65.14-1.02.13-.87.27-1.85.27-2.88,0-6.56-7.85-10.5-9.9-10.5s-3.3.8-3.3,2.1c0,.62.32,1.24.98,1.9,3.34,3.44,3.96,7.01,4.12,10.35,1,20.9,1.1,23.09,5.3,31.7,4.68,9.47,12.81,12.66,15.8,12.66,3.61,0,4.9-2.17,4.9-4.2,0-.88-.25-1.8-.45-2.42-.13-.4-.28-.76-.43-1.11-.29-.69-.51-1.23-.52-1.85.1-.88,2.75-8.37,9.3-20.48.11-.23.31-.69.31-1.25,0-1.44-1.09-2.1-2.1-2.1Z"/>
      <path class="cls-1" d="M364.5,24.5c-1.43,0-2.6.99-2.6,2.2,0,.48.23,1.17.85,1.66,8.21,7.62,14.14,17.26,16.27,26.47.2.84.32,1.9.43,2.92.17,1.57.33,2.92.76,3.72.73,1.34,1.63,2.02,2.68,2.02,2.98,0,4.8-4.86,4.8-7.5,0-13.75-19.2-31.5-23.2-31.5Z"/>
      <path class="cls-1" d="M410,67.5c-1.52,0-2.9,1.19-2.9,2.5,0,.75.37,1.36,1.02,1.67,7.52,4.17,13.62,10.17,18.13,17.85,1.81,2.97,3.67,4.48,5.56,4.48,1.37,0,4.2-1.61,4.2-6.6,0-2.05-.52-3.97-1.54-5.72-3.36-5.57-20.75-14.18-24.46-14.18Z"/>
      <path class="cls-1" d="M523.41,76.4c-2.35,0-4.76.93-7.32,1.91l-.07.03c-5.35,1.63-11.54,1.76-13.31,1.76-2.47,0-8.79-.22-14.19-2.28-5.05-1.93-7.61-4.83-7.61-8.62,0-13.75,30.42-20.91,38.62-21.61,1.47-.17,5.38-.63,5.38-4.59,0-2.47-3.69-4-7.1-4-1.22,0-2.18.14-3.14.46-7.35,2.64-11.66,4.51-13.4,5.3-.27-.05-.42-.08-.5-.1-.72-.71-2.16-2.82-2.16-8.36,0-3.2.62-12.89,1.65-16.99.15-.37.3-.59.45-.81.33-.43.57-.89.85-1.58.15-.45.15-.88.15-1.22,0-3.98-6.74-8.4-11.3-8.4-1.14,0-4.4.4-4.4,2.2,0,.92.73,1.8,1.82,2.16,4.06,1.2,4.58,3.75,4.58,5.84,0,2.86-.57,11.19-.8,14.04-.03.56-.08,1.1-.13,1.64-.09,1.03-.17,2.01-.17,3.03,0,5.84,1.61,8.91,4.12,11.28-9.62,4.95-20.42,12.63-20.42,22.12,0,5.26,3.26,10.02,9.18,13.42,5.49,3.15,12.74,4.88,20.42,4.88,4.23,0,25.3-.34,25.3-7,0-2.24-2.01-4.5-6.5-4.5Z"/>
      <path class="cls-1" d="M596.31,35c-1.12,0-2,.92-2,2.1,0,.73.32,1.38.78,1.68,13.08,10.41,15.82,19.41,15.82,25.12,0,9.74-8.39,18.6-17.6,18.6-5.52,0-12-3.67-12.1-14,0-1.37.07-2.81.15-4.28,3.54-.36,16.35-1.96,16.35-6.32,0-1.51-.8-3.3-4.6-3.3-1.37,0-2.6.15-3.75.46-.5.19-.82.38-1.13.57-.27.17-.55.34-1.02.55-1.13.49-2.51,1.08-5.4,1.41.53-5.36,1.47-11.09,2.93-17.86.22-.05.42-.08.61-.12.28-.05.51-.1.6-.13,1.68-.26,2.95-1.59,2.95-3.09,0-1.16-.73-2.6-2.69-3.24,1.02-4.28,2.05-8.56,3.08-12.99.13-.75.45-1.59.73-2.33.13-.33.24-.64.35-.96.06-.19.15-.4.25-.63.26-.61.59-1.37.59-2.25,0-3.82-8.07-8-11.5-8-2.35,0-3.7.73-3.7,2,0,.9.85,1.44,1.7,1.96,3.4,1.98,4.6,4.09,4.6,8.04,0,2.24-1.05,8.98-2.14,14.94-3.1.17-6,.75-8.58,1.27-2.4.48-4.47.89-6.18.89-1.13,0-2.71-.23-3.79-1.31-.74-.74-1.46-1.09-2.21-1.09-1.18,0-2.1.97-2.1,2.2,0,1.63,2.06,6.1,8.7,6.1,1.95,0,4-.38,5.81-.72.21-.04.41-.08.62-.11-3.06,3.53-8.83,10.77-8.83,15.13,0,3.13,2.55,8.42,11.95,9.05-.05,1.43-.05,2.91-.05,4.35,0,12,7.49,20.7,17.8,20.7,11.85,0,25.1-10.61,25.1-24.8,0-17.41-20.31-29.6-22.1-29.6ZM568.61,53.8c0-2.17,3.41-6.93,7.77-10.85.51-.45,1.35-.89,2.13-1.24-.92,5.21-1.84,10.58-2.4,16.15-4.78-.33-7.5-1.79-7.5-4.05Z"/>
      <path class="cls-1" d="M682.71,28.1c1.56,0,3.2-.24,4.65-.45.69-.1,1.35-.19,1.93-.26.57-.05,1.15-.1,1.73-.16,1.8-.17,3.66-.34,5.59-.34.34,0,.71.01,1.09.03-2.42,2.52-6.89,7.36-6.89,8.77,0,1.1.8,1.9,1.9,1.9.72,0,1.47-.35,2.11-.99,4.28-4.28,7.66-7.31,12.19-7.31,1.1,0,6.6-.17,6.6-3.5,0-5.23-11.25-5.5-13.5-5.5-3.38,0-6.77.51-10.05,1.01-1.27.2-2.48.42-3.62.62-1.19.22-2.31.42-3.37.57-.65.09-1.33.19-1.86.19-1.03,0-1.56-.2-1.7-.3-.05-.04-.1-.07-.15-.09-.14-.07-.65-.31-1.15-.31-1.25,0-2.3,1.05-2.3,2.3,0,1.06,1.22,3.8,6.8,3.8Z"/>
      <path class="cls-1" d="M712.91,70.7c-1.02,0-2.18,0-3.48.22-.77.14-1.46.4-2.12.66-.86.32-1.67.63-2.69.73-.91.09-2.12.2-3.4.2-9.04,0-20.5-4.05-20.5-8.6,0-.67.18-1.28.53-1.85.37-.55.37-1.1.37-1.46,0-1.35-.82-2.3-2-2.3-1.87,0-3.7,3.67-3.7,6.4,0,3.42,2.66,7.32,6.94,10.18,3.63,2.43,10.14,5.32,20.56,5.32s16-1.8,16-5.5c0-1.2-.63-4-6.5-4Z"/>
      <path class="cls-1" d="M663.31,47.7c-.98,0-1.89.71-2.41,1.89-.61,1.37-1.22,2.71-1.83,4.06-1.91,4.21-3.87,8.55-6.02,13.97-.22-1.63-.34-3.65-.34-5.92,0-11.37,4.96-29.27,8.17-35.32l.15-.26c.53-.93,1.18-2.09,1.18-3.53,0-4.85-7.04-13.4-10.2-13.4-1.39,0-2.4.84-2.4,2,0,.18,0,.65.32,1.03,2.3,3.1,3.28,5.91,3.28,9.37,0,2.23-.33,4.6-1.07,7.67-4.44,18.83-5.73,26.69-5.73,35.03,0,11.77,3.55,22.1,7.6,22.1,1.45,0,3.6-1.04,3.6-3.9,0-.57-.1-1.23-.32-2.12-.45-2.04-.48-3.26-.48-3.48,0-1.15,2.21-11.81,8.13-25.33.26-.64.37-1.16.37-1.67,0-1.52-1-2.2-2-2.2Z"/>
      <path class="cls-1" d="M770.31,51h.7c3.25,0,4.9-.98,4.9-2.9,0-2.42-6.91-5.36-9.54-6.07-.27-.07-.55-.03-.78.11-.23.14-.4.38-.46.65-.37,1.77-.64,2.58-1.47,3.88-5.56,8.87-12.44,15.88-21.67,22.07-.67.37-1.09,1.07-1.09,1.86,0,1.29,1.1,2.3,2.5,2.3,1.76,0,15.86-7.35,26.9-21.9Z"/>
      <path class="cls-1" d="M823.01,28.1c-1.44,0-4.37,4.29-5.35,5.8h-27.16v-13.8h28.6c2.14,0,3.1-1.21,3.1-2.4,0-.53-.17-1.12-.47-1.55-.02-.03-.04-.06-.07-.09-1.26-1.49-4.37-3.91-7.26-5.66-.38-.33-.8-.5-1.31-.5-.98,0-1.93,1.06-4.94,4.98l-.25.32h-17.31v-7.35c2.68-.92,3.7-2.73,3.7-3.75,0-1.6-1.84-3.5-10.6-3.5-.29,0-.56.12-.75.34-.19.22-.28.5-.24.79.59,4.44.59,10.91.59,13.67v18.5h-11c-.62,0-1.34-.02-2.14-.04-.7-.02-1.46-.04-2.26-.05l.09-17.68c2.33-.84,3.7-2.13,3.7-3.53,0-2.12-3.07-3.13-10.26-3.4-.29-.01-.58.11-.78.33-.2.22-.29.52-.25.81.59,4.23.59,7.72.59,10.26v13.07c-5.19-.14-15.37-.44-18.91-.77-.28-.03-.56.07-.77.26-.21.19-.33.46-.33.74v.2c0,1.49.87,4.08,1.99,5.21.22.22.53.32.84.28,4.48-.58,21.92-.79,25.97-.79h13.5l.1,23.8c0,1.67-1.58,3.3-3.2,3.3h-.2c-5.5,0-7.88-.26-12.61-.77l-1.19-.13s-.17,0-.21,0c-.85,0-1.39.73-1.59,2.16,0,.05,0,.09,0,.14,0,1.41.59,2.34,1.51,2.4,3.44.49,7.08,1.08,9.54,1.49,1.26.19,2.05.91,2.72,2.48.39.97,1.2,1.53,2.23,1.53,3.53,0,10.3-4.9,10.3-11.6v-.2c0-.86-.07-3.61-.15-6.53-.07-2.77-.15-5.64-.15-6.47v-11.6h38.7c2.04,0,3.1-1.41,3.1-2.8,0-.49-.16-1.17-.55-1.56-.26-.29-6.77-6.34-8.65-6.34Z"/>
      <path class="cls-1" d="M802.11,42.3c-1.21,0-2.6,1.33-2.6,2.5,0,.25,0,.92.73,1.28,7.69,4.09,18.12,11.79,22.25,17.59,1.55,2.2,2.96,3.22,4.42,3.22,1.32,0,2.9-.75,2.9-4.3,0-1.44-.25-2.82-.68-3.79-2.46-5.77-24.36-16.51-27.02-16.51Z"/>
      <path class="cls-1" d="M807.09,55.54c-.5-.14-1.02.12-1.21.6-6.72,17.48-27.88,29.01-62.87,34.26-.62.05-1.3.54-1.3,1.8s.8,2.7,2.2,2.7c.04,0,.08,0,.11,0,24.49-2.79,51.53-8.53,66.74-29.9.7.1,1.28.1,1.85.1,1.14,0,2.53-.13,3.19-1.08.34-.38.51-.81.51-1.32,0-.87-.49-1.59-.96-2.17-1.13-1.25-5.3-4.14-8.27-4.99Z"/>
      <path class="cls-1" d="M919.21,27.4c-9.31,0-10.5,10.31-10.5,19.3,0,3.82.19,8.3.5,11.99l.15,1.63c.35,3.85.65,7.18.65,10.38v1.1c0,5.78-11.12,9.8-21.1,9.8-.69,0-16.8-.09-16.8-8.2,0-2.7.8-5.74,1.61-7.18.17-.38.65-.78,1.26-1.3.88-.75,2.09-1.79,3.17-3.47,2.63-4.02,3.96-7.71,3.96-10.95,0-2.16-.6-4.14-1.79-5.9.12-3.85.78-10.77,1.31-15.98,14.74-3.19,18.48-4.43,18.48-7.32,0-1.12-.61-3-4.7-3s-4.98.52-7.14,2.23c-.37.31-.67.39-1.21.54l-.22.06s-.07.02-.1.03c-1.34.54-2.75.99-4.35,1.41.04-.3.07-.6.1-.91.17-1.5.34-3.06.6-3.98.08-.37.23-.78.51-1.35.02-.04.04-.09.05-.13.22-.67.45-1.35.45-2.02,0-2.19-3.41-6.1-10.2-6.1-4.15,0-5.1,1.44-5.28,2.36-.05.11-.12.3-.12.54,0,.76.48,1.66,1.84,1.89.05,0,.11.01.16.01,3.3,0,5.3.32,5.3,4.8v1.2c0,.96,0,3.07-.14,5.2-4.53,1.09-6.17,1.3-7.66,1.3-.55,0-.88,0-1.16-.07-.05-.01-.11-.02-.17-.03-2.09-.16-5.27-1.21-7.3-3.63-.57-.71-1.24-1.08-1.98-1.08-1.12,0-1.9,1.11-1.9,2.7,0,3.98,4.33,8.6,9.9,8.6,1.31,0,3.58-.43,6.8-1.12.78-.16,1.54-.36,2.27-.57.29-.08.58-.16.87-.24-.03.51-.06,1.04-.09,1.58-.16,2.87-.35,6.29-.42,8.88-1.07-.44-1.99-.44-2.43-.44-7.58,0-13.3,7.01-13.3,16.3,0,6.61,3.17,10.85,8.56,11.39-.46,1.95-.86,4.67-.86,6.72.11,9.87,11.78,14.29,23.3,14.29,17.41,0,29.1-7.96,29.1-15.4,0-1.36-.46-2.65-1.35-3.76-.63-.71-1.27-2.41-1.35-3.15,0-.04-.01-.09-.02-.13-1.43-5.85-2.78-12.55-2.87-21.86,0-9.07,2.43-12.3,4.7-12.3,4.49,0,8.7,6.91,8.7,8.9,0,1.3-1.67,2.45-8.25,6.31-.85.42-1.35,1.21-1.35,2.09,0,1.2.9,2.1,2.1,2.1.25,0,.77,0,1.3-.33,4.13-2.11,5.1-2.17,5.2-2.17.87,0,1.73.6,2.57,1.19.35.25.69.48,1.09.71.55.28,1.11.4,1.75.4,2.37,0,4.3-2.78,4.3-6.2,0-6.83-7.55-17.7-16.5-17.7ZM871.71,44.6c.55,0,3.3.22,3.3,4.6,0,.88-.19,5.5-3.84,10.23-.7.78-1.36,1.17-1.96,1.17h-.2c-3.69,0-3.8-5.66-3.8-6.3,0-2.05,1.1-9.7,6.5-9.7Z"/>
      <path class="cls-1" d="M961.41,61.9c-8.55,0-15.5,6.95-15.5,15.5s6.95,15.5,15.5,15.5,15.6-6.95,15.6-15.5-7-15.5-15.6-15.5ZM961.41,86.81c-5.13,0-9.3-4.22-9.3-9.4s4.17-9.4,9.3-9.4,9.4,4.22,9.4,9.4-4.22,9.4-9.4,9.4Z"/>
    </g>
  </g>
</svg>